<svg width="149" height="87" viewBox="0 0 149 87" fill="none" xmlns="http://www.w3.org/2000/svg">
<rect x="3.51514" y="1.90332" width="145" height="85.0959" fill="#4FF1B3"/>
<rect width="145.879" height="85.0959" fill="#0D0D0D"/>
<path d="M23.7872 47.0567V26.5517H32.868C34.2936 26.5517 35.4848 26.7567 36.4418 27.1668C37.4182 27.5574 38.1603 28.1335 38.668 28.8951C39.1758 29.6372 39.4296 30.5453 39.4296 31.6194C39.4296 32.7716 39.1367 33.7382 38.5508 34.5194C37.9845 35.3005 37.1643 35.8473 36.0902 36.1598L36.0609 35.5446C36.9397 35.7594 37.7111 36.1207 38.3751 36.6285C39.0586 37.1167 39.5859 37.7221 39.9569 38.4446C40.3279 39.1476 40.5135 39.9483 40.5135 40.8466C40.5135 41.8816 40.3279 42.7897 39.9569 43.5709C39.6054 44.352 39.0976 45.0062 38.4337 45.5335C37.7892 46.0412 37.0178 46.422 36.1195 46.6759C35.2407 46.9298 34.2643 47.0567 33.1902 47.0567H23.7872ZM28.5327 42.8678H32.9852C33.8054 42.8678 34.4401 42.6726 34.8892 42.282C35.3579 41.8914 35.5923 41.3348 35.5923 40.6123C35.5923 40.1631 35.4751 39.7823 35.2407 39.4699C35.0259 39.1574 34.7135 38.9231 34.3034 38.7668C33.8933 38.6106 33.4051 38.5325 32.8387 38.5325H28.5327V42.8678ZM28.5327 34.7537H32.1943C32.702 34.7537 33.1317 34.6756 33.4832 34.5194C33.8347 34.3436 34.0983 34.1093 34.2741 33.8163C34.4694 33.5039 34.567 33.1426 34.567 32.7325C34.567 32.1076 34.3522 31.6194 33.9226 31.2679C33.4929 30.9163 32.8485 30.7406 31.9892 30.7406H28.5327V34.7537Z" fill="#4FF1B3"/>
<path d="M44.3266 47.0567V26.5517H49.3357V42.6335H58.475V47.0567H44.3266Z" fill="#4FF1B3"/>
<path d="M70.9778 47.3497C69.4351 47.3497 68.0095 47.086 66.7011 46.5587C65.4122 46.0315 64.2893 45.2992 63.3324 44.3618C62.395 43.4049 61.6627 42.282 61.1354 40.9931C60.6082 39.6847 60.3445 38.2591 60.3445 36.7163C60.3445 35.1931 60.6082 33.787 61.1354 32.4982C61.6627 31.1897 62.395 30.0571 63.3324 29.1002C64.2893 28.1433 65.4122 27.4012 66.7011 26.8739C68.0095 26.3466 69.4351 26.083 70.9778 26.083C72.5011 26.083 73.9071 26.3466 75.196 26.8739C76.4849 27.4012 77.598 28.1433 78.5354 29.1002C79.4923 30.0571 80.2344 31.1897 80.7617 32.4982C81.2889 33.787 81.5526 35.2029 81.5526 36.7456C81.5526 38.2689 81.2889 39.6749 80.7617 40.9638C80.2344 42.2527 79.4923 43.3756 78.5354 44.3325C77.598 45.2894 76.4849 46.0315 75.196 46.5587C73.9071 47.086 72.5011 47.3497 70.9778 47.3497ZM70.9778 42.6335C71.7785 42.6335 72.5108 42.487 73.1748 42.1941C73.8388 41.9012 74.4149 41.4911 74.9031 40.9638C75.4108 40.4365 75.8014 39.8116 76.0748 39.0891C76.3482 38.3665 76.4849 37.5854 76.4849 36.7456C76.4849 35.8864 76.3482 35.0955 76.0748 34.3729C75.8014 33.6503 75.4108 33.0254 74.9031 32.4982C74.4149 31.9514 73.8388 31.5315 73.1748 31.2386C72.5108 30.9456 71.7785 30.7992 70.9778 30.7992C70.1772 30.7992 69.4351 30.9456 68.7516 31.2386C68.0876 31.5315 67.5018 31.9514 66.994 32.4982C66.5058 33.0254 66.125 33.6503 65.8516 34.3729C65.5782 35.0955 65.4415 35.8864 65.4415 36.7456C65.4415 37.8783 65.6758 38.8938 66.1445 39.7921C66.6327 40.6709 67.2869 41.3641 68.1071 41.8719C68.9469 42.3796 69.9038 42.6335 70.9778 42.6335Z" fill="#4FF1B3"/>
<path d="M94.6632 47.3497C93.1205 47.3497 91.6949 47.0958 90.3865 46.588C89.0976 46.0608 87.9747 45.3284 87.0178 44.3911C86.0804 43.4342 85.3481 42.3113 84.8208 41.0224C84.3131 39.714 84.0592 38.2884 84.0592 36.7456C84.0592 35.2224 84.3228 33.8163 84.8501 32.5274C85.3969 31.2386 86.1585 30.1157 87.1349 29.1588C88.1114 28.2019 89.2538 27.4598 90.5622 26.9325C91.8902 26.4052 93.3255 26.1416 94.8683 26.1416C95.8447 26.1416 96.8016 26.2685 97.739 26.5224C98.6763 26.7763 99.5454 27.1571 100.346 27.6648C101.166 28.153 101.869 28.7487 102.455 29.4517L99.3794 32.9375C98.774 32.2736 98.0905 31.7561 97.3289 31.385C96.5868 31.014 95.7568 30.8285 94.839 30.8285C94.0578 30.8285 93.3157 30.9652 92.6127 31.2386C91.9292 31.512 91.3336 31.9123 90.8258 32.4396C90.3181 32.9668 89.9178 33.5918 89.6248 34.3143C89.3319 35.0369 89.1854 35.8571 89.1854 36.7749C89.1854 37.6732 89.3221 38.4934 89.5955 39.2355C89.8885 39.9581 90.2986 40.583 90.8258 41.1103C91.3727 41.618 92.0171 42.0086 92.7592 42.282C93.5208 42.5554 94.3605 42.6921 95.2784 42.6921C95.8838 42.6921 96.4598 42.614 97.0066 42.4577C97.573 42.282 98.1003 42.0379 98.5885 41.7254C99.0767 41.413 99.4965 41.0614 99.8481 40.6709L102.279 44.5375C101.811 45.0648 101.166 45.5433 100.346 45.9729C99.5454 46.4025 98.6471 46.7443 97.6511 46.9981C96.6747 47.2325 95.6787 47.3497 94.6632 47.3497Z" fill="#4FF1B3"/>
<path d="M109.379 41.0517L108.09 36.8042L118.225 26.5517H124.172L109.379 41.0517ZM105.659 47.0567V26.5517H110.668V47.0567H105.659ZM118.84 47.0567L111.254 37.0386L114.622 34.1386L124.699 47.0567H118.84Z" fill="#4FF1B3"/>
<path d="M33.1596 70.1981C31.6168 70.1981 30.1912 69.9442 28.8828 69.4365C27.5939 68.9092 26.471 68.1769 25.5141 67.2395C24.5768 66.2826 23.8444 65.1597 23.3172 63.8708C22.8094 62.5624 22.5555 61.1368 22.5555 59.5941C22.5555 58.0709 22.8192 56.6648 23.3465 55.3759C23.8933 54.087 24.6549 52.9641 25.6313 52.0072C26.6077 51.0503 27.7501 50.3082 29.0586 49.781C30.3865 49.2537 31.8219 48.9901 33.3646 48.9901C34.3411 48.9901 35.298 49.117 36.2353 49.3709C37.1727 49.6247 38.0417 50.0055 38.8424 50.5133C39.6626 51.0015 40.3656 51.5971 40.9515 52.3002L37.8757 55.786C37.2703 55.122 36.5868 54.6045 35.8252 54.2335C35.0831 53.8624 34.2532 53.6769 33.3353 53.6769C32.5542 53.6769 31.8121 53.8136 31.1091 54.087C30.4256 54.3604 29.8299 54.7608 29.3222 55.288C28.8145 55.8153 28.4141 56.4402 28.1212 57.1628C27.8283 57.8853 27.6818 58.7055 27.6818 59.6234C27.6818 60.5217 27.8185 61.3419 28.0919 62.084C28.3848 62.8065 28.7949 63.4315 29.3222 63.9587C29.869 64.4665 30.5134 64.857 31.2555 65.1304C32.0171 65.4038 32.8569 65.5405 33.7747 65.5405C34.3801 65.5405 34.9562 65.4624 35.503 65.3062C36.0693 65.1304 36.5966 64.8863 37.0848 64.5739C37.573 64.2614 37.9929 63.9099 38.3444 63.5193L40.7757 67.386C40.307 67.9133 39.6626 68.3917 38.8424 68.8214C38.0417 69.251 37.1434 69.5927 36.1474 69.8466C35.171 70.0809 34.1751 70.1981 33.1596 70.1981Z" fill="#4FF1B3"/>
<path d="M56.8973 69.9052V49.4002H61.9064V69.9052H56.8973ZM44.1549 69.9052V49.4002H49.164V69.9052H44.1549ZM46.1469 61.9375V57.4264H59.5337V61.9375H46.1469Z" fill="#4FF1B3"/>
<path d="M64.4629 69.9052L72.5771 49.4002H76.8245L84.8801 69.9052H79.8417L75.9457 59.5062C75.809 59.0961 75.6528 58.6567 75.4771 58.188C75.3208 57.7193 75.1646 57.2311 75.0084 56.7234C74.8521 56.2156 74.7057 55.7274 74.569 55.2587C74.4323 54.79 74.3151 54.3507 74.2175 53.9406L75.067 53.9113C74.9498 54.3995 74.8228 54.8779 74.6861 55.3466C74.5494 55.8153 74.403 56.284 74.2468 56.7527C74.0905 57.2214 73.9245 57.69 73.7488 58.1587C73.5925 58.6079 73.4266 59.0766 73.2508 59.5648L69.3841 69.9052H64.4629ZM68.3296 65.9799L69.9114 62.1719H79.2851L80.8669 65.9799H68.3296Z" fill="#4FF1B3"/>
<path d="M87.0555 69.9052V65.687H90.5121V53.6183H87.0555V49.4002H98.9777V53.6183H95.5212V65.687H98.9777V69.9052H87.0555Z" fill="#4FF1B3"/>
<path d="M103.685 69.9052V49.4002H108.167L118.946 64.0173L117.98 63.9001C117.843 62.8065 117.726 61.7911 117.628 60.8537C117.531 59.8968 117.462 58.9008 117.423 57.8658C117.404 56.8308 117.394 55.6395 117.394 54.2921V49.4002H122.256V69.9052H117.716L106.526 54.8486L107.962 55.0537C108.098 56.2449 108.206 57.2311 108.284 58.0123C108.362 58.7934 108.42 59.4671 108.459 60.0335C108.499 60.5803 108.528 61.0978 108.547 61.586C108.567 62.0547 108.577 62.582 108.577 63.1678V69.9052H103.685Z" fill="#4FF1B3"/>
<path d="M22.6156 46.1778V25.6728H31.6964C33.122 25.6728 34.3132 25.8778 35.2701 26.2879C36.2465 26.6785 36.9886 27.2546 37.4964 28.0162C38.0041 28.7583 38.258 29.6664 38.258 30.7405C38.258 31.8926 37.9651 32.8593 37.3792 33.6405C36.8129 34.4216 35.9927 34.9684 34.9186 35.2809L34.8893 34.6657C35.7681 34.8805 36.5395 35.2418 37.2035 35.7495C37.887 36.2378 38.4142 36.8431 38.7853 37.5657C39.1563 38.2687 39.3418 39.0694 39.3418 39.9677C39.3418 41.0027 39.1563 41.9108 38.7853 42.692C38.4338 43.4731 37.926 44.1273 37.262 44.6546C36.6176 45.1623 35.8462 45.5431 34.9479 45.797C34.0691 46.0509 33.0927 46.1778 32.0186 46.1778H22.6156ZM27.361 41.9889H31.8136C32.6338 41.9889 33.2684 41.7936 33.7176 41.4031C34.1863 41.0125 34.4206 40.4559 34.4206 39.7334C34.4206 39.2842 34.3035 38.9034 34.0691 38.591C33.8543 38.2785 33.5418 38.0442 33.1317 37.8879C32.7216 37.7317 32.2334 37.6536 31.6671 37.6536H27.361V41.9889ZM27.361 33.8748H31.0226C31.5304 33.8748 31.96 33.7967 32.3115 33.6405C32.6631 33.4647 32.9267 33.2304 33.1024 32.9374C33.2977 32.625 33.3954 32.2637 33.3954 31.8536C33.3954 31.2287 33.1806 30.7405 32.7509 30.3889C32.3213 30.0374 31.6769 29.8617 30.8176 29.8617H27.361V33.8748Z" fill="white"/>
<path d="M43.1549 46.1778V25.6728H48.164V41.7546H57.3034V46.1778H43.1549Z" fill="white"/>
<path d="M69.8062 46.4707C68.2635 46.4707 66.8379 46.2071 65.5295 45.6798C64.2406 45.1526 63.1177 44.4202 62.1608 43.4829C61.2234 42.526 60.4911 41.4031 59.9638 40.1142C59.4365 38.8058 59.1729 37.3802 59.1729 35.8374C59.1729 34.3142 59.4365 32.9081 59.9638 31.6192C60.4911 30.3108 61.2234 29.1782 62.1608 28.2213C63.1177 27.2644 64.2406 26.5223 65.5295 25.995C66.8379 25.4677 68.2635 25.2041 69.8062 25.2041C71.3294 25.2041 72.7355 25.4677 74.0244 25.995C75.3133 26.5223 76.4264 27.2644 77.3638 28.2213C78.3207 29.1782 79.0628 30.3108 79.59 31.6192C80.1173 32.9081 80.381 34.324 80.381 35.8667C80.381 37.3899 80.1173 38.796 79.59 40.0849C79.0628 41.3738 78.3207 42.4967 77.3638 43.4536C76.4264 44.4105 75.3133 45.1526 74.0244 45.6798C72.7355 46.2071 71.3294 46.4707 69.8062 46.4707ZM69.8062 41.7546C70.6069 41.7546 71.3392 41.6081 72.0032 41.3152C72.6672 41.0223 73.2433 40.6122 73.7315 40.0849C74.2392 39.5576 74.6298 38.9327 74.9032 38.2101C75.1766 37.4876 75.3133 36.7064 75.3133 35.8667C75.3133 35.0075 75.1766 34.2166 74.9032 33.494C74.6298 32.7714 74.2392 32.1465 73.7315 31.6192C73.2433 31.0724 72.6672 30.6526 72.0032 30.3597C71.3392 30.0667 70.6069 29.9203 69.8062 29.9203C69.0055 29.9203 68.2635 30.0667 67.58 30.3597C66.916 30.6526 66.3301 31.0724 65.8224 31.6192C65.3342 32.1465 64.9534 32.7714 64.68 33.494C64.4066 34.2166 64.2699 35.0075 64.2699 35.8667C64.2699 36.9994 64.5042 38.0149 64.9729 38.9132C65.4611 39.792 66.1153 40.4852 66.9355 40.993C67.7752 41.5007 68.7321 41.7546 69.8062 41.7546Z" fill="white"/>
<path d="M93.4916 46.4707C91.9488 46.4707 90.5232 46.2169 89.2148 45.7091C87.9259 45.1819 86.803 44.4495 85.8461 43.5122C84.9088 42.5553 84.1764 41.4324 83.6492 40.1435C83.1414 38.8351 82.8876 37.4095 82.8876 35.8667C82.8876 34.3435 83.1512 32.9374 83.6785 31.6485C84.2253 30.3597 84.9869 29.2368 85.9633 28.2799C86.9397 27.323 88.0822 26.5809 89.3906 26.0536C90.7185 25.5263 92.1539 25.2627 93.6966 25.2627C94.6731 25.2627 95.63 25.3896 96.5673 25.6435C97.5047 25.8974 98.3737 26.2782 99.1744 26.7859C99.9946 27.2741 100.698 27.8698 101.283 28.5728L98.2077 32.0586C97.6024 31.3947 96.9189 30.8772 96.1572 30.5061C95.4152 30.1351 94.5852 29.9496 93.6673 29.9496C92.8862 29.9496 92.1441 30.0863 91.4411 30.3597C90.7576 30.6331 90.162 31.0334 89.6542 31.5607C89.1465 32.0879 88.7461 32.7128 88.4532 33.4354C88.1603 34.158 88.0138 34.9782 88.0138 35.896C88.0138 36.7943 88.1505 37.6145 88.4239 38.3566C88.7168 39.0792 89.1269 39.7041 89.6542 40.2314C90.201 40.7391 90.8455 41.1297 91.5875 41.4031C92.3492 41.6765 93.1889 41.8132 94.1067 41.8132C94.7121 41.8132 95.2882 41.7351 95.835 41.5788C96.4013 41.4031 96.9286 41.159 97.4168 40.8465C97.9051 40.5341 98.3249 40.1825 98.6764 39.792L101.108 43.6586C100.639 44.1859 99.9946 44.6644 99.1744 45.094C98.3737 45.5236 97.4754 45.8654 96.4795 46.1192C95.503 46.3536 94.5071 46.4707 93.4916 46.4707Z" fill="white"/>
<path d="M108.207 40.1728L106.918 35.9253L117.054 25.6728H123L108.207 40.1728ZM104.487 46.1778V25.6728H109.496V46.1778H104.487ZM117.669 46.1778L110.082 36.1596L113.451 33.2596L123.527 46.1778H117.669Z" fill="white"/>
<path d="M31.9879 69.3192C30.4452 69.3192 29.0196 69.0653 27.7112 68.5576C26.4223 68.0303 25.2994 67.298 24.3425 66.3606C23.4051 65.4037 22.6728 64.2808 22.1455 62.9919C21.6378 61.6835 21.3839 60.2579 21.3839 58.7152C21.3839 57.1919 21.6475 55.7859 22.1748 54.497C22.7216 53.2081 23.4832 52.0852 24.4597 51.1283C25.4361 50.1714 26.5785 49.4293 27.8869 48.9021C29.2149 48.3748 30.6502 48.1111 32.193 48.1111C33.1694 48.1111 34.1263 48.2381 35.0637 48.492C36.0011 48.7458 36.8701 49.1266 37.6708 49.6344C38.491 50.1226 39.194 50.7182 39.7799 51.4212L36.7041 54.9071C36.0987 54.2431 35.4152 53.7256 34.6536 53.3546C33.9115 52.9835 33.0815 52.798 32.1637 52.798C31.3826 52.798 30.6405 52.9347 29.9374 53.2081C29.2539 53.4815 28.6583 53.8818 28.1506 54.4091C27.6428 54.9364 27.2425 55.5613 26.9496 56.2839C26.6566 57.0064 26.5102 57.8266 26.5102 58.7445C26.5102 59.6428 26.6469 60.463 26.9203 61.2051C27.2132 61.9276 27.6233 62.5525 28.1506 63.0798C28.6974 63.5876 29.3418 63.9781 30.0839 64.2515C30.8455 64.5249 31.6852 64.6616 32.6031 64.6616C33.2085 64.6616 33.7846 64.5835 34.3314 64.4273C34.8977 64.2515 35.425 64.0074 35.9132 63.695C36.4014 63.3825 36.8213 63.031 37.1728 62.6404L39.6041 66.5071C39.1354 67.0344 38.491 67.5128 37.6708 67.9424C36.8701 68.3721 35.9718 68.7138 34.9758 68.9677C33.9994 69.202 33.0034 69.3192 31.9879 69.3192Z" fill="white"/>
<path d="M55.7257 69.0263V48.5212H60.7348V69.0263H55.7257ZM42.9833 69.0263V48.5212H47.9924V69.0263H42.9833ZM44.9752 61.0586V56.5475H58.3621V61.0586H44.9752Z" fill="white"/>
<path d="M63.2913 69.0263L71.4054 48.5212H75.6529L83.7084 69.0263H78.6701L74.7741 58.6273C74.6374 58.2172 74.4812 57.7778 74.3054 57.3091C74.1492 56.8404 73.993 56.3522 73.8367 55.8445C73.6805 55.3367 73.534 54.8485 73.3973 54.3798C73.2606 53.9111 73.1435 53.4717 73.0458 53.0616L73.8953 53.0324C73.7782 53.5206 73.6512 53.999 73.5145 54.4677C73.3778 54.9364 73.2314 55.4051 73.0751 55.8738C72.9189 56.3425 72.7529 56.8111 72.5771 57.2798C72.4209 57.729 72.2549 58.1977 72.0792 58.6859L68.2125 69.0263H63.2913ZM67.158 65.101L68.7398 61.293H78.1135L79.6953 65.101H67.158Z" fill="white"/>
<path d="M85.8839 69.0263V64.8081H89.3405V52.7394H85.8839V48.5212H97.8061V52.7394H94.3495V64.8081H97.8061V69.0263H85.8839Z" fill="white"/>
<path d="M102.513 69.0263V48.5212H106.995L117.775 63.1384L116.808 63.0212C116.671 61.9276 116.554 60.9121 116.457 59.9748C116.359 59.0179 116.291 58.0219 116.251 56.9869C116.232 55.9519 116.222 54.7606 116.222 53.4132V48.5212H121.085V69.0263H116.544L105.355 53.9697L106.79 54.1748C106.927 55.366 107.034 56.3522 107.112 57.1334C107.19 57.9145 107.249 58.5882 107.288 59.1546C107.327 59.7014 107.356 60.2189 107.376 60.7071C107.395 61.1758 107.405 61.7031 107.405 62.2889V69.0263H102.513Z" fill="white"/>
<path d="M27 18.875V10.125H30.1892C30.7588 10.125 31.2843 10.2333 31.7657 10.45C32.2471 10.6583 32.6643 10.9583 33.0173 11.35C33.3703 11.7333 33.6431 12.1917 33.8357 12.725C34.0282 13.2583 34.1245 13.85 34.1245 14.5C34.1245 15.1417 34.0282 15.7333 33.8357 16.275C33.6431 16.8083 33.3703 17.2708 33.0173 17.6625C32.6723 18.0458 32.2551 18.3458 31.7657 18.5625C31.2843 18.7708 30.7588 18.875 30.1892 18.875H27ZM27.9507 18.05L27.8906 17.925H30.129C30.5703 17.925 30.9754 17.8417 31.3445 17.675C31.7216 17.5083 32.0425 17.2792 32.3073 16.9875C32.5801 16.6875 32.7887 16.325 32.9331 15.9C33.0775 15.475 33.1497 15.0083 33.1497 14.5C33.1497 13.9917 33.0775 13.5292 32.9331 13.1125C32.7887 12.6875 32.5801 12.325 32.3073 12.025C32.0345 11.725 31.7136 11.4917 31.3445 11.325C30.9754 11.1583 30.5703 11.075 30.129 11.075H27.8665L27.9507 10.9625V18.05Z" fill="white"/>
<path d="M35.9555 18.875V10.125H41.0581V11.075H36.9062V17.925H41.0341V18.875H35.9555ZM36.4007 14.85V13.9H40.3842V14.85H36.4007Z" fill="white"/>
<path d="M43.148 18.875V10.125H44.0627L47.2879 15.5375L46.8788 15.525L50.1161 10.125H50.9826V18.875H50.0318V14.2125C50.0318 13.6125 50.0439 13.0667 50.0679 12.575C50.1 12.075 50.1482 11.5792 50.2123 11.0875L50.3808 11.4125L47.3481 16.35H46.7584L43.7979 11.475L43.9303 11.0875C43.9945 11.5542 44.0386 12.0292 44.0627 12.5125C44.0867 12.9958 44.0988 13.5583 44.0988 14.2V18.875H43.148Z" fill="white"/>
<path d="M55.6814 18.875V14.55L55.7657 15.125L52.396 10.125H53.5393L56.3072 14.2625L56.0665 14.2375L58.6419 10.125H59.7371L56.4757 15.2125L56.6322 14.4875V18.875H55.6814Z" fill="white"/>
<path d="M63.3153 19C62.6173 19 62.0036 18.8625 61.474 18.5875C60.9525 18.3042 60.5113 17.8917 60.1502 17.35L60.8242 16.575C61.1852 17.125 61.5663 17.5167 61.9674 17.75C62.3766 17.9833 62.858 18.1 63.4116 18.1C63.7646 18.1 64.0815 18.0375 64.3623 17.9125C64.6512 17.7875 64.8798 17.6167 65.0483 17.4C65.2168 17.1833 65.301 16.9375 65.301 16.6625C65.301 16.4792 65.2689 16.3125 65.2048 16.1625C65.1486 16.0125 65.0563 15.8792 64.928 15.7625C64.8076 15.6458 64.6552 15.5375 64.4706 15.4375C64.2861 15.3375 64.0735 15.25 63.8328 15.175C63.6001 15.0917 63.3354 15.0125 63.0385 14.9375C62.6213 14.8458 62.2563 14.725 61.9434 14.575C61.6385 14.425 61.3777 14.2458 61.1611 14.0375C60.9445 13.8292 60.784 13.5917 60.6797 13.325C60.5754 13.05 60.5233 12.7417 60.5233 12.4C60.5233 11.9333 60.6476 11.5208 60.8964 11.1625C61.1531 10.8042 61.4941 10.5208 61.9193 10.3125C62.3526 10.1042 62.838 10 63.3755 10C64.0254 10 64.579 10.125 65.0363 10.375C65.5016 10.6167 65.8747 10.9708 66.1555 11.4375L65.4816 12.125C65.2248 11.7333 64.9199 11.4333 64.5669 11.225C64.2219 11.0083 63.8168 10.9 63.3514 10.9C62.9904 10.9 62.6695 10.9625 62.3887 11.0875C62.1078 11.2125 61.8872 11.3875 61.7268 11.6125C61.5663 11.8292 61.4861 12.0833 61.4861 12.375C61.4861 12.5833 61.5222 12.775 61.5944 12.95C61.6746 13.1167 61.7909 13.2625 61.9434 13.3875C62.0958 13.5125 62.2924 13.625 62.5331 13.725C62.7738 13.825 63.0586 13.9125 63.3875 13.9875C63.8368 14.0958 64.238 14.225 64.591 14.375C64.952 14.525 65.2569 14.7 65.5056 14.9C65.7543 15.1 65.9429 15.325 66.0713 15.575C66.1996 15.825 66.2638 16.1083 66.2638 16.425C66.2638 16.9417 66.1394 17.3958 65.8907 17.7875C65.65 18.1708 65.3091 18.4708 64.8678 18.6875C64.4265 18.8958 63.909 19 63.3153 19Z" fill="white"/>
<path d="M69.6632 18.875V11.075H67.2322V10.125H73.0931V11.075H70.6139V18.875H69.6632Z" fill="white"/>
<path d="M74.2231 18.875V17.95H75.6552V11.05H74.2231V10.125H78.0501V11.05H76.606V17.95H78.0501V18.875H74.2231Z" fill="white"/>
<path d="M80.0511 18.875V10.125H81.0018V18.875H80.0511ZM80.4843 14.975V14.0125H84.6724V14.975H80.4843ZM80.4963 11.075V10.125H85.2621V11.075H80.4963Z" fill="white"/>
<path d="M89.4113 18.875V14.55L89.4955 15.125L86.1258 10.125H87.2691L90.0371 14.2625L89.7964 14.2375L92.3718 10.125H93.4669L90.2056 15.2125L90.362 14.4875V18.875H89.4113Z" fill="white"/>
<path d="M94.4023 18.875V17.95H95.8344V11.05H94.4023V10.125H98.2293V11.05H96.7851V17.95H98.2293V18.875H94.4023Z" fill="white"/>
<path d="M100.23 18.875V10.125H101.097L106.428 17.6875L106.284 17.7625C106.244 17.4958 106.211 17.1875 106.187 16.8375C106.163 16.4792 106.143 16.0625 106.127 15.5875C106.119 15.1125 106.115 14.5708 106.115 13.9625V10.125H107.066V18.875H106.187L100.868 11.4125L101.012 11.3C101.053 11.75 101.081 12.1458 101.097 12.4875C101.121 12.8292 101.141 13.125 101.157 13.375C101.173 13.6167 101.181 13.8292 101.181 14.0125C101.181 14.1875 101.181 14.3458 101.181 14.4875V18.875H100.23Z" fill="white"/>
<path d="M113.197 19C112.587 19 112.022 18.8875 111.5 18.6625C110.979 18.4375 110.521 18.125 110.128 17.725C109.743 17.3167 109.442 16.8417 109.226 16.3C109.017 15.75 108.913 15.1542 108.913 14.5125C108.913 13.8792 109.017 13.2917 109.226 12.75C109.442 12.2 109.743 11.725 110.128 11.325C110.513 10.9167 110.967 10.6 111.488 10.375C112.01 10.15 112.575 10.0375 113.185 10.0375C113.618 10.0375 114.035 10.1042 114.437 10.2375C114.846 10.3625 115.215 10.5417 115.544 10.775C115.873 11 116.15 11.2667 116.374 11.575L115.748 12.2375C115.395 11.8458 114.998 11.5417 114.557 11.325C114.124 11.1083 113.666 11 113.185 11C112.712 11 112.274 11.0875 111.873 11.2625C111.472 11.4375 111.119 11.6833 110.814 12C110.517 12.3167 110.285 12.6917 110.116 13.125C109.956 13.55 109.875 14.0125 109.875 14.5125C109.875 15.0042 109.96 15.4667 110.128 15.9C110.305 16.325 110.545 16.7 110.85 17.025C111.155 17.3417 111.508 17.5917 111.909 17.775C112.319 17.95 112.756 18.0375 113.221 18.0375C113.63 18.0375 113.999 17.975 114.328 17.85C114.665 17.725 114.958 17.5458 115.207 17.3125C115.456 17.0792 115.644 16.8083 115.772 16.5C115.909 16.1833 115.977 15.8458 115.977 15.4875V15.2375L116.121 15.375H113.209V14.3875H116.952C116.968 14.4708 116.976 14.5458 116.976 14.6125C116.984 14.6792 116.988 14.7417 116.988 14.8C116.996 14.8583 117 14.9125 117 14.9625C117 15.5875 116.904 16.15 116.711 16.65C116.527 17.1417 116.262 17.5625 115.917 17.9125C115.58 18.2625 115.179 18.5333 114.713 18.725C114.256 18.9083 113.751 19 113.197 19Z" fill="white"/>
</svg>
