<svg width="996" height="581" viewBox="0 0 996 581" fill="none" xmlns="http://www.w3.org/2000/svg">
<rect width="996" height="581" fill="#0D0D0D"/>
<path d="M162.409 321.28V181.28H224.409C234.143 181.28 242.276 182.68 248.809 185.48C255.476 188.147 260.543 192.08 264.009 197.28C267.476 202.347 269.209 208.547 269.209 215.88C269.209 223.747 267.209 230.347 263.209 235.68C259.343 241.013 253.743 244.747 246.409 246.88L246.209 242.68C252.209 244.147 257.476 246.613 262.009 250.08C266.676 253.413 270.276 257.547 272.809 262.48C275.343 267.28 276.609 272.747 276.609 278.88C276.609 285.947 275.343 292.147 272.809 297.48C270.409 302.813 266.943 307.28 262.409 310.88C258.009 314.347 252.743 316.947 246.609 318.68C240.609 320.413 233.943 321.28 226.609 321.28H162.409ZM194.809 292.68H225.209C230.809 292.68 235.143 291.347 238.209 288.68C241.409 286.013 243.009 282.213 243.009 277.28C243.009 274.213 242.209 271.613 240.609 269.48C239.143 267.347 237.009 265.747 234.209 264.68C231.409 263.613 228.076 263.08 224.209 263.08H194.809V292.68ZM194.809 237.28H219.809C223.276 237.28 226.209 236.747 228.609 235.68C231.009 234.48 232.809 232.88 234.009 230.88C235.343 228.747 236.009 226.28 236.009 223.48C236.009 219.213 234.543 215.88 231.609 213.48C228.676 211.08 224.276 209.88 218.409 209.88H194.809V237.28Z" fill="#4FF1B3"/>
<path d="M302.644 321.28V181.28H336.844V291.08H399.244V321.28H302.644Z" fill="#4FF1B3"/>
<path d="M484.608 323.28C474.074 323.28 464.341 321.48 455.408 317.88C446.608 314.28 438.941 309.28 432.408 302.88C426.008 296.347 421.008 288.68 417.408 279.88C413.808 270.947 412.008 261.213 412.008 250.68C412.008 240.28 413.808 230.68 417.408 221.88C421.008 212.947 426.008 205.213 432.408 198.68C438.941 192.147 446.608 187.08 455.408 183.48C464.341 179.88 474.074 178.08 484.608 178.08C495.008 178.08 504.608 179.88 513.408 183.48C522.208 187.08 529.808 192.147 536.208 198.68C542.741 205.213 547.808 212.947 551.408 221.88C555.008 230.68 556.808 240.347 556.808 250.88C556.808 261.28 555.008 270.88 551.408 279.68C547.808 288.48 542.741 296.147 536.208 302.68C529.808 309.213 522.208 314.28 513.408 317.88C504.608 321.48 495.008 323.28 484.608 323.28ZM484.608 291.08C490.074 291.08 495.074 290.08 499.608 288.08C504.141 286.08 508.074 283.28 511.408 279.68C514.874 276.08 517.541 271.813 519.408 266.88C521.274 261.947 522.208 256.613 522.208 250.88C522.208 245.013 521.274 239.613 519.408 234.68C517.541 229.747 514.874 225.48 511.408 221.88C508.074 218.147 504.141 215.28 499.608 213.28C495.074 211.28 490.074 210.28 484.608 210.28C479.141 210.28 474.074 211.28 469.408 213.28C464.874 215.28 460.874 218.147 457.408 221.88C454.074 225.48 451.474 229.747 449.608 234.68C447.741 239.613 446.808 245.013 446.808 250.88C446.808 258.613 448.408 265.547 451.608 271.68C454.941 277.68 459.408 282.413 465.008 285.88C470.741 289.347 477.274 291.08 484.608 291.08Z" fill="#4FF1B3"/>
<path d="M646.322 323.28C635.789 323.28 626.055 321.547 617.122 318.08C608.322 314.48 600.655 309.48 594.122 303.08C587.722 296.547 582.722 288.88 579.122 280.08C575.655 271.147 573.922 261.413 573.922 250.88C573.922 240.48 575.722 230.88 579.322 222.08C583.055 213.28 588.255 205.613 594.922 199.08C601.589 192.547 609.389 187.48 618.322 183.88C627.389 180.28 637.189 178.48 647.722 178.48C654.389 178.48 660.922 179.347 667.322 181.08C673.722 182.813 679.655 185.413 685.122 188.88C690.722 192.213 695.522 196.28 699.522 201.08L678.522 224.88C674.389 220.347 669.722 216.813 664.522 214.28C659.455 211.747 653.789 210.48 647.522 210.48C642.189 210.48 637.122 211.413 632.322 213.28C627.655 215.147 623.589 217.88 620.122 221.48C616.655 225.08 613.922 229.347 611.922 234.28C609.922 239.213 608.922 244.813 608.922 251.08C608.922 257.213 609.855 262.813 611.722 267.88C613.722 272.813 616.522 277.08 620.122 280.68C623.855 284.147 628.255 286.813 633.322 288.68C638.522 290.547 644.255 291.48 650.522 291.48C654.655 291.48 658.589 290.947 662.322 289.88C666.189 288.68 669.789 287.013 673.122 284.88C676.455 282.747 679.322 280.347 681.722 277.68L698.322 304.08C695.122 307.68 690.722 310.947 685.122 313.88C679.655 316.813 673.522 319.147 666.722 320.88C660.055 322.48 653.255 323.28 646.322 323.28Z" fill="#4FF1B3"/>
<path d="M746.794 280.28L737.994 251.28L807.194 181.28H847.794L746.794 280.28ZM721.394 321.28V181.28H755.594V321.28H721.394ZM811.394 321.28L759.594 252.88L782.594 233.08L851.394 321.28H811.394Z" fill="#4FF1B3"/>
<path d="M226.4 479.28C215.867 479.28 206.133 477.547 197.2 474.08C188.4 470.48 180.733 465.48 174.2 459.08C167.8 452.547 162.8 444.88 159.2 436.08C155.733 427.147 154 417.413 154 406.88C154 396.48 155.8 386.88 159.4 378.08C163.133 369.28 168.333 361.613 175 355.08C181.667 348.547 189.467 343.48 198.4 339.88C207.467 336.28 217.267 334.48 227.8 334.48C234.467 334.48 241 335.347 247.4 337.08C253.8 338.813 259.733 341.413 265.2 344.88C270.8 348.213 275.6 352.28 279.6 357.08L258.6 380.88C254.467 376.347 249.8 372.813 244.6 370.28C239.533 367.747 233.867 366.48 227.6 366.48C222.267 366.48 217.2 367.413 212.4 369.28C207.733 371.147 203.667 373.88 200.2 377.48C196.733 381.08 194 385.347 192 390.28C190 395.213 189 400.813 189 407.08C189 413.213 189.933 418.813 191.8 423.88C193.8 428.813 196.6 433.08 200.2 436.68C203.933 440.147 208.333 442.813 213.4 444.68C218.6 446.547 224.333 447.48 230.6 447.48C234.733 447.48 238.667 446.947 242.4 445.88C246.267 444.68 249.867 443.013 253.2 440.88C256.533 438.747 259.4 436.347 261.8 433.68L278.4 460.08C275.2 463.68 270.8 466.947 265.2 469.88C259.733 472.813 253.6 475.147 246.8 476.88C240.133 478.48 233.333 479.28 226.4 479.28Z" fill="#4FF1B3"/>
<path d="M388.472 477.28V337.28H422.672V477.28H388.472ZM301.472 477.28V337.28H335.672V477.28H301.472ZM315.072 422.88V392.08H406.472V422.88H315.072Z" fill="#4FF1B3"/>
<path d="M440.127 477.28L495.527 337.28H524.527L579.527 477.28H545.127L518.527 406.28C517.593 403.48 516.527 400.48 515.327 397.28C514.26 394.08 513.193 390.747 512.127 387.28C511.06 383.813 510.06 380.48 509.127 377.28C508.193 374.08 507.393 371.08 506.727 368.28L512.527 368.08C511.727 371.413 510.86 374.68 509.927 377.88C508.993 381.08 507.993 384.28 506.927 387.48C505.86 390.68 504.727 393.88 503.527 397.08C502.46 400.147 501.327 403.347 500.127 406.68L473.727 477.28H440.127ZM466.527 450.48L477.327 424.48H541.327L552.127 450.48H466.527Z" fill="#4FF1B3"/>
<path d="M594.38 477.28V448.48H617.98V366.08H594.38V337.28H675.78V366.08H652.18V448.48H675.78V477.28H594.38Z" fill="#4FF1B3"/>
<path d="M707.917 477.28V337.28H738.517L812.117 437.08L805.517 436.28C804.584 428.813 803.784 421.88 803.117 415.48C802.451 408.947 801.984 402.147 801.717 395.08C801.584 388.013 801.517 379.88 801.517 370.68V337.28H834.717V477.28H803.717L727.317 374.48L737.117 375.88C738.051 384.013 738.784 390.747 739.317 396.08C739.851 401.413 740.251 406.013 740.517 409.88C740.784 413.613 740.984 417.147 741.117 420.48C741.251 423.68 741.317 427.28 741.317 431.28V477.28H707.917Z" fill="#4FF1B3"/>
<path d="M154.409 315.28V175.28H216.409C226.143 175.28 234.276 176.68 240.809 179.48C247.476 182.147 252.543 186.08 256.009 191.28C259.476 196.347 261.209 202.547 261.209 209.88C261.209 217.747 259.209 224.347 255.209 229.68C251.343 235.013 245.743 238.747 238.409 240.88L238.209 236.68C244.209 238.147 249.476 240.613 254.009 244.08C258.676 247.413 262.276 251.547 264.809 256.48C267.343 261.28 268.609 266.747 268.609 272.88C268.609 279.947 267.343 286.147 264.809 291.48C262.409 296.813 258.943 301.28 254.409 304.88C250.009 308.347 244.743 310.947 238.609 312.68C232.609 314.413 225.943 315.28 218.609 315.28H154.409ZM186.809 286.68H217.209C222.809 286.68 227.143 285.347 230.209 282.68C233.409 280.013 235.009 276.213 235.009 271.28C235.009 268.213 234.209 265.613 232.609 263.48C231.143 261.347 229.009 259.747 226.209 258.68C223.409 257.613 220.076 257.08 216.209 257.08H186.809V286.68ZM186.809 231.28H211.809C215.276 231.28 218.209 230.747 220.609 229.68C223.009 228.48 224.809 226.88 226.009 224.88C227.343 222.747 228.009 220.28 228.009 217.48C228.009 213.213 226.543 209.88 223.609 207.48C220.676 205.08 216.276 203.88 210.409 203.88H186.809V231.28Z" fill="white"/>
<path d="M294.644 315.28V175.28H328.844V285.08H391.244V315.28H294.644Z" fill="white"/>
<path d="M476.608 317.28C466.074 317.28 456.341 315.48 447.408 311.88C438.608 308.28 430.941 303.28 424.408 296.88C418.008 290.347 413.008 282.68 409.408 273.88C405.808 264.947 404.008 255.213 404.008 244.68C404.008 234.28 405.808 224.68 409.408 215.88C413.008 206.947 418.008 199.213 424.408 192.68C430.941 186.147 438.608 181.08 447.408 177.48C456.341 173.88 466.074 172.08 476.608 172.08C487.008 172.08 496.608 173.88 505.408 177.48C514.208 181.08 521.808 186.147 528.208 192.68C534.741 199.213 539.808 206.947 543.408 215.88C547.008 224.68 548.808 234.347 548.808 244.88C548.808 255.28 547.008 264.88 543.408 273.68C539.808 282.48 534.741 290.147 528.208 296.68C521.808 303.213 514.208 308.28 505.408 311.88C496.608 315.48 487.008 317.28 476.608 317.28ZM476.608 285.08C482.074 285.08 487.074 284.08 491.608 282.08C496.141 280.08 500.074 277.28 503.408 273.68C506.874 270.08 509.541 265.813 511.408 260.88C513.274 255.947 514.208 250.613 514.208 244.88C514.208 239.013 513.274 233.613 511.408 228.68C509.541 223.747 506.874 219.48 503.408 215.88C500.074 212.147 496.141 209.28 491.608 207.28C487.074 205.28 482.074 204.28 476.608 204.28C471.141 204.28 466.074 205.28 461.408 207.28C456.874 209.28 452.874 212.147 449.408 215.88C446.074 219.48 443.474 223.747 441.608 228.68C439.741 233.613 438.808 239.013 438.808 244.88C438.808 252.613 440.408 259.547 443.608 265.68C446.941 271.68 451.408 276.413 457.008 279.88C462.741 283.347 469.274 285.08 476.608 285.08Z" fill="white"/>
<path d="M638.322 317.28C627.789 317.28 618.055 315.547 609.122 312.08C600.322 308.48 592.655 303.48 586.122 297.08C579.722 290.547 574.722 282.88 571.122 274.08C567.655 265.147 565.922 255.413 565.922 244.88C565.922 234.48 567.722 224.88 571.322 216.08C575.055 207.28 580.255 199.613 586.922 193.08C593.589 186.547 601.389 181.48 610.322 177.88C619.389 174.28 629.189 172.48 639.722 172.48C646.389 172.48 652.922 173.347 659.322 175.08C665.722 176.813 671.655 179.413 677.122 182.88C682.722 186.213 687.522 190.28 691.522 195.08L670.522 218.88C666.389 214.347 661.722 210.813 656.522 208.28C651.455 205.747 645.789 204.48 639.522 204.48C634.189 204.48 629.122 205.413 624.322 207.28C619.655 209.147 615.589 211.88 612.122 215.48C608.655 219.08 605.922 223.347 603.922 228.28C601.922 233.213 600.922 238.813 600.922 245.08C600.922 251.213 601.855 256.813 603.722 261.88C605.722 266.813 608.522 271.08 612.122 274.68C615.855 278.147 620.255 280.813 625.322 282.68C630.522 284.547 636.255 285.48 642.522 285.48C646.655 285.48 650.589 284.947 654.322 283.88C658.189 282.68 661.789 281.013 665.122 278.88C668.455 276.747 671.322 274.347 673.722 271.68L690.322 298.08C687.122 301.68 682.722 304.947 677.122 307.88C671.655 310.813 665.522 313.147 658.722 314.88C652.055 316.48 645.255 317.28 638.322 317.28Z" fill="white"/>
<path d="M738.794 274.28L729.994 245.28L799.194 175.28H839.794L738.794 274.28ZM713.394 315.28V175.28H747.594V315.28H713.394ZM803.394 315.28L751.594 246.88L774.594 227.08L843.394 315.28H803.394Z" fill="white"/>
<path d="M218.4 473.28C207.867 473.28 198.133 471.547 189.2 468.08C180.4 464.48 172.733 459.48 166.2 453.08C159.8 446.547 154.8 438.88 151.2 430.08C147.733 421.147 146 411.413 146 400.88C146 390.48 147.8 380.88 151.4 372.08C155.133 363.28 160.333 355.613 167 349.08C173.667 342.547 181.467 337.48 190.4 333.88C199.467 330.28 209.267 328.48 219.8 328.48C226.467 328.48 233 329.347 239.4 331.08C245.8 332.813 251.733 335.413 257.2 338.88C262.8 342.213 267.6 346.28 271.6 351.08L250.6 374.88C246.467 370.347 241.8 366.813 236.6 364.28C231.533 361.747 225.867 360.48 219.6 360.48C214.267 360.48 209.2 361.413 204.4 363.28C199.733 365.147 195.667 367.88 192.2 371.48C188.733 375.08 186 379.347 184 384.28C182 389.213 181 394.813 181 401.08C181 407.213 181.933 412.813 183.8 417.88C185.8 422.813 188.6 427.08 192.2 430.68C195.933 434.147 200.333 436.813 205.4 438.68C210.6 440.547 216.333 441.48 222.6 441.48C226.733 441.48 230.667 440.947 234.4 439.88C238.267 438.68 241.867 437.013 245.2 434.88C248.533 432.747 251.4 430.347 253.8 427.68L270.4 454.08C267.2 457.68 262.8 460.947 257.2 463.88C251.733 466.813 245.6 469.147 238.8 470.88C232.133 472.48 225.333 473.28 218.4 473.28Z" fill="white"/>
<path d="M380.472 471.28V331.28H414.672V471.28H380.472ZM293.472 471.28V331.28H327.672V471.28H293.472ZM307.072 416.88V386.08H398.472V416.88H307.072Z" fill="white"/>
<path d="M432.127 471.28L487.527 331.28H516.527L571.527 471.28H537.127L510.527 400.28C509.593 397.48 508.527 394.48 507.327 391.28C506.26 388.08 505.193 384.747 504.127 381.28C503.06 377.813 502.06 374.48 501.127 371.28C500.193 368.08 499.393 365.08 498.727 362.28L504.527 362.08C503.727 365.413 502.86 368.68 501.927 371.88C500.993 375.08 499.993 378.28 498.927 381.48C497.86 384.68 496.727 387.88 495.527 391.08C494.46 394.147 493.327 397.347 492.127 400.68L465.727 471.28H432.127ZM458.527 444.48L469.327 418.48H533.327L544.127 444.48H458.527Z" fill="white"/>
<path d="M586.38 471.28V442.48H609.98V360.08H586.38V331.28H667.78V360.08H644.18V442.48H667.78V471.28H586.38Z" fill="white"/>
<path d="M699.917 471.28V331.28H730.517L804.117 431.08L797.517 430.28C796.584 422.813 795.784 415.88 795.117 409.48C794.451 402.947 793.984 396.147 793.717 389.08C793.584 382.013 793.517 373.88 793.517 364.68V331.28H826.717V471.28H795.717L719.317 368.48L729.117 369.88C730.051 378.013 730.784 384.747 731.317 390.08C731.851 395.413 732.251 400.013 732.517 403.88C732.784 407.613 732.984 411.147 733.117 414.48C733.251 417.68 733.317 421.28 733.317 425.28V471.28H699.917Z" fill="white"/>
<path d="M312 117.08V83.48H324.72C326.992 83.48 329.088 83.896 331.008 84.728C332.928 85.528 334.592 86.68 336 88.184C337.408 89.656 338.496 91.416 339.264 93.464C340.032 95.512 340.416 97.784 340.416 100.28C340.416 102.744 340.032 105.016 339.264 107.096C338.496 109.144 337.408 110.92 336 112.424C334.624 113.896 332.96 115.048 331.008 115.88C329.088 116.68 326.992 117.08 324.72 117.08H312ZM315.792 113.912L315.552 113.432H324.48C326.24 113.432 327.856 113.112 329.328 112.472C330.832 111.832 332.112 110.952 333.168 109.832C334.256 108.68 335.088 107.288 335.664 105.656C336.24 104.024 336.528 102.232 336.528 100.28C336.528 98.328 336.24 96.552 335.664 94.952C335.088 93.32 334.256 91.928 333.168 90.776C332.08 89.624 330.8 88.728 329.328 88.088C327.856 87.448 326.24 87.128 324.48 87.128H315.456L315.792 86.696V113.912Z" fill="white"/>
<path d="M347.719 117.08V83.48H368.071V87.128H351.511V113.432H367.975V117.08H347.719ZM349.495 101.624V97.976H365.383V101.624H349.495Z" fill="white"/>
<path d="M376.406 117.08V83.48H380.054L392.918 104.264L391.286 104.216L404.198 83.48H407.654V117.08H403.862V99.176C403.862 96.872 403.91 94.776 404.006 92.888C404.134 90.968 404.326 89.064 404.582 87.176L405.254 88.424L393.158 107.384H390.806L378.998 88.664L379.526 87.176C379.782 88.968 379.958 90.792 380.054 92.648C380.15 94.504 380.198 96.664 380.198 99.128V117.08H376.406Z" fill="white"/>
<path d="M426.396 117.08V100.472L426.732 102.68L413.292 83.48H417.852L428.892 99.368L427.932 99.272L438.204 83.48H442.572L429.564 103.016L430.188 100.232V117.08H426.396Z" fill="white"/>
<path d="M456.843 117.56C454.059 117.56 451.611 117.032 449.499 115.976C447.419 114.888 445.659 113.304 444.219 111.224L446.907 108.248C448.347 110.36 449.867 111.864 451.467 112.76C453.099 113.656 455.019 114.104 457.227 114.104C458.635 114.104 459.899 113.864 461.019 113.384C462.171 112.904 463.083 112.248 463.755 111.416C464.427 110.584 464.763 109.64 464.763 108.584C464.763 107.88 464.635 107.24 464.379 106.664C464.155 106.088 463.787 105.576 463.275 105.128C462.795 104.68 462.187 104.264 461.451 103.88C460.715 103.496 459.867 103.16 458.907 102.872C457.979 102.552 456.923 102.248 455.739 101.96C454.075 101.608 452.619 101.144 451.371 100.568C450.155 99.992 449.115 99.304 448.251 98.504C447.387 97.704 446.747 96.792 446.331 95.768C445.915 94.712 445.707 93.528 445.707 92.216C445.707 90.424 446.203 88.84 447.195 87.464C448.219 86.088 449.579 85 451.275 84.2C453.003 83.4 454.939 83 457.083 83C459.675 83 461.883 83.48 463.707 84.44C465.563 85.368 467.051 86.728 468.171 88.52L465.483 91.16C464.459 89.656 463.243 88.504 461.835 87.704C460.459 86.872 458.843 86.456 456.987 86.456C455.547 86.456 454.267 86.696 453.147 87.176C452.027 87.656 451.147 88.328 450.507 89.192C449.867 90.024 449.547 91 449.547 92.12C449.547 92.92 449.691 93.656 449.979 94.328C450.299 94.968 450.763 95.528 451.371 96.008C451.979 96.488 452.763 96.92 453.723 97.304C454.683 97.688 455.819 98.024 457.131 98.312C458.923 98.728 460.523 99.224 461.931 99.8C463.371 100.376 464.587 101.048 465.579 101.816C466.571 102.584 467.323 103.448 467.835 104.408C468.347 105.368 468.603 106.456 468.603 107.672C468.603 109.656 468.107 111.4 467.115 112.904C466.155 114.376 464.795 115.528 463.035 116.36C461.275 117.16 459.211 117.56 456.843 117.56Z" fill="white"/>
<path d="M482.162 117.08V87.128H472.466V83.48H495.842V87.128H485.954V117.08H482.162Z" fill="white"/>
<path d="M500.349 117.08V113.528H506.061V87.032H500.349V83.48H515.613V87.032H509.853V113.528H515.613V117.08H500.349Z" fill="white"/>
<path d="M523.594 117.08V83.48H527.386V117.08H523.594ZM525.322 102.104V98.408H542.026V102.104H525.322ZM525.37 87.128V83.48H544.378V87.128H525.37Z" fill="white"/>
<path d="M560.927 117.08V100.472L561.263 102.68L547.823 83.48H552.383L563.423 99.368L562.463 99.272L572.735 83.48H577.103L564.095 103.016L564.719 100.232V117.08H560.927Z" fill="white"/>
<path d="M580.833 117.08V113.528H586.545V87.032H580.833V83.48H596.097V87.032H590.337V113.528H596.097V117.08H580.833Z" fill="white"/>
<path d="M604.078 117.08V83.48H607.534L628.798 112.52L628.222 112.808C628.062 111.784 627.934 110.6 627.838 109.256C627.742 107.88 627.662 106.28 627.598 104.456C627.566 102.632 627.55 100.552 627.55 98.216V83.48H631.342V117.08H627.838L606.622 88.424L607.198 87.992C607.358 89.72 607.47 91.24 607.534 92.552C607.63 93.864 607.71 95 607.774 95.96C607.838 96.888 607.87 97.704 607.87 98.408C607.87 99.08 607.87 99.688 607.87 100.232V117.08H604.078Z" fill="white"/>
<path d="M655.796 117.56C653.364 117.56 651.108 117.128 649.028 116.264C646.948 115.4 645.124 114.2 643.556 112.664C642.02 111.096 640.82 109.272 639.956 107.192C639.124 105.08 638.708 102.792 638.708 100.328C638.708 97.896 639.124 95.64 639.956 93.56C640.82 91.448 642.02 89.624 643.556 88.088C645.092 86.52 646.9 85.304 648.98 84.44C651.06 83.576 653.316 83.144 655.748 83.144C657.476 83.144 659.14 83.4 660.74 83.912C662.372 84.392 663.844 85.08 665.156 85.976C666.468 86.84 667.572 87.864 668.468 89.048L665.972 91.592C664.564 90.088 662.98 88.92 661.22 88.088C659.492 87.256 657.668 86.84 655.748 86.84C653.86 86.84 652.116 87.176 650.516 87.848C648.916 88.52 647.508 89.464 646.292 90.68C645.108 91.896 644.18 93.336 643.508 95C642.868 96.632 642.548 98.408 642.548 100.328C642.548 102.216 642.884 103.992 643.556 105.656C644.26 107.288 645.22 108.728 646.436 109.976C647.652 111.192 649.06 112.152 650.66 112.856C652.292 113.528 654.036 113.864 655.892 113.864C657.524 113.864 658.996 113.624 660.308 113.144C661.652 112.664 662.82 111.976 663.812 111.08C664.804 110.184 665.556 109.144 666.068 107.96C666.612 106.744 666.884 105.448 666.884 104.072V103.112L667.46 103.64H655.844V99.848H670.772C670.836 100.168 670.868 100.456 670.868 100.712C670.9 100.968 670.916 101.208 670.916 101.432C670.948 101.656 670.964 101.864 670.964 102.056C670.964 104.456 670.58 106.616 669.812 108.536C669.076 110.424 668.02 112.04 666.644 113.384C665.3 114.728 663.7 115.768 661.844 116.504C660.02 117.208 658.004 117.56 655.796 117.56Z" fill="white"/>
</svg>
