<svg width="350" height="59" viewBox="0 0 350 59" fill="none" xmlns="http://www.w3.org/2000/svg">
<rect width="350" height="59" fill="#0D0D0D"/>
<path d="M24.04 38V24H29.34C30.2867 24 31.16 24.1733 31.96 24.52C32.76 24.8533 33.4533 25.3333 34.04 25.96C34.6267 26.5733 35.08 27.3067 35.4 28.16C35.72 29.0133 35.88 29.96 35.88 31C35.88 32.0267 35.72 32.9733 35.4 33.84C35.08 34.6933 34.6267 35.4333 34.04 36.06C33.4667 36.6733 32.7733 37.1533 31.96 37.5C31.16 37.8333 30.2867 38 29.34 38H24.04ZM25.62 36.68L25.52 36.48H29.24C29.9733 36.48 30.6467 36.3467 31.26 36.08C31.8867 35.8133 32.42 35.4467 32.86 34.98C33.3133 34.5 33.66 33.92 33.9 33.24C34.14 32.56 34.26 31.8133 34.26 31C34.26 30.1867 34.14 29.4467 33.9 28.78C33.66 28.1 33.3133 27.52 32.86 27.04C32.4067 26.56 31.8733 26.1867 31.26 25.92C30.6467 25.6533 29.9733 25.52 29.24 25.52H25.48L25.62 25.34V36.68ZM38.9228 38V24H47.4028V25.52H40.5028V36.48H47.3628V38H38.9228ZM39.6628 31.56V30.04H46.2828V31.56H39.6628ZM50.8759 38V24H52.3959L57.7559 32.66L57.0759 32.64L62.4559 24H63.8959V38H62.3159V30.54C62.3159 29.58 62.3359 28.7067 62.3759 27.92C62.4293 27.12 62.5093 26.3267 62.6159 25.54L62.8959 26.06L57.8559 33.96H56.8759L51.9559 26.16L52.1759 25.54C52.2826 26.2867 52.3559 27.0467 52.3959 27.82C52.4359 28.5933 52.4559 29.4933 52.4559 30.52V38H50.8759ZM71.7048 38V31.08L71.8448 32L66.2448 24H68.1448L72.7448 30.62L72.3448 30.58L76.6248 24H78.4448L73.0248 32.14L73.2848 30.98V38H71.7048ZM84.3914 38.2C83.2314 38.2 82.2114 37.98 81.3314 37.54C80.4647 37.0867 79.7314 36.4267 79.1314 35.56L80.2514 34.32C80.8514 35.2 81.4847 35.8267 82.1514 36.2C82.8314 36.5733 83.6314 36.76 84.5514 36.76C85.1381 36.76 85.6647 36.66 86.1314 36.46C86.6114 36.26 86.9914 35.9867 87.2714 35.64C87.5514 35.2933 87.6914 34.9 87.6914 34.46C87.6914 34.1667 87.6381 33.9 87.5314 33.66C87.4381 33.42 87.2847 33.2067 87.0714 33.02C86.8714 32.8333 86.6181 32.66 86.3114 32.5C86.0047 32.34 85.6514 32.2 85.2514 32.08C84.8647 31.9467 84.4247 31.82 83.9314 31.7C83.2381 31.5533 82.6314 31.36 82.1114 31.12C81.6047 30.88 81.1714 30.5933 80.8114 30.26C80.4514 29.9267 80.1847 29.5467 80.0114 29.12C79.8381 28.68 79.7514 28.1867 79.7514 27.64C79.7514 26.8933 79.9581 26.2333 80.3714 25.66C80.7981 25.0867 81.3647 24.6333 82.0714 24.3C82.7914 23.9667 83.5981 23.8 84.4914 23.8C85.5714 23.8 86.4914 24 87.2514 24.4C88.0247 24.7867 88.6447 25.3533 89.1114 26.1L87.9914 27.2C87.5647 26.5733 87.0581 26.0933 86.4714 25.76C85.8981 25.4133 85.2247 25.24 84.4514 25.24C83.8514 25.24 83.3181 25.34 82.8514 25.54C82.3847 25.74 82.0181 26.02 81.7514 26.38C81.4847 26.7267 81.3514 27.1333 81.3514 27.6C81.3514 27.9333 81.4114 28.24 81.5314 28.52C81.6647 28.7867 81.8581 29.02 82.1114 29.22C82.3647 29.42 82.6914 29.6 83.0914 29.76C83.4914 29.92 83.9647 30.06 84.5114 30.18C85.2581 30.3533 85.9247 30.56 86.5114 30.8C87.1114 31.04 87.6181 31.32 88.0314 31.64C88.4447 31.96 88.7581 32.32 88.9714 32.72C89.1847 33.12 89.2914 33.5733 89.2914 34.08C89.2914 34.9067 89.0847 35.6333 88.6714 36.26C88.2714 36.8733 87.7047 37.3533 86.9714 37.7C86.2381 38.0333 85.3781 38.2 84.3914 38.2ZM94.9408 38V25.52H90.9008V24H100.641V25.52H96.5208V38H94.9408ZM102.519 38V36.52H104.899V25.48H102.519V24H108.879V25.48H106.479V36.52H108.879V38H102.519ZM112.204 38V24H113.784V38H112.204ZM112.924 31.76V30.22H119.884V31.76H112.924ZM112.944 25.52V24H120.864V25.52H112.944ZM127.76 38V31.08L127.9 32L122.3 24H124.2L128.8 30.62L128.4 30.58L132.68 24H134.5L129.08 32.14L129.34 30.98V38H127.76ZM136.054 38V36.52H138.434V25.48H136.054V24H142.414V25.48H140.014V36.52H142.414V38H136.054ZM145.739 38V24H147.179L156.039 36.1L155.799 36.22C155.733 35.7933 155.679 35.3 155.639 34.74C155.599 34.1667 155.566 33.5 155.539 32.74C155.526 31.98 155.519 31.1133 155.519 30.14V24H157.099V38H155.639L146.799 26.06L147.039 25.88C147.106 26.6 147.153 27.2333 147.179 27.78C147.219 28.3267 147.253 28.8 147.279 29.2C147.306 29.5867 147.319 29.9267 147.319 30.22C147.319 30.5 147.319 30.7533 147.319 30.98V38H145.739ZM167.288 38.2C166.275 38.2 165.335 38.02 164.468 37.66C163.602 37.3 162.842 36.8 162.188 36.16C161.548 35.5067 161.048 34.7467 160.688 33.88C160.342 33 160.168 32.0467 160.168 31.02C160.168 30.0067 160.342 29.0667 160.688 28.2C161.048 27.32 161.548 26.56 162.188 25.92C162.828 25.2667 163.582 24.76 164.448 24.4C165.315 24.04 166.255 23.86 167.268 23.86C167.988 23.86 168.682 23.9667 169.348 24.18C170.028 24.38 170.642 24.6667 171.188 25.04C171.735 25.4 172.195 25.8267 172.568 26.32L171.528 27.38C170.942 26.7533 170.282 26.2667 169.548 25.92C168.828 25.5733 168.068 25.4 167.268 25.4C166.482 25.4 165.755 25.54 165.088 25.82C164.422 26.1 163.835 26.4933 163.328 27C162.835 27.5067 162.448 28.1067 162.168 28.8C161.902 29.48 161.768 30.22 161.768 31.02C161.768 31.8067 161.908 32.5467 162.188 33.24C162.482 33.92 162.882 34.52 163.388 35.04C163.895 35.5467 164.482 35.9467 165.148 36.24C165.828 36.52 166.555 36.66 167.328 36.66C168.008 36.66 168.622 36.56 169.168 36.36C169.728 36.16 170.215 35.8733 170.628 35.5C171.042 35.1267 171.355 34.6933 171.568 34.2C171.795 33.6933 171.908 33.1533 171.908 32.58V32.18L172.148 32.4H167.308V30.82H173.528C173.555 30.9533 173.568 31.0733 173.568 31.18C173.582 31.2867 173.588 31.3867 173.588 31.48C173.602 31.5733 173.608 31.66 173.608 31.74C173.608 32.74 173.448 33.64 173.128 34.44C172.822 35.2267 172.382 35.9 171.808 36.46C171.248 37.02 170.582 37.4533 169.808 37.76C169.048 38.0533 168.208 38.2 167.288 38.2Z" fill="#01F293"/>
<path d="M180.854 38.9395V23.9825H187.478C188.518 23.9825 189.387 24.1321 190.085 24.4312C190.797 24.7161 191.339 25.1363 191.709 25.6919C192.079 26.2332 192.265 26.8955 192.265 27.679C192.265 28.5194 192.051 29.2246 191.624 29.7943C191.21 30.3641 190.612 30.763 189.829 30.9909L189.807 30.5422C190.448 30.6989 191.011 30.9624 191.495 31.3328C191.994 31.6889 192.378 32.1305 192.649 32.6575C192.92 33.1703 193.055 33.7544 193.055 34.4096C193.055 35.1646 192.92 35.827 192.649 36.3968C192.393 36.9666 192.022 37.4438 191.538 37.8284C191.068 38.1987 190.505 38.4765 189.85 38.6617C189.209 38.8469 188.497 38.9395 187.713 38.9395H180.854ZM184.316 35.884H187.564C188.162 35.884 188.625 35.7415 188.953 35.4566C189.294 35.1717 189.465 34.7658 189.465 34.2387C189.465 33.9111 189.38 33.6333 189.209 33.4054C189.052 33.1775 188.824 33.0065 188.525 32.8926C188.226 32.7786 187.87 32.7216 187.457 32.7216H184.316V35.884ZM184.316 29.9653H186.987C187.357 29.9653 187.671 29.9083 187.927 29.7943C188.183 29.6661 188.376 29.4952 188.504 29.2815C188.646 29.0536 188.718 28.7901 188.718 28.491C188.718 28.0351 188.561 27.679 188.248 27.4226C187.934 27.1662 187.464 27.038 186.837 27.038H184.316V29.9653Z" fill="white"/>
<path d="M195.836 38.9395V23.9825H199.49V35.713H206.157V38.9395H195.836Z" fill="white"/>
<path d="M215.277 39.1531C214.151 39.1531 213.112 38.9608 212.157 38.5762C211.217 38.1916 210.398 37.6574 209.7 36.9737C209.016 36.2757 208.482 35.4566 208.097 34.5165C207.713 33.5621 207.52 32.5222 207.52 31.3969C207.52 30.2858 207.713 29.2602 208.097 28.32C208.482 27.3656 209.016 26.5394 209.7 25.8414C210.398 25.1434 211.217 24.6021 212.157 24.2175C213.112 23.8329 214.151 23.6406 215.277 23.6406C216.388 23.6406 217.413 23.8329 218.354 24.2175C219.294 24.6021 220.106 25.1434 220.789 25.8414C221.487 26.5394 222.029 27.3656 222.413 28.32C222.798 29.2602 222.99 30.2929 222.99 31.4182C222.99 32.5293 222.798 33.555 222.413 34.4951C222.029 35.4353 221.487 36.2543 220.789 36.9523C220.106 37.6503 219.294 38.1916 218.354 38.5762C217.413 38.9608 216.388 39.1531 215.277 39.1531ZM215.277 35.713C215.861 35.713 216.395 35.6062 216.879 35.3925C217.364 35.1789 217.784 34.8797 218.14 34.4951C218.51 34.1105 218.795 33.6547 218.995 33.1276C219.194 32.6006 219.294 32.0308 219.294 31.4182C219.294 30.7915 219.194 30.2146 218.995 29.6875C218.795 29.1605 218.51 28.7046 218.14 28.32C217.784 27.9212 217.364 27.6149 216.879 27.4012C216.395 27.1876 215.861 27.0807 215.277 27.0807C214.693 27.0807 214.151 27.1876 213.653 27.4012C213.168 27.6149 212.741 27.9212 212.371 28.32C212.015 28.7046 211.737 29.1605 211.537 29.6875C211.338 30.2146 211.238 30.7915 211.238 31.4182C211.238 32.2444 211.409 32.9852 211.751 33.6404C212.107 34.2814 212.584 34.7871 213.183 35.1575C213.795 35.5278 214.493 35.713 215.277 35.713Z" fill="white"/>
<path d="M232.554 39.1531C231.428 39.1531 230.388 38.968 229.434 38.5976C228.494 38.213 227.675 37.6788 226.977 36.9951C226.293 36.2971 225.759 35.478 225.374 34.5378C225.004 33.5834 224.819 32.5436 224.819 31.4182C224.819 30.3072 225.011 29.2815 225.396 28.3414C225.794 27.4012 226.35 26.5822 227.062 25.8842C227.774 25.1862 228.608 24.6449 229.562 24.2603C230.531 23.8757 231.578 23.6834 232.703 23.6834C233.415 23.6834 234.113 23.7759 234.797 23.9611C235.481 24.1463 236.115 24.4241 236.699 24.7944C237.297 25.1506 237.81 25.585 238.237 26.0978L235.994 28.6405C235.552 28.1562 235.053 27.7787 234.498 27.5081C233.957 27.2374 233.351 27.1021 232.682 27.1021C232.112 27.1021 231.571 27.2018 231.058 27.4012C230.559 27.6007 230.125 27.8927 229.754 28.2773C229.384 28.6619 229.092 29.1177 228.878 29.6448C228.665 30.1718 228.558 30.7701 228.558 31.4396C228.558 32.0949 228.658 32.6931 228.857 33.2344C229.071 33.7615 229.37 34.2173 229.754 34.6019C230.153 34.9723 230.623 35.2572 231.165 35.4566C231.72 35.6561 232.333 35.7558 233.002 35.7558C233.444 35.7558 233.864 35.6988 234.263 35.5848C234.676 35.4566 235.061 35.2786 235.417 35.0507C235.773 34.8227 236.079 34.5663 236.335 34.2814L238.109 37.1019C237.767 37.4865 237.297 37.8355 236.699 38.1489C236.115 38.4623 235.459 38.7115 234.733 38.8967C234.021 39.0677 233.294 39.1531 232.554 39.1531Z" fill="white"/>
<path d="M243.287 34.5592L242.347 31.461L249.74 23.9825H254.078L243.287 34.5592ZM240.574 38.9395V23.9825H244.228V38.9395H240.574ZM250.189 38.9395L244.655 31.6319L247.112 29.5166L254.462 38.9395H250.189Z" fill="white"/>
<path d="M180 38.2988V23.3419H186.624C187.664 23.3419 188.533 23.4914 189.231 23.7906C189.943 24.0755 190.484 24.4957 190.854 25.0512C191.225 25.5925 191.41 26.2549 191.41 27.0384C191.41 27.8788 191.196 28.5839 190.769 29.1537C190.356 29.7235 189.758 30.1224 188.974 30.3503L188.953 29.9016C189.594 30.0583 190.156 30.3218 190.641 30.6922C191.139 31.0483 191.524 31.4899 191.795 32.0169C192.065 32.5297 192.201 33.1138 192.201 33.769C192.201 34.524 192.065 35.1864 191.795 35.7562C191.538 36.3259 191.168 36.8031 190.684 37.1877C190.213 37.5581 189.651 37.8359 188.996 38.0211C188.355 38.2062 187.642 38.2988 186.859 38.2988H180ZM183.461 35.2433H186.709C187.308 35.2433 187.77 35.1009 188.098 34.816C188.44 34.5311 188.611 34.1251 188.611 33.5981C188.611 33.2704 188.525 32.9927 188.355 32.7648C188.198 32.5368 187.97 32.3659 187.671 32.2519C187.372 32.138 187.016 32.081 186.602 32.081H183.461V35.2433ZM183.461 29.3247H186.132C186.503 29.3247 186.816 29.2677 187.073 29.1537C187.329 29.0255 187.521 28.8546 187.649 28.6409C187.792 28.413 187.863 28.1495 187.863 27.8503C187.863 27.3945 187.706 27.0384 187.393 26.782C187.08 26.5256 186.61 26.3974 185.983 26.3974H183.461V29.3247Z" fill="#01F293"/>
<path d="M194.982 38.2988V23.3419H198.636V35.0724H205.302V38.2988H194.982Z" fill="#01F293"/>
<path d="M214.422 38.5125C213.297 38.5125 212.257 38.3202 211.303 37.9356C210.362 37.551 209.543 37.0168 208.845 36.3331C208.162 35.6351 207.627 34.816 207.243 33.8758C206.858 32.9215 206.666 31.8816 206.666 30.7563C206.666 29.6452 206.858 28.6195 207.243 27.6794C207.627 26.725 208.162 25.8988 208.845 25.2008C209.543 24.5028 210.362 23.9615 211.303 23.5769C212.257 23.1923 213.297 23 214.422 23C215.533 23 216.559 23.1923 217.499 23.5769C218.439 23.9615 219.251 24.5028 219.935 25.2008C220.633 25.8988 221.174 26.725 221.559 27.6794C221.943 28.6195 222.136 29.6523 222.136 30.7776C222.136 31.8887 221.943 32.9143 221.559 33.8545C221.174 34.7946 220.633 35.6137 219.935 36.3117C219.251 37.0097 218.439 37.551 217.499 37.9356C216.559 38.3202 215.533 38.5125 214.422 38.5125ZM214.422 35.0724C215.006 35.0724 215.54 34.9656 216.025 34.7519C216.509 34.5382 216.929 34.2391 217.285 33.8545C217.656 33.4699 217.941 33.014 218.14 32.487C218.34 31.9599 218.439 31.3901 218.439 30.7776C218.439 30.1509 218.34 29.5739 218.14 29.0469C217.941 28.5198 217.656 28.064 217.285 27.6794C216.929 27.2805 216.509 26.9743 216.025 26.7606C215.54 26.5469 215.006 26.4401 214.422 26.4401C213.838 26.4401 213.297 26.5469 212.798 26.7606C212.314 26.9743 211.887 27.2805 211.516 27.6794C211.16 28.064 210.882 28.5198 210.683 29.0469C210.484 29.5739 210.384 30.1509 210.384 30.7776C210.384 31.6038 210.555 32.3445 210.897 32.9998C211.253 33.6408 211.73 34.1465 212.328 34.5169C212.941 34.8872 213.639 35.0724 214.422 35.0724Z" fill="#01F293"/>
<path d="M231.699 38.5125C230.574 38.5125 229.534 38.3273 228.579 37.957C227.639 37.5724 226.82 37.0382 226.122 36.3544C225.438 35.6564 224.904 34.8374 224.52 33.8972C224.149 32.9428 223.964 31.903 223.964 30.7776C223.964 29.6665 224.156 28.6409 224.541 27.7008C224.94 26.7606 225.495 25.9415 226.208 25.2435C226.92 24.5456 227.753 24.0043 228.708 23.6196C229.676 23.235 230.723 23.0427 231.849 23.0427C232.561 23.0427 233.259 23.1353 233.943 23.3205C234.626 23.5057 235.26 23.7835 235.844 24.1538C236.443 24.5099 236.955 24.9444 237.383 25.4572L235.139 27.9999C234.698 27.5156 234.199 27.1381 233.643 26.8674C233.102 26.5968 232.497 26.4615 231.827 26.4615C231.257 26.4615 230.716 26.5612 230.203 26.7606C229.705 26.96 229.27 27.2521 228.9 27.6367C228.53 28.0213 228.238 28.4771 228.024 29.0042C227.81 29.5312 227.703 30.1295 227.703 30.799C227.703 31.4542 227.803 32.0525 228.003 32.5938C228.216 33.1209 228.515 33.5767 228.9 33.9613C229.299 34.3317 229.769 34.6166 230.31 34.816C230.866 35.0154 231.478 35.1151 232.148 35.1151C232.589 35.1151 233.01 35.0582 233.408 34.9442C233.821 34.816 234.206 34.6379 234.562 34.41C234.918 34.1821 235.225 33.9257 235.481 33.6408L237.254 36.4613C236.913 36.8459 236.443 37.1949 235.844 37.5083C235.26 37.8216 234.605 38.0709 233.878 38.2561C233.166 38.427 232.44 38.5125 231.699 38.5125Z" fill="#01F293"/>
<path d="M242.433 33.9186L241.493 30.8204L248.886 23.3419H253.223L242.433 33.9186ZM239.719 38.2988V23.3419H243.373V38.2988H239.719ZM249.335 38.2988L243.8 30.9913L246.258 28.8759L253.608 38.2988H249.335Z" fill="#01F293"/>
<path d="M263.01 39.1104C261.884 39.1104 260.845 38.9252 259.89 38.5549C258.95 38.1702 258.131 37.6361 257.433 36.9523C256.749 36.2543 256.215 35.4353 255.83 34.4951C255.46 33.5407 255.275 32.5008 255.275 31.3755C255.275 30.2644 255.467 29.2388 255.852 28.2987C256.251 27.3585 256.806 26.5394 257.518 25.8414C258.231 25.1434 259.064 24.6021 260.018 24.2175C260.987 23.8329 262.034 23.6406 263.159 23.6406C263.872 23.6406 264.57 23.7332 265.253 23.9184C265.937 24.1036 266.571 24.3814 267.155 24.7517C267.753 25.1078 268.266 25.5423 268.693 26.0551L266.45 28.5978C266.008 28.1135 265.51 27.736 264.954 27.4653C264.413 27.1947 263.807 27.0594 263.138 27.0594C262.568 27.0594 262.027 27.1591 261.514 27.3585C261.016 27.5579 260.581 27.8499 260.211 28.2345C259.84 28.6192 259.548 29.075 259.335 29.602C259.121 30.1291 259.014 30.7274 259.014 31.3969C259.014 32.0521 259.114 32.6504 259.313 33.1917C259.527 33.7188 259.826 34.1746 260.211 34.5592C260.61 34.9296 261.08 35.2145 261.621 35.4139C262.176 35.6133 262.789 35.713 263.458 35.713C263.9 35.713 264.32 35.6561 264.719 35.5421C265.132 35.4139 265.517 35.2358 265.873 35.0079C266.229 34.78 266.535 34.5236 266.792 34.2387L268.565 37.0592C268.223 37.4438 267.753 37.7928 267.155 38.1061C266.571 38.4195 265.916 38.6688 265.189 38.854C264.477 39.0249 263.751 39.1104 263.01 39.1104Z" fill="white"/>
<path d="M280.325 38.8967V23.9398H283.979V38.8967H280.325ZM271.03 38.8967V23.9398H274.684V38.8967H271.03ZM272.483 33.0849V29.7943H282.248V33.0849H272.483Z" fill="white"/>
<path d="M285.843 38.8967L291.762 23.9398H294.86L300.736 38.8967H297.061L294.219 31.3114C294.12 31.0123 294.006 30.6918 293.877 30.3499C293.763 30.008 293.649 29.6519 293.536 29.2815C293.422 28.9112 293.315 28.5551 293.215 28.2132C293.115 27.8713 293.03 27.5508 292.959 27.2517L293.578 27.2303C293.493 27.5864 293.4 27.9354 293.3 28.2773C293.201 28.6192 293.094 28.961 292.98 29.3029C292.866 29.6448 292.745 29.9867 292.617 30.3285C292.503 30.6562 292.382 30.998 292.253 31.3541L289.433 38.8967H285.843ZM288.664 36.0335L289.818 33.2558H296.655L297.809 36.0335H288.664Z" fill="white"/>
<path d="M302.323 38.8967V35.8199H304.844V27.0166H302.323V23.9398H311.019V27.0166H308.498V35.8199H311.019V38.8967H302.323Z" fill="white"/>
<path d="M314.453 38.8967V23.9398H317.722L325.585 34.6019L324.88 34.5165C324.78 33.7188 324.695 32.978 324.624 32.2943C324.552 31.5963 324.503 30.8698 324.474 30.1149C324.46 29.3599 324.453 28.491 324.453 27.5081V23.9398H328V38.8967H324.688L316.526 27.914L317.572 28.0636C317.672 28.9325 317.751 29.6519 317.808 30.2217C317.865 30.7915 317.907 31.2829 317.936 31.696C317.964 32.0949 317.986 32.4724 318 32.8285C318.014 33.1703 318.021 33.555 318.021 33.9823V38.8967H314.453Z" fill="white"/>
<path d="M262.155 38.4698C261.03 38.4698 259.99 38.2846 259.036 37.9142C258.096 37.5296 257.276 36.9954 256.578 36.3117C255.895 35.6137 255.361 34.7946 254.976 33.8545C254.606 32.9001 254.42 31.8602 254.42 30.7349C254.42 29.6238 254.613 28.5982 254.997 27.658C255.396 26.7179 255.952 25.8988 256.664 25.2008C257.376 24.5028 258.21 23.9615 259.164 23.5769C260.133 23.1923 261.18 23 262.305 23C263.017 23 263.715 23.0926 264.399 23.2778C265.083 23.463 265.716 23.7407 266.301 24.1111C266.899 24.4672 267.412 24.9017 267.839 25.4145L265.595 27.9572C265.154 27.4728 264.655 27.0954 264.1 26.8247C263.558 26.5541 262.953 26.4187 262.283 26.4187C261.714 26.4187 261.172 26.5184 260.66 26.7179C260.161 26.9173 259.727 27.2093 259.356 27.5939C258.986 27.9785 258.694 28.4344 258.48 28.9614C258.266 29.4885 258.16 30.0868 258.16 30.7563C258.16 31.4115 258.259 32.0098 258.459 32.5511C258.672 33.0781 258.972 33.534 259.356 33.9186C259.755 34.2889 260.225 34.5738 260.766 34.7733C261.322 34.9727 261.935 35.0724 262.604 35.0724C263.046 35.0724 263.466 35.0154 263.865 34.9015C264.278 34.7733 264.662 34.5952 265.018 34.3673C265.375 34.1394 265.681 33.883 265.937 33.5981L267.711 36.4185C267.369 36.8031 266.899 37.1521 266.301 37.4655C265.716 37.7789 265.061 38.0282 264.335 38.2134C263.623 38.3843 262.896 38.4698 262.155 38.4698Z" fill="#01F293"/>
<path d="M279.47 38.2561V23.2991H283.124V38.2561H279.47ZM270.176 38.2561V23.2991H273.829V38.2561H270.176ZM271.629 32.4443V29.1537H281.393V32.4443H271.629Z" fill="#01F293"/>
<path d="M284.989 38.2561L290.908 23.2991H294.006L299.882 38.2561H296.207L293.365 30.6708C293.265 30.3716 293.151 30.0511 293.023 29.7093C292.909 29.3674 292.795 29.0113 292.681 28.6409C292.567 28.2705 292.46 27.9144 292.361 27.5726C292.261 27.2307 292.175 26.9102 292.104 26.611L292.724 26.5897C292.638 26.9458 292.546 27.2948 292.446 27.6367C292.346 27.9785 292.239 28.3204 292.125 28.6623C292.012 29.0042 291.89 29.346 291.762 29.6879C291.648 30.0155 291.527 30.3574 291.399 30.7135L288.579 38.2561H284.989ZM287.809 35.3929L288.963 32.6152H295.801L296.954 35.3929H287.809Z" fill="#01F293"/>
<path d="M301.469 38.2561V35.1792H303.99V26.376H301.469V23.2991H310.165V26.376H307.644V35.1792H310.165V38.2561H301.469Z" fill="#01F293"/>
<path d="M313.598 38.2561V23.2991H316.868L324.731 33.9613L324.026 33.8759C323.926 33.0781 323.84 32.3374 323.769 31.6537C323.698 30.9557 323.648 30.2292 323.62 29.4742C323.605 28.7193 323.598 27.8503 323.598 26.8674V23.2991H327.145V38.2561H323.833L315.671 27.2734L316.718 27.423C316.818 28.2919 316.896 29.0113 316.953 29.5811C317.01 30.1509 317.053 30.6423 317.081 31.0554C317.11 31.4542 317.131 31.8317 317.145 32.1879C317.16 32.5297 317.167 32.9143 317.167 33.3417V38.2561H313.598Z" fill="#01F293"/>
</svg>
