<svg width="468" height="832" viewBox="0 0 468 832" fill="none" xmlns="http://www.w3.org/2000/svg">
<path d="M341.765 133V116.9H344.249V133H341.765ZM331.254 133V116.9H333.738V133H331.254ZM332.335 126.169V123.777H342.869V126.169H332.335ZM355.306 133V125.134C355.306 124.459 355.061 123.915 354.57 123.501C354.095 123.072 353.489 122.857 352.753 122.857C352.078 122.857 351.465 122.995 350.913 123.271C350.376 123.547 349.886 123.969 349.441 124.536L347.9 122.995C348.621 122.213 349.395 121.63 350.223 121.247C351.066 120.864 351.971 120.672 352.937 120.672C353.857 120.672 354.654 120.825 355.329 121.132C356.004 121.439 356.525 121.891 356.893 122.489C357.261 123.072 357.445 123.785 357.445 124.628V133H355.306ZM351.695 133.23C350.913 133.23 350.215 133.077 349.602 132.77C348.989 132.463 348.498 132.042 348.13 131.505C347.777 130.953 347.601 130.309 347.601 129.573C347.601 128.929 347.716 128.362 347.946 127.871C348.176 127.38 348.513 126.974 348.958 126.652C349.418 126.33 349.985 126.085 350.66 125.916C351.35 125.747 352.14 125.663 353.029 125.663H356.387L356.18 127.549H352.73C352.27 127.549 351.856 127.595 351.488 127.687C351.135 127.764 350.829 127.894 350.568 128.078C350.323 128.247 350.139 128.454 350.016 128.699C349.893 128.929 349.832 129.205 349.832 129.527C349.832 129.864 349.916 130.163 350.085 130.424C350.254 130.669 350.484 130.861 350.775 130.999C351.066 131.137 351.404 131.206 351.787 131.206C352.339 131.206 352.86 131.114 353.351 130.93C353.857 130.731 354.302 130.462 354.685 130.125C355.084 129.788 355.39 129.412 355.605 128.998L356.157 130.539C355.835 131.076 355.436 131.543 354.961 131.942C354.486 132.341 353.972 132.655 353.42 132.885C352.868 133.115 352.293 133.23 351.695 133.23ZM365.568 133.23C364.449 133.23 363.445 132.954 362.555 132.402C361.681 131.85 360.984 131.099 360.462 130.148C359.956 129.197 359.703 128.132 359.703 126.951C359.703 125.77 359.956 124.705 360.462 123.754C360.984 122.803 361.681 122.052 362.555 121.5C363.445 120.948 364.449 120.672 365.568 120.672C366.642 120.672 367.615 120.894 368.489 121.339C369.379 121.768 370.053 122.359 370.513 123.11L369.202 124.72C368.957 124.367 368.643 124.045 368.259 123.754C367.876 123.463 367.47 123.233 367.04 123.064C366.611 122.895 366.197 122.811 365.798 122.811C365.062 122.811 364.403 122.995 363.82 123.363C363.253 123.716 362.801 124.206 362.463 124.835C362.126 125.464 361.957 126.169 361.957 126.951C361.957 127.733 362.134 128.438 362.486 129.067C362.839 129.68 363.307 130.171 363.889 130.539C364.472 130.907 365.116 131.091 365.821 131.091C366.235 131.091 366.634 131.022 367.017 130.884C367.416 130.746 367.799 130.539 368.167 130.263C368.535 129.987 368.88 129.65 369.202 129.251L370.513 130.861C370.023 131.551 369.317 132.118 368.397 132.563C367.493 133.008 366.55 133.23 365.568 133.23ZM374.91 129.228L374.795 126.652L380.568 120.925H383.765L374.91 129.228ZM372.748 133V115.98H375.117V133H372.748ZM380.89 133L376.336 127.687L378.015 126.146L383.926 133H380.89ZM390.938 133.23C389.696 133.23 388.592 132.969 387.626 132.448C386.676 131.911 385.924 131.183 385.372 130.263C384.836 129.343 384.567 128.285 384.567 127.089C384.567 126.138 384.721 125.272 385.027 124.49C385.334 123.708 385.756 123.033 386.292 122.466C386.844 121.883 387.496 121.439 388.247 121.132C389.014 120.81 389.842 120.649 390.731 120.649C391.513 120.649 392.242 120.802 392.916 121.109C393.591 121.4 394.174 121.807 394.664 122.328C395.17 122.849 395.554 123.47 395.814 124.191C396.09 124.896 396.221 125.671 396.205 126.514L396.182 127.526H386.315L385.786 125.64H394.135L393.79 126.031V125.479C393.744 124.973 393.576 124.521 393.284 124.122C392.993 123.723 392.625 123.409 392.18 123.179C391.736 122.949 391.253 122.834 390.731 122.834C389.903 122.834 389.206 122.995 388.638 123.317C388.071 123.624 387.642 124.084 387.35 124.697C387.059 125.295 386.913 126.039 386.913 126.928C386.913 127.771 387.09 128.507 387.442 129.136C387.795 129.749 388.293 130.225 388.937 130.562C389.581 130.899 390.325 131.068 391.168 131.068C391.766 131.068 392.318 130.968 392.824 130.769C393.346 130.57 393.905 130.209 394.503 129.688L395.699 131.367C395.331 131.735 394.879 132.057 394.342 132.333C393.821 132.609 393.261 132.831 392.663 133C392.081 133.153 391.506 133.23 390.938 133.23ZM403.817 133.23C402.713 133.23 401.724 132.962 400.85 132.425C399.991 131.873 399.309 131.129 398.803 130.194C398.297 129.243 398.044 128.162 398.044 126.951C398.044 125.74 398.289 124.666 398.78 123.731C399.286 122.78 399.968 122.037 400.827 121.5C401.686 120.948 402.659 120.672 403.748 120.672C404.346 120.672 404.921 120.772 405.473 120.971C406.04 121.155 406.546 121.416 406.991 121.753C407.436 122.075 407.781 122.435 408.026 122.834C408.287 123.217 408.417 123.608 408.417 124.007L407.727 124.053V115.98H410.096V133H407.727V130.125H408.187C408.187 130.493 408.064 130.861 407.819 131.229C407.574 131.582 407.244 131.911 406.83 132.218C406.431 132.525 405.964 132.77 405.427 132.954C404.906 133.138 404.369 133.23 403.817 133.23ZM404.139 131.183C404.86 131.183 405.496 130.999 406.048 130.631C406.6 130.263 407.029 129.765 407.336 129.136C407.658 128.492 407.819 127.764 407.819 126.951C407.819 126.138 407.658 125.418 407.336 124.789C407.029 124.145 406.6 123.639 406.048 123.271C405.496 122.903 404.86 122.719 404.139 122.719C403.418 122.719 402.782 122.903 402.23 123.271C401.678 123.639 401.241 124.145 400.919 124.789C400.612 125.418 400.459 126.138 400.459 126.951C400.459 127.764 400.612 128.492 400.919 129.136C401.241 129.765 401.678 130.263 402.23 130.631C402.782 130.999 403.418 131.183 404.139 131.183ZM331.047 162V149.925H333.416V162H331.047ZM332.197 147.257C331.691 147.257 331.3 147.127 331.024 146.866C330.748 146.605 330.61 146.237 330.61 145.762C330.61 145.317 330.748 144.957 331.024 144.681C331.315 144.405 331.706 144.267 332.197 144.267C332.703 144.267 333.094 144.397 333.37 144.658C333.646 144.919 333.784 145.287 333.784 145.762C333.784 146.207 333.638 146.567 333.347 146.843C333.071 147.119 332.688 147.257 332.197 147.257ZM337.057 162V149.925H339.426V152.409L339.012 152.685C339.166 152.148 339.465 151.658 339.909 151.213C340.354 150.753 340.883 150.385 341.496 150.109C342.11 149.818 342.738 149.672 343.382 149.672C344.302 149.672 345.069 149.856 345.682 150.224C346.296 150.577 346.756 151.121 347.062 151.857C347.369 152.593 347.522 153.521 347.522 154.64V162H345.153V154.801C345.153 154.111 345.061 153.544 344.877 153.099C344.693 152.639 344.41 152.309 344.026 152.11C343.643 151.895 343.168 151.803 342.6 151.834C342.14 151.834 341.719 151.911 341.335 152.064C340.952 152.202 340.615 152.401 340.323 152.662C340.047 152.923 339.825 153.229 339.656 153.582C339.503 153.919 339.426 154.287 339.426 154.686V162H338.253C338.054 162 337.855 162 337.655 162C337.456 162 337.257 162 337.057 162ZM352.047 162V148.568C352.047 147.878 352.2 147.265 352.507 146.728C352.814 146.191 353.235 145.77 353.772 145.463C354.309 145.156 354.93 145.003 355.635 145.003C356.126 145.003 356.586 145.095 357.015 145.279C357.444 145.463 357.789 145.708 358.05 146.015L357.245 147.832C357.046 147.648 356.823 147.502 356.578 147.395C356.348 147.272 356.126 147.211 355.911 147.211C355.589 147.211 355.313 147.265 355.083 147.372C354.868 147.464 354.707 147.617 354.6 147.832C354.493 148.031 354.439 148.277 354.439 148.568V162H353.243C353.044 162 352.844 162 352.645 162C352.446 162 352.246 162 352.047 162ZM350.115 152.317V150.132H357.291V152.317H350.115ZM364.744 162.23C363.563 162.23 362.505 161.962 361.57 161.425C360.65 160.873 359.922 160.129 359.385 159.194C358.848 158.243 358.58 157.162 358.58 155.951C358.58 154.74 358.848 153.666 359.385 152.731C359.922 151.78 360.65 151.037 361.57 150.5C362.505 149.948 363.563 149.672 364.744 149.672C365.909 149.672 366.952 149.948 367.872 150.5C368.807 151.037 369.543 151.78 370.08 152.731C370.617 153.666 370.885 154.74 370.885 155.951C370.885 157.162 370.617 158.243 370.08 159.194C369.543 160.129 368.807 160.873 367.872 161.425C366.952 161.962 365.909 162.23 364.744 162.23ZM364.744 160.068C365.465 160.068 366.109 159.892 366.676 159.539C367.243 159.171 367.688 158.68 368.01 158.067C368.332 157.438 368.485 156.733 368.47 155.951C368.485 155.154 368.332 154.448 368.01 153.835C367.688 153.206 367.243 152.716 366.676 152.363C366.109 152.01 365.465 151.834 364.744 151.834C364.023 151.834 363.372 152.018 362.789 152.386C362.222 152.739 361.777 153.229 361.455 153.858C361.133 154.471 360.98 155.169 360.995 155.951C360.98 156.733 361.133 157.438 361.455 158.067C361.777 158.68 362.222 159.171 362.789 159.539C363.372 159.892 364.023 160.068 364.744 160.068ZM373.467 162V149.925H375.859V153.72L375.629 152.8C375.797 152.217 376.081 151.688 376.48 151.213C376.894 150.738 377.361 150.362 377.883 150.086C378.419 149.81 378.971 149.672 379.539 149.672C379.799 149.672 380.045 149.695 380.275 149.741C380.52 149.787 380.712 149.841 380.85 149.902L380.229 152.478C380.045 152.401 379.838 152.34 379.608 152.294C379.393 152.233 379.178 152.202 378.964 152.202C378.55 152.202 378.151 152.286 377.768 152.455C377.4 152.608 377.07 152.831 376.779 153.122C376.503 153.398 376.28 153.728 376.112 154.111C375.943 154.479 375.859 154.885 375.859 155.33V162H373.467ZM382.697 162V149.925H385.089V152.501L384.652 152.777C384.775 152.378 384.966 151.995 385.227 151.627C385.503 151.259 385.833 150.937 386.216 150.661C386.615 150.37 387.036 150.14 387.481 149.971C387.941 149.802 388.409 149.718 388.884 149.718C389.574 149.718 390.18 149.833 390.701 150.063C391.222 150.293 391.652 150.638 391.989 151.098C392.326 151.558 392.572 152.133 392.725 152.823L392.357 152.731L392.518 152.34C392.687 151.987 392.917 151.658 393.208 151.351C393.515 151.029 393.86 150.745 394.243 150.5C394.626 150.255 395.033 150.063 395.462 149.925C395.891 149.787 396.313 149.718 396.727 149.718C397.632 149.718 398.375 149.902 398.958 150.27C399.556 150.638 400.001 151.198 400.292 151.949C400.599 152.7 400.752 153.636 400.752 154.755V162H398.36V154.893C398.36 153.866 398.161 153.114 397.762 152.639C397.379 152.148 396.773 151.903 395.945 151.903C395.516 151.903 395.109 151.98 394.726 152.133C394.358 152.271 394.036 152.47 393.76 152.731C393.484 152.992 393.269 153.298 393.116 153.651C392.963 153.988 392.886 154.364 392.886 154.778V162H390.494V154.847C390.494 153.896 390.287 153.168 389.873 152.662C389.474 152.156 388.892 151.903 388.125 151.903C387.696 151.903 387.297 151.98 386.929 152.133C386.561 152.271 386.239 152.47 385.963 152.731C385.687 152.976 385.472 153.275 385.319 153.628C385.166 153.965 385.089 154.333 385.089 154.732V162H382.697ZM411.077 162V154.134C411.077 153.459 410.831 152.915 410.341 152.501C409.865 152.072 409.26 151.857 408.524 151.857C407.849 151.857 407.236 151.995 406.684 152.271C406.147 152.547 405.656 152.969 405.212 153.536L403.671 151.995C404.391 151.213 405.166 150.63 405.994 150.247C406.837 149.864 407.742 149.672 408.708 149.672C409.628 149.672 410.425 149.825 411.1 150.132C411.774 150.439 412.296 150.891 412.664 151.489C413.032 152.072 413.216 152.785 413.216 153.628V162H411.077ZM407.466 162.23C406.684 162.23 405.986 162.077 405.373 161.77C404.759 161.463 404.269 161.042 403.901 160.505C403.548 159.953 403.372 159.309 403.372 158.573C403.372 157.929 403.487 157.362 403.717 156.871C403.947 156.38 404.284 155.974 404.729 155.652C405.189 155.33 405.756 155.085 406.431 154.916C407.121 154.747 407.91 154.663 408.8 154.663H412.158L411.951 156.549H408.501C408.041 156.549 407.627 156.595 407.259 156.687C406.906 156.764 406.599 156.894 406.339 157.078C406.093 157.247 405.909 157.454 405.787 157.699C405.664 157.929 405.603 158.205 405.603 158.527C405.603 158.864 405.687 159.163 405.856 159.424C406.024 159.669 406.254 159.861 406.546 159.999C406.837 160.137 407.174 160.206 407.558 160.206C408.11 160.206 408.631 160.114 409.122 159.93C409.628 159.731 410.072 159.462 410.456 159.125C410.854 158.788 411.161 158.412 411.376 157.998L411.928 159.539C411.606 160.076 411.207 160.543 410.732 160.942C410.256 161.341 409.743 161.655 409.191 161.885C408.639 162.115 408.064 162.23 407.466 162.23ZM417.705 162V146.843H420.074V162H417.705ZM415.198 152.225V149.925H422.88V152.225H415.198ZM425.428 162V149.925H427.797V162H425.428ZM426.578 147.257C426.072 147.257 425.681 147.127 425.405 146.866C425.129 146.605 424.991 146.237 424.991 145.762C424.991 145.317 425.129 144.957 425.405 144.681C425.696 144.405 426.087 144.267 426.578 144.267C427.084 144.267 427.475 144.397 427.751 144.658C428.027 144.919 428.165 145.287 428.165 145.762C428.165 146.207 428.019 146.567 427.728 146.843C427.452 147.119 427.069 147.257 426.578 147.257ZM436.866 162.23C435.686 162.23 434.628 161.962 433.692 161.425C432.772 160.873 432.044 160.129 431.507 159.194C430.971 158.243 430.702 157.162 430.702 155.951C430.702 154.74 430.971 153.666 431.507 152.731C432.044 151.78 432.772 151.037 433.692 150.5C434.628 149.948 435.686 149.672 436.866 149.672C438.032 149.672 439.074 149.948 439.994 150.5C440.93 151.037 441.666 151.78 442.202 152.731C442.739 153.666 443.007 154.74 443.007 155.951C443.007 157.162 442.739 158.243 442.202 159.194C441.666 160.129 440.93 160.873 439.994 161.425C439.074 161.962 438.032 162.23 436.866 162.23ZM436.866 160.068C437.587 160.068 438.231 159.892 438.798 159.539C439.366 159.171 439.81 158.68 440.132 158.067C440.454 157.438 440.608 156.733 440.592 155.951C440.608 155.154 440.454 154.448 440.132 153.835C439.81 153.206 439.366 152.716 438.798 152.363C438.231 152.01 437.587 151.834 436.866 151.834C436.146 151.834 435.494 152.018 434.911 152.386C434.344 152.739 433.899 153.229 433.577 153.858C433.255 154.471 433.102 155.169 433.117 155.951C433.102 156.733 433.255 157.438 433.577 158.067C433.899 158.68 434.344 159.171 434.911 159.539C435.494 159.892 436.146 160.068 436.866 160.068ZM445.589 162V149.925H447.958V152.409L447.544 152.685C447.697 152.148 447.996 151.658 448.441 151.213C448.885 150.753 449.414 150.385 450.028 150.109C450.641 149.818 451.27 149.672 451.914 149.672C452.834 149.672 453.6 149.856 454.214 150.224C454.827 150.577 455.287 151.121 455.594 151.857C455.9 152.593 456.054 153.521 456.054 154.64V162H453.685V154.801C453.685 154.111 453.593 153.544 453.409 153.099C453.225 152.639 452.941 152.309 452.558 152.11C452.174 151.895 451.699 151.803 451.132 151.834C450.672 151.834 450.25 151.911 449.867 152.064C449.483 152.202 449.146 152.401 448.855 152.662C448.579 152.923 448.356 153.229 448.188 153.582C448.034 153.919 447.958 154.287 447.958 154.686V162H446.785C446.585 162 446.386 162 446.187 162C445.987 162 445.788 162 445.589 162Z" fill="#0D0D0D"/>
<path d="M334.313 364V350.292H329.805V347.9H341.443V350.292H336.797V364H334.313ZM343.908 364V346.98H346.277V354.409L345.863 354.685C346.016 354.148 346.315 353.658 346.76 353.213C347.205 352.753 347.734 352.385 348.347 352.109C348.96 351.818 349.589 351.672 350.233 351.672C351.153 351.672 351.92 351.856 352.533 352.224C353.146 352.577 353.606 353.121 353.913 353.857C354.22 354.593 354.373 355.521 354.373 356.64V364H352.004V356.801C352.004 356.111 351.912 355.544 351.728 355.099C351.544 354.639 351.26 354.309 350.877 354.11C350.494 353.895 350.018 353.803 349.451 353.834C348.991 353.834 348.569 353.911 348.186 354.064C347.803 354.202 347.465 354.401 347.174 354.662C346.898 354.923 346.676 355.229 346.507 355.582C346.354 355.919 346.277 356.287 346.277 356.686V364H345.104C344.905 364 344.705 364 344.506 364C344.307 364 344.107 364 343.908 364ZM363.222 364.23C361.98 364.23 360.876 363.969 359.91 363.448C358.959 362.911 358.208 362.183 357.656 361.263C357.119 360.343 356.851 359.285 356.851 358.089C356.851 357.138 357.004 356.272 357.311 355.49C357.617 354.708 358.039 354.033 358.576 353.466C359.128 352.883 359.779 352.439 360.531 352.132C361.297 351.81 362.125 351.649 363.015 351.649C363.797 351.649 364.525 351.802 365.2 352.109C365.874 352.4 366.457 352.807 366.948 353.328C367.454 353.849 367.837 354.47 368.098 355.191C368.374 355.896 368.504 356.671 368.489 357.514L368.466 358.526H358.599L358.07 356.64H366.419L366.074 357.031V356.479C366.028 355.973 365.859 355.521 365.568 355.122C365.276 354.723 364.908 354.409 364.464 354.179C364.019 353.949 363.536 353.834 363.015 353.834C362.187 353.834 361.489 353.995 360.922 354.317C360.354 354.624 359.925 355.084 359.634 355.697C359.342 356.295 359.197 357.039 359.197 357.928C359.197 358.771 359.373 359.507 359.726 360.136C360.078 360.749 360.577 361.225 361.221 361.562C361.865 361.899 362.608 362.068 363.452 362.068C364.05 362.068 364.602 361.968 365.108 361.769C365.629 361.57 366.189 361.209 366.787 360.688L367.983 362.367C367.615 362.735 367.162 363.057 366.626 363.333C366.104 363.609 365.545 363.831 364.947 364C364.364 364.153 363.789 364.23 363.222 364.23ZM377.51 364V346.98H379.879V354.409L379.465 354.685C379.618 354.148 379.917 353.658 380.362 353.213C380.806 352.753 381.335 352.385 381.949 352.109C382.562 351.818 383.191 351.672 383.835 351.672C384.755 351.672 385.521 351.856 386.135 352.224C386.748 352.577 387.208 353.121 387.515 353.857C387.821 354.593 387.975 355.521 387.975 356.64V364H385.606V356.801C385.606 356.111 385.514 355.544 385.33 355.099C385.146 354.639 384.862 354.309 384.479 354.11C384.095 353.895 383.62 353.803 383.053 353.834C382.593 353.834 382.171 353.911 381.788 354.064C381.404 354.202 381.067 354.401 380.776 354.662C380.5 354.923 380.277 355.229 380.109 355.582C379.955 355.919 379.879 356.287 379.879 356.686V364H378.706C378.506 364 378.307 364 378.108 364C377.908 364 377.709 364 377.51 364ZM398.341 364V356.134C398.341 355.459 398.096 354.915 397.605 354.501C397.13 354.072 396.524 353.857 395.788 353.857C395.114 353.857 394.5 353.995 393.948 354.271C393.412 354.547 392.921 354.969 392.476 355.536L390.935 353.995C391.656 353.213 392.43 352.63 393.258 352.247C394.102 351.864 395.006 351.672 395.972 351.672C396.892 351.672 397.69 351.825 398.364 352.132C399.039 352.439 399.56 352.891 399.928 353.489C400.296 354.072 400.48 354.785 400.48 355.628V364H398.341ZM394.73 364.23C393.948 364.23 393.251 364.077 392.637 363.77C392.024 363.463 391.533 363.042 391.165 362.505C390.813 361.953 390.636 361.309 390.636 360.573C390.636 359.929 390.751 359.362 390.981 358.871C391.211 358.38 391.549 357.974 391.993 357.652C392.453 357.33 393.021 357.085 393.695 356.916C394.385 356.747 395.175 356.663 396.064 356.663H399.422L399.215 358.549H395.765C395.305 358.549 394.891 358.595 394.523 358.687C394.171 358.764 393.864 358.894 393.603 359.078C393.358 359.247 393.174 359.454 393.051 359.699C392.929 359.929 392.867 360.205 392.867 360.527C392.867 360.864 392.952 361.163 393.12 361.424C393.289 361.669 393.519 361.861 393.81 361.999C394.102 362.137 394.439 362.206 394.822 362.206C395.374 362.206 395.896 362.114 396.386 361.93C396.892 361.731 397.337 361.462 397.72 361.125C398.119 360.788 398.426 360.412 398.64 359.998L399.192 361.539C398.87 362.076 398.472 362.543 397.996 362.942C397.521 363.341 397.007 363.655 396.455 363.885C395.903 364.115 395.328 364.23 394.73 364.23ZM407.499 364.23C406.487 364.23 405.575 364.054 404.762 363.701C403.95 363.348 403.275 362.827 402.738 362.137L404.348 360.757C404.808 361.294 405.307 361.685 405.843 361.93C406.395 362.16 407.016 362.275 407.706 362.275C407.982 362.275 408.235 362.244 408.465 362.183C408.711 362.106 408.918 361.999 409.086 361.861C409.27 361.723 409.408 361.562 409.5 361.378C409.592 361.179 409.638 360.964 409.638 360.734C409.638 360.335 409.493 360.013 409.201 359.768C409.048 359.661 408.803 359.546 408.465 359.423C408.143 359.285 407.722 359.147 407.2 359.009C406.311 358.779 405.583 358.518 405.015 358.227C404.448 357.936 404.011 357.606 403.704 357.238C403.474 356.947 403.306 356.632 403.198 356.295C403.091 355.942 403.037 355.559 403.037 355.145C403.037 354.47 403.229 353.872 403.612 353.351C403.996 352.83 404.509 352.423 405.153 352.132C405.813 351.825 406.549 351.672 407.361 351.672C407.929 351.672 408.488 351.749 409.04 351.902C409.608 352.055 410.129 352.278 410.604 352.569C411.08 352.86 411.478 353.205 411.8 353.604L410.443 355.099C410.152 354.808 409.83 354.555 409.477 354.34C409.14 354.11 408.795 353.934 408.442 353.811C408.09 353.688 407.768 353.627 407.476 353.627C407.154 353.627 406.863 353.658 406.602 353.719C406.342 353.78 406.119 353.872 405.935 353.995C405.767 354.118 405.636 354.271 405.544 354.455C405.452 354.639 405.406 354.846 405.406 355.076C405.422 355.275 405.468 355.467 405.544 355.651C405.636 355.82 405.759 355.965 405.912 356.088C406.081 356.211 406.334 356.341 406.671 356.479C407.009 356.617 407.438 356.747 407.959 356.87C408.726 357.069 409.355 357.292 409.845 357.537C410.351 357.767 410.75 358.035 411.041 358.342C411.348 358.633 411.563 358.971 411.685 359.354C411.808 359.737 411.869 360.167 411.869 360.642C411.869 361.332 411.67 361.953 411.271 362.505C410.888 363.042 410.367 363.463 409.707 363.77C409.048 364.077 408.312 364.23 407.499 364.23ZM414.48 364V346.98H416.849V354.409L416.435 354.685C416.589 354.148 416.888 353.658 417.332 353.213C417.777 352.753 418.306 352.385 418.919 352.109C419.533 351.818 420.161 351.672 420.805 351.672C421.725 351.672 422.492 351.856 423.105 352.224C423.719 352.577 424.179 353.121 424.485 353.857C424.792 354.593 424.945 355.521 424.945 356.64V364H422.576V356.801C422.576 356.111 422.484 355.544 422.3 355.099C422.116 354.639 421.833 354.309 421.449 354.11C421.066 353.895 420.591 353.803 420.023 353.834C419.563 353.834 419.142 353.911 418.758 354.064C418.375 354.202 418.038 354.401 417.746 354.662C417.47 354.923 417.248 355.229 417.079 355.582C416.926 355.919 416.849 356.287 416.849 356.686V364H415.676C415.477 364 415.278 364 415.078 364C414.879 364 414.68 364 414.48 364ZM335.785 393.23C334.666 393.23 333.661 392.954 332.772 392.402C331.898 391.85 331.2 391.099 330.679 390.148C330.173 389.197 329.92 388.132 329.92 386.951C329.92 385.77 330.173 384.705 330.679 383.754C331.2 382.803 331.898 382.052 332.772 381.5C333.661 380.948 334.666 380.672 335.785 380.672C336.858 380.672 337.832 380.894 338.706 381.339C339.595 381.768 340.27 382.359 340.73 383.11L339.419 384.72C339.174 384.367 338.859 384.045 338.476 383.754C338.093 383.463 337.686 383.233 337.257 383.064C336.828 382.895 336.414 382.811 336.015 382.811C335.279 382.811 334.62 382.995 334.037 383.363C333.47 383.716 333.017 384.206 332.68 384.835C332.343 385.464 332.174 386.169 332.174 386.951C332.174 387.733 332.35 388.438 332.703 389.067C333.056 389.68 333.523 390.171 334.106 390.539C334.689 390.907 335.333 391.091 336.038 391.091C336.452 391.091 336.851 391.022 337.234 390.884C337.633 390.746 338.016 390.539 338.384 390.263C338.752 389.987 339.097 389.65 339.419 389.251L340.73 390.861C340.239 391.551 339.534 392.118 338.614 392.563C337.709 393.008 336.766 393.23 335.785 393.23ZM342.965 393V375.98H345.334V383.409L344.92 383.685C345.073 383.148 345.372 382.658 345.817 382.213C346.261 381.753 346.79 381.385 347.404 381.109C348.017 380.818 348.646 380.672 349.29 380.672C350.21 380.672 350.976 380.856 351.59 381.224C352.203 381.577 352.663 382.121 352.97 382.857C353.276 383.593 353.43 384.521 353.43 385.64V393H351.061V385.801C351.061 385.111 350.969 384.544 350.785 384.099C350.601 383.639 350.317 383.309 349.934 383.11C349.55 382.895 349.075 382.803 348.508 382.834C348.048 382.834 347.626 382.911 347.243 383.064C346.859 383.202 346.522 383.401 346.231 383.662C345.955 383.923 345.732 384.229 345.564 384.582C345.41 384.919 345.334 385.287 345.334 385.686V393H344.161C343.961 393 343.762 393 343.563 393C343.363 393 343.164 393 342.965 393ZM363.796 393V385.134C363.796 384.459 363.551 383.915 363.06 383.501C362.585 383.072 361.979 382.857 361.243 382.857C360.569 382.857 359.955 382.995 359.403 383.271C358.867 383.547 358.376 383.969 357.931 384.536L356.39 382.995C357.111 382.213 357.885 381.63 358.713 381.247C359.557 380.864 360.461 380.672 361.427 380.672C362.347 380.672 363.145 380.825 363.819 381.132C364.494 381.439 365.015 381.891 365.383 382.489C365.751 383.072 365.935 383.785 365.935 384.628V393H363.796ZM360.185 393.23C359.403 393.23 358.706 393.077 358.092 392.77C357.479 392.463 356.988 392.042 356.62 391.505C356.268 390.953 356.091 390.309 356.091 389.573C356.091 388.929 356.206 388.362 356.436 387.871C356.666 387.38 357.004 386.974 357.448 386.652C357.908 386.33 358.476 386.085 359.15 385.916C359.84 385.747 360.63 385.663 361.519 385.663H364.877L364.67 387.549H361.22C360.76 387.549 360.346 387.595 359.978 387.687C359.626 387.764 359.319 387.894 359.058 388.078C358.813 388.247 358.629 388.454 358.506 388.699C358.384 388.929 358.322 389.205 358.322 389.527C358.322 389.864 358.407 390.163 358.575 390.424C358.744 390.669 358.974 390.861 359.265 390.999C359.557 391.137 359.894 391.206 360.277 391.206C360.829 391.206 361.351 391.114 361.841 390.93C362.347 390.731 362.792 390.462 363.175 390.125C363.574 389.788 363.881 389.412 364.095 388.998L364.647 390.539C364.325 391.076 363.927 391.543 363.451 391.942C362.976 392.341 362.462 392.655 361.91 392.885C361.358 393.115 360.783 393.23 360.185 393.23ZM368.929 393V380.925H371.298V383.409L370.884 383.685C371.038 383.148 371.337 382.658 371.781 382.213C372.226 381.753 372.755 381.385 373.368 381.109C373.982 380.818 374.61 380.672 375.254 380.672C376.174 380.672 376.941 380.856 377.554 381.224C378.168 381.577 378.628 382.121 378.934 382.857C379.241 383.593 379.394 384.521 379.394 385.64V393H377.025V385.801C377.025 385.111 376.933 384.544 376.749 384.099C376.565 383.639 376.282 383.309 375.898 383.11C375.515 382.895 375.04 382.803 374.472 382.834C374.012 382.834 373.591 382.911 373.207 383.064C372.824 383.202 372.487 383.401 372.195 383.662C371.919 383.923 371.697 384.229 371.528 384.582C371.375 384.919 371.298 385.287 371.298 385.686V393H370.125C369.926 393 369.727 393 369.527 393C369.328 393 369.129 393 368.929 393ZM388.013 398.29C387.154 398.29 386.296 398.152 385.437 397.876C384.594 397.615 383.911 397.27 383.39 396.841L384.264 395.001C384.724 395.354 385.291 395.637 385.966 395.852C386.656 396.067 387.338 396.174 388.013 396.174C388.856 396.174 389.562 396.036 390.129 395.76C390.696 395.484 391.126 395.078 391.417 394.541C391.708 394.004 391.854 393.337 391.854 392.54V390.217L392.107 390.378C392.03 390.853 391.777 391.313 391.348 391.758C390.934 392.187 390.413 392.54 389.784 392.816C389.155 393.092 388.511 393.23 387.852 393.23C386.702 393.23 385.675 392.962 384.77 392.425C383.881 391.873 383.175 391.129 382.654 390.194C382.133 389.243 381.872 388.162 381.872 386.951C381.872 385.74 382.125 384.666 382.631 383.731C383.152 382.78 383.858 382.037 384.747 381.5C385.652 380.948 386.664 380.672 387.783 380.672C388.243 380.672 388.688 380.733 389.117 380.856C389.546 380.963 389.945 381.124 390.313 381.339C390.681 381.538 391.011 381.761 391.302 382.006C391.593 382.251 391.831 382.512 392.015 382.788C392.199 383.064 392.314 383.325 392.36 383.57L391.854 383.754V380.925H394.223V392.264C394.223 393.23 394.077 394.081 393.786 394.817C393.51 395.568 393.104 396.197 392.567 396.703C392.03 397.224 391.379 397.615 390.612 397.876C389.845 398.152 388.979 398.29 388.013 398.29ZM388.105 391.045C388.856 391.045 389.523 390.869 390.106 390.516C390.689 390.163 391.141 389.68 391.463 389.067C391.785 388.454 391.946 387.748 391.946 386.951C391.946 386.154 391.777 385.448 391.44 384.835C391.118 384.206 390.666 383.716 390.083 383.363C389.516 383.01 388.856 382.834 388.105 382.834C387.369 382.834 386.71 383.018 386.127 383.386C385.56 383.739 385.107 384.229 384.77 384.858C384.448 385.471 384.287 386.169 384.287 386.951C384.287 387.733 384.448 388.438 384.77 389.067C385.107 389.68 385.56 390.163 386.127 390.516C386.71 390.869 387.369 391.045 388.105 391.045ZM403.18 393.23C401.938 393.23 400.834 392.969 399.868 392.448C398.917 391.911 398.166 391.183 397.614 390.263C397.077 389.343 396.809 388.285 396.809 387.089C396.809 386.138 396.962 385.272 397.269 384.49C397.575 383.708 397.997 383.033 398.534 382.466C399.086 381.883 399.737 381.439 400.489 381.132C401.255 380.81 402.083 380.649 402.973 380.649C403.755 380.649 404.483 380.802 405.158 381.109C405.832 381.4 406.415 381.807 406.906 382.328C407.412 382.849 407.795 383.47 408.056 384.191C408.332 384.896 408.462 385.671 408.447 386.514L408.424 387.526H398.557L398.028 385.64H406.377L406.032 386.031V385.479C405.986 384.973 405.817 384.521 405.526 384.122C405.234 383.723 404.866 383.409 404.422 383.179C403.977 382.949 403.494 382.834 402.973 382.834C402.145 382.834 401.447 382.995 400.88 383.317C400.312 383.624 399.883 384.084 399.592 384.697C399.3 385.295 399.155 386.039 399.155 386.928C399.155 387.771 399.331 388.507 399.684 389.136C400.036 389.749 400.535 390.225 401.179 390.562C401.823 390.899 402.566 391.068 403.41 391.068C404.008 391.068 404.56 390.968 405.066 390.769C405.587 390.57 406.147 390.209 406.745 389.688L407.941 391.367C407.573 391.735 407.12 392.057 406.584 392.333C406.062 392.609 405.503 392.831 404.905 393C404.322 393.153 403.747 393.23 403.18 393.23ZM415.046 393.23C414.034 393.23 413.122 393.054 412.309 392.701C411.497 392.348 410.822 391.827 410.285 391.137L411.895 389.757C412.355 390.294 412.854 390.685 413.39 390.93C413.942 391.16 414.563 391.275 415.253 391.275C415.529 391.275 415.782 391.244 416.012 391.183C416.258 391.106 416.465 390.999 416.633 390.861C416.817 390.723 416.955 390.562 417.047 390.378C417.139 390.179 417.185 389.964 417.185 389.734C417.185 389.335 417.04 389.013 416.748 388.768C416.595 388.661 416.35 388.546 416.012 388.423C415.69 388.285 415.269 388.147 414.747 388.009C413.858 387.779 413.13 387.518 412.562 387.227C411.995 386.936 411.558 386.606 411.251 386.238C411.021 385.947 410.853 385.632 410.745 385.295C410.638 384.942 410.584 384.559 410.584 384.145C410.584 383.47 410.776 382.872 411.159 382.351C411.543 381.83 412.056 381.423 412.7 381.132C413.36 380.825 414.096 380.672 414.908 380.672C415.476 380.672 416.035 380.749 416.587 380.902C417.155 381.055 417.676 381.278 418.151 381.569C418.627 381.86 419.025 382.205 419.347 382.604L417.99 384.099C417.699 383.808 417.377 383.555 417.024 383.34C416.687 383.11 416.342 382.934 415.989 382.811C415.637 382.688 415.315 382.627 415.023 382.627C414.701 382.627 414.41 382.658 414.149 382.719C413.889 382.78 413.666 382.872 413.482 382.995C413.314 383.118 413.183 383.271 413.091 383.455C412.999 383.639 412.953 383.846 412.953 384.076C412.969 384.275 413.015 384.467 413.091 384.651C413.183 384.82 413.306 384.965 413.459 385.088C413.628 385.211 413.881 385.341 414.218 385.479C414.556 385.617 414.985 385.747 415.506 385.87C416.273 386.069 416.902 386.292 417.392 386.537C417.898 386.767 418.297 387.035 418.588 387.342C418.895 387.633 419.11 387.971 419.232 388.354C419.355 388.737 419.416 389.167 419.416 389.642C419.416 390.332 419.217 390.953 418.818 391.505C418.435 392.042 417.914 392.463 417.254 392.77C416.595 393.077 415.859 393.23 415.046 393.23ZM435.626 393V385.134C435.626 384.459 435.381 383.915 434.89 383.501C434.415 383.072 433.809 382.857 433.073 382.857C432.399 382.857 431.785 382.995 431.233 383.271C430.697 383.547 430.206 383.969 429.761 384.536L428.22 382.995C428.941 382.213 429.715 381.63 430.543 381.247C431.387 380.864 432.291 380.672 433.257 380.672C434.177 380.672 434.975 380.825 435.649 381.132C436.324 381.439 436.845 381.891 437.213 382.489C437.581 383.072 437.765 383.785 437.765 384.628V393H435.626ZM432.015 393.23C431.233 393.23 430.536 393.077 429.922 392.77C429.309 392.463 428.818 392.042 428.45 391.505C428.098 390.953 427.921 390.309 427.921 389.573C427.921 388.929 428.036 388.362 428.266 387.871C428.496 387.38 428.834 386.974 429.278 386.652C429.738 386.33 430.306 386.085 430.98 385.916C431.67 385.747 432.46 385.663 433.349 385.663H436.707L436.5 387.549H433.05C432.59 387.549 432.176 387.595 431.808 387.687C431.456 387.764 431.149 387.894 430.888 388.078C430.643 388.247 430.459 388.454 430.336 388.699C430.214 388.929 430.152 389.205 430.152 389.527C430.152 389.864 430.237 390.163 430.405 390.424C430.574 390.669 430.804 390.861 431.095 390.999C431.387 391.137 431.724 391.206 432.107 391.206C432.659 391.206 433.181 391.114 433.671 390.93C434.177 390.731 434.622 390.462 435.005 390.125C435.404 389.788 435.711 389.412 435.925 388.998L436.477 390.539C436.155 391.076 435.757 391.543 435.281 391.942C434.806 392.341 434.292 392.655 433.74 392.885C433.188 393.115 432.613 393.23 432.015 393.23ZM440.76 393V380.925H443.129V383.409L442.715 383.685C442.868 383.148 443.167 382.658 443.612 382.213C444.056 381.753 444.585 381.385 445.199 381.109C445.812 380.818 446.441 380.672 447.085 380.672C448.005 380.672 448.771 380.856 449.385 381.224C449.998 381.577 450.458 382.121 450.765 382.857C451.071 383.593 451.225 384.521 451.225 385.64V393H448.856V385.801C448.856 385.111 448.764 384.544 448.58 384.099C448.396 383.639 448.112 383.309 447.729 383.11C447.345 382.895 446.87 382.803 446.303 382.834C445.843 382.834 445.421 382.911 445.038 383.064C444.654 383.202 444.317 383.401 444.026 383.662C443.75 383.923 443.527 384.229 443.359 384.582C443.205 384.919 443.129 385.287 443.129 385.686V393H441.956C441.756 393 441.557 393 441.358 393C441.158 393 440.959 393 440.76 393ZM459.475 393.23C458.371 393.23 457.382 392.962 456.508 392.425C455.65 391.873 454.967 391.129 454.461 390.194C453.955 389.243 453.702 388.162 453.702 386.951C453.702 385.74 453.948 384.666 454.438 383.731C454.944 382.78 455.627 382.037 456.485 381.5C457.344 380.948 458.318 380.672 459.406 380.672C460.004 380.672 460.579 380.772 461.131 380.971C461.699 381.155 462.205 381.416 462.649 381.753C463.094 382.075 463.439 382.435 463.684 382.834C463.945 383.217 464.075 383.608 464.075 384.007L463.385 384.053V375.98H465.754V393H463.385V390.125H463.845C463.845 390.493 463.723 390.861 463.477 391.229C463.232 391.582 462.902 391.911 462.488 392.218C462.09 392.525 461.622 392.77 461.085 392.954C460.564 393.138 460.027 393.23 459.475 393.23ZM459.797 391.183C460.518 391.183 461.154 390.999 461.706 390.631C462.258 390.263 462.688 389.765 462.994 389.136C463.316 388.492 463.477 387.764 463.477 386.951C463.477 386.138 463.316 385.418 462.994 384.789C462.688 384.145 462.258 383.639 461.706 383.271C461.154 382.903 460.518 382.719 459.797 382.719C459.077 382.719 458.44 382.903 457.888 383.271C457.336 383.639 456.899 384.145 456.577 384.789C456.271 385.418 456.117 386.138 456.117 386.951C456.117 387.764 456.271 388.492 456.577 389.136C456.899 389.765 457.336 390.263 457.888 390.631C458.44 390.999 459.077 391.183 459.797 391.183ZM335.693 422.23C334.589 422.23 333.6 421.962 332.726 421.425C331.867 420.873 331.185 420.129 330.679 419.194C330.173 418.243 329.92 417.162 329.92 415.951C329.92 414.74 330.165 413.666 330.656 412.731C331.162 411.78 331.844 411.037 332.703 410.5C333.562 409.948 334.535 409.672 335.624 409.672C336.222 409.672 336.797 409.772 337.349 409.971C337.916 410.155 338.422 410.416 338.867 410.753C339.312 411.075 339.657 411.435 339.902 411.834C340.163 412.217 340.293 412.608 340.293 413.007L339.603 413.053V404.98H341.972V422H339.603V419.125H340.063C340.063 419.493 339.94 419.861 339.695 420.229C339.45 420.582 339.12 420.911 338.706 421.218C338.307 421.525 337.84 421.77 337.303 421.954C336.782 422.138 336.245 422.23 335.693 422.23ZM336.015 420.183C336.736 420.183 337.372 419.999 337.924 419.631C338.476 419.263 338.905 418.765 339.212 418.136C339.534 417.492 339.695 416.764 339.695 415.951C339.695 415.138 339.534 414.418 339.212 413.789C338.905 413.145 338.476 412.639 337.924 412.271C337.372 411.903 336.736 411.719 336.015 411.719C335.294 411.719 334.658 411.903 334.106 412.271C333.554 412.639 333.117 413.145 332.795 413.789C332.488 414.418 332.335 415.138 332.335 415.951C332.335 416.764 332.488 417.492 332.795 418.136C333.117 418.765 333.554 419.263 334.106 419.631C334.658 419.999 335.294 420.183 336.015 420.183ZM350.661 422.23C349.48 422.23 348.422 421.962 347.487 421.425C346.567 420.873 345.839 420.129 345.302 419.194C344.765 418.243 344.497 417.162 344.497 415.951C344.497 414.74 344.765 413.666 345.302 412.731C345.839 411.78 346.567 411.037 347.487 410.5C348.422 409.948 349.48 409.672 350.661 409.672C351.826 409.672 352.869 409.948 353.789 410.5C354.724 411.037 355.46 411.78 355.997 412.731C356.534 413.666 356.802 414.74 356.802 415.951C356.802 417.162 356.534 418.243 355.997 419.194C355.46 420.129 354.724 420.873 353.789 421.425C352.869 421.962 351.826 422.23 350.661 422.23ZM350.661 420.068C351.382 420.068 352.026 419.892 352.593 419.539C353.16 419.171 353.605 418.68 353.927 418.067C354.249 417.438 354.402 416.733 354.387 415.951C354.402 415.154 354.249 414.448 353.927 413.835C353.605 413.206 353.16 412.716 352.593 412.363C352.026 412.01 351.382 411.834 350.661 411.834C349.94 411.834 349.289 412.018 348.706 412.386C348.139 412.739 347.694 413.229 347.372 413.858C347.05 414.471 346.897 415.169 346.912 415.951C346.897 416.733 347.05 417.438 347.372 418.067C347.694 418.68 348.139 419.171 348.706 419.539C349.289 419.892 349.94 420.068 350.661 420.068ZM365.019 422.23C363.777 422.23 362.673 421.969 361.707 421.448C360.756 420.911 360.005 420.183 359.453 419.263C358.916 418.343 358.648 417.285 358.648 416.089C358.648 415.138 358.801 414.272 359.108 413.49C359.414 412.708 359.836 412.033 360.373 411.466C360.925 410.883 361.576 410.439 362.328 410.132C363.094 409.81 363.922 409.649 364.812 409.649C365.594 409.649 366.322 409.802 366.997 410.109C367.671 410.4 368.254 410.807 368.745 411.328C369.251 411.849 369.634 412.47 369.895 413.191C370.171 413.896 370.301 414.671 370.286 415.514L370.263 416.526H360.396L359.867 414.64H368.216L367.871 415.031V414.479C367.825 413.973 367.656 413.521 367.365 413.122C367.073 412.723 366.705 412.409 366.261 412.179C365.816 411.949 365.333 411.834 364.812 411.834C363.984 411.834 363.286 411.995 362.719 412.317C362.151 412.624 361.722 413.084 361.431 413.697C361.139 414.295 360.994 415.039 360.994 415.928C360.994 416.771 361.17 417.507 361.523 418.136C361.875 418.749 362.374 419.225 363.018 419.562C363.662 419.899 364.405 420.068 365.249 420.068C365.847 420.068 366.399 419.968 366.905 419.769C367.426 419.57 367.986 419.209 368.584 418.688L369.78 420.367C369.412 420.735 368.959 421.057 368.423 421.333C367.901 421.609 367.342 421.831 366.744 422C366.161 422.153 365.586 422.23 365.019 422.23ZM376.885 422.23C375.873 422.23 374.961 422.054 374.148 421.701C373.335 421.348 372.661 420.827 372.124 420.137L373.734 418.757C374.194 419.294 374.692 419.685 375.229 419.93C375.781 420.16 376.402 420.275 377.092 420.275C377.368 420.275 377.621 420.244 377.851 420.183C378.096 420.106 378.303 419.999 378.472 419.861C378.656 419.723 378.794 419.562 378.886 419.378C378.978 419.179 379.024 418.964 379.024 418.734C379.024 418.335 378.878 418.013 378.587 417.768C378.434 417.661 378.188 417.546 377.851 417.423C377.529 417.285 377.107 417.147 376.586 417.009C375.697 416.779 374.968 416.518 374.401 416.227C373.834 415.936 373.397 415.606 373.09 415.238C372.86 414.947 372.691 414.632 372.584 414.295C372.477 413.942 372.423 413.559 372.423 413.145C372.423 412.47 372.615 411.872 372.998 411.351C373.381 410.83 373.895 410.423 374.539 410.132C375.198 409.825 375.934 409.672 376.747 409.672C377.314 409.672 377.874 409.749 378.426 409.902C378.993 410.055 379.515 410.278 379.99 410.569C380.465 410.86 380.864 411.205 381.186 411.604L379.829 413.099C379.538 412.808 379.216 412.555 378.863 412.34C378.526 412.11 378.181 411.934 377.828 411.811C377.475 411.688 377.153 411.627 376.862 411.627C376.54 411.627 376.249 411.658 375.988 411.719C375.727 411.78 375.505 411.872 375.321 411.995C375.152 412.118 375.022 412.271 374.93 412.455C374.838 412.639 374.792 412.846 374.792 413.076C374.807 413.275 374.853 413.467 374.93 413.651C375.022 413.82 375.145 413.965 375.298 414.088C375.467 414.211 375.72 414.341 376.057 414.479C376.394 414.617 376.824 414.747 377.345 414.87C378.112 415.069 378.74 415.292 379.231 415.537C379.737 415.767 380.136 416.035 380.427 416.342C380.734 416.633 380.948 416.971 381.071 417.354C381.194 417.737 381.255 418.167 381.255 418.642C381.255 419.332 381.056 419.953 380.657 420.505C380.274 421.042 379.752 421.463 379.093 421.77C378.434 422.077 377.698 422.23 376.885 422.23ZM383.866 422V409.925H386.235V412.409L385.821 412.685C385.974 412.148 386.273 411.658 386.718 411.213C387.163 410.753 387.692 410.385 388.305 410.109C388.918 409.818 389.547 409.672 390.191 409.672C391.111 409.672 391.878 409.856 392.491 410.224C393.104 410.577 393.564 411.121 393.871 411.857C394.178 412.593 394.331 413.521 394.331 414.64V422H391.962V414.801C391.962 414.111 391.87 413.544 391.686 413.099C391.502 412.639 391.218 412.309 390.835 412.11C390.452 411.895 389.976 411.803 389.409 411.834C388.949 411.834 388.527 411.911 388.144 412.064C387.761 412.202 387.423 412.401 387.132 412.662C386.856 412.923 386.634 413.229 386.465 413.582C386.312 413.919 386.235 414.287 386.235 414.686V422H385.062C384.863 422 384.663 422 384.464 422C384.265 422 384.065 422 383.866 422ZM397.223 411.075L396.349 410.017C396.947 409.741 397.437 409.427 397.821 409.074C398.204 408.721 398.396 408.415 398.396 408.154C398.396 407.955 398.311 407.778 398.143 407.625C397.974 407.456 397.821 407.318 397.683 407.211C397.345 406.935 397.115 406.705 396.993 406.521C396.885 406.337 396.832 406.145 396.832 405.946C396.832 405.578 396.962 405.287 397.223 405.072C397.483 404.842 397.821 404.727 398.235 404.727C398.664 404.727 399.047 404.842 399.385 405.072C399.737 405.287 400.013 405.586 400.213 405.969C400.412 406.352 400.512 406.805 400.512 407.326C400.512 407.725 400.427 408.116 400.259 408.499C400.09 408.882 399.852 409.243 399.546 409.58C399.254 409.917 398.909 410.216 398.511 410.477C398.112 410.738 397.683 410.937 397.223 411.075ZM404.588 422V406.843H406.957V422H404.588ZM402.081 412.225V409.925H409.763V412.225H402.081ZM330.61 451V438.925H333.002V441.501L332.565 441.777C332.688 441.378 332.879 440.995 333.14 440.627C333.416 440.259 333.746 439.937 334.129 439.661C334.528 439.37 334.949 439.14 335.394 438.971C335.854 438.802 336.322 438.718 336.797 438.718C337.487 438.718 338.093 438.833 338.614 439.063C339.135 439.293 339.565 439.638 339.902 440.098C340.239 440.558 340.485 441.133 340.638 441.823L340.27 441.731L340.431 441.34C340.6 440.987 340.83 440.658 341.121 440.351C341.428 440.029 341.773 439.745 342.156 439.5C342.539 439.255 342.946 439.063 343.375 438.925C343.804 438.787 344.226 438.718 344.64 438.718C345.545 438.718 346.288 438.902 346.871 439.27C347.469 439.638 347.914 440.198 348.205 440.949C348.512 441.7 348.665 442.636 348.665 443.755V451H346.273V443.893C346.273 442.866 346.074 442.114 345.675 441.639C345.292 441.148 344.686 440.903 343.858 440.903C343.429 440.903 343.022 440.98 342.639 441.133C342.271 441.271 341.949 441.47 341.673 441.731C341.397 441.992 341.182 442.298 341.029 442.651C340.876 442.988 340.799 443.364 340.799 443.778V451H338.407V443.847C338.407 442.896 338.2 442.168 337.786 441.662C337.387 441.156 336.805 440.903 336.038 440.903C335.609 440.903 335.21 440.98 334.842 441.133C334.474 441.271 334.152 441.47 333.876 441.731C333.6 441.976 333.385 442.275 333.232 442.628C333.079 442.965 333.002 443.333 333.002 443.732V451H330.61ZM358.99 451V443.134C358.99 442.459 358.744 441.915 358.254 441.501C357.778 441.072 357.173 440.857 356.437 440.857C355.762 440.857 355.149 440.995 354.597 441.271C354.06 441.547 353.569 441.969 353.125 442.536L351.584 440.995C352.304 440.213 353.079 439.63 353.907 439.247C354.75 438.864 355.655 438.672 356.621 438.672C357.541 438.672 358.338 438.825 359.013 439.132C359.687 439.439 360.209 439.891 360.577 440.489C360.945 441.072 361.129 441.785 361.129 442.628V451H358.99ZM355.379 451.23C354.597 451.23 353.899 451.077 353.286 450.77C352.672 450.463 352.182 450.042 351.814 449.505C351.461 448.953 351.285 448.309 351.285 447.573C351.285 446.929 351.4 446.362 351.63 445.871C351.86 445.38 352.197 444.974 352.642 444.652C353.102 444.33 353.669 444.085 354.344 443.916C355.034 443.747 355.823 443.663 356.713 443.663H360.071L359.864 445.549H356.414C355.954 445.549 355.54 445.595 355.172 445.687C354.819 445.764 354.512 445.894 354.252 446.078C354.006 446.247 353.822 446.454 353.7 446.699C353.577 446.929 353.516 447.205 353.516 447.527C353.516 447.864 353.6 448.163 353.769 448.424C353.937 448.669 354.167 448.861 354.459 448.999C354.75 449.137 355.087 449.206 355.471 449.206C356.023 449.206 356.544 449.114 357.035 448.93C357.541 448.731 357.985 448.462 358.369 448.125C358.767 447.788 359.074 447.412 359.289 446.998L359.841 448.539C359.519 449.076 359.12 449.543 358.645 449.942C358.169 450.341 357.656 450.655 357.104 450.885C356.552 451.115 355.977 451.23 355.379 451.23ZM365.618 451V435.843H367.987V451H365.618ZM363.111 441.225V438.925H370.793V441.225H363.111ZM377.967 451.23C376.847 451.23 375.843 450.954 374.954 450.402C374.08 449.85 373.382 449.099 372.861 448.148C372.355 447.197 372.102 446.132 372.102 444.951C372.102 443.77 372.355 442.705 372.861 441.754C373.382 440.803 374.08 440.052 374.954 439.5C375.843 438.948 376.847 438.672 377.967 438.672C379.04 438.672 380.014 438.894 380.888 439.339C381.777 439.768 382.452 440.359 382.912 441.11L381.601 442.72C381.355 442.367 381.041 442.045 380.658 441.754C380.274 441.463 379.868 441.233 379.439 441.064C379.009 440.895 378.595 440.811 378.197 440.811C377.461 440.811 376.801 440.995 376.219 441.363C375.651 441.716 375.199 442.206 374.862 442.835C374.524 443.464 374.356 444.169 374.356 444.951C374.356 445.733 374.532 446.438 374.885 447.067C375.237 447.68 375.705 448.171 376.288 448.539C376.87 448.907 377.514 449.091 378.22 449.091C378.634 449.091 379.032 449.022 379.416 448.884C379.814 448.746 380.198 448.539 380.566 448.263C380.934 447.987 381.279 447.65 381.601 447.251L382.912 448.861C382.421 449.551 381.716 450.118 380.796 450.563C379.891 451.008 378.948 451.23 377.967 451.23ZM385.146 451V433.98H387.515V441.409L387.101 441.685C387.255 441.148 387.554 440.658 387.998 440.213C388.443 439.753 388.972 439.385 389.585 439.109C390.199 438.818 390.827 438.672 391.471 438.672C392.391 438.672 393.158 438.856 393.771 439.224C394.385 439.577 394.845 440.121 395.151 440.857C395.458 441.593 395.611 442.521 395.611 443.64V451H393.242V443.801C393.242 443.111 393.15 442.544 392.966 442.099C392.782 441.639 392.499 441.309 392.115 441.11C391.732 440.895 391.257 440.803 390.689 440.834C390.229 440.834 389.808 440.911 389.424 441.064C389.041 441.202 388.704 441.401 388.412 441.662C388.136 441.923 387.914 442.229 387.745 442.582C387.592 442.919 387.515 443.287 387.515 443.686V451H386.342C386.143 451 385.944 451 385.744 451C385.545 451 385.346 451 385.146 451ZM337.809 480V472.134C337.809 471.459 337.564 470.915 337.073 470.501C336.598 470.072 335.992 469.857 335.256 469.857C334.581 469.857 333.968 469.995 333.416 470.271C332.879 470.547 332.389 470.969 331.944 471.536L330.403 469.995C331.124 469.213 331.898 468.63 332.726 468.247C333.569 467.864 334.474 467.672 335.44 467.672C336.36 467.672 337.157 467.825 337.832 468.132C338.507 468.439 339.028 468.891 339.396 469.489C339.764 470.072 339.948 470.785 339.948 471.628V480H337.809ZM334.198 480.23C333.416 480.23 332.718 480.077 332.105 479.77C331.492 479.463 331.001 479.042 330.633 478.505C330.28 477.953 330.104 477.309 330.104 476.573C330.104 475.929 330.219 475.362 330.449 474.871C330.679 474.38 331.016 473.974 331.461 473.652C331.921 473.33 332.488 473.085 333.163 472.916C333.853 472.747 334.643 472.663 335.532 472.663H338.89L338.683 474.549H335.233C334.773 474.549 334.359 474.595 333.991 474.687C333.638 474.764 333.332 474.894 333.071 475.078C332.826 475.247 332.642 475.454 332.519 475.699C332.396 475.929 332.335 476.205 332.335 476.527C332.335 476.864 332.419 477.163 332.588 477.424C332.757 477.669 332.987 477.861 333.278 477.999C333.569 478.137 333.907 478.206 334.29 478.206C334.842 478.206 335.363 478.114 335.854 477.93C336.36 477.731 336.805 477.462 337.188 477.125C337.587 476.788 337.893 476.412 338.108 475.998L338.66 477.539C338.338 478.076 337.939 478.543 337.464 478.942C336.989 479.341 336.475 479.655 335.923 479.885C335.371 480.115 334.796 480.23 334.198 480.23ZM342.942 480V467.925H345.311V470.409L344.897 470.685C345.05 470.148 345.349 469.658 345.794 469.213C346.239 468.753 346.768 468.385 347.381 468.109C347.994 467.818 348.623 467.672 349.267 467.672C350.187 467.672 350.954 467.856 351.567 468.224C352.18 468.577 352.64 469.121 352.947 469.857C353.254 470.593 353.407 471.521 353.407 472.64V480H351.038V472.801C351.038 472.111 350.946 471.544 350.762 471.099C350.578 470.639 350.294 470.309 349.911 470.11C349.528 469.895 349.052 469.803 348.485 469.834C348.025 469.834 347.603 469.911 347.22 470.064C346.837 470.202 346.499 470.401 346.208 470.662C345.932 470.923 345.71 471.229 345.541 471.582C345.388 471.919 345.311 472.287 345.311 472.686V480H344.138C343.939 480 343.739 480 343.54 480C343.341 480 343.141 480 342.942 480ZM358.533 485.29L360.971 479.655L360.994 481.541L354.968 467.925H357.728L361.5 476.803C361.576 476.956 361.668 477.194 361.776 477.516C361.883 477.823 361.975 478.129 362.052 478.436L361.454 478.574C361.576 478.252 361.691 477.93 361.799 477.608C361.921 477.286 362.036 476.964 362.144 476.642L365.295 467.925H368.101L363.133 480L361.086 485.29H358.533ZM369.827 480V467.925H372.219V470.501L371.782 470.777C371.904 470.378 372.096 469.995 372.357 469.627C372.633 469.259 372.962 468.937 373.346 468.661C373.744 468.37 374.166 468.14 374.611 467.971C375.071 467.802 375.538 467.718 376.014 467.718C376.704 467.718 377.309 467.833 377.831 468.063C378.352 468.293 378.781 468.638 379.119 469.098C379.456 469.558 379.701 470.133 379.855 470.823L379.487 470.731L379.648 470.34C379.816 469.987 380.046 469.658 380.338 469.351C380.644 469.029 380.989 468.745 381.373 468.5C381.756 468.255 382.162 468.063 382.592 467.925C383.021 467.787 383.443 467.718 383.857 467.718C384.761 467.718 385.505 467.902 386.088 468.27C386.686 468.638 387.13 469.198 387.422 469.949C387.728 470.7 387.882 471.636 387.882 472.755V480H385.49V472.893C385.49 471.866 385.29 471.114 384.892 470.639C384.508 470.148 383.903 469.903 383.075 469.903C382.645 469.903 382.239 469.98 381.856 470.133C381.488 470.271 381.166 470.47 380.89 470.731C380.614 470.992 380.399 471.298 380.246 471.651C380.092 471.988 380.016 472.364 380.016 472.778V480H377.624V472.847C377.624 471.896 377.417 471.168 377.003 470.662C376.604 470.156 376.021 469.903 375.255 469.903C374.825 469.903 374.427 469.98 374.059 470.133C373.691 470.271 373.369 470.47 373.093 470.731C372.817 470.976 372.602 471.275 372.449 471.628C372.295 471.965 372.219 472.333 372.219 472.732V480H369.827ZM396.481 480.23C395.301 480.23 394.243 479.962 393.307 479.425C392.387 478.873 391.659 478.129 391.122 477.194C390.586 476.243 390.317 475.162 390.317 473.951C390.317 472.74 390.586 471.666 391.122 470.731C391.659 469.78 392.387 469.037 393.307 468.5C394.243 467.948 395.301 467.672 396.481 467.672C397.647 467.672 398.689 467.948 399.609 468.5C400.545 469.037 401.281 469.78 401.817 470.731C402.354 471.666 402.622 472.74 402.622 473.951C402.622 475.162 402.354 476.243 401.817 477.194C401.281 478.129 400.545 478.873 399.609 479.425C398.689 479.962 397.647 480.23 396.481 480.23ZM396.481 478.068C397.202 478.068 397.846 477.892 398.413 477.539C398.981 477.171 399.425 476.68 399.747 476.067C400.069 475.438 400.223 474.733 400.207 473.951C400.223 473.154 400.069 472.448 399.747 471.835C399.425 471.206 398.981 470.716 398.413 470.363C397.846 470.01 397.202 469.834 396.481 469.834C395.761 469.834 395.109 470.018 394.526 470.386C393.959 470.739 393.514 471.229 393.192 471.858C392.87 472.471 392.717 473.169 392.732 473.951C392.717 474.733 392.87 475.438 393.192 476.067C393.514 476.68 393.959 477.171 394.526 477.539C395.109 477.892 395.761 478.068 396.481 478.068ZM405.204 480V467.925H407.596V471.72L407.366 470.8C407.535 470.217 407.818 469.688 408.217 469.213C408.631 468.738 409.099 468.362 409.62 468.086C410.157 467.81 410.709 467.672 411.276 467.672C411.537 467.672 411.782 467.695 412.012 467.741C412.257 467.787 412.449 467.841 412.587 467.902L411.966 470.478C411.782 470.401 411.575 470.34 411.345 470.294C411.13 470.233 410.916 470.202 410.701 470.202C410.287 470.202 409.888 470.286 409.505 470.455C409.137 470.608 408.807 470.831 408.516 471.122C408.24 471.398 408.018 471.728 407.849 472.111C407.68 472.479 407.596 472.885 407.596 473.33V480H405.204ZM419.599 480.23C418.357 480.23 417.253 479.969 416.287 479.448C415.336 478.911 414.585 478.183 414.033 477.263C413.496 476.343 413.228 475.285 413.228 474.089C413.228 473.138 413.381 472.272 413.688 471.49C413.994 470.708 414.416 470.033 414.953 469.466C415.505 468.883 416.156 468.439 416.908 468.132C417.674 467.81 418.502 467.649 419.392 467.649C420.174 467.649 420.902 467.802 421.577 468.109C422.251 468.4 422.834 468.807 423.325 469.328C423.831 469.849 424.214 470.47 424.475 471.191C424.751 471.896 424.881 472.671 424.866 473.514L424.843 474.526H414.976L414.447 472.64H422.796L422.451 473.031V472.479C422.405 471.973 422.236 471.521 421.945 471.122C421.653 470.723 421.285 470.409 420.841 470.179C420.396 469.949 419.913 469.834 419.392 469.834C418.564 469.834 417.866 469.995 417.299 470.317C416.731 470.624 416.302 471.084 416.011 471.697C415.719 472.295 415.574 473.039 415.574 473.928C415.574 474.771 415.75 475.507 416.103 476.136C416.455 476.749 416.954 477.225 417.598 477.562C418.242 477.899 418.985 478.068 419.829 478.068C420.427 478.068 420.979 477.968 421.485 477.769C422.006 477.57 422.566 477.209 423.164 476.688L424.36 478.367C423.992 478.735 423.539 479.057 423.003 479.333C422.481 479.609 421.922 479.831 421.324 480C420.741 480.153 420.166 480.23 419.599 480.23Z" fill="#0D0D0D"/>
<path d="M318 372L237 372" stroke="#0D0D0D" stroke-width="5"/>
<path d="M238.385 518.292H31.5009C21.7609 518.292 13.8651 526.828 13.8651 537.357L13.8651 751.696C13.8651 762.225 21.7609 770.761 31.5009 770.761H238.385C248.125 770.761 256.021 762.225 256.021 751.696V537.357C256.021 526.828 248.125 518.292 238.385 518.292Z" fill="black"/>
<path d="M232.52 511.954L25.6358 511.954C15.8958 511.954 8 520.49 8 531.019L8 745.359C8 755.888 15.8958 764.423 25.6358 764.423H232.52C242.26 764.423 250.156 755.888 250.156 745.359L250.156 531.019C250.156 520.49 242.26 511.954 232.52 511.954Z" fill="white" stroke="black" stroke-width="2" stroke-miterlimit="10"/>
<path d="M211.591 568.536C211.59 574.586 209.525 580.423 205.792 584.93C202.058 589.436 196.917 592.295 191.355 592.96C185.792 593.624 180.199 592.047 175.645 588.53C171.091 585.013 167.897 579.804 166.675 573.9H88.1883C86.9662 579.804 83.7723 585.014 79.2183 588.53C74.6644 592.047 69.0704 593.624 63.5077 592.96C57.945 592.295 52.8046 589.435 49.0709 584.929C45.3372 580.422 43.2726 574.584 43.2726 568.534C43.2726 562.484 45.3372 556.647 49.0709 552.14C52.8046 547.633 57.945 544.774 63.5077 544.109C69.0704 543.444 74.6644 545.021 79.2183 548.538C83.7723 552.055 86.9662 557.264 88.1883 563.168H166.675C167.898 557.264 171.092 552.055 175.646 548.538C180.2 545.021 185.794 543.444 191.357 544.109C196.92 544.774 202.06 547.634 205.794 552.141C209.527 556.648 211.591 562.486 211.591 568.536Z" stroke="black" stroke-width="2" stroke-miterlimit="10"/>
<path d="M215.427 572.685C215.426 578.735 213.362 584.571 209.628 589.078C205.894 593.584 200.754 596.443 195.191 597.107C189.629 597.771 184.035 596.194 179.481 592.678C174.927 589.161 171.734 583.952 170.512 578.049H92.0244C90.8023 583.953 87.6084 589.161 83.0545 592.678C78.5005 596.194 72.9065 597.771 67.3438 597.107C61.7811 596.442 56.6407 593.583 52.907 589.076C49.1733 584.57 47.1088 578.733 47.1088 572.683C47.1088 566.633 49.1733 560.796 52.907 556.29C56.6407 551.783 61.7811 548.924 67.3438 548.259C72.9065 547.595 78.5005 549.172 83.0545 552.688C87.6084 556.205 90.8023 561.414 92.0244 567.317H170.512C171.734 561.413 174.928 556.204 179.482 552.688C184.036 549.171 189.63 547.594 195.193 548.259C200.756 548.924 205.896 551.784 209.63 556.291C213.363 560.798 215.427 566.635 215.427 572.685V572.685Z" stroke="black" stroke-width="2" stroke-miterlimit="10"/>
<path d="M207.75 564.388C207.749 570.438 205.684 576.274 201.951 580.781C198.217 585.287 193.076 588.146 187.514 588.811C181.951 589.475 176.358 587.898 171.804 584.381C167.25 580.865 164.056 575.656 162.834 569.752H84.3472C83.1251 575.656 79.9312 580.865 75.3773 584.381C70.8233 587.898 65.2293 589.475 59.6666 588.811C54.1039 588.146 48.9635 585.287 45.2298 580.78C41.4961 576.273 39.4316 570.436 39.4316 564.386C39.4316 558.336 41.4961 552.498 45.2298 547.992C48.9635 543.485 54.1039 540.625 59.6666 539.961C65.2293 539.296 70.8233 540.873 75.3773 544.39C79.9312 547.907 83.1251 553.116 84.3472 559.02H162.834C164.056 553.115 167.25 547.906 171.805 544.39C176.359 540.873 181.953 539.296 187.516 539.961C193.079 540.626 198.219 543.486 201.953 547.993C205.686 552.5 207.75 558.338 207.75 564.388Z" fill="white" stroke="black" stroke-width="2" stroke-miterlimit="10"/>
<path d="M62.1608 584.511C72.4425 584.511 80.7774 575.501 80.7774 564.387C80.7774 553.273 72.4425 544.263 62.1608 544.263C51.8792 544.263 43.5443 553.273 43.5443 564.387C43.5443 575.501 51.8792 584.511 62.1608 584.511Z" fill="black"/>
<path d="M185.021 584.511C195.302 584.511 203.637 575.501 203.637 564.387C203.637 553.273 195.302 544.263 185.021 544.263C174.739 544.263 166.404 553.273 166.404 564.387C166.404 575.501 174.739 584.511 185.021 584.511Z" fill="black"/>
<path d="M211.591 634.63C211.59 640.68 209.525 646.517 205.792 651.023C202.058 655.53 196.917 658.389 191.355 659.053C185.792 659.718 180.199 658.14 175.645 654.624C171.091 651.107 167.897 645.898 166.675 639.994H88.1883C86.9662 645.898 83.7723 651.107 79.2183 654.624C74.6644 658.141 69.0704 659.718 63.5077 659.053C57.945 658.389 52.8046 655.529 49.0709 651.022C45.3372 646.515 43.2726 640.678 43.2726 634.628C43.2726 628.578 45.3372 622.74 49.0709 618.233C52.8046 613.727 57.945 610.867 63.5077 610.202C69.0704 609.538 74.6644 611.115 79.2183 614.632C83.7723 618.148 86.9662 623.358 88.1883 629.262H166.675C167.898 623.357 171.092 618.148 175.646 614.631C180.2 611.115 185.794 609.538 191.357 610.203C196.92 610.867 202.06 613.727 205.794 618.235C209.527 622.742 211.591 628.58 211.591 634.63Z" stroke="black" stroke-width="2" stroke-miterlimit="10"/>
<path d="M215.427 638.779C215.426 644.829 213.362 650.666 209.628 655.172C205.894 659.679 200.754 662.538 195.191 663.202C189.628 663.866 184.035 662.289 179.481 658.773C174.927 655.256 171.734 650.047 170.512 644.143H92.0244C90.8023 650.047 87.6084 655.256 83.0545 658.773C78.5005 662.289 72.9065 663.867 67.3438 663.202C61.7811 662.537 56.6407 659.678 52.907 655.171C49.1733 650.664 47.1088 644.827 47.1088 638.777C47.1088 632.727 49.1733 626.89 52.907 622.383C56.6407 617.876 61.7811 615.017 67.3438 614.352C72.9065 613.687 78.5005 615.265 83.0545 618.781C87.6084 622.298 90.8023 627.507 92.0244 633.411H170.512C171.734 627.507 174.928 622.298 179.482 618.781C184.036 615.264 189.63 613.687 195.193 614.352C200.756 615.017 205.896 617.877 209.63 622.384C213.363 626.891 215.427 632.729 215.427 638.779V638.779Z" stroke="black" stroke-width="2" stroke-miterlimit="10"/>
<path d="M207.75 630.482C207.749 636.532 205.684 642.369 201.951 646.875C198.217 651.381 193.076 654.24 187.514 654.905C181.951 655.569 176.358 653.992 171.804 650.475C167.25 646.959 164.056 641.75 162.834 635.846H84.3472C83.1251 641.75 79.9312 646.959 75.3773 650.476C70.8233 653.992 65.2293 655.569 59.6666 654.905C54.1039 654.24 48.9635 651.381 45.2298 646.874C41.4961 642.367 39.4316 636.53 39.4316 630.48C39.4316 624.43 41.4961 618.593 45.2298 614.086C48.9635 609.579 54.1039 606.72 59.6666 606.055C65.2293 605.391 70.8233 606.968 75.3773 610.485C79.9312 614.001 83.1251 619.21 84.3472 625.114H162.834C164.056 619.21 167.25 614.001 171.805 610.484C176.359 606.968 181.953 605.391 187.516 606.056C193.079 606.72 198.219 609.58 201.953 614.087C205.686 618.595 207.75 624.432 207.75 630.482V630.482Z" fill="white" stroke="black" stroke-width="2" stroke-miterlimit="10"/>
<path d="M62.1608 650.604C72.4425 650.604 80.7774 641.594 80.7774 630.48C80.7774 619.365 72.4425 610.355 62.1608 610.355C51.8792 610.355 43.5443 619.365 43.5443 630.48C43.5443 641.594 51.8792 650.604 62.1608 650.604Z" fill="black"/>
<path d="M185.021 650.604C195.302 650.604 203.637 641.594 203.637 630.48C203.637 619.365 195.302 610.355 185.021 610.355C174.739 610.355 166.404 619.365 166.404 630.48C166.404 641.594 174.739 650.604 185.021 650.604Z" fill="black"/>
<path d="M211.591 700.724C211.59 706.774 209.525 712.611 205.792 717.117C202.058 721.624 196.917 724.483 191.355 725.147C185.792 725.812 180.199 724.235 175.645 720.718C171.091 717.201 167.897 711.992 166.675 706.088H88.1883C86.9662 711.992 83.7723 717.201 79.2183 720.718C74.6644 724.235 69.0704 725.812 63.5077 725.147C57.945 724.483 52.8046 721.623 49.0709 717.116C45.3372 712.609 43.2726 706.772 43.2726 700.722C43.2726 694.672 45.3372 688.835 49.0709 684.328C52.8046 679.821 57.945 676.961 63.5077 676.297C69.0704 675.632 74.6644 677.209 79.2183 680.726C83.7723 684.243 86.9662 689.452 88.1883 695.356H166.675C167.898 689.452 171.092 684.242 175.646 680.726C180.2 677.209 185.794 675.632 191.357 676.297C196.92 676.962 202.06 679.822 205.794 684.329C209.527 688.836 211.591 694.674 211.591 700.724V700.724Z" stroke="black" stroke-width="2" stroke-miterlimit="10"/>
<path d="M215.427 704.872C215.426 710.922 213.362 716.759 209.628 721.265C205.894 725.772 200.754 728.631 195.191 729.295C189.629 729.959 184.035 728.382 179.481 724.865C174.927 721.349 171.734 716.14 170.512 710.236H92.0244C90.8023 716.14 87.6084 721.349 83.0545 724.866C78.5005 728.382 72.9065 729.959 67.3438 729.295C61.7811 728.63 56.6407 725.771 52.907 721.264C49.1733 716.757 47.1088 710.92 47.1088 704.87C47.1088 698.82 49.1733 692.983 52.907 688.476C56.6407 683.97 61.7811 681.11 67.3438 680.446C72.9065 679.781 78.5005 681.358 83.0545 684.875C87.6084 688.391 90.8023 693.6 92.0244 699.504H170.512C171.734 693.6 174.928 688.391 179.482 684.874C184.036 681.358 189.63 679.781 195.193 680.446C200.756 681.111 205.896 683.97 209.63 688.478C213.363 692.985 215.427 698.822 215.427 704.872V704.872Z" stroke="black" stroke-width="2" stroke-miterlimit="10"/>
<path d="M207.75 696.576C207.749 702.625 205.684 708.462 201.951 712.969C198.217 717.475 193.076 720.334 187.514 720.998C181.951 721.663 176.358 720.085 171.804 716.569C167.25 713.052 164.056 707.843 162.834 701.94H84.3472C83.1251 707.843 79.9312 713.052 75.3773 716.569C70.8233 720.086 65.2293 721.663 59.6666 720.998C54.1039 720.334 48.9635 717.474 45.2298 712.967C41.4961 708.461 39.4316 702.623 39.4316 696.574C39.4316 690.524 41.4961 684.686 45.2298 680.18C48.9635 675.673 54.1039 672.814 59.6666 672.149C65.2293 671.484 70.8233 673.061 75.3773 676.578C79.9312 680.095 83.1251 685.304 84.3472 691.208H162.834C164.056 685.304 167.25 680.094 171.805 676.578C176.359 673.061 181.953 671.484 187.516 672.149C193.079 672.814 198.219 675.674 201.953 680.181C205.686 684.688 207.75 690.526 207.75 696.576V696.576Z" fill="white" stroke="black" stroke-width="2" stroke-miterlimit="10"/>
<path d="M62.1608 716.698C72.4425 716.698 80.7774 707.688 80.7774 696.573C80.7774 685.459 72.4425 676.448 62.1608 676.448C51.8792 676.448 43.5443 685.459 43.5443 696.573C43.5443 707.688 51.8792 716.698 62.1608 716.698Z" fill="black"/>
<path d="M185.021 716.698C195.302 716.698 203.637 707.688 203.637 696.573C203.637 685.459 195.302 676.448 185.021 676.448C174.739 676.448 166.404 685.459 166.404 696.573C166.404 707.688 174.739 716.698 185.021 716.698Z" fill="black"/>
<path d="M258.001 465.411V493.612C258.001 493.618 257.999 493.624 257.997 493.629C257.995 493.635 257.992 493.639 257.988 493.643C257.985 493.648 257.98 493.651 257.975 493.653C257.97 493.655 257.964 493.656 257.959 493.656H16.3596C16.3541 493.656 16.3487 493.655 16.3437 493.653C16.3386 493.651 16.334 493.648 16.3302 493.643C16.3263 493.639 16.3233 493.635 16.3212 493.629C16.3191 493.624 16.318 493.618 16.318 493.612V465.411C16.3192 470.193 18.1113 474.782 21.3059 478.183C24.5005 481.584 28.8399 483.522 33.3832 483.577C37.9265 483.633 42.3075 481.801 45.5761 478.479C48.8447 475.157 50.7374 470.613 50.8439 465.832C50.8387 461.204 52.4721 456.741 55.4254 453.313C58.3787 449.884 62.4398 447.738 66.8159 447.292C69.1851 447.104 71.5657 447.434 73.8084 448.259C76.0511 449.085 78.1078 450.389 79.8496 452.09C81.5914 453.791 82.9809 455.852 83.931 458.144C84.8811 460.436 85.3715 462.91 85.3713 465.411C85.3713 470.229 87.1899 474.85 90.427 478.258C93.6642 481.665 98.0547 483.579 102.633 483.579C107.211 483.579 111.601 481.665 114.838 478.258C118.075 474.85 119.894 470.229 119.894 465.411C119.894 460.591 121.713 455.969 124.951 452.561C128.189 449.153 132.58 447.238 137.159 447.238C141.738 447.238 146.13 449.153 149.368 452.561C152.605 455.969 154.424 460.591 154.424 465.411C154.425 470.193 156.217 474.782 159.412 478.182C162.607 481.582 166.946 483.52 171.489 483.575C176.032 483.629 180.412 481.796 183.68 478.474C186.947 475.151 188.838 470.606 188.943 465.825C188.938 461.199 190.571 456.737 193.523 453.311C196.476 449.884 200.535 447.738 204.91 447.292C207.28 447.104 209.661 447.433 211.905 448.258C214.149 449.083 216.206 450.386 217.949 452.087C219.692 453.788 221.083 455.849 222.034 458.142C222.986 460.434 223.477 462.909 223.478 465.411C223.478 470.229 225.296 474.85 228.534 478.258C231.771 481.665 236.161 483.579 240.739 483.579C245.317 483.579 249.708 481.665 252.945 478.258C256.182 474.85 258.001 470.229 258.001 465.411H258.001Z" fill="black"/>
<path d="M250.171 457.172V485.372C250.171 485.384 250.167 485.395 250.159 485.403C250.151 485.411 250.141 485.416 250.129 485.416H8.53014C8.52467 485.416 8.51926 485.415 8.51421 485.413C8.50916 485.411 8.50457 485.407 8.50071 485.403C8.49684 485.399 8.49378 485.394 8.49169 485.389C8.4896 485.384 8.48852 485.378 8.48853 485.372V457.172C8.48968 461.954 10.2819 466.543 13.4764 469.943C16.671 473.344 21.0104 475.282 25.5537 475.338C30.097 475.393 34.478 473.561 37.7466 470.24C41.0152 466.918 42.9079 462.374 43.0144 457.593C43.0092 452.966 44.6427 448.502 47.596 445.074C50.5492 441.646 54.6103 439.5 58.9864 439.054C61.3557 438.866 63.7362 439.196 65.9789 440.021C68.2216 440.847 70.2783 442.151 72.0201 443.852C73.7619 445.552 75.1514 447.613 76.1015 449.905C77.0516 452.197 77.5419 454.671 77.5418 457.172C77.5418 461.99 79.3604 466.611 82.5975 470.018C85.8346 473.425 90.2251 475.339 94.8031 475.339C99.3811 475.339 103.772 473.425 107.009 470.018C110.246 466.611 112.065 461.99 112.065 457.172C112.065 452.352 113.884 447.73 117.121 444.322C120.359 440.915 124.751 439 129.33 439C133.909 439 138.3 440.915 141.538 444.322C144.776 447.73 146.595 452.352 146.595 457.172C146.596 461.954 148.388 466.543 151.582 469.943C154.777 473.343 159.116 475.281 163.659 475.336C168.203 475.39 172.583 473.557 175.851 470.234C179.118 466.912 181.009 462.367 181.113 457.586C181.108 452.961 182.741 448.499 185.694 445.072C188.646 441.646 192.706 439.5 197.08 439.054C199.45 438.866 201.832 439.195 204.075 440.02C206.319 440.845 208.377 442.148 210.12 443.849C211.863 445.55 213.254 447.611 214.205 449.903C215.156 452.196 215.648 454.67 215.648 457.172C215.648 461.99 217.467 466.611 220.704 470.018C223.941 473.425 228.332 475.339 232.91 475.339C237.488 475.339 241.878 473.425 245.115 470.018C248.352 466.611 250.171 461.99 250.171 457.172H250.171Z" fill="#01F293" stroke="black" stroke-width="2" stroke-miterlimit="10"/>
<path d="M208 695.502C208 701.78 205.926 707.837 202.177 712.513C198.428 717.189 193.267 720.156 187.682 720.846C182.097 721.535 176.481 719.898 171.909 716.249C167.336 712.6 164.13 707.195 162.903 701.068H84.0976C82.8706 707.195 79.6637 712.6 75.0913 716.25C70.5189 719.899 64.9023 721.535 59.317 720.846C53.7318 720.156 48.5705 717.189 44.8217 712.512C41.0729 707.835 39 701.778 39 695.5C39 689.222 41.0729 683.165 44.8217 678.488C48.5705 673.811 53.7318 670.844 59.317 670.154C64.9023 669.465 70.5189 671.101 75.0913 674.75C79.6637 678.4 82.8706 683.805 84.0976 689.932H162.903C164.13 683.805 167.337 678.399 171.909 674.75C176.482 671.101 182.099 669.465 187.684 670.155C193.269 670.844 198.431 673.812 202.179 678.489C205.928 683.166 208.001 689.224 208 695.502V695.502Z" fill="white" stroke="black" stroke-width="2" stroke-miterlimit="10"/>
<path d="M61.8273 716.522C72.1537 716.522 80.5249 707.144 80.5249 695.576C80.5249 684.008 72.1537 674.63 61.8273 674.63C51.5009 674.63 43.1297 684.008 43.1297 695.576C43.1297 707.144 51.5009 716.522 61.8273 716.522Z" fill="#0D0D0D"/>
<path d="M55.2322 685.655V694.254" stroke="white" stroke-width="4" stroke-miterlimit="10" stroke-linecap="round"/>
<path d="M68.4203 685.655V694.253" stroke="white" stroke-width="4" stroke-miterlimit="10" stroke-linecap="round"/>
<path d="M74.7773 697.558C72.714 705.377 66.6558 708.361 61.8268 708.361C56.9979 708.361 50.9396 705.377 48.8763 697.558" stroke="white" stroke-width="4" stroke-miterlimit="10" stroke-linecap="round"/>
<path d="M185.224 716.524C195.551 716.524 203.922 707.146 203.922 695.577C203.922 684.009 195.551 674.631 185.224 674.631C174.898 674.631 166.526 684.009 166.526 695.577C166.526 707.146 174.898 716.524 185.224 716.524Z" fill="#0D0D0D"/>
<path d="M198.174 697.558C196.111 705.378 190.052 708.362 185.223 708.362C180.394 708.362 174.336 705.378 172.273 697.558" stroke="white" stroke-width="4" stroke-miterlimit="10" stroke-linecap="round"/>
<path d="M178.629 685.655V694.254" stroke="white" stroke-width="4" stroke-miterlimit="10" stroke-linecap="round"/>
<path d="M191.819 685.655V694.254" stroke="white" stroke-width="4" stroke-miterlimit="10" stroke-linecap="round"/>
<rect x="85.2109" y="694.346" width="5.13468" height="2.86618" fill="#0D0D0D"/>
<rect x="157.096" y="694.345" width="5.13468" height="2.86618" fill="#0D0D0D"/>
<rect x="92.9148" y="694.345" width="10.2694" height="2.86618" fill="#0D0D0D"/>
<rect x="105.749" y="694.345" width="10.2694" height="2.86618" fill="#0D0D0D"/>
<rect x="118.588" y="694.345" width="10.2694" height="2.86618" fill="#0D0D0D"/>
<rect x="131.423" y="694.345" width="10.2694" height="2.86618" fill="#0D0D0D"/>
<rect x="144.259" y="694.345" width="10.2694" height="2.86618" fill="#0D0D0D"/>
<path d="M208 628.502C208 634.78 205.926 640.837 202.177 645.513C198.428 650.189 193.267 653.156 187.682 653.846C182.097 654.535 176.481 652.898 171.909 649.249C167.336 645.6 164.13 640.195 162.903 634.068H84.0976C82.8706 640.195 79.6637 645.6 75.0913 649.25C70.5189 652.899 64.9023 654.535 59.317 653.846C53.7318 653.156 48.5705 650.189 44.8217 645.512C41.0729 640.835 39 634.778 39 628.5C39 622.222 41.0729 616.165 44.8217 611.488C48.5705 606.811 53.7318 603.844 59.317 603.154C64.9023 602.465 70.5189 604.101 75.0913 607.75C79.6637 611.4 82.8706 616.805 84.0976 622.932H162.903C164.13 616.805 167.337 611.399 171.909 607.75C176.482 604.101 182.099 602.465 187.684 603.155C193.269 603.844 198.431 606.812 202.179 611.489C205.928 616.166 208.001 622.224 208 628.502V628.502Z" fill="white" stroke="black" stroke-width="2" stroke-miterlimit="10"/>
<path d="M61.8273 649.522C72.1537 649.522 80.5249 640.144 80.5249 628.576C80.5249 617.008 72.1537 607.63 61.8273 607.63C51.5009 607.63 43.1297 617.008 43.1297 628.576C43.1297 640.144 51.5009 649.522 61.8273 649.522Z" fill="#0D0D0D"/>
<path d="M55.2322 618.655V627.254" stroke="white" stroke-width="4" stroke-miterlimit="10" stroke-linecap="round"/>
<path d="M68.4203 618.655V627.253" stroke="white" stroke-width="4" stroke-miterlimit="10" stroke-linecap="round"/>
<path d="M74.7773 630.558C72.714 638.377 66.6558 641.361 61.8268 641.361C56.9979 641.361 50.9396 638.377 48.8763 630.558" stroke="white" stroke-width="4" stroke-miterlimit="10" stroke-linecap="round"/>
<path d="M185.224 649.524C195.551 649.524 203.922 640.146 203.922 628.577C203.922 617.009 195.551 607.631 185.224 607.631C174.898 607.631 166.526 617.009 166.526 628.577C166.526 640.146 174.898 649.524 185.224 649.524Z" fill="#0D0D0D"/>
<path d="M198.174 630.558C196.111 638.378 190.052 641.362 185.223 641.362C180.394 641.362 174.336 638.378 172.273 630.558" stroke="white" stroke-width="4" stroke-miterlimit="10" stroke-linecap="round"/>
<path d="M178.629 618.655V627.254" stroke="white" stroke-width="4" stroke-miterlimit="10" stroke-linecap="round"/>
<path d="M191.819 618.655V627.254" stroke="white" stroke-width="4" stroke-miterlimit="10" stroke-linecap="round"/>
<rect x="85.2109" y="627.346" width="5.13468" height="2.86618" fill="#0D0D0D"/>
<rect x="157.096" y="627.345" width="5.13468" height="2.86618" fill="#0D0D0D"/>
<rect x="92.9148" y="627.345" width="10.2694" height="2.86618" fill="#0D0D0D"/>
<rect x="105.749" y="627.345" width="10.2694" height="2.86618" fill="#0D0D0D"/>
<rect x="118.588" y="627.345" width="10.2694" height="2.86618" fill="#0D0D0D"/>
<rect x="131.423" y="627.345" width="10.2694" height="2.86618" fill="#0D0D0D"/>
<rect x="144.259" y="627.345" width="10.2694" height="2.86618" fill="#0D0D0D"/>
<path d="M250.465 790.539H16.7539V828.988L60.4805 807.125L98.1758 828.988L131.348 807.125L170.551 828.988L205.23 807.125L250.465 828.988V790.539Z" fill="black" stroke="black" stroke-width="3"/>
<path d="M247.449 783H13.7379V821.449L57.4645 799.586L95.1598 821.449L128.332 799.586L167.535 821.449L202.215 799.586L247.449 821.449V783Z" fill="white" stroke="black" stroke-width="3"/>
<path d="M208 563.502C208 569.534 205.926 575.353 202.177 579.846C198.428 584.339 193.267 587.189 187.682 587.852C182.097 588.514 176.481 586.942 171.909 583.436C167.336 579.929 164.13 574.736 162.903 568.85H84.0976C82.8706 574.736 79.6637 579.93 75.0913 583.436C70.5189 586.942 64.9023 588.514 59.317 587.852C53.7318 587.189 48.5705 584.338 44.8217 579.845C41.0729 575.352 39 569.532 39 563.5C39 557.468 41.0729 551.648 44.8217 547.155C48.5705 542.662 53.7318 539.811 59.317 539.148C64.9023 538.486 70.5189 540.058 75.0913 543.564C79.6637 547.07 82.8706 552.264 84.0976 558.15H162.903C164.13 552.264 167.337 547.07 171.909 543.564C176.482 540.058 182.099 538.486 187.684 539.148C193.269 539.811 198.431 542.663 202.179 547.156C205.928 551.65 208.001 557.47 208 563.502V563.502Z" fill="white" stroke="black" stroke-width="2" stroke-miterlimit="10"/>
<path d="M61.8273 583.698C72.1537 583.698 80.5249 574.688 80.5249 563.573C80.5249 552.459 72.1537 543.449 61.8273 543.449C51.5009 543.449 43.1297 552.459 43.1297 563.573C43.1297 574.688 51.5009 583.698 61.8273 583.698Z" fill="#0D0D0D"/>
<path d="M55.2322 554.041V562.303" stroke="white" stroke-width="4" stroke-miterlimit="10" stroke-linecap="round"/>
<path d="M68.4203 554.041V562.302" stroke="white" stroke-width="4" stroke-miterlimit="10" stroke-linecap="round"/>
<path d="M74.7773 565.477C72.714 572.99 66.6558 575.857 61.8268 575.857C56.9979 575.857 50.9396 572.99 48.8763 565.477" stroke="white" stroke-width="4" stroke-miterlimit="10" stroke-linecap="round"/>
<path d="M185.224 583.699C195.55 583.699 203.922 574.689 203.922 563.574C203.922 552.46 195.55 543.45 185.224 543.45C174.898 543.45 166.526 552.46 166.526 563.574C166.526 574.689 174.898 583.699 185.224 583.699Z" fill="#0D0D0D"/>
<path d="M198.174 565.477C196.111 572.99 190.052 575.858 185.223 575.858C180.394 575.858 174.336 572.99 172.273 565.477" stroke="white" stroke-width="4" stroke-miterlimit="10" stroke-linecap="round"/>
<path d="M178.629 554.041V562.303" stroke="white" stroke-width="4" stroke-miterlimit="10" stroke-linecap="round"/>
<path d="M191.819 554.041V562.303" stroke="white" stroke-width="4" stroke-miterlimit="10" stroke-linecap="round"/>
<rect x="85.2109" y="562.391" width="5.13468" height="2.75379" fill="#0D0D0D"/>
<rect x="157.096" y="562.391" width="5.13468" height="2.75379" fill="#0D0D0D"/>
<rect x="92.9148" y="562.391" width="10.2694" height="2.75379" fill="#0D0D0D"/>
<rect x="105.749" y="562.391" width="10.2694" height="2.75379" fill="#0D0D0D"/>
<rect x="118.588" y="562.391" width="10.2694" height="2.75379" fill="#0D0D0D"/>
<rect x="131.423" y="562.391" width="10.2694" height="2.75379" fill="#0D0D0D"/>
<rect x="144.259" y="562.391" width="10.2694" height="2.75379" fill="#0D0D0D"/>
<path d="M114.547 288L114.547 210" stroke="#0D0D0D" stroke-width="5"/>
<path d="M9.02063 59.4897V10.6678L25.3261 19.211C29.8881 21.6013 34.8918 22.843 39.9614 22.843C45.0311 22.843 50.0348 21.6013 54.5968 19.211L70.9023 10.6678L87.2078 19.2111C91.7698 21.6013 96.7735 22.8431 101.843 22.8431C106.913 22.8431 111.916 21.6013 116.478 19.2111L132.784 10.6678L149.089 19.211C153.651 21.6013 158.655 22.843 163.725 22.843C168.794 22.843 173.798 21.6013 178.36 19.211L194.666 10.6678L210.971 19.211C215.533 21.6013 220.537 22.843 225.606 22.843C230.676 22.843 235.68 21.6013 240.242 19.211L256.547 10.6678V59.4897H9.02063Z" fill="black"/>
<path d="M1.00171 50.8234V2L17.3072 10.5435C21.8692 12.9338 26.8729 14.1756 31.9425 14.1756C37.0122 14.1756 42.0159 12.9338 46.5779 10.5435L62.8834 2L79.1889 10.5435C83.7509 12.9338 88.7546 14.1756 93.8243 14.1756C98.8939 14.1756 103.898 12.9338 108.46 10.5435L124.765 2L141.071 10.5435C145.633 12.9338 150.636 14.1756 155.706 14.1756C160.776 14.1756 165.779 12.9338 170.341 10.5435L186.647 2L202.952 10.5435C207.514 12.9338 212.518 14.1756 217.588 14.1756C222.657 14.1756 227.661 12.9338 232.223 10.5435L248.529 2V50.8234H1.00171Z" fill="white" stroke="black" stroke-width="2" stroke-miterlimit="10"/>
<path d="M236.495 82.2251H25.0221C15.0661 82.2251 6.99518 90.9499 6.99518 101.712V320.805C6.99518 331.568 15.0661 340.293 25.0221 340.293H236.495C246.451 340.293 254.522 331.568 254.522 320.805V101.712C254.522 90.9499 246.451 82.2251 236.495 82.2251Z" fill="black"/>
<path d="M230.5 75.7454H19.027C9.07095 75.7454 1 84.4702 1 95.2328V314.326C1 325.089 9.07095 333.814 19.027 333.814H230.5C240.456 333.814 248.527 325.089 248.527 314.326V95.2328C248.527 84.4702 240.456 75.7454 230.5 75.7454Z" fill="white" stroke="black" stroke-width="2" stroke-miterlimit="10"/>
<path d="M209.107 133.584C209.106 139.768 206.996 145.734 203.179 150.341C199.362 154.948 194.108 157.87 188.422 158.549C182.736 159.228 177.018 157.616 172.364 154.021C167.709 150.426 164.444 145.102 163.195 139.067H82.9674C81.7182 145.102 78.4535 150.427 73.7985 154.022C69.1435 157.616 63.4255 159.228 57.7394 158.549C52.0534 157.87 46.7989 154.947 42.9824 150.34C39.1659 145.733 37.0556 139.766 37.0556 133.582C37.0556 127.397 39.1659 121.43 42.9824 116.823C46.7989 112.217 52.0534 109.294 57.7394 108.614C63.4255 107.935 69.1435 109.547 73.7985 113.142C78.4535 116.737 81.7182 122.061 82.9674 128.096H163.195C164.444 122.061 167.709 116.736 172.364 113.141C177.02 109.547 182.738 107.935 188.424 108.614C194.11 109.294 199.365 112.217 203.181 116.825C206.997 121.432 209.107 127.399 209.107 133.584Z" stroke="black" stroke-width="2" stroke-miterlimit="10"/>
<path d="M213.027 137.823C213.027 144.007 210.916 149.974 207.1 154.58C203.283 159.187 198.029 162.11 192.343 162.789C186.657 163.468 180.939 161.856 176.284 158.261C171.63 154.666 168.365 149.341 167.116 143.306H86.8881C85.6388 149.341 82.3741 154.666 77.7192 158.261C73.0642 161.856 67.3461 163.468 61.6601 162.789C55.974 162.109 50.7196 159.186 46.9031 154.579C43.0866 149.972 40.9763 144.005 40.9763 137.821C40.9763 131.637 43.0866 125.67 46.9031 121.063C50.7196 116.456 55.974 113.533 61.6601 112.854C67.3461 112.174 73.0642 113.786 77.7192 117.381C82.3741 120.976 85.6388 126.301 86.8881 132.336H167.116C168.365 126.301 171.63 120.976 176.285 117.381C180.94 113.786 186.659 112.174 192.345 112.854C198.031 113.533 203.285 116.457 207.102 121.064C210.918 125.671 213.028 131.639 213.027 137.823V137.823Z" stroke="black" stroke-width="2" stroke-miterlimit="10"/>
<path d="M205.181 129.342C205.181 135.526 203.07 141.493 199.253 146.099C195.437 150.706 190.182 153.628 184.496 154.307C178.81 154.986 173.093 153.374 168.438 149.779C163.783 146.185 160.519 140.86 159.27 134.825H79.0416C77.7924 140.86 74.5277 146.185 69.8727 149.78C65.2178 153.374 59.4997 154.986 53.8136 154.307C48.1276 153.628 42.8731 150.705 39.0566 146.098C35.2401 141.491 33.1298 135.524 33.1298 129.34C33.1298 123.156 35.2401 117.189 39.0566 112.582C42.8731 107.975 48.1276 105.052 53.8136 104.373C59.4997 103.694 65.2178 105.306 69.8727 108.901C74.5277 112.495 77.7924 117.82 79.0416 123.855H159.27C160.519 117.82 163.784 112.495 168.439 108.9C173.094 105.305 178.812 103.694 184.498 104.373C190.184 105.053 195.439 107.976 199.255 112.583C203.072 117.191 205.181 123.158 205.181 129.342Z" fill="white" stroke="black" stroke-width="2" stroke-miterlimit="10"/>
<path d="M56.3631 149.911C66.8728 149.911 75.3925 140.701 75.3925 129.34C75.3925 117.979 66.8728 108.768 56.3631 108.768C45.8534 108.768 37.3336 117.979 37.3336 129.34C37.3336 140.701 45.8534 149.911 56.3631 149.911Z" fill="black"/>
<path d="M181.949 149.911C192.458 149.911 200.978 140.701 200.978 129.34C200.978 117.979 192.458 108.768 181.949 108.768C171.439 108.768 162.919 117.979 162.919 129.34C162.919 140.701 171.439 149.911 181.949 149.911Z" fill="black"/>
<path d="M209.107 201.142C209.106 207.326 206.996 213.293 203.179 217.899C199.362 222.506 194.108 225.428 188.422 226.107C182.736 226.786 177.018 225.174 172.364 221.579C167.709 217.985 164.444 212.66 163.195 206.625H82.9674C81.7182 212.66 78.4535 217.985 73.7985 221.58C69.1435 225.174 63.4255 226.786 57.7394 226.107C52.0534 225.428 46.7989 222.505 42.9824 217.898C39.1659 213.291 37.0556 207.324 37.0556 201.14C37.0556 194.956 39.1659 188.989 42.9824 184.383C46.7989 179.776 52.0534 176.853 57.7394 176.174C63.4255 175.494 69.1435 177.106 73.7985 180.701C78.4535 184.296 81.7182 189.62 82.9674 195.655H163.195C164.444 189.62 167.709 184.295 172.364 180.701C177.02 177.106 182.738 175.494 188.424 176.174C194.11 176.853 199.365 179.777 203.181 184.384C206.997 188.991 209.107 194.958 209.107 201.142Z" stroke="black" stroke-width="2" stroke-miterlimit="10"/>
<path d="M213.027 205.383C213.027 211.567 210.916 217.534 207.1 222.14C203.283 226.746 198.029 229.669 192.343 230.348C186.657 231.027 180.939 229.415 176.284 225.82C171.63 222.225 168.365 216.901 167.116 210.866H86.8881C85.6388 216.901 82.3741 222.226 77.7192 225.82C73.0642 229.415 67.3461 231.027 61.6601 230.348C55.974 229.668 50.7196 226.745 46.9031 222.139C43.0866 217.532 40.9763 211.565 40.9763 205.381C40.9763 199.197 43.0866 193.23 46.9031 188.623C50.7196 184.017 55.974 181.094 61.6601 180.414C67.3461 179.735 73.0642 181.347 77.7192 184.942C82.3741 188.536 85.6388 193.861 86.8881 199.896H167.116C168.365 193.861 171.63 188.536 176.285 184.941C180.94 181.347 186.659 179.735 192.345 180.415C198.031 181.094 203.285 184.017 207.102 188.625C210.918 193.232 213.028 199.199 213.027 205.383V205.383Z" stroke="black" stroke-width="2" stroke-miterlimit="10"/>
<path d="M205.181 196.902C205.181 203.086 203.07 209.052 199.253 213.658C195.437 218.265 190.182 221.187 184.496 221.866C178.81 222.545 173.093 220.933 168.438 217.338C163.783 213.744 160.519 208.419 159.27 202.385H79.0416C77.7924 208.419 74.5277 213.744 69.8727 217.339C65.2178 220.933 59.4997 222.545 53.8136 221.866C48.1276 221.187 42.8731 218.264 39.0566 213.657C35.2401 209.05 33.1298 203.084 33.1298 196.9C33.1298 190.716 35.2401 184.749 39.0566 180.142C42.8731 175.535 48.1276 172.613 53.8136 171.933C59.4997 171.254 65.2178 172.866 69.8727 176.461C74.5277 180.055 77.7924 185.38 79.0416 191.415H159.27C160.519 185.38 163.784 180.055 168.439 176.46C173.094 172.866 178.812 171.254 184.498 171.933C190.184 172.613 195.439 175.536 199.255 180.143C203.072 184.75 205.181 190.718 205.181 196.902V196.902Z" fill="white" stroke="black" stroke-width="2" stroke-miterlimit="10"/>
<path d="M56.3631 217.471C66.8728 217.471 75.3925 208.261 75.3925 196.9C75.3925 185.539 66.8728 176.329 56.3631 176.329C45.8534 176.329 37.3336 185.539 37.3336 196.9C37.3336 208.261 45.8534 217.471 56.3631 217.471Z" fill="black"/>
<path d="M181.949 217.471C192.458 217.471 200.978 208.261 200.978 196.9C200.978 185.539 192.458 176.329 181.949 176.329C171.439 176.329 162.919 185.539 162.919 196.9C162.919 208.261 171.439 217.471 181.949 217.471Z" fill="black"/>
<path d="M209.107 268.702C209.106 274.886 206.996 280.853 203.179 285.459C199.362 290.065 194.108 292.988 188.422 293.667C182.736 294.346 177.018 292.734 172.364 289.139C167.709 285.544 164.444 280.22 163.195 274.185H82.9674C81.7182 280.22 78.4535 285.545 73.7985 289.139C69.1435 292.734 63.4255 294.346 57.7394 293.667C52.0534 292.987 46.7989 290.065 42.9824 285.458C39.1659 280.851 37.0556 274.884 37.0556 268.7C37.0556 262.516 39.1659 256.549 42.9824 251.942C46.7989 247.336 52.0534 244.413 57.7394 243.733C63.4255 243.054 69.1435 244.666 73.7985 248.261C78.4535 251.856 81.7182 257.18 82.9674 263.215H163.195C164.444 257.18 167.709 251.855 172.364 248.261C177.02 244.666 182.738 243.054 188.424 243.734C194.11 244.413 199.365 247.337 203.181 251.944C206.997 256.551 209.107 262.518 209.107 268.702V268.702Z" stroke="black" stroke-width="2" stroke-miterlimit="10"/>
<path d="M213.027 272.942C213.027 279.126 210.916 285.093 207.1 289.699C203.283 294.306 198.029 297.228 192.343 297.907C186.657 298.586 180.939 296.974 176.284 293.379C171.63 289.785 168.365 284.46 167.116 278.425H86.8881C85.6388 284.46 82.3741 289.785 77.7192 293.38C73.0642 296.974 67.3461 298.586 61.6601 297.907C55.974 297.228 50.7196 294.305 46.9031 289.698C43.0866 285.091 40.9763 279.124 40.9763 272.94C40.9763 266.756 43.0866 260.789 46.9031 256.182C50.7196 251.575 55.974 248.652 61.6601 247.973C67.3461 247.294 73.0642 248.906 77.7192 252.5C82.3741 256.095 85.6388 261.42 86.8881 267.455H167.116C168.365 261.42 171.63 256.095 176.285 252.5C180.94 248.905 186.659 247.293 192.345 247.973C198.031 248.653 203.285 251.576 207.102 256.183C210.918 260.79 213.028 266.758 213.027 272.942V272.942Z" stroke="black" stroke-width="2" stroke-miterlimit="10"/>
<path d="M205.181 264.461C205.181 270.645 203.07 276.612 199.253 281.218C195.437 285.824 190.182 288.747 184.496 289.426C178.81 290.105 173.093 288.493 168.438 284.898C163.783 281.303 160.519 275.979 159.27 269.944H79.0416C77.7924 275.979 74.5277 281.304 69.8727 284.899C65.2178 288.493 59.4997 290.105 53.8136 289.426C48.1276 288.747 42.8731 285.824 39.0566 281.217C35.2401 276.61 33.1298 270.643 33.1298 264.459C33.1298 258.275 35.2401 252.308 39.0566 247.701C42.8731 243.094 48.1276 240.171 53.8136 239.492C59.4997 238.813 65.2178 240.425 69.8727 244.019C74.5277 247.614 77.7924 252.939 79.0416 258.974H159.27C160.519 252.939 163.784 247.614 168.439 244.019C173.094 240.424 178.812 238.812 184.498 239.492C190.184 240.172 195.439 243.095 199.255 247.702C203.072 252.309 205.181 258.277 205.181 264.461V264.461Z" fill="white" stroke="black" stroke-width="2" stroke-miterlimit="10"/>
<path d="M56.3631 285.031C66.8728 285.031 75.3925 275.821 75.3925 264.459C75.3925 253.098 66.8728 243.888 56.3631 243.888C45.8534 243.888 37.3336 253.098 37.3336 264.459C37.3336 275.821 45.8534 285.031 56.3631 285.031Z" fill="black"/>
<path d="M181.949 285.031C192.458 285.031 200.978 275.821 200.978 264.459C200.978 253.098 192.458 243.888 181.949 243.888C171.439 243.888 162.919 253.098 162.919 264.459C162.919 275.821 171.439 285.031 181.949 285.031Z" fill="black"/>
<path d="M202 263.502C202 269.534 199.926 275.353 196.177 279.846C192.428 284.339 187.267 287.189 181.682 287.852C176.097 288.514 170.481 286.942 165.909 283.436C161.336 279.929 158.13 274.736 156.903 268.85H78.0976C76.8706 274.736 73.6637 279.93 69.0913 283.436C64.5189 286.942 58.9023 288.514 53.317 287.852C47.7318 287.189 42.5705 284.338 38.8217 279.845C35.0729 275.352 33 269.532 33 263.5C33 257.468 35.0729 251.648 38.8217 247.155C42.5705 242.662 47.7318 239.811 53.317 239.148C58.9023 238.486 64.5189 240.058 69.0913 243.564C73.6637 247.07 76.8706 252.264 78.0976 258.15H156.903C158.13 252.264 161.337 247.07 165.909 243.564C170.482 240.058 176.099 238.486 181.684 239.148C187.269 239.811 192.431 242.663 196.179 247.156C199.928 251.65 202.001 257.47 202 263.502V263.502Z" fill="white" stroke="black" stroke-width="2" stroke-miterlimit="10"/>
<path d="M55.8273 283.698C66.1537 283.698 74.5249 274.688 74.5249 263.573C74.5249 252.459 66.1537 243.449 55.8273 243.449C45.5009 243.449 37.1297 252.459 37.1297 263.573C37.1297 274.688 45.5009 283.698 55.8273 283.698Z" fill="#0D0D0D"/>
<path d="M49.2322 254.041V262.303" stroke="white" stroke-width="4" stroke-miterlimit="10" stroke-linecap="round"/>
<path d="M62.4203 254.041V262.302" stroke="white" stroke-width="4" stroke-miterlimit="10" stroke-linecap="round"/>
<path d="M68.7773 265.477C66.714 272.99 60.6558 275.857 55.8268 275.857C50.9979 275.857 44.9396 272.99 42.8763 265.477" stroke="white" stroke-width="4" stroke-miterlimit="10" stroke-linecap="round"/>
<path d="M179.224 283.699C189.55 283.699 197.922 274.689 197.922 263.574C197.922 252.46 189.55 243.45 179.224 243.45C168.898 243.45 160.526 252.46 160.526 263.574C160.526 274.689 168.898 283.699 179.224 283.699Z" fill="#0D0D0D"/>
<path d="M192.174 265.477C190.111 272.99 184.052 275.858 179.223 275.858C174.394 275.858 168.336 272.99 166.273 265.477" stroke="white" stroke-width="4" stroke-miterlimit="10" stroke-linecap="round"/>
<path d="M172.629 254.041V262.303" stroke="white" stroke-width="4" stroke-miterlimit="10" stroke-linecap="round"/>
<path d="M185.819 254.041V262.303" stroke="white" stroke-width="4" stroke-miterlimit="10" stroke-linecap="round"/>
<rect x="79.2109" y="262.391" width="5.13468" height="2.75379" fill="#0D0D0D"/>
<rect x="151.096" y="262.391" width="5.13468" height="2.75379" fill="#0D0D0D"/>
<rect x="86.9148" y="262.391" width="10.2694" height="2.75379" fill="#0D0D0D"/>
<rect x="99.7485" y="262.391" width="10.2694" height="2.75379" fill="#0D0D0D"/>
<rect x="112.588" y="262.391" width="10.2694" height="2.75379" fill="#0D0D0D"/>
<rect x="125.423" y="262.391" width="10.2694" height="2.75379" fill="#0D0D0D"/>
<rect x="138.259" y="262.391" width="10.2694" height="2.75379" fill="#0D0D0D"/>
<path d="M202 196.502C202 202.534 199.926 208.353 196.177 212.846C192.428 217.339 187.267 220.189 181.682 220.852C176.097 221.514 170.481 219.942 165.909 216.436C161.336 212.929 158.13 207.736 156.903 201.85H78.0976C76.8706 207.736 73.6637 212.93 69.0913 216.436C64.5189 219.942 58.9023 221.514 53.317 220.852C47.7318 220.189 42.5705 217.338 38.8217 212.845C35.0729 208.352 33 202.532 33 196.5C33 190.468 35.0729 184.648 38.8217 180.155C42.5705 175.662 47.7318 172.811 53.317 172.148C58.9023 171.486 64.5189 173.058 69.0913 176.564C73.6637 180.07 76.8706 185.264 78.0976 191.15H156.903C158.13 185.264 161.337 180.07 165.909 176.564C170.482 173.058 176.099 171.486 181.684 172.148C187.269 172.811 192.431 175.663 196.179 180.156C199.928 184.65 202.001 190.47 202 196.502V196.502Z" fill="white" stroke="black" stroke-width="2" stroke-miterlimit="10"/>
<path d="M55.8273 216.698C66.1537 216.698 74.5249 207.688 74.5249 196.573C74.5249 185.459 66.1537 176.449 55.8273 176.449C45.5009 176.449 37.1297 185.459 37.1297 196.573C37.1297 207.688 45.5009 216.698 55.8273 216.698Z" fill="#0D0D0D"/>
<path d="M49.2322 187.041V195.303" stroke="white" stroke-width="4" stroke-miterlimit="10" stroke-linecap="round"/>
<path d="M62.4203 187.041V195.302" stroke="white" stroke-width="4" stroke-miterlimit="10" stroke-linecap="round"/>
<path d="M68.7773 198.477C66.714 205.99 60.6558 208.857 55.8268 208.857C50.9979 208.857 44.9396 205.99 42.8763 198.477" stroke="white" stroke-width="4" stroke-miterlimit="10" stroke-linecap="round"/>
<path d="M179.224 216.699C189.55 216.699 197.922 207.689 197.922 196.574C197.922 185.46 189.55 176.45 179.224 176.45C168.898 176.45 160.526 185.46 160.526 196.574C160.526 207.689 168.898 216.699 179.224 216.699Z" fill="#0D0D0D"/>
<path d="M192.174 198.477C190.111 205.99 184.052 208.858 179.223 208.858C174.394 208.858 168.336 205.99 166.273 198.477" stroke="white" stroke-width="4" stroke-miterlimit="10" stroke-linecap="round"/>
<path d="M172.629 187.041V195.303" stroke="white" stroke-width="4" stroke-miterlimit="10" stroke-linecap="round"/>
<path d="M185.819 187.041V195.303" stroke="white" stroke-width="4" stroke-miterlimit="10" stroke-linecap="round"/>
<rect x="79.2109" y="195.391" width="5.13468" height="2.75379" fill="#0D0D0D"/>
<rect x="151.096" y="195.391" width="5.13468" height="2.75379" fill="#0D0D0D"/>
<rect x="86.9148" y="195.391" width="10.2694" height="2.75379" fill="#0D0D0D"/>
<rect x="99.7485" y="195.391" width="10.2694" height="2.75379" fill="#0D0D0D"/>
<rect x="112.588" y="195.391" width="10.2694" height="2.75379" fill="#0D0D0D"/>
<rect x="125.423" y="195.391" width="10.2694" height="2.75379" fill="#0D0D0D"/>
<rect x="138.259" y="195.391" width="10.2694" height="2.75379" fill="#0D0D0D"/>
<path d="M202 128.502C202 134.534 199.926 140.353 196.177 144.846C192.428 149.339 187.267 152.189 181.682 152.852C176.097 153.514 170.481 151.942 165.909 148.436C161.336 144.929 158.13 139.736 156.903 133.85H78.0976C76.8706 139.736 73.6637 144.93 69.0913 148.436C64.5189 151.942 58.9023 153.514 53.317 152.852C47.7318 152.189 42.5705 149.338 38.8217 144.845C35.0729 140.352 33 134.532 33 128.5C33 122.468 35.0729 116.648 38.8217 112.155C42.5705 107.662 47.7318 104.811 53.317 104.148C58.9023 103.486 64.5189 105.058 69.0913 108.564C73.6637 112.07 76.8706 117.264 78.0976 123.15H156.903C158.13 117.264 161.337 112.07 165.909 108.564C170.482 105.058 176.099 103.486 181.684 104.148C187.269 104.811 192.431 107.663 196.179 112.156C199.928 116.65 202.001 122.47 202 128.502V128.502Z" fill="white" stroke="black" stroke-width="2" stroke-miterlimit="10"/>
<path d="M55.8273 148.698C66.1537 148.698 74.5249 139.688 74.5249 128.573C74.5249 117.459 66.1537 108.449 55.8273 108.449C45.5009 108.449 37.1297 117.459 37.1297 128.573C37.1297 139.688 45.5009 148.698 55.8273 148.698Z" fill="#0D0D0D"/>
<path d="M49.2322 119.041V127.303" stroke="white" stroke-width="4" stroke-miterlimit="10" stroke-linecap="round"/>
<path d="M62.4203 119.041V127.302" stroke="white" stroke-width="4" stroke-miterlimit="10" stroke-linecap="round"/>
<path d="M68.7773 130.477C66.714 137.99 60.6558 140.857 55.8268 140.857C50.9979 140.857 44.9396 137.99 42.8763 130.477" stroke="white" stroke-width="4" stroke-miterlimit="10" stroke-linecap="round"/>
<path d="M179.224 148.699C189.55 148.699 197.922 139.689 197.922 128.574C197.922 117.46 189.55 108.45 179.224 108.45C168.898 108.45 160.526 117.46 160.526 128.574C160.526 139.689 168.898 148.699 179.224 148.699Z" fill="#A500FF"/>
<path d="M192 133L179 141L166 133" stroke="white" stroke-width="4" stroke-miterlimit="10" stroke-linecap="round"/>
<path d="M190.819 122.303L185.819 127.303" stroke="white" stroke-width="4" stroke-miterlimit="10" stroke-linecap="round"/>
<path d="M167 122.303L172 127.303" stroke="white" stroke-width="4" stroke-miterlimit="10" stroke-linecap="round"/>
<rect x="79.2109" y="127.391" width="5.13468" height="2.75379" fill="#0D0D0D"/>
<rect x="151.096" y="127.391" width="5.13468" height="2.75379" fill="#0D0D0D"/>
<rect x="86.9148" y="127.391" width="10.2694" height="2.75379" fill="#0D0D0D"/>
<rect x="99.7485" y="127.391" width="10.2694" height="2.75379" fill="#0D0D0D"/>
<rect x="112.588" y="127.391" width="10.2694" height="2.75379" fill="#0D0D0D"/>
<rect x="125.423" y="127.391" width="10.2694" height="2.75379" fill="#0D0D0D"/>
<rect x="138.259" y="127.391" width="10.2694" height="2.75379" fill="#0D0D0D"/>
<path d="M318 133L229 133" stroke="#0D0D0D" stroke-width="5"/>
<mask id="path-142-inside-1_1502_88194" fill="white">
<path fill-rule="evenodd" clip-rule="evenodd" d="M4.09753 360.92H41.2683H72.2439H109.415H145.037H182.207H217.829H255V377.32V397H217.829V377.32H182.207V397H145.037V377.32H109.415V397H72.2439V377.32H41.2683V397H4.09753V377.32V360.92Z"/>
</mask>
<path fill-rule="evenodd" clip-rule="evenodd" d="M4.09753 360.92H41.2683H72.2439H109.415H145.037H182.207H217.829H255V377.32V397H217.829V377.32H182.207V397H145.037V377.32H109.415V397H72.2439V377.32H41.2683V397H4.09753V377.32V360.92Z" fill="#0D0D0D"/>
<path d="M4.09753 360.92V358.92H2.09753V360.92H4.09753ZM255 360.92H257V358.92H255V360.92ZM255 397V399H257V397H255ZM217.829 397H215.829V399H217.829V397ZM217.829 377.32H219.829V375.32H217.829V377.32ZM182.207 377.32V375.32H180.207V377.32H182.207ZM182.207 397V399H184.207V397H182.207ZM145.037 397H143.037V399H145.037V397ZM145.037 377.32H147.037V375.32H145.037V377.32ZM109.415 377.32V375.32H107.415V377.32H109.415ZM109.415 397V399H111.415V397H109.415ZM72.2439 397H70.2439V399H72.2439V397ZM72.2439 377.32H74.2439V375.32H72.2439V377.32ZM41.2683 377.32V375.32H39.2683V377.32H41.2683ZM41.2683 397V399H43.2683V397H41.2683ZM4.09753 397H2.09753V399H4.09753V397ZM41.2683 358.92H4.09753V362.92H41.2683V358.92ZM72.2439 358.92H41.2683V362.92H72.2439V358.92ZM109.415 358.92H72.2439V362.92H109.415V358.92ZM145.037 358.92H109.415V362.92H145.037V358.92ZM182.207 358.92H145.037V362.92H182.207V358.92ZM217.829 358.92H182.207V362.92H217.829V358.92ZM217.829 362.92H255V358.92H217.829V362.92ZM253 360.92V377.32H257V360.92H253ZM253 377.32V397H257V377.32H253ZM255 395H217.829V399H255V395ZM219.829 397V377.32H215.829V397H219.829ZM182.207 379.32H217.829V375.32H182.207V379.32ZM184.207 397V377.32H180.207V397H184.207ZM145.037 399H182.207V395H145.037V399ZM143.037 377.32V397H147.037V377.32H143.037ZM109.415 379.32H145.037V375.32H109.415V379.32ZM111.415 397V377.32H107.415V397H111.415ZM72.2439 399H109.415V395H72.2439V399ZM70.2439 377.32V397H74.2439V377.32H70.2439ZM41.2683 379.32H72.2439V375.32H41.2683V379.32ZM43.2683 397V377.32H39.2683V397H43.2683ZM4.09753 399H41.2683V395H4.09753V399ZM2.09753 377.32V397H6.09753V377.32H2.09753ZM2.09753 360.92V377.32H6.09753V360.92H2.09753Z" fill="black" mask="url(#path-142-inside-1_1502_88194)"/>
<mask id="path-144-inside-2_1502_88194" fill="white">
<path fill-rule="evenodd" clip-rule="evenodd" d="M1 356H38.1707H69.1464H106.317H141.939H179.11H214.732H251.902V372.4L251.902 392.08H214.732V372.4H179.11V392.08H141.939V372.4H106.317V392.08H69.1464V372.4H38.1707V392.08H1V372.4V356Z"/>
</mask>
<path fill-rule="evenodd" clip-rule="evenodd" d="M1 356H38.1707H69.1464H106.317H141.939H179.11H214.732H251.902V372.4L251.902 392.08H214.732V372.4H179.11V392.08H141.939V372.4H106.317V392.08H69.1464V372.4H38.1707V392.08H1V372.4V356Z" fill="#A500FF"/>
<path d="M1 356V354H-1V356H1ZM251.902 356H253.902V354H251.902V356ZM251.902 372.4L253.902 372.4V372.4H251.902ZM251.902 392.08V394.08H253.902L253.902 392.08L251.902 392.08ZM214.732 392.08H212.732V394.08H214.732V392.08ZM214.732 372.4H216.732V370.4H214.732V372.4ZM179.11 372.4V370.4H177.11V372.4H179.11ZM179.11 392.08V394.08H181.11V392.08H179.11ZM141.939 392.08H139.939V394.08H141.939V392.08ZM141.939 372.4H143.939V370.4H141.939V372.4ZM106.317 372.4V370.4H104.317V372.4H106.317ZM106.317 392.08V394.08H108.317V392.08H106.317ZM69.1464 392.08H67.1464V394.08H69.1464V392.08ZM69.1464 372.4H71.1464V370.4H69.1464V372.4ZM38.1707 372.4V370.4H36.1707V372.4H38.1707ZM38.1707 392.08V394.08H40.1707V392.08H38.1707ZM1 392.08H-1V394.08H1V392.08ZM38.1707 354H1V358H38.1707V354ZM69.1464 354H38.1707V358H69.1464V354ZM106.317 354H69.1464V358H106.317V354ZM141.939 354H106.317V358H141.939V354ZM179.11 354H141.939V358H179.11V354ZM214.732 354H179.11V358H214.732V354ZM214.732 358H251.902V354H214.732V358ZM249.902 356V372.4H253.902V356H249.902ZM249.902 372.4L249.902 392.08L253.902 392.08L253.902 372.4L249.902 372.4ZM251.902 390.08H214.732V394.08H251.902V390.08ZM216.732 392.08V372.4H212.732V392.08H216.732ZM179.11 374.4H214.732V370.4H179.11V374.4ZM181.11 392.08V372.4H177.11V392.08H181.11ZM141.939 394.08H179.11V390.08H141.939V394.08ZM139.939 372.4V392.08H143.939V372.4H139.939ZM106.317 374.4H141.939V370.4H106.317V374.4ZM108.317 392.08V372.4H104.317V392.08H108.317ZM69.1464 394.08H106.317V390.08H69.1464V394.08ZM67.1464 372.4V392.08H71.1464V372.4H67.1464ZM38.1707 374.4H69.1464V370.4H38.1707V374.4ZM40.1707 392.08V372.4H36.1707V392.08H40.1707ZM1 394.08H38.1707V390.08H1V394.08ZM-1 372.4V392.08H3V372.4H-1ZM-1 356V372.4H3V356H-1Z" fill="black" mask="url(#path-144-inside-2_1502_88194)"/>
</svg>
