<svg width="500" height="862" viewBox="0 0 500 862" fill="none" xmlns="http://www.w3.org/2000/svg">
<path d="M410.88 103V91.8H412.608V103H410.88ZM403.568 103V91.8H405.296V103H403.568ZM404.32 98.248V96.584H411.648V98.248H404.32ZM420.3 103V97.528C420.3 97.0587 420.129 96.68 419.788 96.392C419.457 96.0933 419.036 95.944 418.524 95.944C418.055 95.944 417.628 96.04 417.244 96.232C416.871 96.424 416.529 96.7173 416.22 97.112L415.148 96.04C415.649 95.496 416.188 95.0907 416.764 94.824C417.351 94.5573 417.98 94.424 418.652 94.424C419.292 94.424 419.847 94.5307 420.316 94.744C420.785 94.9573 421.148 95.272 421.404 95.688C421.66 96.0933 421.788 96.5893 421.788 97.176V103H420.3ZM417.788 103.16C417.244 103.16 416.759 103.053 416.332 102.84C415.905 102.627 415.564 102.333 415.308 101.96C415.063 101.576 414.94 101.128 414.94 100.616C414.94 100.168 415.02 99.7733 415.18 99.432C415.34 99.0907 415.575 98.808 415.884 98.584C416.204 98.36 416.599 98.1893 417.068 98.072C417.548 97.9547 418.097 97.896 418.716 97.896H421.052L420.908 99.208H418.508C418.188 99.208 417.9 99.24 417.644 99.304C417.399 99.3573 417.185 99.448 417.004 99.576C416.833 99.6933 416.705 99.8373 416.62 100.008C416.535 100.168 416.492 100.36 416.492 100.584C416.492 100.819 416.551 101.027 416.668 101.208C416.785 101.379 416.945 101.512 417.148 101.608C417.351 101.704 417.585 101.752 417.852 101.752C418.236 101.752 418.599 101.688 418.94 101.56C419.292 101.421 419.601 101.235 419.868 101C420.145 100.765 420.359 100.504 420.508 100.216L420.892 101.288C420.668 101.661 420.391 101.987 420.06 102.264C419.729 102.541 419.372 102.76 418.988 102.92C418.604 103.08 418.204 103.16 417.788 103.16ZM426.671 103.16C425.967 103.16 425.332 103.037 424.767 102.792C424.201 102.547 423.732 102.184 423.359 101.704L424.479 100.744C424.799 101.117 425.145 101.389 425.519 101.56C425.903 101.72 426.335 101.8 426.815 101.8C427.007 101.8 427.183 101.779 427.343 101.736C427.513 101.683 427.657 101.608 427.775 101.512C427.903 101.416 427.999 101.304 428.063 101.176C428.127 101.037 428.159 100.888 428.159 100.728C428.159 100.451 428.057 100.227 427.855 100.056C427.748 99.9813 427.577 99.9013 427.343 99.816C427.119 99.72 426.825 99.624 426.463 99.528C425.844 99.368 425.337 99.1867 424.943 98.984C424.548 98.7813 424.244 98.552 424.031 98.296C423.871 98.0933 423.753 97.8747 423.679 97.64C423.604 97.3947 423.567 97.128 423.567 96.84C423.567 96.3707 423.7 95.9547 423.967 95.592C424.233 95.2293 424.591 94.9467 425.039 94.744C425.497 94.5307 426.009 94.424 426.575 94.424C426.969 94.424 427.359 94.4773 427.743 94.584C428.137 94.6907 428.5 94.8453 428.831 95.048C429.161 95.2507 429.439 95.4907 429.663 95.768L428.719 96.808C428.516 96.6053 428.292 96.4293 428.047 96.28C427.812 96.12 427.572 95.9973 427.327 95.912C427.081 95.8267 426.857 95.784 426.655 95.784C426.431 95.784 426.228 95.8053 426.047 95.848C425.865 95.8907 425.711 95.9547 425.583 96.04C425.465 96.1253 425.375 96.232 425.311 96.36C425.247 96.488 425.215 96.632 425.215 96.792C425.225 96.9307 425.257 97.064 425.311 97.192C425.375 97.3093 425.46 97.4107 425.567 97.496C425.684 97.5813 425.86 97.672 426.095 97.768C426.329 97.864 426.628 97.9547 426.991 98.04C427.524 98.1787 427.961 98.3333 428.303 98.504C428.655 98.664 428.932 98.8507 429.135 99.064C429.348 99.2667 429.497 99.5013 429.583 99.768C429.668 100.035 429.711 100.333 429.711 100.664C429.711 101.144 429.572 101.576 429.295 101.96C429.028 102.333 428.665 102.627 428.207 102.84C427.748 103.053 427.236 103.16 426.671 103.16ZM431.527 103V91.16H433.175V96.328L432.887 96.52C432.994 96.1467 433.202 95.8053 433.511 95.496C433.82 95.176 434.188 94.92 434.615 94.728C435.042 94.5253 435.479 94.424 435.927 94.424C436.567 94.424 437.1 94.552 437.527 94.808C437.954 95.0533 438.274 95.432 438.487 95.944C438.7 96.456 438.807 97.1013 438.807 97.88V103H437.159V97.992C437.159 97.512 437.095 97.1173 436.967 96.808C436.839 96.488 436.642 96.2587 436.375 96.12C436.108 95.9707 435.778 95.9067 435.383 95.928C435.063 95.928 434.77 95.9813 434.503 96.088C434.236 96.184 434.002 96.3227 433.799 96.504C433.607 96.6853 433.452 96.8987 433.335 97.144C433.228 97.3787 433.175 97.6347 433.175 97.912V103H432.359C432.22 103 432.082 103 431.943 103C431.804 103 431.666 103 431.527 103ZM449.303 103.16C448.482 103.16 447.746 102.973 447.095 102.6C446.455 102.216 445.948 101.699 445.575 101.048C445.202 100.387 445.015 99.6347 445.015 98.792C445.015 97.9493 445.202 97.2027 445.575 96.552C445.948 95.8907 446.455 95.3733 447.095 95C447.746 94.616 448.482 94.424 449.303 94.424C450.114 94.424 450.839 94.616 451.479 95C452.13 95.3733 452.642 95.8907 453.015 96.552C453.388 97.2027 453.575 97.9493 453.575 98.792C453.575 99.6347 453.388 100.387 453.015 101.048C452.642 101.699 452.13 102.216 451.479 102.6C450.839 102.973 450.114 103.16 449.303 103.16ZM449.303 101.656C449.804 101.656 450.252 101.533 450.647 101.288C451.042 101.032 451.351 100.691 451.575 100.264C451.799 99.8267 451.906 99.336 451.895 98.792C451.906 98.2373 451.799 97.7467 451.575 97.32C451.351 96.8827 451.042 96.5413 450.647 96.296C450.252 96.0507 449.804 95.928 449.303 95.928C448.802 95.928 448.348 96.056 447.943 96.312C447.548 96.5573 447.239 96.8987 447.015 97.336C446.791 97.7627 446.684 98.248 446.695 98.792C446.684 99.336 446.791 99.8267 447.015 100.264C447.239 100.691 447.548 101.032 447.943 101.288C448.348 101.533 448.802 101.656 449.303 101.656ZM455.97 103V93.656C455.97 93.176 456.077 92.7493 456.29 92.376C456.504 92.0027 456.797 91.7093 457.17 91.496C457.544 91.2827 457.976 91.176 458.466 91.176C458.808 91.176 459.128 91.24 459.426 91.368C459.725 91.496 459.965 91.6667 460.146 91.88L459.586 93.144C459.448 93.016 459.293 92.9147 459.122 92.84C458.962 92.7547 458.808 92.712 458.658 92.712C458.434 92.712 458.242 92.7493 458.082 92.824C457.933 92.888 457.821 92.9947 457.746 93.144C457.672 93.2827 457.634 93.4533 457.634 93.656V103H456.802C456.664 103 456.525 103 456.386 103C456.248 103 456.109 103 455.97 103ZM454.626 96.264V94.744H459.618V96.264H454.626ZM466.864 103V92.456H468.512V103H466.864ZM465.12 96.2V94.6H470.464V96.2H465.12ZM471.965 103V91.16H473.613V96.328L473.325 96.52C473.431 96.1467 473.639 95.8053 473.949 95.496C474.258 95.176 474.626 94.92 475.053 94.728C475.479 94.5253 475.917 94.424 476.365 94.424C477.005 94.424 477.538 94.552 477.965 94.808C478.391 95.0533 478.711 95.432 478.925 95.944C479.138 96.456 479.245 97.1013 479.245 97.88V103H477.597V97.992C477.597 97.512 477.533 97.1173 477.405 96.808C477.277 96.488 477.079 96.2587 476.813 96.12C476.546 95.9707 476.215 95.9067 475.821 95.928C475.501 95.928 475.207 95.9813 474.941 96.088C474.674 96.184 474.439 96.3227 474.237 96.504C474.045 96.6853 473.89 96.8987 473.773 97.144C473.666 97.3787 473.613 97.6347 473.613 97.912V103H472.797C472.658 103 472.519 103 472.381 103C472.242 103 472.103 103 471.965 103ZM485.4 103.16C484.536 103.16 483.768 102.979 483.096 102.616C482.435 102.243 481.912 101.736 481.528 101.096C481.155 100.456 480.968 99.72 480.968 98.888C480.968 98.2267 481.075 97.624 481.288 97.08C481.501 96.536 481.795 96.0667 482.168 95.672C482.552 95.2667 483.005 94.9573 483.528 94.744C484.061 94.52 484.637 94.408 485.256 94.408C485.8 94.408 486.307 94.5147 486.776 94.728C487.245 94.9307 487.651 95.2133 487.992 95.576C488.344 95.9387 488.611 96.3707 488.792 96.872C488.984 97.3627 489.075 97.9013 489.064 98.488L489.048 99.192H482.184L481.816 97.88H487.624L487.384 98.152V97.768C487.352 97.416 487.235 97.1013 487.032 96.824C486.829 96.5467 486.573 96.328 486.264 96.168C485.955 96.008 485.619 95.928 485.256 95.928C484.68 95.928 484.195 96.04 483.8 96.264C483.405 96.4773 483.107 96.7973 482.904 97.224C482.701 97.64 482.6 98.1573 482.6 98.776C482.6 99.3627 482.723 99.8747 482.968 100.312C483.213 100.739 483.56 101.069 484.008 101.304C484.456 101.539 484.973 101.656 485.56 101.656C485.976 101.656 486.36 101.587 486.712 101.448C487.075 101.309 487.464 101.059 487.88 100.696L488.712 101.864C488.456 102.12 488.141 102.344 487.768 102.536C487.405 102.728 487.016 102.883 486.6 103C486.195 103.107 485.795 103.16 485.4 103.16ZM403.152 126.52V114.6H404.816V116.52L404.56 116.376C404.624 116.056 404.805 115.752 405.104 115.464C405.403 115.165 405.765 114.925 406.192 114.744C406.629 114.552 407.077 114.456 407.536 114.456C408.293 114.456 408.965 114.643 409.552 115.016C410.139 115.389 410.603 115.901 410.944 116.552C411.285 117.203 411.456 117.949 411.456 118.792C411.456 119.624 411.285 120.371 410.944 121.032C410.613 121.683 410.155 122.2 409.568 122.584C408.981 122.957 408.32 123.144 407.584 123.144C407.093 123.144 406.619 123.048 406.16 122.856C405.701 122.653 405.312 122.397 404.992 122.088C404.672 121.779 404.475 121.459 404.4 121.128L404.816 120.904V126.52H403.152ZM407.312 121.624C407.803 121.624 408.24 121.501 408.624 121.256C409.008 121.011 409.312 120.675 409.536 120.248C409.76 119.821 409.872 119.336 409.872 118.792C409.872 118.248 409.76 117.768 409.536 117.352C409.323 116.925 409.024 116.589 408.64 116.344C408.256 116.099 407.813 115.976 407.312 115.976C406.811 115.976 406.368 116.099 405.984 116.344C405.6 116.579 405.296 116.909 405.072 117.336C404.848 117.763 404.736 118.248 404.736 118.792C404.736 119.336 404.848 119.821 405.072 120.248C405.296 120.675 405.6 121.011 405.984 121.256C406.368 121.501 406.811 121.624 407.312 121.624ZM413.246 123V114.6H414.91V117.24L414.75 116.6C414.867 116.195 415.064 115.827 415.342 115.496C415.63 115.165 415.955 114.904 416.318 114.712C416.691 114.52 417.075 114.424 417.47 114.424C417.651 114.424 417.822 114.44 417.982 114.472C418.152 114.504 418.286 114.541 418.382 114.584L417.95 116.376C417.822 116.323 417.678 116.28 417.518 116.248C417.368 116.205 417.219 116.184 417.07 116.184C416.782 116.184 416.504 116.243 416.238 116.36C415.982 116.467 415.752 116.621 415.55 116.824C415.358 117.016 415.203 117.245 415.086 117.512C414.968 117.768 414.91 118.051 414.91 118.36V123H413.246ZM423.26 123.16C422.396 123.16 421.628 122.979 420.956 122.616C420.294 122.243 419.772 121.736 419.388 121.096C419.014 120.456 418.828 119.72 418.828 118.888C418.828 118.227 418.934 117.624 419.148 117.08C419.361 116.536 419.654 116.067 420.028 115.672C420.412 115.267 420.865 114.957 421.388 114.744C421.921 114.52 422.497 114.408 423.116 114.408C423.66 114.408 424.166 114.515 424.636 114.728C425.105 114.931 425.51 115.213 425.852 115.576C426.204 115.939 426.47 116.371 426.652 116.872C426.844 117.363 426.934 117.901 426.924 118.488L426.908 119.192H420.044L419.676 117.88H425.484L425.244 118.152V117.768C425.212 117.416 425.094 117.101 424.892 116.824C424.689 116.547 424.433 116.328 424.124 116.168C423.814 116.008 423.478 115.928 423.116 115.928C422.54 115.928 422.054 116.04 421.66 116.264C421.265 116.477 420.966 116.797 420.764 117.224C420.561 117.64 420.46 118.157 420.46 118.776C420.46 119.363 420.582 119.875 420.828 120.312C421.073 120.739 421.42 121.069 421.868 121.304C422.316 121.539 422.833 121.656 423.42 121.656C423.836 121.656 424.22 121.587 424.572 121.448C424.934 121.309 425.324 121.059 425.74 120.696L426.572 121.864C426.316 122.12 426.001 122.344 425.628 122.536C425.265 122.728 424.876 122.883 424.46 123C424.054 123.107 423.654 123.16 423.26 123.16ZM431.31 123L427.758 114.6H429.534L432.094 120.888L431.79 121.032L434.526 114.6H436.222L432.494 123H431.31ZM438.002 123V114.6H439.65V123H438.002ZM438.802 112.744C438.45 112.744 438.178 112.653 437.986 112.472C437.794 112.291 437.698 112.035 437.698 111.704C437.698 111.395 437.794 111.144 437.986 110.952C438.189 110.76 438.461 110.664 438.802 110.664C439.154 110.664 439.426 110.755 439.618 110.936C439.81 111.117 439.906 111.373 439.906 111.704C439.906 112.013 439.805 112.264 439.602 112.456C439.41 112.648 439.143 112.744 438.802 112.744ZM445.959 123.16C445.138 123.16 444.402 122.973 443.751 122.6C443.111 122.216 442.605 121.699 442.231 121.048C441.858 120.387 441.671 119.635 441.671 118.792C441.671 117.949 441.858 117.203 442.231 116.552C442.605 115.891 443.111 115.373 443.751 115C444.402 114.616 445.138 114.424 445.959 114.424C446.77 114.424 447.495 114.616 448.135 115C448.786 115.373 449.298 115.891 449.671 116.552C450.045 117.203 450.231 117.949 450.231 118.792C450.231 119.635 450.045 120.387 449.671 121.048C449.298 121.699 448.786 122.216 448.135 122.6C447.495 122.973 446.77 123.16 445.959 123.16ZM445.959 121.656C446.461 121.656 446.909 121.533 447.303 121.288C447.698 121.032 448.007 120.691 448.231 120.264C448.455 119.827 448.562 119.336 448.551 118.792C448.562 118.237 448.455 117.747 448.231 117.32C448.007 116.883 447.698 116.541 447.303 116.296C446.909 116.051 446.461 115.928 445.959 115.928C445.458 115.928 445.005 116.056 444.599 116.312C444.205 116.557 443.895 116.899 443.671 117.336C443.447 117.763 443.341 118.248 443.351 118.792C443.341 119.336 443.447 119.827 443.671 120.264C443.895 120.691 444.205 121.032 444.599 121.288C445.005 121.533 445.458 121.656 445.959 121.656ZM454.971 123.16C454.374 123.16 453.851 123.021 453.403 122.744C452.966 122.467 452.624 122.077 452.379 121.576C452.144 121.075 452.027 120.477 452.027 119.784V114.6H453.675V119.336C453.675 120.072 453.846 120.653 454.187 121.08C454.539 121.507 455.024 121.72 455.643 121.72C455.952 121.72 456.235 121.672 456.491 121.576C456.747 121.469 456.966 121.325 457.147 121.144C457.339 120.963 457.488 120.744 457.595 120.488C457.702 120.232 457.755 119.955 457.755 119.656V114.6H459.403V123H457.755V121.24L458.043 121.048C457.915 121.443 457.696 121.8 457.387 122.12C457.088 122.44 456.731 122.696 456.315 122.888C455.899 123.069 455.451 123.16 454.971 123.16ZM464.515 123.16C463.811 123.16 463.176 123.037 462.611 122.792C462.045 122.547 461.576 122.184 461.203 121.704L462.323 120.744C462.643 121.117 462.989 121.389 463.363 121.56C463.747 121.72 464.179 121.8 464.659 121.8C464.851 121.8 465.027 121.779 465.187 121.736C465.357 121.683 465.501 121.608 465.619 121.512C465.747 121.416 465.843 121.304 465.907 121.176C465.971 121.037 466.003 120.888 466.003 120.728C466.003 120.451 465.901 120.227 465.699 120.056C465.592 119.981 465.421 119.901 465.187 119.816C464.963 119.72 464.669 119.624 464.307 119.528C463.688 119.368 463.181 119.187 462.787 118.984C462.392 118.781 462.088 118.552 461.875 118.296C461.715 118.093 461.597 117.875 461.523 117.64C461.448 117.395 461.411 117.128 461.411 116.84C461.411 116.371 461.544 115.955 461.811 115.592C462.077 115.229 462.435 114.947 462.883 114.744C463.341 114.531 463.853 114.424 464.419 114.424C464.813 114.424 465.203 114.477 465.587 114.584C465.981 114.691 466.344 114.845 466.675 115.048C467.005 115.251 467.283 115.491 467.507 115.768L466.563 116.808C466.36 116.605 466.136 116.429 465.891 116.28C465.656 116.12 465.416 115.997 465.171 115.912C464.925 115.827 464.701 115.784 464.499 115.784C464.275 115.784 464.072 115.805 463.891 115.848C463.709 115.891 463.555 115.955 463.427 116.04C463.309 116.125 463.219 116.232 463.155 116.36C463.091 116.488 463.059 116.632 463.059 116.792C463.069 116.931 463.101 117.064 463.155 117.192C463.219 117.309 463.304 117.411 463.411 117.496C463.528 117.581 463.704 117.672 463.939 117.768C464.173 117.864 464.472 117.955 464.835 118.04C465.368 118.179 465.805 118.333 466.147 118.504C466.499 118.664 466.776 118.851 466.979 119.064C467.192 119.267 467.341 119.501 467.427 119.768C467.512 120.035 467.555 120.333 467.555 120.664C467.555 121.144 467.416 121.576 467.139 121.96C466.872 122.333 466.509 122.627 466.051 122.84C465.592 123.053 465.08 123.16 464.515 123.16ZM407.568 143.16C407.205 143.16 406.843 143.101 406.48 142.984C406.128 142.867 405.803 142.712 405.504 142.52C405.216 142.317 404.971 142.099 404.768 141.864C404.576 141.619 404.448 141.373 404.384 141.128L404.8 140.904V142.952H403.152V131.16H404.8V136.52L404.544 136.376C404.597 136.131 404.715 135.896 404.896 135.672C405.077 135.437 405.307 135.229 405.584 135.048C405.872 134.856 406.181 134.707 406.512 134.6C406.843 134.483 407.179 134.424 407.52 134.424C408.277 134.424 408.949 134.611 409.536 134.984C410.123 135.357 410.587 135.875 410.928 136.536C411.269 137.187 411.44 137.933 411.44 138.776C411.44 139.619 411.269 140.371 410.928 141.032C410.597 141.693 410.139 142.216 409.552 142.6C408.965 142.973 408.304 143.16 407.568 143.16ZM407.296 141.656C407.787 141.656 408.224 141.533 408.608 141.288C408.992 141.032 409.296 140.691 409.52 140.264C409.744 139.827 409.856 139.331 409.856 138.776C409.856 138.232 409.744 137.747 409.52 137.32C409.307 136.883 409.008 136.541 408.624 136.296C408.24 136.051 407.797 135.928 407.296 135.928C406.795 135.928 406.352 136.051 405.968 136.296C405.584 136.541 405.28 136.883 405.056 137.32C404.832 137.747 404.72 138.232 404.72 138.776C404.72 139.331 404.832 139.827 405.056 140.264C405.28 140.691 405.584 141.032 405.968 141.288C406.352 141.533 406.795 141.656 407.296 141.656ZM413.262 143V131.16H414.91V143H413.262ZM420.866 143.16C420.044 143.16 419.308 142.973 418.658 142.6C418.018 142.216 417.511 141.699 417.138 141.048C416.764 140.387 416.578 139.635 416.578 138.792C416.578 137.949 416.764 137.203 417.138 136.552C417.511 135.891 418.018 135.373 418.658 135C419.308 134.616 420.044 134.424 420.866 134.424C421.676 134.424 422.402 134.616 423.042 135C423.692 135.373 424.204 135.891 424.578 136.552C424.951 137.203 425.138 137.949 425.138 138.792C425.138 139.635 424.951 140.387 424.578 141.048C424.204 141.699 423.692 142.216 423.042 142.6C422.402 142.973 421.676 143.16 420.866 143.16ZM420.866 141.656C421.367 141.656 421.815 141.533 422.21 141.288C422.604 141.032 422.914 140.691 423.138 140.264C423.362 139.827 423.468 139.336 423.458 138.792C423.468 138.237 423.362 137.747 423.138 137.32C422.914 136.883 422.604 136.541 422.21 136.296C421.815 136.051 421.367 135.928 420.866 135.928C420.364 135.928 419.911 136.056 419.506 136.312C419.111 136.557 418.802 136.899 418.578 137.336C418.354 137.763 418.247 138.248 418.258 138.792C418.247 139.336 418.354 139.827 418.578 140.264C418.802 140.691 419.111 141.032 419.506 141.288C419.911 141.533 420.364 141.656 420.866 141.656ZM430.501 143.16C429.723 143.16 429.024 142.968 428.405 142.584C427.797 142.2 427.312 141.677 426.949 141.016C426.597 140.355 426.421 139.613 426.421 138.792C426.421 137.971 426.597 137.229 426.949 136.568C427.312 135.907 427.797 135.384 428.405 135C429.024 134.616 429.723 134.424 430.501 134.424C431.248 134.424 431.925 134.579 432.533 134.888C433.152 135.187 433.621 135.597 433.941 136.12L433.029 137.24C432.859 136.995 432.64 136.771 432.373 136.568C432.107 136.365 431.824 136.205 431.525 136.088C431.227 135.971 430.939 135.912 430.661 135.912C430.149 135.912 429.691 136.04 429.285 136.296C428.891 136.541 428.576 136.883 428.341 137.32C428.107 137.757 427.989 138.248 427.989 138.792C427.989 139.336 428.112 139.827 428.357 140.264C428.603 140.691 428.928 141.032 429.333 141.288C429.739 141.544 430.187 141.672 430.677 141.672C430.965 141.672 431.243 141.624 431.509 141.528C431.787 141.432 432.053 141.288 432.309 141.096C432.565 140.904 432.805 140.669 433.029 140.392L433.941 141.512C433.6 141.992 433.109 142.387 432.469 142.696C431.84 143.005 431.184 143.16 430.501 143.16ZM437 140.376L436.92 138.584L440.936 134.6H443.16L437 140.376ZM435.496 143V131.16H437.144V143H435.496ZM441.16 143L437.992 139.304L439.16 138.232L443.272 143H441.16ZM449.346 143V134.6H450.994V143H449.346ZM450.146 132.744C449.794 132.744 449.522 132.653 449.33 132.472C449.138 132.291 449.042 132.035 449.042 131.704C449.042 131.395 449.138 131.144 449.33 130.952C449.533 130.76 449.805 130.664 450.146 130.664C450.498 130.664 450.77 130.755 450.962 130.936C451.154 131.117 451.25 131.373 451.25 131.704C451.25 132.013 451.149 132.264 450.946 132.456C450.754 132.648 450.487 132.744 450.146 132.744ZM453.527 143V134.6H455.175V136.328L454.887 136.52C454.994 136.147 455.202 135.805 455.511 135.496C455.82 135.176 456.188 134.92 456.615 134.728C457.042 134.525 457.479 134.424 457.927 134.424C458.567 134.424 459.1 134.552 459.527 134.808C459.954 135.053 460.274 135.432 460.487 135.944C460.7 136.456 460.807 137.101 460.807 137.88V143H459.159V137.992C459.159 137.512 459.095 137.117 458.967 136.808C458.839 136.488 458.642 136.259 458.375 136.12C458.108 135.971 457.778 135.907 457.383 135.928C457.063 135.928 456.77 135.981 456.503 136.088C456.236 136.184 456.002 136.323 455.799 136.504C455.607 136.685 455.452 136.899 455.335 137.144C455.228 137.379 455.175 137.635 455.175 137.912V143H454.359C454.22 143 454.082 143 453.943 143C453.804 143 453.666 143 453.527 143ZM404.192 163V152.456H405.84V163H404.192ZM402.448 156.2V154.6H407.792V156.2H402.448ZM409.293 163V151.16H410.941V156.328L410.653 156.52C410.759 156.147 410.967 155.805 411.277 155.496C411.586 155.176 411.954 154.92 412.381 154.728C412.807 154.525 413.245 154.424 413.693 154.424C414.333 154.424 414.866 154.552 415.293 154.808C415.719 155.053 416.039 155.432 416.253 155.944C416.466 156.456 416.573 157.101 416.573 157.88V163H414.925V157.992C414.925 157.512 414.861 157.117 414.733 156.808C414.605 156.488 414.407 156.259 414.141 156.12C413.874 155.971 413.543 155.907 413.149 155.928C412.829 155.928 412.535 155.981 412.269 156.088C412.002 156.184 411.767 156.323 411.565 156.504C411.373 156.685 411.218 156.899 411.101 157.144C410.994 157.379 410.941 157.635 410.941 157.912V163H410.125C409.986 163 409.847 163 409.709 163C409.57 163 409.431 163 409.293 163ZM422.728 163.16C421.864 163.16 421.096 162.979 420.424 162.616C419.763 162.243 419.24 161.736 418.856 161.096C418.483 160.456 418.296 159.72 418.296 158.888C418.296 158.227 418.403 157.624 418.616 157.08C418.83 156.536 419.123 156.067 419.496 155.672C419.88 155.267 420.334 154.957 420.856 154.744C421.39 154.52 421.966 154.408 422.584 154.408C423.128 154.408 423.635 154.515 424.104 154.728C424.574 154.931 424.979 155.213 425.32 155.576C425.672 155.939 425.939 156.371 426.12 156.872C426.312 157.363 426.403 157.901 426.392 158.488L426.376 159.192H419.512L419.144 157.88H424.952L424.712 158.152V157.768C424.68 157.416 424.563 157.101 424.36 156.824C424.158 156.547 423.902 156.328 423.592 156.168C423.283 156.008 422.947 155.928 422.584 155.928C422.008 155.928 421.523 156.04 421.128 156.264C420.734 156.477 420.435 156.797 420.232 157.224C420.03 157.64 419.928 158.157 419.928 158.776C419.928 159.363 420.051 159.875 420.296 160.312C420.542 160.739 420.888 161.069 421.336 161.304C421.784 161.539 422.302 161.656 422.888 161.656C423.304 161.656 423.688 161.587 424.04 161.448C424.403 161.309 424.792 161.059 425.208 160.696L426.04 161.864C425.784 162.12 425.47 162.344 425.096 162.536C424.734 162.728 424.344 162.883 423.928 163C423.523 163.107 423.123 163.16 422.728 163.16ZM436.236 163.16C435.457 163.16 434.758 162.968 434.14 162.584C433.532 162.2 433.046 161.677 432.684 161.016C432.332 160.355 432.156 159.613 432.156 158.792C432.156 157.971 432.332 157.229 432.684 156.568C433.046 155.907 433.532 155.384 434.14 155C434.758 154.616 435.457 154.424 436.236 154.424C436.982 154.424 437.66 154.579 438.268 154.888C438.886 155.187 439.356 155.597 439.676 156.12L438.764 157.24C438.593 156.995 438.374 156.771 438.108 156.568C437.841 156.365 437.558 156.205 437.26 156.088C436.961 155.971 436.673 155.912 436.396 155.912C435.884 155.912 435.425 156.04 435.02 156.296C434.625 156.541 434.31 156.883 434.076 157.32C433.841 157.757 433.724 158.248 433.724 158.792C433.724 159.336 433.846 159.827 434.092 160.264C434.337 160.691 434.662 161.032 435.068 161.288C435.473 161.544 435.921 161.672 436.412 161.672C436.7 161.672 436.977 161.624 437.244 161.528C437.521 161.432 437.788 161.288 438.044 161.096C438.3 160.904 438.54 160.669 438.764 160.392L439.676 161.512C439.334 161.992 438.844 162.387 438.204 162.696C437.574 163.005 436.918 163.16 436.236 163.16ZM441.23 163V151.16H442.878V156.328L442.59 156.52C442.697 156.147 442.905 155.805 443.214 155.496C443.523 155.176 443.891 154.92 444.318 154.728C444.745 154.525 445.182 154.424 445.63 154.424C446.27 154.424 446.803 154.552 447.23 154.808C447.657 155.053 447.977 155.432 448.19 155.944C448.403 156.456 448.51 157.101 448.51 157.88V163H446.862V157.992C446.862 157.512 446.798 157.117 446.67 156.808C446.542 156.488 446.345 156.259 446.078 156.12C445.811 155.971 445.481 155.907 445.086 155.928C444.766 155.928 444.473 155.981 444.206 156.088C443.939 156.184 443.705 156.323 443.502 156.504C443.31 156.685 443.155 156.899 443.038 157.144C442.931 157.379 442.878 157.635 442.878 157.912V163H442.062C441.923 163 441.785 163 441.646 163C441.507 163 441.369 163 441.23 163ZM455.722 163V157.528C455.722 157.059 455.551 156.68 455.21 156.392C454.879 156.093 454.458 155.944 453.946 155.944C453.476 155.944 453.05 156.04 452.666 156.232C452.292 156.424 451.951 156.717 451.642 157.112L450.57 156.04C451.071 155.496 451.61 155.091 452.186 154.824C452.772 154.557 453.402 154.424 454.074 154.424C454.714 154.424 455.268 154.531 455.738 154.744C456.207 154.957 456.57 155.272 456.826 155.688C457.082 156.093 457.21 156.589 457.21 157.176V163H455.722ZM453.21 163.16C452.666 163.16 452.18 163.053 451.754 162.84C451.327 162.627 450.986 162.333 450.73 161.96C450.484 161.576 450.362 161.128 450.362 160.616C450.362 160.168 450.442 159.773 450.602 159.432C450.762 159.091 450.996 158.808 451.306 158.584C451.626 158.36 452.02 158.189 452.49 158.072C452.97 157.955 453.519 157.896 454.138 157.896H456.474L456.33 159.208H453.93C453.61 159.208 453.322 159.24 453.066 159.304C452.82 159.357 452.607 159.448 452.426 159.576C452.255 159.693 452.127 159.837 452.042 160.008C451.956 160.168 451.914 160.36 451.914 160.584C451.914 160.819 451.972 161.027 452.09 161.208C452.207 161.379 452.367 161.512 452.57 161.608C452.772 161.704 453.007 161.752 453.274 161.752C453.658 161.752 454.02 161.688 454.362 161.56C454.714 161.421 455.023 161.235 455.29 161C455.567 160.765 455.78 160.504 455.93 160.216L456.314 161.288C456.09 161.661 455.812 161.987 455.482 162.264C455.151 162.541 454.794 162.76 454.41 162.92C454.026 163.08 453.626 163.16 453.21 163.16ZM459.565 163V154.6H461.213V163H459.565ZM460.365 152.744C460.013 152.744 459.741 152.653 459.549 152.472C459.357 152.291 459.261 152.035 459.261 151.704C459.261 151.395 459.357 151.144 459.549 150.952C459.751 150.76 460.023 150.664 460.365 150.664C460.717 150.664 460.989 150.755 461.181 150.936C461.373 151.117 461.469 151.373 461.469 151.704C461.469 152.013 461.367 152.264 461.165 152.456C460.973 152.648 460.706 152.744 460.365 152.744ZM463.746 163V154.6H465.394V156.328L465.106 156.52C465.212 156.147 465.42 155.805 465.73 155.496C466.039 155.176 466.407 154.92 466.834 154.728C467.26 154.525 467.698 154.424 468.146 154.424C468.786 154.424 469.319 154.552 469.746 154.808C470.172 155.053 470.492 155.432 470.706 155.944C470.919 156.456 471.026 157.101 471.026 157.88V163H469.378V157.992C469.378 157.512 469.314 157.117 469.186 156.808C469.058 156.488 468.86 156.259 468.594 156.12C468.327 155.971 467.996 155.907 467.602 155.928C467.282 155.928 466.988 155.981 466.722 156.088C466.455 156.184 466.22 156.323 466.018 156.504C465.826 156.685 465.671 156.899 465.554 157.144C465.447 157.379 465.394 157.635 465.394 157.912V163H464.578C464.439 163 464.3 163 464.162 163C464.023 163 463.884 163 463.746 163Z" fill="#0D0D0D"/>
<path d="M403.568 405V393.8H408.24C408.955 393.8 409.557 393.907 410.048 394.12C410.539 394.333 410.907 394.653 411.152 395.08C411.408 395.496 411.536 396.008 411.536 396.616C411.536 397.224 411.365 397.741 411.024 398.168C410.693 398.595 410.229 398.888 409.632 399.048V398.728C410.133 398.835 410.571 399.027 410.944 399.304C411.317 399.571 411.605 399.907 411.808 400.312C412.021 400.717 412.128 401.181 412.128 401.704C412.128 402.237 412.043 402.712 411.872 403.128C411.712 403.533 411.467 403.875 411.136 404.152C410.816 404.429 410.427 404.643 409.968 404.792C409.509 404.931 408.987 405 408.4 405H403.568ZM405.296 403.336H408.304C408.955 403.336 409.461 403.192 409.824 402.904C410.187 402.616 410.368 402.205 410.368 401.672C410.368 401.341 410.277 401.059 410.096 400.824C409.925 400.589 409.68 400.413 409.36 400.296C409.04 400.168 408.661 400.104 408.224 400.104H405.296V403.336ZM405.296 398.44H408.144C408.464 398.44 408.747 398.376 408.992 398.248C409.248 398.12 409.445 397.944 409.584 397.72C409.733 397.496 409.808 397.24 409.808 396.952C409.808 396.472 409.648 396.104 409.328 395.848C409.008 395.592 408.549 395.464 407.952 395.464H405.296V398.44ZM414.028 405V393.16H415.676V405H414.028ZM421.631 405.16C420.81 405.16 420.074 404.973 419.423 404.6C418.783 404.216 418.276 403.699 417.903 403.048C417.53 402.387 417.343 401.635 417.343 400.792C417.343 399.949 417.53 399.203 417.903 398.552C418.276 397.891 418.783 397.373 419.423 397C420.074 396.616 420.81 396.424 421.631 396.424C422.442 396.424 423.167 396.616 423.807 397C424.458 397.373 424.97 397.891 425.343 398.552C425.716 399.203 425.903 399.949 425.903 400.792C425.903 401.635 425.716 402.387 425.343 403.048C424.97 403.699 424.458 404.216 423.807 404.6C423.167 404.973 422.442 405.16 421.631 405.16ZM421.631 403.656C422.132 403.656 422.58 403.533 422.975 403.288C423.37 403.032 423.679 402.691 423.903 402.264C424.127 401.827 424.234 401.336 424.223 400.792C424.234 400.237 424.127 399.747 423.903 399.32C423.679 398.883 423.37 398.541 422.975 398.296C422.58 398.051 422.132 397.928 421.631 397.928C421.13 397.928 420.676 398.056 420.271 398.312C419.876 398.557 419.567 398.899 419.343 399.336C419.119 399.763 419.012 400.248 419.023 400.792C419.012 401.336 419.119 401.827 419.343 402.264C419.567 402.691 419.876 403.032 420.271 403.288C420.676 403.533 421.13 403.656 421.631 403.656ZM431.267 405.16C430.488 405.16 429.79 404.968 429.171 404.584C428.563 404.2 428.078 403.677 427.715 403.016C427.363 402.355 427.187 401.613 427.187 400.792C427.187 399.971 427.363 399.229 427.715 398.568C428.078 397.907 428.563 397.384 429.171 397C429.79 396.616 430.488 396.424 431.267 396.424C432.014 396.424 432.691 396.579 433.299 396.888C433.918 397.187 434.387 397.597 434.707 398.12L433.795 399.24C433.624 398.995 433.406 398.771 433.139 398.568C432.872 398.365 432.59 398.205 432.291 398.088C431.992 397.971 431.704 397.912 431.427 397.912C430.915 397.912 430.456 398.04 430.051 398.296C429.656 398.541 429.342 398.883 429.107 399.32C428.872 399.757 428.755 400.248 428.755 400.792C428.755 401.336 428.878 401.827 429.123 402.264C429.368 402.691 429.694 403.032 430.099 403.288C430.504 403.544 430.952 403.672 431.443 403.672C431.731 403.672 432.008 403.624 432.275 403.528C432.552 403.432 432.819 403.288 433.075 403.096C433.331 402.904 433.571 402.669 433.795 402.392L434.707 403.512C434.366 403.992 433.875 404.387 433.235 404.696C432.606 405.005 431.95 405.16 431.267 405.16ZM437.765 402.376L437.685 400.584L441.701 396.6H443.925L437.765 402.376ZM436.261 405V393.16H437.909V405H436.261ZM441.925 405L438.757 401.304L439.925 400.232L444.037 405H441.925ZM445.131 397.4L444.523 396.664C444.939 396.472 445.28 396.253 445.547 396.008C445.814 395.763 445.947 395.549 445.947 395.368C445.947 395.229 445.888 395.107 445.771 395C445.654 394.883 445.547 394.787 445.451 394.712C445.216 394.52 445.056 394.36 444.971 394.232C444.896 394.104 444.859 393.971 444.859 393.832C444.859 393.576 444.95 393.373 445.131 393.224C445.312 393.064 445.547 392.984 445.835 392.984C446.134 392.984 446.4 393.064 446.635 393.224C446.88 393.373 447.072 393.581 447.211 393.848C447.35 394.115 447.419 394.429 447.419 394.792C447.419 395.069 447.36 395.341 447.243 395.608C447.126 395.875 446.96 396.125 446.747 396.36C446.544 396.595 446.304 396.803 446.027 396.984C445.75 397.165 445.451 397.304 445.131 397.4ZM452.015 405.16C451.311 405.16 450.676 405.037 450.111 404.792C449.545 404.547 449.076 404.184 448.703 403.704L449.823 402.744C450.143 403.117 450.489 403.389 450.863 403.56C451.247 403.72 451.679 403.8 452.159 403.8C452.351 403.8 452.527 403.779 452.687 403.736C452.857 403.683 453.001 403.608 453.119 403.512C453.247 403.416 453.343 403.304 453.407 403.176C453.471 403.037 453.503 402.888 453.503 402.728C453.503 402.451 453.401 402.227 453.199 402.056C453.092 401.981 452.921 401.901 452.687 401.816C452.463 401.72 452.169 401.624 451.807 401.528C451.188 401.368 450.681 401.187 450.287 400.984C449.892 400.781 449.588 400.552 449.375 400.296C449.215 400.093 449.097 399.875 449.023 399.64C448.948 399.395 448.911 399.128 448.911 398.84C448.911 398.371 449.044 397.955 449.311 397.592C449.577 397.229 449.935 396.947 450.383 396.744C450.841 396.531 451.353 396.424 451.919 396.424C452.313 396.424 452.703 396.477 453.087 396.584C453.481 396.691 453.844 396.845 454.175 397.048C454.505 397.251 454.783 397.491 455.007 397.768L454.063 398.808C453.86 398.605 453.636 398.429 453.391 398.28C453.156 398.12 452.916 397.997 452.671 397.912C452.425 397.827 452.201 397.784 451.999 397.784C451.775 397.784 451.572 397.805 451.391 397.848C451.209 397.891 451.055 397.955 450.927 398.04C450.809 398.125 450.719 398.232 450.655 398.36C450.591 398.488 450.559 398.632 450.559 398.792C450.569 398.931 450.601 399.064 450.655 399.192C450.719 399.309 450.804 399.411 450.911 399.496C451.028 399.581 451.204 399.672 451.439 399.768C451.673 399.864 451.972 399.955 452.335 400.04C452.868 400.179 453.305 400.333 453.647 400.504C453.999 400.664 454.276 400.851 454.479 401.064C454.692 401.267 454.841 401.501 454.927 401.768C455.012 402.035 455.055 402.333 455.055 402.664C455.055 403.144 454.916 403.576 454.639 403.96C454.372 404.333 454.009 404.627 453.551 404.84C453.092 405.053 452.58 405.16 452.015 405.16ZM406.928 425.16C406.107 425.16 405.371 424.973 404.72 424.6C404.08 424.216 403.573 423.699 403.2 423.048C402.827 422.387 402.64 421.635 402.64 420.792C402.64 419.949 402.827 419.203 403.2 418.552C403.573 417.891 404.08 417.373 404.72 417C405.371 416.616 406.107 416.424 406.928 416.424C407.739 416.424 408.464 416.616 409.104 417C409.755 417.373 410.267 417.891 410.64 418.552C411.013 419.203 411.2 419.949 411.2 420.792C411.2 421.635 411.013 422.387 410.64 423.048C410.267 423.699 409.755 424.216 409.104 424.6C408.464 424.973 407.739 425.16 406.928 425.16ZM406.928 423.656C407.429 423.656 407.877 423.533 408.272 423.288C408.667 423.032 408.976 422.691 409.2 422.264C409.424 421.827 409.531 421.336 409.52 420.792C409.531 420.237 409.424 419.747 409.2 419.32C408.976 418.883 408.667 418.541 408.272 418.296C407.877 418.051 407.429 417.928 406.928 417.928C406.427 417.928 405.973 418.056 405.568 418.312C405.173 418.557 404.864 418.899 404.64 419.336C404.416 419.763 404.309 420.248 404.32 420.792C404.309 421.336 404.416 421.827 404.64 422.264C404.864 422.691 405.173 423.032 405.568 423.288C405.973 423.533 406.427 423.656 406.928 423.656ZM414.747 425L411.883 416.6L413.547 416.584L415.595 422.872L415.227 422.84L417.451 417.928H418.443L420.683 422.856L420.251 422.888L422.315 416.6H423.979L421.147 425H420.011L417.675 419.656L418.043 419.704L415.867 425H414.747ZM425.48 425V416.6H427.128V418.328L426.84 418.52C426.947 418.147 427.155 417.805 427.464 417.496C427.773 417.176 428.141 416.92 428.568 416.728C428.995 416.525 429.432 416.424 429.88 416.424C430.52 416.424 431.053 416.552 431.48 416.808C431.907 417.053 432.227 417.432 432.44 417.944C432.653 418.456 432.76 419.101 432.76 419.88V425H431.112V419.992C431.112 419.512 431.048 419.117 430.92 418.808C430.792 418.488 430.595 418.259 430.328 418.12C430.061 417.971 429.731 417.907 429.336 417.928C429.016 417.928 428.723 417.981 428.456 418.088C428.189 418.184 427.955 418.323 427.752 418.504C427.56 418.685 427.405 418.899 427.288 419.144C427.181 419.379 427.128 419.635 427.128 419.912V425H426.312C426.173 425 426.035 425 425.896 425C425.757 425 425.619 425 425.48 425ZM439.48 425V413.16H441.128V418.328L440.84 418.52C440.947 418.147 441.155 417.805 441.464 417.496C441.773 417.176 442.141 416.92 442.568 416.728C442.995 416.525 443.432 416.424 443.88 416.424C444.52 416.424 445.053 416.552 445.48 416.808C445.907 417.053 446.227 417.432 446.44 417.944C446.653 418.456 446.76 419.101 446.76 419.88V425H445.112V419.992C445.112 419.512 445.048 419.117 444.92 418.808C444.792 418.488 444.595 418.259 444.328 418.12C444.061 417.971 443.731 417.907 443.336 417.928C443.016 417.928 442.723 417.981 442.456 418.088C442.189 418.184 441.955 418.323 441.752 418.504C441.56 418.685 441.405 418.899 441.288 419.144C441.181 419.379 441.128 419.635 441.128 419.912V425H440.312C440.173 425 440.035 425 439.896 425C439.757 425 439.619 425 439.48 425ZM453.972 425V419.528C453.972 419.059 453.801 418.68 453.46 418.392C453.129 418.093 452.708 417.944 452.196 417.944C451.726 417.944 451.3 418.04 450.916 418.232C450.542 418.424 450.201 418.717 449.892 419.112L448.82 418.04C449.321 417.496 449.86 417.091 450.436 416.824C451.022 416.557 451.652 416.424 452.324 416.424C452.964 416.424 453.518 416.531 453.988 416.744C454.457 416.957 454.82 417.272 455.076 417.688C455.332 418.093 455.46 418.589 455.46 419.176V425H453.972ZM451.46 425.16C450.916 425.16 450.43 425.053 450.004 424.84C449.577 424.627 449.236 424.333 448.98 423.96C448.734 423.576 448.612 423.128 448.612 422.616C448.612 422.168 448.692 421.773 448.852 421.432C449.012 421.091 449.246 420.808 449.556 420.584C449.876 420.36 450.27 420.189 450.74 420.072C451.22 419.955 451.769 419.896 452.388 419.896H454.724L454.58 421.208H452.18C451.86 421.208 451.572 421.24 451.316 421.304C451.07 421.357 450.857 421.448 450.676 421.576C450.505 421.693 450.377 421.837 450.292 422.008C450.206 422.168 450.164 422.36 450.164 422.584C450.164 422.819 450.222 423.027 450.34 423.208C450.457 423.379 450.617 423.512 450.82 423.608C451.022 423.704 451.257 423.752 451.524 423.752C451.908 423.752 452.27 423.688 452.612 423.56C452.964 423.421 453.273 423.235 453.54 423C453.817 422.765 454.03 422.504 454.18 422.216L454.564 423.288C454.34 423.661 454.062 423.987 453.732 424.264C453.401 424.541 453.044 424.76 452.66 424.92C452.276 425.08 451.876 425.16 451.46 425.16ZM460.343 425.16C459.639 425.16 459.004 425.037 458.439 424.792C457.873 424.547 457.404 424.184 457.031 423.704L458.151 422.744C458.471 423.117 458.817 423.389 459.191 423.56C459.575 423.72 460.007 423.8 460.487 423.8C460.679 423.8 460.855 423.779 461.015 423.736C461.185 423.683 461.329 423.608 461.447 423.512C461.575 423.416 461.671 423.304 461.735 423.176C461.799 423.037 461.831 422.888 461.831 422.728C461.831 422.451 461.729 422.227 461.527 422.056C461.42 421.981 461.249 421.901 461.015 421.816C460.791 421.72 460.497 421.624 460.135 421.528C459.516 421.368 459.009 421.187 458.615 420.984C458.22 420.781 457.916 420.552 457.703 420.296C457.543 420.093 457.425 419.875 457.351 419.64C457.276 419.395 457.239 419.128 457.239 418.84C457.239 418.371 457.372 417.955 457.639 417.592C457.905 417.229 458.263 416.947 458.711 416.744C459.169 416.531 459.681 416.424 460.247 416.424C460.641 416.424 461.031 416.477 461.415 416.584C461.809 416.691 462.172 416.845 462.503 417.048C462.833 417.251 463.111 417.491 463.335 417.768L462.391 418.808C462.188 418.605 461.964 418.429 461.719 418.28C461.484 418.12 461.244 417.997 460.999 417.912C460.753 417.827 460.529 417.784 460.327 417.784C460.103 417.784 459.9 417.805 459.719 417.848C459.537 417.891 459.383 417.955 459.255 418.04C459.137 418.125 459.047 418.232 458.983 418.36C458.919 418.488 458.887 418.632 458.887 418.792C458.897 418.931 458.929 419.064 458.983 419.192C459.047 419.309 459.132 419.411 459.239 419.496C459.356 419.581 459.532 419.672 459.767 419.768C460.001 419.864 460.3 419.955 460.663 420.04C461.196 420.179 461.633 420.333 461.975 420.504C462.327 420.664 462.604 420.851 462.807 421.064C463.02 421.267 463.169 421.501 463.255 421.768C463.34 422.035 463.383 422.333 463.383 422.664C463.383 423.144 463.244 423.576 462.967 423.96C462.7 424.333 462.337 424.627 461.879 424.84C461.42 425.053 460.908 425.16 460.343 425.16ZM465.199 425V413.16H466.847V418.328L466.559 418.52C466.666 418.147 466.874 417.805 467.183 417.496C467.492 417.176 467.86 416.92 468.287 416.728C468.714 416.525 469.151 416.424 469.599 416.424C470.239 416.424 470.772 416.552 471.199 416.808C471.626 417.053 471.946 417.432 472.159 417.944C472.372 418.456 472.479 419.101 472.479 419.88V425H470.831V419.992C470.831 419.512 470.767 419.117 470.639 418.808C470.511 418.488 470.314 418.259 470.047 418.12C469.78 417.971 469.45 417.907 469.055 417.928C468.735 417.928 468.442 417.981 468.175 418.088C467.908 418.184 467.674 418.323 467.471 418.504C467.279 418.685 467.124 418.899 467.007 419.144C466.9 419.379 466.847 419.635 466.847 419.912V425H466.031C465.892 425 465.754 425 465.615 425C465.476 425 465.338 425 465.199 425Z" fill="#0D0D0D"/>
<path d="M389 105H345" stroke="#0D0D0D" stroke-width="5"/>
<path d="M389 407H345" stroke="#0D0D0D" stroke-width="5"/>
<path d="M238.64 334.453L238.64 266.693" stroke="#0D0D0D" stroke-width="5"/>
<path d="M146.968 135.942V93.5299L161.132 100.952C165.096 103.028 169.442 104.107 173.846 104.107C178.251 104.107 182.597 103.028 186.56 100.952L200.725 93.5299L214.89 100.952C218.853 103.028 223.2 104.107 227.604 104.107C232.008 104.107 236.355 103.028 240.318 100.952L254.483 93.5299L268.648 100.952C272.611 103.028 276.958 104.107 281.362 104.107C285.766 104.107 290.113 103.028 294.076 100.952L308.241 93.5299L322.405 100.952C326.368 103.028 330.715 104.107 335.119 104.107C339.523 104.107 343.87 103.028 347.833 100.952L361.998 93.5299V135.942H146.968Z" fill="#0D0D0D"/>
<path d="M140.001 128.414V86L154.166 93.4219C158.129 95.4984 162.476 96.5771 166.88 96.5771C171.284 96.5771 175.631 95.4984 179.594 93.4219L193.759 86L207.924 93.4219C211.887 95.4984 216.234 96.5771 220.638 96.5771C225.042 96.5771 229.389 95.4984 233.352 93.4219L247.517 86L261.682 93.4219C265.645 95.4984 269.992 96.5771 274.396 96.5771C278.8 96.5771 283.146 95.4984 287.11 93.4219L301.274 86L315.439 93.4219C319.402 95.4984 323.749 96.5771 328.153 96.5771C332.557 96.5771 336.904 95.4984 340.867 93.4219L355.032 86V128.414H140.001Z" fill="white" stroke="#0D0D0D" stroke-width="2" stroke-miterlimit="10"/>
<path d="M361.945 401.153C361.949 401.153 361.954 401.154 361.959 401.156C361.963 401.158 361.967 401.161 361.971 401.164C361.974 401.168 361.977 401.172 361.979 401.177C361.981 401.181 361.982 401.186 361.982 401.191V425.646C361.982 429.825 360.364 433.832 357.483 436.787C354.603 439.741 350.697 441.401 346.624 441.401C342.55 441.401 338.644 439.741 335.764 436.787C332.884 433.832 331.266 429.825 331.266 425.646C331.265 423.477 330.828 421.331 329.981 419.343C329.135 417.355 327.898 415.568 326.347 414.093C324.796 412.618 322.965 411.488 320.969 410.772C318.972 410.057 316.854 409.772 314.745 409.935C310.673 410.24 307.144 412.208 304.622 415.148C302.137 418.043 300.629 421.882 300.539 426.006C300.447 430.152 298.765 434.094 295.857 436.976C292.95 439.858 289.052 441.447 285.01 441.4C280.967 441.353 277.106 439.672 274.263 436.723C271.421 433.774 269.827 429.794 269.827 425.646C269.824 421.469 268.205 417.463 265.324 414.51C262.444 411.558 258.538 409.899 254.466 409.899C250.393 409.899 246.488 411.558 243.607 414.51C240.727 417.463 239.107 421.469 239.104 425.646C239.104 429.825 237.486 433.832 234.606 436.787C231.726 439.741 227.819 441.401 223.746 441.401C219.673 441.401 215.767 439.741 212.887 436.787C210.006 433.832 208.388 429.825 208.388 425.646C208.388 423.478 207.952 421.333 207.107 419.345C206.262 417.357 205.025 415.57 203.476 414.095C201.926 412.62 200.096 411.49 198.1 410.774C196.105 410.058 193.987 409.772 191.879 409.935C183.793 410.539 177.853 417.696 177.668 426.012C177.573 430.165 175.883 434.113 172.965 436.994C170.048 439.876 166.138 441.459 162.089 441.399C153.629 441.279 146.95 433.932 146.95 425.253V401.191C146.95 401.181 146.954 401.172 146.96 401.164C146.967 401.157 146.977 401.153 146.987 401.153H361.945Z" fill="#0D0D0D"/>
<path d="M354.995 393.912C355 393.912 355.005 393.913 355.009 393.915C355.014 393.917 355.018 393.919 355.021 393.923C355.025 393.927 355.027 393.931 355.029 393.935C355.031 393.94 355.032 393.945 355.032 393.95V418.405C355.032 422.583 353.414 426.591 350.534 429.545C347.654 432.5 343.747 434.16 339.674 434.16C335.601 434.16 331.694 432.5 328.814 429.545C325.934 426.591 324.316 422.583 324.316 418.405C324.315 416.236 323.878 414.09 323.032 412.102C322.185 410.114 320.948 408.326 319.397 406.852C317.846 405.377 316.016 404.246 314.019 403.531C312.023 402.815 309.904 402.53 307.795 402.694C299.713 403.3 293.771 410.453 293.589 418.764C293.497 422.911 291.815 426.852 288.908 429.734C286 432.616 282.103 434.206 278.06 434.159C274.018 434.111 270.156 432.431 267.314 429.481C264.471 426.532 262.877 422.552 262.877 418.405C262.875 414.227 261.255 410.222 258.374 407.269C255.494 404.316 251.588 402.657 247.516 402.657C243.444 402.657 239.538 404.316 236.658 407.269C233.777 410.222 232.157 414.227 232.155 418.405C232.155 422.583 230.537 426.591 227.656 429.545C224.776 432.5 220.87 434.16 216.797 434.16C212.723 434.16 208.817 432.5 205.937 429.545C203.057 426.591 201.439 422.583 201.439 418.405C201.439 416.236 201.003 414.091 200.157 412.103C199.312 410.116 198.076 408.329 196.526 406.854C194.976 405.379 193.146 404.248 191.151 403.532C189.155 402.816 187.037 402.531 184.929 402.693C176.843 403.298 170.903 410.455 170.719 418.77C170.624 422.924 168.933 426.871 166.016 429.753C163.098 432.635 159.189 434.218 155.139 434.158C146.679 434.037 140 426.691 140 418.012V393.95C140 393.94 140.004 393.93 140.011 393.923C140.018 393.916 140.027 393.912 140.037 393.912H354.995Z" fill="#01F293" stroke="#0D0D0D" stroke-width="2" stroke-miterlimit="10"/>
<path d="M344.578 155.693H160.868C152.219 155.693 145.208 163.272 145.208 172.622V362.951C145.208 372.301 152.219 379.88 160.868 379.88H344.578C353.227 379.88 360.239 372.301 360.239 362.951V172.622C360.239 163.272 353.227 155.693 344.578 155.693Z" fill="#0D0D0D"/>
<path d="M339.37 150.064H155.66C147.011 150.064 140 157.643 140 166.993V357.323C140 366.673 147.011 374.252 155.66 374.252H339.37C348.019 374.252 355.031 366.673 355.031 357.323V166.993C355.031 157.643 348.019 150.064 339.37 150.064Z" fill="white" stroke="#0D0D0D" stroke-width="2" stroke-miterlimit="10"/>
<path d="M320.786 200.309C320.785 205.681 318.952 210.865 315.636 214.866C312.321 218.868 307.756 221.407 302.817 221.997C297.877 222.587 292.91 221.186 288.866 218.063C284.823 214.941 281.987 210.315 280.902 205.072H211.206C210.121 210.315 207.285 214.941 203.241 218.064C199.197 221.186 194.23 222.587 189.29 221.997C184.351 221.407 179.786 218.867 176.471 214.865C173.155 210.863 171.322 205.68 171.322 200.307C171.322 194.935 173.155 189.751 176.471 185.749C179.786 181.747 184.351 179.208 189.29 178.618C194.23 178.027 199.197 179.428 203.241 182.551C207.285 185.674 210.121 190.299 211.206 195.542H280.902C281.987 190.299 284.823 185.673 288.867 182.55C292.911 179.428 297.879 178.027 302.818 178.618C307.758 179.208 312.323 181.748 315.638 185.75C318.953 189.753 320.786 194.936 320.786 200.309Z" stroke="#0D0D0D" stroke-width="2" stroke-miterlimit="10"/>
<path d="M324.192 203.992C324.191 209.364 322.358 214.547 319.042 218.549C315.727 222.551 311.162 225.09 306.223 225.68C301.283 226.27 296.316 224.869 292.272 221.746C288.229 218.623 285.393 213.998 284.308 208.755H214.612C213.527 213.998 210.691 218.624 206.647 221.746C202.603 224.869 197.636 226.27 192.696 225.68C187.757 225.089 183.192 222.55 179.877 218.548C176.561 214.546 174.728 209.362 174.728 203.99C174.728 198.618 176.561 193.434 179.877 189.432C183.192 185.43 187.757 182.89 192.696 182.3C197.636 181.71 202.603 183.111 206.647 186.233C210.691 189.356 213.527 193.982 214.612 199.225H284.308C285.393 193.982 288.229 189.356 292.273 186.233C296.317 183.11 301.285 181.71 306.224 182.3C311.164 182.891 315.729 185.43 319.044 189.433C322.359 193.435 324.192 198.619 324.192 203.992V203.992Z" stroke="#0D0D0D" stroke-width="2" stroke-miterlimit="10"/>
<path d="M317.375 196.624C317.375 201.996 315.541 207.18 312.226 211.181C308.91 215.183 304.346 217.722 299.406 218.312C294.467 218.902 289.5 217.501 285.456 214.378C281.412 211.256 278.576 206.63 277.491 201.387H207.796C206.711 206.63 203.875 211.256 199.831 214.379C195.787 217.501 190.82 218.902 185.88 218.312C180.94 217.722 176.376 215.182 173.06 211.18C169.745 207.178 167.912 201.995 167.912 196.622C167.912 191.25 169.745 186.067 173.06 182.065C176.376 178.062 180.94 175.523 185.88 174.933C190.82 174.343 195.787 175.743 199.831 178.866C203.875 181.989 206.711 186.615 207.796 191.857H277.491C278.576 186.615 281.413 181.989 285.457 178.866C289.501 175.743 294.468 174.343 299.408 174.933C304.348 175.524 308.912 178.063 312.228 182.066C315.543 186.068 317.376 191.252 317.375 196.624Z" fill="white" stroke="#0D0D0D" stroke-width="2" stroke-miterlimit="10"/>
<path d="M188.095 214.493C197.225 214.493 204.626 206.492 204.626 196.622C204.626 186.752 197.225 178.751 188.095 178.751C178.965 178.751 171.564 186.752 171.564 196.622C171.564 206.492 178.965 214.493 188.095 214.493Z" fill="#0D0D0D"/>
<path d="M297.193 214.493C306.323 214.493 313.724 206.492 313.724 196.622C313.724 186.752 306.323 178.751 297.193 178.751C288.063 178.751 280.662 186.752 280.662 196.622C280.662 206.492 288.063 214.493 297.193 214.493Z" fill="#0D0D0D"/>
<path d="M320.786 258.998C320.785 264.37 318.952 269.553 315.636 273.555C312.321 277.557 307.756 280.096 302.817 280.685C297.877 281.275 292.91 279.875 288.866 276.752C284.823 273.629 281.987 269.004 280.902 263.761H211.206C210.121 269.004 207.285 273.63 203.241 276.752C199.197 279.875 194.23 281.275 189.29 280.685C184.351 280.095 179.786 277.556 176.471 273.554C173.155 269.552 171.322 264.369 171.322 258.996C171.322 253.624 173.155 248.441 176.471 244.439C179.786 240.437 184.351 237.898 189.29 237.307C194.23 236.717 199.197 238.118 203.241 241.24C207.285 244.363 210.121 248.989 211.206 254.231H280.902C281.987 248.989 284.823 244.363 288.867 241.24C292.911 238.117 297.879 236.717 302.818 237.308C307.758 237.898 312.323 240.437 315.638 244.44C318.953 248.442 320.786 253.626 320.786 258.998Z" stroke="#0D0D0D" stroke-width="2" stroke-miterlimit="10"/>
<path d="M324.192 262.682C324.191 268.054 322.358 273.237 319.042 277.239C315.727 281.241 311.162 283.78 306.223 284.37C301.283 284.959 296.316 283.559 292.272 280.436C288.229 277.313 285.393 272.688 284.308 267.445H214.612C213.527 272.688 210.691 277.314 206.647 280.436C202.603 283.559 197.636 284.96 192.696 284.369C187.757 283.779 183.192 281.24 179.877 277.238C176.561 273.236 174.728 268.053 174.728 262.68C174.728 257.308 176.561 252.125 179.877 248.123C183.192 244.121 187.757 241.582 192.696 240.991C197.636 240.401 202.603 241.802 206.647 244.924C210.691 248.047 213.527 252.673 214.612 257.915H284.308C285.393 252.673 288.229 248.047 292.273 244.924C296.317 241.801 301.285 240.401 306.224 240.992C311.164 241.582 315.729 244.122 319.044 248.124C322.359 252.126 324.192 257.31 324.192 262.682V262.682Z" stroke="#0D0D0D" stroke-width="2" stroke-miterlimit="10"/>
<path d="M317.375 255.314C317.375 260.686 315.541 265.869 312.226 269.871C308.91 273.872 304.346 276.411 299.406 277.001C294.467 277.591 289.5 276.191 285.456 273.068C281.412 269.945 278.576 265.32 277.491 260.077H207.796C206.711 265.32 203.875 269.945 199.831 273.068C195.787 276.191 190.82 277.591 185.88 277.001C180.94 276.411 176.376 273.872 173.06 269.87C169.745 265.868 167.912 260.685 167.912 255.312C167.912 249.94 169.745 244.757 173.06 240.755C176.376 236.753 180.94 234.214 185.88 233.624C190.82 233.034 195.787 234.434 199.831 237.557C203.875 240.679 206.711 245.305 207.796 250.547H277.491C278.576 245.305 281.413 240.679 285.457 237.557C289.501 234.434 294.468 233.034 299.408 233.624C304.348 234.214 308.912 236.754 312.228 240.756C315.543 244.758 317.376 249.942 317.375 255.314V255.314Z" fill="white" stroke="#0D0D0D" stroke-width="2" stroke-miterlimit="10"/>
<path d="M188.095 273.183C197.225 273.183 204.626 265.182 204.626 255.312C204.626 245.443 197.225 237.442 188.095 237.442C178.965 237.442 171.564 245.443 171.564 255.312C171.564 265.182 178.965 273.183 188.095 273.183Z" fill="#0D0D0D"/>
<path d="M297.193 273.183C306.323 273.183 313.724 265.182 313.724 255.312C313.724 245.443 306.323 237.442 297.193 237.442C288.063 237.442 280.662 245.443 280.662 255.312C280.662 265.182 288.063 273.183 297.193 273.183Z" fill="#0D0D0D"/>
<path d="M320.786 317.689C320.785 323.061 318.952 328.244 315.636 332.245C312.321 336.247 307.756 338.786 302.817 339.376C297.877 339.966 292.91 338.565 288.866 335.442C284.823 332.32 281.987 327.694 280.902 322.452H211.206C210.121 327.694 207.285 332.32 203.241 335.443C199.197 338.565 194.23 339.966 189.29 339.376C184.351 338.785 179.786 336.246 176.471 332.244C173.155 328.242 171.322 323.059 171.322 317.687C171.322 312.314 173.155 307.131 176.471 303.129C179.786 299.127 184.351 296.588 189.29 295.998C194.23 295.408 199.197 296.808 203.241 299.931C207.285 303.053 210.121 307.679 211.206 312.922H280.902C281.987 307.679 284.823 303.053 288.867 299.93C292.911 296.808 297.879 295.407 302.818 295.998C307.758 296.588 312.323 299.128 315.638 303.13C318.953 307.132 320.786 312.316 320.786 317.689V317.689Z" stroke="#0D0D0D" stroke-width="2" stroke-miterlimit="10"/>
<path d="M324.192 321.372C324.191 326.744 322.358 331.927 319.042 335.929C315.727 339.931 311.162 342.469 306.223 343.059C301.283 343.649 296.316 342.249 292.272 339.126C288.229 336.003 285.393 331.378 284.308 326.135H214.612C213.527 331.378 210.691 336.003 206.647 339.126C202.603 342.249 197.636 343.649 192.696 343.059C187.757 342.469 183.192 339.93 179.877 335.928C176.561 331.926 174.728 326.742 174.728 321.37C174.728 315.998 176.561 310.814 179.877 306.812C183.192 302.81 187.757 300.271 192.696 299.681C197.636 299.091 202.603 300.491 206.647 303.614C210.691 306.737 213.527 311.362 214.612 316.605H284.308C285.393 311.362 288.229 306.736 292.273 303.614C296.317 300.491 301.285 299.09 306.224 299.681C311.164 300.271 315.729 302.811 319.044 306.813C322.359 310.816 324.192 315.999 324.192 321.372V321.372Z" stroke="#0D0D0D" stroke-width="2" stroke-miterlimit="10"/>
<path d="M317.375 314.004C317.375 319.376 315.541 324.56 312.226 328.561C308.91 332.563 304.346 335.102 299.406 335.692C294.467 336.282 289.5 334.881 285.456 331.758C281.412 328.635 278.576 324.01 277.491 318.767H207.796C206.711 324.01 203.875 328.636 199.831 331.758C195.787 334.881 190.82 336.282 185.88 335.692C180.94 335.101 176.376 332.562 173.06 328.56C169.745 324.558 167.912 319.375 167.912 314.002C167.912 308.63 169.745 303.446 173.06 299.444C176.376 295.442 180.94 292.903 185.88 292.313C190.82 291.723 195.787 293.123 199.831 296.246C203.875 299.369 206.711 303.995 207.796 309.237H277.491C278.576 303.994 281.413 299.369 285.457 296.246C289.501 293.123 294.468 291.723 299.408 292.313C304.348 292.904 308.912 295.443 312.228 299.445C315.543 303.448 317.376 308.632 317.375 314.004V314.004Z" fill="white" stroke="#0D0D0D" stroke-width="2" stroke-miterlimit="10"/>
<path d="M188.095 331.873C197.225 331.873 204.626 323.872 204.626 314.003C204.626 304.133 197.225 296.132 188.095 296.132C178.965 296.132 171.564 304.133 171.564 314.003C171.564 323.872 178.965 331.873 188.095 331.873Z" fill="#0D0D0D"/>
<path d="M297.193 331.873C306.323 331.873 313.724 323.872 313.724 314.003C313.724 304.133 306.323 296.132 297.193 296.132C288.063 296.132 280.662 304.133 280.662 314.003C280.662 323.872 288.063 331.873 297.193 331.873Z" fill="#0D0D0D"/>
<path d="M314.612 313.171C314.612 318.411 312.811 323.466 309.554 327.369C306.297 331.272 301.813 333.749 296.962 334.324C292.11 334.899 287.231 333.533 283.259 330.488C279.287 327.442 276.501 322.93 275.435 317.817H206.976C205.91 322.93 203.124 327.442 199.152 330.488C195.18 333.534 190.301 334.9 185.449 334.324C180.597 333.748 176.113 331.272 172.856 327.368C169.6 323.465 167.799 318.409 167.799 313.169C167.799 307.929 169.6 302.874 172.856 298.97C176.113 295.067 180.597 292.59 185.449 292.015C190.301 291.439 195.18 292.805 199.152 295.851C203.124 298.897 205.91 303.408 206.976 308.522H275.435C276.501 303.408 279.287 298.896 283.259 295.85C287.232 292.805 292.111 291.439 296.963 292.015C301.815 292.591 306.299 295.068 309.556 298.971C312.812 302.875 314.612 307.931 314.612 313.171V313.171Z" fill="white" stroke="#0D0D0D" stroke-width="2" stroke-miterlimit="10"/>
<path d="M187.629 330.716C196.6 330.716 203.872 322.888 203.872 313.233C203.872 303.578 196.6 295.75 187.629 295.75C178.659 295.75 171.386 303.578 171.386 313.233C171.386 322.888 178.659 330.716 187.629 330.716Z" fill="#0D0D0D"/>
<path d="M181.9 304.952V312.129" stroke="white" stroke-width="4" stroke-miterlimit="10" stroke-linecap="round"/>
<path d="M193.357 304.952V312.129" stroke="white" stroke-width="4" stroke-miterlimit="10" stroke-linecap="round"/>
<path d="M198.879 314.887C197.087 321.413 191.824 323.904 187.629 323.904C183.434 323.904 178.171 321.413 176.379 314.887" stroke="white" stroke-width="4" stroke-miterlimit="10" stroke-linecap="round"/>
<path d="M294.826 330.717C303.797 330.717 311.069 322.889 311.069 313.234C311.069 303.579 303.797 295.751 294.826 295.751C285.855 295.751 278.583 303.579 278.583 313.234C278.583 322.889 285.855 330.717 294.826 330.717Z" fill="#0D0D0D"/>
<path d="M306.076 314.887C304.283 321.414 299.021 323.905 294.825 323.905C290.63 323.905 285.368 321.414 283.575 314.887" stroke="white" stroke-width="4" stroke-miterlimit="10" stroke-linecap="round"/>
<path d="M289.097 304.953V312.13" stroke="white" stroke-width="4" stroke-miterlimit="10" stroke-linecap="round"/>
<path d="M300.555 304.953V312.13" stroke="white" stroke-width="4" stroke-miterlimit="10" stroke-linecap="round"/>
<rect x="207.943" y="312.206" width="4.46058" height="2.39226" fill="#0D0D0D"/>
<rect x="270.391" y="312.206" width="4.46058" height="2.39226" fill="#0D0D0D"/>
<rect x="214.636" y="312.206" width="8.92115" height="2.39226" fill="#0D0D0D"/>
<rect x="225.784" y="312.206" width="8.92115" height="2.39226" fill="#0D0D0D"/>
<rect x="236.938" y="312.206" width="8.92115" height="2.39226" fill="#0D0D0D"/>
<rect x="248.089" y="312.206" width="8.92115" height="2.39226" fill="#0D0D0D"/>
<rect x="259.239" y="312.206" width="8.92115" height="2.39226" fill="#0D0D0D"/>
<path d="M314.612 254.967C314.612 260.207 312.811 265.262 309.554 269.165C306.297 273.068 301.813 275.545 296.962 276.12C292.11 276.695 287.231 275.329 283.259 272.284C279.287 269.238 276.501 264.726 275.435 259.613H206.976C205.91 264.726 203.124 269.238 199.152 272.284C195.18 275.33 190.301 276.696 185.449 276.12C180.597 275.544 176.113 273.068 172.856 269.164C169.6 265.261 167.799 260.205 167.799 254.965C167.799 249.725 169.6 244.67 172.856 240.766C176.113 236.863 180.597 234.386 185.449 233.811C190.301 233.235 195.18 234.601 199.152 237.647C203.124 240.693 205.91 245.204 206.976 250.318H275.435C276.501 245.204 279.287 240.692 283.259 237.646C287.232 234.601 292.111 233.235 296.963 233.811C301.815 234.387 306.299 236.864 309.556 240.767C312.812 244.671 314.612 249.727 314.612 254.967V254.967Z" fill="white" stroke="#0D0D0D" stroke-width="2" stroke-miterlimit="10"/>
<path d="M187.629 272.512C196.6 272.512 203.872 264.684 203.872 255.029C203.872 245.374 196.6 237.547 187.629 237.547C178.659 237.547 171.386 245.374 171.386 255.029C171.386 264.684 178.659 272.512 187.629 272.512Z" fill="#0D0D0D"/>
<path d="M181.9 246.748V253.925" stroke="white" stroke-width="4" stroke-miterlimit="10" stroke-linecap="round"/>
<path d="M193.357 246.748V253.925" stroke="white" stroke-width="4" stroke-miterlimit="10" stroke-linecap="round"/>
<path d="M198.879 256.683C197.087 263.209 191.824 265.7 187.629 265.7C183.434 265.7 178.171 263.209 176.379 256.683" stroke="white" stroke-width="4" stroke-miterlimit="10" stroke-linecap="round"/>
<path d="M294.826 272.513C303.797 272.513 311.069 264.685 311.069 255.03C311.069 245.375 303.797 237.547 294.826 237.547C285.855 237.547 278.583 245.375 278.583 255.03C278.583 264.685 285.855 272.513 294.826 272.513Z" fill="#0D0D0D"/>
<path d="M306.076 256.683C304.283 263.21 299.021 265.701 294.825 265.701C290.63 265.701 285.368 263.21 283.575 256.683" stroke="white" stroke-width="4" stroke-miterlimit="10" stroke-linecap="round"/>
<path d="M289.097 246.749V253.926" stroke="white" stroke-width="4" stroke-miterlimit="10" stroke-linecap="round"/>
<path d="M300.555 246.749V253.926" stroke="white" stroke-width="4" stroke-miterlimit="10" stroke-linecap="round"/>
<rect x="207.943" y="254.002" width="4.46058" height="2.39226" fill="#0D0D0D"/>
<rect x="270.391" y="254.001" width="4.46058" height="2.39226" fill="#0D0D0D"/>
<rect x="214.636" y="254.001" width="8.92115" height="2.39226" fill="#0D0D0D"/>
<rect x="225.784" y="254.001" width="8.92115" height="2.39226" fill="#0D0D0D"/>
<rect x="236.938" y="254.001" width="8.92115" height="2.39226" fill="#0D0D0D"/>
<rect x="248.089" y="254.001" width="8.92115" height="2.39226" fill="#0D0D0D"/>
<rect x="259.239" y="254.001" width="8.92115" height="2.39226" fill="#0D0D0D"/>
<path d="M314.612 195.894C314.612 201.134 312.811 206.19 309.554 210.093C306.297 213.996 301.813 216.472 296.962 217.047C292.11 217.623 287.231 216.257 283.259 213.211C279.287 210.165 276.501 205.654 275.435 200.54H206.976C205.91 205.654 203.124 210.165 199.152 213.211C195.18 216.257 190.301 217.623 185.449 217.047C180.597 216.472 176.113 213.995 172.856 210.092C169.6 206.188 167.799 201.133 167.799 195.893C167.799 190.653 169.6 185.597 172.856 181.694C176.113 177.79 180.597 175.314 185.449 174.738C190.301 174.162 195.18 175.528 199.152 178.574C203.124 181.62 205.91 186.132 206.976 191.245H275.435C276.501 186.131 279.287 181.62 283.259 178.574C287.232 175.528 292.111 174.162 296.963 174.738C301.815 175.314 306.299 177.791 309.556 181.695C312.812 185.598 314.612 190.654 314.612 195.894V195.894Z" fill="white" stroke="#0D0D0D" stroke-width="2" stroke-miterlimit="10"/>
<path d="M187.629 213.439C196.6 213.439 203.872 205.612 203.872 195.956C203.872 186.301 196.6 178.474 187.629 178.474C178.659 178.474 171.386 186.301 171.386 195.956C171.386 205.612 178.659 213.439 187.629 213.439Z" fill="#0D0D0D"/>
<path d="M181.9 187.675V194.852" stroke="white" stroke-width="4" stroke-miterlimit="10" stroke-linecap="round"/>
<path d="M193.357 187.675V194.852" stroke="white" stroke-width="4" stroke-miterlimit="10" stroke-linecap="round"/>
<path d="M198.879 197.61C197.087 204.136 191.824 206.627 187.629 206.627C183.434 206.627 178.171 204.136 176.379 197.61" stroke="white" stroke-width="4" stroke-miterlimit="10" stroke-linecap="round"/>
<path d="M294.826 213.44C303.797 213.44 311.069 205.613 311.069 195.957C311.069 186.302 303.797 178.475 294.826 178.475C285.855 178.475 278.583 186.302 278.583 195.957C278.583 205.613 285.855 213.44 294.826 213.44Z" fill="#0D0D0D"/>
<path d="M306.076 197.61C304.283 204.137 299.021 206.628 294.825 206.628C290.63 206.628 285.368 204.137 283.575 197.61" stroke="white" stroke-width="4" stroke-miterlimit="10" stroke-linecap="round"/>
<path d="M289.097 187.676V194.853" stroke="white" stroke-width="4" stroke-miterlimit="10" stroke-linecap="round"/>
<path d="M300.555 187.676V194.853" stroke="white" stroke-width="4" stroke-miterlimit="10" stroke-linecap="round"/>
<rect x="207.943" y="194.929" width="4.46058" height="2.39226" fill="#0D0D0D"/>
<rect x="270.391" y="194.929" width="4.46058" height="2.39226" fill="#0D0D0D"/>
<rect x="214.636" y="194.929" width="8.92115" height="2.39226" fill="#0D0D0D"/>
<rect x="225.784" y="194.929" width="8.92115" height="2.39226" fill="#0D0D0D"/>
<rect x="236.938" y="194.929" width="8.92115" height="2.39226" fill="#0D0D0D"/>
<rect x="248.089" y="194.929" width="8.92115" height="2.39226" fill="#0D0D0D"/>
<rect x="259.239" y="194.929" width="8.92115" height="2.39226" fill="#0D0D0D"/>
<path d="M349.515 538.109H161.372C152.515 538.109 145.334 545.871 145.334 555.447L145.334 750.369C145.334 759.945 152.515 767.707 161.372 767.707H349.515C358.373 767.707 365.553 759.945 365.553 750.369V555.447C365.553 545.871 358.373 538.109 349.515 538.109Z" fill="black"/>
<path d="M344.181 532.345H156.038C147.181 532.345 140 540.108 140 549.683L140 744.606C140 754.181 147.181 761.943 156.038 761.943H344.181C353.039 761.943 360.219 754.181 360.219 744.606V549.683C360.219 540.108 353.039 532.345 344.181 532.345Z" fill="white" stroke="black" stroke-width="2" stroke-miterlimit="10"/>
<path d="M325.148 583.802C325.147 589.303 323.269 594.612 319.874 598.71C316.478 602.808 311.804 605.408 306.745 606.013C301.686 606.617 296.599 605.182 292.458 601.984C288.317 598.786 285.412 594.049 284.301 588.68H212.924C211.813 594.049 208.908 598.786 204.767 601.984C200.625 605.183 195.538 606.617 190.479 606.012C185.42 605.408 180.746 602.807 177.35 598.709C173.955 594.61 172.077 589.302 172.077 583.8C172.077 578.298 173.955 572.989 177.35 568.891C180.746 564.792 185.42 562.191 190.479 561.587C195.538 560.983 200.625 562.417 204.767 565.615C208.908 568.813 211.813 573.55 212.924 578.92H284.301C285.412 573.55 288.317 568.813 292.459 565.615C296.6 562.417 301.688 560.983 306.747 561.587C311.805 562.192 316.48 564.793 319.876 568.892C323.271 572.991 325.148 578.299 325.148 583.802Z" stroke="black" stroke-width="2" stroke-miterlimit="10"/>
<path d="M328.636 587.575C328.636 593.076 326.758 598.384 323.363 602.482C319.967 606.58 315.292 609.18 310.234 609.784C305.175 610.388 300.088 608.954 295.947 605.756C291.805 602.558 288.901 597.821 287.79 592.453H216.413C215.301 597.821 212.397 602.558 208.255 605.756C204.114 608.954 199.027 610.388 193.968 609.784C188.909 609.18 184.234 606.579 180.839 602.481C177.443 598.383 175.566 593.074 175.566 587.573C175.566 582.071 177.443 576.763 180.839 572.665C184.234 568.566 188.909 565.966 193.968 565.361C199.027 564.757 204.114 566.191 208.255 569.389C212.397 572.587 215.301 577.324 216.413 582.693H287.79C288.901 577.324 291.806 572.587 295.947 569.389C300.089 566.191 305.176 564.757 310.235 565.362C315.294 565.966 319.969 568.567 323.364 572.666C326.76 576.764 328.637 582.073 328.636 587.575V587.575Z" stroke="black" stroke-width="2" stroke-miterlimit="10"/>
<path d="M321.654 580.029C321.654 585.531 319.776 590.839 316.381 594.937C312.985 599.035 308.31 601.635 303.252 602.239C298.193 602.844 293.106 601.409 288.965 598.211C284.824 595.013 281.919 590.276 280.808 584.907H209.431C208.32 590.276 205.415 595.013 201.274 598.211C197.132 601.409 192.045 602.844 186.986 602.239C181.927 601.635 177.253 599.034 173.857 594.936C170.462 590.837 168.584 585.529 168.584 580.027C168.584 574.525 170.462 569.217 173.857 565.118C177.253 561.019 181.927 558.419 186.986 557.815C192.045 557.21 197.132 558.644 201.274 561.843C205.415 565.041 208.32 569.778 209.431 575.147H280.808C281.919 569.778 284.824 565.04 288.966 561.842C293.107 558.644 298.195 557.21 303.254 557.815C308.312 558.419 312.987 561.02 316.382 565.119C319.778 569.218 321.655 574.527 321.654 580.029Z" fill="white" stroke="black" stroke-width="2" stroke-miterlimit="10"/>
<path d="M189.254 598.329C198.605 598.329 206.184 590.136 206.184 580.028C206.184 569.921 198.605 561.727 189.254 561.727C179.904 561.727 172.324 569.921 172.324 580.028C172.324 590.136 179.904 598.329 189.254 598.329Z" fill="black"/>
<path d="M300.984 598.329C310.334 598.329 317.914 590.136 317.914 580.028C317.914 569.921 310.334 561.727 300.984 561.727C291.634 561.727 284.054 569.921 284.054 580.028C284.054 590.136 291.634 598.329 300.984 598.329Z" fill="black"/>
<path d="M325.148 643.908C325.147 649.41 323.269 654.718 319.874 658.816C316.478 662.915 311.804 665.515 306.745 666.119C301.686 666.723 296.599 665.289 292.458 662.09C288.317 658.892 285.412 654.155 284.301 648.786H212.924C211.813 654.155 208.908 658.893 204.767 662.091C200.625 665.289 195.538 666.723 190.479 666.119C185.42 665.514 180.746 662.914 177.35 658.815C173.955 654.717 172.077 649.408 172.077 643.906C172.077 638.404 173.955 633.095 177.35 628.997C180.746 624.898 185.42 622.298 190.479 621.693C195.538 621.089 200.625 622.523 204.767 625.721C208.908 628.92 211.813 633.657 212.924 639.026H284.301C285.412 633.657 288.317 628.919 292.459 625.721C296.6 622.523 301.688 621.089 306.747 621.694C311.805 622.298 316.48 624.899 319.876 628.998C323.271 633.097 325.148 638.406 325.148 643.908Z" stroke="black" stroke-width="2" stroke-miterlimit="10"/>
<path d="M328.636 647.681C328.636 653.183 326.758 658.491 323.363 662.589C319.967 666.687 315.292 669.287 310.234 669.892C305.175 670.496 300.088 669.061 295.947 665.863C291.805 662.665 288.901 657.928 287.79 652.559H216.413C215.301 657.928 212.397 662.665 208.255 665.864C204.114 669.062 199.027 670.496 193.968 669.891C188.909 669.287 184.234 666.687 180.839 662.588C177.443 658.49 175.566 653.181 175.566 647.679C175.566 642.177 177.443 636.869 180.839 632.77C184.234 628.672 188.909 626.071 193.968 625.467C199.027 624.862 204.114 626.297 208.255 629.495C212.397 632.693 215.301 637.43 216.413 642.799H287.79C288.901 637.43 291.806 632.693 295.947 629.494C300.089 626.296 305.176 624.862 310.235 625.467C315.294 626.072 319.969 628.672 323.364 632.771C326.76 636.87 328.637 642.179 328.636 647.681V647.681Z" stroke="black" stroke-width="2" stroke-miterlimit="10"/>
<path d="M321.654 640.136C321.654 645.637 319.776 650.946 316.381 655.044C312.985 659.142 308.31 661.742 303.252 662.346C298.193 662.95 293.106 661.516 288.965 658.318C284.824 655.12 281.919 650.383 280.808 645.014H209.431C208.32 650.383 205.415 655.12 201.274 658.318C197.132 661.516 192.045 662.95 186.986 662.346C181.927 661.741 177.253 659.141 173.857 655.043C170.462 650.944 168.584 645.636 168.584 640.134C168.584 634.632 170.462 629.324 173.857 625.225C177.253 621.127 181.927 618.526 186.986 617.922C192.045 617.318 197.132 618.752 201.274 621.95C205.415 625.148 208.32 629.885 209.431 635.254H280.808C281.919 629.885 284.824 625.148 288.966 621.95C293.107 618.751 298.195 617.317 303.254 617.922C308.312 618.527 312.987 621.127 316.382 625.226C319.778 629.325 321.655 634.634 321.654 640.136V640.136Z" fill="white" stroke="black" stroke-width="2" stroke-miterlimit="10"/>
<path d="M189.254 658.435C198.605 658.435 206.184 650.241 206.184 640.133C206.184 630.026 198.605 621.832 189.254 621.832C179.904 621.832 172.324 630.026 172.324 640.133C172.324 650.241 179.904 658.435 189.254 658.435Z" fill="black"/>
<path d="M300.984 658.435C310.334 658.435 317.914 650.241 317.914 640.133C317.914 630.026 310.334 621.832 300.984 621.832C291.634 621.832 284.054 630.026 284.054 640.133C284.054 650.241 291.634 658.435 300.984 658.435Z" fill="black"/>
<path d="M325.148 704.015C325.147 709.516 323.269 714.825 319.874 718.923C316.478 723.021 311.804 725.621 306.745 726.226C301.686 726.83 296.599 725.395 292.458 722.197C288.317 718.999 285.412 714.262 284.301 708.893H212.924C211.813 714.262 208.908 718.999 204.767 722.197C200.625 725.396 195.538 726.83 190.479 726.225C185.42 725.621 180.746 723.02 177.35 718.922C173.955 714.823 172.077 709.515 172.077 704.013C172.077 698.511 173.955 693.202 177.35 689.104C180.746 685.005 185.42 682.404 190.479 681.8C195.538 681.196 200.625 682.63 204.767 685.828C208.908 689.026 211.813 693.763 212.924 699.133H284.301C285.412 693.763 288.317 689.026 292.459 685.828C296.6 682.63 301.688 681.196 306.747 681.8C311.805 682.405 316.48 685.006 319.876 689.105C323.271 693.204 325.148 698.513 325.148 704.015V704.015Z" stroke="black" stroke-width="2" stroke-miterlimit="10"/>
<path d="M328.636 707.787C328.636 713.289 326.758 718.597 323.363 722.695C319.967 726.793 315.292 729.393 310.234 729.997C305.175 730.602 300.088 729.167 295.947 725.969C291.805 722.771 288.901 718.034 287.79 712.665H216.413C215.301 718.034 212.397 722.771 208.255 725.969C204.114 729.167 199.027 730.602 193.968 729.997C188.909 729.393 184.234 726.792 180.839 722.694C177.443 718.596 175.566 713.287 175.566 707.785C175.566 702.283 177.443 696.975 180.839 692.877C184.234 688.778 188.909 686.178 193.968 685.573C199.027 684.969 204.114 686.403 208.255 689.601C212.397 692.799 215.301 697.536 216.413 702.905H287.79C288.901 697.536 291.806 692.799 295.947 689.601C300.089 686.403 305.176 684.969 310.235 685.573C315.294 686.178 319.969 688.779 323.364 692.878C326.76 696.976 328.637 702.285 328.636 707.787V707.787Z" stroke="black" stroke-width="2" stroke-miterlimit="10"/>
<path d="M321.654 700.242C321.654 705.744 319.776 711.052 316.381 715.15C312.985 719.248 308.31 721.848 303.252 722.452C298.193 723.057 293.106 721.622 288.965 718.424C284.824 715.226 281.919 710.489 280.808 705.12H209.431C208.319 710.489 205.415 715.226 201.274 718.424C197.132 721.623 192.045 723.057 186.986 722.452C181.927 721.848 177.253 719.248 173.857 715.149C170.462 711.051 168.584 705.742 168.584 700.24C168.584 694.739 170.462 689.43 173.857 685.332C177.253 681.233 181.927 678.633 186.986 678.028C192.045 677.424 197.132 678.858 201.274 682.056C205.415 685.254 208.319 689.991 209.431 695.36H280.808C281.919 689.991 284.824 685.254 288.966 682.056C293.107 678.858 298.195 677.424 303.253 678.028C308.312 678.633 312.987 681.234 316.382 685.333C319.778 689.432 321.655 694.74 321.654 700.242V700.242Z" fill="white" stroke="black" stroke-width="2" stroke-miterlimit="10"/>
<path d="M189.254 718.542C198.605 718.542 206.184 710.348 206.184 700.24C206.184 690.132 198.605 681.938 189.254 681.938C179.904 681.938 172.324 690.132 172.324 700.24C172.324 710.348 179.904 718.542 189.254 718.542Z" fill="black"/>
<path d="M300.984 718.542C310.334 718.542 317.914 710.348 317.914 700.24C317.914 690.132 310.334 681.938 300.984 681.938C291.634 681.938 284.054 690.132 284.054 700.24C284.054 710.348 291.634 718.542 300.984 718.542Z" fill="black"/>
<path d="M367.353 490.018V515.665C367.353 515.67 367.352 515.676 367.351 515.68C367.349 515.685 367.346 515.69 367.342 515.693C367.339 515.697 367.335 515.7 367.33 515.702C367.325 515.704 367.321 515.705 367.316 515.705H147.603C147.598 515.705 147.593 515.704 147.588 515.702C147.583 515.7 147.579 515.697 147.576 515.693C147.572 515.69 147.569 515.685 147.568 515.68C147.566 515.676 147.565 515.67 147.565 515.665V490.018C147.566 494.367 149.196 498.541 152.101 501.633C155.006 504.726 158.952 506.489 163.084 506.539C167.216 506.59 171.2 504.924 174.172 501.903C177.145 498.882 178.866 494.749 178.963 490.401C178.958 486.193 180.444 482.134 183.129 479.016C185.815 475.898 189.508 473.946 193.488 473.541C195.643 473.37 197.808 473.67 199.847 474.42C201.887 475.171 203.757 476.357 205.341 477.904C206.925 479.451 208.189 481.325 209.053 483.409C209.917 485.494 210.363 487.744 210.362 490.018C210.362 494.4 212.016 498.603 214.96 501.701C217.904 504.8 221.897 506.541 226.06 506.541C230.223 506.541 234.216 504.8 237.16 501.701C240.104 498.603 241.758 494.4 241.758 490.018C241.758 485.635 243.412 481.431 246.357 478.332C249.301 475.233 253.295 473.492 257.459 473.492C261.623 473.492 265.617 475.233 268.561 478.332C271.506 481.431 273.16 485.635 273.16 490.018C273.161 494.367 274.791 498.54 277.696 501.633C280.601 504.725 284.547 506.487 288.679 506.537C292.81 506.586 296.794 504.919 299.765 501.898C302.737 498.876 304.457 494.743 304.552 490.395C304.547 486.188 306.032 482.131 308.717 479.014C311.402 475.898 315.094 473.946 319.072 473.541C321.227 473.37 323.393 473.669 325.433 474.419C327.474 475.169 329.345 476.355 330.93 477.902C332.516 479.448 333.78 481.323 334.645 483.408C335.51 485.493 335.957 487.743 335.958 490.018C335.958 494.4 337.612 498.603 340.556 501.701C343.5 504.8 347.492 506.541 351.656 506.541C355.819 506.541 359.812 504.8 362.756 501.701C365.699 498.603 367.353 494.4 367.353 490.018H367.353Z" fill="black"/>
<path d="M360.233 482.526V508.171C360.233 508.182 360.229 508.192 360.222 508.2C360.215 508.207 360.205 508.211 360.195 508.211H140.482C140.477 508.211 140.472 508.21 140.468 508.208C140.463 508.206 140.459 508.203 140.455 508.2C140.452 508.196 140.449 508.191 140.447 508.187C140.445 508.182 140.444 508.177 140.444 508.171V482.526C140.445 486.875 142.075 491.048 144.98 494.14C147.885 497.233 151.832 498.995 155.964 499.046C160.095 499.096 164.079 497.43 167.052 494.41C170.024 491.389 171.746 487.256 171.842 482.909C171.838 478.7 173.323 474.641 176.009 471.524C178.695 468.407 182.388 466.454 186.368 466.049C188.522 465.878 190.687 466.178 192.727 466.929C194.766 467.68 196.637 468.865 198.221 470.412C199.805 471.959 201.068 473.833 201.932 475.917C202.796 478.002 203.242 480.251 203.242 482.526C203.242 486.907 204.896 491.11 207.84 494.208C210.784 497.307 214.776 499.047 218.94 499.047C223.103 499.047 227.096 497.307 230.04 494.208C232.984 491.11 234.637 486.907 234.637 482.526C234.637 478.143 236.292 473.939 239.236 470.84C242.181 467.741 246.174 466 250.339 466C254.503 466 258.496 467.741 261.441 470.84C264.386 473.939 266.04 478.143 266.04 482.526C266.04 486.874 267.67 491.048 270.575 494.14C273.48 497.232 277.427 498.994 281.558 499.044C285.69 499.094 289.674 497.427 292.645 494.405C295.617 491.383 297.336 487.25 297.431 482.903C297.427 478.696 298.912 474.638 301.597 471.522C304.281 468.406 307.973 466.455 311.951 466.049C314.107 465.878 316.272 466.177 318.313 466.927C320.353 467.678 322.225 468.863 323.81 470.41C325.395 471.956 326.66 473.831 327.525 475.916C328.39 478 328.837 480.251 328.838 482.526C328.838 486.907 330.491 491.11 333.435 494.208C336.379 497.307 340.372 499.047 344.535 499.047C348.699 499.047 352.691 497.307 355.635 494.208C358.579 491.11 360.233 486.907 360.233 482.526H360.233Z" fill="#01F293" stroke="black" stroke-width="2" stroke-miterlimit="10"/>
<path d="M321.882 699.266C321.882 704.975 319.996 710.483 316.587 714.736C313.178 718.989 308.484 721.687 303.405 722.314C298.326 722.941 293.218 721.452 289.06 718.133C284.902 714.815 281.986 709.899 280.87 704.328H209.204C208.088 709.899 205.172 714.815 201.014 718.134C196.855 721.452 191.747 722.941 186.668 722.314C181.589 721.686 176.895 718.988 173.486 714.735C170.077 710.482 168.192 704.973 168.192 699.264C168.192 693.555 170.077 688.046 173.486 683.793C176.895 679.54 181.589 676.842 186.668 676.214C191.747 675.587 196.855 677.075 201.014 680.394C205.172 683.713 208.088 688.629 209.204 694.2H280.87C281.986 688.628 284.902 683.712 289.061 680.394C293.219 677.075 298.327 675.587 303.407 676.214C308.486 676.842 313.18 679.541 316.589 683.794C319.998 688.048 321.883 693.556 321.882 699.266V699.266Z" fill="white" stroke="black" stroke-width="2" stroke-miterlimit="10"/>
<path d="M188.951 718.382C198.342 718.382 205.955 709.853 205.955 699.333C205.955 688.813 198.342 680.285 188.951 680.285C179.56 680.285 171.947 688.813 171.947 699.333C171.947 709.853 179.56 718.382 188.951 718.382Z" fill="#0D0D0D"/>
<path d="M182.953 690.311V698.13" stroke="white" stroke-width="4" stroke-miterlimit="10" stroke-linecap="round"/>
<path d="M194.947 690.31V698.13" stroke="white" stroke-width="4" stroke-miterlimit="10" stroke-linecap="round"/>
<path d="M200.728 701.135C198.851 708.246 193.342 710.96 188.95 710.96C184.559 710.96 179.05 708.246 177.173 701.135" stroke="white" stroke-width="4" stroke-miterlimit="10" stroke-linecap="round"/>
<path d="M301.169 718.383C310.56 718.383 318.173 709.855 318.173 699.334C318.173 688.814 310.56 680.286 301.169 680.286C291.778 680.286 284.165 688.814 284.165 699.334C284.165 709.855 291.778 718.383 301.169 718.383Z" fill="#0D0D0D"/>
<path d="M312.946 701.135C311.07 708.247 305.56 710.961 301.169 710.961C296.777 710.961 291.268 708.247 289.391 701.135" stroke="white" stroke-width="4" stroke-miterlimit="10" stroke-linecap="round"/>
<path d="M295.172 690.311V698.131" stroke="white" stroke-width="4" stroke-miterlimit="10" stroke-linecap="round"/>
<path d="M307.167 690.311V698.131" stroke="white" stroke-width="4" stroke-miterlimit="10" stroke-linecap="round"/>
<rect x="210.216" y="698.214" width="4.66953" height="2.60654" fill="#0D0D0D"/>
<rect x="275.59" y="698.214" width="4.66953" height="2.60654" fill="#0D0D0D"/>
<rect x="217.222" y="698.214" width="9.33906" height="2.60654" fill="#0D0D0D"/>
<rect x="228.893" y="698.214" width="9.33906" height="2.60654" fill="#0D0D0D"/>
<rect x="240.57" y="698.214" width="9.33906" height="2.60654" fill="#0D0D0D"/>
<rect x="252.242" y="698.214" width="9.33906" height="2.60654" fill="#0D0D0D"/>
<rect x="263.915" y="698.214" width="9.33906" height="2.60654" fill="#0D0D0D"/>
<path d="M321.882 638.335C321.882 644.044 319.996 649.553 316.587 653.805C313.178 658.058 308.484 660.756 303.405 661.383C298.326 662.01 293.218 660.521 289.06 657.203C284.902 653.884 281.986 648.969 280.87 643.397H209.204C208.088 648.969 205.172 653.884 201.014 657.203C196.855 660.522 191.747 662.01 186.668 661.383C181.589 660.756 176.895 658.057 173.486 653.804C170.077 649.551 168.192 644.043 168.192 638.333C168.192 632.624 170.077 627.115 173.486 622.862C176.895 618.609 181.589 615.911 186.668 615.284C191.747 614.657 196.855 616.145 201.014 619.463C205.172 622.782 208.088 627.698 209.204 633.269H280.87C281.986 627.698 284.902 622.782 289.061 619.463C293.219 616.145 298.327 614.656 303.407 615.284C308.486 615.911 313.18 618.61 316.589 622.863C319.998 627.117 321.883 632.626 321.882 638.335V638.335Z" fill="white" stroke="black" stroke-width="2" stroke-miterlimit="10"/>
<path d="M188.951 657.451C198.342 657.451 205.955 648.923 205.955 638.402C205.955 627.882 198.342 619.354 188.951 619.354C179.56 619.354 171.947 627.882 171.947 638.402C171.947 648.923 179.56 657.451 188.951 657.451Z" fill="#0D0D0D"/>
<path d="M182.953 629.38V637.2" stroke="white" stroke-width="4" stroke-miterlimit="10" stroke-linecap="round"/>
<path d="M194.947 629.38V637.2" stroke="white" stroke-width="4" stroke-miterlimit="10" stroke-linecap="round"/>
<path d="M200.728 640.204C198.851 647.315 193.342 650.029 188.951 650.029C184.559 650.029 179.05 647.315 177.173 640.204" stroke="white" stroke-width="4" stroke-miterlimit="10" stroke-linecap="round"/>
<path d="M301.169 657.452C310.56 657.452 318.173 648.924 318.173 638.404C318.173 627.883 310.56 619.355 301.169 619.355C291.778 619.355 284.165 627.883 284.165 638.404C284.165 648.924 291.778 657.452 301.169 657.452Z" fill="#0D0D0D"/>
<path d="M312.946 640.205C311.07 647.316 305.56 650.03 301.169 650.03C296.777 650.03 291.268 647.316 289.391 640.205" stroke="white" stroke-width="4" stroke-miterlimit="10" stroke-linecap="round"/>
<path d="M295.172 629.38V637.2" stroke="white" stroke-width="4" stroke-miterlimit="10" stroke-linecap="round"/>
<path d="M307.167 629.38V637.2" stroke="white" stroke-width="4" stroke-miterlimit="10" stroke-linecap="round"/>
<rect x="210.216" y="637.284" width="4.66953" height="2.60654" fill="#0D0D0D"/>
<rect x="275.59" y="637.283" width="4.66953" height="2.60654" fill="#0D0D0D"/>
<rect x="217.222" y="637.283" width="9.33906" height="2.60654" fill="#0D0D0D"/>
<rect x="228.893" y="637.283" width="9.33906" height="2.60654" fill="#0D0D0D"/>
<rect x="240.57" y="637.283" width="9.33906" height="2.60654" fill="#0D0D0D"/>
<rect x="252.242" y="637.283" width="9.33906" height="2.60654" fill="#0D0D0D"/>
<rect x="263.915" y="637.283" width="9.33906" height="2.60654" fill="#0D0D0D"/>
<path d="M360.5 785.693H147.961V820.659L187.726 800.777L222.007 820.659L252.173 800.777L287.825 820.659L319.363 800.777L360.5 820.659V785.693Z" fill="black" stroke="black" stroke-width="3"/>
<path d="M357.757 778.837H145.218V813.804L184.983 793.921L219.264 813.804L249.431 793.921L285.083 813.804L316.621 793.921L357.757 813.804V778.837Z" fill="white" stroke="black" stroke-width="3"/>
<path d="M321.882 579.223C321.882 584.709 319.996 590.001 316.587 594.087C313.178 598.173 308.484 600.765 303.405 601.367C298.326 601.97 293.218 600.54 289.06 597.351C284.902 594.163 281.986 589.44 280.87 584.087H209.204C208.088 589.44 205.172 594.163 201.014 597.351C196.855 600.54 191.747 601.97 186.668 601.367C181.589 600.765 176.895 598.172 173.486 594.086C170.077 589.999 168.192 584.707 168.192 579.221C168.192 573.736 170.077 568.443 173.486 564.357C176.895 560.271 181.589 557.678 186.668 557.076C191.747 556.473 196.855 557.903 201.014 561.092C205.172 564.28 208.088 569.003 209.204 574.356H280.87C281.986 569.003 284.902 564.28 289.061 561.091C293.219 557.903 298.327 556.473 303.407 557.076C308.486 557.679 313.18 560.272 316.589 564.358C319.998 568.445 321.883 573.738 321.882 579.223V579.223Z" fill="white" stroke="black" stroke-width="2" stroke-miterlimit="10"/>
<path d="M188.951 597.59C198.342 597.59 205.955 589.396 205.955 579.288C205.955 569.181 198.342 560.987 188.951 560.987C179.56 560.987 171.947 569.181 171.947 579.288C171.947 589.396 179.56 597.59 188.951 597.59Z" fill="#0D0D0D"/>
<path d="M182.953 570.619V578.133" stroke="white" stroke-width="4" stroke-miterlimit="10" stroke-linecap="round"/>
<path d="M194.947 570.619V578.132" stroke="white" stroke-width="4" stroke-miterlimit="10" stroke-linecap="round"/>
<path d="M200.728 581.02C198.851 587.852 193.342 590.459 188.951 590.459C184.559 590.459 179.05 587.852 177.173 581.02" stroke="white" stroke-width="4" stroke-miterlimit="10" stroke-linecap="round"/>
<path d="M301.169 597.591C310.56 597.591 318.173 589.397 318.173 579.289C318.173 569.182 310.56 560.988 301.169 560.988C291.778 560.988 284.165 569.182 284.165 579.289C284.165 589.397 291.778 597.591 301.169 597.591Z" fill="#0D0D0D"/>
<path d="M312.946 581.02C311.07 587.852 305.56 590.46 301.169 590.46C296.777 590.46 291.268 587.852 289.391 581.02" stroke="white" stroke-width="4" stroke-miterlimit="10" stroke-linecap="round"/>
<path d="M295.172 570.62V578.133" stroke="white" stroke-width="4" stroke-miterlimit="10" stroke-linecap="round"/>
<path d="M307.167 570.62V578.133" stroke="white" stroke-width="4" stroke-miterlimit="10" stroke-linecap="round"/>
<rect x="210.216" y="578.213" width="4.66953" height="2.50432" fill="#0D0D0D"/>
<rect x="275.59" y="578.213" width="4.66953" height="2.50432" fill="#0D0D0D"/>
<rect x="217.222" y="578.213" width="9.33906" height="2.50432" fill="#0D0D0D"/>
<rect x="228.894" y="578.213" width="9.33906" height="2.50432" fill="#0D0D0D"/>
<rect x="240.57" y="578.213" width="9.33906" height="2.50432" fill="#0D0D0D"/>
<rect x="252.242" y="578.213" width="9.33906" height="2.50432" fill="#0D0D0D"/>
<rect x="263.915" y="578.213" width="9.33906" height="2.50432" fill="#0D0D0D"/>
</svg>
