<svg width="78" height="78" viewBox="0 0 78 78" fill="none" xmlns="http://www.w3.org/2000/svg">
<path d="M2.51783 38.7696L2.5152 38.8501C1.93871 56.428 17.7961 75.2721 39.0351 75.153C59.2635 75.0385 75.2383 59.4895 75.4973 38.7316V38.7315C75.7446 19.0233 59.0774 2.56002 39.1748 2.50015L2.51783 38.7696ZM2.51783 38.7696L2.51529 38.6892M2.51783 38.7696L2.51529 38.6892M2.51529 38.6892C1.9497 20.7939 18.3573 2.44069 39.1745 2.50014L2.51529 38.6892ZM61.1367 28.081L61.1366 28.0833C61.044 29.1908 61.0617 30.2415 61.0857 31.6591C61.0981 32.3975 61.1122 33.2354 61.1133 34.2328C61.7579 40.8769 60.2856 46.6144 57.0729 51.4728C53.8693 56.3174 49.037 60.1375 43.2101 63.1608C42.0148 63.7828 40.7319 64.215 39.324 64.2524C37.9021 64.2902 36.5506 63.9203 35.2284 63.2408L61.1367 28.081ZM61.1367 28.081C61.2364 26.8755 61.1668 25.4175 60.287 24.1449C59.3916 22.8496 58.0166 22.2584 56.7058 21.9454C53.4313 21.1591 50.2338 20.2722 46.9878 19.3718C45.0861 18.8443 43.1677 18.3122 41.2074 17.793L41.2061 17.7926M61.1367 28.081L41.2061 17.7926M41.2061 17.7926C40.4327 17.5882 38.9995 17.2609 37.5966 17.6338C31.8812 19.1401 26.1738 20.7056 20.4854 22.3463L20.4774 22.3487M41.2061 17.7926L20.4774 22.3487M20.4774 22.3487C19.6408 22.593 18.9302 23.1307 18.472 23.5816C18.2184 23.8312 17.949 24.1447 17.726 24.513C17.5279 24.8402 17.2268 25.438 17.2188 26.2034L17.2187 26.2138M20.4774 22.3487L17.2187 26.2138M17.2187 26.2138L17.2187 26.2243M17.2187 26.2138L17.2187 26.2243M17.2187 26.2243C17.2162 27.4084 17.1882 28.6384 17.1596 29.8981M17.2187 26.2243L17.1596 29.8981M17.1596 29.8981C17.0712 33.7849 16.9764 37.9543 17.6048 41.9287M17.1596 29.8981L17.6048 41.9287M17.6048 41.9287C19.2885 52.6305 26.703 58.87 35.2281 63.2406L17.6048 41.9287Z" fill="#0136F2" stroke="black" stroke-width="5"/>
<path d="M57.2376 31.148C57.2223 30.459 57.2325 29.7747 57.3305 29.1067C57.6915 26.7285 56.5715 25.8207 54.4325 25.4332C52.7075 25.12 50.9507 24.7219 49.3372 24.0583C42.5009 21.2448 35.7389 21.3297 28.8919 24.0689M57.2376 31.148L22.657 27.2947C22.5733 27.3895 22.492 27.4881 22.4133 27.5909C21.5735 28.6878 21.2659 29.9483 21.1133 31.1888C21.0397 31.7869 20.9944 32.4634 20.9616 33.2124C20.9488 32.7255 20.9203 32.2277 20.8918 31.7305C20.777 29.7264 20.6628 27.7311 21.5779 26.4949C22.3538 25.4482 24.0516 25.1429 25.8105 24.8266C26.8795 24.6344 27.971 24.4381 28.8919 24.0689M57.2376 31.148C57.2347 31.1136 57.2316 31.0795 57.2285 31.0456C57.168 30.3853 57.064 29.7009 56.8461 29.0356C56.8458 29.0348 56.8456 29.0339 56.8453 29.0331C56.6861 28.5478 56.4664 28.0727 56.1588 27.6245C55.6522 26.8862 55.0119 26.3697 54.3331 25.9821C54.333 25.9821 54.333 25.982 54.3329 25.982C53.9935 25.7882 53.6445 25.6266 53.2978 25.4857C52.3348 25.0942 51.1132 24.7582 49.758 24.3854L49.6289 24.3499L49.6289 24.3499L49.6192 24.3473C49.4811 24.3099 49.3619 24.2786 49.2576 24.2518C49.2576 24.2518 49.2576 24.2518 49.2575 24.2518C49.1704 24.2293 49.0935 24.2099 49.0246 24.1925C48.7466 24.1224 48.5975 24.0848 48.4177 24.0103L57.2376 31.148ZM28.8919 24.0689L28.9384 24.1848L22.6575 27.2941C23.4619 26.3832 24.4869 25.8275 25.5143 25.3937C26.4379 25.0037 27.5997 24.6209 28.9383 24.1848L28.8919 24.0689ZM37.9151 57.4037C37.695 57.2901 37.4772 57.1755 37.2617 57.0598L41.0677 57.0322C40.8295 57.1602 40.5884 57.2869 40.3443 57.4124L40.3433 57.4129C39.7891 57.6981 39.414 57.7686 39.1325 57.7676C38.8498 57.7666 38.4735 57.6929 37.9182 57.4053L37.9151 57.4037ZM41.4268 59.5186C41.6579 59.4433 41.885 59.3548 42.105 59.2518C42.4226 59.1034 42.7363 58.9517 43.046 58.7968C42.5379 59.0833 42.0181 59.363 41.4871 59.6359C39.8364 60.4853 38.4086 60.4746 36.7685 59.6253C36.5673 59.5214 36.3676 59.4166 36.1695 59.3108C36.3773 59.4042 36.5904 59.4843 36.8062 59.5523C36.8063 59.5523 36.8063 59.5523 36.8063 59.5523C37.5761 59.7947 38.3807 59.8838 39.1031 59.8791C39.8455 59.8742 40.6582 59.7693 41.4268 59.5187C41.4268 59.5186 41.4268 59.5186 41.4268 59.5186ZM57.3275 33.7199C57.3944 34.6798 57.4193 35.6143 57.4031 36.524C57.3895 36.0892 57.3653 35.6502 57.3306 35.207V35.1921C57.3306 34.6772 57.3307 34.1861 57.3275 33.7199Z" fill="#0136F2" stroke="black" stroke-width="5"/>
<mask id="path-3-inside-1_1314_88309" fill="white">
<path d="M40.7252 45.2395C39.6637 45.2395 38.7189 45.2395 37.4186 45.2395C37.4876 44.3052 37.5247 43.3922 37.6309 42.4844C37.8697 40.4353 38.5119 38.434 36.8453 36.507C36.4207 36.0187 36.8347 34.1394 37.4663 33.5821C38.1086 33.014 39.7699 32.8601 40.4758 33.3113C41.1923 33.7679 41.8982 35.7108 41.5586 36.1142C39.3081 38.7844 40.5926 41.6085 40.8261 44.3902C40.842 44.5653 40.7889 44.7405 40.7252 45.2395Z"/>
</mask>
<path d="M40.7252 45.2395C39.6637 45.2395 38.7189 45.2395 37.4186 45.2395C37.4876 44.3052 37.5247 43.3922 37.6309 42.4844C37.8697 40.4353 38.5119 38.434 36.8453 36.507C36.4207 36.0187 36.8347 34.1394 37.4663 33.5821C38.1086 33.014 39.7699 32.8601 40.4758 33.3113C41.1923 33.7679 41.8982 35.7108 41.5586 36.1142C39.3081 38.7844 40.5926 41.6085 40.8261 44.3902C40.842 44.5653 40.7889 44.7405 40.7252 45.2395Z" fill="#0136F2"/>
<path d="M40.7252 45.2395V50.2395H45.1276L45.685 45.8726L40.7252 45.2395ZM37.4186 45.2395L32.4321 44.8713L32.0357 50.2395H37.4186V45.2395ZM37.6309 42.4844L42.597 43.0652L42.5972 43.0633L37.6309 42.4844ZM36.8453 36.507L40.6271 33.2362L40.6186 33.2264L36.8453 36.507ZM37.4663 33.5821L40.7747 37.331L40.7788 37.3274L37.4663 33.5821ZM40.4758 33.3113L37.7829 37.5242L37.7891 37.5282L40.4758 33.3113ZM41.5586 36.1142L45.3818 39.3365L45.3834 39.3346L41.5586 36.1142ZM40.8261 44.3902L35.8436 44.8085L35.8451 44.8256L35.8466 44.8428L40.8261 44.3902ZM40.7252 40.2395C40.7232 40.2395 40.7211 40.2395 40.719 40.2395C40.717 40.2395 40.7149 40.2395 40.7128 40.2395C40.7107 40.2395 40.7087 40.2395 40.7066 40.2395C40.7045 40.2395 40.7025 40.2395 40.7004 40.2395C40.6983 40.2395 40.6962 40.2395 40.6942 40.2395C40.6921 40.2395 40.69 40.2395 40.688 40.2395C40.6859 40.2395 40.6838 40.2395 40.6818 40.2395C40.6797 40.2395 40.6776 40.2395 40.6756 40.2395C40.6735 40.2395 40.6714 40.2395 40.6694 40.2395C40.6673 40.2395 40.6652 40.2395 40.6632 40.2395C40.6611 40.2395 40.659 40.2395 40.657 40.2395C40.6549 40.2395 40.6529 40.2395 40.6508 40.2395C40.6487 40.2395 40.6467 40.2395 40.6446 40.2395C40.6425 40.2395 40.6405 40.2395 40.6384 40.2395C40.6364 40.2395 40.6343 40.2395 40.6322 40.2395C40.6302 40.2395 40.6281 40.2395 40.6261 40.2395C40.624 40.2395 40.6219 40.2395 40.6199 40.2395C40.6178 40.2395 40.6158 40.2395 40.6137 40.2395C40.6116 40.2395 40.6096 40.2395 40.6075 40.2395C40.6055 40.2395 40.6034 40.2395 40.6014 40.2395C40.5993 40.2395 40.5972 40.2395 40.5952 40.2395C40.5931 40.2395 40.5911 40.2395 40.589 40.2395C40.587 40.2395 40.5849 40.2395 40.5829 40.2395C40.5808 40.2395 40.5787 40.2395 40.5767 40.2395C40.5746 40.2395 40.5726 40.2395 40.5705 40.2395C40.5685 40.2395 40.5664 40.2395 40.5644 40.2395C40.5623 40.2395 40.5603 40.2395 40.5582 40.2395C40.5562 40.2395 40.5541 40.2395 40.5521 40.2395C40.55 40.2395 40.548 40.2395 40.5459 40.2395C40.5439 40.2395 40.5418 40.2395 40.5398 40.2395C40.5377 40.2395 40.5357 40.2395 40.5336 40.2395C40.5316 40.2395 40.5295 40.2395 40.5275 40.2395C40.5254 40.2395 40.5234 40.2395 40.5213 40.2395C40.5193 40.2395 40.5172 40.2395 40.5152 40.2395C40.5131 40.2395 40.5111 40.2395 40.509 40.2395C40.507 40.2395 40.5049 40.2395 40.5029 40.2395C40.5008 40.2395 40.4988 40.2395 40.4968 40.2395C40.4947 40.2395 40.4927 40.2395 40.4906 40.2395C40.4886 40.2395 40.4865 40.2395 40.4845 40.2395C40.4824 40.2395 40.4804 40.2395 40.4784 40.2395C40.4763 40.2395 40.4743 40.2395 40.4722 40.2395C40.4702 40.2395 40.4681 40.2395 40.4661 40.2395C40.4641 40.2395 40.462 40.2395 40.46 40.2395C40.4579 40.2395 40.4559 40.2395 40.4539 40.2395C40.4518 40.2395 40.4498 40.2395 40.4477 40.2395C40.4457 40.2395 40.4437 40.2395 40.4416 40.2395C40.4396 40.2395 40.4375 40.2395 40.4355 40.2395C40.4335 40.2395 40.4314 40.2395 40.4294 40.2395C40.4273 40.2395 40.4253 40.2395 40.4233 40.2395C40.4212 40.2395 40.4192 40.2395 40.4171 40.2395C40.4151 40.2395 40.4131 40.2395 40.411 40.2395C40.409 40.2395 40.407 40.2395 40.4049 40.2395C40.4029 40.2395 40.4009 40.2395 40.3988 40.2395C40.3968 40.2395 40.3947 40.2395 40.3927 40.2395C40.3907 40.2395 40.3886 40.2395 40.3866 40.2395C40.3846 40.2395 40.3825 40.2395 40.3805 40.2395C40.3785 40.2395 40.3764 40.2395 40.3744 40.2395C40.3724 40.2395 40.3703 40.2395 40.3683 40.2395C40.3663 40.2395 40.3642 40.2395 40.3622 40.2395C40.3602 40.2395 40.3581 40.2395 40.3561 40.2395C40.3541 40.2395 40.352 40.2395 40.35 40.2395C40.348 40.2395 40.3459 40.2395 40.3439 40.2395C40.3419 40.2395 40.3398 40.2395 40.3378 40.2395C40.3358 40.2395 40.3338 40.2395 40.3317 40.2395C40.3297 40.2395 40.3277 40.2395 40.3256 40.2395C40.3236 40.2395 40.3216 40.2395 40.3195 40.2395C40.3175 40.2395 40.3155 40.2395 40.3134 40.2395C40.3114 40.2395 40.3094 40.2395 40.3074 40.2395C40.3053 40.2395 40.3033 40.2395 40.3013 40.2395C40.2992 40.2395 40.2972 40.2395 40.2952 40.2395C40.2932 40.2395 40.2911 40.2395 40.2891 40.2395C40.2871 40.2395 40.2851 40.2395 40.283 40.2395C40.281 40.2395 40.279 40.2395 40.2769 40.2395C40.2749 40.2395 40.2729 40.2395 40.2709 40.2395C40.2688 40.2395 40.2668 40.2395 40.2648 40.2395C40.2628 40.2395 40.2607 40.2395 40.2587 40.2395C40.2567 40.2395 40.2547 40.2395 40.2526 40.2395C40.2506 40.2395 40.2486 40.2395 40.2466 40.2395C40.2445 40.2395 40.2425 40.2395 40.2405 40.2395C40.2384 40.2395 40.2364 40.2395 40.2344 40.2395C40.2324 40.2395 40.2304 40.2395 40.2283 40.2395C40.2263 40.2395 40.2243 40.2395 40.2223 40.2395C40.2202 40.2395 40.2182 40.2395 40.2162 40.2395C40.2142 40.2395 40.2121 40.2395 40.2101 40.2395C40.2081 40.2395 40.2061 40.2395 40.204 40.2395C40.202 40.2395 40.2 40.2395 40.198 40.2395C40.196 40.2395 40.1939 40.2395 40.1919 40.2395C40.1899 40.2395 40.1879 40.2395 40.1858 40.2395C40.1838 40.2395 40.1818 40.2395 40.1798 40.2395C40.1778 40.2395 40.1757 40.2395 40.1737 40.2395C40.1717 40.2395 40.1697 40.2395 40.1676 40.2395C40.1656 40.2395 40.1636 40.2395 40.1616 40.2395C40.1596 40.2395 40.1575 40.2395 40.1555 40.2395C40.1535 40.2395 40.1515 40.2395 40.1495 40.2395C40.1474 40.2395 40.1454 40.2395 40.1434 40.2395C40.1414 40.2395 40.1394 40.2395 40.1373 40.2395C40.1353 40.2395 40.1333 40.2395 40.1313 40.2395C40.1293 40.2395 40.1272 40.2395 40.1252 40.2395C40.1232 40.2395 40.1212 40.2395 40.1192 40.2395C40.1171 40.2395 40.1151 40.2395 40.1131 40.2395C40.1111 40.2395 40.1091 40.2395 40.107 40.2395C40.105 40.2395 40.103 40.2395 40.101 40.2395C40.099 40.2395 40.0969 40.2395 40.0949 40.2395C40.0929 40.2395 40.0909 40.2395 40.0889 40.2395C40.0868 40.2395 40.0848 40.2395 40.0828 40.2395C40.0808 40.2395 40.0788 40.2395 40.0768 40.2395C40.0747 40.2395 40.0727 40.2395 40.0707 40.2395C40.0687 40.2395 40.0667 40.2395 40.0646 40.2395C40.0626 40.2395 40.0606 40.2395 40.0586 40.2395C40.0566 40.2395 40.0546 40.2395 40.0525 40.2395C40.0505 40.2395 40.0485 40.2395 40.0465 40.2395C40.0445 40.2395 40.0424 40.2395 40.0404 40.2395C40.0384 40.2395 40.0364 40.2395 40.0344 40.2395C40.0324 40.2395 40.0303 40.2395 40.0283 40.2395C40.0263 40.2395 40.0243 40.2395 40.0223 40.2395C40.0203 40.2395 40.0182 40.2395 40.0162 40.2395C40.0142 40.2395 40.0122 40.2395 40.0102 40.2395C40.0082 40.2395 40.0061 40.2395 40.0041 40.2395C40.0021 40.2395 40.0001 40.2395 39.9981 40.2395C39.996 40.2395 39.994 40.2395 39.992 40.2395C39.99 40.2395 39.988 40.2395 39.986 40.2395C39.9839 40.2395 39.9819 40.2395 39.9799 40.2395C39.9779 40.2395 39.9759 40.2395 39.9739 40.2395C39.9718 40.2395 39.9698 40.2395 39.9678 40.2395C39.9658 40.2395 39.9638 40.2395 39.9618 40.2395C39.9597 40.2395 39.9577 40.2395 39.9557 40.2395C39.9537 40.2395 39.9517 40.2395 39.9497 40.2395C39.9476 40.2395 39.9456 40.2395 39.9436 40.2395C39.9416 40.2395 39.9396 40.2395 39.9376 40.2395C39.9355 40.2395 39.9335 40.2395 39.9315 40.2395C39.9295 40.2395 39.9275 40.2395 39.9255 40.2395C39.9234 40.2395 39.9214 40.2395 39.9194 40.2395C39.9174 40.2395 39.9154 40.2395 39.9134 40.2395C39.9113 40.2395 39.9093 40.2395 39.9073 40.2395C39.9053 40.2395 39.9033 40.2395 39.9012 40.2395C39.8992 40.2395 39.8972 40.2395 39.8952 40.2395C39.8932 40.2395 39.8912 40.2395 39.8891 40.2395C39.8871 40.2395 39.8851 40.2395 39.8831 40.2395C39.8811 40.2395 39.8791 40.2395 39.877 40.2395C39.875 40.2395 39.873 40.2395 39.871 40.2395C39.869 40.2395 39.867 40.2395 39.8649 40.2395C39.8629 40.2395 39.8609 40.2395 39.8589 40.2395C39.8569 40.2395 39.8548 40.2395 39.8528 40.2395C39.8508 40.2395 39.8488 40.2395 39.8468 40.2395C39.8448 40.2395 39.8427 40.2395 39.8407 40.2395C39.8387 40.2395 39.8367 40.2395 39.8347 40.2395C39.8326 40.2395 39.8306 40.2395 39.8286 40.2395C39.8266 40.2395 39.8246 40.2395 39.8226 40.2395C39.8205 40.2395 39.8185 40.2395 39.8165 40.2395C39.8145 40.2395 39.8125 40.2395 39.8104 40.2395C39.8084 40.2395 39.8064 40.2395 39.8044 40.2395C39.8024 40.2395 39.8003 40.2395 39.7983 40.2395C39.7963 40.2395 39.7943 40.2395 39.7923 40.2395C39.7903 40.2395 39.7882 40.2395 39.7862 40.2395C39.7842 40.2395 39.7822 40.2395 39.7802 40.2395C39.7781 40.2395 39.7761 40.2395 39.7741 40.2395C39.7721 40.2395 39.7701 40.2395 39.768 40.2395C39.766 40.2395 39.764 40.2395 39.762 40.2395C39.76 40.2395 39.7579 40.2395 39.7559 40.2395C39.7539 40.2395 39.7519 40.2395 39.7498 40.2395C39.7478 40.2395 39.7458 40.2395 39.7438 40.2395C39.7418 40.2395 39.7397 40.2395 39.7377 40.2395C39.7357 40.2395 39.7337 40.2395 39.7317 40.2395C39.7296 40.2395 39.7276 40.2395 39.7256 40.2395C39.7236 40.2395 39.7215 40.2395 39.7195 40.2395C39.7175 40.2395 39.7155 40.2395 39.7135 40.2395C39.7114 40.2395 39.7094 40.2395 39.7074 40.2395C39.7054 40.2395 39.7033 40.2395 39.7013 40.2395C39.6993 40.2395 39.6973 40.2395 39.6953 40.2395C39.6932 40.2395 39.6912 40.2395 39.6892 40.2395C39.6872 40.2395 39.6851 40.2395 39.6831 40.2395C39.6811 40.2395 39.6791 40.2395 39.677 40.2395C39.675 40.2395 39.673 40.2395 39.671 40.2395C39.6689 40.2395 39.6669 40.2395 39.6649 40.2395C39.6629 40.2395 39.6608 40.2395 39.6588 40.2395C39.6568 40.2395 39.6548 40.2395 39.6527 40.2395C39.6507 40.2395 39.6487 40.2395 39.6467 40.2395C39.6446 40.2395 39.6426 40.2395 39.6406 40.2395C39.6386 40.2395 39.6365 40.2395 39.6345 40.2395C39.6325 40.2395 39.6305 40.2395 39.6284 40.2395C39.6264 40.2395 39.6244 40.2395 39.6223 40.2395C39.6203 40.2395 39.6183 40.2395 39.6163 40.2395C39.6142 40.2395 39.6122 40.2395 39.6102 40.2395C39.6081 40.2395 39.6061 40.2395 39.6041 40.2395C39.6021 40.2395 39.6 40.2395 39.598 40.2395C39.596 40.2395 39.5939 40.2395 39.5919 40.2395C39.5899 40.2395 39.5879 40.2395 39.5858 40.2395C39.5838 40.2395 39.5818 40.2395 39.5797 40.2395C39.5777 40.2395 39.5757 40.2395 39.5736 40.2395C39.5716 40.2395 39.5696 40.2395 39.5676 40.2395C39.5655 40.2395 39.5635 40.2395 39.5615 40.2395C39.5594 40.2395 39.5574 40.2395 39.5554 40.2395C39.5533 40.2395 39.5513 40.2395 39.5493 40.2395C39.5472 40.2395 39.5452 40.2395 39.5432 40.2395C39.5411 40.2395 39.5391 40.2395 39.5371 40.2395C39.535 40.2395 39.533 40.2395 39.531 40.2395C39.5289 40.2395 39.5269 40.2395 39.5249 40.2395C39.5228 40.2395 39.5208 40.2395 39.5188 40.2395C39.5167 40.2395 39.5147 40.2395 39.5127 40.2395C39.5106 40.2395 39.5086 40.2395 39.5066 40.2395C39.5045 40.2395 39.5025 40.2395 39.5004 40.2395C39.4984 40.2395 39.4964 40.2395 39.4943 40.2395C39.4923 40.2395 39.4903 40.2395 39.4882 40.2395C39.4862 40.2395 39.4841 40.2395 39.4821 40.2395C39.4801 40.2395 39.478 40.2395 39.476 40.2395C39.474 40.2395 39.4719 40.2395 39.4699 40.2395C39.4678 40.2395 39.4658 40.2395 39.4638 40.2395C39.4617 40.2395 39.4597 40.2395 39.4576 40.2395C39.4556 40.2395 39.4536 40.2395 39.4515 40.2395C39.4495 40.2395 39.4474 40.2395 39.4454 40.2395C39.4434 40.2395 39.4413 40.2395 39.4393 40.2395C39.4372 40.2395 39.4352 40.2395 39.4331 40.2395C39.4311 40.2395 39.4291 40.2395 39.427 40.2395C39.425 40.2395 39.4229 40.2395 39.4209 40.2395C39.4188 40.2395 39.4168 40.2395 39.4147 40.2395C39.4127 40.2395 39.4107 40.2395 39.4086 40.2395C39.4066 40.2395 39.4045 40.2395 39.4025 40.2395C39.4004 40.2395 39.3984 40.2395 39.3963 40.2395C39.3943 40.2395 39.3922 40.2395 39.3902 40.2395C39.3882 40.2395 39.3861 40.2395 39.3841 40.2395C39.382 40.2395 39.38 40.2395 39.3779 40.2395C39.3759 40.2395 39.3738 40.2395 39.3718 40.2395C39.3697 40.2395 39.3677 40.2395 39.3656 40.2395C39.3636 40.2395 39.3615 40.2395 39.3595 40.2395C39.3574 40.2395 39.3554 40.2395 39.3533 40.2395C39.3513 40.2395 39.3492 40.2395 39.3472 40.2395C39.3451 40.2395 39.3431 40.2395 39.341 40.2395C39.339 40.2395 39.3369 40.2395 39.3348 40.2395C39.3328 40.2395 39.3307 40.2395 39.3287 40.2395C39.3266 40.2395 39.3246 40.2395 39.3225 40.2395C39.3205 40.2395 39.3184 40.2395 39.3164 40.2395C39.3143 40.2395 39.3123 40.2395 39.3102 40.2395C39.3081 40.2395 39.3061 40.2395 39.304 40.2395C39.302 40.2395 39.2999 40.2395 39.2979 40.2395C39.2958 40.2395 39.2937 40.2395 39.2917 40.2395C39.2896 40.2395 39.2876 40.2395 39.2855 40.2395C39.2834 40.2395 39.2814 40.2395 39.2793 40.2395C39.2773 40.2395 39.2752 40.2395 39.2731 40.2395C39.2711 40.2395 39.269 40.2395 39.267 40.2395C39.2649 40.2395 39.2628 40.2395 39.2608 40.2395C39.2587 40.2395 39.2567 40.2395 39.2546 40.2395C39.2525 40.2395 39.2505 40.2395 39.2484 40.2395C39.2463 40.2395 39.2443 40.2395 39.2422 40.2395C39.2401 40.2395 39.2381 40.2395 39.236 40.2395C39.2339 40.2395 39.2319 40.2395 39.2298 40.2395C39.2277 40.2395 39.2257 40.2395 39.2236 40.2395C39.2215 40.2395 39.2195 40.2395 39.2174 40.2395C39.2153 40.2395 39.2133 40.2395 39.2112 40.2395C39.2091 40.2395 39.2071 40.2395 39.205 40.2395C39.2029 40.2395 39.2009 40.2395 39.1988 40.2395C39.1967 40.2395 39.1946 40.2395 39.1926 40.2395C39.1905 40.2395 39.1884 40.2395 39.1864 40.2395C39.1843 40.2395 39.1822 40.2395 39.1801 40.2395C39.1781 40.2395 39.176 40.2395 39.1739 40.2395C39.1718 40.2395 39.1698 40.2395 39.1677 40.2395C39.1656 40.2395 39.1635 40.2395 39.1615 40.2395C39.1594 40.2395 39.1573 40.2395 39.1552 40.2395C39.1532 40.2395 39.1511 40.2395 39.149 40.2395C39.1469 40.2395 39.1449 40.2395 39.1428 40.2395C39.1407 40.2395 39.1386 40.2395 39.1365 40.2395C39.1345 40.2395 39.1324 40.2395 39.1303 40.2395C39.1282 40.2395 39.1261 40.2395 39.1241 40.2395C39.122 40.2395 39.1199 40.2395 39.1178 40.2395C39.1157 40.2395 39.1136 40.2395 39.1116 40.2395C39.1095 40.2395 39.1074 40.2395 39.1053 40.2395C39.1032 40.2395 39.1011 40.2395 39.0991 40.2395C39.097 40.2395 39.0949 40.2395 39.0928 40.2395C39.0907 40.2395 39.0886 40.2395 39.0865 40.2395C39.0844 40.2395 39.0824 40.2395 39.0803 40.2395C39.0782 40.2395 39.0761 40.2395 39.074 40.2395C39.0719 40.2395 39.0698 40.2395 39.0677 40.2395C39.0656 40.2395 39.0636 40.2395 39.0615 40.2395C39.0594 40.2395 39.0573 40.2395 39.0552 40.2395C39.0531 40.2395 39.051 40.2395 39.0489 40.2395C39.0468 40.2395 39.0447 40.2395 39.0426 40.2395C39.0405 40.2395 39.0384 40.2395 39.0363 40.2395C39.0342 40.2395 39.0321 40.2395 39.0301 40.2395C39.028 40.2395 39.0259 40.2395 39.0238 40.2395C39.0217 40.2395 39.0196 40.2395 39.0175 40.2395C39.0154 40.2395 39.0133 40.2395 39.0112 40.2395C39.0091 40.2395 39.007 40.2395 39.0049 40.2395C39.0028 40.2395 39.0007 40.2395 38.9986 40.2395C38.9965 40.2395 38.9944 40.2395 38.9923 40.2395C38.9902 40.2395 38.988 40.2395 38.9859 40.2395C38.9838 40.2395 38.9817 40.2395 38.9796 40.2395C38.9775 40.2395 38.9754 40.2395 38.9733 40.2395C38.9712 40.2395 38.9691 40.2395 38.967 40.2395C38.9649 40.2395 38.9628 40.2395 38.9607 40.2395C38.9586 40.2395 38.9564 40.2395 38.9543 40.2395C38.9522 40.2395 38.9501 40.2395 38.948 40.2395C38.9459 40.2395 38.9438 40.2395 38.9417 40.2395C38.9396 40.2395 38.9374 40.2395 38.9353 40.2395C38.9332 40.2395 38.9311 40.2395 38.929 40.2395C38.9269 40.2395 38.9248 40.2395 38.9226 40.2395C38.9205 40.2395 38.9184 40.2395 38.9163 40.2395C38.9142 40.2395 38.9121 40.2395 38.9099 40.2395C38.9078 40.2395 38.9057 40.2395 38.9036 40.2395C38.9015 40.2395 38.8994 40.2395 38.8972 40.2395C38.8951 40.2395 38.893 40.2395 38.8909 40.2395C38.8887 40.2395 38.8866 40.2395 38.8845 40.2395C38.8824 40.2395 38.8803 40.2395 38.8781 40.2395C38.876 40.2395 38.8739 40.2395 38.8718 40.2395C38.8696 40.2395 38.8675 40.2395 38.8654 40.2395C38.8633 40.2395 38.8611 40.2395 38.859 40.2395C38.8569 40.2395 38.8547 40.2395 38.8526 40.2395C38.8505 40.2395 38.8484 40.2395 38.8462 40.2395C38.8441 40.2395 38.842 40.2395 38.8398 40.2395C38.8377 40.2395 38.8356 40.2395 38.8334 40.2395C38.8313 40.2395 38.8292 40.2395 38.827 40.2395C38.8249 40.2395 38.8228 40.2395 38.8206 40.2395C38.8185 40.2395 38.8164 40.2395 38.8142 40.2395C38.8121 40.2395 38.8099 40.2395 38.8078 40.2395C38.8057 40.2395 38.8035 40.2395 38.8014 40.2395C38.7993 40.2395 38.7971 40.2395 38.795 40.2395C38.7928 40.2395 38.7907 40.2395 38.7886 40.2395C38.7864 40.2395 38.7843 40.2395 38.7821 40.2395C38.78 40.2395 38.7778 40.2395 38.7757 40.2395C38.7735 40.2395 38.7714 40.2395 38.7693 40.2395C38.7671 40.2395 38.765 40.2395 38.7628 40.2395C38.7607 40.2395 38.7585 40.2395 38.7564 40.2395C38.7542 40.2395 38.7521 40.2395 38.7499 40.2395C38.7478 40.2395 38.7456 40.2395 38.7435 40.2395C38.7413 40.2395 38.7392 40.2395 38.737 40.2395C38.7349 40.2395 38.7327 40.2395 38.7306 40.2395C38.7284 40.2395 38.7262 40.2395 38.7241 40.2395C38.7219 40.2395 38.7198 40.2395 38.7176 40.2395C38.7155 40.2395 38.7133 40.2395 38.7111 40.2395C38.709 40.2395 38.7068 40.2395 38.7047 40.2395C38.7025 40.2395 38.7004 40.2395 38.6982 40.2395C38.696 40.2395 38.6939 40.2395 38.6917 40.2395C38.6895 40.2395 38.6874 40.2395 38.6852 40.2395C38.6831 40.2395 38.6809 40.2395 38.6787 40.2395C38.6766 40.2395 38.6744 40.2395 38.6722 40.2395C38.6701 40.2395 38.6679 40.2395 38.6657 40.2395C38.6636 40.2395 38.6614 40.2395 38.6592 40.2395C38.657 40.2395 38.6549 40.2395 38.6527 40.2395C38.6505 40.2395 38.6484 40.2395 38.6462 40.2395C38.644 40.2395 38.6418 40.2395 38.6397 40.2395C38.6375 40.2395 38.6353 40.2395 38.6331 40.2395C38.631 40.2395 38.6288 40.2395 38.6266 40.2395C38.6244 40.2395 38.6223 40.2395 38.6201 40.2395C38.6179 40.2395 38.6157 40.2395 38.6135 40.2395C38.6114 40.2395 38.6092 40.2395 38.607 40.2395C38.6048 40.2395 38.6026 40.2395 38.6004 40.2395C38.5983 40.2395 38.5961 40.2395 38.5939 40.2395C38.5917 40.2395 38.5895 40.2395 38.5873 40.2395C38.5851 40.2395 38.583 40.2395 38.5808 40.2395C38.5786 40.2395 38.5764 40.2395 38.5742 40.2395C38.572 40.2395 38.5698 40.2395 38.5676 40.2395C38.5654 40.2395 38.5633 40.2395 38.5611 40.2395C38.5589 40.2395 38.5567 40.2395 38.5545 40.2395C38.5523 40.2395 38.5501 40.2395 38.5479 40.2395C38.5457 40.2395 38.5435 40.2395 38.5413 40.2395C38.5391 40.2395 38.5369 40.2395 38.5347 40.2395C38.5325 40.2395 38.5303 40.2395 38.5281 40.2395C38.5259 40.2395 38.5237 40.2395 38.5215 40.2395C38.5193 40.2395 38.5171 40.2395 38.5149 40.2395C38.5127 40.2395 38.5105 40.2395 38.5083 40.2395C38.5061 40.2395 38.5039 40.2395 38.5017 40.2395C38.4995 40.2395 38.4973 40.2395 38.495 40.2395C38.4928 40.2395 38.4906 40.2395 38.4884 40.2395C38.4862 40.2395 38.484 40.2395 38.4818 40.2395C38.4796 40.2395 38.4774 40.2395 38.4751 40.2395C38.4729 40.2395 38.4707 40.2395 38.4685 40.2395C38.4663 40.2395 38.4641 40.2395 38.4618 40.2395C38.4596 40.2395 38.4574 40.2395 38.4552 40.2395C38.453 40.2395 38.4508 40.2395 38.4485 40.2395C38.4463 40.2395 38.4441 40.2395 38.4419 40.2395C38.4397 40.2395 38.4374 40.2395 38.4352 40.2395C38.433 40.2395 38.4308 40.2395 38.4285 40.2395C38.4263 40.2395 38.4241 40.2395 38.4219 40.2395C38.4196 40.2395 38.4174 40.2395 38.4152 40.2395C38.4129 40.2395 38.4107 40.2395 38.4085 40.2395C38.4062 40.2395 38.404 40.2395 38.4018 40.2395C38.3996 40.2395 38.3973 40.2395 38.3951 40.2395C38.3928 40.2395 38.3906 40.2395 38.3884 40.2395C38.3861 40.2395 38.3839 40.2395 38.3817 40.2395C38.3794 40.2395 38.3772 40.2395 38.375 40.2395C38.3727 40.2395 38.3705 40.2395 38.3682 40.2395C38.366 40.2395 38.3637 40.2395 38.3615 40.2395C38.3593 40.2395 38.357 40.2395 38.3548 40.2395C38.3525 40.2395 38.3503 40.2395 38.348 40.2395C38.3458 40.2395 38.3435 40.2395 38.3413 40.2395C38.339 40.2395 38.3368 40.2395 38.3345 40.2395C38.3323 40.2395 38.33 40.2395 38.3278 40.2395C38.3255 40.2395 38.3233 40.2395 38.321 40.2395C38.3188 40.2395 38.3165 40.2395 38.3143 40.2395C38.312 40.2395 38.3098 40.2395 38.3075 40.2395C38.3052 40.2395 38.303 40.2395 38.3007 40.2395C38.2985 40.2395 38.2962 40.2395 38.2939 40.2395C38.2917 40.2395 38.2894 40.2395 38.2872 40.2395C38.2849 40.2395 38.2826 40.2395 38.2804 40.2395C38.2781 40.2395 38.2758 40.2395 38.2736 40.2395C38.2713 40.2395 38.269 40.2395 38.2668 40.2395C38.2645 40.2395 38.2622 40.2395 38.26 40.2395C38.2577 40.2395 38.2554 40.2395 38.2531 40.2395C38.2509 40.2395 38.2486 40.2395 38.2463 40.2395C38.244 40.2395 38.2418 40.2395 38.2395 40.2395C38.2372 40.2395 38.2349 40.2395 38.2327 40.2395C38.2304 40.2395 38.2281 40.2395 38.2258 40.2395C38.2235 40.2395 38.2213 40.2395 38.219 40.2395C38.2167 40.2395 38.2144 40.2395 38.2121 40.2395C38.2098 40.2395 38.2076 40.2395 38.2053 40.2395C38.203 40.2395 38.2007 40.2395 38.1984 40.2395C38.1961 40.2395 38.1938 40.2395 38.1916 40.2395C38.1893 40.2395 38.187 40.2395 38.1847 40.2395C38.1824 40.2395 38.1801 40.2395 38.1778 40.2395C38.1755 40.2395 38.1732 40.2395 38.1709 40.2395C38.1686 40.2395 38.1663 40.2395 38.164 40.2395C38.1617 40.2395 38.1594 40.2395 38.1571 40.2395C38.1548 40.2395 38.1525 40.2395 38.1502 40.2395C38.1479 40.2395 38.1456 40.2395 38.1433 40.2395C38.141 40.2395 38.1387 40.2395 38.1364 40.2395C38.1341 40.2395 38.1318 40.2395 38.1295 40.2395C38.1272 40.2395 38.1249 40.2395 38.1226 40.2395C38.1203 40.2395 38.1179 40.2395 38.1156 40.2395C38.1133 40.2395 38.111 40.2395 38.1087 40.2395C38.1064 40.2395 38.1041 40.2395 38.1017 40.2395C38.0994 40.2395 38.0971 40.2395 38.0948 40.2395C38.0925 40.2395 38.0902 40.2395 38.0878 40.2395C38.0855 40.2395 38.0832 40.2395 38.0809 40.2395C38.0786 40.2395 38.0762 40.2395 38.0739 40.2395C38.0716 40.2395 38.0693 40.2395 38.0669 40.2395C38.0646 40.2395 38.0623 40.2395 38.0599 40.2395C38.0576 40.2395 38.0553 40.2395 38.053 40.2395C38.0506 40.2395 38.0483 40.2395 38.046 40.2395C38.0436 40.2395 38.0413 40.2395 38.039 40.2395C38.0366 40.2395 38.0343 40.2395 38.032 40.2395C38.0296 40.2395 38.0273 40.2395 38.0249 40.2395C38.0226 40.2395 38.0203 40.2395 38.0179 40.2395C38.0156 40.2395 38.0132 40.2395 38.0109 40.2395C38.0086 40.2395 38.0062 40.2395 38.0039 40.2395C38.0015 40.2395 37.9992 40.2395 37.9968 40.2395C37.9945 40.2395 37.9921 40.2395 37.9898 40.2395C37.9874 40.2395 37.9851 40.2395 37.9827 40.2395C37.9804 40.2395 37.978 40.2395 37.9757 40.2395C37.9733 40.2395 37.971 40.2395 37.9686 40.2395C37.9662 40.2395 37.9639 40.2395 37.9615 40.2395C37.9592 40.2395 37.9568 40.2395 37.9545 40.2395C37.9521 40.2395 37.9497 40.2395 37.9474 40.2395C37.945 40.2395 37.9426 40.2395 37.9403 40.2395C37.9379 40.2395 37.9355 40.2395 37.9332 40.2395C37.9308 40.2395 37.9284 40.2395 37.9261 40.2395C37.9237 40.2395 37.9213 40.2395 37.919 40.2395C37.9166 40.2395 37.9142 40.2395 37.9118 40.2395C37.9095 40.2395 37.9071 40.2395 37.9047 40.2395C37.9023 40.2395 37.9 40.2395 37.8976 40.2395C37.8952 40.2395 37.8928 40.2395 37.8905 40.2395C37.8881 40.2395 37.8857 40.2395 37.8833 40.2395C37.8809 40.2395 37.8785 40.2395 37.8762 40.2395C37.8738 40.2395 37.8714 40.2395 37.869 40.2395C37.8666 40.2395 37.8642 40.2395 37.8618 40.2395C37.8594 40.2395 37.857 40.2395 37.8547 40.2395C37.8523 40.2395 37.8499 40.2395 37.8475 40.2395C37.8451 40.2395 37.8427 40.2395 37.8403 40.2395C37.8379 40.2395 37.8355 40.2395 37.8331 40.2395C37.8307 40.2395 37.8283 40.2395 37.8259 40.2395C37.8235 40.2395 37.8211 40.2395 37.8187 40.2395C37.8163 40.2395 37.8139 40.2395 37.8115 40.2395C37.8091 40.2395 37.8067 40.2395 37.8043 40.2395C37.8018 40.2395 37.7994 40.2395 37.797 40.2395C37.7946 40.2395 37.7922 40.2395 37.7898 40.2395C37.7874 40.2395 37.785 40.2395 37.7825 40.2395C37.7801 40.2395 37.7777 40.2395 37.7753 40.2395C37.7729 40.2395 37.7705 40.2395 37.768 40.2395C37.7656 40.2395 37.7632 40.2395 37.7608 40.2395C37.7584 40.2395 37.7559 40.2395 37.7535 40.2395C37.7511 40.2395 37.7487 40.2395 37.7462 40.2395C37.7438 40.2395 37.7414 40.2395 37.7389 40.2395C37.7365 40.2395 37.7341 40.2395 37.7317 40.2395C37.7292 40.2395 37.7268 40.2395 37.7244 40.2395C37.7219 40.2395 37.7195 40.2395 37.717 40.2395C37.7146 40.2395 37.7122 40.2395 37.7097 40.2395C37.7073 40.2395 37.7049 40.2395 37.7024 40.2395C37.7 40.2395 37.6975 40.2395 37.6951 40.2395C37.6926 40.2395 37.6902 40.2395 37.6877 40.2395C37.6853 40.2395 37.6828 40.2395 37.6804 40.2395C37.678 40.2395 37.6755 40.2395 37.673 40.2395C37.6706 40.2395 37.6681 40.2395 37.6657 40.2395C37.6632 40.2395 37.6608 40.2395 37.6583 40.2395C37.6559 40.2395 37.6534 40.2395 37.651 40.2395C37.6485 40.2395 37.646 40.2395 37.6436 40.2395C37.6411 40.2395 37.6386 40.2395 37.6362 40.2395C37.6337 40.2395 37.6313 40.2395 37.6288 40.2395C37.6263 40.2395 37.6239 40.2395 37.6214 40.2395C37.6189 40.2395 37.6164 40.2395 37.614 40.2395C37.6115 40.2395 37.609 40.2395 37.6066 40.2395C37.6041 40.2395 37.6016 40.2395 37.5991 40.2395C37.5966 40.2395 37.5942 40.2395 37.5917 40.2395C37.5892 40.2395 37.5867 40.2395 37.5842 40.2395C37.5818 40.2395 37.5793 40.2395 37.5768 40.2395C37.5743 40.2395 37.5718 40.2395 37.5693 40.2395C37.5669 40.2395 37.5644 40.2395 37.5619 40.2395C37.5594 40.2395 37.5569 40.2395 37.5544 40.2395C37.5519 40.2395 37.5494 40.2395 37.5469 40.2395C37.5444 40.2395 37.5419 40.2395 37.5394 40.2395C37.5369 40.2395 37.5344 40.2395 37.5319 40.2395C37.5294 40.2395 37.5269 40.2395 37.5244 40.2395C37.5219 40.2395 37.5194 40.2395 37.5169 40.2395C37.5144 40.2395 37.5119 40.2395 37.5094 40.2395C37.5069 40.2395 37.5044 40.2395 37.5019 40.2395C37.4994 40.2395 37.4969 40.2395 37.4943 40.2395C37.4918 40.2395 37.4893 40.2395 37.4868 40.2395C37.4843 40.2395 37.4818 40.2395 37.4793 40.2395C37.4767 40.2395 37.4742 40.2395 37.4717 40.2395C37.4692 40.2395 37.4666 40.2395 37.4641 40.2395C37.4616 40.2395 37.4591 40.2395 37.4566 40.2395C37.454 40.2395 37.4515 40.2395 37.449 40.2395C37.4464 40.2395 37.4439 40.2395 37.4414 40.2395C37.4388 40.2395 37.4363 40.2395 37.4338 40.2395C37.4312 40.2395 37.4287 40.2395 37.4262 40.2395C37.4236 40.2395 37.4211 40.2395 37.4186 40.2395V50.2395C37.4211 50.2395 37.4236 50.2395 37.4262 50.2395C37.4287 50.2395 37.4312 50.2395 37.4338 50.2395C37.4363 50.2395 37.4388 50.2395 37.4414 50.2395C37.4439 50.2395 37.4464 50.2395 37.449 50.2395C37.4515 50.2395 37.454 50.2395 37.4566 50.2395C37.4591 50.2395 37.4616 50.2395 37.4641 50.2395C37.4666 50.2395 37.4692 50.2395 37.4717 50.2395C37.4742 50.2395 37.4767 50.2395 37.4793 50.2395C37.4818 50.2395 37.4843 50.2395 37.4868 50.2395C37.4893 50.2395 37.4918 50.2395 37.4943 50.2395C37.4969 50.2395 37.4994 50.2395 37.5019 50.2395C37.5044 50.2395 37.5069 50.2395 37.5094 50.2395C37.5119 50.2395 37.5144 50.2395 37.5169 50.2395C37.5194 50.2395 37.5219 50.2395 37.5244 50.2395C37.5269 50.2395 37.5294 50.2395 37.5319 50.2395C37.5344 50.2395 37.5369 50.2395 37.5394 50.2395C37.5419 50.2395 37.5444 50.2395 37.5469 50.2395C37.5494 50.2395 37.5519 50.2395 37.5544 50.2395C37.5569 50.2395 37.5594 50.2395 37.5619 50.2395C37.5644 50.2395 37.5669 50.2395 37.5693 50.2395C37.5718 50.2395 37.5743 50.2395 37.5768 50.2395C37.5793 50.2395 37.5818 50.2395 37.5842 50.2395C37.5867 50.2395 37.5892 50.2395 37.5917 50.2395C37.5942 50.2395 37.5966 50.2395 37.5991 50.2395C37.6016 50.2395 37.6041 50.2395 37.6066 50.2395C37.609 50.2395 37.6115 50.2395 37.614 50.2395C37.6164 50.2395 37.6189 50.2395 37.6214 50.2395C37.6239 50.2395 37.6263 50.2395 37.6288 50.2395C37.6313 50.2395 37.6337 50.2395 37.6362 50.2395C37.6386 50.2395 37.6411 50.2395 37.6436 50.2395C37.646 50.2395 37.6485 50.2395 37.651 50.2395C37.6534 50.2395 37.6559 50.2395 37.6583 50.2395C37.6608 50.2395 37.6632 50.2395 37.6657 50.2395C37.6681 50.2395 37.6706 50.2395 37.673 50.2395C37.6755 50.2395 37.678 50.2395 37.6804 50.2395C37.6828 50.2395 37.6853 50.2395 37.6877 50.2395C37.6902 50.2395 37.6926 50.2395 37.6951 50.2395C37.6975 50.2395 37.7 50.2395 37.7024 50.2395C37.7049 50.2395 37.7073 50.2395 37.7097 50.2395C37.7122 50.2395 37.7146 50.2395 37.717 50.2395C37.7195 50.2395 37.7219 50.2395 37.7244 50.2395C37.7268 50.2395 37.7292 50.2395 37.7317 50.2395C37.7341 50.2395 37.7365 50.2395 37.7389 50.2395C37.7414 50.2395 37.7438 50.2395 37.7462 50.2395C37.7487 50.2395 37.7511 50.2395 37.7535 50.2395C37.7559 50.2395 37.7584 50.2395 37.7608 50.2395C37.7632 50.2395 37.7656 50.2395 37.768 50.2395C37.7705 50.2395 37.7729 50.2395 37.7753 50.2395C37.7777 50.2395 37.7801 50.2395 37.7825 50.2395C37.785 50.2395 37.7874 50.2395 37.7898 50.2395C37.7922 50.2395 37.7946 50.2395 37.797 50.2395C37.7994 50.2395 37.8018 50.2395 37.8043 50.2395C37.8067 50.2395 37.8091 50.2395 37.8115 50.2395C37.8139 50.2395 37.8163 50.2395 37.8187 50.2395C37.8211 50.2395 37.8235 50.2395 37.8259 50.2395C37.8283 50.2395 37.8307 50.2395 37.8331 50.2395C37.8355 50.2395 37.8379 50.2395 37.8403 50.2395C37.8427 50.2395 37.8451 50.2395 37.8475 50.2395C37.8499 50.2395 37.8523 50.2395 37.8547 50.2395C37.857 50.2395 37.8594 50.2395 37.8618 50.2395C37.8642 50.2395 37.8666 50.2395 37.869 50.2395C37.8714 50.2395 37.8738 50.2395 37.8762 50.2395C37.8785 50.2395 37.8809 50.2395 37.8833 50.2395C37.8857 50.2395 37.8881 50.2395 37.8905 50.2395C37.8928 50.2395 37.8952 50.2395 37.8976 50.2395C37.9 50.2395 37.9023 50.2395 37.9047 50.2395C37.9071 50.2395 37.9095 50.2395 37.9118 50.2395C37.9142 50.2395 37.9166 50.2395 37.919 50.2395C37.9213 50.2395 37.9237 50.2395 37.9261 50.2395C37.9284 50.2395 37.9308 50.2395 37.9332 50.2395C37.9355 50.2395 37.9379 50.2395 37.9403 50.2395C37.9426 50.2395 37.945 50.2395 37.9474 50.2395C37.9497 50.2395 37.9521 50.2395 37.9545 50.2395C37.9568 50.2395 37.9592 50.2395 37.9615 50.2395C37.9639 50.2395 37.9662 50.2395 37.9686 50.2395C37.971 50.2395 37.9733 50.2395 37.9757 50.2395C37.978 50.2395 37.9804 50.2395 37.9827 50.2395C37.9851 50.2395 37.9874 50.2395 37.9898 50.2395C37.9921 50.2395 37.9945 50.2395 37.9968 50.2395C37.9992 50.2395 38.0015 50.2395 38.0039 50.2395C38.0062 50.2395 38.0086 50.2395 38.0109 50.2395C38.0132 50.2395 38.0156 50.2395 38.0179 50.2395C38.0203 50.2395 38.0226 50.2395 38.0249 50.2395C38.0273 50.2395 38.0296 50.2395 38.032 50.2395C38.0343 50.2395 38.0366 50.2395 38.039 50.2395C38.0413 50.2395 38.0436 50.2395 38.046 50.2395C38.0483 50.2395 38.0506 50.2395 38.053 50.2395C38.0553 50.2395 38.0576 50.2395 38.0599 50.2395C38.0623 50.2395 38.0646 50.2395 38.0669 50.2395C38.0693 50.2395 38.0716 50.2395 38.0739 50.2395C38.0762 50.2395 38.0786 50.2395 38.0809 50.2395C38.0832 50.2395 38.0855 50.2395 38.0878 50.2395C38.0902 50.2395 38.0925 50.2395 38.0948 50.2395C38.0971 50.2395 38.0994 50.2395 38.1017 50.2395C38.1041 50.2395 38.1064 50.2395 38.1087 50.2395C38.111 50.2395 38.1133 50.2395 38.1156 50.2395C38.1179 50.2395 38.1203 50.2395 38.1226 50.2395C38.1249 50.2395 38.1272 50.2395 38.1295 50.2395C38.1318 50.2395 38.1341 50.2395 38.1364 50.2395C38.1387 50.2395 38.141 50.2395 38.1433 50.2395C38.1456 50.2395 38.1479 50.2395 38.1502 50.2395C38.1525 50.2395 38.1548 50.2395 38.1571 50.2395C38.1594 50.2395 38.1617 50.2395 38.164 50.2395C38.1663 50.2395 38.1686 50.2395 38.1709 50.2395C38.1732 50.2395 38.1755 50.2395 38.1778 50.2395C38.1801 50.2395 38.1824 50.2395 38.1847 50.2395C38.187 50.2395 38.1893 50.2395 38.1916 50.2395C38.1938 50.2395 38.1961 50.2395 38.1984 50.2395C38.2007 50.2395 38.203 50.2395 38.2053 50.2395C38.2076 50.2395 38.2098 50.2395 38.2121 50.2395C38.2144 50.2395 38.2167 50.2395 38.219 50.2395C38.2213 50.2395 38.2235 50.2395 38.2258 50.2395C38.2281 50.2395 38.2304 50.2395 38.2327 50.2395C38.2349 50.2395 38.2372 50.2395 38.2395 50.2395C38.2418 50.2395 38.244 50.2395 38.2463 50.2395C38.2486 50.2395 38.2509 50.2395 38.2531 50.2395C38.2554 50.2395 38.2577 50.2395 38.26 50.2395C38.2622 50.2395 38.2645 50.2395 38.2668 50.2395C38.269 50.2395 38.2713 50.2395 38.2736 50.2395C38.2758 50.2395 38.2781 50.2395 38.2804 50.2395C38.2826 50.2395 38.2849 50.2395 38.2872 50.2395C38.2894 50.2395 38.2917 50.2395 38.2939 50.2395C38.2962 50.2395 38.2985 50.2395 38.3007 50.2395C38.303 50.2395 38.3052 50.2395 38.3075 50.2395C38.3098 50.2395 38.312 50.2395 38.3143 50.2395C38.3165 50.2395 38.3188 50.2395 38.321 50.2395C38.3233 50.2395 38.3255 50.2395 38.3278 50.2395C38.33 50.2395 38.3323 50.2395 38.3345 50.2395C38.3368 50.2395 38.339 50.2395 38.3413 50.2395C38.3435 50.2395 38.3458 50.2395 38.348 50.2395C38.3503 50.2395 38.3525 50.2395 38.3548 50.2395C38.357 50.2395 38.3593 50.2395 38.3615 50.2395C38.3637 50.2395 38.366 50.2395 38.3682 50.2395C38.3705 50.2395 38.3727 50.2395 38.375 50.2395C38.3772 50.2395 38.3794 50.2395 38.3817 50.2395C38.3839 50.2395 38.3861 50.2395 38.3884 50.2395C38.3906 50.2395 38.3928 50.2395 38.3951 50.2395C38.3973 50.2395 38.3996 50.2395 38.4018 50.2395C38.404 50.2395 38.4062 50.2395 38.4085 50.2395C38.4107 50.2395 38.4129 50.2395 38.4152 50.2395C38.4174 50.2395 38.4196 50.2395 38.4219 50.2395C38.4241 50.2395 38.4263 50.2395 38.4285 50.2395C38.4308 50.2395 38.433 50.2395 38.4352 50.2395C38.4374 50.2395 38.4397 50.2395 38.4419 50.2395C38.4441 50.2395 38.4463 50.2395 38.4485 50.2395C38.4508 50.2395 38.453 50.2395 38.4552 50.2395C38.4574 50.2395 38.4596 50.2395 38.4618 50.2395C38.4641 50.2395 38.4663 50.2395 38.4685 50.2395C38.4707 50.2395 38.4729 50.2395 38.4751 50.2395C38.4774 50.2395 38.4796 50.2395 38.4818 50.2395C38.484 50.2395 38.4862 50.2395 38.4884 50.2395C38.4906 50.2395 38.4928 50.2395 38.495 50.2395C38.4973 50.2395 38.4995 50.2395 38.5017 50.2395C38.5039 50.2395 38.5061 50.2395 38.5083 50.2395C38.5105 50.2395 38.5127 50.2395 38.5149 50.2395C38.5171 50.2395 38.5193 50.2395 38.5215 50.2395C38.5237 50.2395 38.5259 50.2395 38.5281 50.2395C38.5303 50.2395 38.5325 50.2395 38.5347 50.2395C38.5369 50.2395 38.5391 50.2395 38.5413 50.2395C38.5435 50.2395 38.5457 50.2395 38.5479 50.2395C38.5501 50.2395 38.5523 50.2395 38.5545 50.2395C38.5567 50.2395 38.5589 50.2395 38.5611 50.2395C38.5633 50.2395 38.5654 50.2395 38.5676 50.2395C38.5698 50.2395 38.572 50.2395 38.5742 50.2395C38.5764 50.2395 38.5786 50.2395 38.5808 50.2395C38.583 50.2395 38.5851 50.2395 38.5873 50.2395C38.5895 50.2395 38.5917 50.2395 38.5939 50.2395C38.5961 50.2395 38.5983 50.2395 38.6004 50.2395C38.6026 50.2395 38.6048 50.2395 38.607 50.2395C38.6092 50.2395 38.6114 50.2395 38.6135 50.2395C38.6157 50.2395 38.6179 50.2395 38.6201 50.2395C38.6223 50.2395 38.6244 50.2395 38.6266 50.2395C38.6288 50.2395 38.631 50.2395 38.6331 50.2395C38.6353 50.2395 38.6375 50.2395 38.6397 50.2395C38.6418 50.2395 38.644 50.2395 38.6462 50.2395C38.6484 50.2395 38.6505 50.2395 38.6527 50.2395C38.6549 50.2395 38.657 50.2395 38.6592 50.2395C38.6614 50.2395 38.6636 50.2395 38.6657 50.2395C38.6679 50.2395 38.6701 50.2395 38.6722 50.2395C38.6744 50.2395 38.6766 50.2395 38.6787 50.2395C38.6809 50.2395 38.6831 50.2395 38.6852 50.2395C38.6874 50.2395 38.6895 50.2395 38.6917 50.2395C38.6939 50.2395 38.696 50.2395 38.6982 50.2395C38.7004 50.2395 38.7025 50.2395 38.7047 50.2395C38.7068 50.2395 38.709 50.2395 38.7111 50.2395C38.7133 50.2395 38.7155 50.2395 38.7176 50.2395C38.7198 50.2395 38.7219 50.2395 38.7241 50.2395C38.7262 50.2395 38.7284 50.2395 38.7306 50.2395C38.7327 50.2395 38.7349 50.2395 38.737 50.2395C38.7392 50.2395 38.7413 50.2395 38.7435 50.2395C38.7456 50.2395 38.7478 50.2395 38.7499 50.2395C38.7521 50.2395 38.7542 50.2395 38.7564 50.2395C38.7585 50.2395 38.7607 50.2395 38.7628 50.2395C38.765 50.2395 38.7671 50.2395 38.7693 50.2395C38.7714 50.2395 38.7735 50.2395 38.7757 50.2395C38.7778 50.2395 38.78 50.2395 38.7821 50.2395C38.7843 50.2395 38.7864 50.2395 38.7886 50.2395C38.7907 50.2395 38.7928 50.2395 38.795 50.2395C38.7971 50.2395 38.7993 50.2395 38.8014 50.2395C38.8035 50.2395 38.8057 50.2395 38.8078 50.2395C38.8099 50.2395 38.8121 50.2395 38.8142 50.2395C38.8164 50.2395 38.8185 50.2395 38.8206 50.2395C38.8228 50.2395 38.8249 50.2395 38.827 50.2395C38.8292 50.2395 38.8313 50.2395 38.8334 50.2395C38.8356 50.2395 38.8377 50.2395 38.8398 50.2395C38.842 50.2395 38.8441 50.2395 38.8462 50.2395C38.8484 50.2395 38.8505 50.2395 38.8526 50.2395C38.8547 50.2395 38.8569 50.2395 38.859 50.2395C38.8611 50.2395 38.8633 50.2395 38.8654 50.2395C38.8675 50.2395 38.8696 50.2395 38.8718 50.2395C38.8739 50.2395 38.876 50.2395 38.8781 50.2395C38.8803 50.2395 38.8824 50.2395 38.8845 50.2395C38.8866 50.2395 38.8887 50.2395 38.8909 50.2395C38.893 50.2395 38.8951 50.2395 38.8972 50.2395C38.8994 50.2395 38.9015 50.2395 38.9036 50.2395C38.9057 50.2395 38.9078 50.2395 38.9099 50.2395C38.9121 50.2395 38.9142 50.2395 38.9163 50.2395C38.9184 50.2395 38.9205 50.2395 38.9226 50.2395C38.9248 50.2395 38.9269 50.2395 38.929 50.2395C38.9311 50.2395 38.9332 50.2395 38.9353 50.2395C38.9374 50.2395 38.9396 50.2395 38.9417 50.2395C38.9438 50.2395 38.9459 50.2395 38.948 50.2395C38.9501 50.2395 38.9522 50.2395 38.9543 50.2395C38.9564 50.2395 38.9586 50.2395 38.9607 50.2395C38.9628 50.2395 38.9649 50.2395 38.967 50.2395C38.9691 50.2395 38.9712 50.2395 38.9733 50.2395C38.9754 50.2395 38.9775 50.2395 38.9796 50.2395C38.9817 50.2395 38.9838 50.2395 38.9859 50.2395C38.988 50.2395 38.9902 50.2395 38.9923 50.2395C38.9944 50.2395 38.9965 50.2395 38.9986 50.2395C39.0007 50.2395 39.0028 50.2395 39.0049 50.2395C39.007 50.2395 39.0091 50.2395 39.0112 50.2395C39.0133 50.2395 39.0154 50.2395 39.0175 50.2395C39.0196 50.2395 39.0217 50.2395 39.0238 50.2395C39.0259 50.2395 39.028 50.2395 39.0301 50.2395C39.0321 50.2395 39.0342 50.2395 39.0363 50.2395C39.0384 50.2395 39.0405 50.2395 39.0426 50.2395C39.0447 50.2395 39.0468 50.2395 39.0489 50.2395C39.051 50.2395 39.0531 50.2395 39.0552 50.2395C39.0573 50.2395 39.0594 50.2395 39.0615 50.2395C39.0636 50.2395 39.0656 50.2395 39.0677 50.2395C39.0698 50.2395 39.0719 50.2395 39.074 50.2395C39.0761 50.2395 39.0782 50.2395 39.0803 50.2395C39.0824 50.2395 39.0844 50.2395 39.0865 50.2395C39.0886 50.2395 39.0907 50.2395 39.0928 50.2395C39.0949 50.2395 39.097 50.2395 39.0991 50.2395C39.1011 50.2395 39.1032 50.2395 39.1053 50.2395C39.1074 50.2395 39.1095 50.2395 39.1116 50.2395C39.1136 50.2395 39.1157 50.2395 39.1178 50.2395C39.1199 50.2395 39.122 50.2395 39.1241 50.2395C39.1261 50.2395 39.1282 50.2395 39.1303 50.2395C39.1324 50.2395 39.1345 50.2395 39.1365 50.2395C39.1386 50.2395 39.1407 50.2395 39.1428 50.2395C39.1449 50.2395 39.1469 50.2395 39.149 50.2395C39.1511 50.2395 39.1532 50.2395 39.1552 50.2395C39.1573 50.2395 39.1594 50.2395 39.1615 50.2395C39.1635 50.2395 39.1656 50.2395 39.1677 50.2395C39.1698 50.2395 39.1718 50.2395 39.1739 50.2395C39.176 50.2395 39.1781 50.2395 39.1801 50.2395C39.1822 50.2395 39.1843 50.2395 39.1864 50.2395C39.1884 50.2395 39.1905 50.2395 39.1926 50.2395C39.1946 50.2395 39.1967 50.2395 39.1988 50.2395C39.2009 50.2395 39.2029 50.2395 39.205 50.2395C39.2071 50.2395 39.2091 50.2395 39.2112 50.2395C39.2133 50.2395 39.2153 50.2395 39.2174 50.2395C39.2195 50.2395 39.2215 50.2395 39.2236 50.2395C39.2257 50.2395 39.2277 50.2395 39.2298 50.2395C39.2319 50.2395 39.2339 50.2395 39.236 50.2395C39.2381 50.2395 39.2401 50.2395 39.2422 50.2395C39.2443 50.2395 39.2463 50.2395 39.2484 50.2395C39.2505 50.2395 39.2525 50.2395 39.2546 50.2395C39.2567 50.2395 39.2587 50.2395 39.2608 50.2395C39.2628 50.2395 39.2649 50.2395 39.267 50.2395C39.269 50.2395 39.2711 50.2395 39.2731 50.2395C39.2752 50.2395 39.2773 50.2395 39.2793 50.2395C39.2814 50.2395 39.2834 50.2395 39.2855 50.2395C39.2876 50.2395 39.2896 50.2395 39.2917 50.2395C39.2937 50.2395 39.2958 50.2395 39.2979 50.2395C39.2999 50.2395 39.302 50.2395 39.304 50.2395C39.3061 50.2395 39.3081 50.2395 39.3102 50.2395C39.3123 50.2395 39.3143 50.2395 39.3164 50.2395C39.3184 50.2395 39.3205 50.2395 39.3225 50.2395C39.3246 50.2395 39.3266 50.2395 39.3287 50.2395C39.3307 50.2395 39.3328 50.2395 39.3348 50.2395C39.3369 50.2395 39.339 50.2395 39.341 50.2395C39.3431 50.2395 39.3451 50.2395 39.3472 50.2395C39.3492 50.2395 39.3513 50.2395 39.3533 50.2395C39.3554 50.2395 39.3574 50.2395 39.3595 50.2395C39.3615 50.2395 39.3636 50.2395 39.3656 50.2395C39.3677 50.2395 39.3697 50.2395 39.3718 50.2395C39.3738 50.2395 39.3759 50.2395 39.3779 50.2395C39.38 50.2395 39.382 50.2395 39.3841 50.2395C39.3861 50.2395 39.3882 50.2395 39.3902 50.2395C39.3922 50.2395 39.3943 50.2395 39.3963 50.2395C39.3984 50.2395 39.4004 50.2395 39.4025 50.2395C39.4045 50.2395 39.4066 50.2395 39.4086 50.2395C39.4107 50.2395 39.4127 50.2395 39.4147 50.2395C39.4168 50.2395 39.4188 50.2395 39.4209 50.2395C39.4229 50.2395 39.425 50.2395 39.427 50.2395C39.4291 50.2395 39.4311 50.2395 39.4331 50.2395C39.4352 50.2395 39.4372 50.2395 39.4393 50.2395C39.4413 50.2395 39.4434 50.2395 39.4454 50.2395C39.4474 50.2395 39.4495 50.2395 39.4515 50.2395C39.4536 50.2395 39.4556 50.2395 39.4576 50.2395C39.4597 50.2395 39.4617 50.2395 39.4638 50.2395C39.4658 50.2395 39.4678 50.2395 39.4699 50.2395C39.4719 50.2395 39.474 50.2395 39.476 50.2395C39.478 50.2395 39.4801 50.2395 39.4821 50.2395C39.4841 50.2395 39.4862 50.2395 39.4882 50.2395C39.4903 50.2395 39.4923 50.2395 39.4943 50.2395C39.4964 50.2395 39.4984 50.2395 39.5004 50.2395C39.5025 50.2395 39.5045 50.2395 39.5066 50.2395C39.5086 50.2395 39.5106 50.2395 39.5127 50.2395C39.5147 50.2395 39.5167 50.2395 39.5188 50.2395C39.5208 50.2395 39.5228 50.2395 39.5249 50.2395C39.5269 50.2395 39.5289 50.2395 39.531 50.2395C39.533 50.2395 39.535 50.2395 39.5371 50.2395C39.5391 50.2395 39.5411 50.2395 39.5432 50.2395C39.5452 50.2395 39.5472 50.2395 39.5493 50.2395C39.5513 50.2395 39.5533 50.2395 39.5554 50.2395C39.5574 50.2395 39.5594 50.2395 39.5615 50.2395C39.5635 50.2395 39.5655 50.2395 39.5676 50.2395C39.5696 50.2395 39.5716 50.2395 39.5736 50.2395C39.5757 50.2395 39.5777 50.2395 39.5797 50.2395C39.5818 50.2395 39.5838 50.2395 39.5858 50.2395C39.5879 50.2395 39.5899 50.2395 39.5919 50.2395C39.5939 50.2395 39.596 50.2395 39.598 50.2395C39.6 50.2395 39.6021 50.2395 39.6041 50.2395C39.6061 50.2395 39.6081 50.2395 39.6102 50.2395C39.6122 50.2395 39.6142 50.2395 39.6163 50.2395C39.6183 50.2395 39.6203 50.2395 39.6223 50.2395C39.6244 50.2395 39.6264 50.2395 39.6284 50.2395C39.6305 50.2395 39.6325 50.2395 39.6345 50.2395C39.6365 50.2395 39.6386 50.2395 39.6406 50.2395C39.6426 50.2395 39.6446 50.2395 39.6467 50.2395C39.6487 50.2395 39.6507 50.2395 39.6527 50.2395C39.6548 50.2395 39.6568 50.2395 39.6588 50.2395C39.6608 50.2395 39.6629 50.2395 39.6649 50.2395C39.6669 50.2395 39.6689 50.2395 39.671 50.2395C39.673 50.2395 39.675 50.2395 39.677 50.2395C39.6791 50.2395 39.6811 50.2395 39.6831 50.2395C39.6851 50.2395 39.6872 50.2395 39.6892 50.2395C39.6912 50.2395 39.6932 50.2395 39.6953 50.2395C39.6973 50.2395 39.6993 50.2395 39.7013 50.2395C39.7033 50.2395 39.7054 50.2395 39.7074 50.2395C39.7094 50.2395 39.7114 50.2395 39.7135 50.2395C39.7155 50.2395 39.7175 50.2395 39.7195 50.2395C39.7215 50.2395 39.7236 50.2395 39.7256 50.2395C39.7276 50.2395 39.7296 50.2395 39.7317 50.2395C39.7337 50.2395 39.7357 50.2395 39.7377 50.2395C39.7397 50.2395 39.7418 50.2395 39.7438 50.2395C39.7458 50.2395 39.7478 50.2395 39.7498 50.2395C39.7519 50.2395 39.7539 50.2395 39.7559 50.2395C39.7579 50.2395 39.76 50.2395 39.762 50.2395C39.764 50.2395 39.766 50.2395 39.768 50.2395C39.7701 50.2395 39.7721 50.2395 39.7741 50.2395C39.7761 50.2395 39.7781 50.2395 39.7802 50.2395C39.7822 50.2395 39.7842 50.2395 39.7862 50.2395C39.7882 50.2395 39.7903 50.2395 39.7923 50.2395C39.7943 50.2395 39.7963 50.2395 39.7983 50.2395C39.8003 50.2395 39.8024 50.2395 39.8044 50.2395C39.8064 50.2395 39.8084 50.2395 39.8104 50.2395C39.8125 50.2395 39.8145 50.2395 39.8165 50.2395C39.8185 50.2395 39.8205 50.2395 39.8226 50.2395C39.8246 50.2395 39.8266 50.2395 39.8286 50.2395C39.8306 50.2395 39.8326 50.2395 39.8347 50.2395C39.8367 50.2395 39.8387 50.2395 39.8407 50.2395C39.8427 50.2395 39.8448 50.2395 39.8468 50.2395C39.8488 50.2395 39.8508 50.2395 39.8528 50.2395C39.8548 50.2395 39.8569 50.2395 39.8589 50.2395C39.8609 50.2395 39.8629 50.2395 39.8649 50.2395C39.867 50.2395 39.869 50.2395 39.871 50.2395C39.873 50.2395 39.875 50.2395 39.877 50.2395C39.8791 50.2395 39.8811 50.2395 39.8831 50.2395C39.8851 50.2395 39.8871 50.2395 39.8891 50.2395C39.8912 50.2395 39.8932 50.2395 39.8952 50.2395C39.8972 50.2395 39.8992 50.2395 39.9012 50.2395C39.9033 50.2395 39.9053 50.2395 39.9073 50.2395C39.9093 50.2395 39.9113 50.2395 39.9134 50.2395C39.9154 50.2395 39.9174 50.2395 39.9194 50.2395C39.9214 50.2395 39.9234 50.2395 39.9255 50.2395C39.9275 50.2395 39.9295 50.2395 39.9315 50.2395C39.9335 50.2395 39.9355 50.2395 39.9376 50.2395C39.9396 50.2395 39.9416 50.2395 39.9436 50.2395C39.9456 50.2395 39.9476 50.2395 39.9497 50.2395C39.9517 50.2395 39.9537 50.2395 39.9557 50.2395C39.9577 50.2395 39.9597 50.2395 39.9618 50.2395C39.9638 50.2395 39.9658 50.2395 39.9678 50.2395C39.9698 50.2395 39.9718 50.2395 39.9739 50.2395C39.9759 50.2395 39.9779 50.2395 39.9799 50.2395C39.9819 50.2395 39.9839 50.2395 39.986 50.2395C39.988 50.2395 39.99 50.2395 39.992 50.2395C39.994 50.2395 39.996 50.2395 39.9981 50.2395C40.0001 50.2395 40.0021 50.2395 40.0041 50.2395C40.0061 50.2395 40.0082 50.2395 40.0102 50.2395C40.0122 50.2395 40.0142 50.2395 40.0162 50.2395C40.0182 50.2395 40.0203 50.2395 40.0223 50.2395C40.0243 50.2395 40.0263 50.2395 40.0283 50.2395C40.0303 50.2395 40.0324 50.2395 40.0344 50.2395C40.0364 50.2395 40.0384 50.2395 40.0404 50.2395C40.0424 50.2395 40.0445 50.2395 40.0465 50.2395C40.0485 50.2395 40.0505 50.2395 40.0525 50.2395C40.0546 50.2395 40.0566 50.2395 40.0586 50.2395C40.0606 50.2395 40.0626 50.2395 40.0646 50.2395C40.0667 50.2395 40.0687 50.2395 40.0707 50.2395C40.0727 50.2395 40.0747 50.2395 40.0768 50.2395C40.0788 50.2395 40.0808 50.2395 40.0828 50.2395C40.0848 50.2395 40.0868 50.2395 40.0889 50.2395C40.0909 50.2395 40.0929 50.2395 40.0949 50.2395C40.0969 50.2395 40.099 50.2395 40.101 50.2395C40.103 50.2395 40.105 50.2395 40.107 50.2395C40.1091 50.2395 40.1111 50.2395 40.1131 50.2395C40.1151 50.2395 40.1171 50.2395 40.1192 50.2395C40.1212 50.2395 40.1232 50.2395 40.1252 50.2395C40.1272 50.2395 40.1293 50.2395 40.1313 50.2395C40.1333 50.2395 40.1353 50.2395 40.1373 50.2395C40.1394 50.2395 40.1414 50.2395 40.1434 50.2395C40.1454 50.2395 40.1474 50.2395 40.1495 50.2395C40.1515 50.2395 40.1535 50.2395 40.1555 50.2395C40.1575 50.2395 40.1596 50.2395 40.1616 50.2395C40.1636 50.2395 40.1656 50.2395 40.1676 50.2395C40.1697 50.2395 40.1717 50.2395 40.1737 50.2395C40.1757 50.2395 40.1778 50.2395 40.1798 50.2395C40.1818 50.2395 40.1838 50.2395 40.1858 50.2395C40.1879 50.2395 40.1899 50.2395 40.1919 50.2395C40.1939 50.2395 40.196 50.2395 40.198 50.2395C40.2 50.2395 40.202 50.2395 40.204 50.2395C40.2061 50.2395 40.2081 50.2395 40.2101 50.2395C40.2121 50.2395 40.2142 50.2395 40.2162 50.2395C40.2182 50.2395 40.2202 50.2395 40.2223 50.2395C40.2243 50.2395 40.2263 50.2395 40.2283 50.2395C40.2304 50.2395 40.2324 50.2395 40.2344 50.2395C40.2364 50.2395 40.2384 50.2395 40.2405 50.2395C40.2425 50.2395 40.2445 50.2395 40.2466 50.2395C40.2486 50.2395 40.2506 50.2395 40.2526 50.2395C40.2547 50.2395 40.2567 50.2395 40.2587 50.2395C40.2607 50.2395 40.2628 50.2395 40.2648 50.2395C40.2668 50.2395 40.2688 50.2395 40.2709 50.2395C40.2729 50.2395 40.2749 50.2395 40.2769 50.2395C40.279 50.2395 40.281 50.2395 40.283 50.2395C40.2851 50.2395 40.2871 50.2395 40.2891 50.2395C40.2911 50.2395 40.2932 50.2395 40.2952 50.2395C40.2972 50.2395 40.2992 50.2395 40.3013 50.2395C40.3033 50.2395 40.3053 50.2395 40.3074 50.2395C40.3094 50.2395 40.3114 50.2395 40.3134 50.2395C40.3155 50.2395 40.3175 50.2395 40.3195 50.2395C40.3216 50.2395 40.3236 50.2395 40.3256 50.2395C40.3277 50.2395 40.3297 50.2395 40.3317 50.2395C40.3338 50.2395 40.3358 50.2395 40.3378 50.2395C40.3398 50.2395 40.3419 50.2395 40.3439 50.2395C40.3459 50.2395 40.348 50.2395 40.35 50.2395C40.352 50.2395 40.3541 50.2395 40.3561 50.2395C40.3581 50.2395 40.3602 50.2395 40.3622 50.2395C40.3642 50.2395 40.3663 50.2395 40.3683 50.2395C40.3703 50.2395 40.3724 50.2395 40.3744 50.2395C40.3764 50.2395 40.3785 50.2395 40.3805 50.2395C40.3825 50.2395 40.3846 50.2395 40.3866 50.2395C40.3886 50.2395 40.3907 50.2395 40.3927 50.2395C40.3947 50.2395 40.3968 50.2395 40.3988 50.2395C40.4009 50.2395 40.4029 50.2395 40.4049 50.2395C40.407 50.2395 40.409 50.2395 40.411 50.2395C40.4131 50.2395 40.4151 50.2395 40.4171 50.2395C40.4192 50.2395 40.4212 50.2395 40.4233 50.2395C40.4253 50.2395 40.4273 50.2395 40.4294 50.2395C40.4314 50.2395 40.4335 50.2395 40.4355 50.2395C40.4375 50.2395 40.4396 50.2395 40.4416 50.2395C40.4437 50.2395 40.4457 50.2395 40.4477 50.2395C40.4498 50.2395 40.4518 50.2395 40.4539 50.2395C40.4559 50.2395 40.4579 50.2395 40.46 50.2395C40.462 50.2395 40.4641 50.2395 40.4661 50.2395C40.4681 50.2395 40.4702 50.2395 40.4722 50.2395C40.4743 50.2395 40.4763 50.2395 40.4784 50.2395C40.4804 50.2395 40.4824 50.2395 40.4845 50.2395C40.4865 50.2395 40.4886 50.2395 40.4906 50.2395C40.4927 50.2395 40.4947 50.2395 40.4968 50.2395C40.4988 50.2395 40.5008 50.2395 40.5029 50.2395C40.5049 50.2395 40.507 50.2395 40.509 50.2395C40.5111 50.2395 40.5131 50.2395 40.5152 50.2395C40.5172 50.2395 40.5193 50.2395 40.5213 50.2395C40.5234 50.2395 40.5254 50.2395 40.5275 50.2395C40.5295 50.2395 40.5316 50.2395 40.5336 50.2395C40.5357 50.2395 40.5377 50.2395 40.5398 50.2395C40.5418 50.2395 40.5439 50.2395 40.5459 50.2395C40.548 50.2395 40.55 50.2395 40.5521 50.2395C40.5541 50.2395 40.5562 50.2395 40.5582 50.2395C40.5603 50.2395 40.5623 50.2395 40.5644 50.2395C40.5664 50.2395 40.5685 50.2395 40.5705 50.2395C40.5726 50.2395 40.5746 50.2395 40.5767 50.2395C40.5787 50.2395 40.5808 50.2395 40.5829 50.2395C40.5849 50.2395 40.587 50.2395 40.589 50.2395C40.5911 50.2395 40.5931 50.2395 40.5952 50.2395C40.5972 50.2395 40.5993 50.2395 40.6014 50.2395C40.6034 50.2395 40.6055 50.2395 40.6075 50.2395C40.6096 50.2395 40.6116 50.2395 40.6137 50.2395C40.6158 50.2395 40.6178 50.2395 40.6199 50.2395C40.6219 50.2395 40.624 50.2395 40.6261 50.2395C40.6281 50.2395 40.6302 50.2395 40.6322 50.2395C40.6343 50.2395 40.6364 50.2395 40.6384 50.2395C40.6405 50.2395 40.6425 50.2395 40.6446 50.2395C40.6467 50.2395 40.6487 50.2395 40.6508 50.2395C40.6529 50.2395 40.6549 50.2395 40.657 50.2395C40.659 50.2395 40.6611 50.2395 40.6632 50.2395C40.6652 50.2395 40.6673 50.2395 40.6694 50.2395C40.6714 50.2395 40.6735 50.2395 40.6756 50.2395C40.6776 50.2395 40.6797 50.2395 40.6818 50.2395C40.6838 50.2395 40.6859 50.2395 40.688 50.2395C40.69 50.2395 40.6921 50.2395 40.6942 50.2395C40.6962 50.2395 40.6983 50.2395 40.7004 50.2395C40.7025 50.2395 40.7045 50.2395 40.7066 50.2395C40.7087 50.2395 40.7107 50.2395 40.7128 50.2395C40.7149 50.2395 40.717 50.2395 40.719 50.2395C40.7211 50.2395 40.7232 50.2395 40.7252 50.2395V40.2395ZM42.405 45.6078C42.4906 44.4489 42.5068 43.8368 42.597 43.0652L32.6647 41.9037C32.5426 42.9475 32.4846 44.1615 32.4321 44.8713L42.405 45.6078ZM42.5972 43.0633C42.69 42.2677 44.1068 37.2596 40.6271 33.2362L33.0635 39.7778C33.0806 39.7976 33.0261 39.7347 32.9816 39.6065C32.9418 39.4919 32.9517 39.4439 32.9534 39.5397C32.9556 39.6615 32.944 39.8714 32.8875 40.2932C32.8588 40.5075 32.8279 40.7124 32.7865 40.9961C32.7481 41.259 32.7032 41.5738 32.6645 41.9055L42.5972 43.0633ZM40.6186 33.2264C41.1988 33.8938 41.4363 34.553 41.5352 34.9022C41.6405 35.2743 41.6634 35.5618 41.6697 35.7051C41.6765 35.8617 41.6682 35.9693 41.663 36.02C41.6574 36.0749 41.6509 36.1083 41.6476 36.1234C41.6447 36.1368 41.6342 36.1896 41.583 36.3007C41.5686 36.3319 41.3584 36.8159 40.7747 37.331L34.1579 29.8331C33.2584 30.6269 32.7597 31.5548 32.5032 32.1104C32.21 32.7459 32.0041 33.4035 31.8719 34.0174C31.7431 34.6154 31.6449 35.353 31.6791 36.1397C31.7028 36.6841 31.8154 38.3422 33.072 39.7876L40.6186 33.2264ZM40.7788 37.3274C40.2748 37.7732 39.8333 37.9313 39.7152 37.9714C39.5527 38.0265 39.4497 38.0394 39.3999 38.0439C39.3514 38.0483 39.2373 38.0555 39.0493 38.027C38.913 38.0064 38.4017 37.9198 37.7829 37.5242L43.1686 29.0984C41.4234 27.9829 39.4804 27.9954 38.4944 28.085C37.4785 28.1774 35.642 28.5206 34.1538 29.8367L40.7788 37.3274ZM37.7891 37.5282C37.3827 37.2692 37.1304 37.0086 37.0135 36.8778C36.8856 36.7346 36.8126 36.6256 36.7832 36.5797C36.7506 36.5288 36.7368 36.5005 36.7353 36.4975C36.7338 36.4943 36.7334 36.4935 36.7338 36.4944C36.7343 36.4954 36.7346 36.4961 36.7345 36.4961C36.7345 36.4961 36.7334 36.4931 36.7313 36.4864C36.7292 36.4799 36.7251 36.4668 36.7198 36.4466C36.7114 36.4149 36.6875 36.3196 36.6693 36.1677C36.654 36.0406 36.6219 35.7126 36.6791 35.2644C36.727 34.8882 36.9032 33.8802 37.7338 32.8938L45.3834 39.3346C46.2988 38.2473 46.5272 37.0904 46.5988 36.5289C46.6796 35.8954 46.6425 35.3459 46.5976 34.9728C46.5067 34.2171 46.2996 33.5202 46.092 32.9693C45.8772 32.3994 45.5841 31.7803 45.2068 31.1906C44.8907 30.6964 44.2406 29.7814 43.1625 29.0945L37.7891 37.5282ZM37.7353 32.8919C35.5749 35.4554 35.1545 38.1963 35.267 40.4587C35.3179 41.4833 35.4797 42.4486 35.5957 43.1335C35.7272 43.9104 35.8068 44.3701 35.8436 44.8085L45.8086 43.9719C45.7286 43.0194 45.5601 42.083 45.4554 41.4645C45.3352 40.7542 45.2727 40.325 45.2547 39.962C45.2384 39.6349 45.2698 39.5152 45.2749 39.4971C45.2774 39.4883 45.2796 39.482 45.2863 39.4695C45.2933 39.4563 45.3182 39.4119 45.3818 39.3365L37.7353 32.8919ZM35.8466 44.8428C35.8337 44.7003 35.8287 44.5669 35.829 44.445C35.8292 44.3248 35.8346 44.2232 35.8405 44.1458C35.8463 44.07 35.853 44.0129 35.8567 43.9836C35.8602 43.955 35.8626 43.9402 35.861 43.9506C35.8593 43.9621 35.8566 43.979 35.8502 44.0197C35.8446 44.0554 35.8365 44.1069 35.8278 44.1639C35.8096 44.2826 35.788 44.4299 35.7655 44.6065L45.685 45.8726C45.7078 45.6939 45.7137 45.6778 45.75 45.4362C45.7727 45.2854 45.8727 44.6765 45.8056 43.9376L35.8466 44.8428Z" fill="black" mask="url(#path-3-inside-1_1314_88309)"/>
</svg>
