<svg xmlns="http://www.w3.org/2000/svg" viewBox="0 0 155.51501 48.39862">
  <g id="Livello_2" data-name="Livello 2">
    <g id="Graphics">
      <g>
        <path d="M154.75522,35.7581a9.38562,9.38562,0,0,0,.75979-3.72869,8.55991,8.55991,0,0,0-5.287-8.06208,12.78016,12.78016,0,0,0,4.46258-10.06306c0-8.10386-6.0547-13.54847-15.06651-13.54847H128.741a5.21087,5.21087,0,0,0-1.4114.21833A5.21086,5.21086,0,0,0,125.91825.3558h-6.61557a5.19977,5.19977,0,0,0-.71877.0735,5.23358,5.23358,0,0,0-.82643-.0735h-6.5438A5.25212,5.25212,0,0,0,106.696,2.92994,5.24935,5.24935,0,0,0,102.17932.3558H95.39764A5.24444,5.24444,0,0,0,92.06782,1.557,19.19418,19.19418,0,0,0,84.20183,0H82.99295a18.62253,18.62253,0,0,0-8.52631,1.903A5.22588,5.22588,0,0,0,71.793.59522,47.05565,47.05565,0,0,0,64.02087,0h-.30863c-6.89548,0-11.122,1.81532-13.701,4.20919A5.23493,5.23493,0,0,0,44.95344.3558H39.38169a5.24517,5.24517,0,0,0-2.84535.83771A5.24089,5.24089,0,0,0,33.691.3558H27.787a5.22557,5.22557,0,0,0-.85079.0776,5.21026,5.21026,0,0,0-.76517-.0776H20.101a5.24924,5.24924,0,0,0-3.78252,1.60877A5.24514,5.24514,0,0,0,12.537.3558H6.08751A5.24889,5.24889,0,0,0,.84284,5.83527c.22865,5.22827.22865,10.6616-.001,16.14877a5.25025,5.25025,0,0,0,1.457,3.85327c.02948.03076.06613.052.09638.082A8.01814,8.01814,0,0,0,0,31.81818a7.932,7.932,0,0,0,1.15044,4.29315,5.23779,5.23779,0,0,0-.37527,1.42319L.31068,41.48058A5.24928,5.24928,0,0,0,4.27161,47.1923,43.26625,43.26625,0,0,0,14.154,48.39862h.27479c1.41447,0,6.34692-.18334,9.86-2.57a16.33114,16.33114,0,0,0,9.232,2.57h1.07559a16.0364,16.0364,0,0,0,9.89925-3.0319c2.0425,1.76745,5.16342,3.01088,9.95052,3.01088h1.07662c5.2903,0,8.54528-1.5336,10.53831-3.62589a5.247,5.247,0,0,0,4.882,3.33059h8.735A5.24254,5.24254,0,0,0,83.20391,46.714a5.23285,5.23285,0,0,0,3.49671,1.36833h14.43181a5.21093,5.21093,0,0,0,1.20838-.15649,5.22442,5.22442,0,0,0,1.21555.15649h5.80246a5.249,5.249,0,0,0,3.14373-1.04534,5.2467,5.2467,0,0,0,3.14373,1.04534h5.866a5.21718,5.21718,0,0,0,1.264-.17194,5.21606,5.21606,0,0,0,1.26349.17194h5.88654a5.22047,5.22047,0,0,0,1.26529-.17251,5.22039,5.22039,0,0,0,1.26528.17251h5.88757a5.2475,5.2475,0,0,0,3.28522-1.155,14.79517,14.79517,0,0,0,6.69452,1.47137,17.145,17.145,0,0,0,3.84814-.43116c2.52852-.63213,3.16013-3.02427,2.89969-5.61738" fill="red"/>
        <g>
          <path d="M6.08986,22.204q.356-8.50086,0-16.59851h6.44971l3.74658,11.21582h.14209l3.6753-11.21582h6.07031q-.32007,8.10956,0,16.59851h-4.9082c.09472-3.5094.26074-7.04248.332-10.55188H21.4551L17.75637,22.204H14.69729L10.856,11.65216h-.14209c.09472,2.56091.37939,7.991.49756,10.55188Z" fill="#fff"/>
          <path d="M33.33791,22.204c.07129-1.56506.14209-3.79395.18945-5.57239-1.6123-3.36706-3.65136-7.13733-5.73828-11.02612h5.9043c.71143,2.11035,2.229,5.64355,2.82178,7.56421h.18994c.56885-1.92066,2.01562-5.52491,2.6792-7.56421h5.57275c-2.01562,3.74658-3.8418,7.27966-5.57275,10.88391.02392,1.80212.09521,3.98364.166,5.7146Z" fill="#fff"/>
          <path d="M70.89992,21.5401a32.18638,32.18638,0,0,1-7.65869,1.01965h-.30859c-7.54,0-11.59522-3.08264-11.59522-8.74988,0-5.7146,4.10254-8.56006,12.37793-8.56006h.30811a42.0621,42.0621,0,0,1,6.90039.52173l-.49805,4.6001a37.75279,37.75279,0,0,0-6.56836-.64014c-4.03076,0-6.04638,1.37525-6.04638,4.10218v.07116c0,2.70313,2.063,4.12586,5.999,4.12586a29.696,29.696,0,0,0,6.59228-.78247Z" fill="#fff"/>
          <path d="M82.99611,5.24981h1.20948c6.33105,0,10.52783,3.08265,10.52783,8.60755,0,5.38269-3.9834,8.70239-10.52783,8.70239H82.99611c-6.49707,0-10.481-3.3197-10.481-8.70239C72.51516,8.33246,76.6885,5.24981,82.99611,5.24981Zm5.26416,8.7024v-.11853c0-3.01148-1.51757-4.64759-4.60009-4.64759-3.10645,0-4.67139,1.65979-4.67139,4.64759v.11853c0,2.98779,1.58887,4.67126,4.67139,4.67126C86.71877,18.62347,88.26027,16.96368,88.26027,13.95221Z" fill="#fff"/>
          <path d="M95.40041,5.60553h6.78125l4.43457,12.70971h.26074l4.33936-12.70971h6.54443L111.52443,22.204h-9.81689Z" fill="#fff"/>
          <path d="M119.3052,22.204a161.39408,161.39408,0,0,0,0-16.59851h6.61572a161.38841,161.38841,0,0,0,0,16.59851Z" fill="#fff"/>
          <path d="M139.62746,5.60553c6.1416,0,9.8169,3.13,9.8169,8.29931,0,5.12183-3.72266,8.2992-9.8169,8.2992H128.74367a161.38841,161.38841,0,0,0,0-16.59851ZM138.774,18.17291c2.77441,0,4.17334-1.47009,4.17334-4.197v-.11853c0-2.86914-1.39893-4.24451-4.17334-4.24451h-3.6045c-.0708,2.30005-.11865,6.21265,0,8.56006Z" fill="#fff"/>
          <path d="M5.99123,38.14825a22.59121,22.59121,0,0,0,7.23828,1.47718h.27442c2.02588,0,3.271-.54871,3.271-1.56165,0-2.89111-11.522-.99182-11.522-6.24646,0-2.70117,3.03857-4.07288,8.92627-4.07288h.27441a72.66952,72.66952,0,0,1,8.04.44324l-.29541,3.79846a30.73615,30.73615,0,0,0-6.542-.84411h-.021c-2.76416,0-4.19921.46423-4.19921,1.43506,0,2.55346,11.332.80188,11.332,6.07763,0,2.87-2.95459,4.49488-8.33545,4.49488h-.27442a38.04368,38.04368,0,0,1-8.63134-1.05518Z" fill="#fff"/>
          <path d="M33.52443,27.74444h1.07618c5.63476,0,9.36963,2.74341,9.36963,7.6604,0,4.79041-3.54493,7.74476-9.36963,7.74476H33.52443c-5.78222,0-9.32763-2.95435-9.32763-7.74476C24.1968,30.48785,27.91115,27.74444,33.52443,27.74444Zm4.68506,7.74488v-.10559c0-2.68006-1.35058-4.13611-4.09424-4.13611-2.76464,0-4.15722,1.47717-4.15722,4.13611v.10559c0,2.65893,1.41406,4.15722,4.15722,4.15722C36.83742,39.64654,38.20949,38.16937,38.20949,35.48932Z" fill="#fff"/>
          <path d="M51.834,28.06109c-.16845,2.38453-.23193,6.39417-.23193,7.66028,0,2.84888.92822,3.73523,3.39746,3.73523,2.49024,0,3.37647-.99182,3.37647-3.86181,0-1.26624-.06348-5.10694-.25342-7.5337h5.82471c-.10547,2.34241-.148,7.51258-.148,8.25122,0,4.76917-2.42676,6.81617-8.272,6.81617H54.4507c-5.86621,0-8.35644-2.02588-8.35644-6.79517,0-.80188-.021-5.92981-.148-8.27222Z" fill="#fff"/>
          <path d="M65.333,28.06109h6.03564l3.94629,11.311h.23194l3.86181-11.311h5.82422l-5.5498,14.772H70.94631Z" fill="#fff"/>
          <path d="M100.01955,34.09649l-.23242,2.65894H92.40139c0,1.224,0,2.23694.021,3.0177,2.57471-.02112,6.352-.06335,8.98975-.16882l-.27441,3.22876H86.70363a143.864,143.864,0,0,0,0-14.772h14.582l-.27441,3.27088c-2.57471-.08435-6.2041-.16882-8.58887-.14771-.021.75965-.021,1.77259-.021,2.91223Z" fill="#fff"/>
          <path d="M103.5591,42.83307a123.20587,123.20587,0,0,0,0-14.772h5.95069l6.47851,8.73658h.23242c-.29541-2.78565-.33789-7.49158-.44336-8.73658h5.74024a127.73621,127.73621,0,0,0,0,14.772h-5.8667L109.42531,34.202h-.23193c.021,1.68824.14746,6.90064.16894,8.63111Z" fill="#fff"/>
          <path d="M124.0425,42.83307a143.58615,143.58615,0,0,0,0-14.772h5.88818a143.59181,143.59181,0,0,0,0,14.772Z" fill="#fff"/>
          <path d="M132.45949,42.83307a143.864,143.864,0,0,0,0-14.772h11.29c4.36817,0,6.52051,1.245,6.52051,3.96729s-2.08887,4.05176-5.35986,4.05176h-1.22412l.021.21106c.90772,1.92028,2.84912,2.93322,5.31836,2.93322a7.88869,7.88869,0,0,0,1.667-.1477c.021,1.24512.08448,2.53235.21094,3.79858a12.00386,12.00386,0,0,1-2.57471.2743c-4.30468,0-7.09033-2.02588-7.89257-5.84546h-2.29981c.063,1.7937.10547,3.77734.21094,5.52893Zm10.31934-7.91358c1.519,0,2.00488-.65417,2.00488-1.92041v-.08435c0-1.07629-.46435-1.857-1.98389-1.857h-4.64257c0,.633-.04248,3.27087-.04248,3.86181Z" fill="#fff"/>
        </g>
      </g>
    </g>
  </g>
</svg>
