<svg width="437" height="316" viewBox="0 0 437 316" fill="none" xmlns="http://www.w3.org/2000/svg">
<g filter="url(#filter0_d_1587_88220)">
<rect width="112" height="38" transform="translate(211.444 163)" fill="#01F293"/>
<path d="M232.774 193.3C231.214 193.3 229.764 193.03 228.424 192.49C227.104 191.93 225.944 191.16 224.944 190.18C223.944 189.2 223.174 188.06 222.634 186.76C222.094 185.44 221.824 184.01 221.824 182.47C221.824 180.95 222.104 179.54 222.664 178.24C223.224 176.94 223.994 175.8 224.974 174.82C225.974 173.84 227.144 173.08 228.484 172.54C229.844 172 231.304 171.73 232.864 171.73C233.944 171.73 234.994 171.88 236.014 172.18C237.034 172.48 237.954 172.9 238.774 173.44C239.614 173.98 240.304 174.59 240.844 175.27L238.384 177.82C237.544 177.02 236.664 176.41 235.744 175.99C234.824 175.57 233.854 175.36 232.834 175.36C231.834 175.36 230.904 175.54 230.044 175.9C229.204 176.26 228.454 176.76 227.794 177.4C227.154 178.04 226.654 178.79 226.294 179.65C225.954 180.51 225.784 181.45 225.784 182.47C225.784 183.47 225.964 184.41 226.324 185.29C226.704 186.15 227.224 186.91 227.884 187.57C228.564 188.23 229.334 188.75 230.194 189.13C231.074 189.49 232.004 189.67 232.984 189.67C233.724 189.67 234.414 189.57 235.054 189.37C235.694 189.15 236.264 188.85 236.764 188.47C237.264 188.07 237.644 187.61 237.904 187.09C238.184 186.57 238.324 186.02 238.324 185.44V184.78L238.864 185.38H232.654V181.9H242.164C242.204 182.12 242.234 182.37 242.254 182.65C242.274 182.91 242.284 183.16 242.284 183.4C242.304 183.64 242.314 183.85 242.314 184.03C242.314 185.41 242.064 186.67 241.564 187.81C241.084 188.93 240.414 189.9 239.554 190.72C238.694 191.54 237.684 192.18 236.524 192.64C235.384 193.08 234.134 193.3 232.774 193.3ZM245.779 193V170.8H249.439V193H245.779ZM260.713 193.3C259.133 193.3 257.723 192.95 256.483 192.25C255.243 191.53 254.263 190.55 253.543 189.31C252.843 188.07 252.493 186.66 252.493 185.08C252.493 183.5 252.843 182.09 253.543 180.85C254.263 179.61 255.243 178.64 256.483 177.94C257.723 177.22 259.133 176.86 260.713 176.86C262.273 176.86 263.673 177.22 264.913 177.94C266.153 178.64 267.123 179.61 267.823 180.85C268.543 182.09 268.903 183.5 268.903 185.08C268.903 186.66 268.543 188.07 267.823 189.31C267.123 190.55 266.153 191.53 264.913 192.25C263.673 192.95 262.273 193.3 260.713 193.3ZM260.713 190.03C261.573 190.03 262.343 189.82 263.023 189.4C263.703 188.96 264.233 188.37 264.613 187.63C265.013 186.87 265.203 186.02 265.183 185.08C265.203 184.12 265.013 183.27 264.613 182.53C264.233 181.77 263.703 181.18 263.023 180.76C262.343 180.34 261.573 180.13 260.713 180.13C259.853 180.13 259.073 180.35 258.373 180.79C257.693 181.21 257.163 181.8 256.783 182.56C256.403 183.3 256.213 184.14 256.213 185.08C256.213 186.02 256.403 186.87 256.783 187.63C257.163 188.37 257.693 188.96 258.373 189.4C259.073 189.82 259.853 190.03 260.713 190.03ZM280.904 193.3C280.204 193.3 279.524 193.2 278.864 193C278.204 192.78 277.594 192.49 277.034 192.13C276.494 191.77 276.044 191.37 275.684 190.93C275.324 190.47 275.084 190.01 274.964 189.55L275.834 189.16L275.744 192.91H272.204V170.8H275.864V180.82L275.234 180.55C275.334 180.07 275.554 179.62 275.894 179.2C276.234 178.76 276.664 178.37 277.184 178.03C277.704 177.67 278.274 177.39 278.894 177.19C279.514 176.97 280.154 176.86 280.814 176.86C282.214 176.86 283.454 177.22 284.534 177.94C285.634 178.64 286.494 179.61 287.114 180.85C287.754 182.07 288.074 183.48 288.074 185.08C288.074 186.66 287.764 188.07 287.144 189.31C286.524 190.55 285.664 191.53 284.564 192.25C283.484 192.95 282.264 193.3 280.904 193.3ZM280.154 190.06C280.994 190.06 281.744 189.85 282.404 189.43C283.064 188.99 283.584 188.4 283.964 187.66C284.344 186.9 284.534 186.04 284.534 185.08C284.534 184.1 284.344 183.24 283.964 182.5C283.604 181.74 283.094 181.15 282.434 180.73C281.774 180.31 281.014 180.1 280.154 180.1C279.274 180.1 278.504 180.31 277.844 180.73C277.184 181.15 276.664 181.74 276.284 182.5C275.904 183.24 275.714 184.1 275.714 185.08C275.714 186.04 275.904 186.9 276.284 187.66C276.664 188.4 277.184 188.99 277.844 189.43C278.504 189.85 279.274 190.06 280.154 190.06ZM300.394 193V182.89C300.394 182.03 300.104 181.36 299.524 180.88C298.964 180.38 298.234 180.13 297.334 180.13C296.494 180.13 295.734 180.3 295.054 180.64C294.374 180.96 293.744 181.48 293.164 182.2L290.884 179.92C291.824 178.92 292.864 178.16 294.004 177.64C295.144 177.12 296.374 176.86 297.694 176.86C298.954 176.86 300.034 177.06 300.934 177.46C301.854 177.86 302.564 178.46 303.064 179.26C303.564 180.04 303.814 181 303.814 182.14V193H300.394ZM295.894 193.3C294.874 193.3 293.964 193.1 293.164 192.7C292.364 192.3 291.724 191.75 291.244 191.05C290.784 190.33 290.554 189.49 290.554 188.53C290.554 187.69 290.704 186.96 291.004 186.34C291.304 185.7 291.744 185.17 292.324 184.75C292.924 184.33 293.664 184.02 294.544 183.82C295.444 183.6 296.474 183.49 297.634 183.49H302.164L301.894 186.13H297.424C296.884 186.13 296.404 186.18 295.984 186.28C295.564 186.38 295.204 186.53 294.904 186.73C294.604 186.93 294.384 187.17 294.244 187.45C294.104 187.71 294.034 188.03 294.034 188.41C294.034 188.81 294.134 189.16 294.334 189.46C294.534 189.74 294.804 189.96 295.144 190.12C295.484 190.28 295.884 190.36 296.344 190.36C297.004 190.36 297.624 190.25 298.204 190.03C298.804 189.81 299.334 189.5 299.794 189.1C300.254 188.7 300.614 188.25 300.874 187.75L301.624 189.79C301.204 190.49 300.684 191.1 300.064 191.62C299.464 192.14 298.804 192.55 298.084 192.85C297.384 193.15 296.654 193.3 295.894 193.3ZM307.742 193V170.8H311.402V193H307.742Z" fill="#0D0D0D"/>
</g>
<g filter="url(#filter1_d_1587_88220)">
<rect width="219" height="38" transform="translate(211.444 55)" fill="#01F293"/>
<path d="M223.264 85V64H231.694C233.214 64 234.584 64.25 235.804 64.75C237.044 65.25 238.104 65.97 238.984 66.91C239.864 67.85 240.544 68.96 241.024 70.24C241.504 71.52 241.744 72.94 241.744 74.5C241.744 76.06 241.504 77.49 241.024 78.79C240.544 80.07 239.864 81.18 238.984 82.12C238.124 83.04 237.074 83.75 235.834 84.25C234.594 84.75 233.214 85 231.694 85H223.264ZM227.134 81.97L226.864 81.4H231.544C232.524 81.4 233.404 81.24 234.184 80.92C234.964 80.6 235.614 80.15 236.134 79.57C236.674 78.97 237.084 78.24 237.364 77.38C237.664 76.52 237.814 75.56 237.814 74.5C237.814 73.44 237.664 72.49 237.364 71.65C237.084 70.79 236.674 70.06 236.134 69.46C235.594 68.86 234.934 68.4 234.154 68.08C233.394 67.76 232.524 67.6 231.544 67.6H226.774L227.134 67.09V81.97ZM252.69 85.3C251.03 85.3 249.56 84.96 248.28 84.28C247.02 83.58 246.03 82.63 245.31 81.43C244.61 80.21 244.26 78.81 244.26 77.23C244.26 75.99 244.46 74.86 244.86 73.84C245.26 72.82 245.82 71.94 246.54 71.2C247.26 70.44 248.11 69.86 249.09 69.46C250.09 69.04 251.17 68.83 252.33 68.83C253.39 68.83 254.36 69.03 255.24 69.43C256.14 69.83 256.92 70.38 257.58 71.08C258.24 71.76 258.74 72.58 259.08 73.54C259.44 74.48 259.61 75.51 259.59 76.63L259.56 77.95H246.78L246.06 75.4H256.47L256.02 75.91V75.22C255.96 74.62 255.76 74.09 255.42 73.63C255.08 73.15 254.64 72.78 254.1 72.52C253.58 72.24 253 72.1 252.36 72.1C251.38 72.1 250.55 72.29 249.87 72.67C249.19 73.03 248.67 73.57 248.31 74.29C247.97 75.01 247.8 75.9 247.8 76.96C247.8 77.98 248.01 78.87 248.43 79.63C248.87 80.39 249.49 80.98 250.29 81.4C251.09 81.82 252.02 82.03 253.08 82.03C253.82 82.03 254.5 81.91 255.12 81.67C255.76 81.43 256.44 81 257.16 80.38L258.96 82.9C258.42 83.4 257.8 83.83 257.1 84.19C256.42 84.53 255.7 84.8 254.94 85C254.18 85.2 253.43 85.3 252.69 85.3ZM269.638 85.3C268.158 85.3 266.828 84.94 265.648 84.22C264.468 83.5 263.538 82.52 262.858 81.28C262.178 80.04 261.838 78.64 261.838 77.08C261.838 75.52 262.178 74.12 262.858 72.88C263.538 71.64 264.468 70.66 265.648 69.94C266.828 69.22 268.158 68.86 269.638 68.86C271.038 68.86 272.318 69.14 273.478 69.7C274.658 70.24 275.558 70.98 276.178 71.92L274.168 74.38C273.868 73.96 273.488 73.58 273.028 73.24C272.568 72.9 272.068 72.63 271.528 72.43C271.008 72.23 270.498 72.13 269.998 72.13C269.098 72.13 268.298 72.35 267.598 72.79C266.918 73.21 266.378 73.8 265.978 74.56C265.578 75.3 265.378 76.14 265.378 77.08C265.378 78.02 265.578 78.86 265.978 79.6C266.398 80.34 266.958 80.93 267.658 81.37C268.358 81.81 269.138 82.03 269.998 82.03C270.538 82.03 271.048 81.95 271.528 81.79C272.008 81.61 272.468 81.36 272.908 81.04C273.368 80.72 273.788 80.32 274.168 79.84L276.178 82.3C275.518 83.18 274.588 83.9 273.388 84.46C272.188 85.02 270.938 85.3 269.638 85.3ZM286.411 85.3C284.751 85.3 283.281 84.96 282.001 84.28C280.741 83.58 279.751 82.63 279.031 81.43C278.331 80.21 277.981 78.81 277.981 77.23C277.981 75.99 278.181 74.86 278.581 73.84C278.981 72.82 279.541 71.94 280.261 71.2C280.981 70.44 281.831 69.86 282.811 69.46C283.811 69.04 284.891 68.83 286.051 68.83C287.111 68.83 288.081 69.03 288.961 69.43C289.861 69.83 290.641 70.38 291.301 71.08C291.961 71.76 292.461 72.58 292.801 73.54C293.161 74.48 293.331 75.51 293.311 76.63L293.281 77.95H280.501L279.781 75.4H290.191L289.741 75.91V75.22C289.681 74.62 289.481 74.09 289.141 73.63C288.801 73.15 288.361 72.78 287.821 72.52C287.301 72.24 286.721 72.1 286.081 72.1C285.101 72.1 284.271 72.29 283.591 72.67C282.911 73.03 282.391 73.57 282.031 74.29C281.691 75.01 281.521 75.9 281.521 76.96C281.521 77.98 281.731 78.87 282.151 79.63C282.591 80.39 283.211 80.98 284.011 81.4C284.811 81.82 285.741 82.03 286.801 82.03C287.541 82.03 288.221 81.91 288.841 81.67C289.481 81.43 290.161 81 290.881 80.38L292.681 82.9C292.141 83.4 291.521 83.83 290.821 84.19C290.141 84.53 289.421 84.8 288.661 85C287.901 85.2 287.151 85.3 286.411 85.3ZM296.579 85V69.19H300.149L300.209 72.43L299.519 72.79C299.739 72.09 300.129 71.45 300.689 70.87C301.269 70.27 301.959 69.79 302.759 69.43C303.559 69.05 304.389 68.86 305.249 68.86C306.449 68.86 307.449 69.1 308.249 69.58C309.069 70.06 309.679 70.78 310.079 71.74C310.479 72.7 310.679 73.9 310.679 75.34V85H307.019V75.61C307.019 74.79 306.909 74.12 306.689 73.6C306.469 73.06 306.129 72.67 305.669 72.43C305.209 72.17 304.649 72.06 303.989 72.1C303.449 72.1 302.949 72.19 302.489 72.37C302.029 72.53 301.629 72.77 301.289 73.09C300.969 73.39 300.709 73.75 300.509 74.17C300.329 74.57 300.239 75.01 300.239 75.49V85H298.409C298.069 85 297.739 85 297.419 85C297.119 85 296.839 85 296.579 85ZM316.6 85V65.17H320.26V85H316.6ZM313.48 72.61V69.19H323.71V72.61H313.48ZM326.52 85V69.19H330.12L330.18 74.23L329.7 73.09C329.92 72.29 330.3 71.57 330.84 70.93C331.38 70.29 332 69.79 332.7 69.43C333.42 69.05 334.16 68.86 334.92 68.86C335.26 68.86 335.58 68.89 335.88 68.95C336.2 69.01 336.46 69.08 336.66 69.16L335.7 73.18C335.46 73.06 335.18 72.97 334.86 72.91C334.56 72.83 334.25 72.79 333.93 72.79C333.41 72.79 332.92 72.89 332.46 73.09C332.02 73.27 331.63 73.53 331.29 73.87C330.97 74.21 330.71 74.61 330.51 75.07C330.31 75.51 330.21 76 330.21 76.54V85H326.52ZM347.503 85V74.89C347.503 74.03 347.213 73.36 346.633 72.88C346.073 72.38 345.343 72.13 344.443 72.13C343.603 72.13 342.843 72.3 342.163 72.64C341.483 72.96 340.853 73.48 340.273 74.2L337.993 71.92C338.933 70.92 339.973 70.16 341.113 69.64C342.253 69.12 343.483 68.86 344.803 68.86C346.063 68.86 347.143 69.06 348.043 69.46C348.963 69.86 349.673 70.46 350.173 71.26C350.673 72.04 350.923 73 350.923 74.14V85H347.503ZM343.003 85.3C341.983 85.3 341.073 85.1 340.273 84.7C339.473 84.3 338.833 83.75 338.353 83.05C337.893 82.33 337.663 81.49 337.663 80.53C337.663 79.69 337.813 78.96 338.113 78.34C338.413 77.7 338.853 77.17 339.433 76.75C340.033 76.33 340.773 76.02 341.653 75.82C342.553 75.6 343.583 75.49 344.743 75.49H349.273L349.003 78.13H344.533C343.993 78.13 343.513 78.18 343.093 78.28C342.673 78.38 342.313 78.53 342.013 78.73C341.713 78.93 341.493 79.17 341.353 79.45C341.213 79.71 341.143 80.03 341.143 80.41C341.143 80.81 341.243 81.16 341.443 81.46C341.643 81.74 341.913 81.96 342.253 82.12C342.593 82.28 342.993 82.36 343.453 82.36C344.113 82.36 344.733 82.25 345.313 82.03C345.913 81.81 346.443 81.5 346.903 81.1C347.363 80.7 347.723 80.25 347.983 79.75L348.733 81.79C348.313 82.49 347.793 83.1 347.173 83.62C346.573 84.14 345.913 84.55 345.193 84.85C344.493 85.15 343.763 85.3 343.003 85.3ZM354.851 85V62.8H358.511V85H354.851ZM363.298 85V69.19H366.958V85H363.298ZM365.098 65.83C364.358 65.83 363.778 65.65 363.358 65.29C362.958 64.91 362.758 64.38 362.758 63.7C362.758 63.06 362.968 62.55 363.388 62.17C363.808 61.77 364.378 61.57 365.098 61.57C365.838 61.57 366.408 61.76 366.808 62.14C367.228 62.5 367.438 63.02 367.438 63.7C367.438 64.32 367.228 64.83 366.808 65.23C366.388 65.63 365.818 65.83 365.098 65.83ZM370.978 85V82.33L379.198 71.53V72.28H370.978V69.19H383.038V71.83L375.058 82.45L374.938 81.91H383.248V85H370.978ZM393.93 85.3C392.27 85.3 390.8 84.96 389.52 84.28C388.26 83.58 387.27 82.63 386.55 81.43C385.85 80.21 385.5 78.81 385.5 77.23C385.5 75.99 385.7 74.86 386.1 73.84C386.5 72.82 387.06 71.94 387.78 71.2C388.5 70.44 389.35 69.86 390.33 69.46C391.33 69.04 392.41 68.83 393.57 68.83C394.63 68.83 395.6 69.03 396.48 69.43C397.38 69.83 398.16 70.38 398.82 71.08C399.48 71.76 399.98 72.58 400.32 73.54C400.68 74.48 400.85 75.51 400.83 76.63L400.8 77.95H388.02L387.3 75.4H397.71L397.26 75.91V75.22C397.2 74.62 397 74.09 396.66 73.63C396.32 73.15 395.88 72.78 395.34 72.52C394.82 72.24 394.24 72.1 393.6 72.1C392.62 72.1 391.79 72.29 391.11 72.67C390.43 73.03 389.91 73.57 389.55 74.29C389.21 75.01 389.04 75.9 389.04 76.96C389.04 77.98 389.25 78.87 389.67 79.63C390.11 80.39 390.73 80.98 391.53 81.4C392.33 81.82 393.26 82.03 394.32 82.03C395.06 82.03 395.74 81.91 396.36 81.67C397 81.43 397.68 81 398.4 80.38L400.2 82.9C399.66 83.4 399.04 83.83 398.34 84.19C397.66 84.53 396.94 84.8 396.18 85C395.42 85.2 394.67 85.3 393.93 85.3ZM410.488 85.3C409.068 85.3 407.798 84.95 406.678 84.25C405.578 83.53 404.698 82.56 404.038 81.34C403.398 80.1 403.078 78.68 403.078 77.08C403.078 75.5 403.398 74.09 404.038 72.85C404.678 71.61 405.548 70.64 406.648 69.94C407.768 69.22 409.028 68.86 410.428 68.86C411.188 68.86 411.918 68.98 412.618 69.22C413.338 69.46 413.978 69.79 414.538 70.21C415.118 70.61 415.568 71.06 415.888 71.56C416.228 72.06 416.408 72.58 416.428 73.12L415.438 73.24V62.8H419.128V85H415.558L415.468 81.31L416.188 81.37C416.168 81.85 415.998 82.32 415.678 82.78C415.358 83.24 414.928 83.66 414.388 84.04C413.868 84.42 413.268 84.73 412.588 84.97C411.908 85.19 411.208 85.3 410.488 85.3ZM411.178 82.18C412.038 82.18 412.798 81.97 413.458 81.55C414.118 81.11 414.628 80.51 414.988 79.75C415.368 78.97 415.558 78.08 415.558 77.08C415.558 76.08 415.368 75.2 414.988 74.44C414.628 73.68 414.118 73.08 413.458 72.64C412.798 72.2 412.038 71.98 411.178 71.98C410.298 71.98 409.528 72.2 408.868 72.64C408.228 73.08 407.718 73.68 407.338 74.44C406.958 75.2 406.768 76.08 406.768 77.08C406.768 78.08 406.958 78.97 407.338 79.75C407.718 80.51 408.228 81.11 408.868 81.55C409.528 81.97 410.298 82.18 411.178 82.18Z" fill="#0D0D0D"/>
</g>
<g filter="url(#filter2_d_1587_88220)">
<rect width="189" height="38" transform="translate(211.444)" fill="#01F293"/>
<path d="M232.144 30.3C230.644 30.3 229.264 30.04 228.004 29.52C226.744 29 225.654 28.26 224.734 27.3C223.814 26.32 223.094 25.17 222.574 23.85C222.074 22.51 221.824 21.05 221.824 19.47C221.824 17.95 222.094 16.54 222.634 15.24C223.174 13.94 223.924 12.8 224.884 11.82C225.844 10.84 226.964 10.08 228.244 9.54C229.524 9 230.904 8.73 232.384 8.73C233.404 8.73 234.394 8.88 235.354 9.18C236.314 9.48 237.194 9.9 237.994 10.44C238.814 10.96 239.484 11.58 240.004 12.3L237.514 14.97C236.734 14.17 235.914 13.56 235.054 13.14C234.214 12.72 233.324 12.51 232.384 12.51C231.464 12.51 230.594 12.68 229.774 13.02C228.974 13.36 228.274 13.84 227.674 14.46C227.094 15.08 226.634 15.82 226.294 16.68C225.954 17.52 225.784 18.46 225.784 19.5C225.784 20.56 225.944 21.53 226.264 22.41C226.604 23.27 227.074 24.01 227.674 24.63C228.294 25.25 229.024 25.72 229.864 26.04C230.724 26.36 231.674 26.52 232.714 26.52C233.354 26.52 233.984 26.44 234.604 26.28C235.224 26.1 235.804 25.84 236.344 25.5C236.884 25.16 237.364 24.77 237.784 24.33L239.704 27.42C239.224 27.96 238.584 28.45 237.784 28.89C236.984 29.33 236.094 29.68 235.114 29.94C234.134 30.18 233.144 30.3 232.144 30.3ZM250.312 30.3C248.732 30.3 247.322 29.95 246.082 29.25C244.842 28.53 243.862 27.55 243.142 26.31C242.442 25.07 242.092 23.66 242.092 22.08C242.092 20.5 242.442 19.09 243.142 17.85C243.862 16.61 244.842 15.64 246.082 14.94C247.322 14.22 248.732 13.86 250.312 13.86C251.872 13.86 253.272 14.22 254.512 14.94C255.752 15.64 256.722 16.61 257.422 17.85C258.142 19.09 258.502 20.5 258.502 22.08C258.502 23.66 258.142 25.07 257.422 26.31C256.722 27.55 255.752 28.53 254.512 29.25C253.272 29.95 251.872 30.3 250.312 30.3ZM250.312 27.03C251.172 27.03 251.942 26.82 252.622 26.4C253.302 25.96 253.832 25.37 254.212 24.63C254.612 23.87 254.802 23.02 254.782 22.08C254.802 21.12 254.612 20.27 254.212 19.53C253.832 18.77 253.302 18.18 252.622 17.76C251.942 17.34 251.172 17.13 250.312 17.13C249.452 17.13 248.672 17.35 247.972 17.79C247.292 18.21 246.762 18.8 246.382 19.56C246.002 20.3 245.812 21.14 245.812 22.08C245.812 23.02 246.002 23.87 246.382 24.63C246.762 25.37 247.292 25.96 247.972 26.4C248.672 26.82 249.452 27.03 250.312 27.03ZM261.744 30V14.19H265.344L265.404 17.4L264.804 17.64C264.984 17.12 265.254 16.64 265.614 16.2C265.974 15.74 266.404 15.34 266.904 15C267.404 14.66 267.934 14.4 268.494 14.22C269.054 14.02 269.634 13.92 270.234 13.92C271.094 13.92 271.854 14.06 272.514 14.34C273.174 14.62 273.724 15.05 274.164 15.63C274.624 16.21 274.974 16.95 275.214 17.85L274.644 17.73L274.854 17.25C275.094 16.77 275.414 16.33 275.814 15.93C276.214 15.53 276.664 15.18 277.164 14.88C277.664 14.56 278.184 14.32 278.724 14.16C279.284 14 279.824 13.92 280.344 13.92C281.544 13.92 282.544 14.16 283.344 14.64C284.144 15.12 284.744 15.85 285.144 16.83C285.544 17.81 285.744 19.02 285.744 20.46V30H282.054V20.7C282.054 19.5 281.814 18.61 281.334 18.03C280.874 17.45 280.154 17.16 279.174 17.16C278.654 17.16 278.174 17.25 277.734 17.43C277.294 17.59 276.904 17.83 276.564 18.15C276.244 18.45 275.994 18.81 275.814 19.23C275.634 19.63 275.544 20.08 275.544 20.58V30H271.854V20.67C271.854 19.53 271.604 18.66 271.104 18.06C270.624 17.46 269.934 17.16 269.034 17.16C268.514 17.16 268.034 17.25 267.594 17.43C267.174 17.59 266.794 17.83 266.454 18.15C266.134 18.45 265.884 18.8 265.704 19.2C265.524 19.6 265.434 20.04 265.434 20.52V30H261.744ZM289.781 30V14.19H293.381L293.441 17.4L292.841 17.64C293.021 17.12 293.291 16.64 293.651 16.2C294.011 15.74 294.441 15.34 294.941 15C295.441 14.66 295.971 14.4 296.531 14.22C297.091 14.02 297.671 13.92 298.271 13.92C299.131 13.92 299.891 14.06 300.551 14.34C301.211 14.62 301.761 15.05 302.201 15.63C302.661 16.21 303.011 16.95 303.251 17.85L302.681 17.73L302.891 17.25C303.131 16.77 303.451 16.33 303.851 15.93C304.251 15.53 304.701 15.18 305.201 14.88C305.701 14.56 306.221 14.32 306.761 14.16C307.321 14 307.861 13.92 308.381 13.92C309.581 13.92 310.581 14.16 311.381 14.64C312.181 15.12 312.781 15.85 313.181 16.83C313.581 17.81 313.781 19.02 313.781 20.46V30H310.091V20.7C310.091 19.5 309.851 18.61 309.371 18.03C308.911 17.45 308.191 17.16 307.211 17.16C306.691 17.16 306.211 17.25 305.771 17.43C305.331 17.59 304.941 17.83 304.601 18.15C304.281 18.45 304.031 18.81 303.851 19.23C303.671 19.63 303.581 20.08 303.581 20.58V30H299.891V20.67C299.891 19.53 299.641 18.66 299.141 18.06C298.661 17.46 297.971 17.16 297.071 17.16C296.551 17.16 296.071 17.25 295.631 17.43C295.211 17.59 294.831 17.83 294.491 18.15C294.171 18.45 293.921 18.8 293.741 19.2C293.561 19.6 293.471 20.04 293.471 20.52V30H289.781ZM323.368 30.3C322.228 30.3 321.238 30.04 320.398 29.52C319.578 29 318.938 28.27 318.478 27.33C318.038 26.39 317.818 25.26 317.818 23.94V14.19H321.478V23.16C321.478 24.4 321.768 25.38 322.348 26.1C322.948 26.82 323.778 27.18 324.838 27.18C325.358 27.18 325.828 27.1 326.248 26.94C326.688 26.76 327.068 26.52 327.388 26.22C327.708 25.9 327.958 25.52 328.138 25.08C328.318 24.64 328.408 24.17 328.408 23.67V14.19H332.068V30H328.498L328.438 26.7L329.098 26.34C328.858 27.08 328.448 27.75 327.868 28.35C327.308 28.95 326.638 29.43 325.858 29.79C325.078 30.13 324.248 30.3 323.368 30.3ZM336.423 30V14.19H339.993L340.053 17.43L339.363 17.79C339.583 17.09 339.973 16.45 340.533 15.87C341.113 15.27 341.803 14.79 342.603 14.43C343.403 14.05 344.233 13.86 345.093 13.86C346.293 13.86 347.293 14.1 348.093 14.58C348.913 15.06 349.523 15.78 349.923 16.74C350.323 17.7 350.523 18.9 350.523 20.34V30H346.863V20.61C346.863 19.79 346.753 19.12 346.533 18.6C346.313 18.06 345.973 17.67 345.513 17.43C345.053 17.17 344.493 17.06 343.833 17.1C343.293 17.1 342.793 17.19 342.333 17.37C341.873 17.53 341.473 17.77 341.133 18.09C340.813 18.39 340.553 18.75 340.353 19.17C340.173 19.57 340.083 20.01 340.083 20.49V30H338.253C337.913 30 337.583 30 337.263 30C336.963 30 336.683 30 336.423 30ZM355.124 30V14.19H358.784V30H355.124ZM356.924 10.83C356.184 10.83 355.604 10.65 355.184 10.29C354.784 9.91 354.584 9.38 354.584 8.7C354.584 8.06 354.794 7.55 355.214 7.17C355.634 6.77 356.204 6.57 356.924 6.57C357.664 6.57 358.234 6.76 358.634 7.14C359.054 7.5 359.264 8.02 359.264 8.7C359.264 9.32 359.054 9.83 358.634 10.23C358.214 10.63 357.644 10.83 356.924 10.83ZM365.204 30V10.17H368.864V30H365.204ZM362.084 17.61V14.19H372.314V17.61H362.084ZM377.554 36.9L380.884 29.16L380.914 31.65L373.114 14.19H377.344L381.724 24.6C381.864 24.86 382.004 25.21 382.144 25.65C382.284 26.07 382.404 26.48 382.504 26.88L381.754 27.15C381.894 26.77 382.034 26.36 382.174 25.92C382.334 25.48 382.494 25.04 382.654 24.6L386.374 14.19H390.634L384.064 30L381.394 36.9H377.554Z" fill="#0D0D0D"/>
</g>
<g filter="url(#filter3_d_1587_88220)">
<rect width="138" height="38" transform="translate(211.444 109)" fill="#01F293"/>
<path d="M229.924 139.3C228.084 139.3 226.484 138.95 225.124 138.25C223.784 137.55 222.634 136.53 221.674 135.19L224.194 132.31C225.174 133.69 226.124 134.64 227.044 135.16C227.984 135.66 229.044 135.91 230.224 135.91C230.904 135.91 231.524 135.81 232.084 135.61C232.644 135.41 233.084 135.13 233.404 134.77C233.724 134.39 233.884 133.95 233.884 133.45C233.884 133.11 233.814 132.8 233.674 132.52C233.554 132.22 233.364 131.96 233.104 131.74C232.864 131.5 232.554 131.28 232.174 131.08C231.814 130.88 231.384 130.71 230.884 130.57C230.404 130.41 229.874 130.28 229.294 130.18C228.174 129.96 227.204 129.67 226.384 129.31C225.584 128.93 224.904 128.47 224.344 127.93C223.804 127.37 223.394 126.75 223.114 126.07C222.854 125.37 222.724 124.58 222.724 123.7C222.724 122.52 223.054 121.48 223.714 120.58C224.394 119.66 225.294 118.94 226.414 118.42C227.554 117.9 228.804 117.64 230.164 117.64C231.924 117.64 233.414 117.96 234.634 118.6C235.874 119.24 236.844 120.15 237.544 121.33L234.964 123.85C234.364 122.93 233.654 122.23 232.834 121.75C232.014 121.27 231.124 121.03 230.164 121.03C229.444 121.03 228.814 121.14 228.274 121.36C227.754 121.56 227.344 121.85 227.044 122.23C226.744 122.59 226.594 123.03 226.594 123.55C226.594 123.93 226.674 124.28 226.834 124.6C227.014 124.92 227.274 125.2 227.614 125.44C227.954 125.68 228.384 125.89 228.904 126.07C229.424 126.25 230.024 126.41 230.704 126.55C231.804 126.79 232.784 127.09 233.644 127.45C234.524 127.81 235.264 128.25 235.864 128.77C236.484 129.27 236.954 129.85 237.274 130.51C237.594 131.15 237.754 131.87 237.754 132.67C237.754 134.03 237.434 135.21 236.794 136.21C236.154 137.21 235.244 137.98 234.064 138.52C232.884 139.04 231.504 139.3 229.924 139.3ZM248.222 139.3C246.742 139.3 245.412 138.94 244.232 138.22C243.052 137.5 242.122 136.52 241.442 135.28C240.762 134.04 240.422 132.64 240.422 131.08C240.422 129.52 240.762 128.12 241.442 126.88C242.122 125.64 243.052 124.66 244.232 123.94C245.412 123.22 246.742 122.86 248.222 122.86C249.622 122.86 250.902 123.14 252.062 123.7C253.242 124.24 254.142 124.98 254.762 125.92L252.752 128.38C252.452 127.96 252.072 127.58 251.612 127.24C251.152 126.9 250.652 126.63 250.112 126.43C249.592 126.23 249.082 126.13 248.582 126.13C247.682 126.13 246.882 126.35 246.182 126.79C245.502 127.21 244.962 127.8 244.562 128.56C244.162 129.3 243.962 130.14 243.962 131.08C243.962 132.02 244.162 132.86 244.562 133.6C244.982 134.34 245.542 134.93 246.242 135.37C246.942 135.81 247.722 136.03 248.582 136.03C249.122 136.03 249.632 135.95 250.112 135.79C250.592 135.61 251.052 135.36 251.492 135.04C251.952 134.72 252.372 134.32 252.752 133.84L254.762 136.3C254.102 137.18 253.172 137.9 251.972 138.46C250.772 139.02 249.522 139.3 248.222 139.3ZM266.615 139V128.89C266.615 128.03 266.325 127.36 265.745 126.88C265.185 126.38 264.455 126.13 263.555 126.13C262.715 126.13 261.955 126.3 261.275 126.64C260.595 126.96 259.965 127.48 259.385 128.2L257.105 125.92C258.045 124.92 259.085 124.16 260.225 123.64C261.365 123.12 262.595 122.86 263.915 122.86C265.175 122.86 266.255 123.06 267.155 123.46C268.075 123.86 268.785 124.46 269.285 125.26C269.785 126.04 270.035 127 270.035 128.14V139H266.615ZM262.115 139.3C261.095 139.3 260.185 139.1 259.385 138.7C258.585 138.3 257.945 137.75 257.465 137.05C257.005 136.33 256.775 135.49 256.775 134.53C256.775 133.69 256.925 132.96 257.225 132.34C257.525 131.7 257.965 131.17 258.545 130.75C259.145 130.33 259.885 130.02 260.765 129.82C261.665 129.6 262.695 129.49 263.855 129.49H268.385L268.115 132.13H263.645C263.105 132.13 262.625 132.18 262.205 132.28C261.785 132.38 261.425 132.53 261.125 132.73C260.825 132.93 260.605 133.17 260.465 133.45C260.325 133.71 260.255 134.03 260.255 134.41C260.255 134.81 260.355 135.16 260.555 135.46C260.755 135.74 261.025 135.96 261.365 136.12C261.705 136.28 262.105 136.36 262.565 136.36C263.225 136.36 263.845 136.25 264.425 136.03C265.025 135.81 265.555 135.5 266.015 135.1C266.475 134.7 266.835 134.25 267.095 133.75L267.845 135.79C267.425 136.49 266.905 137.1 266.285 137.62C265.685 138.14 265.025 138.55 264.305 138.85C263.605 139.15 262.875 139.3 262.115 139.3ZM273.962 139V116.8H277.622V139H273.962ZM290.726 139V128.89C290.726 128.03 290.436 127.36 289.856 126.88C289.296 126.38 288.566 126.13 287.666 126.13C286.826 126.13 286.066 126.3 285.386 126.64C284.706 126.96 284.076 127.48 283.496 128.2L281.216 125.92C282.156 124.92 283.196 124.16 284.336 123.64C285.476 123.12 286.706 122.86 288.026 122.86C289.286 122.86 290.366 123.06 291.266 123.46C292.186 123.86 292.896 124.46 293.396 125.26C293.896 126.04 294.146 127 294.146 128.14V139H290.726ZM286.226 139.3C285.206 139.3 284.296 139.1 283.496 138.7C282.696 138.3 282.056 137.75 281.576 137.05C281.116 136.33 280.886 135.49 280.886 134.53C280.886 133.69 281.036 132.96 281.336 132.34C281.636 131.7 282.076 131.17 282.656 130.75C283.256 130.33 283.996 130.02 284.876 129.82C285.776 129.6 286.806 129.49 287.966 129.49H292.496L292.226 132.13H287.756C287.216 132.13 286.736 132.18 286.316 132.28C285.896 132.38 285.536 132.53 285.236 132.73C284.936 132.93 284.716 133.17 284.576 133.45C284.436 133.71 284.366 134.03 284.366 134.41C284.366 134.81 284.466 135.16 284.666 135.46C284.866 135.74 285.136 135.96 285.476 136.12C285.816 136.28 286.216 136.36 286.676 136.36C287.336 136.36 287.956 136.25 288.536 136.03C289.136 135.81 289.666 135.5 290.126 135.1C290.586 134.7 290.946 134.25 291.206 133.75L291.956 135.79C291.536 136.49 291.016 137.1 290.396 137.62C289.796 138.14 289.136 138.55 288.416 138.85C287.716 139.15 286.986 139.3 286.226 139.3ZM306.744 139.3C306.044 139.3 305.364 139.2 304.704 139C304.044 138.78 303.434 138.49 302.874 138.13C302.334 137.77 301.884 137.37 301.524 136.93C301.164 136.47 300.924 136.01 300.804 135.55L301.674 135.16L301.584 138.91H298.044V116.8H301.704V126.82L301.074 126.55C301.174 126.07 301.394 125.62 301.734 125.2C302.074 124.76 302.504 124.37 303.024 124.03C303.544 123.67 304.114 123.39 304.734 123.19C305.354 122.97 305.994 122.86 306.654 122.86C308.054 122.86 309.294 123.22 310.374 123.94C311.474 124.64 312.334 125.61 312.954 126.85C313.594 128.07 313.914 129.48 313.914 131.08C313.914 132.66 313.604 134.07 312.984 135.31C312.364 136.55 311.504 137.53 310.404 138.25C309.324 138.95 308.104 139.3 306.744 139.3ZM305.994 136.06C306.834 136.06 307.584 135.85 308.244 135.43C308.904 134.99 309.424 134.4 309.804 133.66C310.184 132.9 310.374 132.04 310.374 131.08C310.374 130.1 310.184 129.24 309.804 128.5C309.444 127.74 308.934 127.15 308.274 126.73C307.614 126.31 306.854 126.1 305.994 126.1C305.114 126.1 304.344 126.31 303.684 126.73C303.024 127.15 302.504 127.74 302.124 128.5C301.744 129.24 301.554 130.1 301.554 131.08C301.554 132.04 301.744 132.9 302.124 133.66C302.504 134.4 303.024 134.99 303.684 135.43C304.344 135.85 305.114 136.06 305.994 136.06ZM317.234 139V116.8H320.894V139H317.234ZM332.378 139.3C330.718 139.3 329.248 138.96 327.968 138.28C326.708 137.58 325.718 136.63 324.998 135.43C324.298 134.21 323.948 132.81 323.948 131.23C323.948 129.99 324.148 128.86 324.548 127.84C324.948 126.82 325.508 125.94 326.228 125.2C326.948 124.44 327.798 123.86 328.778 123.46C329.778 123.04 330.858 122.83 332.018 122.83C333.078 122.83 334.048 123.03 334.928 123.43C335.828 123.83 336.608 124.38 337.268 125.08C337.928 125.76 338.428 126.58 338.768 127.54C339.128 128.48 339.298 129.51 339.278 130.63L339.248 131.95H326.468L325.748 129.4H336.158L335.708 129.91V129.22C335.648 128.62 335.448 128.09 335.108 127.63C334.768 127.15 334.328 126.78 333.788 126.52C333.268 126.24 332.688 126.1 332.048 126.1C331.068 126.1 330.238 126.29 329.558 126.67C328.878 127.03 328.358 127.57 327.998 128.29C327.658 129.01 327.488 129.9 327.488 130.96C327.488 131.98 327.698 132.87 328.118 133.63C328.558 134.39 329.178 134.98 329.978 135.4C330.778 135.82 331.708 136.03 332.768 136.03C333.508 136.03 334.188 135.91 334.808 135.67C335.448 135.43 336.128 135 336.848 134.38L338.648 136.9C338.108 137.4 337.488 137.83 336.788 138.19C336.108 138.53 335.388 138.8 334.628 139C333.868 139.2 333.118 139.3 332.378 139.3Z" fill="#0D0D0D"/>
</g>
<g filter="url(#filter4_d_1587_88220)">
<rect width="140" height="38" transform="translate(211.444 217)" fill="#01F293"/>
<path d="M229.924 247.3C228.084 247.3 226.484 246.95 225.124 246.25C223.784 245.55 222.634 244.53 221.674 243.19L224.194 240.31C225.174 241.69 226.124 242.64 227.044 243.16C227.984 243.66 229.044 243.91 230.224 243.91C230.904 243.91 231.524 243.81 232.084 243.61C232.644 243.41 233.084 243.13 233.404 242.77C233.724 242.39 233.884 241.95 233.884 241.45C233.884 241.11 233.814 240.8 233.674 240.52C233.554 240.22 233.364 239.96 233.104 239.74C232.864 239.5 232.554 239.28 232.174 239.08C231.814 238.88 231.384 238.71 230.884 238.57C230.404 238.41 229.874 238.28 229.294 238.18C228.174 237.96 227.204 237.67 226.384 237.31C225.584 236.93 224.904 236.47 224.344 235.93C223.804 235.37 223.394 234.75 223.114 234.07C222.854 233.37 222.724 232.58 222.724 231.7C222.724 230.52 223.054 229.48 223.714 228.58C224.394 227.66 225.294 226.94 226.414 226.42C227.554 225.9 228.804 225.64 230.164 225.64C231.924 225.64 233.414 225.96 234.634 226.6C235.874 227.24 236.844 228.15 237.544 229.33L234.964 231.85C234.364 230.93 233.654 230.23 232.834 229.75C232.014 229.27 231.124 229.03 230.164 229.03C229.444 229.03 228.814 229.14 228.274 229.36C227.754 229.56 227.344 229.85 227.044 230.23C226.744 230.59 226.594 231.03 226.594 231.55C226.594 231.93 226.674 232.28 226.834 232.6C227.014 232.92 227.274 233.2 227.614 233.44C227.954 233.68 228.384 233.89 228.904 234.07C229.424 234.25 230.024 234.41 230.704 234.55C231.804 234.79 232.784 235.09 233.644 235.45C234.524 235.81 235.264 236.25 235.864 236.77C236.484 237.27 236.954 237.85 237.274 238.51C237.594 239.15 237.754 239.87 237.754 240.67C237.754 242.03 237.434 243.21 236.794 244.21C236.154 245.21 235.244 245.98 234.064 246.52C232.884 247.04 231.504 247.3 229.924 247.3ZM248.852 247.3C247.192 247.3 245.722 246.96 244.442 246.28C243.182 245.58 242.192 244.63 241.472 243.43C240.772 242.21 240.422 240.81 240.422 239.23C240.422 237.99 240.622 236.86 241.022 235.84C241.422 234.82 241.982 233.94 242.702 233.2C243.422 232.44 244.272 231.86 245.252 231.46C246.252 231.04 247.332 230.83 248.492 230.83C249.552 230.83 250.522 231.03 251.402 231.43C252.302 231.83 253.082 232.38 253.742 233.08C254.402 233.76 254.902 234.58 255.242 235.54C255.602 236.48 255.772 237.51 255.752 238.63L255.722 239.95H242.942L242.222 237.4H252.632L252.182 237.91V237.22C252.122 236.62 251.922 236.09 251.582 235.63C251.242 235.15 250.802 234.78 250.262 234.52C249.742 234.24 249.162 234.1 248.522 234.1C247.542 234.1 246.712 234.29 246.032 234.67C245.352 235.03 244.832 235.57 244.472 236.29C244.132 237.01 243.962 237.9 243.962 238.96C243.962 239.98 244.172 240.87 244.592 241.63C245.032 242.39 245.652 242.98 246.452 243.4C247.252 243.82 248.182 244.03 249.242 244.03C249.982 244.03 250.662 243.91 251.282 243.67C251.922 243.43 252.602 243 253.322 242.38L255.122 244.9C254.582 245.4 253.962 245.83 253.262 246.19C252.582 246.53 251.862 246.8 251.102 247C250.342 247.2 249.592 247.3 248.852 247.3ZM265.8 247.3C264.32 247.3 262.99 246.94 261.81 246.22C260.63 245.5 259.7 244.52 259.02 243.28C258.34 242.04 258 240.64 258 239.08C258 237.52 258.34 236.12 259.02 234.88C259.7 233.64 260.63 232.66 261.81 231.94C262.99 231.22 264.32 230.86 265.8 230.86C267.2 230.86 268.48 231.14 269.64 231.7C270.82 232.24 271.72 232.98 272.34 233.92L270.33 236.38C270.03 235.96 269.65 235.58 269.19 235.24C268.73 234.9 268.23 234.63 267.69 234.43C267.17 234.23 266.66 234.13 266.16 234.13C265.26 234.13 264.46 234.35 263.76 234.79C263.08 235.21 262.54 235.8 262.14 236.56C261.74 237.3 261.54 238.14 261.54 239.08C261.54 240.02 261.74 240.86 262.14 241.6C262.56 242.34 263.12 242.93 263.82 243.37C264.52 243.81 265.3 244.03 266.16 244.03C266.7 244.03 267.21 243.95 267.69 243.79C268.17 243.61 268.63 243.36 269.07 243.04C269.53 242.72 269.95 242.32 270.33 241.84L272.34 244.3C271.68 245.18 270.75 245.9 269.55 246.46C268.35 247.02 267.1 247.3 265.8 247.3ZM280.653 247.3C279.513 247.3 278.523 247.04 277.683 246.52C276.863 246 276.223 245.27 275.763 244.33C275.323 243.39 275.103 242.26 275.103 240.94V231.19H278.763V240.16C278.763 241.4 279.053 242.38 279.633 243.1C280.233 243.82 281.063 244.18 282.123 244.18C282.643 244.18 283.113 244.1 283.533 243.94C283.973 243.76 284.353 243.52 284.673 243.22C284.993 242.9 285.243 242.52 285.423 242.08C285.603 241.64 285.693 241.17 285.693 240.67V231.19H289.353V247H285.783L285.723 243.7L286.383 243.34C286.143 244.08 285.733 244.75 285.153 245.35C284.593 245.95 283.923 246.43 283.143 246.79C282.363 247.13 281.533 247.3 280.653 247.3ZM293.708 247V231.19H297.308L297.368 236.23L296.888 235.09C297.108 234.29 297.488 233.57 298.028 232.93C298.568 232.29 299.188 231.79 299.888 231.43C300.608 231.05 301.348 230.86 302.108 230.86C302.448 230.86 302.768 230.89 303.068 230.95C303.388 231.01 303.648 231.08 303.848 231.16L302.888 235.18C302.648 235.06 302.368 234.97 302.048 234.91C301.748 234.83 301.438 234.79 301.118 234.79C300.598 234.79 300.108 234.89 299.648 235.09C299.208 235.27 298.818 235.53 298.478 235.87C298.158 236.21 297.898 236.61 297.698 237.07C297.498 237.51 297.398 238 297.398 238.54V247H293.708ZM306.755 247V231.19H310.415V247H306.755ZM308.555 227.83C307.815 227.83 307.235 227.65 306.815 227.29C306.415 226.91 306.215 226.38 306.215 225.7C306.215 225.06 306.425 224.55 306.845 224.17C307.265 223.77 307.835 223.57 308.555 223.57C309.295 223.57 309.865 223.76 310.265 224.14C310.685 224.5 310.895 225.02 310.895 225.7C310.895 226.32 310.685 226.83 310.265 227.23C309.845 227.63 309.275 227.83 308.555 227.83ZM316.835 247V227.17H320.495V247H316.835ZM313.715 234.61V231.19H323.945V234.61H313.715ZM329.185 253.9L332.515 246.16L332.545 248.65L324.745 231.19H328.975L333.355 241.6C333.495 241.86 333.635 242.21 333.775 242.65C333.915 243.07 334.035 243.48 334.135 243.88L333.385 244.15C333.525 243.77 333.665 243.36 333.805 242.92C333.965 242.48 334.125 242.04 334.285 241.6L338.005 231.19H342.265L335.695 247L333.025 253.9H329.185Z" fill="#0D0D0D"/>
</g>
<g filter="url(#filter5_d_1587_88220)">
<rect width="174" height="38" transform="translate(211.444 272)" fill="#01F293"/>
<path d="M232.144 302.3C230.644 302.3 229.264 302.04 228.004 301.52C226.744 301 225.654 300.26 224.734 299.3C223.814 298.32 223.094 297.17 222.574 295.85C222.074 294.51 221.824 293.05 221.824 291.47C221.824 289.95 222.094 288.54 222.634 287.24C223.174 285.94 223.924 284.8 224.884 283.82C225.844 282.84 226.964 282.08 228.244 281.54C229.524 281 230.904 280.73 232.384 280.73C233.404 280.73 234.394 280.88 235.354 281.18C236.314 281.48 237.194 281.9 237.994 282.44C238.814 282.96 239.484 283.58 240.004 284.3L237.514 286.97C236.734 286.17 235.914 285.56 235.054 285.14C234.214 284.72 233.324 284.51 232.384 284.51C231.464 284.51 230.594 284.68 229.774 285.02C228.974 285.36 228.274 285.84 227.674 286.46C227.094 287.08 226.634 287.82 226.294 288.68C225.954 289.52 225.784 290.46 225.784 291.5C225.784 292.56 225.944 293.53 226.264 294.41C226.604 295.27 227.074 296.01 227.674 296.63C228.294 297.25 229.024 297.72 229.864 298.04C230.724 298.36 231.674 298.52 232.714 298.52C233.354 298.52 233.984 298.44 234.604 298.28C235.224 298.1 235.804 297.84 236.344 297.5C236.884 297.16 237.364 296.77 237.784 296.33L239.704 299.42C239.224 299.96 238.584 300.45 237.784 300.89C236.984 301.33 236.094 301.68 235.114 301.94C234.134 302.18 233.144 302.3 232.144 302.3ZM250.312 302.3C248.732 302.3 247.322 301.95 246.082 301.25C244.842 300.53 243.862 299.55 243.142 298.31C242.442 297.07 242.092 295.66 242.092 294.08C242.092 292.5 242.442 291.09 243.142 289.85C243.862 288.61 244.842 287.64 246.082 286.94C247.322 286.22 248.732 285.86 250.312 285.86C251.872 285.86 253.272 286.22 254.512 286.94C255.752 287.64 256.722 288.61 257.422 289.85C258.142 291.09 258.502 292.5 258.502 294.08C258.502 295.66 258.142 297.07 257.422 298.31C256.722 299.55 255.752 300.53 254.512 301.25C253.272 301.95 251.872 302.3 250.312 302.3ZM250.312 299.03C251.172 299.03 251.942 298.82 252.622 298.4C253.302 297.96 253.832 297.37 254.212 296.63C254.612 295.87 254.802 295.02 254.782 294.08C254.802 293.12 254.612 292.27 254.212 291.53C253.832 290.77 253.302 290.18 252.622 289.76C251.942 289.34 251.172 289.13 250.312 289.13C249.452 289.13 248.672 289.35 247.972 289.79C247.292 290.21 246.762 290.8 246.382 291.56C246.002 292.3 245.812 293.14 245.812 294.08C245.812 295.02 246.002 295.87 246.382 296.63C246.762 297.37 247.292 297.96 247.972 298.4C248.672 298.82 249.452 299.03 250.312 299.03ZM261.804 302V286.19H265.374L265.434 289.43L264.744 289.79C264.964 289.09 265.354 288.45 265.914 287.87C266.494 287.27 267.184 286.79 267.984 286.43C268.784 286.05 269.614 285.86 270.474 285.86C271.674 285.86 272.674 286.1 273.474 286.58C274.294 287.06 274.904 287.78 275.304 288.74C275.704 289.7 275.904 290.9 275.904 292.34V302H272.244V292.61C272.244 291.79 272.134 291.12 271.914 290.6C271.694 290.06 271.354 289.67 270.894 289.43C270.434 289.17 269.874 289.06 269.214 289.1C268.674 289.1 268.174 289.19 267.714 289.37C267.254 289.53 266.854 289.77 266.514 290.09C266.194 290.39 265.934 290.75 265.734 291.17C265.554 291.57 265.464 292.01 265.464 292.49V302H263.634C263.294 302 262.964 302 262.644 302C262.344 302 262.064 302 261.804 302ZM285.365 302.3C283.985 302.3 282.735 302.07 281.615 301.61C280.515 301.13 279.615 300.45 278.915 299.57L281.285 297.53C281.885 298.19 282.555 298.68 283.295 299C284.035 299.3 284.815 299.45 285.635 299.45C285.975 299.45 286.275 299.41 286.535 299.33C286.815 299.25 287.055 299.13 287.255 298.97C287.455 298.81 287.605 298.62 287.705 298.4C287.825 298.18 287.885 297.94 287.885 297.68C287.885 297.2 287.705 296.82 287.345 296.54C287.145 296.42 286.835 296.28 286.415 296.12C285.995 295.94 285.445 295.77 284.765 295.61C283.685 295.33 282.775 295.01 282.035 294.65C281.315 294.27 280.755 293.85 280.355 293.39C280.015 292.99 279.765 292.56 279.605 292.1C279.445 291.62 279.365 291.09 279.365 290.51C279.365 289.61 279.625 288.81 280.145 288.11C280.685 287.41 281.395 286.86 282.275 286.46C283.155 286.06 284.135 285.86 285.215 285.86C286.015 285.86 286.785 285.96 287.525 286.16C288.285 286.36 288.985 286.65 289.625 287.03C290.265 287.39 290.815 287.83 291.275 288.35L289.235 290.6C288.875 290.24 288.465 289.92 288.005 289.64C287.565 289.34 287.115 289.11 286.655 288.95C286.195 288.79 285.765 288.71 285.365 288.71C284.985 288.71 284.645 288.75 284.345 288.83C284.045 288.89 283.795 288.99 283.595 289.13C283.395 289.27 283.235 289.45 283.115 289.67C283.015 289.87 282.965 290.1 282.965 290.36C282.985 290.62 283.045 290.86 283.145 291.08C283.265 291.28 283.425 291.45 283.625 291.59C283.825 291.73 284.145 291.89 284.585 292.07C285.025 292.25 285.595 292.42 286.295 292.58C287.275 292.84 288.095 293.13 288.755 293.45C289.415 293.77 289.935 294.14 290.315 294.56C290.695 294.92 290.965 295.34 291.125 295.82C291.285 296.3 291.365 296.84 291.365 297.44C291.365 298.38 291.095 299.22 290.555 299.96C290.035 300.68 289.325 301.25 288.425 301.67C287.525 302.09 286.505 302.3 285.365 302.3ZM302.026 302.3C300.366 302.3 298.896 301.96 297.616 301.28C296.356 300.58 295.366 299.63 294.646 298.43C293.946 297.21 293.596 295.81 293.596 294.23C293.596 292.99 293.796 291.86 294.196 290.84C294.596 289.82 295.156 288.94 295.876 288.2C296.596 287.44 297.446 286.86 298.426 286.46C299.426 286.04 300.506 285.83 301.666 285.83C302.726 285.83 303.696 286.03 304.576 286.43C305.476 286.83 306.256 287.38 306.916 288.08C307.576 288.76 308.076 289.58 308.416 290.54C308.776 291.48 308.946 292.51 308.926 293.63L308.896 294.95H296.116L295.396 292.4H305.806L305.356 292.91V292.22C305.296 291.62 305.096 291.09 304.756 290.63C304.416 290.15 303.976 289.78 303.436 289.52C302.916 289.24 302.336 289.1 301.696 289.1C300.716 289.1 299.886 289.29 299.206 289.67C298.526 290.03 298.006 290.57 297.646 291.29C297.306 292.01 297.136 292.9 297.136 293.96C297.136 294.98 297.346 295.87 297.766 296.63C298.206 297.39 298.826 297.98 299.626 298.4C300.426 298.82 301.356 299.03 302.416 299.03C303.156 299.03 303.836 298.91 304.456 298.67C305.096 298.43 305.776 298 306.496 297.38L308.296 299.9C307.756 300.4 307.136 300.83 306.436 301.19C305.756 301.53 305.036 301.8 304.276 302C303.516 302.2 302.766 302.3 302.026 302.3ZM312.194 302V286.19H315.764L315.824 289.43L315.134 289.79C315.354 289.09 315.744 288.45 316.304 287.87C316.884 287.27 317.574 286.79 318.374 286.43C319.174 286.05 320.004 285.86 320.864 285.86C322.064 285.86 323.064 286.1 323.864 286.58C324.684 287.06 325.294 287.78 325.694 288.74C326.094 289.7 326.294 290.9 326.294 292.34V302H322.634V292.61C322.634 291.79 322.524 291.12 322.304 290.6C322.084 290.06 321.744 289.67 321.284 289.43C320.824 289.17 320.264 289.06 319.604 289.1C319.064 289.1 318.564 289.19 318.104 289.37C317.644 289.53 317.244 289.77 316.904 290.09C316.584 290.39 316.324 290.75 316.124 291.17C315.944 291.57 315.854 292.01 315.854 292.49V302H314.024C313.684 302 313.354 302 313.034 302C312.734 302 312.454 302 312.194 302ZM335.755 302.3C334.375 302.3 333.125 302.07 332.005 301.61C330.905 301.13 330.005 300.45 329.305 299.57L331.675 297.53C332.275 298.19 332.945 298.68 333.685 299C334.425 299.3 335.205 299.45 336.025 299.45C336.365 299.45 336.665 299.41 336.925 299.33C337.205 299.25 337.445 299.13 337.645 298.97C337.845 298.81 337.995 298.62 338.095 298.4C338.215 298.18 338.275 297.94 338.275 297.68C338.275 297.2 338.095 296.82 337.735 296.54C337.535 296.42 337.225 296.28 336.805 296.12C336.385 295.94 335.835 295.77 335.155 295.61C334.075 295.33 333.165 295.01 332.425 294.65C331.705 294.27 331.145 293.85 330.745 293.39C330.405 292.99 330.155 292.56 329.995 292.1C329.835 291.62 329.755 291.09 329.755 290.51C329.755 289.61 330.015 288.81 330.535 288.11C331.075 287.41 331.785 286.86 332.665 286.46C333.545 286.06 334.525 285.86 335.605 285.86C336.405 285.86 337.175 285.96 337.915 286.16C338.675 286.36 339.375 286.65 340.015 287.03C340.655 287.39 341.205 287.83 341.665 288.35L339.625 290.6C339.265 290.24 338.855 289.92 338.395 289.64C337.955 289.34 337.505 289.11 337.045 288.95C336.585 288.79 336.155 288.71 335.755 288.71C335.375 288.71 335.035 288.75 334.735 288.83C334.435 288.89 334.185 288.99 333.985 289.13C333.785 289.27 333.625 289.45 333.505 289.67C333.405 289.87 333.355 290.1 333.355 290.36C333.375 290.62 333.435 290.86 333.535 291.08C333.655 291.28 333.815 291.45 334.015 291.59C334.215 291.73 334.535 291.89 334.975 292.07C335.415 292.25 335.985 292.42 336.685 292.58C337.665 292.84 338.485 293.13 339.145 293.45C339.805 293.77 340.325 294.14 340.705 294.56C341.085 294.92 341.355 295.34 341.515 295.82C341.675 296.3 341.755 296.84 341.755 297.44C341.755 298.38 341.485 299.22 340.945 299.96C340.425 300.68 339.715 301.25 338.815 301.67C337.915 302.09 336.895 302.3 335.755 302.3ZM350.497 302.3C349.357 302.3 348.367 302.04 347.527 301.52C346.707 301 346.067 300.27 345.607 299.33C345.167 298.39 344.947 297.26 344.947 295.94V286.19H348.607V295.16C348.607 296.4 348.897 297.38 349.477 298.1C350.077 298.82 350.907 299.18 351.967 299.18C352.487 299.18 352.957 299.1 353.377 298.94C353.817 298.76 354.197 298.52 354.517 298.22C354.837 297.9 355.087 297.52 355.267 297.08C355.447 296.64 355.537 296.17 355.537 295.67V286.19H359.197V302H355.627L355.567 298.7L356.227 298.34C355.987 299.08 355.577 299.75 354.997 300.35C354.437 300.95 353.767 301.43 352.987 301.79C352.207 302.13 351.377 302.3 350.497 302.3ZM368.832 302.3C367.452 302.3 366.202 302.07 365.082 301.61C363.982 301.13 363.082 300.45 362.382 299.57L364.752 297.53C365.352 298.19 366.022 298.68 366.762 299C367.502 299.3 368.282 299.45 369.102 299.45C369.442 299.45 369.742 299.41 370.002 299.33C370.282 299.25 370.522 299.13 370.722 298.97C370.922 298.81 371.072 298.62 371.172 298.4C371.292 298.18 371.352 297.94 371.352 297.68C371.352 297.2 371.172 296.82 370.812 296.54C370.612 296.42 370.302 296.28 369.882 296.12C369.462 295.94 368.912 295.77 368.232 295.61C367.152 295.33 366.242 295.01 365.502 294.65C364.782 294.27 364.222 293.85 363.822 293.39C363.482 292.99 363.232 292.56 363.072 292.1C362.912 291.62 362.832 291.09 362.832 290.51C362.832 289.61 363.092 288.81 363.612 288.11C364.152 287.41 364.862 286.86 365.742 286.46C366.622 286.06 367.602 285.86 368.682 285.86C369.482 285.86 370.252 285.96 370.992 286.16C371.752 286.36 372.452 286.65 373.092 287.03C373.732 287.39 374.282 287.83 374.742 288.35L372.702 290.6C372.342 290.24 371.932 289.92 371.472 289.64C371.032 289.34 370.582 289.11 370.122 288.95C369.662 288.79 369.232 288.71 368.832 288.71C368.452 288.71 368.112 288.75 367.812 288.83C367.512 288.89 367.262 288.99 367.062 289.13C366.862 289.27 366.702 289.45 366.582 289.67C366.482 289.87 366.432 290.1 366.432 290.36C366.452 290.62 366.512 290.86 366.612 291.08C366.732 291.28 366.892 291.45 367.092 291.59C367.292 291.73 367.612 291.89 368.052 292.07C368.492 292.25 369.062 292.42 369.762 292.58C370.742 292.84 371.562 293.13 372.222 293.45C372.882 293.77 373.402 294.14 373.782 294.56C374.162 294.92 374.432 295.34 374.592 295.82C374.752 296.3 374.832 296.84 374.832 297.44C374.832 298.38 374.562 299.22 374.022 299.96C373.502 300.68 372.792 301.25 371.892 301.67C370.992 302.09 369.972 302.3 368.832 302.3Z" fill="#0D0D0D"/>
</g>
<g filter="url(#filter6_d_1587_88220)">
<rect width="186" height="38" fill="#01F293"/>
<path d="M18.48 30.3C16.64 30.3 15.04 29.95 13.68 29.25C12.34 28.55 11.19 27.53 10.23 26.19L12.75 23.31C13.73 24.69 14.68 25.64 15.6 26.16C16.54 26.66 17.6 26.91 18.78 26.91C19.46 26.91 20.08 26.81 20.64 26.61C21.2 26.41 21.64 26.13 21.96 25.77C22.28 25.39 22.44 24.95 22.44 24.45C22.44 24.11 22.37 23.8 22.23 23.52C22.11 23.22 21.92 22.96 21.66 22.74C21.42 22.5 21.11 22.28 20.73 22.08C20.37 21.88 19.94 21.71 19.44 21.57C18.96 21.41 18.43 21.28 17.85 21.18C16.73 20.96 15.76 20.67 14.94 20.31C14.14 19.93 13.46 19.47 12.9 18.93C12.36 18.37 11.95 17.75 11.67 17.07C11.41 16.37 11.28 15.58 11.28 14.7C11.28 13.52 11.61 12.48 12.27 11.58C12.95 10.66 13.85 9.94 14.97 9.42C16.11 8.9 17.36 8.64 18.72 8.64C20.48 8.64 21.97 8.96 23.19 9.6C24.43 10.24 25.4 11.15 26.1 12.33L23.52 14.85C22.92 13.93 22.21 13.23 21.39 12.75C20.57 12.27 19.68 12.03 18.72 12.03C18 12.03 17.37 12.14 16.83 12.36C16.31 12.56 15.9 12.85 15.6 13.23C15.3 13.59 15.15 14.03 15.15 14.55C15.15 14.93 15.23 15.28 15.39 15.6C15.57 15.92 15.83 16.2 16.17 16.44C16.51 16.68 16.94 16.89 17.46 17.07C17.98 17.25 18.58 17.41 19.26 17.55C20.36 17.79 21.34 18.09 22.2 18.45C23.08 18.81 23.82 19.25 24.42 19.77C25.04 20.27 25.51 20.85 25.83 21.51C26.15 22.15 26.31 22.87 26.31 23.67C26.31 25.03 25.99 26.21 25.35 27.21C24.71 28.21 23.8 28.98 22.62 29.52C21.44 30.04 20.06 30.3 18.48 30.3ZM35.4879 30.3C34.3479 30.3 33.3579 30.04 32.5179 29.52C31.6979 29 31.0579 28.27 30.5979 27.33C30.1579 26.39 29.9379 25.26 29.9379 23.94V14.19H33.5979V23.16C33.5979 24.4 33.8879 25.38 34.4679 26.1C35.0679 26.82 35.8979 27.18 36.9579 27.18C37.4779 27.18 37.9479 27.1 38.3679 26.94C38.8079 26.76 39.1879 26.52 39.5079 26.22C39.8279 25.9 40.0779 25.52 40.2579 25.08C40.4379 24.64 40.5279 24.17 40.5279 23.67V14.19H44.1879V30H40.6179L40.5579 26.7L41.2179 26.34C40.9779 27.08 40.5679 27.75 39.9879 28.35C39.4279 28.95 38.7579 29.43 37.9779 29.79C37.1979 30.13 36.3679 30.3 35.4879 30.3ZM53.8228 30.3C52.4428 30.3 51.1928 30.07 50.0728 29.61C48.9728 29.13 48.0728 28.45 47.3728 27.57L49.7428 25.53C50.3428 26.19 51.0128 26.68 51.7528 27C52.4928 27.3 53.2728 27.45 54.0928 27.45C54.4328 27.45 54.7328 27.41 54.9928 27.33C55.2728 27.25 55.5128 27.13 55.7128 26.97C55.9128 26.81 56.0628 26.62 56.1628 26.4C56.2828 26.18 56.3428 25.94 56.3428 25.68C56.3428 25.2 56.1628 24.82 55.8028 24.54C55.6028 24.42 55.2928 24.28 54.8728 24.12C54.4528 23.94 53.9028 23.77 53.2228 23.61C52.1428 23.33 51.2328 23.01 50.4928 22.65C49.7728 22.27 49.2128 21.85 48.8128 21.39C48.4728 20.99 48.2228 20.56 48.0628 20.1C47.9028 19.62 47.8228 19.09 47.8228 18.51C47.8228 17.61 48.0828 16.81 48.6028 16.11C49.1428 15.41 49.8528 14.86 50.7328 14.46C51.6128 14.06 52.5928 13.86 53.6728 13.86C54.4728 13.86 55.2428 13.96 55.9828 14.16C56.7428 14.36 57.4428 14.65 58.0828 15.03C58.7228 15.39 59.2728 15.83 59.7328 16.35L57.6928 18.6C57.3328 18.24 56.9228 17.92 56.4628 17.64C56.0228 17.34 55.5728 17.11 55.1128 16.95C54.6528 16.79 54.2228 16.71 53.8228 16.71C53.4428 16.71 53.1028 16.75 52.8028 16.83C52.5028 16.89 52.2528 16.99 52.0528 17.13C51.8528 17.27 51.6928 17.45 51.5728 17.67C51.4728 17.87 51.4228 18.1 51.4228 18.36C51.4428 18.62 51.5028 18.86 51.6028 19.08C51.7228 19.28 51.8828 19.45 52.0828 19.59C52.2828 19.73 52.6028 19.89 53.0428 20.07C53.4828 20.25 54.0528 20.42 54.7528 20.58C55.7328 20.84 56.5528 21.13 57.2128 21.45C57.8728 21.77 58.3928 22.14 58.7728 22.56C59.1528 22.92 59.4228 23.34 59.5828 23.82C59.7428 24.3 59.8228 24.84 59.8228 25.44C59.8228 26.38 59.5528 27.22 59.0128 27.96C58.4928 28.68 57.7828 29.25 56.8828 29.67C55.9828 30.09 54.9628 30.3 53.8228 30.3ZM64.8141 30V10.17H68.4741V30H64.8141ZM61.6941 17.61V14.19H71.9241V17.61H61.6941ZM83.6177 30V19.89C83.6177 19.03 83.3277 18.36 82.7477 17.88C82.1877 17.38 81.4577 17.13 80.5577 17.13C79.7177 17.13 78.9577 17.3 78.2777 17.64C77.5977 17.96 76.9677 18.48 76.3877 19.2L74.1077 16.92C75.0477 15.92 76.0877 15.16 77.2277 14.64C78.3677 14.12 79.5977 13.86 80.9177 13.86C82.1777 13.86 83.2577 14.06 84.1577 14.46C85.0777 14.86 85.7877 15.46 86.2877 16.26C86.7877 17.04 87.0377 18 87.0377 19.14V30H83.6177ZM79.1177 30.3C78.0977 30.3 77.1877 30.1 76.3877 29.7C75.5877 29.3 74.9477 28.75 74.4677 28.05C74.0077 27.33 73.7777 26.49 73.7777 25.53C73.7777 24.69 73.9277 23.96 74.2277 23.34C74.5277 22.7 74.9677 22.17 75.5477 21.75C76.1477 21.33 76.8877 21.02 77.7677 20.82C78.6677 20.6 79.6977 20.49 80.8577 20.49H85.3877L85.1177 23.13H80.6477C80.1077 23.13 79.6277 23.18 79.2077 23.28C78.7877 23.38 78.4277 23.53 78.1277 23.73C77.8277 23.93 77.6077 24.17 77.4677 24.45C77.3277 24.71 77.2577 25.03 77.2577 25.41C77.2577 25.81 77.3577 26.16 77.5577 26.46C77.7577 26.74 78.0277 26.96 78.3677 27.12C78.7077 27.28 79.1077 27.36 79.5677 27.36C80.2277 27.36 80.8477 27.25 81.4277 27.03C82.0277 26.81 82.5577 26.5 83.0177 26.1C83.4777 25.7 83.8377 25.25 84.0977 24.75L84.8477 26.79C84.4277 27.49 83.9077 28.1 83.2877 28.62C82.6877 29.14 82.0277 29.55 81.3077 29.85C80.6077 30.15 79.8777 30.3 79.1177 30.3ZM91.3554 30V14.19H95.0154V30H91.3554ZM93.1554 10.83C92.4154 10.83 91.8354 10.65 91.4154 10.29C91.0154 9.91 90.8154 9.38 90.8154 8.7C90.8154 8.06 91.0254 7.55 91.4454 7.17C91.8654 6.77 92.4354 6.57 93.1554 6.57C93.8954 6.57 94.4654 6.76 94.8654 7.14C95.2854 7.5 95.4954 8.02 95.4954 8.7C95.4954 9.32 95.2854 9.83 94.8654 10.23C94.4454 10.63 93.8754 10.83 93.1554 10.83ZM99.6952 30V14.19H103.265L103.325 17.43L102.635 17.79C102.855 17.09 103.245 16.45 103.805 15.87C104.385 15.27 105.075 14.79 105.875 14.43C106.675 14.05 107.505 13.86 108.365 13.86C109.565 13.86 110.565 14.1 111.365 14.58C112.185 15.06 112.795 15.78 113.195 16.74C113.595 17.7 113.795 18.9 113.795 20.34V30H110.135V20.61C110.135 19.79 110.025 19.12 109.805 18.6C109.585 18.06 109.245 17.67 108.785 17.43C108.325 17.17 107.765 17.06 107.105 17.1C106.565 17.1 106.065 17.19 105.605 17.37C105.145 17.53 104.745 17.77 104.405 18.09C104.085 18.39 103.825 18.75 103.625 19.17C103.445 19.57 103.355 20.01 103.355 20.49V30H101.525C101.185 30 100.855 30 100.535 30C100.235 30 99.9552 30 99.6952 30ZM127.006 30V19.89C127.006 19.03 126.716 18.36 126.136 17.88C125.576 17.38 124.846 17.13 123.946 17.13C123.106 17.13 122.346 17.3 121.666 17.64C120.986 17.96 120.356 18.48 119.776 19.2L117.496 16.92C118.436 15.92 119.476 15.16 120.616 14.64C121.756 14.12 122.986 13.86 124.306 13.86C125.566 13.86 126.646 14.06 127.546 14.46C128.466 14.86 129.176 15.46 129.676 16.26C130.176 17.04 130.426 18 130.426 19.14V30H127.006ZM122.506 30.3C121.486 30.3 120.576 30.1 119.776 29.7C118.976 29.3 118.336 28.75 117.856 28.05C117.396 27.33 117.166 26.49 117.166 25.53C117.166 24.69 117.316 23.96 117.616 23.34C117.916 22.7 118.356 22.17 118.936 21.75C119.536 21.33 120.276 21.02 121.156 20.82C122.056 20.6 123.086 20.49 124.246 20.49H128.776L128.506 23.13H124.036C123.496 23.13 123.016 23.18 122.596 23.28C122.176 23.38 121.816 23.53 121.516 23.73C121.216 23.93 120.996 24.17 120.856 24.45C120.716 24.71 120.646 25.03 120.646 25.41C120.646 25.81 120.746 26.16 120.946 26.46C121.146 26.74 121.416 26.96 121.756 27.12C122.096 27.28 122.496 27.36 122.956 27.36C123.616 27.36 124.236 27.25 124.816 27.03C125.416 26.81 125.946 26.5 126.406 26.1C126.866 25.7 127.226 25.25 127.486 24.75L128.236 26.79C127.816 27.49 127.296 28.1 126.676 28.62C126.076 29.14 125.416 29.55 124.696 29.85C123.996 30.15 123.266 30.3 122.506 30.3ZM143.024 30.3C142.324 30.3 141.644 30.2 140.984 30C140.324 29.78 139.714 29.49 139.154 29.13C138.614 28.77 138.164 28.37 137.804 27.93C137.444 27.47 137.204 27.01 137.084 26.55L137.954 26.16L137.864 29.91H134.324V7.8H137.984V17.82L137.354 17.55C137.454 17.07 137.674 16.62 138.014 16.2C138.354 15.76 138.784 15.37 139.304 15.03C139.824 14.67 140.394 14.39 141.014 14.19C141.634 13.97 142.274 13.86 142.934 13.86C144.334 13.86 145.574 14.22 146.654 14.94C147.754 15.64 148.614 16.61 149.234 17.85C149.874 19.07 150.194 20.48 150.194 22.08C150.194 23.66 149.884 25.07 149.264 26.31C148.644 27.55 147.784 28.53 146.684 29.25C145.604 29.95 144.384 30.3 143.024 30.3ZM142.274 27.06C143.114 27.06 143.864 26.85 144.524 26.43C145.184 25.99 145.704 25.4 146.084 24.66C146.464 23.9 146.654 23.04 146.654 22.08C146.654 21.1 146.464 20.24 146.084 19.5C145.724 18.74 145.214 18.15 144.554 17.73C143.894 17.31 143.134 17.1 142.274 17.1C141.394 17.1 140.624 17.31 139.964 17.73C139.304 18.15 138.784 18.74 138.404 19.5C138.024 20.24 137.834 21.1 137.834 22.08C137.834 23.04 138.024 23.9 138.404 24.66C138.784 25.4 139.304 25.99 139.964 26.43C140.624 26.85 141.394 27.06 142.274 27.06ZM153.514 30V7.8H157.174V30H153.514ZM168.658 30.3C166.998 30.3 165.528 29.96 164.248 29.28C162.988 28.58 161.998 27.63 161.278 26.43C160.578 25.21 160.228 23.81 160.228 22.23C160.228 20.99 160.428 19.86 160.828 18.84C161.228 17.82 161.788 16.94 162.508 16.2C163.228 15.44 164.078 14.86 165.058 14.46C166.058 14.04 167.138 13.83 168.298 13.83C169.358 13.83 170.328 14.03 171.208 14.43C172.108 14.83 172.888 15.38 173.548 16.08C174.208 16.76 174.708 17.58 175.048 18.54C175.408 19.48 175.578 20.51 175.558 21.63L175.528 22.95H162.748L162.028 20.4H172.438L171.988 20.91V20.22C171.928 19.62 171.728 19.09 171.388 18.63C171.048 18.15 170.608 17.78 170.068 17.52C169.548 17.24 168.968 17.1 168.328 17.1C167.348 17.1 166.518 17.29 165.838 17.67C165.158 18.03 164.638 18.57 164.278 19.29C163.938 20.01 163.768 20.9 163.768 21.96C163.768 22.98 163.978 23.87 164.398 24.63C164.838 25.39 165.458 25.98 166.258 26.4C167.058 26.82 167.988 27.03 169.048 27.03C169.788 27.03 170.468 26.91 171.088 26.67C171.728 26.43 172.408 26 173.128 25.38L174.928 27.9C174.388 28.4 173.768 28.83 173.068 29.19C172.388 29.53 171.668 29.8 170.908 30C170.148 30.2 169.398 30.3 168.658 30.3Z" fill="#0D0D0D"/>
</g>
<g filter="url(#filter7_d_1587_88220)">
<rect width="123" height="38" transform="translate(0 163.138)" fill="#01F293"/>
<path d="M11.82 193.138V172.138H25.53V175.678H15.66V189.598H25.65V193.138H11.82ZM13.62 184.138V180.658H24V184.138H13.62ZM29.8807 193.138V177.328H33.4507L33.5107 180.568L32.8207 180.928C33.0407 180.228 33.4307 179.588 33.9907 179.008C34.5707 178.408 35.2607 177.928 36.0607 177.568C36.8607 177.188 37.6907 176.998 38.5507 176.998C39.7507 176.998 40.7507 177.238 41.5507 177.718C42.3707 178.198 42.9807 178.918 43.3807 179.878C43.7807 180.838 43.9807 182.038 43.9807 183.478V193.138H40.3207V183.748C40.3207 182.928 40.2107 182.258 39.9907 181.738C39.7707 181.198 39.4307 180.808 38.9707 180.568C38.5107 180.308 37.9507 180.198 37.2907 180.238C36.7507 180.238 36.2507 180.328 35.7907 180.508C35.3307 180.668 34.9307 180.908 34.5907 181.228C34.2707 181.528 34.0107 181.888 33.8107 182.308C33.6307 182.708 33.5407 183.148 33.5407 183.628V193.138H31.7107C31.3707 193.138 31.0407 193.138 30.7207 193.138C30.4207 193.138 30.1407 193.138 29.8807 193.138ZM55.572 193.438C53.912 193.438 52.442 193.098 51.162 192.418C49.902 191.718 48.912 190.768 48.192 189.568C47.492 188.348 47.142 186.948 47.142 185.368C47.142 184.128 47.342 182.998 47.742 181.978C48.142 180.958 48.702 180.078 49.422 179.338C50.142 178.578 50.992 177.998 51.972 177.598C52.972 177.178 54.052 176.968 55.212 176.968C56.272 176.968 57.242 177.168 58.122 177.568C59.022 177.968 59.802 178.518 60.462 179.218C61.122 179.898 61.622 180.718 61.962 181.678C62.322 182.618 62.492 183.648 62.472 184.768L62.442 186.088H49.662L48.942 183.538H59.352L58.902 184.048V183.358C58.842 182.758 58.642 182.228 58.302 181.768C57.962 181.288 57.522 180.918 56.982 180.658C56.462 180.378 55.882 180.238 55.242 180.238C54.262 180.238 53.432 180.428 52.752 180.808C52.072 181.168 51.552 181.708 51.192 182.428C50.852 183.148 50.682 184.038 50.682 185.098C50.682 186.118 50.892 187.008 51.312 187.768C51.752 188.528 52.372 189.118 53.172 189.538C53.972 189.958 54.902 190.168 55.962 190.168C56.702 190.168 57.382 190.048 58.002 189.808C58.642 189.568 59.322 189.138 60.042 188.518L61.842 191.038C61.302 191.538 60.682 191.968 59.982 192.328C59.302 192.668 58.582 192.938 57.822 193.138C57.062 193.338 56.312 193.438 55.572 193.438ZM65.7401 193.138V177.328H69.3401L69.4001 182.368L68.9201 181.228C69.1401 180.428 69.5201 179.708 70.0601 179.068C70.6001 178.428 71.2201 177.928 71.9201 177.568C72.6401 177.188 73.3801 176.998 74.1401 176.998C74.4801 176.998 74.8001 177.028 75.1001 177.088C75.4201 177.148 75.6801 177.218 75.8801 177.298L74.9201 181.318C74.6801 181.198 74.4001 181.108 74.0801 181.048C73.7801 180.968 73.4701 180.928 73.1501 180.928C72.6301 180.928 72.1401 181.028 71.6801 181.228C71.2401 181.408 70.8501 181.668 70.5101 182.008C70.1901 182.348 69.9301 182.748 69.7301 183.208C69.5301 183.648 69.4301 184.138 69.4301 184.678V193.138H65.7401ZM85.0376 200.038C83.8776 200.038 82.7076 199.858 81.5276 199.498C80.3676 199.138 79.4276 198.678 78.7076 198.118L80.0276 195.358C80.6276 195.818 81.3576 196.178 82.2176 196.438C83.0976 196.718 83.9776 196.858 84.8576 196.858C85.9176 196.858 86.7976 196.688 87.4976 196.348C88.2176 196.008 88.7576 195.498 89.1176 194.818C89.4776 194.158 89.6576 193.338 89.6576 192.358V189.448L90.1676 189.658C90.0676 190.278 89.7376 190.868 89.1776 191.428C88.6376 191.988 87.9576 192.438 87.1376 192.778C86.3176 193.118 85.4776 193.288 84.6176 193.288C83.1376 193.288 81.8176 192.948 80.6576 192.268C79.4976 191.568 78.5776 190.608 77.8976 189.388C77.2376 188.168 76.9076 186.768 76.9076 185.188C76.9076 183.608 77.2376 182.208 77.8976 180.988C78.5576 179.748 79.4676 178.778 80.6276 178.078C81.7876 177.358 83.0876 176.998 84.5276 176.998C85.1076 176.998 85.6776 177.068 86.2376 177.208C86.7976 177.348 87.3176 177.548 87.7976 177.808C88.2776 178.068 88.6976 178.358 89.0576 178.678C89.4376 178.998 89.7476 179.338 89.9876 179.698C90.2276 180.058 90.3776 180.398 90.4376 180.718L89.6876 180.988L89.7476 177.328H93.3176V192.058C93.3176 193.338 93.1276 194.468 92.7476 195.448C92.3876 196.428 91.8476 197.258 91.1276 197.938C90.4076 198.618 89.5376 199.138 88.5176 199.498C87.4976 199.858 86.3376 200.038 85.0376 200.038ZM85.1576 190.138C86.0776 190.138 86.8876 189.928 87.5876 189.508C88.2876 189.088 88.8276 188.508 89.2076 187.768C89.5876 187.028 89.7776 186.178 89.7776 185.218C89.7776 184.238 89.5776 183.378 89.1776 182.638C88.7976 181.878 88.2576 181.288 87.5576 180.868C86.8776 180.448 86.0776 180.238 85.1576 180.238C84.2776 180.238 83.4876 180.458 82.7876 180.898C82.1076 181.318 81.5676 181.908 81.1676 182.668C80.7876 183.408 80.5976 184.258 80.5976 185.218C80.5976 186.178 80.7876 187.028 81.1676 187.768C81.5676 188.508 82.1076 189.088 82.7876 189.508C83.4876 189.928 84.2776 190.138 85.1576 190.138ZM100.045 200.038L103.375 192.298L103.405 194.788L95.6051 177.328H99.8351L104.215 187.738C104.355 187.998 104.495 188.348 104.635 188.788C104.775 189.208 104.895 189.618 104.995 190.018L104.245 190.288C104.385 189.908 104.525 189.498 104.665 189.058C104.825 188.618 104.985 188.178 105.145 187.738L108.865 177.328H113.125L106.555 193.138L103.885 200.038H100.045Z" fill="#0D0D0D"/>
</g>
<g filter="url(#filter8_d_1587_88220)">
<rect width="107" height="38" transform="translate(0 54.5684)" fill="#01F293"/>
<path d="M21.33 84.8684C19.77 84.8684 18.32 84.5984 16.98 84.0584C15.66 83.4984 14.5 82.7284 13.5 81.7484C12.5 80.7684 11.73 79.6284 11.19 78.3284C10.65 77.0084 10.38 75.5784 10.38 74.0384C10.38 72.5184 10.66 71.1084 11.22 69.8084C11.78 68.5084 12.55 67.3684 13.53 66.3884C14.53 65.4084 15.7 64.6484 17.04 64.1084C18.4 63.5684 19.86 63.2984 21.42 63.2984C22.5 63.2984 23.55 63.4484 24.57 63.7484C25.59 64.0484 26.51 64.4684 27.33 65.0084C28.17 65.5484 28.86 66.1584 29.4 66.8384L26.94 69.3884C26.1 68.5884 25.22 67.9784 24.3 67.5584C23.38 67.1384 22.41 66.9284 21.39 66.9284C20.39 66.9284 19.46 67.1084 18.6 67.4684C17.76 67.8284 17.01 68.3284 16.35 68.9684C15.71 69.6084 15.21 70.3584 14.85 71.2184C14.51 72.0784 14.34 73.0184 14.34 74.0384C14.34 75.0384 14.52 75.9784 14.88 76.8584C15.26 77.7184 15.78 78.4784 16.44 79.1384C17.12 79.7984 17.89 80.3184 18.75 80.6984C19.63 81.0584 20.56 81.2384 21.54 81.2384C22.28 81.2384 22.97 81.1384 23.61 80.9384C24.25 80.7184 24.82 80.4184 25.32 80.0384C25.82 79.6384 26.2 79.1784 26.46 78.6584C26.74 78.1384 26.88 77.5884 26.88 77.0084V76.3484L27.42 76.9484H21.21V73.4684H30.72C30.76 73.6884 30.79 73.9384 30.81 74.2184C30.83 74.4784 30.84 74.7284 30.84 74.9684C30.86 75.2084 30.87 75.4184 30.87 75.5984C30.87 76.9784 30.62 78.2384 30.12 79.3784C29.64 80.4984 28.97 81.4684 28.11 82.2884C27.25 83.1084 26.24 83.7484 25.08 84.2084C23.94 84.6484 22.69 84.8684 21.33 84.8684ZM34.3045 84.5684V68.7584H37.9045L37.9645 73.7984L37.4845 72.6584C37.7045 71.8584 38.0845 71.1384 38.6245 70.4984C39.1645 69.8584 39.7845 69.3584 40.4845 68.9984C41.2045 68.6184 41.9445 68.4284 42.7045 68.4284C43.0445 68.4284 43.3645 68.4584 43.6645 68.5184C43.9845 68.5784 44.2445 68.6484 44.4445 68.7284L43.4845 72.7484C43.2445 72.6284 42.9645 72.5384 42.6445 72.4784C42.3445 72.3984 42.0345 72.3584 41.7145 72.3584C41.1945 72.3584 40.7045 72.4584 40.2445 72.6584C39.8045 72.8384 39.4145 73.0984 39.0745 73.4384C38.7545 73.7784 38.4945 74.1784 38.2945 74.6384C38.0945 75.0784 37.9945 75.5684 37.9945 76.1084V84.5684H34.3045ZM53.6677 84.8684C52.0077 84.8684 50.5377 84.5284 49.2577 83.8484C47.9977 83.1484 47.0077 82.1984 46.2877 80.9984C45.5877 79.7784 45.2377 78.3784 45.2377 76.7984C45.2377 75.5584 45.4377 74.4284 45.8377 73.4084C46.2377 72.3884 46.7977 71.5084 47.5177 70.7684C48.2377 70.0084 49.0877 69.4284 50.0677 69.0284C51.0677 68.6084 52.1477 68.3984 53.3077 68.3984C54.3677 68.3984 55.3377 68.5984 56.2177 68.9984C57.1177 69.3984 57.8977 69.9484 58.5577 70.6484C59.2177 71.3284 59.7177 72.1484 60.0577 73.1084C60.4177 74.0484 60.5877 75.0784 60.5677 76.1984L60.5377 77.5184H47.7577L47.0377 74.9684H57.4477L56.9977 75.4784V74.7884C56.9377 74.1884 56.7377 73.6584 56.3977 73.1984C56.0577 72.7184 55.6177 72.3484 55.0777 72.0884C54.5577 71.8084 53.9777 71.6684 53.3377 71.6684C52.3577 71.6684 51.5277 71.8584 50.8477 72.2384C50.1677 72.5984 49.6477 73.1384 49.2877 73.8584C48.9477 74.5784 48.7777 75.4684 48.7777 76.5284C48.7777 77.5484 48.9877 78.4384 49.4077 79.1984C49.8477 79.9584 50.4677 80.5484 51.2677 80.9684C52.0677 81.3884 52.9977 81.5984 54.0577 81.5984C54.7977 81.5984 55.4777 81.4784 56.0977 81.2384C56.7377 80.9984 57.4177 80.5684 58.1377 79.9484L59.9377 82.4684C59.3977 82.9684 58.7777 83.3984 58.0777 83.7584C57.3977 84.0984 56.6777 84.3684 55.9177 84.5684C55.1577 84.7684 54.4077 84.8684 53.6677 84.8684ZM71.2458 84.8684C69.5858 84.8684 68.1158 84.5284 66.8358 83.8484C65.5758 83.1484 64.5858 82.1984 63.8658 80.9984C63.1658 79.7784 62.8158 78.3784 62.8158 76.7984C62.8158 75.5584 63.0158 74.4284 63.4158 73.4084C63.8158 72.3884 64.3758 71.5084 65.0958 70.7684C65.8158 70.0084 66.6658 69.4284 67.6458 69.0284C68.6458 68.6084 69.7258 68.3984 70.8858 68.3984C71.9458 68.3984 72.9158 68.5984 73.7958 68.9984C74.6958 69.3984 75.4758 69.9484 76.1358 70.6484C76.7958 71.3284 77.2958 72.1484 77.6358 73.1084C77.9958 74.0484 78.1658 75.0784 78.1458 76.1984L78.1158 77.5184H65.3358L64.6158 74.9684H75.0258L74.5758 75.4784V74.7884C74.5158 74.1884 74.3158 73.6584 73.9758 73.1984C73.6358 72.7184 73.1958 72.3484 72.6558 72.0884C72.1358 71.8084 71.5558 71.6684 70.9158 71.6684C69.9358 71.6684 69.1058 71.8584 68.4258 72.2384C67.7458 72.5984 67.2258 73.1384 66.8658 73.8584C66.5258 74.5784 66.3558 75.4684 66.3558 76.5284C66.3558 77.5484 66.5658 78.4384 66.9858 79.1984C67.4258 79.9584 68.0458 80.5484 68.8458 80.9684C69.6458 81.3884 70.5758 81.5984 71.6358 81.5984C72.3758 81.5984 73.0558 81.4784 73.6758 81.2384C74.3158 80.9984 74.9958 80.5684 75.7158 79.9484L77.5158 82.4684C76.9758 82.9684 76.3558 83.3984 75.6558 83.7584C74.9758 84.0984 74.2558 84.3684 73.4958 84.5684C72.7358 84.7684 71.9858 84.8684 71.2458 84.8684ZM81.4139 84.5684V68.7584H84.9839L85.0439 71.9984L84.3539 72.3584C84.5739 71.6584 84.9639 71.0184 85.5239 70.4384C86.1039 69.8384 86.7939 69.3584 87.5939 68.9984C88.3939 68.6184 89.2239 68.4284 90.0839 68.4284C91.2839 68.4284 92.2839 68.6684 93.0839 69.1484C93.9039 69.6284 94.5139 70.3484 94.9139 71.3084C95.3139 72.2684 95.5139 73.4684 95.5139 74.9084V84.5684H91.8539V75.1784C91.8539 74.3584 91.7439 73.6884 91.5239 73.1684C91.3039 72.6284 90.9639 72.2384 90.5039 71.9984C90.0439 71.7384 89.4839 71.6284 88.8239 71.6684C88.2839 71.6684 87.7839 71.7584 87.3239 71.9384C86.8639 72.0984 86.4639 72.3384 86.1239 72.6584C85.8039 72.9584 85.5439 73.3184 85.3439 73.7384C85.1639 74.1384 85.0739 74.5784 85.0739 75.0584V84.5684H83.2439C82.9039 84.5684 82.5739 84.5684 82.2539 84.5684C81.9539 84.5684 81.6739 84.5684 81.4139 84.5684Z" fill="#0D0D0D"/>
</g>
<g filter="url(#filter9_d_1587_88220)">
<rect width="176" height="38" transform="translate(0 108.854)" fill="#01F293"/>
<path d="M11.82 138.854V117.854H25.53V121.394H15.66V135.314H25.65V138.854H11.82ZM13.62 129.854V126.374H24V129.854H13.62ZM36.5142 139.154C35.0342 139.154 33.7042 138.794 32.5242 138.074C31.3442 137.354 30.4142 136.374 29.7342 135.134C29.0542 133.894 28.7142 132.494 28.7142 130.934C28.7142 129.374 29.0542 127.974 29.7342 126.734C30.4142 125.494 31.3442 124.514 32.5242 123.794C33.7042 123.074 35.0342 122.714 36.5142 122.714C37.9142 122.714 39.1942 122.994 40.3542 123.554C41.5342 124.094 42.4342 124.834 43.0542 125.774L41.0442 128.234C40.7442 127.814 40.3642 127.434 39.9042 127.094C39.4442 126.754 38.9442 126.484 38.4042 126.284C37.8842 126.084 37.3742 125.984 36.8742 125.984C35.9742 125.984 35.1742 126.204 34.4742 126.644C33.7942 127.064 33.2542 127.654 32.8542 128.414C32.4542 129.154 32.2542 129.994 32.2542 130.934C32.2542 131.874 32.4542 132.714 32.8542 133.454C33.2742 134.194 33.8342 134.784 34.5342 135.224C35.2342 135.664 36.0142 135.884 36.8742 135.884C37.4142 135.884 37.9242 135.804 38.4042 135.644C38.8842 135.464 39.3442 135.214 39.7842 134.894C40.2442 134.574 40.6642 134.174 41.0442 133.694L43.0542 136.154C42.3942 137.034 41.4642 137.754 40.2642 138.314C39.0642 138.874 37.8142 139.154 36.5142 139.154ZM53.0768 139.154C51.4968 139.154 50.0868 138.804 48.8468 138.104C47.6068 137.384 46.6268 136.404 45.9068 135.164C45.2068 133.924 44.8568 132.514 44.8568 130.934C44.8568 129.354 45.2068 127.944 45.9068 126.704C46.6268 125.464 47.6068 124.494 48.8468 123.794C50.0868 123.074 51.4968 122.714 53.0768 122.714C54.6368 122.714 56.0368 123.074 57.2768 123.794C58.5168 124.494 59.4868 125.464 60.1868 126.704C60.9068 127.944 61.2668 129.354 61.2668 130.934C61.2668 132.514 60.9068 133.924 60.1868 135.164C59.4868 136.404 58.5168 137.384 57.2768 138.104C56.0368 138.804 54.6368 139.154 53.0768 139.154ZM53.0768 135.884C53.9368 135.884 54.7068 135.674 55.3868 135.254C56.0668 134.814 56.5968 134.224 56.9768 133.484C57.3768 132.724 57.5668 131.874 57.5468 130.934C57.5668 129.974 57.3768 129.124 56.9768 128.384C56.5968 127.624 56.0668 127.034 55.3868 126.614C54.7068 126.194 53.9368 125.984 53.0768 125.984C52.2168 125.984 51.4368 126.204 50.7368 126.644C50.0568 127.064 49.5268 127.654 49.1468 128.414C48.7668 129.154 48.5768 129.994 48.5768 130.934C48.5768 131.874 48.7668 132.724 49.1468 133.484C49.5268 134.224 50.0568 134.814 50.7368 135.254C51.4368 135.674 52.2168 135.884 53.0768 135.884ZM69.8482 139.154C68.4682 139.154 67.2182 138.924 66.0982 138.464C64.9982 137.984 64.0982 137.304 63.3982 136.424L65.7682 134.384C66.3682 135.044 67.0382 135.534 67.7782 135.854C68.5182 136.154 69.2982 136.304 70.1182 136.304C70.4582 136.304 70.7582 136.264 71.0182 136.184C71.2982 136.104 71.5382 135.984 71.7382 135.824C71.9382 135.664 72.0882 135.474 72.1882 135.254C72.3082 135.034 72.3682 134.794 72.3682 134.534C72.3682 134.054 72.1882 133.674 71.8282 133.394C71.6282 133.274 71.3182 133.134 70.8982 132.974C70.4782 132.794 69.9282 132.624 69.2482 132.464C68.1682 132.184 67.2582 131.864 66.5182 131.504C65.7982 131.124 65.2382 130.704 64.8382 130.244C64.4982 129.844 64.2482 129.414 64.0882 128.954C63.9282 128.474 63.8482 127.944 63.8482 127.364C63.8482 126.464 64.1082 125.664 64.6282 124.964C65.1682 124.264 65.8782 123.714 66.7582 123.314C67.6382 122.914 68.6182 122.714 69.6982 122.714C70.4982 122.714 71.2682 122.814 72.0082 123.014C72.7682 123.214 73.4682 123.504 74.1082 123.884C74.7482 124.244 75.2982 124.684 75.7582 125.204L73.7182 127.454C73.3582 127.094 72.9482 126.774 72.4882 126.494C72.0482 126.194 71.5982 125.964 71.1382 125.804C70.6782 125.644 70.2482 125.564 69.8482 125.564C69.4682 125.564 69.1282 125.604 68.8282 125.684C68.5282 125.744 68.2782 125.844 68.0782 125.984C67.8782 126.124 67.7182 126.304 67.5982 126.524C67.4982 126.724 67.4482 126.954 67.4482 127.214C67.4682 127.474 67.5282 127.714 67.6282 127.934C67.7482 128.134 67.9082 128.304 68.1082 128.444C68.3082 128.584 68.6282 128.744 69.0682 128.924C69.5082 129.104 70.0782 129.274 70.7782 129.434C71.7582 129.694 72.5782 129.984 73.2382 130.304C73.8982 130.624 74.4182 130.994 74.7982 131.414C75.1782 131.774 75.4482 132.194 75.6082 132.674C75.7682 133.154 75.8482 133.694 75.8482 134.294C75.8482 135.234 75.5782 136.074 75.0382 136.814C74.5182 137.534 73.8082 138.104 72.9082 138.524C72.0082 138.944 70.9882 139.154 69.8482 139.154ZM81.5295 145.754L84.8595 138.014L84.8895 140.504L77.0895 123.044H81.3195L85.6995 133.454C85.8395 133.714 85.9795 134.064 86.1195 134.504C86.2595 134.924 86.3795 135.334 86.4795 135.734L85.7295 136.004C85.8695 135.624 86.0095 135.214 86.1495 134.774C86.3095 134.334 86.4695 133.894 86.6295 133.454L90.3495 123.044H94.6095L88.0395 138.854L85.3695 145.754H81.5295ZM101.899 139.154C100.519 139.154 99.269 138.924 98.149 138.464C97.049 137.984 96.149 137.304 95.449 136.424L97.819 134.384C98.419 135.044 99.089 135.534 99.829 135.854C100.569 136.154 101.349 136.304 102.169 136.304C102.509 136.304 102.809 136.264 103.069 136.184C103.349 136.104 103.589 135.984 103.789 135.824C103.989 135.664 104.139 135.474 104.239 135.254C104.359 135.034 104.419 134.794 104.419 134.534C104.419 134.054 104.239 133.674 103.879 133.394C103.679 133.274 103.369 133.134 102.949 132.974C102.529 132.794 101.979 132.624 101.299 132.464C100.219 132.184 99.309 131.864 98.569 131.504C97.849 131.124 97.289 130.704 96.889 130.244C96.549 129.844 96.299 129.414 96.139 128.954C95.979 128.474 95.899 127.944 95.899 127.364C95.899 126.464 96.159 125.664 96.679 124.964C97.219 124.264 97.929 123.714 98.809 123.314C99.689 122.914 100.669 122.714 101.749 122.714C102.549 122.714 103.319 122.814 104.059 123.014C104.819 123.214 105.519 123.504 106.159 123.884C106.799 124.244 107.349 124.684 107.809 125.204L105.769 127.454C105.409 127.094 104.999 126.774 104.539 126.494C104.099 126.194 103.649 125.964 103.189 125.804C102.729 125.644 102.299 125.564 101.899 125.564C101.519 125.564 101.179 125.604 100.879 125.684C100.579 125.744 100.329 125.844 100.129 125.984C99.929 126.124 99.769 126.304 99.649 126.524C99.549 126.724 99.499 126.954 99.499 127.214C99.519 127.474 99.579 127.714 99.679 127.934C99.799 128.134 99.959 128.304 100.159 128.444C100.359 128.584 100.679 128.744 101.119 128.924C101.559 129.104 102.129 129.274 102.829 129.434C103.809 129.694 104.629 129.984 105.289 130.304C105.949 130.624 106.469 130.994 106.849 131.414C107.229 131.774 107.499 132.194 107.659 132.674C107.819 133.154 107.899 133.694 107.899 134.294C107.899 135.234 107.629 136.074 107.089 136.814C106.569 137.534 105.859 138.104 104.959 138.524C104.059 138.944 103.039 139.154 101.899 139.154ZM112.89 138.854V119.024H116.55V138.854H112.89ZM109.77 126.464V123.044H120V126.464H109.77ZM130.074 139.154C128.414 139.154 126.944 138.814 125.664 138.134C124.404 137.434 123.414 136.484 122.694 135.284C121.994 134.064 121.644 132.664 121.644 131.084C121.644 129.844 121.844 128.714 122.244 127.694C122.644 126.674 123.204 125.794 123.924 125.054C124.644 124.294 125.494 123.714 126.474 123.314C127.474 122.894 128.554 122.684 129.714 122.684C130.774 122.684 131.744 122.884 132.624 123.284C133.524 123.684 134.304 124.234 134.964 124.934C135.624 125.614 136.124 126.434 136.464 127.394C136.824 128.334 136.994 129.364 136.974 130.484L136.944 131.804H124.164L123.444 129.254H133.854L133.404 129.764V129.074C133.344 128.474 133.144 127.944 132.804 127.484C132.464 127.004 132.024 126.634 131.484 126.374C130.964 126.094 130.384 125.954 129.744 125.954C128.764 125.954 127.934 126.144 127.254 126.524C126.574 126.884 126.054 127.424 125.694 128.144C125.354 128.864 125.184 129.754 125.184 130.814C125.184 131.834 125.394 132.724 125.814 133.484C126.254 134.244 126.874 134.834 127.674 135.254C128.474 135.674 129.404 135.884 130.464 135.884C131.204 135.884 131.884 135.764 132.504 135.524C133.144 135.284 133.824 134.854 134.544 134.234L136.344 136.754C135.804 137.254 135.184 137.684 134.484 138.044C133.804 138.384 133.084 138.654 132.324 138.854C131.564 139.054 130.814 139.154 130.074 139.154ZM140.182 138.854V123.044H143.782L143.842 126.254L143.242 126.494C143.422 125.974 143.692 125.494 144.052 125.054C144.412 124.594 144.842 124.194 145.342 123.854C145.842 123.514 146.372 123.254 146.932 123.074C147.492 122.874 148.072 122.774 148.672 122.774C149.532 122.774 150.292 122.914 150.952 123.194C151.612 123.474 152.162 123.904 152.602 124.484C153.062 125.064 153.412 125.804 153.652 126.704L153.082 126.584L153.292 126.104C153.532 125.624 153.852 125.184 154.252 124.784C154.652 124.384 155.102 124.034 155.602 123.734C156.102 123.414 156.622 123.174 157.162 123.014C157.722 122.854 158.262 122.774 158.782 122.774C159.982 122.774 160.982 123.014 161.782 123.494C162.582 123.974 163.182 124.704 163.582 125.684C163.982 126.664 164.182 127.874 164.182 129.314V138.854H160.492V129.554C160.492 128.354 160.252 127.464 159.772 126.884C159.312 126.304 158.592 126.014 157.612 126.014C157.092 126.014 156.612 126.104 156.172 126.284C155.732 126.444 155.342 126.684 155.002 127.004C154.682 127.304 154.432 127.664 154.252 128.084C154.072 128.484 153.982 128.934 153.982 129.434V138.854H150.292V129.524C150.292 128.384 150.042 127.514 149.542 126.914C149.062 126.314 148.372 126.014 147.472 126.014C146.952 126.014 146.472 126.104 146.032 126.284C145.612 126.444 145.232 126.684 144.892 127.004C144.572 127.304 144.322 127.654 144.142 128.054C143.962 128.454 143.872 128.894 143.872 129.374V138.854H140.182Z" fill="#0D0D0D"/>
</g>
<defs>
<filter id="filter0_d_1587_88220" x="211.444" y="163" width="118" height="44" filterUnits="userSpaceOnUse" color-interpolation-filters="sRGB">
<feFlood flood-opacity="0" result="BackgroundImageFix"/>
<feColorMatrix in="SourceAlpha" type="matrix" values="0 0 0 0 0 0 0 0 0 0 0 0 0 0 0 0 0 0 127 0" result="hardAlpha"/>
<feOffset dx="6" dy="6"/>
<feComposite in2="hardAlpha" operator="out"/>
<feColorMatrix type="matrix" values="0 0 0 0 1 0 0 0 0 1 0 0 0 0 1 0 0 0 1 0"/>
<feBlend mode="normal" in2="BackgroundImageFix" result="effect1_dropShadow_1587_88220"/>
<feBlend mode="normal" in="SourceGraphic" in2="effect1_dropShadow_1587_88220" result="shape"/>
</filter>
<filter id="filter1_d_1587_88220" x="211.444" y="55" width="225" height="44" filterUnits="userSpaceOnUse" color-interpolation-filters="sRGB">
<feFlood flood-opacity="0" result="BackgroundImageFix"/>
<feColorMatrix in="SourceAlpha" type="matrix" values="0 0 0 0 0 0 0 0 0 0 0 0 0 0 0 0 0 0 127 0" result="hardAlpha"/>
<feOffset dx="6" dy="6"/>
<feComposite in2="hardAlpha" operator="out"/>
<feColorMatrix type="matrix" values="0 0 0 0 1 0 0 0 0 1 0 0 0 0 1 0 0 0 1 0"/>
<feBlend mode="normal" in2="BackgroundImageFix" result="effect1_dropShadow_1587_88220"/>
<feBlend mode="normal" in="SourceGraphic" in2="effect1_dropShadow_1587_88220" result="shape"/>
</filter>
<filter id="filter2_d_1587_88220" x="211.444" y="0" width="195" height="44" filterUnits="userSpaceOnUse" color-interpolation-filters="sRGB">
<feFlood flood-opacity="0" result="BackgroundImageFix"/>
<feColorMatrix in="SourceAlpha" type="matrix" values="0 0 0 0 0 0 0 0 0 0 0 0 0 0 0 0 0 0 127 0" result="hardAlpha"/>
<feOffset dx="6" dy="6"/>
<feComposite in2="hardAlpha" operator="out"/>
<feColorMatrix type="matrix" values="0 0 0 0 1 0 0 0 0 1 0 0 0 0 1 0 0 0 1 0"/>
<feBlend mode="normal" in2="BackgroundImageFix" result="effect1_dropShadow_1587_88220"/>
<feBlend mode="normal" in="SourceGraphic" in2="effect1_dropShadow_1587_88220" result="shape"/>
</filter>
<filter id="filter3_d_1587_88220" x="211.444" y="109" width="144" height="44" filterUnits="userSpaceOnUse" color-interpolation-filters="sRGB">
<feFlood flood-opacity="0" result="BackgroundImageFix"/>
<feColorMatrix in="SourceAlpha" type="matrix" values="0 0 0 0 0 0 0 0 0 0 0 0 0 0 0 0 0 0 127 0" result="hardAlpha"/>
<feOffset dx="6" dy="6"/>
<feComposite in2="hardAlpha" operator="out"/>
<feColorMatrix type="matrix" values="0 0 0 0 1 0 0 0 0 1 0 0 0 0 1 0 0 0 1 0"/>
<feBlend mode="normal" in2="BackgroundImageFix" result="effect1_dropShadow_1587_88220"/>
<feBlend mode="normal" in="SourceGraphic" in2="effect1_dropShadow_1587_88220" result="shape"/>
</filter>
<filter id="filter4_d_1587_88220" x="211.444" y="217" width="146" height="44" filterUnits="userSpaceOnUse" color-interpolation-filters="sRGB">
<feFlood flood-opacity="0" result="BackgroundImageFix"/>
<feColorMatrix in="SourceAlpha" type="matrix" values="0 0 0 0 0 0 0 0 0 0 0 0 0 0 0 0 0 0 127 0" result="hardAlpha"/>
<feOffset dx="6" dy="6"/>
<feComposite in2="hardAlpha" operator="out"/>
<feColorMatrix type="matrix" values="0 0 0 0 1 0 0 0 0 1 0 0 0 0 1 0 0 0 1 0"/>
<feBlend mode="normal" in2="BackgroundImageFix" result="effect1_dropShadow_1587_88220"/>
<feBlend mode="normal" in="SourceGraphic" in2="effect1_dropShadow_1587_88220" result="shape"/>
</filter>
<filter id="filter5_d_1587_88220" x="211.444" y="272" width="180" height="44" filterUnits="userSpaceOnUse" color-interpolation-filters="sRGB">
<feFlood flood-opacity="0" result="BackgroundImageFix"/>
<feColorMatrix in="SourceAlpha" type="matrix" values="0 0 0 0 0 0 0 0 0 0 0 0 0 0 0 0 0 0 127 0" result="hardAlpha"/>
<feOffset dx="6" dy="6"/>
<feComposite in2="hardAlpha" operator="out"/>
<feColorMatrix type="matrix" values="0 0 0 0 1 0 0 0 0 1 0 0 0 0 1 0 0 0 1 0"/>
<feBlend mode="normal" in2="BackgroundImageFix" result="effect1_dropShadow_1587_88220"/>
<feBlend mode="normal" in="SourceGraphic" in2="effect1_dropShadow_1587_88220" result="shape"/>
</filter>
<filter id="filter6_d_1587_88220" x="0" y="0" width="192" height="44" filterUnits="userSpaceOnUse" color-interpolation-filters="sRGB">
<feFlood flood-opacity="0" result="BackgroundImageFix"/>
<feColorMatrix in="SourceAlpha" type="matrix" values="0 0 0 0 0 0 0 0 0 0 0 0 0 0 0 0 0 0 127 0" result="hardAlpha"/>
<feOffset dx="6" dy="6"/>
<feComposite in2="hardAlpha" operator="out"/>
<feColorMatrix type="matrix" values="0 0 0 0 1 0 0 0 0 1 0 0 0 0 1 0 0 0 1 0"/>
<feBlend mode="normal" in2="BackgroundImageFix" result="effect1_dropShadow_1587_88220"/>
<feBlend mode="normal" in="SourceGraphic" in2="effect1_dropShadow_1587_88220" result="shape"/>
</filter>
<filter id="filter7_d_1587_88220" x="0" y="163.138" width="129" height="44" filterUnits="userSpaceOnUse" color-interpolation-filters="sRGB">
<feFlood flood-opacity="0" result="BackgroundImageFix"/>
<feColorMatrix in="SourceAlpha" type="matrix" values="0 0 0 0 0 0 0 0 0 0 0 0 0 0 0 0 0 0 127 0" result="hardAlpha"/>
<feOffset dx="6" dy="6"/>
<feComposite in2="hardAlpha" operator="out"/>
<feColorMatrix type="matrix" values="0 0 0 0 1 0 0 0 0 1 0 0 0 0 1 0 0 0 1 0"/>
<feBlend mode="normal" in2="BackgroundImageFix" result="effect1_dropShadow_1587_88220"/>
<feBlend mode="normal" in="SourceGraphic" in2="effect1_dropShadow_1587_88220" result="shape"/>
</filter>
<filter id="filter8_d_1587_88220" x="0" y="54.5684" width="113" height="44" filterUnits="userSpaceOnUse" color-interpolation-filters="sRGB">
<feFlood flood-opacity="0" result="BackgroundImageFix"/>
<feColorMatrix in="SourceAlpha" type="matrix" values="0 0 0 0 0 0 0 0 0 0 0 0 0 0 0 0 0 0 127 0" result="hardAlpha"/>
<feOffset dx="6" dy="6"/>
<feComposite in2="hardAlpha" operator="out"/>
<feColorMatrix type="matrix" values="0 0 0 0 1 0 0 0 0 1 0 0 0 0 1 0 0 0 1 0"/>
<feBlend mode="normal" in2="BackgroundImageFix" result="effect1_dropShadow_1587_88220"/>
<feBlend mode="normal" in="SourceGraphic" in2="effect1_dropShadow_1587_88220" result="shape"/>
</filter>
<filter id="filter9_d_1587_88220" x="0" y="108.854" width="182" height="44" filterUnits="userSpaceOnUse" color-interpolation-filters="sRGB">
<feFlood flood-opacity="0" result="BackgroundImageFix"/>
<feColorMatrix in="SourceAlpha" type="matrix" values="0 0 0 0 0 0 0 0 0 0 0 0 0 0 0 0 0 0 127 0" result="hardAlpha"/>
<feOffset dx="6" dy="6"/>
<feComposite in2="hardAlpha" operator="out"/>
<feColorMatrix type="matrix" values="0 0 0 0 1 0 0 0 0 1 0 0 0 0 1 0 0 0 1 0"/>
<feBlend mode="normal" in2="BackgroundImageFix" result="effect1_dropShadow_1587_88220"/>
<feBlend mode="normal" in="SourceGraphic" in2="effect1_dropShadow_1587_88220" result="shape"/>
</filter>
</defs>
</svg>
