<?xml version="1.0" standalone="no"?>
<!DOCTYPE svg PUBLIC "-//W3C//DTD SVG 1.1//EN" "http://www.w3.org/Graphics/SVG/1.1/DTD/svg11.dtd" >
<svg xmlns="http://www.w3.org/2000/svg" xmlns:xlink="http://www.w3.org/1999/xlink" version="1.1">
<metadata>
Created by FontForge 20201107 at Sun Jul 24 17:31:40 2016
 By Unknown
Copyright \(c\) 2015 Swiss Typefaces. All rights reserved.
</metadata>
<defs>
<font id="SuisseIntlMono-Regular" horiz-adv-x="646" >
  <font-face 
    font-family="Suisse Int'l Mono"
    font-weight="400"
    font-stretch="normal"
    units-per-em="1000"
    panose-1="2 11 5 9 0 0 0 0 0 0"
    ascent="800"
    descent="-200"
    x-height="538"
    cap-height="725"
    bbox="-12 -221 696 921"
    underline-thickness="70"
    underline-position="-110"
    unicode-range="U+000D-FB02"
  />
<missing-glyph 
d="M73 0v725h500v-725h-500zM312 362l-220 334v-667zM333 362l221 -333v667zM323 346l-217 -327h433zM106 706l217 -328l216 328h-433z" />
    <glyph glyph-name=".notdef" 
d="M73 0v725h500v-725h-500zM312 362l-220 334v-667zM333 362l221 -333v667zM323 346l-217 -327h433zM106 706l217 -328l216 328h-433z" />
    <glyph glyph-name="NULL" 
 />
    <glyph glyph-name="uni000D" unicode="&#xd;" 
 />
    <glyph glyph-name="space" unicode=" " 
 />
    <glyph glyph-name="exclam" unicode="!" 
d="M351 212h-58l-18 294v219h96v-219zM380 0h-115v115h115v-115z" />
    <glyph glyph-name="quotedbl" unicode="&#x22;" 
d="M196 725h102l-20 -253h-62zM349 725h102l-20 -253h-62z" />
    <glyph glyph-name="numbersign" unicode="#" 
d="M70 527h141l27 198h74l-27 -198h124l27 198h74l-27 -198h135l-10 -71h-135l-23 -163h134l-9 -71h-135l-30 -222h-74l30 222h-124l-30 -222h-74l30 222h-141l10 71h141l23 163h-141zM275 456l-23 -163h124l23 163h-124z" />
    <glyph glyph-name="dollar" unicode="$" 
d="M299 822h55v-86c101 -11 196 -74 209 -201h-94c-8 83 -62 112 -115 123v-241l5 -1c95 -24 211 -68 211 -212c0 -133 -93 -208 -216 -216v-85h-55v86c-132 11 -226 105 -229 241h94c7 -97 55 -151 135 -163v268l-33 9c-85 21 -175 85 -175 197c0 128 104 188 208 196v85z
M477 195c0 72 -51 107 -123 126v-255c79 8 123 62 123 129zM185 548c0 -64 43 -99 102 -114l12 -3v229c-48 -5 -114 -29 -114 -112z" />
    <glyph glyph-name="percent" unicode="%" 
d="M171 378c-93 0 -139 73 -139 180c0 111 46 180 139 180c95 0 140 -69 140 -180c0 -107 -45 -180 -140 -180zM171 439c44 0 69 42 69 119c0 80 -25 119 -69 119c-45 0 -68 -40 -68 -119c0 -77 23 -119 68 -119zM113 0h-79l500 725h80zM472 -13c-95 0 -140 73 -140 181
c0 111 45 180 140 180c93 0 139 -69 139 -180c0 -108 -46 -181 -139 -181zM472 48c45 0 68 40 68 120c0 79 -23 118 -68 118c-46 0 -69 -39 -69 -118c0 -80 23 -120 69 -120z" />
    <glyph glyph-name="ampersand" unicode="&#x26;" 
d="M252 -13c-148 0 -222 107 -222 214c0 101 64 174 151 211c-31 47 -58 105 -58 164c0 99 84 162 176 162c82 0 175 -40 175 -156c0 -85 -61 -150 -154 -193l117 -146c11 43 15 92 14 148h85c3 -80 -10 -158 -37 -225l134 -166h-121l-63 78c-47 -56 -112 -91 -197 -91z
M258 67c57 0 103 26 138 77l-168 209c-63 -31 -101 -82 -101 -150c0 -83 60 -136 131 -136zM216 576c0 -35 12 -71 55 -127c65 29 116 73 116 129s-43 81 -86 81c-41 0 -85 -26 -85 -83z" />
    <glyph glyph-name="quotesingle" unicode="'" 
d="M272 725h102l-20 -253h-62z" />
    <glyph glyph-name="parenleft" unicode="(" 
d="M216 275c0 202 76 363 137 450h76c-67 -107 -120 -262 -120 -450c0 -189 53 -343 120 -450h-76c-61 87 -137 248 -137 450z" />
    <glyph glyph-name="parenright" unicode=")" 
d="M430 275c0 -203 -79 -361 -138 -450h-75c65 108 119 261 119 450s-54 342 -119 450h75c59 -89 138 -247 138 -450z" />
    <glyph glyph-name="asterisk" unicode="*" 
d="M352 725v-120l113 43l23 -56l-115 -39l69 -97l-46 -36l-74 101l-68 -101l-53 35l70 98l-113 39l20 56l113 -43v120h61z" />
    <glyph glyph-name="plus" unicode="+" 
d="M369 0h-92v226h-226v86h226v226h92v-226h226v-86h-226v-226z" />
    <glyph glyph-name="comma" unicode="," 
d="M265 0v115h115v-123l-61 -131h-58l53 139h-49z" />
    <glyph glyph-name="hyphen" unicode="-" 
d="M482 231h-318v86h318v-86z" />
    <glyph glyph-name="period" unicode="." 
d="M380 0h-115v115h115v-115z" />
    <glyph glyph-name="slash" unicode="/" 
d="M226 0h-91l285 725h91z" />
    <glyph glyph-name="zero" unicode="0" 
d="M322 -13c-183 0 -253 154 -253 379s70 372 253 372s254 -147 254 -372s-71 -379 -254 -379zM162 366c0 -13 0 -25 1 -37l313 143c-16 125 -67 188 -154 188c-111 0 -160 -94 -160 -294zM322 66c111 0 161 100 161 300c0 11 0 21 -1 32l-313 -145
c17 -125 68 -187 153 -187z" />
    <glyph glyph-name="one" unicode="1" 
d="M327 725h60v-646h152v-79h-429v79h185v488h-185v63c121 3 180 16 217 95z" />
    <glyph glyph-name="two" unicode="2" 
d="M334 738c127 0 222 -71 222 -195c0 -168 -162 -317 -347 -464h360v-79h-489v79c243 189 378 324 378 452c0 76 -42 129 -125 129c-75 0 -143 -46 -146 -165h-94c-3 139 94 243 241 243z" />
    <glyph glyph-name="three" unicode="3" 
d="M320 66c92 0 155 50 155 137c0 101 -87 139 -198 139h-14v81h11c121 0 183 39 183 123c0 73 -59 114 -134 114c-92 0 -142 -59 -149 -140h-94c11 128 104 218 246 218c116 0 229 -51 229 -183c0 -75 -40 -137 -113 -168c102 -35 131 -109 131 -183
c0 -144 -126 -217 -254 -217c-160 0 -241 111 -249 229h93c11 -88 60 -150 157 -150z" />
    <glyph glyph-name="four" unicode="4" 
d="M385 601l-246 -336h246v336zM598 265v-86h-121v-179h-92v179h-342v86l341 460h93v-460h121z" />
    <glyph glyph-name="five" unicode="5" 
d="M322 66c84 0 153 63 153 172c0 117 -79 166 -155 166c-69 0 -116 -41 -132 -76l-96 4l47 393h402v-78h-324l-26 -217c39 37 91 54 150 54c120 0 232 -88 232 -245c0 -165 -124 -252 -252 -252c-160 0 -241 111 -249 229h93c11 -88 60 -150 157 -150z" />
    <glyph glyph-name="six" unicode="6" 
d="M176 232c0 -100 58 -166 150 -166c88 0 151 67 151 166c0 97 -62 168 -150 168c-90 0 -151 -71 -151 -168zM340 660c-109 0 -171 -112 -174 -277c31 56 90 99 182 99c128 0 227 -102 227 -246c0 -133 -100 -249 -248 -249c-172 0 -256 127 -256 347c0 204 75 404 274 404
c133 0 205 -89 218 -179h-99c-11 64 -57 101 -124 101z" />
    <glyph glyph-name="seven" unicode="7" 
d="M82 647v78h509v-78c-186 -144 -305 -380 -313 -647h-105c16 259 134 506 306 647h-397z" />
    <glyph glyph-name="eight" unicode="8" 
d="M323 738c141 0 235 -79 235 -185c0 -59 -27 -127 -95 -166c91 -40 117 -116 117 -183c0 -136 -115 -217 -257 -217s-257 81 -257 217c0 67 26 143 117 183c-69 39 -96 107 -96 166c0 106 95 185 236 185zM323 346c-97 0 -160 -58 -160 -142s63 -138 160 -138
s159 54 159 138s-62 142 -159 142zM466 544c0 75 -56 115 -143 115s-143 -43 -143 -115s56 -127 143 -127c85 0 143 55 143 127z" />
    <glyph glyph-name="nine" unicode="9" 
d="M469 493c0 100 -57 167 -149 167c-90 0 -151 -69 -151 -167c0 -97 61 -167 149 -167c91 0 151 70 151 167zM307 66c109 0 168 112 173 277c-31 -56 -90 -99 -182 -99c-128 0 -227 101 -227 245c0 133 96 249 247 249c173 0 257 -126 257 -347c0 -203 -73 -404 -273 -404
c-134 0 -204 87 -220 179h100c11 -65 57 -100 125 -100z" />
    <glyph glyph-name="colon" unicode=":" 
d="M380 423h-115v115h115v-115zM380 0h-115v115h115v-115z" />
    <glyph glyph-name="semicolon" unicode=";" 
d="M380 423h-115v115h115v-115zM265 0v115h115v-123l-61 -131h-58l53 139h-49z" />
    <glyph glyph-name="less" unicode="&#x3c;" 
d="M56 307l514 227v-98l-400 -168l400 -165v-97l-514 223v78z" />
    <glyph glyph-name="equal" unicode="=" 
d="M574 327h-502v87h502v-87zM574 124h-502v86h502v-86z" />
    <glyph glyph-name="greater" unicode="&#x3e;" 
d="M590 307v-78l-514 -223v97l400 165l-400 168v98z" />
    <glyph glyph-name="question" unicode="?" 
d="M179 520h-93c0 130 107 218 247 218c113 0 226 -54 226 -176c0 -93 -64 -156 -136 -199c-61 -37 -84 -63 -84 -116v-35h-91v38c0 84 37 124 120 177c52 32 93 65 93 132c0 63 -54 99 -130 99c-112 0 -149 -77 -152 -138zM352 0h-115v115h115v-115z" />
    <glyph glyph-name="at" unicode="@" 
d="M472 156c-41 0 -73 33 -80 93c-23 -57 -63 -90 -119 -90c-63 0 -117 58 -117 183c0 115 61 235 161 235c44 0 77 -30 92 -77l6 60h56l-24 -220c-3 -36 -10 -122 35 -122c40 0 75 80 75 190c0 167 -90 271 -221 271c-147 0 -245 -152 -245 -325c0 -164 81 -302 214 -302
c49 0 109 10 153 39l24 -59c-55 -31 -124 -45 -177 -45c-165 0 -277 161 -277 369c0 214 134 382 310 382c153 0 279 -106 279 -326c0 -163 -73 -256 -145 -256zM318 511c-59 0 -95 -87 -95 -170c0 -71 24 -118 68 -118c61 0 96 90 96 177c0 63 -25 111 -69 111z" />
    <glyph glyph-name="A" unicode="A" 
d="M374 725l238 -725h-102l-49 155h-277l-48 -155h-102l238 725h102zM323 598l-111 -354h221z" />
    <glyph glyph-name="B" unicode="B" 
d="M100 0v725h214c121 0 238 -35 238 -179c0 -69 -25 -130 -72 -159c63 -29 99 -83 99 -172c0 -154 -112 -215 -243 -215h-236zM195 332v-242h149c91 0 137 41 137 124c0 85 -45 118 -144 118h-142zM195 635v-218h139c76 0 123 30 123 115c0 75 -50 103 -123 103h-139z" />
    <glyph glyph-name="C" unicode="C" 
d="M483 225h95c-25 -157 -119 -238 -252 -238c-176 0 -260 157 -260 377c0 225 94 375 267 375c125 0 219 -97 243 -244h-97c-13 83 -57 155 -149 155c-105 0 -166 -98 -166 -286c0 -179 56 -289 168 -289c92 0 138 62 151 150z" />
    <glyph glyph-name="D" unicode="D" 
d="M493 363c0 248 -143 272 -278 272h-26v-545h26c135 0 278 27 278 273zM94 725h124c206 0 372 -85 372 -362c0 -276 -166 -363 -372 -363h-124v725z" />
    <glyph glyph-name="E" unicode="E" 
d="M112 0v725h432v-90h-337v-216h317v-90h-317v-239h337v-90h-432z" />
    <glyph glyph-name="F" unicode="F" 
d="M130 0v725h446v-90h-351v-216h332v-90h-332v-329h-95z" />
    <glyph glyph-name="G" unicode="G" 
d="M325 650c-117 0 -175 -98 -175 -286c0 -179 55 -289 175 -289c88 0 169 39 169 188v23h-167v90h254v-376h-72l-4 91c-43 -75 -96 -104 -184 -104c-188 0 -269 157 -269 377c0 224 94 374 278 374c137 0 226 -88 249 -237h-98c-14 84 -52 149 -156 149z" />
    <glyph glyph-name="H" unicode="H" 
d="M463 726h95v-726h-95v329h-280v-329h-95v726h95v-307h280v307z" />
    <glyph glyph-name="I" unicode="I" 
d="M92 635v90h461v-90h-183v-545h183v-90h-461v90h183v545h-183z" />
    <glyph glyph-name="J" unicode="J" 
d="M146 725h374v-495c0 -160 -67 -243 -211 -243c-130 0 -216 89 -216 237h95c0 -101 37 -150 121 -150c69 0 116 26 116 157v404h-279v90z" />
    <glyph glyph-name="K" unicode="K" 
d="M203 725v-347l259 347h112l-219 -283l247 -442h-109l-200 362l-90 -116v-246h-95v725h95z" />
    <glyph glyph-name="L" unicode="L" 
d="M220 725v-635h356v-90h-451v725h95z" />
    <glyph glyph-name="M" unicode="M" 
d="M371 250h-96l-106 382v-632h-95v725h149l100 -371l100 371h149v-725h-95v632z" />
    <glyph glyph-name="N" unicode="N" 
d="M557 0h-142l-232 619v-619h-95v725h142l232 -617v617h95v-725z" />
    <glyph glyph-name="O" unicode="O" 
d="M323 738c181 0 271 -156 271 -375s-90 -376 -271 -376s-271 157 -271 376s90 375 271 375zM323 650c-121 0 -173 -102 -173 -287s52 -288 173 -288s173 104 173 288s-52 287 -173 287z" />
    <glyph glyph-name="P" unicode="P" 
d="M121 725h178c159 0 281 -43 281 -223s-122 -223 -281 -223h-83v-279h-95v725zM311 635h-95v-266h95c97 0 171 15 171 133s-74 133 -171 133z" />
    <glyph glyph-name="Q" unicode="Q" 
d="M322 739c181 0 271 -157 271 -376c0 -112 -23 -203 -68 -271l70 -78l-55 -62l-72 80c-40 -29 -87 -45 -146 -45c-181 0 -271 157 -271 376s90 376 271 376zM322 650c-121 0 -173 -102 -173 -287s52 -288 173 -288c33 0 62 8 85 24l-68 76l56 63l65 -74
c23 47 35 114 35 199c0 184 -52 287 -173 287z" />
    <glyph glyph-name="R" unicode="R" 
d="M481 0l-142 306c-17 -1 -34 -1 -53 -1h-82v-305h-95v725h177c158 0 280 -34 280 -207c0 -113 -51 -169 -131 -194l154 -324h-108zM297 635h-93v-240h93c96 0 171 9 171 121s-75 119 -171 119z" />
    <glyph glyph-name="S" unicode="S" 
d="M344 323l-79 19c-96 21 -183 81 -183 197c0 125 108 199 238 199c112 0 225 -60 241 -204h-94c-11 87 -86 116 -152 116s-135 -33 -135 -108c0 -64 46 -95 105 -108l72 -16c116 -26 219 -76 219 -215c0 -136 -105 -216 -245 -216c-148 0 -254 95 -262 239h94
c11 -97 78 -151 171 -151c72 0 146 37 146 121c0 76 -56 108 -136 127z" />
    <glyph glyph-name="T" unicode="T" 
d="M275 0v635h-218v90h531v-90h-218v-635h-95z" />
    <glyph glyph-name="U" unicode="U" 
d="M79 725h95v-441c0 -142 25 -209 148 -209c124 0 150 76 150 220v430h95v-422c0 -212 -56 -316 -245 -316c-181 0 -243 82 -243 308v430z" />
    <glyph glyph-name="V" unicode="V" 
d="M272 0l-228 725h102l176 -598l177 598h102l-228 -725h-101z" />
    <glyph glyph-name="W" unicode="W" 
d="M374 504l80 -366l54 587h95l-73 -725h-123l-84 378l-84 -378h-124l-72 725h95l53 -587l80 366h103z" />
    <glyph glyph-name="X" unicode="X" 
d="M33 0l237 382l-210 343h110l155 -254l158 254h104l-210 -339l236 -386h-109l-182 297l-184 -297h-105z" />
    <glyph glyph-name="Y" unicode="Y" 
d="M323 370l186 355h111l-250 -453v-272h-95v272l-250 453h111z" />
    <glyph glyph-name="Z" unicode="Z" 
d="M557 725v-90l-372 -545h376v-90h-485v90l373 545h-343v90h451z" />
    <glyph glyph-name="bracketleft" unicode="[" 
d="M211 725h224v-77h-136v-746h136v-77h-224v900z" />
    <glyph glyph-name="backslash" unicode="\" 
d="M226 725l285 -725h-91l-285 725h91z" />
    <glyph glyph-name="bracketright" unicode="]" 
d="M211 725h224v-900h-224v77h136v746h-136v77z" />
    <glyph glyph-name="asciicircum" unicode="^" 
d="M359 725l206 -387h-98l-147 273l-143 -273h-96l201 387h77z" />
    <glyph glyph-name="underscore" unicode="_" 
d="M519 -86h-393v86h393v-86z" />
    <glyph glyph-name="grave" unicode="`" 
d="M349 609l-130 116h116l91 -116h-77z" />
    <glyph glyph-name="a" unicode="a" 
d="M269 -13c-97 0 -175 57 -175 153c0 128 136 167 356 191v23c0 92 -51 121 -121 121c-84 0 -121 -40 -128 -107h-94c8 116 111 181 223 181c151 0 214 -64 211 -215l-1 -131c-1 -91 4 -167 7 -203h-88l-1 79c-33 -56 -89 -92 -189 -92zM457 243v15
c-164 -16 -264 -39 -264 -116c0 -51 37 -81 102 -81c82 0 162 39 162 182z" />
    <glyph glyph-name="b" unicode="b" 
d="M202 725v-268c31 52 79 90 160 90c123 0 216 -104 216 -280c0 -179 -93 -280 -216 -280c-81 0 -129 38 -160 89l-1 -76h-91v725h92zM198 267c0 -141 67 -204 144 -204c93 0 139 73 139 204s-46 203 -139 203c-77 0 -144 -62 -144 -203z" />
    <glyph glyph-name="c" unicode="c" 
d="M333 547c125 0 208 -92 216 -188h-93c-12 67 -60 112 -127 112c-80 0 -146 -69 -146 -204c0 -136 66 -205 146 -205c75 0 118 52 131 111h95c-16 -107 -111 -186 -231 -186c-149 0 -238 116 -238 280c0 159 93 280 247 280z" />
    <glyph glyph-name="d" unicode="d" 
d="M444 457v268h92v-725h-91l-1 76c-31 -51 -78 -89 -159 -89c-124 0 -217 101 -217 280c0 176 93 280 217 280c81 0 128 -38 159 -90zM448 267c0 141 -67 203 -144 203c-92 0 -139 -72 -139 -203s47 -204 139 -204c77 0 144 63 144 204z" />
    <glyph glyph-name="e" unicode="e" 
d="M326 -13c-164 0 -244 121 -244 280c0 173 102 281 244 281c157 0 248 -115 240 -307h-387c0 -109 60 -179 145 -179c80 0 120 38 139 99h95c-21 -101 -107 -174 -232 -174zM326 472c-88 0 -142 -51 -146 -155h288c0 88 -47 155 -142 155z" />
    <glyph glyph-name="f" unicode="f" 
d="M220 538v39c0 112 27 148 143 148h190v-78h-188c-45 0 -53 -14 -53 -70v-39h241v-79h-241v-459h-92v459h-143v79h143z" />
    <glyph glyph-name="g" unicode="g" 
d="M446 457v81h92v-471c0 -110 -14 -155 -43 -189c-39 -45 -112 -71 -188 -71c-119 0 -200 55 -216 162h97c13 -49 40 -82 120 -82c47 0 87 13 110 40c17 20 28 46 28 119v52c-31 -52 -78 -89 -159 -89c-124 0 -217 90 -217 269c0 177 93 269 217 269c81 0 128 -38 159 -90z
M450 278c0 142 -67 192 -144 192c-93 0 -139 -64 -139 -192c0 -129 46 -193 139 -193c77 0 144 53 144 193z" />
    <glyph glyph-name="h" unicode="h" 
d="M365 547c130 0 168 -86 168 -205v-342h-92v310c0 88 -6 160 -106 160c-84 0 -129 -61 -129 -178v-292h-92v725h92v-263c28 47 75 85 159 85z" />
    <glyph glyph-name="i" unicode="i" 
d="M286 725h92v-109h-92v109zM134 538h244v-459h153v-79h-397v79h152v380h-152v79z" />
    <glyph glyph-name="j" unicode="j" 
d="M183 538h227v-565c0 -112 -29 -148 -128 -148h-144v79h125c44 0 55 11 55 67v488h-135v79zM318 725h92v-109h-92v109z" />
    <glyph glyph-name="k" unicode="k" 
d="M121 725h92v-432l238 245h118l-211 -209l232 -329h-105l-189 268l-83 -82v-186h-92v725z" />
    <glyph glyph-name="l" unicode="l" 
d="M128 725h244v-646h153v-79h-397v79h152v568h-152v78z" />
    <glyph glyph-name="m" unicode="m" 
d="M350 479c23 43 58 68 107 68c56 0 111 -27 111 -168v-379h-92v332c0 78 0 138 -46 138c-47 0 -60 -52 -60 -165v-305h-92v332c0 78 0 138 -45 138c-47 0 -61 -52 -61 -167v-303h-92v538h88v-57c19 35 47 66 98 66c49 0 72 -32 84 -68z" />
    <glyph glyph-name="n" unicode="n" 
d="M206 538v-76c27 45 73 85 158 85c131 0 169 -86 169 -205v-342h-92v310c0 87 -7 159 -107 159c-84 0 -128 -60 -128 -177v-292h-92v538h92z" />
    <glyph glyph-name="o" unicode="o" 
d="M171 267c0 -143 69 -203 152 -203s152 60 152 203s-69 203 -152 203s-152 -60 -152 -203zM74 267c0 195 126 280 249 280s249 -85 249 -280s-126 -280 -249 -280s-249 85 -249 280z" />
    <glyph glyph-name="p" unicode="p" 
d="M202 538v-81c31 52 79 90 159 90c124 0 217 -104 217 -280c0 -179 -93 -280 -217 -280c-80 0 -128 38 -159 89v-251h-92v713h92zM198 267c0 -141 67 -204 144 -204c92 0 139 73 139 204s-47 203 -139 203c-77 0 -144 -62 -144 -203z" />
    <glyph glyph-name="q" unicode="q" 
d="M445 457v81h92v-713h-92v251c-31 -51 -79 -89 -160 -89c-123 0 -216 104 -216 280s93 280 216 280c81 0 129 -38 160 -90zM449 267c0 141 -68 203 -144 203c-93 0 -139 -72 -139 -203s46 -203 139 -203c76 0 144 61 144 203z" />
    <glyph glyph-name="r" unicode="r" 
d="M86 538h243v-96c27 60 77 96 144 96h92v-84h-91c-103 0 -143 -67 -143 -186v-189h184v-79h-428v79h152v380h-153v79z" />
    <glyph glyph-name="s" unicode="s" 
d="M530 391h-96c-12 60 -59 80 -120 80c-53 0 -108 -21 -108 -69c0 -43 28 -61 81 -72l60 -12c93 -19 193 -53 193 -161c0 -115 -98 -170 -215 -170c-141 0 -209 88 -220 174h97c12 -63 49 -98 125 -98c56 0 120 20 120 83c0 51 -45 75 -113 87l-67 13
c-84 16 -152 60 -152 152c0 104 112 149 203 149c116 0 192 -60 212 -156z" />
    <glyph glyph-name="t" unicode="t" 
d="M197 538v135h92v-135h220v-79h-220v-311c0 -55 3 -69 54 -69h166v-79h-186c-98 0 -126 23 -126 135v324h-153v79h153z" />
    <glyph glyph-name="u" unicode="u" 
d="M439 0v69c-29 -47 -73 -82 -158 -82c-130 0 -167 86 -167 205v346h92v-314c0 -87 5 -158 105 -158c85 0 128 59 128 176v296h92v-538h-92z" />
    <glyph glyph-name="v" unicode="v" 
d="M188 538l139 -412l138 412h96l-194 -538h-88l-194 538h103z" />
    <glyph glyph-name="w" unicode="w" 
d="M279 430h86l80 -290l55 398h93l-90 -538h-93l-88 325l-88 -325h-93l-90 538h94l54 -398z" />
    <glyph glyph-name="x" unicode="x" 
d="M551 538l-177 -261l188 -277h-104l-135 200l-135 -200h-104l187 276l-176 262h103l125 -185l126 185h102z" />
    <glyph glyph-name="y" unicode="y" 
d="M183 -175h-106v79h97c56 0 73 8 102 84l4 12l-201 538h101l146 -415l143 415h95l-199 -561c-37 -106 -68 -152 -182 -152z" />
    <glyph glyph-name="z" unicode="z" 
d="M104 0v79l327 380h-308v79h420v-79l-327 -380h332v-79h-444z" />
    <glyph glyph-name="braceleft" unicode="{" 
d="M458 -175h-48c-121 0 -145 36 -145 148v162c0 64 -9 103 -76 103v74c67 0 76 42 76 103v162c0 112 24 148 145 148h48v-77h-46c-47 0 -56 -14 -56 -70v-165c0 -92 -31 -124 -84 -137v-2c53 -13 84 -45 84 -137v-165c0 -56 9 -70 56 -70h46v-77z" />
    <glyph glyph-name="bar" unicode="|" 
d="M282 725h82v-815h-82v815z" />
    <glyph glyph-name="braceright" unicode="}" 
d="M188 -175v77h45c47 0 56 14 56 70v165c0 92 31 124 84 137v2c-53 13 -84 45 -84 137v165c0 56 -9 70 -56 70h-45v77h47c121 0 145 -36 145 -148v-162c0 -61 10 -103 77 -103v-74c-67 0 -77 -39 -77 -103v-162c0 -112 -24 -148 -145 -148h-47z" />
    <glyph glyph-name="asciitilde" unicode="~" 
d="M436 286c36 0 65 25 69 69h85c-7 -88 -63 -148 -154 -148c-82 0 -159 68 -226 68c-37 0 -66 -24 -69 -68h-85c5 88 62 148 154 148c95 0 165 -69 226 -69z" />
    <glyph glyph-name="uni00A0" unicode="&#xa0;" 
 />
    <glyph glyph-name="exclamdown" unicode="&#xa1;" 
d="M294 327h57l20 -294v-208h-96v208zM380 423h-115v115h115v-115z" />
    <glyph glyph-name="cent" unicode="&#xa2;" 
d="M300 628h46v-81c117 -5 195 -95 203 -188h-93c-11 60 -53 104 -110 111v-407c64 8 103 54 114 110h95c-13 -101 -101 -177 -209 -185v-85h-46v85c-135 11 -214 125 -214 279c0 148 80 262 214 278v83zM183 267c0 -121 50 -187 117 -202v403c-67 -15 -117 -81 -117 -201z
" />
    <glyph glyph-name="sterling" unicode="&#xa3;" 
d="M338 659c-62 0 -139 -27 -139 -111c0 -52 26 -99 53 -148h194v-65h-165c9 -24 15 -47 15 -74c0 -77 -53 -133 -106 -165l1 -2c23 8 41 13 68 13c56 0 107 -39 178 -39c43 0 84 12 120 27l27 -79c-28 -16 -86 -33 -139 -33c-77 0 -129 40 -209 40c-43 0 -99 -13 -146 -40
l-30 73c43 19 140 83 140 190c0 32 -8 61 -19 89h-120v65h89c-24 47 -48 93 -48 152c0 132 125 186 240 186c154 0 245 -97 242 -237h-94c-3 119 -70 158 -152 158z" />
    <glyph glyph-name="currency" unicode="&#xa4;" 
d="M83 346c0 52 16 100 44 139l-69 70l49 49l68 -68c40 31 89 49 144 49c56 0 107 -19 147 -51l71 70l49 -49l-72 -71c28 -39 44 -87 44 -138s-16 -98 -44 -137l72 -71l-49 -49l-71 70c-41 -31 -91 -49 -147 -49c-55 0 -103 17 -143 48l-69 -69l-49 49l69 70
c-28 39 -44 86 -44 138zM166 346c0 -91 64 -161 152 -161c93 0 160 70 160 161c0 93 -67 165 -160 165c-88 0 -152 -72 -152 -165z" />
    <glyph glyph-name="yen" unicode="&#xa5;" 
d="M323 370l186 355h111l-227 -410h141v-64h-164v-76h164v-64h-164v-111h-95v111h-167v64h167v76h-167v64h143l-226 410h111z" />
    <glyph glyph-name="brokenbar" unicode="&#xa6;" 
d="M282 725h82v-305h-82v305zM282 215h82v-305h-82v305z" />
    <glyph glyph-name="section" unicode="&#xa7;" 
d="M320 -109c64 0 108 30 108 78c0 42 -18 71 -96 114l-130 69c-79 43 -133 96 -133 175c0 67 54 116 119 140c-39 28 -70 67 -70 127c0 96 99 144 195 144c121 0 195 -60 210 -167h-94c-11 63 -61 91 -120 91c-60 0 -98 -27 -98 -63s20 -57 81 -90l137 -72
c88 -45 147 -90 147 -173c0 -72 -48 -127 -117 -160c39 -32 62 -70 62 -121c0 -108 -94 -169 -203 -169c-127 0 -207 73 -218 185h94c11 -68 46 -108 126 -108zM382 363l-119 62c-51 -13 -104 -43 -104 -92c0 -40 22 -69 79 -100l137 -74l20 -11c45 21 90 53 90 101
c0 45 -31 75 -103 114z" />
    <glyph glyph-name="dieresis" unicode="&#xa8;" 
d="M163 609v99h91v-99h-91zM392 708h91v-99h-91v99z" />
    <glyph glyph-name="copyright" unicode="&#xa9;" 
d="M44 457c0 166 124 281 279 281c153 0 279 -115 279 -281c0 -165 -126 -278 -279 -278c-155 0 -279 113 -279 278zM93 457c0 -139 99 -233 230 -233c132 0 228 94 228 233s-96 236 -228 236c-131 0 -230 -97 -230 -236zM322 355c35 0 66 14 78 57l57 -15
c-19 -48 -60 -90 -135 -90c-92 0 -143 59 -143 158c0 97 56 155 145 155c72 0 114 -41 129 -96l-55 -15c-11 43 -40 63 -76 63c-47 0 -81 -34 -81 -107s34 -110 81 -110z" />
    <glyph glyph-name="ordfeminine" unicode="&#xaa;" 
d="M264 637l-69 2c5 59 50 99 133 99c88 0 128 -35 127 -115c-1 -27 -2 -69 -2 -90c0 -36 2 -68 6 -103h-67l-3 34c-19 -28 -48 -42 -95 -42c-69 0 -109 46 -109 98c0 27 10 49 30 65c27 19 64 27 112 32l55 6v11c0 39 -22 51 -57 51c-39 0 -59 -16 -61 -48zM384 553v19
l-55 -7c-49 -5 -70 -18 -70 -45c0 -24 20 -42 51 -42c39 0 74 23 74 75z" />
    <glyph glyph-name="guillemotleft" unicode="&#xab;" 
d="M232 44l-159 229l159 228h98l-150 -228l150 -229h-98zM453 44l-159 229l159 228h98l-150 -228l150 -229h-98z" />
    <glyph glyph-name="logicalnot" unicode="&#xac;" 
d="M477 344h-430v86h522v-332h-92v246z" />
    <glyph glyph-name="uni00AD" unicode="&#xad;" 
d="M482 231h-318v86h318v-86z" />
    <glyph glyph-name="registered" unicode="&#xae;" 
d="M44 457c0 166 124 281 279 281c153 0 279 -115 279 -281c0 -165 -126 -278 -279 -278c-155 0 -279 113 -279 278zM93 457c0 -139 99 -233 230 -233c132 0 228 94 228 233s-96 236 -228 236c-131 0 -230 -97 -230 -236zM391 317l-61 115h-14h-44v-115h-63v302h93
c91 0 143 -15 143 -94c0 -33 -17 -63 -54 -80l69 -128h-69zM382 524c0 37 -29 45 -69 45h-41v-89h44c47 0 66 15 66 44z" />
    <glyph glyph-name="overscore" unicode="&#xaf;" 
d="M473 623h-300v76h300v-76z" />
    <glyph glyph-name="degree" unicode="&#xb0;" 
d="M176 591c0 82 65 147 146 147c82 0 147 -65 147 -147c0 -81 -65 -146 -147 -146c-81 0 -146 65 -146 146zM249 591c0 -43 30 -79 73 -79c44 0 75 36 75 79c0 44 -31 80 -75 80c-43 0 -73 -36 -73 -80z" />
    <glyph glyph-name="plusminus" unicode="&#xb1;" 
d="M277 379v159h92v-159h215v-86h-215v-158h-92v158h-215v86h215zM584 0h-522v86h522v-86z" />
    <glyph glyph-name="twosuperior" unicode="&#xb2;" horiz-adv-x="647" 
d="M329 853c76 0 135 -39 135 -108c0 -81 -73 -157 -202 -244h211v-63h-299v59c133 105 214 176 214 243c0 39 -25 59 -62 59s-72 -24 -71 -85h-73c-1 84 56 139 147 139z" />
    <glyph glyph-name="threesuperior" unicode="&#xb3;" 
d="M323 486c45 0 79 24 79 67c0 51 -36 68 -95 68h-24v59h20c60 0 90 20 90 61c0 40 -33 58 -68 58c-48 0 -74 -29 -81 -77h-70c7 80 63 131 156 131c67 0 137 -32 137 -109c0 -40 -24 -73 -57 -90c44 -19 67 -58 67 -99c0 -84 -72 -124 -155 -124c-93 0 -148 62 -153 136
h70c7 -43 32 -81 84 -81z" />
    <glyph glyph-name="acute" unicode="&#xb4;" 
d="M426 725l-131 -116h-76l90 116h117z" />
    <glyph glyph-name="mu" unicode="&#xb5;" 
d="M191 -175h-90c8 40 11 70 11 147v566h91v-316c0 -116 37 -155 116 -155c84 0 133 59 133 172v299h91v-538h-91v74c-29 -49 -76 -87 -129 -87c-61 0 -97 28 -120 60v-66c0 -86 -4 -117 -12 -156z" />
    <glyph glyph-name="mu" unicode="&#x3bc;" 
d="M191 -175h-90c8 40 11 70 11 147v566h91v-316c0 -116 37 -155 116 -155c84 0 133 59 133 172v299h91v-538h-91v74c-29 -49 -76 -87 -129 -87c-61 0 -97 28 -120 60v-66c0 -86 -4 -117 -12 -156z" />
    <glyph glyph-name="paragraph" unicode="&#xb6;" 
d="M99 537c0 119 77 188 241 188h207v-815h-75v746h-122v-746h-75v451c-88 8 -176 64 -176 176z" />
    <glyph glyph-name="middot" unicode="&#xb7;" 
d="M380 212h-115v115h115v-115z" />
    <glyph glyph-name="cedilla" unicode="&#xb8;" 
d="M222 -176l16 40c17 -8 39 -14 58 -14c29 0 61 8 61 32c0 20 -20 30 -44 30c-11 0 -27 -2 -38 -9l-30 17l51 83h53l-32 -51c10 2 20 3 30 3c48 0 76 -27 76 -68c0 -52 -56 -82 -108 -82c-27 0 -60 3 -93 19z" />
    <glyph glyph-name="onesuperior" unicode="&#xb9;" horiz-adv-x="647" 
d="M489 438h-257v55h99v253h-89v50c59 1 88 6 108 50h55v-353h84v-55z" />
    <glyph glyph-name="ordmasculine" unicode="&#xba;" 
d="M248 580c0 -64 29 -100 74 -100s75 36 75 100c0 67 -30 100 -75 100s-74 -33 -74 -100zM174 580c0 108 70 158 148 158c77 0 149 -50 149 -158c0 -107 -72 -157 -149 -157c-78 0 -148 50 -148 157z" />
    <glyph glyph-name="guillemotright" unicode="&#xbb;" 
d="M353 273l-159 -229h-98l151 229l-151 228h98zM574 273l-159 -229h-98l151 229l-151 228h98z" />
    <glyph glyph-name="onequarter" unicode="&#xbc;" 
d="M84 317v314h-74v41c70 0 76 3 86 53h50v-408h-62zM166 0l242 725h49l-243 -725h-48zM515 0v103h-159v45l157 260h60v-255h49v-50h-49v-103h-58zM404 153h111v175z" />
    <glyph glyph-name="onehalf" unicode="&#xbd;" 
d="M84 317v314h-74v41c70 0 76 3 86 53h50v-408h-62zM134 0l242 725h49l-243 -725h-48zM387 0v47l45 57c72 91 123 153 123 209c0 39 -18 59 -53 59s-52 -27 -52 -81v-4h-61v4c0 80 38 124 117 124c69 0 112 -31 112 -99c0 -65 -50 -131 -121 -220l-37 -48h159v-48h-232z
" />
    <glyph glyph-name="threequarters" unicode="&#xbe;" 
d="M547 0v103h-159v45l157 260h60v-255h49v-50h-49v-103h-58zM436 153h111v175zM217 0l242 725h49l-243 -725h-48zM136 309c-71 0 -114 37 -114 114v2h59v-2c0 -43 15 -71 56 -71c51 0 64 34 64 77c0 47 -18 77 -78 77h-22v44h21c47 0 66 24 66 71c0 43 -15 68 -54 68
c-37 0 -50 -21 -50 -68v-2h-59v2c0 77 44 111 112 111c65 0 114 -25 114 -105c0 -53 -27 -83 -62 -94c47 -12 76 -46 76 -103c0 -85 -46 -121 -129 -121z" />
    <glyph glyph-name="questiondown" unicode="&#xbf;" 
d="M466 31h93c0 -131 -107 -217 -247 -217c-113 0 -226 52 -226 175c0 96 64 152 136 197c61 37 84 51 84 107v33h91v-36c0 -84 -37 -115 -120 -168c-52 -32 -93 -66 -93 -130c0 -63 54 -98 130 -98c112 0 149 77 152 137zM408 423h-115v115h115v-115z" />
    <glyph glyph-name="Agrave" unicode="&#xc0;" 
d="M374 725l238 -725h-102l-49 155h-277l-48 -155h-102l238 725h102zM323 598l-111 -354h221zM286 761l-148 113h129l109 -113h-90z" />
    <glyph glyph-name="Aacute" unicode="&#xc1;" 
d="M374 725l238 -725h-102l-49 155h-277l-48 -155h-102l238 725h102zM323 598l-111 -354h221zM510 874l-148 -113h-90l109 113h129z" />
    <glyph glyph-name="Acircumflex" unicode="&#xc2;" 
d="M374 725l238 -725h-102l-49 155h-277l-48 -155h-102l238 725h102zM323 598l-111 -354h221zM366 874l132 -113h-106l-69 56l-69 -56h-106l134 113h84z" />
    <glyph glyph-name="Atilde" unicode="&#xc3;" 
d="M374 725l238 -725h-102l-49 155h-277l-48 -155h-102l238 725h102zM323 598l-111 -354h221zM389 828c27 0 43 15 47 45h71c-13 -83 -63 -113 -116 -113c-61 0 -94 47 -136 47c-27 0 -42 -15 -45 -44h-71c12 79 58 112 115 112c61 0 90 -47 135 -47z" />
    <glyph glyph-name="Adieresis" unicode="&#xc4;" 
d="M374 725l238 -725h-102l-49 155h-277l-48 -155h-102l238 725h102zM323 598l-111 -354h221zM163 868h91v-99h-91v99zM392 868h91v-99h-91v99z" />
    <glyph glyph-name="Aring" unicode="&#xc5;" 
d="M374 725l238 -725h-102l-49 155h-277l-48 -155h-102l238 725h102zM323 598l-111 -354h221zM323 921c51 0 91 -34 91 -85c0 -49 -40 -85 -91 -85s-91 36 -91 85c0 51 42 85 91 85zM323 879c-23 0 -44 -18 -44 -43c0 -24 21 -42 44 -42s43 18 43 42c0 25 -20 43 -43 43z
" />
    <glyph glyph-name="AE" unicode="&#xc6;" 
d="M300 725h302v-90h-207v-216h187v-90h-187v-239h207v-90h-302v155h-131l-57 -155h-102zM300 505l-98 -261h98v261z" />
    <glyph glyph-name="Ccedilla" unicode="&#xc7;" 
d="M483 225h95c-25 -157 -119 -238 -252 -238c-176 0 -260 157 -260 377c0 225 94 375 267 375c125 0 219 -97 243 -244h-97c-13 83 -57 155 -149 155c-105 0 -166 -98 -166 -286c0 -179 56 -289 168 -289c92 0 138 62 151 150zM227 -176l16 40c17 -8 39 -14 58 -14
c29 0 61 8 61 32c0 20 -20 30 -44 30c-11 0 -27 -2 -38 -9l-30 17l51 83h53l-32 -51c10 2 20 3 30 3c48 0 76 -27 76 -68c0 -52 -56 -82 -108 -82c-27 0 -60 3 -93 19z" />
    <glyph glyph-name="Egrave" unicode="&#xc8;" 
d="M112 0v725h432v-90h-337v-216h317v-90h-317v-239h337v-90h-432zM323 761l-148 113h129l109 -113h-90z" />
    <glyph glyph-name="Eacute" unicode="&#xc9;" 
d="M112 0v725h432v-90h-337v-216h317v-90h-317v-239h337v-90h-432zM506 874l-148 -113h-90l109 113h129z" />
    <glyph glyph-name="Ecircumflex" unicode="&#xca;" 
d="M112 0v725h432v-90h-337v-216h317v-90h-317v-239h337v-90h-432zM374 874l132 -113h-106l-69 56l-69 -56h-106l134 113h84z" />
    <glyph glyph-name="Edieresis" unicode="&#xcb;" 
d="M112 0v725h432v-90h-337v-216h317v-90h-317v-239h337v-90h-432zM174 868h91v-99h-91v99zM403 868h91v-99h-91v99z" />
    <glyph glyph-name="Igrave" unicode="&#xcc;" 
d="M92 635v90h461v-90h-183v-545h183v-90h-461v90h183v545h-183zM281 761l-148 113h129l109 -113h-90z" />
    <glyph glyph-name="Iacute" unicode="&#xcd;" 
d="M92 635v90h461v-90h-183v-545h183v-90h-461v90h183v545h-183zM514 874l-148 -113h-90l109 113h129z" />
    <glyph glyph-name="Icircumflex" unicode="&#xce;" 
d="M92 635v90h461v-90h-183v-545h183v-90h-461v90h183v545h-183zM366 874l132 -113h-106l-69 56l-69 -56h-106l134 113h84z" />
    <glyph glyph-name="Idieresis" unicode="&#xcf;" 
d="M92 635v90h461v-90h-183v-545h183v-90h-461v90h183v545h-183zM163 868h91v-99h-91v99zM392 868h91v-99h-91v99z" />
    <glyph glyph-name="Eth" unicode="&#xd0;" 
d="M105 725h124c206 0 372 -85 372 -362c0 -276 -166 -363 -372 -363h-124v323h-62v90h62v312zM504 363c0 248 -143 272 -278 272h-26v-222h168v-90h-168v-233h26c135 0 278 27 278 273z" />
    <glyph glyph-name="Ntilde" unicode="&#xd1;" 
d="M557 0h-142l-232 619v-619h-95v725h142l232 -617v617h95v-725zM387 828c27 0 43 15 47 45h71c-13 -83 -63 -113 -116 -113c-61 0 -94 47 -136 47c-27 0 -42 -15 -45 -44h-71c12 79 58 112 115 112c61 0 90 -47 135 -47z" />
    <glyph glyph-name="Ograve" unicode="&#xd2;" 
d="M323 738c181 0 271 -156 271 -375s-90 -376 -271 -376s-271 157 -271 376s90 375 271 375zM323 650c-121 0 -173 -102 -173 -287s52 -288 173 -288s173 104 173 288s-52 287 -173 287zM304 761l-148 113h129l109 -113h-90z" />
    <glyph glyph-name="Oacute" unicode="&#xd3;" 
d="M323 738c181 0 271 -156 271 -375s-90 -376 -271 -376s-271 157 -271 376s90 375 271 375zM323 650c-121 0 -173 -102 -173 -287s52 -288 173 -288s173 104 173 288s-52 287 -173 287zM505 874l-148 -113h-90l109 113h129z" />
    <glyph glyph-name="Ocircumflex" unicode="&#xd4;" 
d="M323 738c181 0 271 -156 271 -375s-90 -376 -271 -376s-271 157 -271 376s90 375 271 375zM323 650c-121 0 -173 -102 -173 -287s52 -288 173 -288s173 104 173 288s-52 287 -173 287zM366 874l132 -113h-106l-69 56l-69 -56h-106l134 113h84z" />
    <glyph glyph-name="Otilde" unicode="&#xd5;" 
d="M323 738c181 0 271 -156 271 -375s-90 -376 -271 -376s-271 157 -271 376s90 375 271 375zM323 650c-121 0 -173 -102 -173 -287s52 -288 173 -288s173 104 173 288s-52 287 -173 287zM389 828c27 0 43 15 47 45h71c-13 -83 -63 -113 -116 -113c-61 0 -94 47 -136 47
c-27 0 -42 -15 -45 -44h-71c12 79 58 112 115 112c61 0 90 -47 135 -47z" />
    <glyph glyph-name="Odieresis" unicode="&#xd6;" 
d="M323 738c181 0 271 -156 271 -375s-90 -376 -271 -376s-271 157 -271 376s90 375 271 375zM323 650c-121 0 -173 -102 -173 -287s52 -288 173 -288s173 104 173 288s-52 287 -173 287zM163 868h91v-99h-91v99zM392 868h91v-99h-91v99z" />
    <glyph glyph-name="multiply" unicode="&#xd7;" 
d="M558 95l-65 -65l-173 173l-168 -167l-64 64l167 168l-167 168l64 64l168 -166l168 166l64 -64l-168 -168z" />
    <glyph glyph-name="Oslash" unicode="&#xd8;" 
d="M323 738c75 0 133 -26 177 -73l50 73l44 -31l-60 -87c40 -67 60 -154 60 -257c0 -219 -90 -376 -271 -376c-72 0 -130 25 -173 69l-47 -69l-44 30l56 83c-43 67 -63 156 -63 263c0 219 90 375 271 375zM323 650c-121 0 -173 -102 -173 -287c0 -72 8 -131 25 -176l272 399
c-29 43 -70 64 -124 64zM496 363c0 68 -7 124 -22 168l-271 -398c29 -39 69 -58 120 -58c121 0 173 104 173 288z" />
    <glyph glyph-name="Ugrave" unicode="&#xd9;" 
d="M79 725h95v-441c0 -142 25 -209 148 -209c124 0 150 76 150 220v430h95v-422c0 -212 -56 -316 -245 -316c-181 0 -243 82 -243 308v430zM291 761l-148 113h129l109 -113h-90z" />
    <glyph glyph-name="Uacute" unicode="&#xda;" 
d="M79 725h95v-441c0 -142 25 -209 148 -209c124 0 150 76 150 220v430h95v-422c0 -212 -56 -316 -245 -316c-181 0 -243 82 -243 308v430zM497 874l-148 -113h-90l109 113h129z" />
    <glyph glyph-name="Ucircumflex" unicode="&#xdb;" 
d="M79 725h95v-441c0 -142 25 -209 148 -209c124 0 150 76 150 220v430h95v-422c0 -212 -56 -316 -245 -316c-181 0 -243 82 -243 308v430zM366 874l132 -113h-106l-69 56l-69 -56h-106l134 113h84z" />
    <glyph glyph-name="Udieresis" unicode="&#xdc;" 
d="M79 725h95v-441c0 -142 25 -209 148 -209c124 0 150 76 150 220v430h95v-422c0 -212 -56 -316 -245 -316c-181 0 -243 82 -243 308v430zM163 868h91v-99h-91v99zM392 868h91v-99h-91v99z" />
    <glyph glyph-name="Yacute" unicode="&#xdd;" 
d="M323 370l186 355h111l-250 -453v-272h-95v272l-250 453h111zM509 874l-148 -113h-90l109 113h129z" />
    <glyph glyph-name="Thorn" unicode="&#xde;" 
d="M122 725h94v-124h83c159 0 281 -47 281 -227s-122 -227 -281 -227h-83v-147h-94v725zM311 511h-95v-273h95c97 0 171 18 171 136c0 117 -74 137 -171 137z" />
    <glyph glyph-name="germandbls" unicode="&#xdf;" 
d="M171 0h-91v493c0 163 78 245 235 245c127 0 207 -65 207 -172c0 -72 -33 -125 -108 -157c85 -21 150 -84 150 -196c0 -167 -115 -226 -248 -226c-35 0 -76 4 -109 11l19 87c27 -9 63 -13 94 -13c84 0 147 32 147 140c0 106 -84 149 -204 149h-3v82h2
c108 0 168 38 168 110c0 64 -40 106 -117 106c-104 0 -142 -52 -142 -171v-488z" />
    <glyph glyph-name="agrave" unicode="&#xe0;" 
d="M269 -13c-97 0 -175 57 -175 153c0 128 136 167 356 191v23c0 92 -51 121 -121 121c-84 0 -121 -40 -128 -107h-94c8 116 111 181 223 181c151 0 214 -64 211 -215l-1 -131c-1 -91 4 -167 7 -203h-88l-1 79c-33 -56 -89 -92 -189 -92zM457 243v15
c-164 -16 -264 -39 -264 -116c0 -51 37 -81 102 -81c82 0 162 39 162 182zM304 609l-130 116h116l91 -116h-77z" />
    <glyph glyph-name="aacute" unicode="&#xe1;" 
d="M269 -13c-97 0 -175 57 -175 153c0 128 136 167 356 191v23c0 92 -51 121 -121 121c-84 0 -121 -40 -128 -107h-94c8 116 111 181 223 181c151 0 214 -64 211 -215l-1 -131c-1 -91 4 -167 7 -203h-88l-1 79c-33 -56 -89 -92 -189 -92zM457 243v15
c-164 -16 -264 -39 -264 -116c0 -51 37 -81 102 -81c82 0 162 39 162 182zM488 725l-131 -116h-76l90 116h117z" />
    <glyph glyph-name="acircumflex" unicode="&#xe2;" 
d="M269 -13c-97 0 -175 57 -175 153c0 128 136 167 356 191v23c0 92 -51 121 -121 121c-84 0 -121 -40 -128 -107h-94c8 116 111 181 223 181c151 0 214 -64 211 -215l-1 -131c-1 -91 4 -167 7 -203h-88l-1 79c-33 -56 -89 -92 -189 -92zM457 243v15
c-164 -16 -264 -39 -264 -116c0 -51 37 -81 102 -81c82 0 162 39 162 182zM371 725l129 -116h-96l-78 54l-80 -54h-95l132 116h88z" />
    <glyph glyph-name="atilde" unicode="&#xe3;" 
d="M269 -13c-97 0 -175 57 -175 153c0 128 136 167 356 191v23c0 92 -51 121 -121 121c-84 0 -121 -40 -128 -107h-94c8 116 111 181 223 181c151 0 214 -64 211 -215l-1 -131c-1 -91 4 -167 7 -203h-88l-1 79c-33 -56 -89 -92 -189 -92zM457 243v15
c-164 -16 -264 -39 -264 -116c0 -51 37 -81 102 -81c82 0 162 39 162 182zM392 673c28 0 44 15 48 45h71c-13 -83 -64 -113 -117 -113c-61 0 -92 47 -135 47c-27 0 -42 -15 -45 -44h-71c12 77 58 112 115 112c62 0 88 -47 134 -47z" />
    <glyph glyph-name="adieresis" unicode="&#xe4;" 
d="M269 -13c-97 0 -175 57 -175 153c0 128 136 167 356 191v23c0 92 -51 121 -121 121c-84 0 -121 -40 -128 -107h-94c8 116 111 181 223 181c151 0 214 -64 211 -215l-1 -131c-1 -91 4 -167 7 -203h-88l-1 79c-33 -56 -89 -92 -189 -92zM457 243v15
c-164 -16 -264 -39 -264 -116c0 -51 37 -81 102 -81c82 0 162 39 162 182zM166 609v99h91v-99h-91zM395 708h91v-99h-91v99z" />
    <glyph glyph-name="aring" unicode="&#xe5;" 
d="M269 -13c-97 0 -175 57 -175 153c0 128 136 167 356 191v23c0 92 -51 121 -121 121c-84 0 -121 -40 -128 -107h-94c8 116 111 181 223 181c151 0 214 -64 211 -215l-1 -131c-1 -91 4 -167 7 -203h-88l-1 79c-33 -56 -89 -92 -189 -92zM457 243v15
c-164 -16 -264 -39 -264 -116c0 -51 37 -81 102 -81c82 0 162 39 162 182zM326 760c51 0 91 -36 91 -85c0 -51 -40 -85 -91 -85s-90 34 -90 85c0 49 41 85 90 85zM326 718c-23 0 -43 -19 -43 -43c0 -25 20 -42 43 -42s43 17 43 42c0 24 -20 43 -43 43z" />
    <glyph glyph-name="ae" unicode="&#xe6;" 
d="M445 -13c-72 0 -120 36 -149 96c-31 -68 -78 -96 -146 -96c-89 0 -132 79 -132 156c0 140 125 167 186 178l53 8v35c0 85 -21 109 -69 109c-53 0 -70 -36 -74 -95h-85c5 107 80 169 165 169c63 0 105 -23 126 -70c31 44 74 69 125 69c122 0 186 -123 178 -311h-273
c0 -103 33 -176 93 -176c52 0 76 25 87 97h86c-15 -104 -76 -169 -171 -169zM350 310h185c0 88 -24 160 -90 160c-60 0 -92 -60 -95 -160zM262 228v21v9l-59 -8c-69 -11 -98 -47 -98 -100c0 -48 19 -90 64 -90c50 0 93 48 93 168z" />
    <glyph glyph-name="ccedilla" unicode="&#xe7;" 
d="M333 547c125 0 208 -92 216 -188h-93c-12 67 -60 112 -127 112c-80 0 -146 -69 -146 -204c0 -136 66 -205 146 -205c75 0 118 52 131 111h95c-16 -107 -111 -186 -231 -186c-149 0 -238 116 -238 280c0 159 93 280 247 280zM237 -176l16 40c17 -8 39 -14 58 -14
c29 0 61 8 61 32c0 20 -20 30 -44 30c-11 0 -27 -2 -38 -9l-30 17l51 83h53l-32 -51c10 2 20 3 30 3c48 0 76 -27 76 -68c0 -52 -56 -82 -108 -82c-27 0 -60 3 -93 19z" />
    <glyph glyph-name="egrave" unicode="&#xe8;" 
d="M326 -13c-164 0 -244 121 -244 280c0 173 102 281 244 281c157 0 248 -115 240 -307h-387c0 -109 60 -179 145 -179c80 0 120 38 139 99h95c-21 -101 -107 -174 -232 -174zM326 472c-88 0 -142 -51 -146 -155h288c0 88 -47 155 -142 155zM295 609l-130 116h116l91 -116
h-77z" />
    <glyph glyph-name="eacute" unicode="&#xe9;" 
d="M326 -13c-164 0 -244 121 -244 280c0 173 102 281 244 281c157 0 248 -115 240 -307h-387c0 -109 60 -179 145 -179c80 0 120 38 139 99h95c-21 -101 -107 -174 -232 -174zM326 472c-88 0 -142 -51 -146 -155h288c0 88 -47 155 -142 155zM488 725l-131 -116h-76l90 116
h117z" />
    <glyph glyph-name="ecircumflex" unicode="&#xea;" 
d="M326 -13c-164 0 -244 121 -244 280c0 173 102 281 244 281c157 0 248 -115 240 -307h-387c0 -109 60 -179 145 -179c80 0 120 38 139 99h95c-21 -101 -107 -174 -232 -174zM326 472c-88 0 -142 -51 -146 -155h288c0 88 -47 155 -142 155zM368 725l129 -116h-96l-78 54
l-80 -54h-95l132 116h88z" />
    <glyph glyph-name="edieresis" unicode="&#xeb;" 
d="M326 -13c-164 0 -244 121 -244 280c0 173 102 281 244 281c157 0 248 -115 240 -307h-387c0 -109 60 -179 145 -179c80 0 120 38 139 99h95c-21 -101 -107 -174 -232 -174zM326 472c-88 0 -142 -51 -146 -155h288c0 88 -47 155 -142 155zM166 609v99h91v-99h-91zM395 708
h91v-99h-91v99z" />
    <glyph glyph-name="igrave" unicode="&#xec;" 
d="M134 538h244v-459h153v-79h-397v79h152v380h-152v79zM303 609l-130 116h116l91 -116h-77z" />
    <glyph glyph-name="iacute" unicode="&#xed;" 
d="M134 538h244v-459h153v-79h-397v79h152v380h-152v79zM492 725l-131 -116h-76l90 116h117z" />
    <glyph glyph-name="icircumflex" unicode="&#xee;" 
d="M134 538h244v-459h153v-79h-397v79h152v380h-152v79zM376 725l129 -116h-96l-78 54l-80 -54h-95l132 116h88z" />
    <glyph glyph-name="idieresis" unicode="&#xef;" 
d="M134 538h244v-459h153v-79h-397v79h152v380h-152v79zM171 609v99h91v-99h-91zM400 708h91v-99h-91v99z" />
    <glyph glyph-name="eth" unicode="&#xf0;" 
d="M361 687l69 43l46 -25l-75 -46c96 -77 169 -184 169 -348c0 -220 -103 -324 -252 -324c-153 0 -242 100 -242 276c0 170 96 273 230 273c68 0 119 -30 154 -78l1 1c-29 68 -76 115 -135 154l-76 -47l-45 24l79 49c-27 15 -53 27 -80 40l66 59c31 -15 62 -32 91 -51z
M319 67c86 0 152 60 152 196s-68 194 -152 194c-96 0 -146 -71 -146 -194c0 -125 49 -196 146 -196z" />
    <glyph glyph-name="ntilde" unicode="&#xf1;" 
d="M206 538v-76c27 45 73 85 158 85c131 0 169 -86 169 -205v-342h-92v310c0 87 -7 159 -107 159c-84 0 -128 -60 -128 -177v-292h-92v538h92zM390 673c28 0 44 15 48 45h71c-13 -83 -64 -113 -117 -113c-61 0 -92 47 -135 47c-27 0 -42 -15 -45 -44h-71
c12 77 58 112 115 112c62 0 88 -47 134 -47z" />
    <glyph glyph-name="ograve" unicode="&#xf2;" 
d="M171 267c0 -143 69 -203 152 -203s152 60 152 203s-69 203 -152 203s-152 -60 -152 -203zM74 267c0 195 126 280 249 280s249 -85 249 -280s-126 -280 -249 -280s-249 85 -249 280zM296 609l-130 116h116l91 -116h-77z" />
    <glyph glyph-name="oacute" unicode="&#xf3;" 
d="M171 267c0 -143 69 -203 152 -203s152 60 152 203s-69 203 -152 203s-152 -60 -152 -203zM74 267c0 195 126 280 249 280s249 -85 249 -280s-126 -280 -249 -280s-249 85 -249 280zM486 725l-131 -116h-76l90 116h117z" />
    <glyph glyph-name="ocircumflex" unicode="&#xf4;" 
d="M171 267c0 -143 69 -203 152 -203s152 60 152 203s-69 203 -152 203s-152 -60 -152 -203zM74 267c0 195 126 280 249 280s249 -85 249 -280s-126 -280 -249 -280s-249 85 -249 280zM368 725l129 -116h-96l-78 54l-80 -54h-95l132 116h88z" />
    <glyph glyph-name="otilde" unicode="&#xf5;" 
d="M171 267c0 -143 69 -203 152 -203s152 60 152 203s-69 203 -152 203s-152 -60 -152 -203zM74 267c0 195 126 280 249 280s249 -85 249 -280s-126 -280 -249 -280s-249 85 -249 280zM388 673c28 0 44 15 48 45h71c-13 -83 -64 -113 -117 -113c-61 0 -92 47 -135 47
c-27 0 -42 -15 -45 -44h-71c12 77 58 112 115 112c62 0 88 -47 134 -47z" />
    <glyph glyph-name="odieresis" unicode="&#xf6;" 
d="M171 267c0 -143 69 -203 152 -203s152 60 152 203s-69 203 -152 203s-152 -60 -152 -203zM74 267c0 195 126 280 249 280s249 -85 249 -280s-126 -280 -249 -280s-249 85 -249 280zM163 609v99h91v-99h-91zM392 708h91v-99h-91v99z" />
    <glyph glyph-name="divide" unicode="&#xf7;" 
d="M267 43v115h115v-115h-115zM267 380v115h115v-115h-115zM584 226h-522v86h522v-86z" />
    <glyph glyph-name="oslash" unicode="&#xf8;" 
d="M74 267c0 195 126 280 249 280c57 0 116 -19 161 -59l43 49l40 -35l-46 -53c31 -45 51 -105 51 -182c0 -195 -126 -280 -249 -280c-56 0 -112 17 -157 54l-47 -54l-40 36l50 57c-35 45 -55 107 -55 187zM171 267c0 -46 7 -84 20 -115l237 272c-27 31 -65 46 -105 46
c-83 0 -152 -60 -152 -203zM475 267c0 44 -7 79 -18 108l-235 -270c27 -27 60 -41 101 -41c83 0 152 60 152 203z" />
    <glyph glyph-name="ugrave" unicode="&#xf9;" 
d="M439 0v69c-29 -47 -73 -82 -158 -82c-130 0 -167 86 -167 205v346h92v-314c0 -87 5 -158 105 -158c85 0 128 59 128 176v296h92v-538h-92zM298 609l-130 116h116l91 -116h-77z" />
    <glyph glyph-name="uacute" unicode="&#xfa;" 
d="M439 0v69c-29 -47 -73 -82 -158 -82c-130 0 -167 86 -167 205v346h92v-314c0 -87 5 -158 105 -158c85 0 128 59 128 176v296h92v-538h-92zM482 725l-131 -116h-76l90 116h117z" />
    <glyph glyph-name="ucircumflex" unicode="&#xfb;" 
d="M439 0v69c-29 -47 -73 -82 -158 -82c-130 0 -167 86 -167 205v346h92v-314c0 -87 5 -158 105 -158c85 0 128 59 128 176v296h92v-538h-92zM368 725l129 -116h-96l-78 54l-80 -54h-95l132 116h88z" />
    <glyph glyph-name="udieresis" unicode="&#xfc;" 
d="M439 0v69c-29 -47 -73 -82 -158 -82c-130 0 -167 86 -167 205v346h92v-314c0 -87 5 -158 105 -158c85 0 128 59 128 176v296h92v-538h-92zM163 609v99h91v-99h-91zM392 708h91v-99h-91v99z" />
    <glyph glyph-name="yacute" unicode="&#xfd;" 
d="M183 -175h-106v79h97c56 0 73 8 102 84l4 12l-201 538h101l146 -415l143 415h95l-199 -561c-37 -106 -68 -152 -182 -152zM487 725l-131 -116h-76l90 116h117z" />
    <glyph glyph-name="thorn" unicode="&#xfe;" 
d="M201 725v-268c31 52 79 90 159 90c124 0 218 -104 218 -280c0 -179 -94 -280 -218 -280c-80 0 -128 38 -159 89v-251h-91v900h91zM197 267c0 -141 67 -204 144 -204c92 0 139 73 139 204s-47 203 -139 203c-77 0 -144 -62 -144 -203z" />
    <glyph glyph-name="ydieresis" unicode="&#xff;" 
d="M183 -175h-106v79h97c56 0 73 8 102 84l4 12l-201 538h101l146 -415l143 415h95l-199 -561c-37 -106 -68 -152 -182 -152zM163 609v99h91v-99h-91zM392 708h91v-99h-91v99z" />
    <glyph glyph-name="Abreve" unicode="&#x102;" 
d="M374 725l238 -725h-102l-49 155h-277l-48 -155h-102l238 725h102zM323 598l-111 -354h221zM403 874h78c-9 -69 -56 -118 -159 -118c-100 0 -149 49 -157 118h77c5 -39 32 -58 81 -58c47 0 74 19 80 58z" />
    <glyph glyph-name="Amacron" unicode="&#x100;" 
d="M374 725l238 -725h-102l-49 155h-277l-48 -155h-102l238 725h102zM323 598l-111 -354h221zM473 779h-300v76h300v-76z" />
    <glyph glyph-name="Aogonek" unicode="&#x104;" 
d="M374 725l238 -725h-1c-51 -25 -88 -51 -88 -82s31 -40 66 -40c19 0 36 3 49 9v-61c-17 -7 -41 -12 -69 -12c-59 0 -132 24 -132 91c0 40 21 68 72 95h1l-49 155h-277l-48 -155h-102l238 725h102zM323 598l-111 -354h221z" />
    <glyph glyph-name="Cacute" unicode="&#x106;" 
d="M483 225h95c-25 -157 -119 -238 -252 -238c-176 0 -260 157 -260 377c0 225 94 375 267 375c125 0 219 -97 243 -244h-97c-13 83 -57 155 -149 155c-105 0 -166 -98 -166 -286c0 -179 56 -289 168 -289c92 0 138 62 151 150zM505 874l-148 -113h-90l109 113h129z" />
    <glyph glyph-name="Ccaron" unicode="&#x10c;" 
d="M483 225h95c-25 -157 -119 -238 -252 -238c-176 0 -260 157 -260 377c0 225 94 375 267 375c125 0 219 -97 243 -244h-97c-13 83 -57 155 -149 155c-105 0 -166 -98 -166 -286c0 -179 56 -289 168 -289c92 0 138 62 151 150zM280 761l-132 113h106l69 -56l69 56h106
l-134 -113h-84z" />
    <glyph glyph-name="Ccircumflex" unicode="&#x108;" 
d="M483 225h95c-25 -157 -119 -238 -252 -238c-176 0 -260 157 -260 377c0 225 94 375 267 375c125 0 219 -97 243 -244h-97c-13 83 -57 155 -149 155c-105 0 -166 -98 -166 -286c0 -179 56 -289 168 -289c92 0 138 62 151 150zM366 874l132 -113h-106l-69 56l-69 -56h-106
l134 113h84z" />
    <glyph glyph-name="Cdotaccent" unicode="&#x10a;" 
d="M483 225h95c-25 -157 -119 -238 -252 -238c-176 0 -260 157 -260 377c0 225 94 375 267 375c125 0 219 -97 243 -244h-97c-13 83 -57 155 -149 155c-105 0 -166 -98 -166 -286c0 -179 56 -289 168 -289c92 0 138 62 151 150zM277 869h91v-99h-91v99z" />
    <glyph glyph-name="Dcaron" unicode="&#x10e;" 
d="M493 363c0 248 -143 272 -278 272h-26v-545h26c135 0 278 27 278 273zM94 725h124c206 0 372 -85 372 -362c0 -276 -166 -363 -372 -363h-124v725zM278 761l-132 113h106l69 -56l69 56h106l-134 -113h-84z" />
    <glyph glyph-name="Dcroat" unicode="&#x110;" 
d="M105 725h124c206 0 372 -85 372 -362c0 -276 -166 -363 -372 -363h-124v323h-62v90h62v312zM504 363c0 248 -143 272 -278 272h-26v-222h168v-90h-168v-233h26c135 0 278 27 278 273z" />
    <glyph glyph-name="Ebreve" unicode="&#x114;" 
d="M112 0v725h432v-90h-337v-216h317v-90h-317v-239h337v-90h-432zM406 874h78c-9 -69 -56 -118 -159 -118c-100 0 -149 49 -157 118h77c5 -39 32 -58 81 -58c47 0 74 19 80 58z" />
    <glyph glyph-name="Ecaron" unicode="&#x11a;" 
d="M112 0v725h432v-90h-337v-216h317v-90h-317v-239h337v-90h-432zM293 761l-132 113h106l69 -56l69 56h106l-134 -113h-84z" />
    <glyph glyph-name="Emacron" unicode="&#x112;" 
d="M112 0v725h432v-90h-337v-216h317v-90h-317v-239h337v-90h-432zM485 779h-300v76h300v-76z" />
    <glyph glyph-name="Eogonek" unicode="&#x118;" 
d="M453 0h91c-51 -25 -88 -51 -88 -82s32 -40 65 -40c20 0 37 3 50 9v-61c-17 -7 -41 -12 -69 -12c-59 0 -129 24 -129 91c0 40 25 68 80 95zM112 0v725h432v-90h-337v-216h317v-90h-317v-239h337v-90h-432z" />
    <glyph glyph-name="Edotaccent" unicode="&#x116;" 
d="M112 0v725h432v-90h-337v-216h317v-90h-317v-239h337v-90h-432zM299 869h91v-99h-91v99z" />
    <glyph glyph-name="Gbreve" unicode="&#x11e;" 
d="M325 650c-117 0 -175 -98 -175 -286c0 -179 55 -289 175 -289c88 0 169 39 169 188v23h-167v90h254v-376h-72l-4 91c-43 -75 -96 -104 -184 -104c-188 0 -269 157 -269 377c0 224 94 374 278 374c137 0 226 -88 249 -237h-98c-14 84 -52 149 -156 149zM409 874h78
c-9 -69 -56 -118 -159 -118c-100 0 -149 49 -157 118h77c5 -39 32 -58 81 -58c47 0 74 19 80 58z" />
    <glyph glyph-name="Gcircumflex" unicode="&#x11c;" 
d="M325 650c-117 0 -175 -98 -175 -286c0 -179 55 -289 175 -289c88 0 169 39 169 188v23h-167v90h254v-376h-72l-4 91c-43 -75 -96 -104 -184 -104c-188 0 -269 157 -269 377c0 224 94 374 278 374c137 0 226 -88 249 -237h-98c-14 84 -52 149 -156 149zM372 874l132 -113
h-106l-69 56l-69 -56h-106l134 113h84z" />
    <glyph glyph-name="uni0122" unicode="&#x122;" 
d="M325 650c-117 0 -175 -98 -175 -286c0 -179 55 -289 175 -289c88 0 169 39 169 188v23h-167v90h254v-376h-72l-4 91c-43 -75 -96 -104 -184 -104c-188 0 -269 157 -269 377c0 224 94 374 278 374c137 0 226 -88 249 -237h-98c-14 84 -52 149 -156 149zM291 -125v89h95
v-95l-44 -90h-54l39 96h-36z" />
    <glyph glyph-name="Gdotaccent" unicode="&#x120;" 
d="M325 650c-117 0 -175 -98 -175 -286c0 -179 55 -289 175 -289c88 0 169 39 169 188v23h-167v90h254v-376h-72l-4 91c-43 -75 -96 -104 -184 -104c-188 0 -269 157 -269 377c0 224 94 374 278 374c137 0 226 -88 249 -237h-98c-14 84 -52 149 -156 149zM292 869h91v-99
h-91v99z" />
    <glyph glyph-name="Hbar" unicode="&#x126;" 
d="M462 726h95v-109h54v-76h-54v-541h-95v329h-280v-329h-95v541h-52v76h52v109h95v-109h280v109zM182 419h280v122h-280v-122z" />
    <glyph glyph-name="Hcircumflex" unicode="&#x124;" 
d="M463 726h95v-726h-95v329h-280v-329h-95v726h95v-307h280v307zM366 874l132 -113h-106l-69 56l-69 -56h-106l134 113h84z" />
    <glyph glyph-name="Ibreve" unicode="&#x12c;" 
d="M92 635v90h461v-90h-183v-545h183v-90h-461v90h183v545h-183zM403 874h78c-9 -69 -56 -118 -159 -118c-100 0 -149 49 -157 118h77c5 -39 32 -58 81 -58c47 0 74 19 80 58z" />
    <glyph glyph-name="Idot" unicode="&#x130;" 
d="M92 635v90h461v-90h-183v-545h183v-90h-461v90h183v545h-183zM277 869h91v-99h-91v99z" />
    <glyph glyph-name="Imacron" unicode="&#x12a;" 
d="M92 635v90h461v-90h-183v-545h183v-90h-461v90h183v545h-183zM473 779h-300v76h300v-76z" />
    <glyph glyph-name="Iogonek" unicode="&#x12e;" 
d="M92 635v90h461v-90h-183v-545h183v-90h-461v90h183v545h-183zM280 0h91c-51 -25 -88 -51 -88 -82s32 -40 65 -40c20 0 37 3 50 9v-61c-17 -7 -41 -12 -69 -12c-59 0 -129 24 -129 91c0 40 25 68 80 95z" />
    <glyph glyph-name="Itilde" unicode="&#x128;" 
d="M92 635v90h461v-90h-183v-545h183v-90h-461v90h183v545h-183zM389 828c27 0 43 15 47 45h71c-13 -83 -63 -113 -116 -113c-61 0 -94 47 -136 47c-27 0 -42 -15 -45 -44h-71c12 79 58 112 115 112c61 0 90 -47 135 -47z" />
    <glyph glyph-name="uni1ECA" unicode="&#x1eca;" 
d="M92 635v90h461v-90h-183v-545h183v-90h-461v90h183v545h-183zM277 -75h91v-99h-91v99z" />
    <glyph glyph-name="Jcircumflex" unicode="&#x134;" 
d="M146 725h374v-495c0 -160 -67 -243 -211 -243c-130 0 -216 89 -216 237h95c0 -101 37 -150 121 -150c69 0 116 26 116 157v404h-279v90zM377 874l132 -113h-106l-69 56l-69 -56h-106l134 113h84z" />
    <glyph glyph-name="uni0136" unicode="&#x136;" 
d="M203 725v-347l259 347h112l-219 -283l247 -442h-109l-200 362l-90 -116v-246h-95v725h95zM295 -125v89h95v-95l-44 -90h-54l39 96h-36z" />
    <glyph glyph-name="Lacute" unicode="&#x139;" 
d="M220 725v-635h356v-90h-451v725h95zM364 874l-148 -113h-90l109 113h129z" />
    <glyph glyph-name="Lcaron" unicode="&#x13d;" 
d="M220 725v-635h356v-90h-451v725h95zM477 725l-70 -170h-58l30 170h98z" />
    <glyph glyph-name="uni013B" unicode="&#x13b;" 
d="M220 725v-635h356v-90h-451v725h95zM318 -125v89h95v-95l-44 -90h-54l39 96h-36z" />
    <glyph glyph-name="Ldot" unicode="&#x13f;" 
d="M376 438h91v-99h-91v99zM220 725v-635h356v-90h-451v725h95z" />
    <glyph glyph-name="Lslash" unicode="&#x141;" 
d="M264 725v-285l148 102v-91l-148 -102v-259h356v-90h-451v284l-134 -91v91l134 91v350h95z" />
    <glyph glyph-name="Eng" unicode="&#x14a;" 
d="M462 0l-279 619v-619h-95v725h142l232 -527v527h95v-763c0 -112 -31 -148 -130 -148h-144v76h125c45 0 54 14 54 70v40z" />
    <glyph glyph-name="Nacute" unicode="&#x143;" 
d="M557 0h-142l-232 619v-619h-95v725h142l232 -617v617h95v-725zM530 874l-148 -113h-90l109 113h129z" />
    <glyph glyph-name="Ncaron" unicode="&#x147;" 
d="M557 0h-142l-232 619v-619h-95v725h142l232 -617v617h95v-725zM305 761l-132 113h106l69 -56l69 56h106l-134 -113h-84z" />
    <glyph glyph-name="uni0145" unicode="&#x145;" 
d="M557 0h-142l-232 619v-619h-95v725h142l232 -617v617h95v-725zM266 -125v89h95v-95l-44 -90h-54l39 96h-36z" />
    <glyph glyph-name="OE" unicode="&#x152;" 
d="M223 738c35 0 60 -12 81 -33v20h302v-90h-208v-216h188v-90h-188v-239h208v-90h-302v20c-21 -21 -46 -33 -81 -33c-139 0 -185 147 -185 376s46 375 185 375zM223 650c-67 0 -87 -104 -87 -287s20 -288 87 -288c65 0 87 105 87 288c0 184 -22 287 -87 287z" />
    <glyph glyph-name="Obreve" unicode="&#x14e;" 
d="M323 738c181 0 271 -156 271 -375s-90 -376 -271 -376s-271 157 -271 376s90 375 271 375zM323 650c-121 0 -173 -102 -173 -287s52 -288 173 -288s173 104 173 288s-52 287 -173 287zM403 874h78c-9 -69 -56 -118 -159 -118c-100 0 -149 49 -157 118h77
c5 -39 32 -58 81 -58c47 0 74 19 80 58z" />
    <glyph glyph-name="Ohungarumlaut" unicode="&#x150;" 
d="M323 738c181 0 271 -156 271 -375s-90 -376 -271 -376s-271 157 -271 376s90 375 271 375zM323 650c-121 0 -173 -102 -173 -287s52 -288 173 -288s173 104 173 288s-52 287 -173 287zM405 874l-148 -113h-90l109 113h129zM572 874l-148 -113h-91l110 113h129z" />
    <glyph glyph-name="Omacron" unicode="&#x14c;" 
d="M323 738c181 0 271 -156 271 -375s-90 -376 -271 -376s-271 157 -271 376s90 375 271 375zM323 650c-121 0 -173 -102 -173 -287s52 -288 173 -288s173 104 173 288s-52 287 -173 287zM473 779h-300v76h300v-76z" />
    <glyph glyph-name="uni1ECC" unicode="&#x1ecc;" 
d="M323 738c181 0 271 -156 271 -375s-90 -376 -271 -376s-271 157 -271 376s90 375 271 375zM323 650c-121 0 -173 -102 -173 -287s52 -288 173 -288s173 104 173 288s-52 287 -173 287zM277 -75h91v-99h-91v99z" />
    <glyph glyph-name="Racute" unicode="&#x154;" 
d="M481 0l-142 306c-17 -1 -34 -1 -53 -1h-82v-305h-95v725h177c158 0 280 -34 280 -207c0 -113 -51 -169 -131 -194l154 -324h-108zM297 635h-93v-240h93c96 0 171 9 171 121s-75 119 -171 119zM481 874l-148 -113h-90l109 113h129z" />
    <glyph glyph-name="Rcaron" unicode="&#x158;" 
d="M481 0l-142 306c-17 -1 -34 -1 -53 -1h-82v-305h-95v725h177c158 0 280 -34 280 -207c0 -113 -51 -169 -131 -194l154 -324h-108zM297 635h-93v-240h93c96 0 171 9 171 121s-75 119 -171 119zM277 761l-132 113h106l69 -56l69 56h106l-134 -113h-84z" />
    <glyph glyph-name="uni0156" unicode="&#x156;" 
d="M481 0l-142 306c-17 -1 -34 -1 -53 -1h-82v-305h-95v725h177c158 0 280 -34 280 -207c0 -113 -51 -169 -131 -194l154 -324h-108zM297 635h-93v-240h93c96 0 171 9 171 121s-75 119 -171 119zM284 -125v89h95v-95l-44 -90h-54l39 96h-36z" />
    <glyph glyph-name="Sacute" unicode="&#x15a;" 
d="M344 323l-79 19c-96 21 -183 81 -183 197c0 125 108 199 238 199c112 0 225 -60 241 -204h-94c-11 87 -86 116 -152 116s-135 -33 -135 -108c0 -64 46 -95 105 -108l72 -16c116 -26 219 -76 219 -215c0 -136 -105 -216 -245 -216c-148 0 -254 95 -262 239h94
c11 -97 78 -151 171 -151c72 0 146 37 146 121c0 76 -56 108 -136 127zM494 874l-148 -113h-90l109 113h129z" />
    <glyph glyph-name="Scaron" unicode="&#x160;" 
d="M344 323l-79 19c-96 21 -183 81 -183 197c0 125 108 199 238 199c112 0 225 -60 241 -204h-94c-11 87 -86 116 -152 116s-135 -33 -135 -108c0 -64 46 -95 105 -108l72 -16c116 -26 219 -76 219 -215c0 -136 -105 -216 -245 -216c-148 0 -254 95 -262 239h94
c11 -97 78 -151 171 -151c72 0 146 37 146 121c0 76 -56 108 -136 127zM274 761l-132 113h106l69 -56l69 56h106l-134 -113h-84z" />
    <glyph glyph-name="Scedilla" unicode="&#x15e;" 
d="M344 323l-79 19c-96 21 -183 81 -183 197c0 125 108 199 238 199c112 0 225 -60 241 -204h-94c-11 87 -86 116 -152 116s-135 -33 -135 -108c0 -64 46 -95 105 -108l72 -16c116 -26 219 -76 219 -215c0 -136 -105 -216 -245 -216c-148 0 -254 95 -262 239h94
c11 -97 78 -151 171 -151c72 0 146 37 146 121c0 76 -56 108 -136 127zM247 -176l16 40c17 -8 39 -14 58 -14c29 0 61 8 61 32c0 20 -20 30 -44 30c-11 0 -27 -2 -38 -9l-30 17l51 83h53l-32 -51c10 2 20 3 30 3c48 0 76 -27 76 -68c0 -52 -56 -82 -108 -82
c-27 0 -60 3 -93 19z" />
    <glyph glyph-name="Scircumflex" unicode="&#x15c;" 
d="M344 323l-79 19c-96 21 -183 81 -183 197c0 125 108 199 238 199c112 0 225 -60 241 -204h-94c-11 87 -86 116 -152 116s-135 -33 -135 -108c0 -64 46 -95 105 -108l72 -16c116 -26 219 -76 219 -215c0 -136 -105 -216 -245 -216c-148 0 -254 95 -262 239h94
c11 -97 78 -151 171 -151c72 0 146 37 146 121c0 76 -56 108 -136 127zM362 874l132 -113h-106l-69 56l-69 -56h-106l134 113h84z" />
    <glyph glyph-name="uni0218" unicode="&#x218;" 
d="M344 323l-79 19c-96 21 -183 81 -183 197c0 125 108 199 238 199c112 0 225 -60 241 -204h-94c-11 87 -86 116 -152 116s-135 -33 -135 -108c0 -64 46 -95 105 -108l72 -16c116 -26 219 -76 219 -215c0 -136 -105 -216 -245 -216c-148 0 -254 95 -262 239h94
c11 -97 78 -151 171 -151c72 0 146 37 146 121c0 76 -56 108 -136 127zM300 -125v89h95v-95l-44 -90h-54l39 96h-36z" />
    <glyph glyph-name="Tbar" unicode="&#x166;" 
d="M275 0v327h-151v76h151v232h-218v90h531v-90h-218v-232h151v-76h-151v-327h-95z" />
    <glyph glyph-name="Tcaron" unicode="&#x164;" 
d="M275 0v635h-218v90h531v-90h-218v-635h-95zM280 761l-132 113h106l69 -56l69 56h106l-134 -113h-84z" />
    <glyph glyph-name="uni0162" unicode="&#x162;" 
d="M275 0v635h-218v90h531v-90h-218v-635h-95zM275 -125v89h95v-95l-44 -90h-54l39 96h-36z" />
    <glyph glyph-name="uni021A" unicode="&#x21a;" 
d="M275 0v635h-218v90h531v-90h-218v-635h-95zM275 -125v89h95v-95l-44 -90h-54l39 96h-36z" />
    <glyph glyph-name="Ubreve" unicode="&#x16c;" 
d="M79 725h95v-441c0 -142 25 -209 148 -209c124 0 150 76 150 220v430h95v-422c0 -212 -56 -316 -245 -316c-181 0 -243 82 -243 308v430zM409 874h78c-9 -69 -56 -118 -159 -118c-100 0 -149 49 -157 118h77c5 -39 32 -58 81 -58c47 0 74 19 80 58z" />
    <glyph glyph-name="Uhungarumlaut" unicode="&#x170;" 
d="M79 725h95v-441c0 -142 25 -209 148 -209c124 0 150 76 150 220v430h95v-422c0 -212 -56 -316 -245 -316c-181 0 -243 82 -243 308v430zM423 874l-148 -113h-90l109 113h129zM590 874l-148 -113h-91l110 113h129z" />
    <glyph glyph-name="Umacron" unicode="&#x16a;" 
d="M79 725h95v-441c0 -142 25 -209 148 -209c124 0 150 76 150 220v430h95v-422c0 -212 -56 -316 -245 -316c-181 0 -243 82 -243 308v430zM473 779h-300v76h300v-76z" />
    <glyph glyph-name="Uogonek" unicode="&#x172;" 
d="M79 725h95v-441c0 -142 25 -209 148 -209c124 0 150 76 150 220v430h95v-422c0 -212 -56 -316 -245 -316c-181 0 -243 82 -243 308v430zM328 0h91c-51 -25 -88 -51 -88 -82s32 -40 65 -40c20 0 37 3 50 9v-61c-17 -7 -41 -12 -69 -12c-59 0 -129 24 -129 91
c0 40 25 68 80 95z" />
    <glyph glyph-name="Uring" unicode="&#x16e;" 
d="M79 725h95v-441c0 -142 25 -209 148 -209c124 0 150 76 150 220v430h95v-422c0 -212 -56 -316 -245 -316c-181 0 -243 82 -243 308v430zM323 921c51 0 91 -34 91 -85c0 -49 -40 -85 -91 -85s-91 36 -91 85c0 51 42 85 91 85zM323 879c-23 0 -44 -18 -44 -43
c0 -24 21 -42 44 -42s43 18 43 42c0 25 -20 43 -43 43z" />
    <glyph glyph-name="Utilde" unicode="&#x168;" 
d="M79 725h95v-441c0 -142 25 -209 148 -209c124 0 150 76 150 220v430h95v-422c0 -212 -56 -316 -245 -316c-181 0 -243 82 -243 308v430zM389 828c27 0 43 15 47 45h71c-13 -83 -63 -113 -116 -113c-61 0 -94 47 -136 47c-27 0 -42 -15 -45 -44h-71c12 79 58 112 115 112
c61 0 90 -47 135 -47z" />
    <glyph glyph-name="uni1EE4" unicode="&#x1ee4;" 
d="M79 725h95v-441c0 -142 25 -209 148 -209c124 0 150 76 150 220v430h95v-422c0 -212 -56 -316 -245 -316c-181 0 -243 82 -243 308v430zM277 -75h91v-99h-91v99z" />
    <glyph glyph-name="Wacute" unicode="&#x1e82;" 
d="M374 504l80 -366l54 587h95l-73 -725h-123l-84 378l-84 -378h-124l-72 725h95l53 -587l80 366h103zM520 874l-148 -113h-90l109 113h129z" />
    <glyph glyph-name="Wcircumflex" unicode="&#x174;" 
d="M374 504l80 -366l54 587h95l-73 -725h-123l-84 378l-84 -378h-124l-72 725h95l53 -587l80 366h103zM366 874l132 -113h-106l-69 56l-69 -56h-106l134 113h84z" />
    <glyph glyph-name="Wdieresis" unicode="&#x1e84;" 
d="M374 504l80 -366l54 587h95l-73 -725h-123l-84 378l-84 -378h-124l-72 725h95l53 -587l80 366h103zM163 868h91v-99h-91v99zM392 868h91v-99h-91v99z" />
    <glyph glyph-name="Wgrave" unicode="&#x1e80;" 
d="M374 504l80 -366l54 587h95l-73 -725h-123l-84 378l-84 -378h-124l-72 725h95l53 -587l80 366h103zM285 761l-148 113h129l109 -113h-90z" />
    <glyph glyph-name="Ycircumflex" unicode="&#x176;" 
d="M323 370l186 355h111l-250 -453v-272h-95v272l-250 453h111zM366 874l132 -113h-106l-69 56l-69 -56h-106l134 113h84z" />
    <glyph glyph-name="Ydieresis" unicode="&#x178;" 
d="M323 370l186 355h111l-250 -453v-272h-95v272l-250 453h111zM163 868h91v-99h-91v99zM392 868h91v-99h-91v99z" />
    <glyph glyph-name="Ygrave" unicode="&#x1ef2;" 
d="M323 370l186 355h111l-250 -453v-272h-95v272l-250 453h111zM280 761l-148 113h129l109 -113h-90z" />
    <glyph glyph-name="uni0232" unicode="&#x232;" 
d="M323 370l186 355h111l-250 -453v-272h-95v272l-250 453h111zM473 779h-300v76h300v-76z" />
    <glyph glyph-name="Zacute" unicode="&#x179;" 
d="M557 725v-90l-372 -545h376v-90h-485v90l373 545h-343v90h451zM497 874l-148 -113h-90l109 113h129z" />
    <glyph glyph-name="Zcaron" unicode="&#x17d;" 
d="M557 725v-90l-372 -545h376v-90h-485v90l373 545h-343v90h451zM282 761l-132 113h106l69 -56l69 56h106l-134 -113h-84z" />
    <glyph glyph-name="Zdotaccent" unicode="&#x17b;" 
d="M557 725v-90l-372 -545h376v-90h-485v90l373 545h-343v90h451zM277 869h91v-99h-91v99z" />
    <glyph glyph-name="uni018F" unicode="&#x18f;" 
d="M323 738c181 0 271 -156 271 -375s-90 -376 -271 -376s-280 157 -272 411h446c-5 164 -71 254 -174 254c-93 0 -144 -72 -160 -147h-98c21 107 102 233 258 233zM323 75c104 0 156 77 171 221h-340c3 -113 49 -221 169 -221z" />
    <glyph glyph-name="abreve" unicode="&#x103;" 
d="M269 -13c-97 0 -175 57 -175 153c0 128 136 167 356 191v23c0 92 -51 121 -121 121c-84 0 -121 -40 -128 -107h-94c8 116 111 181 223 181c151 0 214 -64 211 -215l-1 -131c-1 -91 4 -167 7 -203h-88l-1 79c-33 -56 -89 -92 -189 -92zM457 243v15
c-164 -16 -264 -39 -264 -116c0 -51 37 -81 102 -81c82 0 162 39 162 182zM414 725h71c-8 -72 -44 -132 -159 -132c-111 0 -154 60 -159 132h71c4 -43 30 -72 89 -72s83 29 87 72z" />
    <glyph glyph-name="amacron" unicode="&#x101;" 
d="M269 -13c-97 0 -175 57 -175 153c0 128 136 167 356 191v23c0 92 -51 121 -121 121c-84 0 -121 -40 -128 -107h-94c8 116 111 181 223 181c151 0 214 -64 211 -215l-1 -131c-1 -91 4 -167 7 -203h-88l-1 79c-33 -56 -89 -92 -189 -92zM457 243v15
c-164 -16 -264 -39 -264 -116c0 -51 37 -81 102 -81c82 0 162 39 162 182zM477 623h-300v76h300v-76z" />
    <glyph glyph-name="aogonek" unicode="&#x105;" 
d="M269 -13c-97 0 -175 57 -175 153c0 128 136 167 356 191v23c0 92 -51 121 -121 121c-84 0 -121 -40 -128 -107h-94c8 116 111 181 223 181c151 0 214 -64 211 -215l-1 -131c-1 -91 4 -167 7 -203h-9c-51 -25 -88 -51 -88 -82s31 -40 66 -40c19 0 36 3 49 9v-61
c-17 -7 -41 -12 -69 -12c-59 0 -129 24 -129 91c0 40 36 71 91 95h1l-1 79c-33 -56 -89 -92 -189 -92zM457 243v15c-164 -16 -264 -39 -264 -116c0 -51 37 -81 102 -81c82 0 162 39 162 182z" />
    <glyph glyph-name="cacute" unicode="&#x107;" 
d="M333 547c125 0 208 -92 216 -188h-93c-12 67 -60 112 -127 112c-80 0 -146 -69 -146 -204c0 -136 66 -205 146 -205c75 0 118 52 131 111h95c-16 -107 -111 -186 -231 -186c-149 0 -238 116 -238 280c0 159 93 280 247 280zM484 725l-131 -116h-76l90 116h117z" />
    <glyph glyph-name="ccaron" unicode="&#x10d;" 
d="M333 547c125 0 208 -92 216 -188h-93c-12 67 -60 112 -127 112c-80 0 -146 -69 -146 -204c0 -136 66 -205 146 -205c75 0 118 52 131 111h95c-16 -107 -111 -186 -231 -186c-149 0 -238 116 -238 280c0 159 93 280 247 280zM287 609l-129 116h95l79 -53l79 53h96
l-132 -116h-88z" />
    <glyph glyph-name="ccircumflex" unicode="&#x109;" 
d="M333 547c125 0 208 -92 216 -188h-93c-12 67 -60 112 -127 112c-80 0 -146 -69 -146 -204c0 -136 66 -205 146 -205c75 0 118 52 131 111h95c-16 -107 -111 -186 -231 -186c-149 0 -238 116 -238 280c0 159 93 280 247 280zM378 725l129 -116h-96l-78 54l-80 -54h-95
l132 116h88z" />
    <glyph glyph-name="cdotaccent" unicode="&#x10b;" 
d="M333 547c125 0 208 -92 216 -188h-93c-12 67 -60 112 -127 112c-80 0 -146 -69 -146 -204c0 -136 66 -205 146 -205c75 0 118 52 131 111h95c-16 -107 -111 -186 -231 -186c-149 0 -238 116 -238 280c0 159 93 280 247 280zM287 710h91v-99h-91v99z" />
    <glyph glyph-name="dcaron" unicode="&#x10f;" 
d="M696 725l-70 -170h-58l30 170h98zM444 457v268h92v-725h-91l-1 76c-31 -51 -78 -89 -159 -89c-124 0 -217 101 -217 280c0 176 93 280 217 280c81 0 128 -38 159 -90zM448 267c0 141 -67 203 -144 203c-92 0 -139 -72 -139 -203s47 -204 139 -204c77 0 144 63 144 204z
" />
    <glyph glyph-name="dslash" unicode="&#x111;" 
d="M444 643v82h92v-82h81v-75h-81v-568h-91l-1 76c-31 -51 -78 -89 -159 -89c-124 0 -217 101 -217 280c0 176 93 280 217 280c81 0 128 -38 159 -90v111h-127v75h127zM448 267c0 141 -67 203 -144 203c-92 0 -139 -72 -139 -203s47 -204 139 -204c77 0 144 63 144 204z" />
    <glyph glyph-name="ebreve" unicode="&#x115;" 
d="M326 -13c-164 0 -244 121 -244 280c0 173 102 281 244 281c157 0 248 -115 240 -307h-387c0 -109 60 -179 145 -179c80 0 120 38 139 99h95c-21 -101 -107 -174 -232 -174zM326 472c-88 0 -142 -51 -146 -155h288c0 88 -47 155 -142 155zM414 725h71
c-8 -72 -44 -132 -159 -132c-111 0 -154 60 -159 132h71c4 -43 30 -72 89 -72s83 29 87 72z" />
    <glyph glyph-name="ecaron" unicode="&#x11b;" 
d="M326 -13c-164 0 -244 121 -244 280c0 173 102 281 244 281c157 0 248 -115 240 -307h-387c0 -109 60 -179 145 -179c80 0 120 38 139 99h95c-21 -101 -107 -174 -232 -174zM326 472c-88 0 -142 -51 -146 -155h288c0 88 -47 155 -142 155zM280 609l-129 116h95l79 -53
l79 53h96l-132 -116h-88z" />
    <glyph glyph-name="emacron" unicode="&#x113;" 
d="M326 -13c-164 0 -244 121 -244 280c0 173 102 281 244 281c157 0 248 -115 240 -307h-387c0 -109 60 -179 145 -179c80 0 120 38 139 99h95c-21 -101 -107 -174 -232 -174zM326 472c-88 0 -142 -51 -146 -155h288c0 88 -47 155 -142 155zM476 623h-300v76h300v-76z" />
    <glyph glyph-name="eogonek" unicode="&#x119;" 
d="M326 -13c-164 0 -244 121 -244 280c0 173 102 281 244 281c157 0 248 -115 240 -307h-387c0 -109 60 -179 145 -179c80 0 120 38 139 99h95c-21 -101 -107 -174 -232 -174zM326 472c-88 0 -142 -51 -146 -155h288c0 88 -47 155 -142 155zM321 0h91
c-51 -25 -88 -51 -88 -82s32 -40 65 -40c20 0 37 3 50 9v-61c-17 -7 -41 -12 -69 -12c-59 0 -129 24 -129 91c0 40 25 68 80 95z" />
    <glyph glyph-name="edotaccent" unicode="&#x117;" 
d="M326 -13c-164 0 -244 121 -244 280c0 173 102 281 244 281c157 0 248 -115 240 -307h-387c0 -109 60 -179 145 -179c80 0 120 38 139 99h95c-21 -101 -107 -174 -232 -174zM326 472c-88 0 -142 -51 -146 -155h288c0 88 -47 155 -142 155zM280 710h91v-99h-91v99z" />
    <glyph glyph-name="gbreve" unicode="&#x11f;" 
d="M446 457v81h92v-471c0 -110 -14 -155 -43 -189c-39 -45 -112 -71 -188 -71c-119 0 -200 55 -216 162h97c13 -49 40 -82 120 -82c47 0 87 13 110 40c17 20 28 46 28 119v52c-31 -52 -78 -89 -159 -89c-124 0 -217 90 -217 269c0 177 93 269 217 269c81 0 128 -38 159 -90z
M450 278c0 142 -67 192 -144 192c-93 0 -139 -64 -139 -192c0 -129 46 -193 139 -193c77 0 144 53 144 193zM414 725h71c-8 -72 -44 -132 -159 -132c-111 0 -154 60 -159 132h71c4 -43 30 -72 89 -72s83 29 87 72z" />
    <glyph glyph-name="gcircumflex" unicode="&#x11d;" 
d="M446 457v81h92v-471c0 -110 -14 -155 -43 -189c-39 -45 -112 -71 -188 -71c-119 0 -200 55 -216 162h97c13 -49 40 -82 120 -82c47 0 87 13 110 40c17 20 28 46 28 119v52c-31 -52 -78 -89 -159 -89c-124 0 -217 90 -217 269c0 177 93 269 217 269c81 0 128 -38 159 -90z
M450 278c0 142 -67 192 -144 192c-93 0 -139 -64 -139 -192c0 -129 46 -193 139 -193c77 0 144 53 144 193zM371 725l129 -116h-96l-78 54l-80 -54h-95l132 116h88z" />
    <glyph glyph-name="uni0123" unicode="&#x123;" 
d="M350 686v-89h-95v96l44 89h54l-39 -96h36zM446 457v81h92v-471c0 -110 -14 -155 -43 -189c-39 -45 -112 -71 -188 -71c-119 0 -200 55 -216 162h97c13 -49 40 -82 120 -82c47 0 87 13 110 40c17 20 28 46 28 119v52c-31 -52 -78 -89 -159 -89c-124 0 -217 90 -217 269
c0 177 93 269 217 269c81 0 128 -38 159 -90zM450 278c0 142 -67 192 -144 192c-93 0 -139 -64 -139 -192c0 -129 46 -193 139 -193c77 0 144 53 144 193z" />
    <glyph glyph-name="gdotaccent" unicode="&#x121;" 
d="M446 457v81h92v-471c0 -110 -14 -155 -43 -189c-39 -45 -112 -71 -188 -71c-119 0 -200 55 -216 162h97c13 -49 40 -82 120 -82c47 0 87 13 110 40c17 20 28 46 28 119v52c-31 -52 -78 -89 -159 -89c-124 0 -217 90 -217 269c0 177 93 269 217 269c81 0 128 -38 159 -90z
M450 278c0 142 -67 192 -144 192c-93 0 -139 -64 -139 -192c0 -129 46 -193 139 -193c77 0 144 53 144 193zM280 710h91v-99h-91v99z" />
    <glyph glyph-name="hbar" unicode="&#x127;" 
d="M365 547c130 0 168 -86 168 -205v-342h-92v310c0 88 -6 160 -106 160c-84 0 -129 -61 -129 -178v-292h-92v568h-80v75h80v82h92v-82h128v-75h-128v-106c28 47 75 85 159 85z" />
    <glyph glyph-name="hcircumflex" unicode="&#x125;" 
d="M365 547c130 0 168 -86 168 -205v-342h-92v310c0 88 -6 160 -106 160c-84 0 -129 -61 -129 -178v-292h-92v725h92v-263c28 47 75 85 159 85zM206 884l132 -113h-106l-69 56l-69 -56h-106l134 113h84z" />
    <glyph glyph-name="dotlessi" unicode="&#x131;" 
d="M134 538h244v-459h153v-79h-397v79h152v380h-152v79z" />
    <glyph glyph-name="ibreve" unicode="&#x12d;" 
d="M134 538h244v-459h153v-79h-397v79h152v380h-152v79zM419 725h71c-8 -72 -44 -132 -159 -132c-111 0 -154 60 -159 132h71c4 -43 30 -72 89 -72s83 29 87 72z" />
    <glyph glyph-name="imacron" unicode="&#x12b;" 
d="M134 538h244v-459h153v-79h-397v79h152v380h-152v79zM481 623h-300v76h300v-76z" />
    <glyph glyph-name="iogonek" unicode="&#x12f;" 
d="M290 0h91c-51 -25 -88 -51 -88 -82s32 -40 65 -40c20 0 37 3 50 9v-61c-17 -7 -41 -12 -69 -12c-59 0 -129 24 -129 91c0 40 25 68 80 95zM134 538h244v-459h153v-79h-397v79h152v380h-152v79zM286 725h92v-109h-92v109z" />
    <glyph glyph-name="itilde" unicode="&#x129;" 
d="M134 538h244v-459h153v-79h-397v79h152v380h-152v79zM396 673c28 0 44 15 48 45h71c-13 -83 -64 -113 -117 -113c-61 0 -92 47 -135 47c-27 0 -42 -15 -45 -44h-71c12 77 58 112 115 112c62 0 88 -47 134 -47z" />
    <glyph glyph-name="uni1ECB" unicode="&#x1ecb;" 
d="M286 725h92v-109h-92v109zM134 538h244v-459h153v-79h-397v79h152v380h-152v79zM286 -75h91v-99h-91v99z" />
    <glyph glyph-name="uni0237" unicode="&#x237;" 
d="M183 538h227v-565c0 -112 -29 -148 -128 -148h-144v79h125c44 0 55 11 55 67v488h-135v79z" />
    <glyph glyph-name="jcircumflex" unicode="&#x135;" 
d="M183 538h227v-565c0 -112 -29 -148 -128 -148h-144v79h125c44 0 55 11 55 67v488h-135v79zM407 725l129 -116h-96l-78 54l-80 -54h-95l132 116h88z" />
    <glyph glyph-name="uni0137" unicode="&#x137;" 
d="M121 725h92v-432l238 245h118l-211 -209l232 -329h-105l-189 268l-83 -82v-186h-92v725zM285 -125v89h95v-95l-44 -90h-54l39 96h-36z" />
    <glyph glyph-name="lacute" unicode="&#x13a;" 
d="M128 725h244v-646h153v-79h-397v79h152v568h-152v78zM520 874l-148 -113h-90l109 113h129z" />
    <glyph glyph-name="lcaron" unicode="&#x13e;" 
d="M555 725l-70 -170h-58l30 170h98zM128 725h244v-646h153v-79h-397v79h152v568h-152v78z" />
    <glyph glyph-name="uni013C" unicode="&#x13c;" 
d="M128 725h244v-646h153v-79h-397v79h152v568h-152v78zM277 -125v89h95v-95l-44 -90h-54l39 96h-36z" />
    <glyph glyph-name="ldot" unicode="&#x140;" 
d="M543 438h91v-99h-91v99zM128 725h244v-646h153v-79h-397v79h152v568h-152v78z" />
    <glyph glyph-name="lslash" unicode="&#x142;" 
d="M128 725h244v-279l145 59v-77l-145 -59v-290h153v-79h-397v79h152v253l-162 -65v76l162 66v238h-152v78z" />
    <glyph glyph-name="eng" unicode="&#x14b;" 
d="M533 342v-369c0 -112 -29 -148 -128 -148h-144v76h125c45 0 55 14 55 70v339c0 87 -7 158 -107 158c-85 0 -128 -59 -128 -176v-292h-92v538h92v-74c27 47 73 83 158 83c131 0 169 -86 169 -205z" />
    <glyph glyph-name="nacute" unicode="&#x144;" 
d="M206 538v-76c27 45 73 85 158 85c131 0 169 -86 169 -205v-342h-92v310c0 87 -7 159 -107 159c-84 0 -128 -60 -128 -177v-292h-92v538h92zM507 725l-131 -116h-76l90 116h117z" />
    <glyph glyph-name="ncaron" unicode="&#x148;" 
d="M206 538v-76c27 45 73 85 158 85c131 0 169 -86 169 -205v-342h-92v310c0 87 -7 159 -107 159c-84 0 -128 -60 -128 -177v-292h-92v538h92zM277 609l-129 116h95l79 -53l79 53h96l-132 -116h-88z" />
    <glyph glyph-name="uni0146" unicode="&#x146;" 
d="M206 538v-76c27 45 73 85 158 85c131 0 169 -86 169 -205v-342h-92v310c0 87 -7 159 -107 159c-84 0 -128 -60 -128 -177v-292h-92v538h92zM277 -125v89h95v-95l-44 -90h-54l39 96h-36z" />
    <glyph glyph-name="oe" unicode="&#x153;" 
d="M195 547c63 0 102 -29 127 -76c28 48 70 75 126 75c122 0 179 -123 174 -311h-265c-1 -104 30 -175 89 -175c52 0 75 32 82 96h86c-9 -104 -71 -169 -166 -169c-63 0 -103 26 -128 70c-25 -44 -65 -70 -125 -70c-129 0 -174 124 -174 278s45 282 174 282zM195 473
c-64 0 -86 -77 -86 -208c0 -129 23 -205 86 -205s82 70 82 201c0 129 -21 212 -82 212zM357 310h177c0 87 -19 165 -86 165c-61 0 -88 -65 -91 -165z" />
    <glyph glyph-name="obreve" unicode="&#x14f;" 
d="M171 267c0 -143 69 -203 152 -203s152 60 152 203s-69 203 -152 203s-152 -60 -152 -203zM74 267c0 195 126 280 249 280s249 -85 249 -280s-126 -280 -249 -280s-249 85 -249 280zM411 725h71c-8 -72 -44 -132 -159 -132c-111 0 -154 60 -159 132h71
c4 -43 30 -72 89 -72s83 29 87 72z" />
    <glyph glyph-name="ohungarumlaut" unicode="&#x151;" 
d="M171 267c0 -143 69 -203 152 -203s152 60 152 203s-69 203 -152 203s-152 -60 -152 -203zM74 267c0 195 126 280 249 280s249 -85 249 -280s-126 -280 -249 -280s-249 85 -249 280zM394 725l-131 -116h-76l90 116h117zM552 725l-130 -116h-77l91 116h116z" />
    <glyph glyph-name="omacron" unicode="&#x14d;" 
d="M171 267c0 -143 69 -203 152 -203s152 60 152 203s-69 203 -152 203s-152 -60 -152 -203zM74 267c0 195 126 280 249 280s249 -85 249 -280s-126 -280 -249 -280s-249 85 -249 280zM473 623h-300v76h300v-76z" />
    <glyph glyph-name="uni1ECD" unicode="&#x1ecd;" 
d="M171 267c0 -143 69 -203 152 -203s152 60 152 203s-69 203 -152 203s-152 -60 -152 -203zM74 267c0 195 126 280 249 280s249 -85 249 -280s-126 -280 -249 -280s-249 85 -249 280zM277 -75h91v-99h-91v99z" />
    <glyph glyph-name="racute" unicode="&#x155;" 
d="M86 538h243v-96c27 60 77 96 144 96h92v-84h-91c-103 0 -143 -67 -143 -186v-189h184v-79h-428v79h152v380h-153v79zM516 725l-131 -116h-76l90 116h117z" />
    <glyph glyph-name="rcaron" unicode="&#x159;" 
d="M86 538h243v-96c27 60 77 96 144 96h92v-84h-91c-103 0 -143 -67 -143 -186v-189h184v-79h-428v79h152v380h-153v79zM301 609l-129 116h95l79 -53l79 53h96l-132 -116h-88z" />
    <glyph glyph-name="uni0157" unicode="&#x157;" 
d="M86 538h243v-96c27 60 77 96 144 96h92v-84h-91c-103 0 -143 -67 -143 -186v-189h184v-79h-428v79h152v380h-153v79zM236 -125v89h95v-95l-44 -90h-54l39 96h-36z" />
    <glyph glyph-name="sacute" unicode="&#x15b;" 
d="M530 391h-96c-12 60 -59 80 -120 80c-53 0 -108 -21 -108 -69c0 -43 28 -61 81 -72l60 -12c93 -19 193 -53 193 -161c0 -115 -98 -170 -215 -170c-141 0 -209 88 -220 174h97c12 -63 49 -98 125 -98c56 0 120 20 120 83c0 51 -45 75 -113 87l-67 13
c-84 16 -152 60 -152 152c0 104 112 149 203 149c116 0 192 -60 212 -156zM471 725l-131 -116h-76l90 116h117z" />
    <glyph glyph-name="scaron" unicode="&#x161;" 
d="M530 391h-96c-12 60 -59 80 -120 80c-53 0 -108 -21 -108 -69c0 -43 28 -61 81 -72l60 -12c93 -19 193 -53 193 -161c0 -115 -98 -170 -215 -170c-141 0 -209 88 -220 174h97c12 -63 49 -98 125 -98c56 0 120 20 120 83c0 51 -45 75 -113 87l-67 13
c-84 16 -152 60 -152 152c0 104 112 149 203 149c116 0 192 -60 212 -156zM274 609l-129 116h95l79 -53l79 53h96l-132 -116h-88z" />
    <glyph glyph-name="scedilla" unicode="&#x15f;" 
d="M530 391h-96c-12 60 -59 80 -120 80c-53 0 -108 -21 -108 -69c0 -43 28 -61 81 -72l60 -12c93 -19 193 -53 193 -161c0 -115 -98 -170 -215 -170c-141 0 -209 88 -220 174h97c12 -63 49 -98 125 -98c56 0 120 20 120 83c0 51 -45 75 -113 87l-67 13
c-84 16 -152 60 -152 152c0 104 112 149 203 149c116 0 192 -60 212 -156zM239 -176l16 40c17 -8 39 -14 58 -14c29 0 61 8 61 32c0 20 -20 30 -44 30c-11 0 -27 -2 -38 -9l-30 17l51 83h53l-32 -51c10 2 20 3 30 3c48 0 76 -27 76 -68c0 -52 -56 -82 -108 -82
c-27 0 -60 3 -93 19z" />
    <glyph glyph-name="scircumflex" unicode="&#x15d;" 
d="M530 391h-96c-12 60 -59 80 -120 80c-53 0 -108 -21 -108 -69c0 -43 28 -61 81 -72l60 -12c93 -19 193 -53 193 -161c0 -115 -98 -170 -215 -170c-141 0 -209 88 -220 174h97c12 -63 49 -98 125 -98c56 0 120 20 120 83c0 51 -45 75 -113 87l-67 13
c-84 16 -152 60 -152 152c0 104 112 149 203 149c116 0 192 -60 212 -156zM365 725l129 -116h-96l-78 54l-80 -54h-95l132 116h88z" />
    <glyph glyph-name="uni0219" unicode="&#x219;" 
d="M530 391h-96c-12 60 -59 80 -120 80c-53 0 -108 -21 -108 -69c0 -43 28 -61 81 -72l60 -12c93 -19 193 -53 193 -161c0 -115 -98 -170 -215 -170c-141 0 -209 88 -220 174h97c12 -63 49 -98 125 -98c56 0 120 20 120 83c0 51 -45 75 -113 87l-67 13
c-84 16 -152 60 -152 152c0 104 112 149 203 149c116 0 192 -60 212 -156zM288 -125v89h95v-95l-44 -90h-54l39 96h-36z" />
    <glyph glyph-name="tbar" unicode="&#x167;" 
d="M197 538v135h92v-135h220v-79h-220v-83h220v-76h-220v-152c0 -55 3 -69 54 -69h166v-79h-186c-98 0 -126 23 -126 135v165h-153v76h153v83h-153v79h153z" />
    <glyph glyph-name="tcaron" unicode="&#x165;" 
d="M590 725l-70 -170h-58l30 170h98zM197 538v135h92v-135h220v-79h-220v-311c0 -55 3 -69 54 -69h166v-79h-186c-98 0 -126 23 -126 135v324h-153v79h153z" />
    <glyph glyph-name="uni0163" unicode="&#x163;" 
d="M197 538v135h92v-135h220v-79h-220v-311c0 -55 3 -69 54 -69h166v-79h-186c-98 0 -126 23 -126 135v324h-153v79h153zM205 -125v89h95v-95l-44 -90h-54l39 96h-36z" />
    <glyph glyph-name="uni021B" unicode="&#x21b;" 
d="M197 538v135h92v-135h220v-79h-220v-311c0 -55 3 -69 54 -69h166v-79h-186c-98 0 -126 23 -126 135v324h-153v79h153zM205 -125v89h95v-95l-44 -90h-54l39 96h-36z" />
    <glyph glyph-name="ubreve" unicode="&#x16d;" 
d="M439 0v69c-29 -47 -73 -82 -158 -82c-130 0 -167 86 -167 205v346h92v-314c0 -87 5 -158 105 -158c85 0 128 59 128 176v296h92v-538h-92zM411 725h71c-8 -72 -44 -132 -159 -132c-111 0 -154 60 -159 132h71c4 -43 30 -72 89 -72s83 29 87 72z" />
    <glyph glyph-name="uhungarumlaut" unicode="&#x171;" 
d="M439 0v69c-29 -47 -73 -82 -158 -82c-130 0 -167 86 -167 205v346h92v-314c0 -87 5 -158 105 -158c85 0 128 59 128 176v296h92v-538h-92zM396 725l-131 -116h-76l90 116h117zM554 725l-130 -116h-77l91 116h116z" />
    <glyph glyph-name="umacron" unicode="&#x16b;" 
d="M439 0v69c-29 -47 -73 -82 -158 -82c-130 0 -167 86 -167 205v346h92v-314c0 -87 5 -158 105 -158c85 0 128 59 128 176v296h92v-538h-92zM477 623h-300v76h300v-76z" />
    <glyph glyph-name="uogonek" unicode="&#x173;" 
d="M439 0v69c-29 -47 -73 -82 -158 -82c-130 0 -167 86 -167 205v346h92v-314c0 -87 5 -158 105 -158c85 0 128 59 128 176v296h92v-538h-92zM439 0h91c-51 -25 -88 -51 -88 -82s32 -40 65 -40c20 0 37 3 50 9v-61c-17 -7 -41 -12 -69 -12c-59 0 -129 24 -129 91
c0 40 25 68 80 95z" />
    <glyph glyph-name="uring" unicode="&#x16f;" 
d="M439 0v69c-29 -47 -73 -82 -158 -82c-130 0 -167 86 -167 205v346h92v-314c0 -87 5 -158 105 -158c85 0 128 59 128 176v296h92v-538h-92zM322 760c51 0 91 -36 91 -85c0 -51 -40 -85 -91 -85s-90 34 -90 85c0 49 41 85 90 85zM322 718c-23 0 -43 -19 -43 -43
c0 -25 20 -42 43 -42s43 17 43 42c0 24 -20 43 -43 43z" />
    <glyph glyph-name="utilde" unicode="&#x169;" 
d="M439 0v69c-29 -47 -73 -82 -158 -82c-130 0 -167 86 -167 205v346h92v-314c0 -87 5 -158 105 -158c85 0 128 59 128 176v296h92v-538h-92zM388 673c28 0 44 15 48 45h71c-13 -83 -64 -113 -117 -113c-61 0 -92 47 -135 47c-27 0 -42 -15 -45 -44h-71
c12 77 58 112 115 112c62 0 88 -47 134 -47z" />
    <glyph glyph-name="uni1EE5" unicode="&#x1ee5;" 
d="M439 0v69c-29 -47 -73 -82 -158 -82c-130 0 -167 86 -167 205v346h92v-314c0 -87 5 -158 105 -158c85 0 128 59 128 176v296h92v-538h-92zM274 -75h91v-99h-91v99z" />
    <glyph glyph-name="wacute" unicode="&#x1e83;" 
d="M279 430h86l80 -290l55 398h93l-90 -538h-93l-88 325l-88 -325h-93l-90 538h94l54 -398zM493 725l-131 -116h-76l90 116h117z" />
    <glyph glyph-name="wcircumflex" unicode="&#x175;" 
d="M279 430h86l80 -290l55 398h93l-90 -538h-93l-88 325l-88 -325h-93l-90 538h94l54 -398zM376 725l129 -116h-96l-78 54l-80 -54h-95l132 116h88z" />
    <glyph glyph-name="wdieresis" unicode="&#x1e85;" 
d="M279 430h86l80 -290l55 398h93l-90 -538h-93l-88 325l-88 -325h-93l-90 538h94l54 -398zM163 609v99h91v-99h-91zM392 708h91v-99h-91v99z" />
    <glyph glyph-name="wgrave" unicode="&#x1e81;" 
d="M279 430h86l80 -290l55 398h93l-90 -538h-93l-88 325l-88 -325h-93l-90 538h94l54 -398zM289 609l-130 116h116l91 -116h-77z" />
    <glyph glyph-name="ycircumflex" unicode="&#x177;" 
d="M183 -175h-106v79h97c56 0 73 8 102 84l4 12l-201 538h101l146 -415l143 415h95l-199 -561c-37 -106 -68 -152 -182 -152zM368 725l129 -116h-96l-78 54l-80 -54h-95l132 116h88z" />
    <glyph glyph-name="ygrave" unicode="&#x1ef3;" 
d="M183 -175h-106v79h97c56 0 73 8 102 84l4 12l-201 538h101l146 -415l143 415h95l-199 -561c-37 -106 -68 -152 -182 -152zM291 609l-130 116h116l91 -116h-77z" />
    <glyph glyph-name="uni0233" unicode="&#x233;" 
d="M183 -175h-106v79h97c56 0 73 8 102 84l4 12l-201 538h101l146 -415l143 415h95l-199 -561c-37 -106 -68 -152 -182 -152zM473 623h-300v76h300v-76z" />
    <glyph glyph-name="zacute" unicode="&#x17a;" 
d="M104 0v79l327 380h-308v79h420v-79l-327 -380h332v-79h-444zM486 725l-131 -116h-76l90 116h117z" />
    <glyph glyph-name="zcaron" unicode="&#x17e;" 
d="M104 0v79l327 380h-308v79h420v-79l-327 -380h332v-79h-444zM301 609l-129 116h95l79 -53l79 53h96l-132 -116h-88z" />
    <glyph glyph-name="zdotaccent" unicode="&#x17c;" 
d="M104 0v79l327 380h-308v79h420v-79l-327 -380h332v-79h-444zM299 710h91v-99h-91v99z" />
    <glyph glyph-name="uni0259" unicode="&#x259;" 
d="M321 548c164 0 244 -121 244 -280c0 -173 -102 -281 -244 -281c-157 0 -248 115 -240 307h387c0 108 -61 179 -145 179c-80 0 -120 -38 -139 -99h-95c21 101 107 174 232 174zM321 63c87 0 142 50 146 155h-288c0 -88 47 -155 142 -155z" />
    <glyph glyph-name="ellipsis" unicode="&#x2026;" 
d="M166 0h-115v115h115v-115zM595 0h-115v115h115v-115zM380 0h-115v115h115v-115z" />
    <glyph glyph-name="endash" unicode="&#x2013;" 
d="M541 231h-436v86h436v-86z" />
    <glyph glyph-name="emdash" unicode="&#x2014;" 
d="M599 231h-552v86h552v-86z" />
    <glyph glyph-name="guilsinglleft" unicode="&#x2039;" 
d="M342 44l-159 229l159 228h98l-150 -228l150 -229h-98z" />
    <glyph glyph-name="guilsinglright" unicode="&#x203a;" 
d="M463 273l-159 -229h-98l151 229l-151 228h98z" />
    <glyph glyph-name="quoteleft" unicode="&#x2018;" 
d="M381 587v-115h-115v122l61 131h58l-52 -138h48z" />
    <glyph glyph-name="quoteright" unicode="&#x2019;" 
d="M265 610v115h115v-123l-61 -131h-58l53 139h-49z" />
    <glyph glyph-name="quotedblleft" unicode="&#x201c;" 
d="M298 587v-115h-115v122l61 131h58l-52 -138h48zM465 587v-115h-115v122l61 131h58l-52 -138h48z" />
    <glyph glyph-name="quotedblright" unicode="&#x201d;" 
d="M349 610v115h115v-123l-61 -131h-58l53 139h-49zM182 610v115h115v-123l-61 -131h-58l53 139h-49z" />
    <glyph glyph-name="quotesinglbase" unicode="&#x201a;" 
d="M265 0v115h115v-123l-61 -131h-58l53 139h-49z" />
    <glyph glyph-name="quotedblbase" unicode="&#x201e;" 
d="M182 0v115h115v-123l-61 -131h-58l53 139h-49zM349 0v115h115v-123l-61 -131h-58l53 139h-49z" />
    <glyph glyph-name="bullet" unicode="&#x2022;" 
d="M143 279c0 98 80 177 176 177c105 0 184 -79 184 -177c0 -104 -79 -183 -184 -183c-96 0 -176 79 -176 183z" />
    <glyph glyph-name="dagger" unicode="&#x2020;" 
d="M368 0h-90v409h-205v86h205v230h90v-230h205v-86h-205v-409z" />
    <glyph glyph-name="daggerdbl" unicode="&#x2021;" 
d="M368 280h205v-86h-205v-194h-90v194h-205v86h205v150h-205v86h205v209h90v-209h205v-86h-205v-150z" />
    <glyph glyph-name="trademark" unicode="&#x2122;" 
d="M117 354v324h-113v47h287v-47h-114v-324h-60zM485 483h-50l-61 194v-323h-59v371h87l57 -190l58 190h88v-371h-60v323z" />
    <glyph glyph-name="lozenge" unicode="&#x25ca;" 
d="M326 596l-146 -255l146 -255l145 255zM80 341l246 421l240 -421l-240 -421z" />
    <glyph glyph-name="apple" 
d="M143 279c0 98 80 177 176 177c105 0 184 -79 184 -177c0 -104 -79 -183 -184 -183c-96 0 -176 79 -176 183z" />
    <glyph glyph-name="minus" unicode="&#x2212;" 
d="M51 312h544v-86h-544v86z" />
    <glyph glyph-name="lessequal" unicode="&#x2264;" 
d="M190 326l389 -122v-96l-514 179v78l514 184v-98zM62 0v86h522v-86h-522z" />
    <glyph glyph-name="greaterequal" unicode="&#x2265;" 
d="M456 326l-389 125v98l514 -184v-78l-514 -179v96zM584 0h-522v86h522v-86z" />
    <glyph glyph-name="notequal" unicode="&#x2260;" 
d="M125 0l307 569l74 -36l-306 -570zM574 327h-502v87h502v-87zM574 124h-502v86h502v-86z" />
    <glyph glyph-name="approxequal" unicode="&#x2248;" 
d="M436 379c36 0 65 25 69 69h85c-7 -88 -63 -149 -154 -149c-82 0 -159 69 -226 69c-37 0 -66 -25 -69 -69h-85c5 88 62 149 154 149c95 0 165 -69 226 -69zM436 192c36 0 65 24 69 68h85c-7 -88 -63 -148 -154 -148c-82 0 -159 69 -226 69c-37 0 -66 -25 -69 -69h-85
c5 88 62 148 154 148c95 0 165 -68 226 -68z" />
    <glyph glyph-name="partialdiff" unicode="&#x2202;" 
d="M471 263c0 136 -68 193 -152 193c-96 0 -146 -70 -146 -193c0 -125 49 -196 146 -196c86 0 152 60 152 196zM318 -13c-153 0 -242 100 -242 276c0 170 96 273 230 273c68 0 119 -30 154 -78l1 1c-40 112 -145 193 -268 198v81c220 -11 377 -193 377 -427
c0 -220 -103 -324 -252 -324z" />
    <glyph glyph-name="product" unicode="&#x220f;" 
d="M197 -175h-92v900h435v-900h-92v814h-251v-814z" />
    <glyph glyph-name="radical" unicode="&#x221a;" 
d="M64 227l148 68l146 -347l126 777h90l-158 -911h-88l-161 361l-65 -29z" />
    <glyph glyph-name="summation" unicode="&#x2211;" 
d="M56 -100l270 375l-270 375v75h522v-86h-413l266 -364l-266 -364h413v-86h-522v75z" />
    <glyph glyph-name="integral" unicode="&#x222b;" 
d="M276 139v333c0 203 58 266 149 266c45 0 89 -21 89 -65c0 -31 -19 -53 -51 -53c-31 0 -49 19 -49 46c0 11 1 19 4 26c-49 0 -53 -63 -53 -127c0 -32 3 -86 3 -161v-346c0 -190 -54 -252 -147 -252c-45 0 -89 19 -89 64c0 31 19 53 51 53c31 0 49 -20 49 -47
c0 -11 -1 -19 -4 -26c49 0 50 64 50 127c0 33 -2 87 -2 162z" />
    <glyph glyph-name="infinity" unicode="&#x221e;" 
d="M470 394c88 0 149 -56 149 -136c0 -83 -58 -139 -147 -139c-60 0 -108 37 -148 81c-41 -43 -90 -79 -151 -79c-88 0 -146 57 -146 137s59 136 150 136c63 0 108 -34 147 -75c41 45 86 75 146 75zM175 196c41 0 70 27 101 63c-27 31 -59 59 -98 59c-40 0 -70 -23 -70 -60
c0 -35 28 -62 67 -62zM468 318c-40 0 -70 -29 -97 -60c29 -35 60 -62 100 -62c39 0 67 27 67 62s-27 60 -70 60z" />
    <glyph glyph-name="uni0394" unicode="&#x394;" 
d="M9 0l314 646l314 -646h-628zM513 76l-190 395l-189 -395h379z" />
    <glyph glyph-name="uni0394" unicode="&#x2206;" 
d="M9 0l314 646l314 -646h-628zM513 76l-190 395l-189 -395h379z" />
    <glyph glyph-name="uni03A9" unicode="&#x3a9;" 
d="M322 727c145 0 284 -112 284 -318c0 -124 -66 -242 -160 -279v-55h156v-75h-229v185c95 18 146 116 146 230c0 151 -77 233 -197 233c-119 0 -195 -82 -195 -233c0 -114 51 -212 146 -230v-185h-229v75h156v55c-94 37 -160 155 -160 279c0 206 138 318 282 318z" />
    <glyph glyph-name="uni03A9" unicode="&#x2126;" 
d="M322 727c145 0 284 -112 284 -318c0 -124 -66 -242 -160 -279v-55h156v-75h-229v185c95 18 146 116 146 230c0 151 -77 233 -197 233c-119 0 -195 -82 -195 -233c0 -114 51 -212 146 -230v-185h-229v75h156v55c-94 37 -160 155 -160 279c0 206 138 318 282 318z" />
    <glyph glyph-name="pi" unicode="&#x3c0;" 
d="M219 0h-91v452h-74v86h511v-86h-76v-306c0 -56 5 -69 58 -69h24v-77h-44c-104 0 -129 23 -129 135v317h-179v-452z" />
    <glyph glyph-name="Euro" unicode="&#x20ac;" 
d="M495 228h95c-25 -157 -112 -241 -245 -241c-148 0 -224 111 -243 275h-94l43 64h45v38c0 16 0 33 1 49h-89l43 65h53c24 160 105 260 248 260c126 0 211 -94 235 -241h-96c-13 84 -49 153 -142 153c-81 0 -128 -57 -147 -172h252l-43 -65h-216c-1 -16 -1 -32 -1 -49
c0 -13 0 -26 1 -38h178l-43 -64h-130c15 -120 63 -187 151 -187c91 0 131 65 144 153z" />
    <glyph glyph-name="fi" unicode="&#xfb01;" 
d="M132 538v39c0 112 26 148 143 148h124v-76h-122c-45 0 -54 -14 -54 -70v-41h336v-538h-92v463h-244v-463h-91v463h-100v75h100zM467 725h92v-109h-92v109z" />
    <glyph glyph-name="f_i" 
d="M132 538v39c0 112 26 148 143 148h124v-76h-122c-45 0 -54 -14 -54 -70v-41h336v-538h-92v463h-244v-463h-91v463h-100v75h100zM467 725h92v-109h-92v109z" />
    <glyph glyph-name="fl" unicode="&#xfb02;" 
d="M132 538v39c0 112 26 148 143 148h284v-725h-92v649h-190c-45 0 -54 -14 -54 -70v-41h152v-75h-152v-463h-91v463h-100v75h100z" />
    <glyph glyph-name="f_l" 
d="M132 538v39c0 112 26 148 143 148h284v-725h-92v649h-190c-45 0 -54 -14 -54 -70v-41h152v-75h-152v-463h-91v463h-100v75h100z" />
    <glyph glyph-name="breve" unicode="&#x2d8;" 
d="M411 725h71c-8 -72 -44 -132 -159 -132c-111 0 -154 60 -159 132h71c4 -43 30 -72 89 -72s83 29 87 72z" />
    <glyph glyph-name="caron" unicode="&#x2c7;" 
d="M277 609l-129 116h95l79 -53l79 53h96l-132 -116h-88z" />
    <glyph glyph-name="circumflex" unicode="&#x2c6;" 
d="M368 725l129 -116h-96l-78 54l-80 -54h-95l132 116h88z" />
    <glyph glyph-name="dotaccent" unicode="&#x2d9;" 
d="M277 710h91v-99h-91v99z" />
    <glyph glyph-name="dot" 
d="M286 725h92v-109h-92v109z" />
    <glyph glyph-name="hungarumlaut" unicode="&#x2dd;" 
d="M347 725l-131 -116h-76l90 116h117zM505 725l-130 -116h-77l91 116h116z" />
    <glyph glyph-name="commaaccent" 
d="M275 -125v89h95v-95l-44 -90h-54l39 96h-36z" />
    <glyph glyph-name="ogonek" unicode="&#x2db;" 
d="M304 0h91c-51 -25 -88 -51 -88 -82s32 -40 65 -40c20 0 37 3 50 9v-61c-17 -7 -41 -12 -69 -12c-59 0 -129 24 -129 91c0 40 25 68 80 95z" />
    <glyph glyph-name="ring" unicode="&#x2da;" 
d="M322 760c51 0 91 -36 91 -85c0 -51 -40 -85 -91 -85s-90 34 -90 85c0 49 41 85 90 85zM322 718c-23 0 -43 -19 -43 -43c0 -25 20 -42 43 -42s43 17 43 42c0 24 -20 43 -43 43z" />
    <glyph glyph-name="tilde" unicode="&#x2dc;" 
d="M388 673c28 0 44 15 48 45h71c-13 -83 -64 -113 -117 -113c-61 0 -92 47 -135 47c-27 0 -42 -15 -45 -44h-71c12 77 58 112 115 112c62 0 88 -47 134 -47z" />
    <glyph glyph-name="caron.slovak" 
d="M387 725l-70 -170h-58l30 170h98z" />
    <glyph glyph-name="fraction" unicode="&#x2044;" 
d="M112 0h-79l501 725h79z" />
    <glyph glyph-name="acute.case" 
d="M442 874l-148 -113h-90l109 113h129z" />
    <glyph glyph-name="breve.case" 
d="M403 874h78c-9 -69 -56 -118 -159 -118c-100 0 -149 49 -157 118h77c5 -39 32 -58 81 -58c47 0 74 19 80 58z" />
    <glyph glyph-name="caron.case" 
d="M280 761l-132 113h106l69 -56l69 56h106l-134 -113h-84z" />
    <glyph glyph-name="cedilla.case" 
d="M222 -176l16 40c17 -8 39 -14 58 -14c29 0 61 8 61 32c0 20 -20 30 -44 30c-11 0 -27 -2 -38 -9l-30 17l51 83h53l-32 -51c10 2 20 3 30 3c48 0 76 -27 76 -68c0 -52 -56 -82 -108 -82c-27 0 -60 3 -93 19z" />
    <glyph glyph-name="circumflex.case" 
d="M366 874l132 -113h-106l-69 56l-69 -56h-106l134 113h84z" />
    <glyph glyph-name="dieresis.case" 
d="M163 868h91v-99h-91v99zM392 868h91v-99h-91v99z" />
    <glyph glyph-name="dotaccent.case" 
d="M277 869h91v-99h-91v99z" />
    <glyph glyph-name="grave.case" 
d="M352 761l-148 113h129l109 -113h-90z" />
    <glyph glyph-name="hungarumlaut.case" 
d="M358 874l-148 -113h-90l109 113h129zM525 874l-148 -113h-91l110 113h129z" />
    <glyph glyph-name="macron.case" 
d="M473 779h-300v76h300v-76z" />
    <glyph glyph-name="ogonek.case" 
d="M304 0h91c-51 -25 -88 -51 -88 -82s32 -40 65 -40c20 0 37 3 50 9v-61c-17 -7 -41 -12 -69 -12c-59 0 -129 24 -129 91c0 40 25 68 80 95z" />
    <glyph glyph-name="ring.case" 
d="M323 921c51 0 91 -34 91 -85c0 -49 -40 -85 -91 -85s-91 36 -91 85c0 51 42 85 91 85zM323 879c-23 0 -44 -18 -44 -43c0 -24 21 -42 44 -42s43 18 43 42c0 25 -20 43 -43 43z" />
    <glyph glyph-name="tilde.case" 
d="M389 828c27 0 43 15 47 45h71c-13 -83 -63 -113 -116 -113c-61 0 -94 47 -136 47c-27 0 -42 -15 -45 -44h-71c12 79 58 112 115 112c61 0 90 -47 135 -47z" />
    <glyph glyph-name="a.ss01" 
d="M448 267c0 141 -67 203 -144 203c-92 0 -139 -72 -139 -203s47 -203 139 -203c77 0 144 62 144 203zM444 457v81h92v-538h-91l-1 77c-31 -52 -78 -90 -159 -90c-124 0 -217 101 -217 280s93 280 217 280c81 0 128 -38 159 -90z" />
    <glyph glyph-name="aacute.ss01" 
d="M488 725l-131 -116h-76l90 116h117zM448 267c0 141 -67 203 -144 203c-92 0 -139 -72 -139 -203s47 -203 139 -203c77 0 144 62 144 203zM444 457v81h92v-538h-91l-1 77c-31 -52 -78 -90 -159 -90c-124 0 -217 101 -217 280s93 280 217 280c81 0 128 -38 159 -90z" />
    <glyph glyph-name="abreve.ss01" 
d="M448 267c0 141 -67 203 -144 203c-92 0 -139 -72 -139 -203s47 -203 139 -203c77 0 144 62 144 203zM444 457v81h92v-538h-91l-1 77c-31 -52 -78 -90 -159 -90c-124 0 -217 101 -217 280s93 280 217 280c81 0 128 -38 159 -90zM414 725h71c-8 -72 -44 -132 -159 -132
c-111 0 -154 60 -159 132h71c4 -43 30 -72 89 -72s83 29 87 72z" />
    <glyph glyph-name="acircumflex.ss01" 
d="M448 267c0 141 -67 203 -144 203c-92 0 -139 -72 -139 -203s47 -203 139 -203c77 0 144 62 144 203zM444 457v81h92v-538h-91l-1 77c-31 -52 -78 -90 -159 -90c-124 0 -217 101 -217 280s93 280 217 280c81 0 128 -38 159 -90zM371 725l129 -116h-96l-78 54l-80 -54h-95
l132 116h88z" />
    <glyph glyph-name="adieresis.ss01" 
d="M448 267c0 141 -67 203 -144 203c-92 0 -139 -72 -139 -203s47 -203 139 -203c77 0 144 62 144 203zM444 457v81h92v-538h-91l-1 77c-31 -52 -78 -90 -159 -90c-124 0 -217 101 -217 280s93 280 217 280c81 0 128 -38 159 -90zM166 609v99h91v-99h-91zM395 708h91v-99
h-91v99z" />
    <glyph glyph-name="agrave.ss01" 
d="M448 267c0 141 -67 203 -144 203c-92 0 -139 -72 -139 -203s47 -203 139 -203c77 0 144 62 144 203zM444 457v81h92v-538h-91l-1 77c-31 -52 -78 -90 -159 -90c-124 0 -217 101 -217 280s93 280 217 280c81 0 128 -38 159 -90zM304 609l-130 116h116l91 -116h-77z" />
    <glyph glyph-name="amacron.ss01" 
d="M448 267c0 141 -67 203 -144 203c-92 0 -139 -72 -139 -203s47 -203 139 -203c77 0 144 62 144 203zM444 457v81h92v-538h-91l-1 77c-31 -52 -78 -90 -159 -90c-124 0 -217 101 -217 280s93 280 217 280c81 0 128 -38 159 -90zM477 623h-300v76h300v-76z" />
    <glyph glyph-name="aogonek.ss01" 
d="M444 457v81h92v-538c-51 -25 -90 -54 -90 -85s31 -43 66 -43c19 0 36 3 49 9v-61c-17 -7 -41 -12 -69 -12c-59 0 -129 27 -129 94c0 41 27 74 82 98l-1 77c-31 -52 -78 -90 -159 -90c-124 0 -217 101 -217 280s93 280 217 280c81 0 128 -38 159 -90zM448 267
c0 141 -67 203 -144 203c-92 0 -139 -72 -139 -203s47 -203 139 -203c77 0 144 62 144 203z" />
    <glyph glyph-name="aring.ss01" 
d="M448 267c0 141 -67 203 -144 203c-92 0 -139 -72 -139 -203s47 -203 139 -203c77 0 144 62 144 203zM444 457v81h92v-538h-91l-1 77c-31 -52 -78 -90 -159 -90c-124 0 -217 101 -217 280s93 280 217 280c81 0 128 -38 159 -90zM326 760c51 0 91 -36 91 -85
c0 -51 -40 -85 -91 -85s-90 34 -90 85c0 49 41 85 90 85zM326 718c-23 0 -43 -19 -43 -43c0 -25 20 -42 43 -42s43 17 43 42c0 24 -20 43 -43 43z" />
    <glyph glyph-name="atilde.ss01" 
d="M448 267c0 141 -67 203 -144 203c-92 0 -139 -72 -139 -203s47 -203 139 -203c77 0 144 62 144 203zM444 457v81h92v-538h-91l-1 77c-31 -52 -78 -90 -159 -90c-124 0 -217 101 -217 280s93 280 217 280c81 0 128 -38 159 -90zM392 673c28 0 44 15 48 45h71
c-13 -83 -64 -113 -117 -113c-61 0 -92 47 -135 47c-27 0 -42 -15 -45 -44h-71c12 77 58 112 115 112c62 0 88 -47 134 -47z" />
    <glyph glyph-name="germandbls.ss03" 
d="M171 -175h-91v668c0 163 78 245 235 245c127 0 207 -65 207 -172c0 -72 -33 -125 -108 -157c85 -21 150 -84 150 -196c0 -167 -115 -226 -248 -226c-35 0 -76 4 -109 11l19 87c27 -9 63 -13 94 -13c84 0 147 32 147 140c0 106 -84 149 -204 149h-3v82h2
c108 0 168 38 168 110c0 64 -40 106 -117 106c-104 0 -142 -52 -142 -171v-663z" />
  </font>
</defs>
</svg>
