<?xml version="1.0" standalone="no"?>
<!DOCTYPE svg PUBLIC "-//W3C//DTD SVG 1.1//EN" "http://www.w3.org/Graphics/SVG/1.1/DTD/svg11.dtd" >
<svg xmlns="http://www.w3.org/2000/svg" xmlns:xlink="http://www.w3.org/1999/xlink" version="1.1">
<metadata>
Created by FontForge 20201107 at Sun Jul 24 17:32:18 2016
 By Unknown
Copyright \(c\) 2015 Swiss Typefaces. All rights reserved.
</metadata>
<defs>
<font id="SuisseIntlMono-Bold" horiz-adv-x="646" >
  <font-face 
    font-family="Suisse Int'l Mono"
    font-weight="700"
    font-stretch="normal"
    units-per-em="1000"
    panose-1="2 11 8 9 0 0 0 0 0 0"
    ascent="800"
    descent="-200"
    x-height="538"
    cap-height="725"
    bbox="-53 -231 727 921"
    underline-thickness="100"
    underline-position="-110"
    unicode-range="U+000D-FB02"
  />
<missing-glyph 
d="M73 0v725h500v-725h-500zM312 362l-220 334v-667zM333 362l221 -333v667zM323 346l-217 -327h433zM106 706l217 -328l216 328h-433z" />
    <glyph glyph-name=".notdef" 
d="M73 0v725h500v-725h-500zM312 362l-220 334v-667zM333 362l221 -333v667zM323 346l-217 -327h433zM106 706l217 -328l216 328h-433z" />
    <glyph glyph-name="NULL" 
 />
    <glyph glyph-name="uni000D" unicode="&#xd;" 
 />
    <glyph glyph-name="space" unicode=" " 
 />
    <glyph glyph-name="exclam" unicode="!" 
d="M367 231h-88l-49 296v198h186v-198zM416 0h-186v178h186v-178z" />
    <glyph glyph-name="quotedbl" unicode="&#x22;" 
d="M168 725h145l-20 -259h-106zM333 725h145l-20 -259h-106z" />
    <glyph glyph-name="numbersign" unicode="#" 
d="M77 528h127l28 197h89l-28 -197h104l28 197h90l-28 -197h127l-14 -87h-125l-18 -132h125l-14 -87h-123l-30 -222h-90l30 222h-104l-30 -222h-89l30 222h-130l13 87h129l18 132h-129zM281 441l-18 -132h104l18 132h-104z" />
    <glyph glyph-name="dollar" unicode="$" 
d="M72 528c0 132 105 195 217 208v79h58v-78c113 -8 212 -77 228 -228h-144c-8 60 -37 100 -84 112v-184l29 -7c96 -24 214 -71 214 -218c0 -157 -123 -222 -243 -225v-99h-58v103c-133 19 -214 110 -229 249h145c8 -64 36 -111 84 -131v198l-30 8c-97 24 -187 95 -187 213z
M441 188c0 49 -31 84 -94 103v-191c53 3 94 36 94 88zM220 542c0 -40 21 -70 69 -89v169c-41 -9 -69 -40 -69 -80z" />
    <glyph glyph-name="percent" unicode="%" 
d="M165 405c-89 0 -133 64 -133 167c0 100 44 165 133 165c88 0 132 -65 132 -165c0 -103 -44 -167 -132 -167zM165 476c35 0 52 29 52 96c0 65 -17 94 -52 94s-53 -29 -53 -94c0 -67 18 -96 53 -96zM125 0h-104l500 725h104zM487 -13c-88 0 -132 66 -132 167
c0 100 44 166 132 166c89 0 133 -66 133 -166c0 -101 -44 -167 -133 -167zM487 58c35 0 53 29 53 96s-18 95 -53 95s-52 -28 -52 -95s17 -96 52 -96z" />
    <glyph glyph-name="ampersand" unicode="&#x26;" 
d="M240 -13c-144 0 -219 101 -219 219c0 98 65 163 135 201c-45 67 -58 114 -58 169c0 91 79 162 190 162c87 0 181 -49 181 -165c0 -80 -59 -151 -131 -188l87 -114c16 47 25 98 26 153h129c-3 -88 -31 -180 -76 -256l129 -168h-164l-47 61c-51 -49 -106 -74 -182 -74z
M262 90c43 0 71 22 95 55l-137 176c-39 -29 -54 -74 -54 -118c0 -53 35 -113 96 -113zM230 578c0 -31 8 -60 47 -113c44 24 72 67 72 111c0 39 -26 60 -57 60c-35 0 -62 -21 -62 -58z" />
    <glyph glyph-name="quotesingle" unicode="'" 
d="M250 725h145l-20 -259h-106z" />
    <glyph glyph-name="parenleft" unicode="(" 
d="M191 275c0 200 78 363 137 451h126c-67 -111 -121 -267 -121 -451c0 -185 54 -341 121 -450h-126c-59 88 -137 251 -137 450z" />
    <glyph glyph-name="parenright" unicode=")" 
d="M455 275c0 -199 -77 -362 -138 -450h-125c67 109 121 265 121 450s-54 341 -121 450h125c61 -88 138 -251 138 -450z" />
    <glyph glyph-name="asterisk" unicode="*" 
d="M367 725v-104l99 38l34 -86l-103 -36l62 -85l-72 -54l-65 88l-59 -88l-79 53l62 85l-100 37l32 86l97 -38v104h92z" />
    <glyph glyph-name="plus" unicode="+" 
d="M385 0h-124v207h-216v120h216v211h124v-211h216v-120h-216v-207z" />
    <glyph glyph-name="comma" unicode="," 
d="M230 0v178h186v-188l-104 -148h-97l87 158h-72z" />
    <glyph glyph-name="hyphen" unicode="-" 
d="M500 196h-354v139h354v-139z" />
    <glyph glyph-name="period" unicode="." 
d="M416 0h-186v178h186v-178z" />
    <glyph glyph-name="slash" unicode="/" 
d="M247 0h-128l280 725h128z" />
    <glyph glyph-name="zero" unicode="0" 
d="M323 -13c-179 0 -263 132 -263 376c0 243 84 375 263 375s263 -132 263 -375c0 -244 -84 -376 -263 -376zM323 94c84 0 115 92 115 269v6l-227 -104c11 -115 44 -171 112 -171zM207 363v-6l226 105c-11 113 -43 170 -110 170c-85 0 -116 -92 -116 -269z" />
    <glyph glyph-name="one" unicode="1" 
d="M70 108h199v390h-199v108c160 3 207 40 233 119h110v-617h167v-108h-510v108z" />
    <glyph glyph-name="two" unicode="2" 
d="M332 735c132 0 233 -76 233 -208c0 -122 -89 -225 -225 -340l-79 -69h300v-118h-488v117l151 132c114 99 197 190 197 275c0 72 -47 100 -91 100c-64 0 -112 -53 -109 -161h-140c-5 179 106 272 251 272z" />
    <glyph glyph-name="three" unicode="3" 
d="M56 228h143c8 -85 53 -134 120 -134c65 0 108 37 108 105s-55 107 -135 107h-42v129h37c81 0 132 35 132 107c0 51 -33 90 -100 90c-66 0 -103 -39 -111 -116h-142c16 144 116 222 259 222c112 0 239 -58 239 -190c0 -77 -44 -135 -88 -165c63 -29 99 -105 99 -172
c0 -149 -128 -224 -259 -224c-147 0 -243 82 -260 241z" />
    <glyph glyph-name="four" unicode="4" 
d="M348 531l-179 -254h179v254zM590 277v-130h-98v-147h-144v147h-318v123l328 455h134v-448h98z" />
    <glyph glyph-name="five" unicode="5" 
d="M321 94c64 0 113 50 113 146c0 97 -58 138 -113 138c-51 0 -89 -28 -108 -77l-131 15l60 409h409v-118h-294l-23 -150c39 29 84 38 127 38c115 0 219 -92 219 -255c0 -166 -121 -253 -261 -253c-147 0 -244 82 -261 241h143c8 -85 53 -134 120 -134z" />
    <glyph glyph-name="six" unicode="6" 
d="M213 241c0 -89 46 -147 110 -147c61 0 108 58 108 147c0 87 -47 141 -108 141c-63 0 -110 -50 -110 -141zM332 633c-68 0 -120 -63 -121 -191c31 32 80 52 143 52c114 0 223 -97 223 -253c0 -153 -110 -254 -254 -254c-180 0 -261 158 -261 362c0 212 85 389 277 389
c149 0 223 -94 231 -210h-141c-7 72 -52 105 -97 105z" />
    <glyph glyph-name="seven" unicode="7" 
d="M65 607v118h526v-118c-207 -173 -287 -332 -290 -607h-154c0 266 135 485 294 607h-376z" />
    <glyph glyph-name="eight" unicode="8" 
d="M322 627c-55 0 -104 -33 -104 -93s49 -98 104 -98s104 38 104 98s-49 93 -104 93zM322 738c147 0 247 -86 247 -195c0 -61 -23 -115 -68 -154c65 -47 85 -106 85 -174c0 -144 -117 -228 -264 -228s-263 84 -263 228c0 68 18 127 85 174c-47 39 -68 93 -68 154
c0 109 100 195 246 195zM322 98c67 0 117 46 117 117c0 72 -50 114 -117 114s-117 -42 -117 -114c0 -71 50 -117 117 -117z" />
    <glyph glyph-name="nine" unicode="9" 
d="M432 487c0 88 -46 145 -110 145c-61 0 -107 -57 -107 -145c0 -87 46 -142 107 -142c64 0 110 50 110 142zM314 93c68 0 119 65 120 193c-31 -33 -79 -53 -143 -53c-115 0 -222 99 -222 254c0 153 109 251 253 251c180 0 262 -149 262 -360c0 -213 -86 -391 -278 -391
c-148 0 -223 96 -231 211h141c7 -72 53 -105 98 -105z" />
    <glyph glyph-name="colon" unicode=":" 
d="M416 360h-186v178h186v-178zM416 0h-186v178h186v-178z" />
    <glyph glyph-name="semicolon" unicode=";" 
d="M416 360h-186v178h186v-178zM230 0v178h186v-188l-104 -148h-97l87 158h-72z" />
    <glyph glyph-name="less" unicode="&#x3c;" 
d="M55 324l516 220v-134l-364 -143l364 -143v-135l-516 221v114z" />
    <glyph glyph-name="equal" unicode="=" 
d="M577 314h-508v120h508v-120zM577 104h-508v121h508v-121z" />
    <glyph glyph-name="greater" unicode="&#x3e;" 
d="M591 324v-114l-516 -221v135l365 143l-365 143v134z" />
    <glyph glyph-name="question" unicode="?" 
d="M326 738c131 0 258 -58 258 -186c0 -178 -226 -158 -226 -299v-23h-146c-1 15 -1 27 -1 40c0 173 219 164 219 275c0 47 -39 78 -106 78c-81 0 -131 -54 -131 -137h-144c0 158 119 252 277 252zM379 0h-186v178h186v-178z" />
    <glyph glyph-name="at" unicode="@" 
d="M318 502c-56 0 -89 -82 -89 -159c0 -67 21 -111 62 -111c58 0 90 84 90 165c0 60 -22 105 -63 105zM472 156c-41 0 -73 33 -80 93c-23 -57 -63 -94 -119 -94c-63 0 -121 62 -121 187c0 115 65 235 165 235c44 0 77 -30 92 -77l6 60h61l-24 -220c-3 -36 -15 -113 30 -113
c40 0 75 80 75 181c-3 173 -88 260 -221 260c-147 0 -245 -140 -245 -314c0 -165 73 -299 214 -299c49 0 109 16 153 45l24 -68c-55 -31 -124 -45 -177 -45c-183 0 -289 143 -289 369c0 214 146 382 322 382c152 0 296 -99 296 -326c0 -163 -71 -256 -162 -256z" />
    <glyph glyph-name="A" unicode="A" 
d="M43 0l186 725h187l187 -725h-164l-33 151h-170l-33 -151h-160zM322 534l-60 -266h118z" />
    <glyph glyph-name="B" unicode="B" 
d="M93 0v725h225c139 0 246 -36 246 -187c0 -63 -30 -116 -78 -149c60 -27 103 -76 103 -164c0 -162 -105 -225 -259 -225h-237zM243 427h73c61 0 91 29 91 88s-30 88 -91 88h-73v-176zM430 220c0 65 -31 97 -106 97h-81v-193h81c75 0 106 32 106 96z" />
    <glyph glyph-name="C" unicode="C" 
d="M444 252h149c-19 -172 -98 -265 -262 -265c-189 0 -280 140 -280 376c0 235 96 375 285 375c159 0 238 -105 251 -264h-147c-8 100 -38 146 -110 146c-80 0 -120 -76 -120 -257c0 -185 37 -258 120 -258c65 0 107 39 114 147z" />
    <glyph glyph-name="D" unicode="D" 
d="M438 363c0 192 -76 240 -198 240h-13v-480h13c122 0 198 48 198 240zM77 725h170c197 0 350 -85 350 -362c0 -276 -157 -363 -354 -363h-166v725z" />
    <glyph glyph-name="E" unicode="E" 
d="M107 0v725h439v-129h-289v-161h269v-129h-269v-177h289v-129h-439z" />
    <glyph glyph-name="F" unicode="F" 
d="M114 0v725h446v-129h-296v-161h278v-129h-278v-306h-150z" />
    <glyph glyph-name="G" unicode="G" 
d="M596 483h-148c-7 93 -48 137 -119 137c-84 0 -128 -76 -128 -257c0 -185 44 -258 128 -258c69 0 119 56 119 148v17h-132v118h283v-388h-115l-5 90c-35 -72 -87 -103 -164 -103c-176 0 -273 140 -273 376c0 235 100 375 292 375c157 0 249 -100 262 -255z" />
    <glyph glyph-name="H" unicode="H" 
d="M428 725h150v-725h-150v306h-210v-306h-150v725h150v-290h210v290z" />
    <glyph glyph-name="I" unicode="I" 
d="M76 596v129h494v-129h-172v-467h172v-129h-494v129h172v467h-172z" />
    <glyph glyph-name="J" unicode="J" 
d="M152 725h386v-511c0 -163 -106 -227 -226 -227c-163 0 -235 114 -240 253h145c7 -80 35 -131 91 -131c48 0 80 31 80 103v383h-236v130z" />
    <glyph glyph-name="K" unicode="K" 
d="M228 725v-273l197 273h175l-209 -276l221 -449h-171l-155 311l-58 -77v-234h-150v725h150z" />
    <glyph glyph-name="L" unicode="L" 
d="M255 725v-596h338v-129h-488v725h150z" />
    <glyph glyph-name="M" unicode="M" 
d="M323 418l49 307h216v-725h-147v330l3 272h-6l-62 -369h-106l-61 369h-7l3 -272v-330h-147v725h216z" />
    <glyph glyph-name="N" unicode="N" 
d="M572 0h-189l-159 501v-501h-150v725h188l160 -500v500h150v-725z" />
    <glyph glyph-name="O" unicode="O" 
d="M198 363c0 -152 33 -258 125 -258c93 0 125 106 125 258c0 153 -32 257 -125 257c-92 0 -125 -104 -125 -257zM39 363c0 225 87 375 284 375c196 0 284 -150 284 -375s-88 -376 -284 -376c-197 0 -284 151 -284 376z" />
    <glyph glyph-name="P" unicode="P" 
d="M94 725h224c166 0 281 -54 281 -223s-115 -220 -281 -220h-74v-282h-150v725zM314 603h-70v-201h70c68 0 125 24 125 100s-57 101 -125 101z" />
    <glyph glyph-name="Q" unicode="Q" 
d="M39 363c0 225 87 375 284 375c196 0 284 -150 284 -375c0 -132 -28 -234 -92 -301l84 -119l-81 -59l-85 122c-32 -12 -69 -19 -110 -19c-197 0 -284 151 -284 376zM198 363c0 -152 33 -258 125 -258c13 0 26 2 37 6l-81 117l80 59l67 -96c15 44 22 101 22 172
c0 153 -32 257 -125 257c-92 0 -125 -104 -125 -257z" />
    <glyph glyph-name="R" unicode="R" 
d="M430 0l-143 294h-14h-43v-294h-150v725h193c165 0 290 -35 290 -215c0 -104 -54 -156 -130 -184l162 -326h-165zM278 603h-48v-191h48c72 0 126 18 126 95c0 78 -54 96 -126 96z" />
    <glyph glyph-name="S" unicode="S" 
d="M72 528c0 144 129 210 252 210c122 0 235 -68 251 -229h-144c-9 72 -50 114 -115 114c-56 0 -94 -32 -94 -81c0 -47 26 -80 91 -96l63 -16c96 -24 214 -71 214 -218c0 -157 -126 -225 -247 -225c-163 0 -267 97 -283 253h145c11 -83 55 -138 134 -138c57 0 100 31 100 86
c0 53 -35 89 -106 107l-74 20c-97 24 -187 95 -187 213z" />
    <glyph glyph-name="T" unicode="T" 
d="M248 0v596h-205v129h560v-129h-205v-596h-150z" />
    <glyph glyph-name="U" unicode="U" 
d="M69 725h150v-451c0 -105 22 -164 106 -164c82 0 102 68 102 175v440h150v-409c0 -223 -53 -329 -252 -329c-192 0 -256 84 -256 323v415z" />
    <glyph glyph-name="V" unicode="V" 
d="M602 725l-186 -725h-187l-187 725h163l118 -533l119 533h160z" />
    <glyph glyph-name="W" unicode="W" 
d="M378 532l54 -335l25 528h157l-45 -725h-184l-63 369l-62 -369h-184l-45 725h157l24 -528l54 335h112z" />
    <glyph glyph-name="X" unicode="X" 
d="M33 0l207 368l-197 357h170l113 -206l116 206h160l-198 -348l208 -377h-168l-125 226l-128 -226h-158z" />
    <glyph glyph-name="Y" unicode="Y" 
d="M323 425l129 300h171l-225 -465v-260h-150v260l-225 465h171z" />
    <glyph glyph-name="Z" unicode="Z" 
d="M572 725v-128l-337 -468h340v-129h-510v128l338 468h-313v129h482z" />
    <glyph glyph-name="bracketleft" unicode="[" 
d="M194 725h257v-100h-134v-699h134v-101h-257v900z" />
    <glyph glyph-name="backslash" unicode="\" 
d="M247 725l280 -725h-128l-280 725h128z" />
    <glyph glyph-name="bracketright" unicode="]" 
d="M195 725h257v-900h-257v101h135v699h-135v100z" />
    <glyph glyph-name="asciicircum" unicode="^" 
d="M379 725l199 -387h-134l-122 250l-121 -250h-135l199 387h114z" />
    <glyph glyph-name="underscore" unicode="_" 
d="M547 -121h-448v121h448v-121z" />
    <glyph glyph-name="grave" unicode="`" 
d="M340 609l-158 116h187l94 -116h-123z" />
    <glyph glyph-name="a" unicode="a" 
d="M422 0l-1 69c-39 -57 -92 -82 -171 -82c-92 0 -182 58 -182 157c0 137 158 164 338 188v12c0 83 -36 111 -95 111c-60 0 -96 -27 -100 -87h-129c11 106 95 184 234 184c133 0 228 -55 228 -236c0 -16 -2 -90 -2 -138c0 -149 6 -162 11 -178h-131zM410 230v14
c-140 -13 -200 -31 -200 -94c0 -40 27 -65 79 -65c89 0 121 58 121 145z" />
    <glyph glyph-name="b" unicode="b" 
d="M222 725v-255c25 51 74 80 137 80c123 0 219 -98 219 -282s-96 -281 -219 -281c-63 0 -112 29 -137 80l-1 -67h-142v725h143zM216 268c0 -115 42 -175 111 -175c68 0 107 67 107 175s-39 176 -107 176c-69 0 -111 -61 -111 -176z" />
    <glyph glyph-name="c" unicode="c" 
d="M326 550c105 0 218 -63 234 -206h-136c-8 57 -35 100 -99 100c-67 0 -104 -53 -104 -176s40 -175 104 -175c44 0 89 21 102 104h138c-19 -146 -134 -210 -242 -210c-156 0 -246 118 -246 281c0 168 91 282 249 282z" />
    <glyph glyph-name="d" unicode="d" 
d="M424 470v255h143v-725h-142l-1 67c-27 -51 -75 -80 -138 -80c-123 0 -218 97 -218 281s95 282 218 282c63 0 111 -29 138 -80zM429 268c0 115 -42 176 -111 176c-68 0 -106 -68 -106 -176s38 -175 106 -175c69 0 111 60 111 175z" />
    <glyph glyph-name="e" unicode="e" 
d="M574 232h-367c5 -99 59 -143 119 -143c57 0 91 28 102 79h137c-16 -91 -96 -181 -241 -181c-168 0 -255 112 -255 277c0 172 93 286 253 286c162 0 257 -121 252 -318zM320 447c-46 0 -105 -33 -113 -124h230c-3 99 -61 124 -117 124z" />
    <glyph glyph-name="f" unicode="f" 
d="M194 538v29c0 137 70 158 198 158h173v-107h-155c-60 0 -72 -9 -72 -50v-30h227v-108h-227v-430h-144v430h-156v108h156z" />
    <glyph glyph-name="g" unicode="g" 
d="M424 470v68h143v-483c0 -177 -94 -242 -249 -242c-107 0 -210 42 -226 173h132c9 -47 38 -70 95 -70c72 0 105 47 105 114v58c-27 -49 -75 -79 -138 -79c-123 0 -218 96 -218 270c0 173 95 271 218 271c63 0 111 -29 138 -80zM429 279c0 103 -42 165 -111 165
c-68 0 -106 -68 -106 -165s38 -165 106 -165c69 0 111 61 111 165z" />
    <glyph glyph-name="h" unicode="h" 
d="M90 725h144v-250c31 48 80 75 144 75c123 0 174 -83 174 -212v-338h-144v314c0 57 -5 125 -78 125c-81 0 -96 -71 -96 -154v-285h-144v725z" />
    <glyph glyph-name="i" unicode="i" 
d="M554 0h-457v108h156v322h-156v108h300v-430h157v-108zM253 725h144v-133h-144v133z" />
    <glyph glyph-name="j" unicode="j" 
d="M291 429h-167v109h311v-533c0 -151 -45 -180 -173 -180h-171v107h154c44 0 46 11 46 67v430zM291 725h144v-133h-144v133z" />
    <glyph glyph-name="k" unicode="k" 
d="M297 221l-61 -70v-151h-144v725h144v-395l177 208h160l-183 -209l194 -329h-159z" />
    <glyph glyph-name="l" unicode="l" 
d="M554 0h-456v108h156v510h-156v107h300v-617h156v-108z" />
    <glyph glyph-name="m" unicode="m" 
d="M388 0h-134v360c0 63 -4 81 -29 81c-29 0 -36 -28 -36 -113v-328h-140v538h140v-41c19 31 54 53 93 53c43 0 73 -20 90 -60c23 43 67 60 100 60c71 0 121 -41 121 -169v-381h-140v360c0 63 -4 81 -29 81c-29 0 -36 -28 -36 -113v-328z" />
    <glyph glyph-name="n" unicode="n" 
d="M90 538h144v-63c31 48 79 75 143 75c124 0 175 -83 175 -212v-338h-144v314c0 57 -6 125 -79 125c-81 0 -95 -71 -95 -154v-285h-144v538z" />
    <glyph glyph-name="o" unicode="o" 
d="M580 269c0 -206 -125 -282 -257 -282s-257 76 -257 282c0 205 125 281 257 281s257 -76 257 -281zM436 269c0 125 -44 175 -113 175s-113 -50 -113 -175s44 -176 113 -176s113 51 113 176z" />
    <glyph glyph-name="p" unicode="p" 
d="M223 538v-68c27 51 74 80 138 80c123 0 218 -98 218 -282s-95 -281 -218 -281c-64 0 -111 29 -138 80v-242h-144v713h144zM218 268c0 -115 42 -175 111 -175c68 0 106 67 106 175s-38 176 -106 176c-69 0 -111 -61 -111 -176z" />
    <glyph glyph-name="q" unicode="q" 
d="M424 470v68h143v-713h-143v242c-27 -51 -75 -80 -138 -80c-123 0 -218 97 -218 281s95 282 218 282c63 0 111 -29 138 -80zM429 268c0 115 -42 176 -111 176c-68 0 -106 -68 -106 -176s38 -175 106 -175c69 0 111 60 111 175z" />
    <glyph glyph-name="r" unicode="r" 
d="M75 538h276v-91c21 46 65 91 149 91h82v-115h-103c-92 0 -126 -43 -126 -148v-167h195v-108h-473v108h134v321h-134v109z" />
    <glyph glyph-name="s" unicode="s" 
d="M543 378h-124c-11 47 -47 67 -110 67c-44 0 -79 -18 -79 -47c0 -28 31 -47 70 -58l59 -14c106 -24 190 -55 190 -161c0 -114 -104 -178 -224 -178c-131 0 -219 69 -232 194h127c7 -56 44 -88 111 -88c55 0 87 19 87 55s-38 52 -83 63l-64 15c-99 24 -165 66 -165 162
c0 104 94 162 211 162c99 0 207 -49 226 -172z" />
    <glyph glyph-name="t" unicode="t" 
d="M195 538v144h144v-144h210v-109h-210v-260c0 -51 16 -61 59 -61h149v-108h-202c-117 0 -150 39 -150 146v283h-156v109h156z" />
    <glyph glyph-name="u" unicode="u" 
d="M412 0v59c-31 -49 -80 -72 -137 -72c-131 0 -181 83 -181 212v339h144v-315c0 -57 6 -125 79 -125c80 0 95 71 95 154v286h144v-538h-144z" />
    <glyph glyph-name="v" unicode="v" 
d="M198 538l129 -367l128 367h142l-203 -538h-139l-206 538h149z" />
    <glyph glyph-name="w" unicode="w" 
d="M265 435h116l49 -237l38 340h140l-67 -538h-156l-62 331l-63 -331h-156l-66 538h139l38 -340z" />
    <glyph glyph-name="x" unicode="x" 
d="M65 0l184 271l-174 267h158l95 -152l97 152h146l-175 -257l185 -281h-159l-104 166l-107 -166h-146z" />
    <glyph glyph-name="y" unicode="y" 
d="M597 538l-197 -520c-64 -165 -85 -193 -211 -193h-115v107h106c43 0 49 9 71 55l5 13l-207 538h149l131 -367l126 367h142z" />
    <glyph glyph-name="z" unicode="z" 
d="M96 0v105l279 324h-258v109h422v-105l-281 -325h288v-108h-450z" />
    <glyph glyph-name="braceleft" unicode="{" 
d="M443 725h35v-109h-16c-67 0 -80 -22 -80 -71v-132c0 -92 -42 -124 -95 -137v-2c53 -13 95 -45 95 -137v-132c0 -51 13 -71 80 -71h16v-109h-35c-139 0 -199 34 -199 173v119c0 61 -9 103 -76 103v110c67 0 76 42 76 103v119c0 139 60 173 199 173z" />
    <glyph glyph-name="bar" unicode="|" 
d="M265 725h115v-815h-115v815z" />
    <glyph glyph-name="braceright" unicode="}" 
d="M203 -175h-35v109h16c67 0 80 20 80 71v132c0 92 42 124 95 137v2c-53 13 -95 45 -95 137v132c0 49 -13 71 -80 71h-16v109h35c139 0 199 -34 199 -173v-119c0 -61 9 -103 76 -103v-110c-67 0 -76 -42 -76 -103v-119c0 -139 -60 -173 -199 -173z" />
    <glyph glyph-name="asciitilde" unicode="~" 
d="M413 292c35 0 56 16 57 68h98c-4 -116 -48 -187 -149 -187c-73 0 -125 69 -188 69c-33 0 -56 -16 -57 -69h-97c4 115 46 187 149 187c83 0 131 -68 187 -68z" />
    <glyph glyph-name="uni00A0" unicode="&#xa0;" 
 />
    <glyph glyph-name="exclamdown" unicode="&#xa1;" 
d="M278 308h89l49 -296v-187h-186v187zM416 360h-186v178h186v-178z" />
    <glyph glyph-name="cent" unicode="&#xa2;" 
d="M299 620h51v-71c98 -8 194 -74 210 -205h-136c-7 49 -27 86 -74 97v-346c35 8 66 34 77 102h138c-19 -134 -115 -197 -215 -208v-78h-51v77c-142 11 -222 125 -222 280c0 158 82 267 222 280v72zM221 268c0 -104 29 -159 78 -172v345c-51 -15 -78 -69 -78 -173z" />
    <glyph glyph-name="sterling" unicode="&#xa3;" 
d="M332 627c-52 0 -81 -36 -81 -88s26 -99 49 -148h160v-75h-134c3 -11 4 -22 4 -34c0 -63 -45 -125 -100 -166l1 -1c25 17 60 21 87 21c48 0 74 -24 114 -24c35 0 62 10 94 31l50 -115c-44 -27 -92 -41 -156 -41c-69 0 -104 39 -169 39c-27 0 -71 -4 -126 -39l-53 126
c76 41 116 86 116 165c0 12 -2 25 -6 38h-122v75h89c-23 45 -46 94 -46 153c0 135 110 194 227 194c145 0 247 -93 244 -253h-140c3 96 -43 142 -102 142z" />
    <glyph glyph-name="currency" unicode="&#xa4;" 
d="M84 346c0 52 16 100 44 139l-69 70l49 49l68 -68c40 31 89 49 144 49c56 0 107 -19 147 -51l71 70l49 -49l-72 -72c27 -39 44 -86 44 -137s-16 -98 -44 -137l72 -71l-49 -49l-71 70c-41 -31 -91 -49 -147 -49c-55 0 -103 17 -143 48l-69 -69l-49 49l69 70
c-28 39 -44 86 -44 138zM195 346c0 -74 51 -133 124 -133c78 0 132 59 132 133c0 77 -54 137 -132 137c-73 0 -124 -60 -124 -137z" />
    <glyph glyph-name="yen" unicode="&#xa5;" 
d="M323 425l129 300h171l-185 -381h89v-88h-129v-80h129v-88h-129v-88h-150v88h-130v88h130v80h-130v88h89l-184 381h171z" />
    <glyph glyph-name="brokenbar" unicode="&#xa6;" 
d="M265 725h115v-305h-115v305zM265 215h115v-305h-115v305z" />
    <glyph glyph-name="section" unicode="&#xa7;" 
d="M322 -87c49 0 83 31 83 75c0 43 -25 68 -85 100l-120 61c-87 45 -137 103 -137 179c0 60 36 105 92 137c-28 31 -45 68 -45 113c0 102 106 160 208 160c119 0 208 -71 221 -188h-121c-9 53 -46 89 -103 89c-51 0 -80 -22 -80 -53c0 -37 26 -56 71 -80l130 -69
c91 -48 147 -95 147 -172c0 -61 -38 -112 -99 -145c31 -32 48 -70 48 -119c0 -115 -97 -187 -214 -187c-125 0 -218 85 -226 220h121c11 -76 42 -121 109 -121zM368 335l-137 72c-28 -13 -45 -37 -45 -65c0 -39 29 -62 72 -83l127 -68l21 -13c31 19 50 42 50 67
c0 35 -31 59 -88 90z" />
    <glyph glyph-name="dieresis" unicode="&#xa8;" 
d="M137 609v116h148v-116h-148zM360 725h148v-116h-148v116z" />
    <glyph glyph-name="copyright" unicode="&#xa9;" 
d="M44 457c0 166 124 281 279 281c154 0 279 -115 279 -281c0 -165 -125 -278 -279 -278c-155 0 -279 113 -279 278zM324 370c35 0 63 16 70 57l78 -18c-17 -60 -71 -104 -151 -104c-93 0 -149 63 -149 154s60 151 152 151c76 0 132 -44 145 -107l-77 -20
c-4 35 -29 64 -68 64s-70 -31 -70 -88s29 -89 70 -89zM93 457c0 -139 99 -233 230 -233c132 0 228 94 228 233s-96 236 -228 236c-131 0 -230 -97 -230 -236z" />
    <glyph glyph-name="ordfeminine" unicode="&#xaa;" 
d="M274 635l-89 1c7 64 53 102 148 102c91 0 133 -34 132 -118c0 -16 -1 -65 -1 -79c0 -35 2 -72 6 -111h-88l-1 33c-16 -25 -45 -41 -94 -41c-72 0 -111 47 -111 100c0 28 9 49 27 64c27 21 76 30 124 35l44 4v9c0 25 -16 38 -47 38c-27 0 -47 -10 -50 -37zM373 547v18
l-45 -4c-41 -4 -56 -17 -56 -36s14 -34 41 -34c35 0 60 17 60 56z" />
    <glyph glyph-name="guillemotleft" unicode="&#xab;" 
d="M231 43l-159 230l159 229h136l-136 -229l136 -230h-136zM452 43l-159 230l159 229h136l-136 -229l136 -230h-136z" />
    <glyph glyph-name="logicalnot" unicode="&#xac;" 
d="M457 308h-431v120h556v-335h-125v215z" />
    <glyph glyph-name="uni00AD" unicode="&#xad;" 
d="M500 196h-354v139h354v-139z" />
    <glyph glyph-name="registered" unicode="&#xae;" 
d="M44 457c0 166 124 281 279 281c153 0 279 -115 279 -281c0 -165 -126 -278 -279 -278c-155 0 -279 113 -279 278zM93 457c0 -139 99 -233 230 -233c132 0 228 94 228 233s-96 236 -228 236c-131 0 -230 -97 -230 -236zM315 425h-40v-107h-80v298h120
c77 0 137 -21 137 -97c0 -47 -22 -70 -55 -82l74 -119h-90l-63 107h-3zM372 519c0 17 -10 35 -37 35h-60v-67h60c27 0 37 15 37 32z" />
    <glyph glyph-name="overscore" unicode="&#xaf;" 
d="M479 617h-313v108h313v-108z" />
    <glyph glyph-name="degree" unicode="&#xb0;" 
d="M162 577c0 89 72 161 160 161c91 0 162 -72 162 -161c0 -88 -71 -160 -162 -160c-88 0 -160 72 -160 160zM249 577c0 -43 30 -79 73 -79c44 0 76 36 76 79c0 44 -32 80 -76 80c-43 0 -73 -36 -73 -80z" />
    <glyph glyph-name="plusminus" unicode="&#xb1;" 
d="M260 407v131h127v-131h214v-120h-214v-131h-127v131h-215v120h215zM601 0h-556v121h556v-121z" />
    <glyph glyph-name="twosuperior" unicode="&#xb2;" horiz-adv-x="647" 
d="M333 853c87 0 154 -37 154 -117c0 -81 -69 -134 -173 -203h172v-95h-326v88c72 51 215 137 215 201c0 31 -20 43 -47 43c-35 0 -60 -23 -63 -75h-105c1 101 65 158 173 158z" />
    <glyph glyph-name="threesuperior" unicode="&#xb3;" 
d="M327 513c37 0 55 19 55 42c0 33 -27 45 -80 45h-20v91h20c47 0 71 14 71 43c0 25 -25 36 -50 36c-31 0 -58 -17 -61 -49h-108c11 87 76 132 177 132c88 0 154 -40 154 -111c0 -43 -25 -75 -54 -90c39 -15 66 -50 66 -97c0 -81 -81 -125 -172 -125
c-101 0 -167 53 -176 142h107c7 -39 34 -59 71 -59z" />
    <glyph glyph-name="acute" unicode="&#xb4;" 
d="M463 725l-158 -116h-123l94 116h187z" />
    <glyph glyph-name="mu" unicode="&#xb5;" 
d="M207 -175h-122c8 52 11 96 11 161v552h123v-279c0 -86 28 -165 109 -165c80 0 108 79 108 165v279h124v-538h-124v58c-31 -53 -71 -64 -108 -64s-80 12 -109 64v-67c0 -72 -3 -115 -12 -166z" />
    <glyph glyph-name="mu" unicode="&#x3bc;" 
d="M207 -175h-122c8 52 11 96 11 161v552h123v-279c0 -86 28 -165 109 -165c80 0 108 79 108 165v279h124v-538h-124v58c-31 -53 -71 -64 -108 -64s-80 12 -109 64v-67c0 -72 -3 -115 -12 -166z" />
    <glyph glyph-name="paragraph" unicode="&#xb6;" 
d="M67 554c0 108 92 171 228 171h213v-815h-82v739h-111v-739h-82v474c-73 8 -166 50 -166 170z" />
    <glyph glyph-name="middot" unicode="&#xb7;" 
d="M416 180h-186v178h186v-178z" />
    <glyph glyph-name="cedilla" unicode="&#xb8;" 
d="M206 -187l17 54c12 -7 40 -14 65 -14c27 0 49 6 49 29c0 19 -16 28 -40 28c-12 0 -28 -2 -39 -9l-30 17l52 83h61l-32 -52c8 3 20 4 36 4c41 0 94 -17 94 -68c0 -63 -70 -86 -139 -86c-33 0 -67 5 -94 14z" />
    <glyph glyph-name="onesuperior" unicode="&#xb9;" horiz-adv-x="647" 
d="M494 438h-314v91h107v174h-91v80c71 3 99 20 115 63h86v-317h97v-91z" />
    <glyph glyph-name="ordmasculine" unicode="&#xba;" 
d="M263 580c0 -56 24 -84 59 -84c37 0 60 28 60 84c0 57 -23 85 -60 85c-35 0 -59 -28 -59 -85zM164 580c0 108 73 158 158 158s159 -50 159 -158c0 -107 -74 -157 -159 -157s-158 50 -158 157z" />
    <glyph glyph-name="guillemotright" unicode="&#xbb;" 
d="M354 273l-159 -230h-135l135 230l-135 229h135zM575 273l-159 -230h-135l135 230l-135 229h135z" />
    <glyph glyph-name="onequarter" unicode="&#xbc;" 
d="M80 317v300h-65v58c57 3 66 4 80 50h73v-408h-88zM142 0l213 725h66l-213 -725h-66zM497 0v96h-146v65l141 247h90v-240h49v-72h-49v-96h-85zM421 168h76v127z" />
    <glyph glyph-name="onehalf" unicode="&#xbd;" 
d="M80 317v300h-65v58c57 3 66 4 80 50h73v-408h-88zM142 0l213 725h66l-213 -725h-66zM375 0v67l46 57c80 99 109 145 109 187c0 25 -5 44 -32 44c-23 0 -29 -18 -29 -69v-6h-91v5c0 88 39 130 128 130c80 0 120 -35 120 -98c0 -60 -38 -116 -102 -196l-39 -50h142v-71
h-252z" />
    <glyph glyph-name="threequarters" unicode="&#xbe;" 
d="M124 309c-69 0 -121 29 -121 121v2h88v-2c0 -40 6 -61 34 -61c37 0 42 29 42 64s-2 63 -50 63h-26v63h24c35 0 39 24 39 56c0 33 -3 57 -34 57c-21 0 -28 -9 -28 -56v-2h-88v2c0 90 54 116 121 116c70 0 125 -23 125 -107c0 -57 -33 -82 -58 -90c47 -15 72 -46 72 -102
c0 -92 -52 -124 -140 -124zM196 0l213 725h66l-213 -725h-66zM512 0v96h-146v65l141 247h90v-240h49v-72h-49v-96h-85zM436 168h76v127z" />
    <glyph glyph-name="questiondown" unicode="&#xbf;" 
d="M307 -186c-133 0 -258 55 -258 182c0 93 67 139 135 176c61 32 91 53 91 116v20h146c1 -15 1 -24 1 -37c0 -100 -58 -138 -117 -173c-43 -24 -102 -58 -102 -100c0 -40 39 -69 103 -69c72 0 135 50 135 133h144c0 -158 -120 -248 -278 -248zM441 360h-186v178h186v-178z
" />
    <glyph glyph-name="Agrave" unicode="&#xc0;" 
d="M43 0l186 725h187l187 -725h-164l-33 151h-170l-33 -151h-160zM322 534l-60 -266h118zM273 761l-160 113h201l105 -113h-146z" />
    <glyph glyph-name="Aacute" unicode="&#xc1;" 
d="M43 0l186 725h187l187 -725h-164l-33 151h-170l-33 -151h-160zM322 534l-60 -266h118zM538 874l-161 -113h-145l104 113h202z" />
    <glyph glyph-name="Acircumflex" unicode="&#xc2;" 
d="M43 0l186 725h187l187 -725h-164l-33 151h-170l-33 -151h-160zM322 534l-60 -266h118zM405 874l138 -113h-164l-55 50l-59 -50h-162l140 113h162z" />
    <glyph glyph-name="Atilde" unicode="&#xc3;" 
d="M43 0l186 725h187l187 -725h-164l-33 151h-170l-33 -151h-160zM322 534l-60 -266h118zM383 837c31 0 50 12 55 37h97c-18 -100 -100 -115 -145 -115c-65 0 -89 36 -129 36c-31 0 -48 -12 -53 -36h-97c19 100 99 115 144 115c65 0 83 -37 128 -37z" />
    <glyph glyph-name="Adieresis" unicode="&#xc4;" 
d="M43 0l186 725h187l187 -725h-164l-33 151h-170l-33 -151h-160zM322 534l-60 -266h118zM134 874h148v-113h-148v113zM364 874h148v-113h-148v113z" />
    <glyph glyph-name="Aring" unicode="&#xc5;" 
d="M43 0l186 725h187l187 -725h-164l-33 151h-170l-33 -151h-160zM322 534l-60 -266h118zM323 921c51 0 91 -34 91 -85c0 -49 -40 -85 -91 -85s-91 36 -91 85c0 51 42 85 91 85zM323 879c-23 0 -43 -18 -43 -43c0 -24 20 -42 43 -42s43 18 43 42c0 25 -20 43 -43 43z" />
    <glyph glyph-name="AE" unicode="&#xc6;" 
d="M322 725h288v-129h-138v-162h119v-129h-119v-176h138v-129h-288v151h-104l-58 -151h-160zM322 417l-62 -160l62 1v159z" />
    <glyph glyph-name="Ccedilla" unicode="&#xc7;" 
d="M444 252h149c-19 -172 -98 -265 -262 -265c-189 0 -280 140 -280 376c0 235 96 375 285 375c159 0 238 -105 251 -264h-147c-8 100 -38 146 -110 146c-80 0 -120 -76 -120 -257c0 -185 37 -258 120 -258c65 0 107 39 114 147zM236 -187l17 54c12 -7 39 -14 66 -14
s49 6 49 29c0 19 -17 28 -41 28c-11 0 -27 -2 -38 -9l-30 17l51 83h62l-33 -52c9 3 21 4 37 4c41 0 94 -17 94 -68c0 -63 -70 -86 -139 -86c-35 0 -67 5 -95 14z" />
    <glyph glyph-name="Egrave" unicode="&#xc8;" 
d="M107 0v725h439v-129h-289v-161h269v-129h-269v-177h289v-129h-439zM274 761l-160 113h201l105 -113h-146z" />
    <glyph glyph-name="Eacute" unicode="&#xc9;" 
d="M107 0v725h439v-129h-289v-161h269v-129h-269v-177h289v-129h-439zM543 874l-161 -113h-145l104 113h202z" />
    <glyph glyph-name="Ecircumflex" unicode="&#xca;" 
d="M107 0v725h439v-129h-289v-161h269v-129h-269v-177h289v-129h-439zM410 874l138 -113h-164l-55 50l-59 -50h-162l140 113h162z" />
    <glyph glyph-name="Edieresis" unicode="&#xcb;" 
d="M107 0v725h439v-129h-289v-161h269v-129h-269v-177h289v-129h-439zM134 874h148v-113h-148v113zM364 874h148v-113h-148v113z" />
    <glyph glyph-name="Igrave" unicode="&#xcc;" 
d="M76 596v129h494v-129h-172v-467h172v-129h-494v129h172v467h-172zM260 761l-160 113h201l105 -113h-146z" />
    <glyph glyph-name="Iacute" unicode="&#xcd;" 
d="M76 596v129h494v-129h-172v-467h172v-129h-494v129h172v467h-172zM554 874l-161 -113h-145l104 113h202z" />
    <glyph glyph-name="Icircumflex" unicode="&#xce;" 
d="M76 596v129h494v-129h-172v-467h172v-129h-494v129h172v467h-172zM405 874l138 -113h-164l-55 50l-59 -50h-162l140 113h162z" />
    <glyph glyph-name="Idieresis" unicode="&#xcf;" 
d="M76 596v129h494v-129h-172v-467h172v-129h-494v129h172v467h-172zM134 874h148v-113h-148v113zM364 874h148v-113h-148v113z" />
    <glyph glyph-name="Eth" unicode="&#xd0;" 
d="M90 725h170c197 0 350 -85 350 -362c0 -276 -157 -363 -354 -363h-166v302h-55v129h55v294zM451 363c0 192 -76 240 -198 240h-13v-172h127v-129h-127v-179h13c122 0 198 48 198 240z" />
    <glyph glyph-name="Ntilde" unicode="&#xd1;" 
d="M572 0h-189l-159 501v-501h-150v725h188l160 -500v500h150v-725zM383 837c31 0 50 12 55 37h97c-18 -100 -100 -115 -145 -115c-65 0 -89 36 -129 36c-31 0 -48 -12 -53 -36h-97c19 100 99 115 144 115c65 0 83 -37 128 -37z" />
    <glyph glyph-name="Ograve" unicode="&#xd2;" 
d="M198 363c0 -152 33 -258 125 -258c93 0 125 106 125 258c0 153 -32 257 -125 257c-92 0 -125 -104 -125 -257zM39 363c0 225 87 375 284 375c196 0 284 -150 284 -375s-88 -376 -284 -376c-197 0 -284 151 -284 376zM272 761l-160 113h201l105 -113h-146z" />
    <glyph glyph-name="Oacute" unicode="&#xd3;" 
d="M198 363c0 -152 33 -258 125 -258c93 0 125 106 125 258c0 153 -32 257 -125 257c-92 0 -125 -104 -125 -257zM39 363c0 225 87 375 284 375c196 0 284 -150 284 -375s-88 -376 -284 -376c-197 0 -284 151 -284 376zM549 874l-161 -113h-145l104 113h202z" />
    <glyph glyph-name="Ocircumflex" unicode="&#xd4;" 
d="M198 363c0 -152 33 -258 125 -258c93 0 125 106 125 258c0 153 -32 257 -125 257c-92 0 -125 -104 -125 -257zM39 363c0 225 87 375 284 375c196 0 284 -150 284 -375s-88 -376 -284 -376c-197 0 -284 151 -284 376zM405 874l138 -113h-164l-55 50l-59 -50h-162l140 113
h162z" />
    <glyph glyph-name="Otilde" unicode="&#xd5;" 
d="M198 363c0 -152 33 -258 125 -258c93 0 125 106 125 258c0 153 -32 257 -125 257c-92 0 -125 -104 -125 -257zM39 363c0 225 87 375 284 375c196 0 284 -150 284 -375s-88 -376 -284 -376c-197 0 -284 151 -284 376zM383 837c31 0 50 12 55 37h97
c-18 -100 -100 -115 -145 -115c-65 0 -89 36 -129 36c-31 0 -48 -12 -53 -36h-97c19 100 99 115 144 115c65 0 83 -37 128 -37z" />
    <glyph glyph-name="Odieresis" unicode="&#xd6;" 
d="M198 363c0 -152 33 -258 125 -258c93 0 125 106 125 258c0 153 -32 257 -125 257c-92 0 -125 -104 -125 -257zM39 363c0 225 87 375 284 375c196 0 284 -150 284 -375s-88 -376 -284 -376c-197 0 -284 151 -284 376zM134 874h148v-113h-148v113zM364 874h148v-113h-148
v113z" />
    <glyph glyph-name="multiply" unicode="&#xd7;" 
d="M559 111l-80 -81l-161 160l-159 -159l-73 72l159 161l-157 157l81 80l157 -157l160 160l72 -74l-159 -159z" />
    <glyph glyph-name="Oslash" unicode="&#xd8;" 
d="M39 363c0 225 87 375 284 375c92 0 159 -33 206 -90l76 90l41 -35l-87 -103c33 -63 48 -142 48 -237c0 -225 -88 -376 -284 -376c-92 0 -159 32 -206 91l-77 -91l-40 36l86 102c-32 63 -47 143 -47 238zM198 363c0 -37 2 -70 6 -100l224 265c-19 59 -52 92 -105 92
c-92 0 -125 -104 -125 -257zM448 363c0 36 -2 69 -6 99l-224 -265c19 -59 52 -92 105 -92c93 0 125 106 125 258z" />
    <glyph glyph-name="Ugrave" unicode="&#xd9;" 
d="M69 725h150v-451c0 -105 22 -164 106 -164c82 0 102 68 102 175v440h150v-409c0 -223 -53 -329 -252 -329c-192 0 -256 84 -256 323v415zM252 761l-160 113h201l105 -113h-146z" />
    <glyph glyph-name="Uacute" unicode="&#xda;" 
d="M69 725h150v-451c0 -105 22 -164 106 -164c82 0 102 68 102 175v440h150v-409c0 -223 -53 -329 -252 -329c-192 0 -256 84 -256 323v415zM551 874l-161 -113h-145l104 113h202z" />
    <glyph glyph-name="Ucircumflex" unicode="&#xdb;" 
d="M69 725h150v-451c0 -105 22 -164 106 -164c82 0 102 68 102 175v440h150v-409c0 -223 -53 -329 -252 -329c-192 0 -256 84 -256 323v415zM405 874l138 -113h-164l-55 50l-59 -50h-162l140 113h162z" />
    <glyph glyph-name="Udieresis" unicode="&#xdc;" 
d="M69 725h150v-451c0 -105 22 -164 106 -164c82 0 102 68 102 175v440h150v-409c0 -223 -53 -329 -252 -329c-192 0 -256 84 -256 323v415zM134 874h148v-113h-148v113zM364 874h148v-113h-148v113z" />
    <glyph glyph-name="Yacute" unicode="&#xdd;" 
d="M323 425l129 300h171l-225 -465v-260h-150v260l-225 465h171zM555 874l-161 -113h-145l104 113h202z" />
    <glyph glyph-name="Thorn" unicode="&#xde;" 
d="M94 725h151v-135h63c166 0 291 -57 291 -226c0 -168 -125 -224 -291 -224h-64v-140h-150v725zM314 468h-69v-206h69c68 0 125 25 125 102s-57 104 -125 104z" />
    <glyph glyph-name="germandbls" unicode="&#xdf;" 
d="M236 3l31 119c26 -9 52 -14 78 -14c48 0 97 31 97 108c0 79 -60 116 -135 116h-29v114h24c69 0 105 41 105 89c0 59 -38 95 -94 95c-96 0 -112 -60 -112 -157v-473h-143v472c0 175 78 266 258 266c129 0 228 -67 228 -195c0 -65 -32 -115 -61 -139
c52 -25 104 -90 104 -183c0 -155 -98 -234 -231 -234c-36 0 -79 4 -120 16z" />
    <glyph glyph-name="agrave" unicode="&#xe0;" 
d="M422 0l-1 69c-39 -57 -92 -82 -171 -82c-92 0 -182 58 -182 157c0 137 158 164 338 188v12c0 83 -36 111 -95 111c-60 0 -96 -27 -100 -87h-129c11 106 95 184 234 184c133 0 228 -55 228 -236c0 -16 -2 -90 -2 -138c0 -149 6 -162 11 -178h-131zM410 230v14
c-140 -13 -200 -31 -200 -94c0 -40 27 -65 79 -65c89 0 121 58 121 145zM284 609l-158 116h187l94 -116h-123z" />
    <glyph glyph-name="aacute" unicode="&#xe1;" 
d="M422 0l-1 69c-39 -57 -92 -82 -171 -82c-92 0 -182 58 -182 157c0 137 158 164 338 188v12c0 83 -36 111 -95 111c-60 0 -96 -27 -100 -87h-129c11 106 95 184 234 184c133 0 228 -55 228 -236c0 -16 -2 -90 -2 -138c0 -149 6 -162 11 -178h-131zM410 230v14
c-140 -13 -200 -31 -200 -94c0 -40 27 -65 79 -65c89 0 121 58 121 145zM525 725l-158 -116h-123l94 116h187z" />
    <glyph glyph-name="acircumflex" unicode="&#xe2;" 
d="M422 0l-1 69c-39 -57 -92 -82 -171 -82c-92 0 -182 58 -182 157c0 137 158 164 338 188v12c0 83 -36 111 -95 111c-60 0 -96 -27 -100 -87h-129c11 106 95 184 234 184c133 0 228 -55 228 -236c0 -16 -2 -90 -2 -138c0 -149 6 -162 11 -178h-131zM410 230v14
c-140 -13 -200 -31 -200 -94c0 -40 27 -65 79 -65c89 0 121 58 121 145zM399 725l137 -116h-151l-61 47l-64 -47h-151l140 116h150z" />
    <glyph glyph-name="atilde" unicode="&#xe3;" 
d="M422 0l-1 69c-39 -57 -92 -82 -171 -82c-92 0 -182 58 -182 157c0 137 158 164 338 188v12c0 83 -36 111 -95 111c-60 0 -96 -27 -100 -87h-129c11 106 95 184 234 184c133 0 228 -55 228 -236c0 -16 -2 -90 -2 -138c0 -149 6 -162 11 -178h-131zM410 230v14
c-140 -13 -200 -31 -200 -94c0 -40 27 -65 79 -65c89 0 121 58 121 145zM388 681c29 0 47 15 52 44h97c-15 -84 -62 -127 -134 -127c-69 0 -97 44 -137 44c-29 0 -46 -15 -52 -44h-96c12 80 59 127 135 127c69 0 90 -44 135 -44z" />
    <glyph glyph-name="adieresis" unicode="&#xe4;" 
d="M422 0l-1 69c-39 -57 -92 -82 -171 -82c-92 0 -182 58 -182 157c0 137 158 164 338 188v12c0 83 -36 111 -95 111c-60 0 -96 -27 -100 -87h-129c11 106 95 184 234 184c133 0 228 -55 228 -236c0 -16 -2 -90 -2 -138c0 -149 6 -162 11 -178h-131zM410 230v14
c-140 -13 -200 -31 -200 -94c0 -40 27 -65 79 -65c89 0 121 58 121 145zM138 609v116h148v-116h-148zM361 725h148v-116h-148v116z" />
    <glyph glyph-name="aring" unicode="&#xe5;" 
d="M422 0l-1 69c-39 -57 -92 -82 -171 -82c-92 0 -182 58 -182 157c0 137 158 164 338 188v12c0 83 -36 111 -95 111c-60 0 -96 -27 -100 -87h-129c11 106 95 184 234 184c133 0 228 -55 228 -236c0 -16 -2 -90 -2 -138c0 -149 6 -162 11 -178h-131zM410 230v14
c-140 -13 -200 -31 -200 -94c0 -40 27 -65 79 -65c89 0 121 58 121 145zM331 775c51 0 94 -39 94 -90s-42 -89 -94 -89c-53 0 -95 37 -95 89s43 90 95 90zM331 726c-23 0 -41 -17 -41 -41c0 -23 18 -39 41 -39s41 16 41 39c0 24 -18 41 -41 41z" />
    <glyph glyph-name="ae" unicode="&#xe6;" 
d="M142 371h-104c3 100 47 179 167 179c56 0 94 -20 118 -51c29 32 67 48 112 48c129 0 188 -124 183 -319h-254c3 -96 30 -135 73 -135c37 0 60 22 67 67h110c-13 -81 -65 -173 -173 -173c-72 0 -106 30 -133 81c-32 -56 -78 -81 -137 -81c-99 0 -146 82 -146 158
c0 116 68 164 183 177l47 5v40c0 60 -19 85 -55 85c-35 0 -54 -27 -58 -81zM257 214v25l-40 -6c-63 -8 -76 -36 -76 -73c0 -35 13 -71 46 -71c47 0 70 42 70 125zM365 326h136c-4 84 -28 121 -68 121c-30 0 -63 -27 -68 -121z" />
    <glyph glyph-name="ccedilla" unicode="&#xe7;" 
d="M326 550c105 0 218 -63 234 -206h-136c-8 57 -35 100 -99 100c-67 0 -104 -53 -104 -176s40 -175 104 -175c44 0 89 21 102 104h138c-19 -146 -134 -210 -242 -210c-156 0 -246 118 -246 281c0 168 91 282 249 282zM235 -187l17 54c12 -7 40 -14 65 -14c27 0 49 6 49 29
c0 19 -16 28 -40 28c-12 0 -28 -2 -39 -9l-30 17l52 83h61l-32 -52c8 3 20 4 36 4c41 0 94 -17 94 -68c0 -63 -70 -86 -139 -86c-33 0 -67 5 -94 14z" />
    <glyph glyph-name="egrave" unicode="&#xe8;" 
d="M574 232h-367c5 -99 59 -143 119 -143c57 0 91 28 102 79h137c-16 -91 -96 -181 -241 -181c-168 0 -255 112 -255 277c0 172 93 286 253 286c162 0 257 -121 252 -318zM320 447c-46 0 -105 -33 -113 -124h230c-3 99 -61 124 -117 124zM276 609l-158 116h187l94 -116h-123
z" />
    <glyph glyph-name="eacute" unicode="&#xe9;" 
d="M574 232h-367c5 -99 59 -143 119 -143c57 0 91 28 102 79h137c-16 -91 -96 -181 -241 -181c-168 0 -255 112 -255 277c0 172 93 286 253 286c162 0 257 -121 252 -318zM320 447c-46 0 -105 -33 -113 -124h230c-3 99 -61 124 -117 124zM535 725l-158 -116h-123l94 116h187
z" />
    <glyph glyph-name="ecircumflex" unicode="&#xea;" 
d="M574 232h-367c5 -99 59 -143 119 -143c57 0 91 28 102 79h137c-16 -91 -96 -181 -241 -181c-168 0 -255 112 -255 277c0 172 93 286 253 286c162 0 257 -121 252 -318zM320 447c-46 0 -105 -33 -113 -124h230c-3 99 -61 124 -117 124zM399 725l137 -116h-151l-61 47
l-64 -47h-151l140 116h150z" />
    <glyph glyph-name="edieresis" unicode="&#xeb;" 
d="M574 232h-367c5 -99 59 -143 119 -143c57 0 91 28 102 79h137c-16 -91 -96 -181 -241 -181c-168 0 -255 112 -255 277c0 172 93 286 253 286c162 0 257 -121 252 -318zM320 447c-46 0 -105 -33 -113 -124h230c-3 99 -61 124 -117 124zM137 609v116h148v-116h-148z
M360 725h148v-116h-148v116z" />
    <glyph glyph-name="igrave" unicode="&#xec;" 
d="M554 0h-457v108h156v322h-156v108h300v-430h157v-108zM270 609l-158 116h187l94 -116h-123z" />
    <glyph glyph-name="iacute" unicode="&#xed;" 
d="M554 0h-457v108h156v322h-156v108h300v-430h157v-108zM531 725l-158 -116h-123l94 116h187z" />
    <glyph glyph-name="icircumflex" unicode="&#xee;" 
d="M554 0h-457v108h156v322h-156v108h300v-430h157v-108zM397 725l137 -116h-151l-61 47l-64 -47h-151l140 116h150z" />
    <glyph glyph-name="idieresis" unicode="&#xef;" 
d="M554 0h-457v108h156v322h-156v108h300v-430h157v-108zM137 609v116h148v-116h-148zM360 725h148v-116h-148v116z" />
    <glyph glyph-name="eth" unicode="&#xf0;" 
d="M372 698l69 47l29 -40l-56 -38c95 -80 162 -200 162 -356c0 -220 -109 -324 -261 -324c-155 0 -245 97 -245 277c0 173 103 275 219 275c44 0 99 -18 128 -61l1 1c-21 51 -56 91 -99 124l-72 -49l-29 40l58 39c-27 17 -53 31 -80 43l112 59c23 -11 44 -24 64 -37zM321 98
c69 0 111 62 111 166c0 100 -42 164 -111 164c-68 0 -106 -69 -106 -165c0 -97 38 -165 106 -165z" />
    <glyph glyph-name="ntilde" unicode="&#xf1;" 
d="M90 538h144v-63c31 48 79 75 143 75c124 0 175 -83 175 -212v-338h-144v314c0 57 -6 125 -79 125c-81 0 -95 -71 -95 -154v-285h-144v538zM384 681c29 0 47 15 52 44h97c-15 -84 -62 -127 -134 -127c-69 0 -97 44 -137 44c-29 0 -46 -15 -52 -44h-96
c12 80 59 127 135 127c69 0 90 -44 135 -44z" />
    <glyph glyph-name="ograve" unicode="&#xf2;" 
d="M580 269c0 -206 -125 -282 -257 -282s-257 76 -257 282c0 205 125 281 257 281s257 -76 257 -281zM436 269c0 125 -44 175 -113 175s-113 -50 -113 -175s44 -176 113 -176s113 51 113 176zM266 609l-158 116h187l94 -116h-123z" />
    <glyph glyph-name="oacute" unicode="&#xf3;" 
d="M580 269c0 -206 -125 -282 -257 -282s-257 76 -257 282c0 205 125 281 257 281s257 -76 257 -281zM436 269c0 125 -44 175 -113 175s-113 -50 -113 -175s44 -176 113 -176s113 51 113 176zM529 725l-158 -116h-123l94 116h187z" />
    <glyph glyph-name="ocircumflex" unicode="&#xf4;" 
d="M580 269c0 -206 -125 -282 -257 -282s-257 76 -257 282c0 205 125 281 257 281s257 -76 257 -281zM436 269c0 125 -44 175 -113 175s-113 -50 -113 -175s44 -176 113 -176s113 51 113 176zM399 725l137 -116h-151l-61 47l-64 -47h-151l140 116h150z" />
    <glyph glyph-name="otilde" unicode="&#xf5;" 
d="M580 269c0 -206 -125 -282 -257 -282s-257 76 -257 282c0 205 125 281 257 281s257 -76 257 -281zM436 269c0 125 -44 175 -113 175s-113 -50 -113 -175s44 -176 113 -176s113 51 113 176zM383 681c29 0 47 15 52 44h97c-15 -84 -62 -127 -134 -127c-69 0 -97 44 -137 44
c-29 0 -46 -15 -52 -44h-96c12 80 59 127 135 127c69 0 90 -44 135 -44z" />
    <glyph glyph-name="odieresis" unicode="&#xf6;" 
d="M580 269c0 -206 -125 -282 -257 -282s-257 76 -257 282c0 205 125 281 257 281s257 -76 257 -281zM436 269c0 125 -44 175 -113 175s-113 -50 -113 -175s44 -176 113 -176s113 51 113 176zM137 609v116h148v-116h-148zM360 725h148v-116h-148v116z" />
    <glyph glyph-name="divide" unicode="&#xf7;" 
d="M248 24v139h149v-139h-149zM248 375v139h149v-139h-149zM590 209h-534v120h534v-120z" />
    <glyph glyph-name="oslash" unicode="&#xf8;" 
d="M580 269c0 -206 -125 -282 -257 -282c-60 0 -115 15 -162 50l-43 -50l-40 36l45 51c-35 45 -57 107 -57 195c0 205 125 281 257 281c60 0 119 -15 166 -54l36 41l41 -35l-39 -45c33 -44 53 -104 53 -188zM210 269c0 -33 3 -61 9 -84l188 216c-20 29 -48 43 -84 43
c-69 0 -113 -50 -113 -175zM436 269c0 29 -3 54 -7 75l-186 -213c19 -25 45 -38 80 -38c69 0 113 51 113 176z" />
    <glyph glyph-name="ugrave" unicode="&#xf9;" 
d="M412 0v59c-31 -49 -80 -72 -137 -72c-131 0 -181 83 -181 212v339h144v-315c0 -57 6 -125 79 -125c80 0 95 71 95 154v286h144v-538h-144zM290 609l-158 116h187l94 -116h-123z" />
    <glyph glyph-name="uacute" unicode="&#xfa;" 
d="M412 0v59c-31 -49 -80 -72 -137 -72c-131 0 -181 83 -181 212v339h144v-315c0 -57 6 -125 79 -125c80 0 95 71 95 154v286h144v-538h-144zM548 725l-158 -116h-123l94 116h187z" />
    <glyph glyph-name="ucircumflex" unicode="&#xfb;" 
d="M412 0v59c-31 -49 -80 -72 -137 -72c-131 0 -181 83 -181 212v339h144v-315c0 -57 6 -125 79 -125c80 0 95 71 95 154v286h144v-538h-144zM401 725l137 -116h-151l-61 47l-64 -47h-151l140 116h150z" />
    <glyph glyph-name="udieresis" unicode="&#xfc;" 
d="M412 0v59c-31 -49 -80 -72 -137 -72c-131 0 -181 83 -181 212v339h144v-315c0 -57 6 -125 79 -125c80 0 95 71 95 154v286h144v-538h-144zM139 609v116h148v-116h-148zM362 725h148v-116h-148v116z" />
    <glyph glyph-name="yacute" unicode="&#xfd;" 
d="M597 538l-197 -520c-64 -165 -85 -193 -211 -193h-115v107h106c43 0 49 9 71 55l5 13l-207 538h149l131 -367l126 367h142zM539 725l-158 -116h-123l94 116h187z" />
    <glyph glyph-name="thorn" unicode="&#xfe;" 
d="M223 725v-255c27 51 74 80 138 80c123 0 218 -98 218 -282s-95 -281 -218 -281c-64 0 -111 29 -138 80v-242h-144v900h144zM218 268c0 -115 42 -175 111 -175c68 0 106 67 106 175s-38 176 -106 176c-69 0 -111 -61 -111 -176z" />
    <glyph glyph-name="ydieresis" unicode="&#xff;" 
d="M597 538l-197 -520c-64 -165 -85 -193 -211 -193h-115v107h106c43 0 49 9 71 55l5 13l-207 538h149l131 -367l126 367h142zM142 609v116h148v-116h-148zM365 725h148v-116h-148v116z" />
    <glyph glyph-name="Abreve" unicode="&#x102;" 
d="M43 0l186 725h187l187 -725h-164l-33 151h-170l-33 -151h-160zM322 534l-60 -266h118zM396 874h118c-8 -83 -65 -117 -192 -117c-123 0 -183 34 -190 117h118c5 -35 36 -46 72 -46c37 0 69 11 74 46z" />
    <glyph glyph-name="Amacron" unicode="&#x100;" 
d="M43 0l186 725h187l187 -725h-164l-33 151h-170l-33 -151h-160zM322 534l-60 -266h118zM491 771h-336v94h336v-94z" />
    <glyph glyph-name="Aogonek" unicode="&#x104;" 
d="M439 0h164c-51 -25 -87 -41 -87 -72c0 -27 20 -32 44 -32c21 0 41 6 56 10v-82c-27 -5 -75 -10 -103 -10c-72 0 -138 24 -138 90c0 41 21 73 64 96zM43 0l186 725h187l187 -725h-164l-33 151h-170l-33 -151h-160zM322 534l-60 -266h118z" />
    <glyph glyph-name="Cacute" unicode="&#x106;" 
d="M444 252h149c-19 -172 -98 -265 -262 -265c-189 0 -280 140 -280 376c0 235 96 375 285 375c159 0 238 -105 251 -264h-147c-8 100 -38 146 -110 146c-80 0 -120 -76 -120 -257c0 -185 37 -258 120 -258c65 0 107 39 114 147zM547 874l-161 -113h-145l104 113h202z" />
    <glyph glyph-name="Ccaron" unicode="&#x10c;" 
d="M444 252h149c-19 -172 -98 -265 -262 -265c-189 0 -280 140 -280 376c0 235 96 375 285 375c159 0 238 -105 251 -264h-147c-8 100 -38 146 -110 146c-80 0 -120 -76 -120 -257c0 -185 37 -258 120 -258c65 0 107 39 114 147zM241 761l-137 113h164l54 -49l59 49h162
l-140 -113h-162z" />
    <glyph glyph-name="Ccircumflex" unicode="&#x108;" 
d="M444 252h149c-19 -172 -98 -265 -262 -265c-189 0 -280 140 -280 376c0 235 96 375 285 375c159 0 238 -105 251 -264h-147c-8 100 -38 146 -110 146c-80 0 -120 -76 -120 -257c0 -185 37 -258 120 -258c65 0 107 39 114 147zM405 874l138 -113h-164l-55 50l-59 -50h-162
l140 113h162z" />
    <glyph glyph-name="Cdotaccent" unicode="&#x10a;" 
d="M444 252h149c-19 -172 -98 -265 -262 -265c-189 0 -280 140 -280 376c0 235 96 375 285 375c159 0 238 -105 251 -264h-147c-8 100 -38 146 -110 146c-80 0 -120 -76 -120 -257c0 -185 37 -258 120 -258c65 0 107 39 114 147zM237 874h172v-113h-172v113z" />
    <glyph glyph-name="Dcaron" unicode="&#x10e;" 
d="M438 363c0 192 -76 240 -198 240h-13v-480h13c122 0 198 48 198 240zM77 725h170c197 0 350 -85 350 -362c0 -276 -157 -363 -354 -363h-166v725zM226 761l-137 113h164l54 -49l59 49h162l-140 -113h-162z" />
    <glyph glyph-name="Dcroat" unicode="&#x110;" 
d="M90 725h170c197 0 350 -85 350 -362c0 -276 -157 -363 -354 -363h-166v302h-55v129h55v294zM451 363c0 192 -76 240 -198 240h-13v-172h127v-129h-127v-179h13c122 0 198 48 198 240z" />
    <glyph glyph-name="Ebreve" unicode="&#x114;" 
d="M107 0v725h439v-129h-289v-161h269v-129h-269v-177h289v-129h-439zM400 874h118c-8 -83 -65 -117 -192 -117c-123 0 -183 34 -190 117h118c5 -35 36 -46 72 -46c37 0 69 11 74 46z" />
    <glyph glyph-name="Ecaron" unicode="&#x11a;" 
d="M107 0v725h439v-129h-289v-161h269v-129h-269v-177h289v-129h-439zM243 761l-137 113h164l54 -49l59 49h162l-140 -113h-162z" />
    <glyph glyph-name="Emacron" unicode="&#x112;" 
d="M107 0v725h439v-129h-289v-161h269v-129h-269v-177h289v-129h-439zM498 771h-336v94h336v-94z" />
    <glyph glyph-name="Eogonek" unicode="&#x118;" 
d="M107 0v725h439v-129h-289v-161h269v-129h-269v-177h289v-129h-439zM387 0h159c-51 -25 -87 -41 -87 -72c0 -27 20 -32 44 -32c21 0 41 6 56 10v-82c-27 -5 -75 -10 -103 -10c-72 0 -138 24 -138 90c0 40 28 73 69 96z" />
    <glyph glyph-name="Edotaccent" unicode="&#x116;" 
d="M107 0v725h439v-129h-289v-161h269v-129h-269v-177h289v-129h-439zM238 874h172v-113h-172v113z" />
    <glyph glyph-name="Gbreve" unicode="&#x11e;" 
d="M596 483h-148c-7 93 -48 137 -119 137c-84 0 -128 -76 -128 -257c0 -185 44 -258 128 -258c69 0 119 56 119 148v17h-132v118h283v-388h-115l-5 90c-35 -72 -87 -103 -164 -103c-176 0 -273 140 -273 376c0 235 100 375 292 375c157 0 249 -100 262 -255zM393 874h118
c-8 -83 -65 -117 -192 -117c-123 0 -183 34 -190 117h118c5 -35 36 -46 72 -46c37 0 69 11 74 46z" />
    <glyph glyph-name="Gcircumflex" unicode="&#x11c;" 
d="M596 483h-148c-7 93 -48 137 -119 137c-84 0 -128 -76 -128 -257c0 -185 44 -258 128 -258c69 0 119 56 119 148v17h-132v118h283v-388h-115l-5 90c-35 -72 -87 -103 -164 -103c-176 0 -273 140 -273 376c0 235 100 375 292 375c157 0 249 -100 262 -255zM415 874
l138 -113h-164l-55 50l-59 -50h-162l140 113h162z" />
    <glyph glyph-name="uni0122" unicode="&#x122;" 
d="M596 483h-148c-7 93 -48 137 -119 137c-84 0 -128 -76 -128 -257c0 -185 44 -258 128 -258c69 0 119 56 119 148v17h-132v118h283v-388h-115l-5 90c-35 -72 -87 -103 -164 -103c-176 0 -273 140 -273 376c0 235 100 375 292 375c157 0 249 -100 262 -255zM258 -136v100
h127v-106l-44 -89h-86l38 95h-35z" />
    <glyph glyph-name="Gdotaccent" unicode="&#x120;" 
d="M596 483h-148c-7 93 -48 137 -119 137c-84 0 -128 -76 -128 -257c0 -185 44 -258 128 -258c69 0 119 56 119 148v17h-132v118h283v-388h-115l-5 90c-35 -72 -87 -103 -164 -103c-176 0 -273 140 -273 376c0 235 100 375 292 375c157 0 249 -100 262 -255zM244 874h172
v-113h-172v113z" />
    <glyph glyph-name="Hbar" unicode="&#x126;" 
d="M428 725h150v-100h48v-108h-48v-517h-150v306h-210v-306h-150v517h-48v108h48v100h150v-100h210v100zM218 435h210v82h-210v-82z" />
    <glyph glyph-name="Hcircumflex" unicode="&#x124;" 
d="M428 725h150v-725h-150v306h-210v-306h-150v725h150v-290h210v290zM405 874l138 -113h-164l-55 50l-59 -50h-162l140 113h162z" />
    <glyph glyph-name="Ibreve" unicode="&#x12c;" 
d="M76 596v129h494v-129h-172v-467h172v-129h-494v129h172v467h-172zM396 874h118c-8 -83 -65 -117 -192 -117c-123 0 -183 34 -190 117h118c5 -35 36 -46 72 -46c37 0 69 11 74 46z" />
    <glyph glyph-name="Idot" unicode="&#x130;" 
d="M76 596v129h494v-129h-172v-467h172v-129h-494v129h172v467h-172zM238 874h172v-113h-172v113z" />
    <glyph glyph-name="Imacron" unicode="&#x12a;" 
d="M76 596v129h494v-129h-172v-467h172v-129h-494v129h172v467h-172zM491 771h-336v94h336v-94z" />
    <glyph glyph-name="Iogonek" unicode="&#x12e;" 
d="M76 596v129h494v-129h-172v-467h172v-129h-494v129h172v467h-172zM244 0h159c-51 -25 -87 -41 -87 -72c0 -27 20 -32 44 -32c21 0 41 6 56 10v-82c-27 -5 -75 -10 -103 -10c-72 0 -138 24 -138 90c0 40 28 73 69 96z" />
    <glyph glyph-name="Itilde" unicode="&#x128;" 
d="M76 596v129h494v-129h-172v-467h172v-129h-494v129h172v467h-172zM383 837c31 0 50 12 55 37h97c-18 -100 -100 -115 -145 -115c-65 0 -89 36 -129 36c-31 0 -48 -12 -53 -36h-97c19 100 99 115 144 115c65 0 83 -37 128 -37z" />
    <glyph glyph-name="uni1ECA" unicode="&#x1eca;" 
d="M76 596v129h494v-129h-172v-467h172v-129h-494v129h172v467h-172zM248 -58h148v-116h-148v116z" />
    <glyph glyph-name="Jcircumflex" unicode="&#x134;" 
d="M152 725h386v-511c0 -163 -106 -227 -226 -227c-163 0 -235 114 -240 253h145c7 -80 35 -131 91 -131c48 0 80 31 80 103v383h-236v130zM433 874l138 -113h-164l-55 50l-59 -50h-162l140 113h162z" />
    <glyph glyph-name="uni0136" unicode="&#x136;" 
d="M228 725v-273l197 273h175l-209 -276l221 -449h-171l-155 311l-58 -77v-234h-150v725h150zM267 -136v100h127v-106l-44 -89h-86l38 95h-35z" />
    <glyph glyph-name="Lacute" unicode="&#x139;" 
d="M255 725v-596h338v-129h-488v725h150zM418 874l-161 -113h-145l104 113h202z" />
    <glyph glyph-name="Lcaron" unicode="&#x13d;" 
d="M255 725v-596h338v-129h-488v725h150zM495 725l-70 -170h-78l30 170h118z" />
    <glyph glyph-name="uni013B" unicode="&#x13b;" 
d="M255 725v-596h338v-129h-488v725h150zM303 -136v100h127v-106l-44 -89h-86l38 95h-35z" />
    <glyph glyph-name="Ldot" unicode="&#x13f;" 
d="M255 725v-596h338v-129h-488v725h150zM378 475h172v-113h-172v113z" />
    <glyph glyph-name="Lslash" unicode="&#x141;" 
d="M266 725v-249l124 75v-158l-124 -75v-189h338v-129h-488v228l-77 -46v158l77 46v339h150z" />
    <glyph glyph-name="Eng" unicode="&#x14a;" 
d="M428 0l-204 501v-501h-150v725h188l160 -403v403h150v-730c0 -152 -45 -181 -173 -181h-171v107h154c44 0 46 11 46 67v12z" />
    <glyph glyph-name="Nacute" unicode="&#x143;" 
d="M572 0h-189l-159 501v-501h-150v725h188l160 -500v500h150v-725zM575 874l-161 -113h-145l104 113h202z" />
    <glyph glyph-name="Ncaron" unicode="&#x147;" 
d="M572 0h-189l-159 501v-501h-150v725h188l160 -500v500h150v-725zM252 761l-137 113h164l54 -49l59 49h162l-140 -113h-162z" />
    <glyph glyph-name="uni0145" unicode="&#x145;" 
d="M572 0h-189l-159 501v-501h-150v725h188l160 -500v500h150v-725zM250 -136v100h127v-106l-44 -89h-86l38 95h-35z" />
    <glyph glyph-name="OE" unicode="&#x152;" 
d="M239 738c28 0 50 -5 67 -14h298v-129h-181v-159h162v-129h-162v-178h181v-129h-299c-17 -9 -39 -13 -66 -13c-163 0 -201 148 -201 377s38 374 201 374zM239 616c-39 0 -42 -77 -42 -252s3 -254 42 -254s42 79 42 254s-3 252 -42 252z" />
    <glyph glyph-name="Obreve" unicode="&#x14e;" 
d="M198 363c0 -152 33 -258 125 -258c93 0 125 106 125 258c0 153 -32 257 -125 257c-92 0 -125 -104 -125 -257zM39 363c0 225 87 375 284 375c196 0 284 -150 284 -375s-88 -376 -284 -376c-197 0 -284 151 -284 376zM396 874h118c-8 -83 -65 -117 -192 -117
c-123 0 -183 34 -190 117h118c5 -35 36 -46 72 -46c37 0 69 11 74 46z" />
    <glyph glyph-name="Ohungarumlaut" unicode="&#x150;" 
d="M198 363c0 -152 33 -258 125 -258c93 0 125 106 125 258c0 153 -32 257 -125 257c-92 0 -125 -104 -125 -257zM39 363c0 225 87 375 284 375c196 0 284 -150 284 -375s-88 -376 -284 -376c-197 0 -284 151 -284 376zM428 874l-160 -113h-145l103 113h202zM647 874
l-159 -113h-145l103 113h201z" />
    <glyph glyph-name="Omacron" unicode="&#x14c;" 
d="M198 363c0 -152 33 -258 125 -258c93 0 125 106 125 258c0 153 -32 257 -125 257c-92 0 -125 -104 -125 -257zM39 363c0 225 87 375 284 375c196 0 284 -150 284 -375s-88 -376 -284 -376c-197 0 -284 151 -284 376zM491 771h-336v94h336v-94z" />
    <glyph glyph-name="uni1ECC" unicode="&#x1ecc;" 
d="M198 363c0 -152 33 -258 125 -258c93 0 125 106 125 258c0 153 -32 257 -125 257c-92 0 -125 -104 -125 -257zM39 363c0 225 87 375 284 375c196 0 284 -150 284 -375s-88 -376 -284 -376c-197 0 -284 151 -284 376zM248 -58h148v-116h-148v116z" />
    <glyph glyph-name="Racute" unicode="&#x154;" 
d="M430 0l-143 294h-14h-43v-294h-150v725h193c165 0 290 -35 290 -215c0 -104 -54 -156 -130 -184l162 -326h-165zM278 603h-48v-191h48c72 0 126 18 126 95c0 78 -54 96 -126 96zM517 874l-161 -113h-145l104 113h202z" />
    <glyph glyph-name="Rcaron" unicode="&#x158;" 
d="M430 0l-143 294h-14h-43v-294h-150v725h193c165 0 290 -35 290 -215c0 -104 -54 -156 -130 -184l162 -326h-165zM278 603h-48v-191h48c72 0 126 18 126 95c0 78 -54 96 -126 96zM214 761l-137 113h164l54 -49l59 49h162l-140 -113h-162z" />
    <glyph glyph-name="uni0156" unicode="&#x156;" 
d="M430 0l-143 294h-14h-43v-294h-150v725h193c165 0 290 -35 290 -215c0 -104 -54 -156 -130 -184l162 -326h-165zM278 603h-48v-191h48c72 0 126 18 126 95c0 78 -54 96 -126 96zM262 -136v100h127v-106l-44 -89h-86l38 95h-35z" />
    <glyph glyph-name="Sacute" unicode="&#x15a;" 
d="M72 528c0 144 129 210 252 210c122 0 235 -68 251 -229h-144c-9 72 -50 114 -115 114c-56 0 -94 -32 -94 -81c0 -47 26 -80 91 -96l63 -16c96 -24 214 -71 214 -218c0 -157 -126 -225 -247 -225c-163 0 -267 97 -283 253h145c11 -83 55 -138 134 -138c57 0 100 31 100 86
c0 53 -35 89 -106 107l-74 20c-97 24 -187 95 -187 213zM549 874l-161 -113h-145l104 113h202z" />
    <glyph glyph-name="Scaron" unicode="&#x160;" 
d="M72 528c0 144 129 210 252 210c122 0 235 -68 251 -229h-144c-9 72 -50 114 -115 114c-56 0 -94 -32 -94 -81c0 -47 26 -80 91 -96l63 -16c96 -24 214 -71 214 -218c0 -157 -126 -225 -247 -225c-163 0 -267 97 -283 253h145c11 -83 55 -138 134 -138c57 0 100 31 100 86
c0 53 -35 89 -106 107l-74 20c-97 24 -187 95 -187 213zM240 761l-137 113h164l54 -49l59 49h162l-140 -113h-162z" />
    <glyph glyph-name="Scedilla" unicode="&#x15e;" 
d="M72 528c0 144 129 210 252 210c122 0 235 -68 251 -229h-144c-9 72 -50 114 -115 114c-56 0 -94 -32 -94 -81c0 -47 26 -80 91 -96l63 -16c96 -24 214 -71 214 -218c0 -157 -126 -225 -247 -225c-163 0 -267 97 -283 253h145c11 -83 55 -138 134 -138c57 0 100 31 100 86
c0 53 -35 89 -106 107l-74 20c-97 24 -187 95 -187 213zM237 -187l17 54c12 -7 40 -14 65 -14c27 0 49 6 49 29c0 19 -16 28 -40 28c-12 0 -28 -2 -39 -9l-30 17l52 83h61l-32 -52c8 3 20 4 36 4c41 0 94 -17 94 -68c0 -63 -70 -86 -139 -86c-33 0 -67 5 -94 14z" />
    <glyph glyph-name="Scircumflex" unicode="&#x15c;" 
d="M72 528c0 144 129 210 252 210c122 0 235 -68 251 -229h-144c-9 72 -50 114 -115 114c-56 0 -94 -32 -94 -81c0 -47 26 -80 91 -96l63 -16c96 -24 214 -71 214 -218c0 -157 -126 -225 -247 -225c-163 0 -267 97 -283 253h145c11 -83 55 -138 134 -138c57 0 100 31 100 86
c0 53 -35 89 -106 107l-74 20c-97 24 -187 95 -187 213zM405 874l138 -113h-164l-55 50l-59 -50h-162l140 113h162z" />
    <glyph glyph-name="uni0218" unicode="&#x218;" 
d="M72 528c0 144 129 210 252 210c122 0 235 -68 251 -229h-144c-9 72 -50 114 -115 114c-56 0 -94 -32 -94 -81c0 -47 26 -80 91 -96l63 -16c96 -24 214 -71 214 -218c0 -157 -126 -225 -247 -225c-163 0 -267 97 -283 253h145c11 -83 55 -138 134 -138c57 0 100 31 100 86
c0 53 -35 89 -106 107l-74 20c-97 24 -187 95 -187 213zM275 -136v100h127v-106l-44 -89h-86l38 95h-35z" />
    <glyph glyph-name="Tbar" unicode="&#x166;" 
d="M248 0v314h-152v106h152v176h-205v129h560v-129h-205v-176h152v-106h-152v-314h-150z" />
    <glyph glyph-name="Tcaron" unicode="&#x164;" 
d="M248 0v596h-205v129h560v-129h-205v-596h-150zM240 761l-137 113h164l54 -49l59 49h162l-140 -113h-162z" />
    <glyph glyph-name="uni0162" unicode="&#x162;" 
d="M259 -136v100h127v-106l-44 -89h-86l38 95h-35zM248 0v596h-205v129h560v-129h-205v-596h-150z" />
    <glyph glyph-name="uni021A" unicode="&#x21a;" 
d="M248 0v596h-205v129h560v-129h-205v-596h-150zM259 -136v100h127v-106l-44 -89h-86l38 95h-35z" />
    <glyph glyph-name="Ubreve" unicode="&#x16c;" 
d="M69 725h150v-451c0 -105 22 -164 106 -164c82 0 102 68 102 175v440h150v-409c0 -223 -53 -329 -252 -329c-192 0 -256 84 -256 323v415zM422 874h118c-8 -83 -65 -117 -192 -117c-123 0 -183 34 -190 117h118c5 -35 36 -46 72 -46c37 0 69 11 74 46z" />
    <glyph glyph-name="Uhungarumlaut" unicode="&#x170;" 
d="M69 725h150v-451c0 -105 22 -164 106 -164c82 0 102 68 102 175v440h150v-409c0 -223 -53 -329 -252 -329c-192 0 -256 84 -256 323v415zM427 874l-160 -113h-145l103 113h202zM646 874l-159 -113h-145l103 113h201z" />
    <glyph glyph-name="Umacron" unicode="&#x16a;" 
d="M69 725h150v-451c0 -105 22 -164 106 -164c82 0 102 68 102 175v440h150v-409c0 -223 -53 -329 -252 -329c-192 0 -256 84 -256 323v415zM491 771h-336v94h336v-94z" />
    <glyph glyph-name="Uogonek" unicode="&#x172;" 
d="M69 725h150v-451c0 -105 22 -164 106 -164c82 0 102 68 102 175v440h150v-409c0 -223 -53 -329 -252 -329c-192 0 -256 84 -256 323v415zM271 0h159c-51 -25 -87 -41 -87 -72c0 -27 20 -32 44 -32c21 0 41 6 56 10v-82c-27 -5 -75 -10 -103 -10c-72 0 -138 24 -138 90
c0 40 28 73 69 96z" />
    <glyph glyph-name="Uring" unicode="&#x16e;" 
d="M69 725h150v-451c0 -105 22 -164 106 -164c82 0 102 68 102 175v440h150v-409c0 -223 -53 -329 -252 -329c-192 0 -256 84 -256 323v415zM323 921c51 0 91 -34 91 -85c0 -49 -40 -85 -91 -85s-91 36 -91 85c0 51 42 85 91 85zM323 879c-23 0 -43 -18 -43 -43
c0 -24 20 -42 43 -42s43 18 43 42c0 25 -20 43 -43 43z" />
    <glyph glyph-name="Utilde" unicode="&#x168;" 
d="M69 725h150v-451c0 -105 22 -164 106 -164c82 0 102 68 102 175v440h150v-409c0 -223 -53 -329 -252 -329c-192 0 -256 84 -256 323v415zM383 837c31 0 50 12 55 37h97c-18 -100 -100 -115 -145 -115c-65 0 -89 36 -129 36c-31 0 -48 -12 -53 -36h-97
c19 100 99 115 144 115c65 0 83 -37 128 -37z" />
    <glyph glyph-name="uni1EE4" unicode="&#x1ee4;" 
d="M69 725h150v-451c0 -105 22 -164 106 -164c82 0 102 68 102 175v440h150v-409c0 -223 -53 -329 -252 -329c-192 0 -256 84 -256 323v415zM248 -58h148v-116h-148v116z" />
    <glyph glyph-name="Wacute" unicode="&#x1e82;" 
d="M378 532l54 -335l25 528h157l-45 -725h-184l-63 369l-62 -369h-184l-45 725h157l24 -528l54 335h112zM554 874l-161 -113h-145l104 113h202z" />
    <glyph glyph-name="Wcircumflex" unicode="&#x174;" 
d="M378 532l54 -335l25 528h157l-45 -725h-184l-63 369l-62 -369h-184l-45 725h157l24 -528l54 335h112zM405 874l138 -113h-164l-55 50l-59 -50h-162l140 113h162z" />
    <glyph glyph-name="Wdieresis" unicode="&#x1e84;" 
d="M378 532l54 -335l25 528h157l-45 -725h-184l-63 369l-62 -369h-184l-45 725h157l24 -528l54 335h112zM134 874h148v-113h-148v113zM364 874h148v-113h-148v113z" />
    <glyph glyph-name="Wgrave" unicode="&#x1e80;" 
d="M378 532l54 -335l25 528h157l-45 -725h-184l-63 369l-62 -369h-184l-45 725h157l24 -528l54 335h112zM253 761l-160 113h201l105 -113h-146z" />
    <glyph glyph-name="Ycircumflex" unicode="&#x176;" 
d="M323 425l129 300h171l-225 -465v-260h-150v260l-225 465h171zM405 874l138 -113h-164l-55 50l-59 -50h-162l140 113h162z" />
    <glyph glyph-name="Ydieresis" unicode="&#x178;" 
d="M323 425l129 300h171l-225 -465v-260h-150v260l-225 465h171zM134 874h148v-113h-148v113zM364 874h148v-113h-148v113z" />
    <glyph glyph-name="Ygrave" unicode="&#x1ef2;" 
d="M323 425l129 300h171l-225 -465v-260h-150v260l-225 465h171zM258 761l-160 113h201l105 -113h-146z" />
    <glyph glyph-name="uni0232" unicode="&#x232;" 
d="M323 425l129 300h171l-225 -465v-260h-150v260l-225 465h171zM491 771h-336v94h336v-94z" />
    <glyph glyph-name="Zacute" unicode="&#x179;" 
d="M572 725v-128l-337 -468h340v-129h-510v128l338 468h-313v129h482zM547 874l-161 -113h-145l104 113h202z" />
    <glyph glyph-name="Zcaron" unicode="&#x17d;" 
d="M572 725v-128l-337 -468h340v-129h-510v128l338 468h-313v129h482zM243 761l-137 113h164l54 -49l59 49h162l-140 -113h-162z" />
    <glyph glyph-name="Zdotaccent" unicode="&#x17b;" 
d="M572 725v-128l-337 -468h340v-129h-510v128l338 468h-313v129h482zM237 874h172v-113h-172v113z" />
    <glyph glyph-name="uni018F" unicode="&#x18f;" 
d="M326 -13c-193 0 -295 140 -286 424h408c-8 155 -64 209 -127 209c-64 0 -104 -57 -115 -124h-155c24 107 76 242 272 242c195 0 285 -149 285 -375s-89 -376 -282 -376zM328 106c59 0 106 47 119 184h-245c3 -131 62 -184 126 -184z" />
    <glyph glyph-name="abreve" unicode="&#x103;" 
d="M422 0l-1 69c-39 -57 -92 -82 -171 -82c-92 0 -182 58 -182 157c0 137 158 164 338 188v12c0 83 -36 111 -95 111c-60 0 -96 -27 -100 -87h-129c11 106 95 184 234 184c133 0 228 -55 228 -236c0 -16 -2 -90 -2 -138c0 -149 6 -162 11 -178h-131zM410 230v14
c-140 -13 -200 -31 -200 -94c0 -40 27 -65 79 -65c89 0 121 58 121 145zM386 725h108c-8 -72 -56 -132 -171 -132c-111 0 -163 60 -168 132h108c4 -33 24 -50 61 -50s58 17 62 50z" />
    <glyph glyph-name="amacron" unicode="&#x101;" 
d="M422 0l-1 69c-39 -57 -92 -82 -171 -82c-92 0 -182 58 -182 157c0 137 158 164 338 188v12c0 83 -36 111 -95 111c-60 0 -96 -27 -100 -87h-129c11 106 95 184 234 184c133 0 228 -55 228 -236c0 -16 -2 -90 -2 -138c0 -149 6 -162 11 -178h-131zM410 230v14
c-140 -13 -200 -31 -200 -94c0 -40 27 -65 79 -65c89 0 121 58 121 145zM485 617h-313v108h313v-108z" />
    <glyph glyph-name="aogonek" unicode="&#x105;" 
d="M422 0l-1 69c-39 -57 -92 -82 -171 -82c-92 0 -182 58 -182 157c0 137 158 164 338 188v12c0 83 -36 111 -95 111c-60 0 -96 -27 -100 -87h-129c11 106 95 184 234 184c133 0 228 -55 228 -236c0 -16 -2 -90 -2 -138c0 -149 6 -162 11 -178h-11c-31 -25 -49 -41 -49 -72
c0 -27 20 -32 44 -32c20 0 41 6 56 10v-82c-27 -5 -75 -10 -103 -10c-72 0 -138 24 -138 90c0 40 28 73 69 96h1zM410 230v14c-140 -13 -200 -31 -200 -94c0 -40 27 -65 79 -65c89 0 121 58 121 145z" />
    <glyph glyph-name="cacute" unicode="&#x107;" 
d="M326 550c105 0 218 -63 234 -206h-136c-8 57 -35 100 -99 100c-67 0 -104 -53 -104 -176s40 -175 104 -175c44 0 89 21 102 104h138c-19 -146 -134 -210 -242 -210c-156 0 -246 118 -246 281c0 168 91 282 249 282zM519 725l-158 -116h-123l94 116h187z" />
    <glyph glyph-name="ccaron" unicode="&#x10d;" 
d="M326 550c105 0 218 -63 234 -206h-136c-8 57 -35 100 -99 100c-67 0 -104 -53 -104 -176s40 -175 104 -175c44 0 89 21 102 104h138c-19 -146 -134 -210 -242 -210c-156 0 -246 118 -246 281c0 168 91 282 249 282zM246 609l-136 116h150l61 -46l64 46h152l-141 -116
h-150z" />
    <glyph glyph-name="ccircumflex" unicode="&#x109;" 
d="M326 550c105 0 218 -63 234 -206h-136c-8 57 -35 100 -99 100c-67 0 -104 -53 -104 -176s40 -175 104 -175c44 0 89 21 102 104h138c-19 -146 -134 -210 -242 -210c-156 0 -246 118 -246 281c0 168 91 282 249 282zM399 725l137 -116h-151l-61 47l-64 -47h-151l140 116
h150z" />
    <glyph glyph-name="cdotaccent" unicode="&#x10b;" 
d="M326 550c105 0 218 -63 234 -206h-136c-8 57 -35 100 -99 100c-67 0 -104 -53 -104 -176s40 -175 104 -175c44 0 89 21 102 104h138c-19 -146 -134 -210 -242 -210c-156 0 -246 118 -246 281c0 168 91 282 249 282zM249 725h148v-116h-148v116z" />
    <glyph glyph-name="dcaron" unicode="&#x10f;" 
d="M424 470v255h143v-725h-142l-1 67c-27 -51 -75 -80 -138 -80c-123 0 -218 97 -218 281s95 282 218 282c63 0 111 -29 138 -80zM429 268c0 115 -42 176 -111 176c-68 0 -106 -68 -106 -176s38 -175 106 -175c69 0 111 60 111 175zM727 725l-70 -170h-78l30 170h118z" />
    <glyph glyph-name="dslash" unicode="&#x111;" 
d="M336 566v79h88v80h143v-80h91v-79h-91v-566h-142l-1 67c-27 -51 -75 -80 -138 -80c-123 0 -218 97 -218 281s95 282 218 282c63 0 111 -29 138 -80v96h-88zM429 268c0 115 -42 176 -111 176c-68 0 -106 -68 -106 -176s38 -175 106 -175c69 0 111 60 111 175z" />
    <glyph glyph-name="ebreve" unicode="&#x115;" 
d="M574 232h-367c5 -99 59 -143 119 -143c57 0 91 28 102 79h137c-16 -91 -96 -181 -241 -181c-168 0 -255 112 -255 277c0 172 93 286 253 286c162 0 257 -121 252 -318zM320 447c-46 0 -105 -33 -113 -124h230c-3 99 -61 124 -117 124zM384 725h108
c-8 -72 -56 -132 -171 -132c-111 0 -163 60 -168 132h108c4 -33 24 -50 61 -50s58 17 62 50z" />
    <glyph glyph-name="ecaron" unicode="&#x11b;" 
d="M574 232h-367c5 -99 59 -143 119 -143c57 0 91 28 102 79h137c-16 -91 -96 -181 -241 -181c-168 0 -255 112 -255 277c0 172 93 286 253 286c162 0 257 -121 252 -318zM320 447c-46 0 -105 -33 -113 -124h230c-3 99 -61 124 -117 124zM245 609l-136 116h150l61 -46l64 46
h152l-141 -116h-150z" />
    <glyph glyph-name="emacron" unicode="&#x113;" 
d="M574 232h-367c5 -99 59 -143 119 -143c57 0 91 28 102 79h137c-16 -91 -96 -181 -241 -181c-168 0 -255 112 -255 277c0 172 93 286 253 286c162 0 257 -121 252 -318zM320 447c-46 0 -105 -33 -113 -124h230c-3 99 -61 124 -117 124zM479 617h-313v108h313v-108z" />
    <glyph glyph-name="eogonek" unicode="&#x119;" 
d="M574 232h-367c5 -99 59 -143 119 -143c57 0 91 28 102 79h137c-16 -91 -96 -181 -241 -181c-168 0 -255 112 -255 277c0 172 93 286 253 286c162 0 257 -121 252 -318zM320 447c-46 0 -105 -33 -113 -124h230c-3 99 -61 124 -117 124zM254 0h159c-51 -25 -87 -41 -87 -72
c0 -27 20 -32 44 -32c21 0 41 6 56 10v-82c-27 -5 -75 -10 -103 -10c-72 0 -138 24 -138 90c0 40 28 73 69 96z" />
    <glyph glyph-name="edotaccent" unicode="&#x117;" 
d="M574 232h-367c5 -99 59 -143 119 -143c57 0 91 28 102 79h137c-16 -91 -96 -181 -241 -181c-168 0 -255 112 -255 277c0 172 93 286 253 286c162 0 257 -121 252 -318zM320 447c-46 0 -105 -33 -113 -124h230c-3 99 -61 124 -117 124zM248 725h148v-116h-148v116z" />
    <glyph glyph-name="gbreve" unicode="&#x11f;" 
d="M424 470v68h143v-483c0 -177 -94 -242 -249 -242c-107 0 -210 42 -226 173h132c9 -47 38 -70 95 -70c72 0 105 47 105 114v58c-27 -49 -75 -79 -138 -79c-123 0 -218 96 -218 270c0 173 95 271 218 271c63 0 111 -29 138 -80zM429 279c0 103 -42 165 -111 165
c-68 0 -106 -68 -106 -165s38 -165 106 -165c69 0 111 61 111 165zM384 725h108c-8 -72 -56 -132 -171 -132c-111 0 -163 60 -168 132h108c4 -33 24 -50 61 -50s58 17 62 50z" />
    <glyph glyph-name="gcircumflex" unicode="&#x11d;" 
d="M424 470v68h143v-483c0 -177 -94 -242 -249 -242c-107 0 -210 42 -226 173h132c9 -47 38 -70 95 -70c72 0 105 47 105 114v58c-27 -49 -75 -79 -138 -79c-123 0 -218 96 -218 270c0 173 95 271 218 271c63 0 111 -29 138 -80zM429 279c0 103 -42 165 -111 165
c-68 0 -106 -68 -106 -165s38 -165 106 -165c69 0 111 61 111 165zM399 725l137 -116h-151l-61 47l-64 -47h-151l140 116h150z" />
    <glyph glyph-name="uni0123" unicode="&#x123;" 
d="M362 686v-100h-127v107l45 89h86l-39 -96h35zM424 470v68h143v-483c0 -177 -94 -242 -249 -242c-107 0 -210 42 -226 173h132c9 -47 38 -70 95 -70c72 0 105 47 105 114v58c-27 -49 -75 -79 -138 -79c-123 0 -218 96 -218 270c0 173 95 271 218 271c63 0 111 -29 138 -80
zM429 279c0 103 -42 165 -111 165c-68 0 -106 -68 -106 -165s38 -165 106 -165c69 0 111 61 111 165z" />
    <glyph glyph-name="gdotaccent" unicode="&#x121;" 
d="M424 470v68h143v-483c0 -177 -94 -242 -249 -242c-107 0 -210 42 -226 173h132c9 -47 38 -70 95 -70c72 0 105 47 105 114v58c-27 -49 -75 -79 -138 -79c-123 0 -218 96 -218 270c0 173 95 271 218 271c63 0 111 -29 138 -80zM429 279c0 103 -42 165 -111 165
c-68 0 -106 -68 -106 -165s38 -165 106 -165c69 0 111 61 111 165zM248 725h148v-116h-148v116z" />
    <glyph glyph-name="hbar" unicode="&#x127;" 
d="M90 725h144v-80h101v-79h-101v-91c31 48 80 75 144 75c123 0 174 -83 174 -212v-338h-144v314c0 57 -5 125 -78 125c-81 0 -96 -71 -96 -154v-285h-144v566h-78v79h78v80z" />
    <glyph glyph-name="hcircumflex" unicode="&#x125;" 
d="M249 874l138 -113h-164l-55 50l-59 -50h-162l140 113h162zM90 725h144v-250c31 48 80 75 144 75c123 0 174 -83 174 -212v-338h-144v314c0 57 -5 125 -78 125c-81 0 -96 -71 -96 -154v-285h-144v725z" />
    <glyph glyph-name="dotlessi" unicode="&#x131;" 
d="M554 0h-457v108h156v322h-156v108h300v-430h157v-108z" />
    <glyph glyph-name="ibreve" unicode="&#x12d;" 
d="M554 0h-457v108h156v322h-156v108h300v-430h157v-108zM386 725h108c-8 -72 -56 -132 -171 -132c-111 0 -163 60 -168 132h108c4 -33 24 -50 61 -50s58 17 62 50z" />
    <glyph glyph-name="imacron" unicode="&#x12b;" 
d="M554 0h-457v108h156v322h-156v108h300v-430h157v-108zM432 617h-313v108h313v-108z" />
    <glyph glyph-name="iogonek" unicode="&#x12f;" 
d="M253 725h144v-133h-144v133zM554 0h-457v108h156v322h-156v108h300v-430h157v-108zM240 0h159c-51 -25 -87 -41 -87 -72c0 -27 20 -32 44 -32c21 0 41 6 56 10v-82c-27 -5 -75 -10 -103 -10c-72 0 -138 24 -138 90c0 40 28 73 69 96z" />
    <glyph glyph-name="itilde" unicode="&#x129;" 
d="M554 0h-457v108h156v322h-156v108h300v-430h157v-108zM366 681c29 0 47 15 52 44h97c-15 -84 -62 -127 -134 -127c-69 0 -97 44 -137 44c-29 0 -46 -15 -52 -44h-96c12 80 59 127 135 127c69 0 90 -44 135 -44z" />
    <glyph glyph-name="uni1ECB" unicode="&#x1ecb;" 
d="M554 0h-457v108h156v322h-156v108h300v-430h157v-108zM253 725h144v-133h-144v133zM251 -58h148v-116h-148v116z" />
    <glyph glyph-name="uni0237" unicode="&#x237;" 
d="M291 429h-167v109h311v-533c0 -151 -45 -180 -173 -180h-171v107h154c44 0 46 11 46 67v430z" />
    <glyph glyph-name="jcircumflex" unicode="&#x135;" 
d="M441 725l137 -116h-151l-61 47l-64 -47h-151l140 116h150zM291 429h-167v109h311v-533c0 -151 -45 -180 -173 -180h-171v107h154c44 0 46 11 46 67v430z" />
    <glyph glyph-name="uni0137" unicode="&#x137;" 
d="M297 221l-61 -70v-151h-144v725h144v-395l177 208h160l-183 -209l194 -329h-159zM261 -136v100h127v-106l-44 -89h-86l38 95h-35z" />
    <glyph glyph-name="lacute" unicode="&#x13a;" 
d="M554 0h-456v108h156v510h-156v107h300v-617h156v-108zM559 874l-161 -113h-145l104 113h202z" />
    <glyph glyph-name="lcaron" unicode="&#x13e;" 
d="M554 0h-456v108h156v510h-156v107h300v-617h156v-108zM597 725l-70 -170h-78l30 170h118z" />
    <glyph glyph-name="uni013C" unicode="&#x13c;" 
d="M554 0h-456v108h156v510h-156v107h300v-617h156v-108zM263 -136v100h127v-106l-44 -89h-86l38 95h-35z" />
    <glyph glyph-name="ldot" unicode="&#x140;" 
d="M554 0h-456v108h156v510h-156v107h300v-617h156v-108zM498 476h148v-116h-148v116z" />
    <glyph glyph-name="lslash" unicode="&#x142;" 
d="M155 182v158l99 59v219h-156v107h300v-239l108 65v-158l-108 -65v-220h156v-108h-456v108h156v133z" />
    <glyph glyph-name="eng" unicode="&#x14b;" 
d="M552 338v-332c0 -152 -47 -181 -174 -181h-171v107h154c44 0 46 11 46 67v315c0 57 -5 125 -78 125c-81 0 -96 -71 -96 -154v-285h-143v538h143v-49c31 40 81 61 138 61c129 0 181 -83 181 -212z" />
    <glyph glyph-name="nacute" unicode="&#x144;" 
d="M90 538h144v-63c31 48 79 75 143 75c124 0 175 -83 175 -212v-338h-144v314c0 57 -6 125 -79 125c-81 0 -95 -71 -95 -154v-285h-144v538zM534 725l-158 -116h-123l94 116h187z" />
    <glyph glyph-name="ncaron" unicode="&#x148;" 
d="M90 538h144v-63c31 48 79 75 143 75c124 0 175 -83 175 -212v-338h-144v314c0 57 -6 125 -79 125c-81 0 -95 -71 -95 -154v-285h-144v538zM253 609l-136 116h150l61 -46l64 46h152l-141 -116h-150z" />
    <glyph glyph-name="uni0146" unicode="&#x146;" 
d="M90 538h144v-63c31 48 79 75 143 75c124 0 175 -83 175 -212v-338h-144v314c0 57 -6 125 -79 125c-81 0 -95 -71 -95 -154v-285h-144v538zM261 -136v100h127v-106l-44 -89h-86l38 95h-35z" />
    <glyph glyph-name="oe" unicode="&#x153;" 
d="M21 263c0 153 43 286 178 286c59 0 95 -24 118 -63c27 39 63 61 118 61c129 0 191 -124 183 -319h-254c3 -96 30 -137 73 -137c39 0 61 23 67 70h110c-13 -80 -65 -174 -177 -174c-59 0 -96 22 -121 59c-24 -37 -60 -59 -117 -59c-135 0 -178 122 -178 276zM272 263
c0 91 -21 180 -73 180c-53 0 -74 -89 -74 -180c0 -92 21 -172 74 -172c52 0 73 80 73 172zM365 326h136c-3 84 -28 121 -68 121c-31 0 -61 -37 -68 -121z" />
    <glyph glyph-name="obreve" unicode="&#x14f;" 
d="M580 269c0 -206 -125 -282 -257 -282s-257 76 -257 282c0 205 125 281 257 281s257 -76 257 -281zM436 269c0 125 -44 175 -113 175s-113 -50 -113 -175s44 -176 113 -176s113 51 113 176zM384 725h108c-8 -72 -56 -132 -171 -132c-111 0 -163 60 -168 132h108
c4 -33 24 -50 61 -50s58 17 62 50z" />
    <glyph glyph-name="ohungarumlaut" unicode="&#x151;" 
d="M580 269c0 -206 -125 -282 -257 -282s-257 76 -257 282c0 205 125 281 257 281s257 -76 257 -281zM436 269c0 125 -44 175 -113 175s-113 -50 -113 -175s44 -176 113 -176s113 51 113 176zM405 725l-158 -116h-123l94 116h187zM629 725l-158 -116h-124l95 116h187z" />
    <glyph glyph-name="omacron" unicode="&#x14d;" 
d="M580 269c0 -206 -125 -282 -257 -282s-257 76 -257 282c0 205 125 281 257 281s257 -76 257 -281zM436 269c0 125 -44 175 -113 175s-113 -50 -113 -175s44 -176 113 -176s113 51 113 176zM486 617h-313v108h313v-108z" />
    <glyph glyph-name="uni1ECD" unicode="&#x1ecd;" 
d="M580 269c0 -206 -125 -282 -257 -282s-257 76 -257 282c0 205 125 281 257 281s257 -76 257 -281zM436 269c0 125 -44 175 -113 175s-113 -50 -113 -175s44 -176 113 -176s113 51 113 176zM248 -58h148v-116h-148v116z" />
    <glyph glyph-name="racute" unicode="&#x155;" 
d="M75 538h276v-91c21 46 65 91 149 91h82v-115h-103c-92 0 -126 -43 -126 -148v-167h195v-108h-473v108h134v321h-134v109zM492 725l-158 -116h-123l94 116h187z" />
    <glyph glyph-name="rcaron" unicode="&#x159;" 
d="M75 538h276v-91c21 46 65 91 149 91h82v-115h-103c-92 0 -126 -43 -126 -148v-167h195v-108h-473v108h134v321h-134v109zM258 609l-136 116h150l61 -46l64 46h152l-141 -116h-150z" />
    <glyph glyph-name="uni0157" unicode="&#x157;" 
d="M75 538h276v-91c21 46 65 91 149 91h82v-115h-103c-92 0 -126 -43 -126 -148v-167h195v-108h-473v108h134v321h-134v109zM218 -136v100h127v-106l-44 -89h-86l38 95h-35z" />
    <glyph glyph-name="sacute" unicode="&#x15b;" 
d="M543 378h-124c-11 47 -47 67 -110 67c-44 0 -79 -18 -79 -47c0 -28 31 -47 70 -58l59 -14c106 -24 190 -55 190 -161c0 -114 -104 -178 -224 -178c-131 0 -219 69 -232 194h127c7 -56 44 -88 111 -88c55 0 87 19 87 55s-38 52 -83 63l-64 15c-99 24 -165 66 -165 162
c0 104 94 162 211 162c99 0 207 -49 226 -172zM533 725l-158 -116h-123l94 116h187z" />
    <glyph glyph-name="scaron" unicode="&#x161;" 
d="M543 378h-124c-11 47 -47 67 -110 67c-44 0 -79 -18 -79 -47c0 -28 31 -47 70 -58l59 -14c106 -24 190 -55 190 -161c0 -114 -104 -178 -224 -178c-131 0 -219 69 -232 194h127c7 -56 44 -88 111 -88c55 0 87 19 87 55s-38 52 -83 63l-64 15c-99 24 -165 66 -165 162
c0 104 94 162 211 162c99 0 207 -49 226 -172zM245 609l-136 116h150l61 -46l64 46h152l-141 -116h-150z" />
    <glyph glyph-name="scedilla" unicode="&#x15f;" 
d="M543 378h-124c-11 47 -47 67 -110 67c-44 0 -79 -18 -79 -47c0 -28 31 -47 70 -58l59 -14c106 -24 190 -55 190 -161c0 -114 -104 -178 -224 -178c-131 0 -219 69 -232 194h127c7 -56 44 -88 111 -88c55 0 87 19 87 55s-38 52 -83 63l-64 15c-99 24 -165 66 -165 162
c0 104 94 162 211 162c99 0 207 -49 226 -172zM224 -187l17 54c12 -7 40 -14 65 -14c27 0 49 6 49 29c0 19 -16 28 -40 28c-12 0 -28 -2 -39 -9l-30 17l52 83h61l-32 -52c8 3 20 4 36 4c41 0 94 -17 94 -68c0 -63 -70 -86 -139 -86c-33 0 -67 5 -94 14z" />
    <glyph glyph-name="scircumflex" unicode="&#x15d;" 
d="M543 378h-124c-11 47 -47 67 -110 67c-44 0 -79 -18 -79 -47c0 -28 31 -47 70 -58l59 -14c106 -24 190 -55 190 -161c0 -114 -104 -178 -224 -178c-131 0 -219 69 -232 194h127c7 -56 44 -88 111 -88c55 0 87 19 87 55s-38 52 -83 63l-64 15c-99 24 -165 66 -165 162
c0 104 94 162 211 162c99 0 207 -49 226 -172zM399 725l137 -116h-151l-61 47l-64 -47h-151l140 116h150z" />
    <glyph glyph-name="uni0219" unicode="&#x219;" 
d="M543 378h-124c-11 47 -47 67 -110 67c-44 0 -79 -18 -79 -47c0 -28 31 -47 70 -58l59 -14c106 -24 190 -55 190 -161c0 -114 -104 -178 -224 -178c-131 0 -219 69 -232 194h127c7 -56 44 -88 111 -88c55 0 87 19 87 55s-38 52 -83 63l-64 15c-99 24 -165 66 -165 162
c0 104 94 162 211 162c99 0 207 -49 226 -172zM262 -136v100h127v-106l-44 -89h-86l38 95h-35z" />
    <glyph glyph-name="tbar" unicode="&#x167;" 
d="M198 538v144h144v-144h210v-109h-210v-57h208v-107h-208v-96c0 -51 16 -61 59 -61h149v-108h-202c-117 0 -150 39 -150 146v119h-159v107h159v57h-156v109h156z" />
    <glyph glyph-name="tcaron" unicode="&#x165;" 
d="M195 538v144h144v-144h210v-109h-210v-260c0 -51 16 -61 59 -61h149v-108h-202c-117 0 -150 39 -150 146v283h-156v109h156zM624 725l-70 -170h-78l30 170h118z" />
    <glyph glyph-name="uni0163" unicode="&#x163;" 
d="M195 538v144h144v-144h210v-109h-210v-260c0 -51 16 -61 59 -61h149v-108h-202c-117 0 -150 39 -150 146v283h-156v109h156zM226 -136v100h127v-106l-44 -89h-86l38 95h-35z" />
    <glyph glyph-name="uni021B" unicode="&#x21b;" 
d="M195 538v144h144v-144h210v-109h-210v-260c0 -51 16 -61 59 -61h149v-108h-202c-117 0 -150 39 -150 146v283h-156v109h156zM226 -136v100h127v-106l-44 -89h-86l38 95h-35z" />
    <glyph glyph-name="ubreve" unicode="&#x16d;" 
d="M412 0v59c-31 -49 -80 -72 -137 -72c-131 0 -181 83 -181 212v339h144v-315c0 -57 6 -125 79 -125c80 0 95 71 95 154v286h144v-538h-144zM386 725h108c-8 -72 -56 -132 -171 -132c-111 0 -163 60 -168 132h108c4 -33 24 -50 61 -50s58 17 62 50z" />
    <glyph glyph-name="uhungarumlaut" unicode="&#x171;" 
d="M412 0v59c-31 -49 -80 -72 -137 -72c-131 0 -181 83 -181 212v339h144v-315c0 -57 6 -125 79 -125c80 0 95 71 95 154v286h144v-538h-144zM403 725l-158 -116h-123l94 116h187zM627 725l-158 -116h-124l95 116h187z" />
    <glyph glyph-name="umacron" unicode="&#x16b;" 
d="M412 0v59c-31 -49 -80 -72 -137 -72c-131 0 -181 83 -181 212v339h144v-315c0 -57 6 -125 79 -125c80 0 95 71 95 154v286h144v-538h-144zM481 617h-313v108h313v-108z" />
    <glyph glyph-name="uogonek" unicode="&#x173;" 
d="M412 0v59c-31 -49 -80 -72 -137 -72c-131 0 -181 83 -181 212v339h144v-315c0 -57 6 -125 79 -125c80 0 95 71 95 154v286h144v-538c-40 -25 -70 -41 -70 -72c0 -27 20 -32 44 -32c20 0 41 6 56 10v-82c-27 -5 -76 -10 -104 -10c-72 0 -137 24 -137 90c0 40 27 73 67 96z
" />
    <glyph glyph-name="uring" unicode="&#x16f;" 
d="M412 0v59c-31 -49 -80 -72 -137 -72c-131 0 -181 83 -181 212v339h144v-315c0 -57 6 -125 79 -125c80 0 95 71 95 154v286h144v-538h-144zM325 775c51 0 94 -39 94 -90s-42 -89 -94 -89c-53 0 -95 37 -95 89s43 90 95 90zM325 726c-23 0 -41 -17 -41 -41
c0 -23 18 -39 41 -39s41 16 41 39c0 24 -18 41 -41 41z" />
    <glyph glyph-name="utilde" unicode="&#x169;" 
d="M412 0v59c-31 -49 -80 -72 -137 -72c-131 0 -181 83 -181 212v339h144v-315c0 -57 6 -125 79 -125c80 0 95 71 95 154v286h144v-538h-144zM385 681c29 0 47 15 52 44h97c-15 -84 -62 -127 -134 -127c-69 0 -97 44 -137 44c-29 0 -46 -15 -52 -44h-96
c12 80 59 127 135 127c69 0 90 -44 135 -44z" />
    <glyph glyph-name="uni1EE5" unicode="&#x1ee5;" 
d="M412 0v59c-31 -49 -80 -72 -137 -72c-131 0 -181 83 -181 212v339h144v-315c0 -57 6 -125 79 -125c80 0 95 71 95 154v286h144v-538h-144zM251 -58h148v-116h-148v116z" />
    <glyph glyph-name="wacute" unicode="&#x1e83;" 
d="M265 435h116l49 -237l38 340h140l-67 -538h-156l-62 331l-63 -331h-156l-66 538h139l38 -340zM538 725l-158 -116h-123l94 116h187z" />
    <glyph glyph-name="wcircumflex" unicode="&#x175;" 
d="M265 435h116l49 -237l38 340h140l-67 -538h-156l-62 331l-63 -331h-156l-66 538h139l38 -340zM399 725l137 -116h-151l-61 47l-64 -47h-151l140 116h150z" />
    <glyph glyph-name="wdieresis" unicode="&#x1e85;" 
d="M265 435h116l49 -237l38 340h140l-67 -538h-156l-62 331l-63 -331h-156l-66 538h139l38 -340zM137 609v116h148v-116h-148zM360 725h148v-116h-148v116z" />
    <glyph glyph-name="wgrave" unicode="&#x1e81;" 
d="M265 435h116l49 -237l38 340h140l-67 -538h-156l-62 331l-63 -331h-156l-66 538h139l38 -340zM267 609l-158 116h187l94 -116h-123z" />
    <glyph glyph-name="ycircumflex" unicode="&#x177;" 
d="M597 538l-197 -520c-64 -165 -85 -193 -211 -193h-115v107h106c43 0 49 9 71 55l5 13l-207 538h149l131 -367l126 367h142zM404 725l137 -116h-151l-61 47l-64 -47h-151l140 116h150z" />
    <glyph glyph-name="ygrave" unicode="&#x1ef3;" 
d="M597 538l-197 -520c-64 -165 -85 -193 -211 -193h-115v107h106c43 0 49 9 71 55l5 13l-207 538h149l131 -367l126 367h142zM277 609l-158 116h187l94 -116h-123z" />
    <glyph glyph-name="uni0233" unicode="&#x233;" 
d="M597 538l-197 -520c-64 -165 -85 -193 -211 -193h-115v107h106c43 0 49 9 71 55l5 13l-207 538h149l131 -367l126 367h142zM484 617h-313v108h313v-108z" />
    <glyph glyph-name="zacute" unicode="&#x17a;" 
d="M96 0v105l279 324h-258v109h422v-105l-281 -325h288v-108h-450zM524 725l-158 -116h-123l94 116h187z" />
    <glyph glyph-name="zcaron" unicode="&#x17e;" 
d="M96 0v105l279 324h-258v109h422v-105l-281 -325h288v-108h-450zM247 609l-136 116h150l61 -46l64 46h152l-141 -116h-150z" />
    <glyph glyph-name="zdotaccent" unicode="&#x17c;" 
d="M96 0v105l279 324h-258v109h422v-105l-281 -325h288v-108h-450zM250 725h148v-116h-148v116z" />
    <glyph glyph-name="uni0259" unicode="&#x259;" 
d="M324 -13c-162 0 -257 121 -252 318h366c-5 99 -58 143 -118 143c-57 0 -91 -28 -102 -79h-137c16 91 96 181 241 181c168 0 255 -112 255 -277c0 -172 -93 -286 -253 -286zM326 90c45 0 104 33 112 124h-229c3 -99 61 -124 117 -124z" />
    <glyph glyph-name="ellipsis" unicode="&#x2026;" 
d="M190 0h-165v178h165v-178zM405 0h-165v178h165v-178zM620 0h-165v178h165v-178z" />
    <glyph glyph-name="endash" unicode="&#x2013;" 
d="M547 207h-448v120h448v-120z" />
    <glyph glyph-name="emdash" unicode="&#x2014;" 
d="M601 207h-556v120h556v-120z" />
    <glyph glyph-name="guilsinglleft" unicode="&#x2039;" 
d="M341 43l-159 230l159 229h136l-136 -229l136 -230h-136z" />
    <glyph glyph-name="guilsinglright" unicode="&#x203a;" 
d="M464 273l-159 -230h-135l135 230l-135 229h135z" />
    <glyph glyph-name="quoteleft" unicode="&#x2018;" 
d="M416 567v-177h-186v187l102 148h98l-88 -158h74z" />
    <glyph glyph-name="quoteright" unicode="&#x2019;" 
d="M230 547v178h186v-188l-104 -148h-97l87 158h-72z" />
    <glyph glyph-name="quotedblleft" unicode="&#x201c;" 
d="M297 567v-177h-186v187l102 148h98l-88 -158h74zM536 567v-177h-186v187l102 148h98l-88 -158h74z" />
    <glyph glyph-name="quotedblright" unicode="&#x201d;" 
d="M350 547v178h186v-188l-104 -148h-97l87 158h-72zM111 547v178h186v-188l-104 -148h-97l87 158h-72z" />
    <glyph glyph-name="quotesinglbase" unicode="&#x201a;" 
d="M230 0v178h186v-188l-104 -148h-97l87 158h-72z" />
    <glyph glyph-name="quotedblbase" unicode="&#x201e;" 
d="M350 0v178h186v-188l-104 -148h-97l87 158h-72zM111 0v178h186v-188l-104 -148h-97l87 158h-72z" />
    <glyph glyph-name="bullet" unicode="&#x2022;" 
d="M143 279c0 98 80 177 176 177c105 0 184 -79 184 -177c0 -104 -79 -183 -184 -183c-96 0 -176 79 -176 183z" />
    <glyph glyph-name="dagger" unicode="&#x2020;" 
d="M385 0h-124v397h-216v121h216v207h124v-207h216v-121h-216v-397z" />
    <glyph glyph-name="daggerdbl" unicode="&#x2021;" 
d="M386 301h215v-120h-215v-181h-125v181h-216v120h216v118h-216v120h216v186h125v-186h215v-120h-215v-118z" />
    <glyph glyph-name="trademark" unicode="&#x2122;" 
d="M122 381v282h-98v62h281v-62h-98v-282h-85zM464 565l24 160h115v-344h-82v156l1 129h-3l-29 -175h-51l-30 175h-3l2 -129v-156h-83v344h115z" />
    <glyph glyph-name="lozenge" unicode="&#x25ca;" 
d="M327 561l-146 -225l146 -225l145 225zM38 336l288 438l282 -438l-282 -439z" />
    <glyph glyph-name="apple" 
d="M143 279c0 98 80 177 176 177c105 0 184 -79 184 -177c0 -104 -79 -183 -184 -183c-96 0 -176 79 -176 183z" />
    <glyph glyph-name="minus" unicode="&#x2212;" 
d="M56 327h534v-120h-534v120z" />
    <glyph glyph-name="lessequal" unicode="&#x2264;" 
d="M223 337l367 -79v-123l-534 145v114l534 145v-124zM56 0v121h534v-121h-534z" />
    <glyph glyph-name="greaterequal" unicode="&#x2265;" 
d="M422 337l-366 78v124l534 -145v-114l-534 -145v123zM590 0h-534v121h534v-121z" />
    <glyph glyph-name="notequal" unicode="&#x2260;" 
d="M131 5l283 547l81 -42l-283 -547zM577 314h-508v120h508v-120zM577 104h-508v121h508v-121z" />
    <glyph glyph-name="approxequal" unicode="&#x2248;" 
d="M421 405c37 0 62 16 63 68h106c-4 -115 -51 -187 -162 -187c-81 0 -135 69 -205 69c-36 0 -61 -16 -62 -69h-106c4 115 51 187 162 187c91 0 145 -68 204 -68zM421 200c37 0 62 16 63 69h106c-4 -115 -51 -187 -162 -187c-81 0 -135 69 -205 69c-36 0 -61 -16 -62 -69
h-106c4 115 51 187 162 187c91 0 145 -69 204 -69z" />
    <glyph glyph-name="partialdiff" unicode="&#x2202;" 
d="M320 -13c-156 0 -271 104 -271 248c0 153 111 238 250 238c73 0 129 -29 161 -68l1 1c-8 125 -117 218 -284 226v106c275 0 419 -187 419 -399c0 -200 -83 -352 -276 -352zM451 230c0 83 -57 138 -132 138c-77 0 -131 -55 -131 -138c0 -85 55 -137 131 -137
c75 0 132 52 132 137z" />
    <glyph glyph-name="product" unicode="&#x220f;" 
d="M213 -175h-125v900h470v-900h-125v780h-220v-780z" />
    <glyph glyph-name="radical" unicode="&#x221a;" 
d="M36 136l177 91l109 -231l148 729h136l-194 -911h-128l-128 255l-71 -38z" />
    <glyph glyph-name="summation" unicode="&#x2211;" 
d="M40 -63l274 338l-274 338v112h558v-120h-392l269 -330l-269 -330h392v-120h-558v112z" />
    <glyph glyph-name="integral" unicode="&#x222b;" 
d="M254 207v218c0 255 91 313 178 313c53 0 102 -30 102 -87c0 -36 -23 -61 -60 -61c-24 0 -55 16 -55 61c0 7 1 15 3 25c-29 -7 -40 -44 -40 -119c0 -72 10 -101 10 -259v-175c0 -255 -86 -313 -173 -313c-54 0 -107 29 -107 87c0 35 24 61 60 61c23 0 55 -16 55 -60
c0 -9 -1 -17 -4 -26c29 7 39 45 39 118c0 51 -8 125 -8 217z" />
    <glyph glyph-name="infinity" unicode="&#x221e;" 
d="M461 402c90 0 151 -59 151 -139c0 -84 -58 -141 -150 -141c-57 0 -99 30 -138 71c-39 -40 -80 -70 -140 -70c-91 0 -150 57 -150 140c0 80 61 139 151 139c60 0 102 -28 138 -67c35 39 78 67 138 67zM185 217c33 0 56 19 79 46c-21 23 -46 46 -77 46s-55 -19 -55 -46
s22 -46 53 -46zM461 309c-33 0 -57 -23 -77 -46c21 -25 46 -46 78 -46c31 0 51 19 51 46c0 25 -21 46 -52 46z" />
    <glyph glyph-name="uni0394" unicode="&#x394;" 
d="M6 0l317 674l317 -674h-634zM478 104l-155 327l-156 -327h311z" />
    <glyph glyph-name="uni0394" unicode="&#x2206;" 
d="M6 0l317 674l317 -674h-634zM478 104l-155 327l-156 -327h311z" />
    <glyph glyph-name="uni03A9" unicode="&#x3a9;" 
d="M323 726c141 0 274 -93 274 -310c0 -131 -61 -230 -148 -271v-37h148v-108h-244v199c86 16 146 119 146 217c0 140 -68 221 -176 221s-177 -81 -177 -221c0 -98 62 -201 147 -217v-199h-244v108h148v37c-87 41 -148 140 -148 271c0 203 133 310 274 310z" />
    <glyph glyph-name="uni03A9" unicode="&#x2126;" 
d="M323 726c141 0 274 -93 274 -310c0 -131 -61 -230 -148 -271v-37h148v-108h-244v199c86 16 146 119 146 217c0 140 -68 221 -176 221s-177 -81 -177 -221c0 -98 62 -201 147 -217v-199h-244v108h148v37c-87 41 -148 140 -148 271c0 203 133 310 274 310z" />
    <glyph glyph-name="pi" unicode="&#x3c0;" 
d="M247 0h-124v417h-85v121h567v-121h-85v-244c0 -52 2 -63 48 -63h38v-110h-54c-121 0 -157 26 -157 160v257h-148v-417z" />
    <glyph glyph-name="Euro" unicode="&#x20ac;" 
d="M355 247h-90c9 -95 34 -149 97 -149c59 0 85 43 94 131h141c-16 -148 -82 -242 -234 -242c-160 0 -225 96 -244 260h-119l54 82h59v34v34h-113l54 81h65c19 162 91 260 248 260c154 0 209 -98 225 -248h-140c-8 91 -23 137 -90 137c-63 0 -86 -57 -97 -149h165l-53 -81
h-116v-34v-34h148z" />
    <glyph glyph-name="fi" unicode="&#xfb01;" 
d="M574 0h-144v430h-192v-430h-144v430h-69v108h69v29c0 137 70 158 198 158h33v-107h-15c-61 0 -72 -8 -72 -60v-20h336v-538zM430 725h144v-133h-144v133z" />
    <glyph glyph-name="f_i" 
d="M574 0h-144v430h-192v-430h-144v430h-69v108h69v29c0 137 70 158 198 158h33v-107h-15c-61 0 -72 -8 -72 -60v-20h336v-538zM430 725h144v-133h-144v133z" />
    <glyph glyph-name="fl" unicode="&#xfb02;" 
d="M430 0v618h-120c-61 0 -72 -8 -72 -60v-20h117v-108h-117v-430h-144v430h-69v108h69v29c0 137 70 158 198 158h282v-725h-144z" />
    <glyph glyph-name="f_l" 
d="M430 0v618h-120c-61 0 -72 -8 -72 -60v-20h117v-108h-117v-430h-144v430h-69v108h69v29c0 137 70 158 198 158h282v-725h-144z" />
    <glyph glyph-name="breve" unicode="&#x2d8;" 
d="M384 725h108c-8 -72 -56 -132 -171 -132c-111 0 -163 60 -168 132h108c4 -33 24 -50 61 -50s58 17 62 50z" />
    <glyph glyph-name="caron" unicode="&#x2c7;" 
d="M245 609l-136 116h150l61 -46l64 46h152l-141 -116h-150z" />
    <glyph glyph-name="circumflex" unicode="&#x2c6;" 
d="M399 725l137 -116h-151l-61 47l-64 -47h-151l140 116h150z" />
    <glyph glyph-name="dotaccent" unicode="&#x2d9;" 
d="M248 725h148v-116h-148v116z" />
    <glyph glyph-name="dot" 
d="M253 725h144v-133h-144v133z" />
    <glyph glyph-name="hungarumlaut" unicode="&#x2dd;" 
d="M351 725l-158 -116h-123l94 116h187zM575 725l-158 -116h-124l95 116h187z" />
    <glyph glyph-name="commaaccent" 
d="M261 -136v100h127v-106l-44 -89h-86l38 95h-35z" />
    <glyph glyph-name="ogonek" unicode="&#x2db;" 
d="M271 0h159c-51 -25 -87 -41 -87 -72c0 -27 20 -32 44 -32c21 0 41 6 56 10v-82c-27 -5 -75 -10 -103 -10c-72 0 -138 24 -138 90c0 40 28 73 69 96z" />
    <glyph glyph-name="ring" unicode="&#x2da;" 
d="M323 775c51 0 94 -39 94 -90s-42 -89 -94 -89c-53 0 -95 37 -95 89s43 90 95 90zM323 726c-23 0 -41 -17 -41 -41c0 -23 18 -39 41 -39s41 16 41 39c0 24 -18 41 -41 41z" />
    <glyph glyph-name="tilde" unicode="&#x2dc;" 
d="M383 681c29 0 47 15 52 44h97c-15 -84 -62 -127 -134 -127c-69 0 -97 44 -137 44c-29 0 -46 -15 -52 -44h-96c12 80 59 127 135 127c69 0 90 -44 135 -44z" />
    <glyph glyph-name="caron.slovak" 
d="M397 725l-70 -170h-78l30 170h118z" />
    <glyph glyph-name="fraction" unicode="&#x2044;" 
d="M125 0h-104l500 725h104z" />
    <glyph glyph-name="acute.case" 
d="M476 874l-161 -113h-145l104 113h202z" />
    <glyph glyph-name="breve.case" 
d="M396 874h118c-8 -83 -65 -117 -192 -117c-123 0 -183 34 -190 117h118c5 -35 36 -46 72 -46c37 0 69 11 74 46z" />
    <glyph glyph-name="caron.case" 
d="M240 761l-137 113h164l54 -49l59 49h162l-140 -113h-162z" />
    <glyph glyph-name="cedilla.case" 
d="M206 -187l17 54c12 -7 39 -14 66 -14s49 6 49 29c0 19 -17 28 -41 28c-11 0 -27 -2 -38 -9l-30 17l51 83h62l-33 -52c9 3 21 4 37 4c41 0 94 -17 94 -68c0 -63 -70 -86 -139 -86c-35 0 -67 5 -95 14z" />
    <glyph glyph-name="circumflex.case" 
d="M405 874l138 -113h-164l-55 50l-59 -50h-162l140 113h162z" />
    <glyph glyph-name="dieresis.case" 
d="M134 874h148v-113h-148v113zM364 874h148v-113h-148v113z" />
    <glyph glyph-name="dotaccent.case" 
d="M237 874h172v-113h-172v113z" />
    <glyph glyph-name="grave.case" 
d="M330 761l-160 113h201l105 -113h-146z" />
    <glyph glyph-name="hungarumlaut.case" 
d="M366 874l-160 -113h-145l103 113h202zM585 874l-159 -113h-145l103 113h201z" />
    <glyph glyph-name="macron.case" 
d="M491 771h-336v94h336v-94z" />
    <glyph glyph-name="ogonek.case" 
d="M272 0h159c-51 -25 -88 -41 -88 -72c0 -27 21 -32 45 -32c21 0 41 6 56 10v-82c-27 -5 -75 -10 -103 -10c-72 0 -139 24 -139 90c0 40 29 73 70 96z" />
    <glyph glyph-name="ring.case" 
d="M323 921c51 0 91 -34 91 -85c0 -49 -40 -85 -91 -85s-91 36 -91 85c0 51 42 85 91 85zM323 879c-23 0 -43 -18 -43 -43c0 -24 20 -42 43 -42s43 18 43 42c0 25 -20 43 -43 43z" />
    <glyph glyph-name="tilde.case" 
d="M383 837c31 0 50 12 55 37h97c-18 -100 -100 -115 -145 -115c-65 0 -89 36 -129 36c-31 0 -48 -12 -53 -36h-97c19 100 99 115 144 115c65 0 83 -37 128 -37z" />
    <glyph glyph-name="a.ss01" 
d="M430 268c0 115 -42 176 -111 176c-68 0 -106 -68 -106 -176s38 -175 106 -175c69 0 111 60 111 175zM425 470v68h143v-538h-142l-1 67c-27 -51 -75 -80 -138 -80c-123 0 -219 97 -219 281s96 282 219 282c63 0 111 -29 138 -80z" />
    <glyph glyph-name="aacute.ss01" 
d="M430 268c0 115 -42 176 -111 176c-68 0 -106 -68 -106 -176s38 -175 106 -175c69 0 111 60 111 175zM425 470v68h143v-538h-142l-1 67c-27 -51 -75 -80 -138 -80c-123 0 -219 97 -219 281s96 282 219 282c63 0 111 -29 138 -80zM537 725l-158 -116h-123l94 116h187z" />
    <glyph glyph-name="abreve.ss01" 
d="M430 268c0 115 -42 176 -111 176c-68 0 -106 -68 -106 -176s38 -175 106 -175c69 0 111 60 111 175zM425 470v68h143v-538h-142l-1 67c-27 -51 -75 -80 -138 -80c-123 0 -219 97 -219 281s96 282 219 282c63 0 111 -29 138 -80zM392 725h108c-8 -72 -56 -132 -171 -132
c-111 0 -163 60 -168 132h108c4 -33 24 -50 61 -50s58 17 62 50z" />
    <glyph glyph-name="acircumflex.ss01" 
d="M430 268c0 115 -42 176 -111 176c-68 0 -106 -68 -106 -176s38 -175 106 -175c69 0 111 60 111 175zM425 470v68h143v-538h-142l-1 67c-27 -51 -75 -80 -138 -80c-123 0 -219 97 -219 281s96 282 219 282c63 0 111 -29 138 -80zM404 725l137 -116h-151l-61 47l-64 -47
h-151l140 116h150z" />
    <glyph glyph-name="adieresis.ss01" 
d="M430 268c0 115 -42 176 -111 176c-68 0 -106 -68 -106 -176s38 -175 106 -175c69 0 111 60 111 175zM425 470v68h143v-538h-142l-1 67c-27 -51 -75 -80 -138 -80c-123 0 -219 97 -219 281s96 282 219 282c63 0 111 -29 138 -80zM144 609v116h148v-116h-148zM367 725h148
v-116h-148v116z" />
    <glyph glyph-name="agrave.ss01" 
d="M430 268c0 115 -42 176 -111 176c-68 0 -106 -68 -106 -176s38 -175 106 -175c69 0 111 60 111 175zM425 470v68h143v-538h-142l-1 67c-27 -51 -75 -80 -138 -80c-123 0 -219 97 -219 281s96 282 219 282c63 0 111 -29 138 -80zM303 609l-158 116h187l94 -116h-123z" />
    <glyph glyph-name="amacron.ss01" 
d="M430 268c0 115 -42 176 -111 176c-68 0 -106 -68 -106 -176s38 -175 106 -175c69 0 111 60 111 175zM425 470v68h143v-538h-142l-1 67c-27 -51 -75 -80 -138 -80c-123 0 -219 97 -219 281s96 282 219 282c63 0 111 -29 138 -80zM491 617h-313v108h313v-108z" />
    <glyph glyph-name="aogonek.ss01" 
d="M426 0h142c-32 -20 -70 -45 -70 -74c0 -27 20 -34 44 -34c20 0 41 6 56 10v-82c-27 -5 -75 -10 -103 -10c-72 0 -138 25 -138 92c0 40 28 75 69 98zM430 268c0 115 -42 176 -111 176c-68 0 -106 -68 -106 -176s38 -175 106 -175c69 0 111 60 111 175zM425 470v68h143
v-538h-142l-1 67c-27 -51 -75 -80 -138 -80c-123 0 -219 97 -219 281s96 282 219 282c63 0 111 -29 138 -80z" />
    <glyph glyph-name="aring.ss01" 
d="M430 268c0 115 -42 176 -111 176c-68 0 -106 -68 -106 -176s38 -175 106 -175c69 0 111 60 111 175zM425 470v68h143v-538h-142l-1 67c-27 -51 -75 -80 -138 -80c-123 0 -219 97 -219 281s96 282 219 282c63 0 111 -29 138 -80zM336 775c51 0 94 -39 94 -90
s-42 -89 -94 -89c-53 0 -95 37 -95 89s43 90 95 90zM336 726c-23 0 -41 -17 -41 -41c0 -23 18 -39 41 -39s41 16 41 39c0 24 -18 41 -41 41z" />
    <glyph glyph-name="atilde.ss01" 
d="M430 268c0 115 -42 176 -111 176c-68 0 -106 -68 -106 -176s38 -175 106 -175c69 0 111 60 111 175zM425 470v68h143v-538h-142l-1 67c-27 -51 -75 -80 -138 -80c-123 0 -219 97 -219 281s96 282 219 282c63 0 111 -29 138 -80zM393 681c29 0 47 15 52 44h97
c-15 -84 -62 -127 -134 -127c-69 0 -97 44 -137 44c-29 0 -46 -15 -52 -44h-96c12 80 59 127 135 127c69 0 90 -44 135 -44z" />
    <glyph glyph-name="germandbls.ss03" 
d="M236 3l31 119c26 -9 52 -14 78 -14c48 0 97 31 97 108c0 79 -60 116 -135 116h-29v114h24c69 0 105 41 105 89c0 59 -38 95 -94 95c-96 0 -112 -60 -112 -157v-648h-143v647c0 175 78 266 258 266c129 0 228 -67 228 -195c0 -65 -32 -115 -61 -139
c52 -25 104 -90 104 -183c0 -155 -98 -234 -231 -234c-36 0 -79 4 -120 16z" />
  </font>
</defs>
</svg>
