<?xml version="1.0" encoding="utf-8"?>
<!-- Generator: Adobe Illustrator 26.0.2, SVG Export Plug-In . SVG Version: 6.00 Build 0)  -->
<svg version="1.1" id="Layer_1" xmlns="http://www.w3.org/2000/svg" xmlns:xlink="http://www.w3.org/1999/xlink" x="0px" y="0px"
	 viewBox="0 0 147.5 54.1" style="enable-background:new 0 0 147.5 54.1;" xml:space="preserve">
<style type="text/css">
	.st0{fill:#FFFFFF;}
</style>
<g>
	<g>
		<path class="st0" d="M18.4,23c0,0,0-0.1,0-0.1c0,0,0,0,0,0l0.2-0.2c0,0,0.1,0,0.1,0c0,0,0,0,0,0c0,0,0,0.1,0,0.1L18.5,23
			C18.5,23.1,18.5,23.1,18.4,23C18.4,23.1,18.4,23.1,18.4,23"/>
		<g>
			<path class="st0" d="M30.1,28.9c-0.6-0.2-0.9-0.5-0.9-0.7c0-0.2,0.2-0.5,0.4-0.6c0,0,0.1,0,0.1,0c0,0,0,0.1,0,0.1
				c0,0-0.3,0.2-0.3,0.5c0,0.2,0.1,0.4,0.7,0.6c0,0,0.1,0.1,0.1,0.1c0,0,0,0,0,0C30.2,28.9,30.1,28.9,30.1,28.9
				C30.1,28.9,30.1,28.9,30.1,28.9"/>
			<path class="st0" d="M37.4,28.3c-0.1,0-0.1-0.1-0.1-0.1c0-0.1,0-0.2,0-0.3c0-1-0.3-3.5-0.3-5.1c0-0.4,0-0.8,0.1-1.1
				c0.1-0.9,0.1-1.8,0-2.7c0-0.1,0-0.1,0.1-0.1c0.1,0,0.1,0,0.1,0.1c0,0,0,0,0,0c0.1,0.5,0.1,0.9,0.1,1.4c0,0.5,0,0.9-0.1,1.4
				c0,0.4-0.1,0.7-0.1,1.1c0,1.6,0.3,4.1,0.3,5.1c0,0.1,0,0.2,0,0.4C37.5,28.2,37.5,28.3,37.4,28.3L37.4,28.3"/>
			<path class="st0" d="M34.2,15.1c0,0,0-0.1,0-0.1c0,0,0,0,0,0l0.8-0.8c0,0,0.1,0,0.1,0c0,0,0,0,0,0c0,0,0,0.1,0,0.1l-0.8,0.8
				C34.3,15.1,34.3,15.1,34.2,15.1C34.2,15.1,34.2,15.1,34.2,15.1"/>
			<g>
				<path class="st0" d="M35.4,29.4c0,0-1.2-1.3-2.3-2.5v0c0,0,0-0.1,0-0.1c0,0,0.1,0,0.1,0c1.1,1.2,2.3,2.5,2.3,2.5
					c0,0,0,0.1,0,0.1c0,0,0,0,0,0C35.5,29.4,35.5,29.4,35.4,29.4C35.4,29.4,35.4,29.4,35.4,29.4 M16.3,28.6c0,0,0-0.1,0-0.1
					c0,0,0,0,0,0c0,0,1.1-1,1.2-1.4c0.2-0.4,0.3-0.8,0.3-0.8c0.2-0.5,0.3-1.1,0.4-1.6l0,0c0-0.1,0.1-0.1,0.1-0.1c0,0,0,0,0,0
					c0.1,0,0.1,0.1,0.1,0.1c0,0,0,0,0,0c-0.1,0.6-0.2,1.1-0.4,1.7c0,0-0.2,0.4-0.3,0.8c-0.3,0.6-0.8,1-1.2,1.4
					C16.4,28.6,16.4,28.7,16.3,28.6C16.3,28.7,16.3,28.6,16.3,28.6 M18.4,23.1c-0.2-0.7-1.9-1.4-1.9-1.4c-0.1,0-0.1-0.1-0.1-0.1
					c0-0.1,0.1-0.1,0.1-0.1c0,0,1.7,0.7,2,1.6c0,0.1,0,0.1-0.1,0.1C18.5,23.1,18.5,23.1,18.4,23.1C18.4,23.1,18.4,23.1,18.4,23.1
					 M13.8,23.1c0,0,0-0.1,0-0.1c0,0,0,0,0,0c0.4-0.4,0.9-0.6,1.5-0.6c0,0,0.4,0,0.8,0c0.1,0,0.1,0,0.1,0.1c0,0,0,0,0,0
					c0,0.1,0,0.1-0.1,0.1c0,0,0,0,0,0c-0.3,0-0.7,0-0.7,0c-0.5,0-1,0.1-1.3,0.5C13.9,23.1,13.9,23.1,13.8,23.1
					C13.8,23.1,13.8,23.1,13.8,23.1 M30.7,22.2c0-0.4-0.1-0.8-0.1-1.3c0-0.2,0-0.3,0-0.3l0,0c0-0.1,0.1-0.1,0.1-0.1
					c0.1,0,0.1,0.1,0.1,0.1c0,0,0,0.1,0,0.3c0,0.4,0,0.8,0.1,1.2c0,0.1,0,0.1-0.1,0.1h0C30.8,22.3,30.7,22.3,30.7,22.2 M12,21.4
					c0,0-0.3-1-0.5-2.1c-0.1-0.5-0.2-1-0.2-1.5c0-0.1,0-0.3,0-0.4h0c0-0.1,0.1-0.1,0.1-0.1c0,0,0,0,0,0c0.1,0,0.1,0.1,0.1,0.1
					c0,0.1,0,0.3,0,0.4c0,0.5,0.1,0.9,0.2,1.4c0.2,1.1,0.5,2.1,0.5,2.1c0,0.1,0,0.1-0.1,0.1C12.1,21.5,12.1,21.5,12,21.4
					C12,21.5,12,21.4,12,21.4 M22.7,20.8c-0.1,0-0.1-0.1-0.1-0.1c0,0,0.7-2.2,1.3-2.5c0.1,0,0.1,0,0.1,0.1c0,0.1,0,0.1-0.1,0.1
					c-0.3,0.4-0.6,0.8-0.7,1.2c-0.2,0.6-0.4,1.1-0.4,1.1l0,0C22.8,20.8,22.8,20.8,22.7,20.8C22.7,20.8,22.7,20.8,22.7,20.8 M28.9,19
					c-0.1,0-0.1-0.1-0.1-0.1c0.1-0.4,0.2-0.7,0.3-1.1h0c0-0.1,0.1-0.1,0.1-0.1c0,0,0,0,0,0c0.1,0,0.1,0.1,0.1,0.1c0,0,0,0,0,0
					c-0.1,0.4-0.2,0.8-0.3,1.1C29,19,28.9,19,28.9,19C28.9,19,28.9,19,28.9,19 M29.3,18.6c0-0.1,0-0.1,0.1-0.1c0,0,0,0,0,0l1.8-0.1
					c0.2,0,0.4-0.1,0.6-0.2c0,0,0.1,0,0.1,0c0,0,0,0.1,0,0.1c0,0,0,0,0,0c-0.2,0.1-0.5,0.2-0.7,0.2l-1.9,0.1h0
					C29.4,18.7,29.3,18.6,29.3,18.6 M20.8,17.4c-0.2,0-0.4,0-0.6-0.1c-0.1,0-0.1-0.1-0.1-0.1c0-0.1,0.1-0.1,0.1-0.1c0,0,0,0,0,0
					c0.2,0,0.4,0,0.6,0c0.6,0.1,1.1-0.2,1.4-0.8c0-0.1,0.1-0.1,0.1-0.1c0,0,0,0,0,0c0.1,0,0.1,0.1,0.1,0.1
					C22.1,17.1,21.5,17.5,20.8,17.4L20.8,17.4z M30.5,16.2c0-1-0.7-1.1-1.1-1.1c-0.1,0-0.1,0-0.2,0l0,0c-0.1,0-0.1,0-0.1-0.1
					c0-0.1,0-0.1,0.1-0.1c0,0,0,0,0,0c0.1,0,0.2,0,0.3,0c0.7,0,1.2,0.5,1.3,1.1c0,0.1,0,0.1,0,0.2c0,0.1,0,0.1-0.1,0.1c0,0,0,0,0,0
					h0C30.5,16.3,30.5,16.3,30.5,16.2 M21.8,14.3c0-0.1,0-0.1,0-0.1c0.1,0,0.2-0.1,0.3-0.2c-0.2-0.1-0.4-0.3-0.6-0.4
					c-0.1,0-0.2-0.1-0.2-0.2c0-0.1,0.1-0.2,0.2-0.3c0,0,0.1,0,0.1,0c0,0,0,0.1,0,0.1c0,0-0.1,0.1-0.1,0.1c0,0,0,0,0.1,0
					c0.3,0.1,0.5,0.3,0.7,0.4l0,0.1c-0.1,0.2-0.2,0.3-0.4,0.4l0,0C22,14.3,21.9,14.3,21.8,14.3C21.9,14.3,21.9,14.3,21.8,14.3"/>
				<g>
					<path class="st0" d="M21.7,41.4l0.4,0l0,1.9l-0.4,0L21.7,41.4z M20.7,43.3l0.1-1.9l0.4,0l-0.1,1.9L20.7,43.3z M22.6,41.4l0.4,0
						l0.1,1.9l-0.4,0L22.6,41.4z M19.7,43.2l0.2-1.9l0.4,0l-0.2,1.9L19.7,43.2z M23.5,41.3l0.4,0l0.2,1.9l-0.4,0L23.5,41.3z
						 M18.7,43.1l0.2-1.9l0.4,0l-0.2,1.9L18.7,43.1z M24.5,41.2l0.4-0.1l0.3,1.9l-0.4,0.1L24.5,41.2z M17.7,43l0.3-1.9l0.4,0.1
						L18.1,43L17.7,43z M25.4,41.1l0.4-0.1l0.4,1.9L25.7,43L25.4,41.1z M16.7,42.8l0.4-1.9l0.4,0.1l-0.4,1.9L16.7,42.8z M26.3,40.9
						l0.3-0.1l0.5,1.9l-0.3,0.1L26.3,40.9z M15.7,42.5l0.5-1.9l0.3,0.1l-0.5,1.8L15.7,42.5z M27.2,40.6l0.3-0.1l0.5,1.8l-0.3,0.1
						L27.2,40.6z M14.8,42.2l0.6-1.8l0.3,0.1l-0.6,1.8L14.8,42.2z M28,40.4l0.3-0.1l0.6,1.8l-0.3,0.1L28,40.4z M13.8,41.9l0.7-1.8
						l0.3,0.1L14.2,42L13.8,41.9z M28.9,40.1l0.3-0.1l0.7,1.8l-0.3,0.1L28.9,40.1z M12.9,41.5l0.8-1.8l0.3,0.1l-0.8,1.8L12.9,41.5z
						 M29.7,39.7l0.3-0.2l0.8,1.7l-0.3,0.1L29.7,39.7z M12,41.1l0.8-1.7l0.3,0.2l-0.8,1.7L12,41.1z M30.6,39.3l0.3-0.2l0.9,1.7
						L31.5,41L30.6,39.3z M11.1,40.6l0.9-1.7l0.3,0.2l-0.9,1.7L11.1,40.6z M31.4,38.9l0.3-0.2l1,1.7l-0.3,0.2L31.4,38.9z M10.2,40.1
						l1-1.6l0.3,0.2l-1,1.6L10.2,40.1z M32.2,38.4l0.3-0.2l1,1.6L33.2,40L32.2,38.4z M9.4,39.5l1.1-1.6l0.3,0.2l-1.1,1.6L9.4,39.5z
						 M32.9,37.9l0.3-0.2l1.1,1.6l-0.3,0.2L32.9,37.9z M8.5,38.9l1.2-1.5l0.3,0.2l-1.2,1.5L8.5,38.9z M33.7,37.3l0.3-0.2l1.2,1.5
						l-0.3,0.2L33.7,37.3z M7.8,38.3L9,36.8L9.3,37L8,38.5L7.8,38.3z M34.4,36.8l0.3-0.2l1.2,1.5l-0.3,0.2L34.4,36.8z M7,37.6
						l1.3-1.4l0.3,0.2l-1.3,1.4L7,37.6z M35.1,36.2l0.3-0.2l1.3,1.4l-0.3,0.2L35.1,36.2z M6.3,36.9l1.3-1.4l0.3,0.3l-1.3,1.4
						L6.3,36.9z M35.8,35.5l0.2-0.3l1.4,1.3l-0.2,0.3L35.8,35.5z M5.6,36.2L7,34.9l0.2,0.3l-1.4,1.3L5.6,36.2z M36.4,34.8l0.2-0.3
						l1.4,1.3l-0.2,0.3L36.4,34.8z M4.9,35.4l1.5-1.2l0.2,0.3l-1.5,1.2L4.9,35.4z M37,34.1l0.2-0.3l1.5,1.2l-0.2,0.3L37,34.1z
						 M4.3,34.6l1.5-1.2L6,33.7l-1.5,1.2L4.3,34.6z M37.5,33.4l0.2-0.3l1.6,1.1l-0.2,0.3L37.5,33.4z M3.7,33.8l1.6-1.1L5.5,33
						l-1.6,1.1L3.7,33.8z M38.1,32.7l0.2-0.3l1.6,1.1l-0.2,0.3L38.1,32.7z M3.2,32.9l1.6-1L5,32.2l-1.6,1L3.2,32.9z M38.6,31.9
						l0.2-0.3l1.6,1l-0.2,0.3L38.6,31.9z M2.7,32.1l1.7-0.9l0.2,0.3l-1.7,0.9L2.7,32.1z M39,31.1l0.2-0.3l1.7,0.9L40.7,32L39,31.1z
						 M2.2,31.2l1.7-0.9l0.2,0.3l-1.7,0.9L2.2,31.2z M39.5,30.3l0.2-0.3l1.7,0.8l-0.2,0.3L39.5,30.3z M1.8,30.3l1.8-0.8l0.1,0.3
						l-1.8,0.8L1.8,30.3z M39.8,29.4l0.1-0.3l1.8,0.7l-0.1,0.3L39.8,29.4z M1.4,29.3l1.8-0.7L3.3,29l-1.8,0.7L1.4,29.3z M40.2,28.6
						l0.1-0.3l1.8,0.6L42,29.2L40.2,28.6z M1.1,28.4l1.8-0.6L3,28.1l-1.8,0.6L1.1,28.4z M40.5,27.7l0.1-0.3l1.8,0.6l-0.1,0.3
						L40.5,27.7z M0.8,27.4l1.8-0.5l0.1,0.3l-1.9,0.5L0.8,27.4z M40.7,26.8l0.1-0.3l1.9,0.5l-0.1,0.3L40.7,26.8z M0.5,26.4L2.4,26
						l0.1,0.3l-1.9,0.4L0.5,26.4z M41,25.9l0.1-0.3l1.9,0.4l-0.1,0.4L41,25.9z M0.3,25.4l1.9-0.4l0.1,0.4l-1.9,0.4L0.3,25.4z
						 M41.1,25l0.1-0.4l1.9,0.3L43,25.3L41.1,25z M0.2,24.4l1.9-0.3l0.1,0.4l-1.9,0.3L0.2,24.4z M41.3,24.1l0-0.4l1.9,0.2l0,0.4
						L41.3,24.1z M0.1,23.4L2,23.3l0,0.4l-1.9,0.2L0.1,23.4z M41.4,23.2l0-0.4l1.9,0.1l0,0.4L41.4,23.2z M0,22.4l1.9-0.1l0,0.4
						L0,22.8L0,22.4z M41.4,22.5l0-0.4l1.9,0.1l0,0.4L41.4,22.5z M0,21.8v-0.4l1.9,0v0.4L0,21.8z M41.4,21.2l1.9,0l0,0.4l-1.9,0
						L41.4,21.2z M0,20.8l0-0.4L2,20.5l0,0.4L0,20.8z M41.4,20.3l1.9-0.1l0,0.4l-1.9,0.1L41.4,20.3z M0.1,19.8l0-0.4L2,19.6l0,0.4
						L0.1,19.8z M41.3,19.3l1.9-0.2l0,0.4l-1.9,0.2L41.3,19.3z M0.2,18.7l0-0.4l1.9,0.3L2.1,19L0.2,18.7z M41.2,18.4l1.9-0.3
						l0.1,0.4l-1.9,0.3L41.2,18.4z M0.4,17.7l0.1-0.3l1.9,0.4l-0.1,0.3L0.4,17.7z M41,17.5l1.9-0.4l0.1,0.4l-1.9,0.4L41,17.5z
						 M0.6,16.8l0.1-0.4l1.9,0.4l-0.1,0.4L0.6,16.8z M40.8,16.6l1.9-0.5l0.1,0.3L40.9,17L40.8,16.6z M0.8,15.8l0.1-0.3L2.8,16
						l-0.1,0.3L0.8,15.8z M40.5,15.8l1.8-0.6l0.1,0.3l-1.8,0.6L40.5,15.8z M1.1,14.8l0.1-0.3L3,15.1l-0.1,0.3L1.1,14.8z M40.2,14.9
						l1.8-0.6l0.1,0.3l-1.8,0.6L40.2,14.9z M1.4,13.9l0.1-0.3l1.8,0.7l-0.1,0.3L1.4,13.9z M39.9,14l1.8-0.7l0.1,0.3L40,14.4L39.9,14
						z M1.8,12.9L2,12.6l1.7,0.8l-0.1,0.3L1.8,12.9z M39.5,13.2l1.7-0.8l0.2,0.3l-1.7,0.8L39.5,13.2z M2.3,12l0.2-0.3l1.7,0.9
						L4,12.9L2.3,12z M39.1,12.4l1.7-0.9l0.2,0.3l-1.7,0.9L39.1,12.4z M2.7,11.1l0.2-0.3l1.7,0.9l-0.2,0.3L2.7,11.1z M38.6,11.6
						l1.7-1l0.2,0.3l-1.7,1L38.6,11.6z M3.2,10.3L3.4,10l1.6,1l-0.2,0.3L3.2,10.3z M38.2,10.8l1.6-1L40,10l-1.6,1L38.2,10.8z
						 M3.8,9.4L4,9.1l1.6,1.1l-0.2,0.3L3.8,9.4z M37.6,10l1.6-1.1l0.2,0.3l-1.6,1.1L37.6,10z M4.4,8.6l0.2-0.3l1.5,1.2L5.9,9.8
						L4.4,8.6z M37.1,9.3l1.5-1.2l0.2,0.3l-1.5,1.2L37.1,9.3z M5,7.8l0.2-0.3l1.5,1.2L6.5,9L5,7.8z M36.5,8.6l1.4-1.3l0.2,0.3
						l-1.4,1.3L36.5,8.6z M5.7,7l0.2-0.3l1.4,1.3L7.1,8.3L5.7,7z M35.9,7.9l1.4-1.3l0.2,0.3l-1.4,1.3L35.9,7.9z M6.4,6.3l0.3-0.2
						L8,7.4L7.7,7.7L6.4,6.3z M35.2,7.3l1.3-1.4l0.3,0.2l-1.3,1.4L35.2,7.3z M7.1,5.6l0.3-0.2l1.3,1.4L8.4,7L7.1,5.6z M34.5,6.7
						l1.3-1.5L36,5.4l-1.3,1.5L34.5,6.7z M7.9,5l0.3-0.2l1.2,1.5L9.1,6.4L7.9,5z M33.8,6.1L35,4.6l0.3,0.2l-1.2,1.5L33.8,6.1z
						 M8.7,4.3L9,4.1l1.1,1.5L9.8,5.9L8.7,4.3z M33.1,5.5L34.2,4l0.3,0.2l-1.1,1.6L33.1,5.5z M9.5,3.7l0.3-0.2l1.1,1.6l-0.3,0.2
						L9.5,3.7z M32.3,5l1.1-1.6l0.3,0.2l-1.1,1.6L32.3,5z M10.3,3.2L10.7,3l1,1.6l-0.3,0.2L10.3,3.2z M31.5,4.5l1-1.7l0.3,0.2
						l-1,1.7L31.5,4.5z M11.2,2.7l0.3-0.2l0.9,1.7l-0.3,0.2L11.2,2.7z M30.7,4.1l0.9-1.7l0.3,0.2L31,4.3L30.7,4.1z M12.1,2.2
						l0.3-0.2l0.8,1.7l-0.3,0.2L12.1,2.2z M29.9,3.7L30.7,2L31,2.1l-0.8,1.7L29.9,3.7z M13,1.8l0.3-0.1l0.8,1.8l-0.3,0.1L13,1.8z
						 M29,3.3l0.7-1.8l0.3,0.1l-0.7,1.8L29,3.3z M14,1.4l0.3-0.1L15,3.1l-0.3,0.1L14,1.4z M28.2,3l0.6-1.8l0.3,0.1l-0.6,1.8L28.2,3z
						 M14.9,1.1L15.3,1l0.6,1.8l-0.3,0.1L14.9,1.1z M27.3,2.7l0.5-1.8L28.2,1l-0.5,1.8L27.3,2.7z M15.9,0.8l0.3-0.1l0.5,1.9
						l-0.3,0.1L15.9,0.8z M26.4,2.5l0.5-1.9l0.3,0.1l-0.5,1.9L26.4,2.5z M16.9,0.5l0.3-0.1l0.4,1.9l-0.4,0.1L16.9,0.5z M25.5,2.3
						l0.4-1.9l0.3,0.1l-0.4,1.9L25.5,2.3z M17.8,0.3l0.4-0.1l0.3,1.9l-0.4,0.1L17.8,0.3z M24.6,2.1l0.3-1.9l0.4,0.1l-0.3,1.9
						L24.6,2.1z M18.8,0.2l0.4,0L19.4,2l-0.4,0L18.8,0.2z M23.7,2l0.2-1.9l0.4,0L24,2.1L23.7,2z M19.9,0.1l0.4,0L20.4,2L20,2
						L19.9,0.1z M22.8,1.9L22.9,0l0.4,0L23.1,2L22.8,1.9z M20.9,0l0.4,0l0,1.9l-0.4,0L20.9,0z M21.8,1.9l0-1.9l0.4,0l0,1.9L21.8,1.9
						z"/>
					<path class="st0" d="M22.4,35.4l-3.2-1.1c0,0-0.1-0.1-0.1-0.1v-0.8c0,0,0,0,0,0c0,0,0,0,0,0l0,0l0,0l0,0h0c0,0,0,0,0,0l0,0h0
						c0,0,0,0,0,0h0l3.2-0.8l0.2-1.3c-0.2-0.1-0.2-0.3-0.2-0.4v0l-0.1-1.3c-0.1-0.1-0.1-0.1-0.2-0.2c0,0,0,0,0,0
						c-0.1-0.1-0.2-0.1-0.3-0.1c-0.3,0-0.7,0.3-1.2,0.5c-0.4,0.1-0.9,0.2-1.4,0.2c0,0,0,0,0,0c-0.7-0.2-2.3-1.9-2.3-1.9l0,0
						c0,0,0-0.1,0-0.1c0,0,0,0,0,0c0,0,0.1,0,0.1,0c0,0,0,0,0,0c0,0,0.4,0.4,0.8,0.8c0-0.5-0.1-1.6-0.1-2.2c0-0.1,0-0.2,0-0.3
						c0-0.1,0.1-0.1,0.1-0.1c0,0,0,0,0,0c0.1,0,0.1,0.1,0.1,0.1c0,0,0,0,0,0c0,0.1,0,0.2,0,0.3c0,0.7,0.1,2.4,0.1,2.4l0,0v0
						c0.3,0.3,0.7,0.6,1.1,0.8c0.4-0.9,0.6-1.9,0.8-2.8c0,0,0.1-0.7,0.1-1.6v0c0-0.1,0.1-0.1,0.1-0.1c0.1,0,0.1,0.1,0.1,0.1
						c0,0,0,0,0,0c-0.1,0.9-0.1,1.6-0.1,1.6c-0.1,1-0.4,1.9-0.7,2.8c0.4,0,0.8-0.1,1.1-0.2c0.5-0.1,0.8-0.5,1.3-0.5
						c0.1,0,0.2,0,0.3,0c0-0.1,0-0.1,0-0.2c0-0.1,0-0.2,0-0.3c0.1-0.4,0.3-0.8,0.5-1.1c0.1-0.1,0.1-0.3,0.2-0.6l0,0.1
						c0,0.1-0.1,0.1-0.2,0.1c-0.1,0-0.2-0.1-0.3-0.2c0,0,0-0.1,0-0.1c0-0.2,0.1-0.4,0.2-0.6c0,0,0-0.1,0-0.1
						c-0.1,0.1-0.2,0.1-0.3,0.1c-0.1,0-0.1,0-0.2,0c-0.2-0.1-0.4-0.2-0.5-0.3l-0.3-0.3c-0.1-0.1-0.1-0.1-0.1-0.2
						c0-0.1,0.1-0.2,0.2-0.2c0,0,0,0,0-0.1c0-0.1,0.1-0.2,0.2-0.2c0,0,0.1,0,0.1,0c0.2,0.1,0.3,0.2,0.4,0.4h0c0,0,0.1,0,0.1-0.1
						c0,0,0.1-0.1,0.1-0.1l0,0c0,0,0,0,0-0.1c0,0,0-0.1,0-0.1l0,0l0,0c0-0.3,0.1-0.5,0.2-0.8c0-0.1,0.1-0.2,0.2-0.3c0,0,0,0,0,0
						c-0.1-0.2-0.2-0.5-0.2-0.8c0-0.4,0.1-0.7,0.4-1c0-0.1-0.1-0.8-0.1-1.3c0-0.1,0-0.1,0-0.2c0-0.2,0.3-1.4,0.5-2.4
						c0-0.1,0.1-0.1,0.1-0.1c0,0,0,0,0,0c0.1,0,0.1,0.1,0.1,0.1c-0.2,1-0.5,2.1-0.5,2.3c0,0,0,0.1,0,0.2c0,0.3,0,0.8,0,1.1
						c0.2-0.2,0.4-0.3,0.7-0.4c0.1,0,0.1,0,0.1,0.1c0,0.1,0,0.1-0.1,0.1c0,0,0,0,0,0c0,0-1.1,0.5-1.1,1.5c0,0.2,0,0.4,0.1,0.6l0,0
						c0,0,0,0,0,0l0,0c0,0,0.1-0.1,0.4-0.3c0.1-0.1,0.3-0.2,0.5-0.2c0.1,0,0.2,0,0.3,0.1c0.1-0.4,0.4-0.8,0.7-1.1
						c0.1-0.1,0.2-0.3,0.2-0.5l-0.1,0c0,0-0.1,0-0.1-0.1c0,0-0.2-0.8-0.3-1.2c0,0,0-0.1,0-0.1c0.1-0.4,0.3-0.9,0.6-1.2
						c0.1,0,0.2-0.3,0.2-0.3c0,0,0,0,0,0c-0.1-0.2-0.2-0.4-0.3-0.7c0-0.2,0-0.4,0-0.5v-0.1c0,0,0,0,0,0c-0.1-0.1-0.2-0.2-0.2-0.3
						c0,0,0-0.1,0-0.1c0,0,0,0,0,0c0-0.1,0-0.1,0-0.2L23.3,16c0,0.1-0.1,0.2-0.2,0.3c-0.1,0.1-0.2,0.2-0.4,0.3
						c-0.1,0-0.2,0.1-0.3,0.1h-0.1l-0.1-0.1c0,0-0.1-0.1-0.1-0.2c-0.2-0.2-0.3-0.4-0.3-0.7c-0.5,0-1-0.1-1.5-0.2
						c0,0.1,0.1,0.2,0.1,0.3c0,0.1,0.1,0.3,0.1,0.4c0,0.1,0,0.2,0,0.2c0,0-0.1,0.8-0.5,1c-0.1,0-0.2,0-0.4,0c-0.5,0-1.1-0.1-1.3-0.3
						c0-0.1-0.1-0.2-0.5-0.4c-0.9,0.7-1.4,1.8-1.3,2.9c0,0.2,0,0.5,0,0.7c0.1,0,0.2,0.1,0.2,0.1c0-0.1,0-0.2,0-0.2
						c0-0.2,0-0.4,0.2-0.5c0,0,0,0,0,0c0,0,0.1-0.1,0.2-0.2c0.1-0.1,0.3-0.3,0.5-0.4c0.1,0,0.2-0.1,0.3-0.2c0.2-0.2,0.4-0.4,0.7-0.4
						c0,0,0.1,0,0.1,0c0.5,0,1,0.1,1.5,0.2c0.1,0.1,0.4,0.3,0.6,0.4c0.1,0,0.1,0.1,0.1,0.1c0,0,0.1,0,0.1,0l0-1.8
						c0-0.1,0-0.1,0.1-0.1c0.1,0,0.1,0,0.1,0.1c0,0,0,0,0,0l0,1.9c0.2,0,0.3,0.2,0.4,0.4c0.1,0.1,0.1,0.2,0.1,0.3
						c0,0.1,0,0.1-0.1,0.2c0.2,0.1,0.4,0.3,0.5,0.5c0,0.1,0.1,0.2,0.1,0.3c0,0.3-0.1,0.5-0.4,0.6c0,0-0.3,0-0.5,0
						c0,0.2-0.2,0.4-0.3,0.5c0,0.1,0,0.5,0,0.7c0,0.2-0.2,0.3-0.3,0.2c0,0,0,0,0,0c0,0-0.1,0-0.1,0c0,0.1-0.1,0.2-0.3,0.2
						c-0.1,0-0.2,0.1-0.3,0.2c0,0-0.1,0.1-0.3,0.2c-0.1,0-0.1,0-0.2,0c-0.3,0-0.7-0.1-0.9-0.4c-0.1-0.2-0.2-0.3-0.3-0.5l0,0
						c0-0.1,0-0.1,0-0.1c0,0,0,0,0,0c0.1,0,0.1,0,0.1,0c0,0,0,0,0,0c0.1,0.2,0.2,0.3,0.3,0.5c0.2,0.2,0.5,0.3,0.8,0.3
						c0.1,0,0.1,0,0.2,0c0.1,0,0.1-0.1,0.3-0.2c0,0,0,0,0,0L20.2,23c0,0,0-0.1,0-0.1c0,0,0.1,0,0.1,0c0,0,0,0,0,0l0.1,0.1
						c0,0,0,0,0,0c0,0,0.1,0,0.1,0c0,0,0.1-0.1,0.1-0.1c-0.1,0-0.2-0.1-0.2-0.2h0v0h0c0,0,0,0,0-0.1c0,0,0.1,0,0.1,0l0,0
						c0,0,0,0,0,0.1l0,0c0,0,0,0,0.1,0c0,0,0.1,0,0.1,0l0,0c0,0,0.1,0,0.1,0c0.1,0,0.1,0,0.1,0c0-0.2,0-0.7,0-0.7l0-0.1
						c0.2-0.1,0.3-0.3,0.3-0.5c0,0,0-0.1-0.1-0.1c0,0-0.1,0-0.1,0c0,0-0.1,0-0.1,0c-0.2,0.1-0.4,0.3-0.6,0.4c-0.1,0-0.2,0-0.3,0.1
						l0,0c0,0.1-0.1,0.2-0.6,0.5l-1.3,0.3c0.1,0.4,0.2,0.8,0.2,0.7c0,0.1,0.1,0.3,0.1,0.4c0,0,0,0,0,0c0,0.4-0.2,1.8-1.4,2v0h0
						c-0.4,0.5-0.9,0.8-1.5,0.9c0.2,0.4,0.3,0.8,0.5,1.2c0,0.2,0.3,1,0.5,1.6c0.1,0.4,0.2,0.7,0.3,0.8c0.1,0.2,0.2,0.5,0.2,0.8
						c0,0.1,0,0.2,0,0.2l0,0c0,0,0,0,0,0c0.2,0.2,0.3,0.4,0.4,0.6c0.1,0.2,0.2,0.5,0.1,0.7c0,0.3,0,0.5-0.1,0.8
						c0,0.3-0.2,0.4-0.6,0.8c-0.2,0.2-0.5,0.3-0.9,0.3c-0.3,0-0.6,0-0.9-0.1c-0.6-0.2-1.2-0.3-1.8-0.4c-0.7-0.2-1.3-0.5-1.9-0.8
						c-0.6-0.4-1.1-0.8-1.6-1.3c-0.2-0.1-0.4-0.2-0.6-0.2v0c-0.4,0.2-0.7,0.4-1,0.6c-0.1,0-0.1,0.1-0.2,0.2c0,0,0,0,0,0
						c0,0,0,0.1,0.1,0.1c0,0,0,0,0.2,0.1c0.1,0,0.2,0.1,0.3,0.1c0.1,0,0.1,0.1,0.1,0.1c0,0.2-0.1,0.3-0.3,0.4l0,0c0,0,0,0.1,0,0.1
						c-0.1,0.2-0.2,0.2-0.3,0.2c0,0,0,0-0.1,0c-0.1,0-0.1,0-0.2,0v0l0,0v0c-0.1,0-0.2,0-0.3,0c-0.1-0.1-0.2-0.1-0.2-0.2l0,0
						c0,0,0,0,0,0c0,0,0-0.1-0.1-0.1c0-0.1-0.1-0.2-0.2-0.3c-0.1-0.2-0.2-0.4-0.3-0.6c0,0,0,0,0-0.1c0.1-0.5,0.3-1,0.5-1.4
						c0.1-0.3,0.2-0.6,0.2-0.9c0-0.1,0.1-0.3,0.2-0.4c-0.3-0.4-0.5-0.9-0.5-1.4c0-0.2,0-0.3,0-0.5c0,0,0,0,0,0
						c-0.2-0.3-0.3-0.6-0.3-0.9C7,26.8,6.8,27,6.6,27.1l-0.1,0h0c-0.4,0-0.8-0.3-0.9-0.8c0-0.1,0-0.1,0-0.2c0-0.3,0-0.5,0.1-0.8
						c0.1-0.3,0.3-0.6,0.6-0.8c-0.1,0-0.2,0-0.3,0c-0.1-0.1-0.2-0.2-0.3-0.3c-0.1-0.2-0.3-0.1-0.7-0.2c-0.1,0-0.1,0-0.2-0.1
						c-0.2,0-0.4-0.1-0.6-0.1c-0.3-0.1-0.5-0.1-0.6-0.3c0,0,0,0,0-0.1c0,0,0,0-0.1,0L3,23.1c-0.1-0.1-0.2-0.2-0.2-0.4
						c0-0.1,0-0.2,0.1-0.3c0.5-0.5,1-1.2,1.3-1.8c0.2-0.8,0.3-1.6,0.3-2.4c0.2-1.4,0.7-1.9,0.9-2c-0.2-0.2-0.3-0.5-0.3-0.8
						c0-0.1,0-0.3,0.1-0.4C5.1,14.7,5,14.6,5,14.6c-0.2-0.2-0.2-0.4-0.2-0.7c0-0.1,0-0.3,0.1-0.4c0.2-0.1,0.6-0.7,0.6-0.7
						c0.7-1.3,1.4-1.5,1.5-1.5c0-0.1,0-0.2,0.1-0.2c0.1-0.4,0.5-0.7,0.9-0.9c0.2-0.1,0.6-0.8,0.9-1c0.6-0.2,1.2-0.4,1.9-0.5
						c0.3-0.1,0.6-0.1,0.9-0.1c0.4,0,0.7,0,1.1,0.1h0.1c0,0,0,0,0.1,0c0.3,0,0.6,0.1,0.9,0.2c0-0.2,0.2-0.4,0.3-0.5c0,0,0.1,0,0.1,0
						c0.1-0.4,0.8-0.5,1-0.5c0.1-0.4,0.6-0.5,1-0.5c0.2,0,0.5,0,0.7,0.1c0.1,0,0.2,0,0.2,0c0.5,0,0.9,0.2,1.3,0.5c0,0,0.1,0,0.1,0
						c0.4,0,0.7,0.3,0.9,0.6c0.3,0.1,0.4,0.4,0.4,0.7c0,0.2,0,0.3-0.1,0.5c0,0.2-0.2,0.3-0.4,0.3c0,0,0,0-0.1,0c-0.1,0-0.2,0-0.2,0
						c0,0-0.1,0.1-0.1,0.2c-0.2,0.4-0.3,0.8-0.4,1.2c0,0.1-0.1,0.3-0.2,0.3c-0.1,0-0.1,0-0.2-0.1c0,0-0.1,0.1-0.1,0.1
						c-0.1,0-0.2,0.1-0.3,0.1c0,0.1-0.1,0.1-0.2,0.2c0,0-0.1,0.1-0.1,0.1c0,0.1-0.1,0.3-0.3,0.3h0c-0.2,0-0.4-0.1-0.6-0.2l-0.4-0.2
						c0,0.3-0.1,0.5-0.2,0.8c0,0,0,0,0,0v0.1c0,0.2,0,0.3,0,0.5c0,0.1-0.1,0.1-0.2,0.2c0.1,0.1,0.6,0.4,0.7,0.7v0l0.2,0.1l0.2,0
						c0,0,0.5,0.1,0.6,0.1c0.1,0,0.5,0.1,0.5,0.1l0.1,0.1c0,0,0,0,0,0.1c0,0.2-0.3,0.3-0.3,0.3l-0.3,0.1l0.1,0.1
						c0,0.1,0.1,0.1,0.1,0.2c0,0.1-0.1,0.3-0.2,0.4c0,0,0,0.1,0,0.1c0,0.2-0.1,0.4-0.3,0.5C17,15.9,16.9,16,16.7,16
						c-0.3,0-0.5-0.1-0.8-0.3c0,0,0,0,0,0c0,0-0.9,0-1,0c-0.6-0.1-1.1-0.4-1.4-1c-0.1-0.1-0.1-0.2-0.1-0.3c0-0.1,0-0.1,0-0.2
						l-0.6,0.3c0,0,0,0,0,0.1c0.3,0.6,0.5,1.2,0.6,1.9v0c0,0,0,0,0,0.1c0,0.6,0.1,1.2,0.3,1.7c0.1,0.4,0.3,0.7,0.5,1.1l0,0
						c0.2,0,0.4,0.1,0.5,0.2c0.1,0.1,0.3,0.2,0.5,0.3c0.1,0,0.2,0.1,0.2,0.2c0.3,0.1,0.7,0.2,1,0.3c0-0.2,0-0.4,0-0.6
						c-0.1-1.2,0.4-2.3,1.4-3c0-0.1-0.1-0.1-0.1-0.2c0-0.4,0.6-0.9,0.6-1c0-0.1,0,0,0.1-0.4c0.1-0.5,0.3-1,0.4-1.6
						c0.1-0.2,0.2-0.3,0.4-0.4c0.1-0.3,0.4-0.5,0.7-0.5c0,0,0.1,0,0.1,0c0.1,0,0.2-0.1,0.3-0.1c0,0,0.1,0,0.1,0
						c0.2-0.1,0.4-0.1,0.6-0.2c0,0,0,0,0,0c0,0,0.4,0,0.5,0.3c0,0,0.3,0.1,0.4,0.3c-0.1,0,0.3,0,0.3,0.4v0c0.1,0.1,0.1,0.1,0.2,0.2
						c0.1,0.1,0.2,0.1,0.2,0.2c0.1-0.3,0.3-0.6,0.3-0.7c0.2-0.3,0.3-0.7,0.3-1.1c0-0.5-0.1-0.9-0.3-1.4v0c0,0-0.1,0.1-0.2,0.1
						c-0.1,0.1-0.1,0.1-0.1,0.1v0c0,0,0,0,0,0c-0.1,0.1-0.1,0.1-0.2,0.2c-0.2,0.1-0.3,0.1-0.5,0.2c-0.1,0.3-0.4,0.2-0.6,0.4
						c-0.1,0.1-0.3,0.1-0.4,0.1c-0.2,0-0.4-0.1-0.5-0.2c0,0-0.6-0.5-0.7-0.7l0,0c0,0.1-0.1,0.1-0.3,0.1h0c-0.2,0-0.4-0.1-0.5-0.3
						c0,0,0,0,0-0.1c0.1-0.2,0.4-0.3,0.4-0.3c0.2-0.1,0.5-0.2,0.8-0.3c0,0,0.1,0,0.1,0c0-0.3,0.1-0.5,0.2-0.8
						c0.2-0.1,0.3-0.3,0.5-0.3c-0.1-0.1-0.1-0.3-0.1-0.5c0-0.3,0.1-0.6,0.3-0.8c0.5-0.6,0.7-0.7,1-0.8C22.2,7,22.6,7,22.6,7
						c0.3-0.2,0.5-0.3,0.8-0.3c0.2,0,0.4,0.1,0.6,0.2c0.1-0.1,0.3-0.3,0.4-0.4c0.3-0.1,0.6-0.2,0.9-0.3c0,0,0.1,0,0.2,0
						c0.4,0,0.8,0.1,1.2,0.4c0.3,0,0.6,0.2,0.7,0.4c0.2,0.3,0.3,0.7,0.4,1c0,0,0,0,0,0c0,0.2-0.1,0.3-0.1,0.4h0l0,0c0,0,0,0,0,0.1
						c0,0.2,0,0.4-0.1,0.6c1,0.4,1.8,1.1,2.3,2c0.2,0.3,0.3,0.6,0.3,0.9c0,0.1,0,0.1,0,0.1v0c0.3,0.2,0.5,0.4,0.6,0.7
						c0.3,0,0.6-0.1,0.9-0.1c0.3,0,0.6,0,0.9,0.1l0,0c0.1,0,0.2,0,0.2,0c0.2,0,0.4,0,0.5,0.1c0.1,0,0.1,0,0.2,0c0.1,0,0.1,0,0.2,0
						c0.5,0,1,0.1,1.4,0.4l0.7-0.2c0.1,0,0.2,0,0.3,0c0.9,0,1.6,0.7,1.6,1.6c0,0.3-0.2,0.7-0.4,0.9l0,0c0.5,1.4,0.8,2.9,0.9,4.3
						c0.1,0.6,0.1,1.3,0.1,1.9c0,2.1-0.4,4.3-0.9,6.3c-0.1,0.3-0.1,0.5-0.1,0.8c0,1,0.4,2.1,0.8,2.2c0,0,0.1,0.1,0.1,0.1
						c0,0,0,0.1-0.1,0.1c0,0-1.8,0.2-2.8,0.2c-0.1,0-0.1,0-0.2,0c-0.4,0-0.4,0-0.8,0c-1.3-0.1-2.6-0.1-3-0.2c0,0,0,0.1,0,0
						c0.2,0.3,0.4,0.6,0.5,0.9l0,0v0c0,0.3-0.3,0.5-0.4,0.6c-0.1,0.1-0.3,0.2-0.4,0.2c-0.1,0-0.2,0.1-0.3,0.1c-0.1,0-0.2,0-0.2,0
						c-0.2,0-0.3-0.1-0.5-0.1c-0.1,0-0.3,0-0.4,0c0,0-0.1,0-0.1,0c-0.3-0.1-0.3-0.4-0.4-0.7c0,0,0-0.1,0-0.1c0-0.1,0-0.2,0-0.3
						c0-0.2,0.1-0.3,0.2-0.5c0-0.1,0.1-0.2,0.1-0.4c0,0,0,0,0,0c-0.5-0.1-0.6-0.2-1-1.4l-0.2-0.8c-0.4-0.9-0.3-1.9,0.1-2.7
						c0.1-0.3,0.8-1.6,0.8-1.6l0.4-0.8l0-0.1c-0.2,0-0.5,0-0.9,0v0c0,0.8-0.2,1.5-0.5,2.2c0,0-0.8,1.2-0.9,1.4
						c-0.1,0.1-0.1,0.3-0.1,0.4c0,0.1,0,0.2,0,0.2l0,0h0v0c0,0.1,0,0.3-0.1,0.4c0,0,0,0,0,0c0,0.2,0.1,0.4,0.2,0.5
						c0.1,0.1,0.3,0.2,0.4,0.5c0,0,0,0.1,0,0.1c0,0.2-0.2,0.5-0.4,0.6c-0.2,0.1-0.5,0.1-0.7,0.1c-0.2,0-0.4,0-0.7,0
						c-0.3,0-0.5-0.3-0.5-0.6c0-0.1,0-0.1,0-0.1c0,0,0.2-0.6,0.2-0.7c0-0.1,0-0.2,0-0.3c0-0.1,0-0.2,0-0.3c0,0,0,0,0,0
						c0.1-0.3,0.2-0.7,0.4-0.9c0.1-0.2,0.1-0.4,0.1-0.7c0-0.1,0-0.3,0-0.3c0,0,0-0.1,0-0.2c0-0.3,0-1.1,0-1.5h0
						c-0.6,0.9-1.2,1.8-1.8,2.7c0,0.1-0.1,0.2-0.1,0.3c0,0.3,0.1,0.6,0.1,0.9c0,0.1,0,0.2,0,0.3c0,0.3-0.1,0.6-0.3,0.9l0,0l0,0
						l0.4,2.4L25,32l3.3,0.7c0,0,0.1,0,0.1,0.1v0l0,0v0.8c0,0,0,0.1-0.1,0.1L22.4,35.4L22.4,35.4z M22.5,35.2l5.6-1.6v-0.6l-5.6,1.6
						L22.5,35.2z M19.4,34.2l2.9,1v-0.6l-2.9-1V34.2z M22.4,34.4l5.4-1.5L25,32.2l-0.5,0.1l0.1,0.9c0,0.1,0,0.1-0.1,0.1
						c0,0-0.1,0-0.1-0.1l-0.3-0.8l-1.2,0.3l-0.4,1c0,0.1-0.1,0.1-0.1,0.1c-0.1,0-0.1-0.1-0.1-0.1l0.2-0.9l-2.8,0.6L22.4,34.4z
						 M9.6,31.4c0.2,0,0.5,0.1,0.7,0.3c0.5,0.4,1,0.9,1.6,1.2c0.6,0.3,1.2,0.6,1.8,0.8c0.6,0.1,1.2,0.2,1.9,0.4
						c0.3,0.1,0.5,0.1,0.8,0.1c0.3,0,0.5-0.1,0.7-0.2c0.4-0.4,0.5-0.5,0.5-0.7c0-0.2,0.1-0.5,0.1-0.7c0-0.2,0-0.4-0.1-0.6
						c-0.1-0.2-0.3-0.4-0.4-0.5c0,0,0,0.1-0.1,0.1c-0.3,0.7-0.5,1.6-2.2,1.5h-0.1c0.3,0.1,0.5,0.2,0.8,0.4c0,0,0,0.1,0,0.1
						c0,0,0,0,0,0c0,0-0.1,0-0.1,0c0,0,0,0,0,0c-0.4-0.2-0.8-0.4-1.3-0.6c-0.1,0-0.2-0.1-0.2-0.1c-0.2-0.1-2.3-0.9-3.3-1.4
						c-0.9-0.5-1.7-1.2-2.5-1.9C8.1,29.7,8,29.8,8,29.9c0,0.3-0.1,0.7-0.2,1c-0.2,0.4-0.4,0.9-0.5,1.3c0,0,0,0,0,0
						c0,0.2,0.4,0.9,0.5,1h0c0,0,0,0,0,0c0,0,0,0,0.1,0.1l0,0c0.1,0,0.1,0,0.2,0l0,0c0,0,0,0,0,0c0.1,0,0.1,0,0.2,0h0
						c0,0,0.1,0,0.1,0c0-0.1,0-0.2,0.1-0.2c0,0,0,0,0,0c0,0,0-0.1,0.1-0.1c0,0,0-0.1,0.1-0.1c-0.1,0-0.2-0.1-0.2-0.1
						c0,0-0.2,0-0.3-0.2c0-0.1-0.1-0.1-0.1-0.2c0,0,0-0.1,0-0.1c0.1-0.1,0.2-0.2,0.3-0.3C8.7,31.8,9.1,31.5,9.6,31.4L9.6,31.4
						L9.6,31.4L9.6,31.4 M30.1,32.8c0.1,0.1,0.3,0.1,0.4,0.1c0.1,0,0.2,0,0.2,0c0.1,0,0.1,0,0.2,0c0.1-0.1,0.4-0.2,0.4-0.2
						c0.1-0.1,0.3-0.3,0.3-0.4c0,0,0,0,0,0c-0.1-0.3-0.3-0.5-0.5-0.8c0,0,0-0.1-0.1-0.2C31.1,31,31,30.8,31,30.5
						c0-0.2,0-0.3,0.1-0.5c0.2-0.4,2.4-3.5,2.4-5.7v-0.1c-0.1,0.1-0.1,0.1-0.2,0.2c-0.9,0.9-1.8,1.7-2.8,2.5c0,0,0,0,0,0
						c-0.1,0.8-0.2,1.7-0.4,2.5c-0.2,0.4-0.3,0.8-0.4,1.2h-0.1l0.1,0l0,0c0,0.3-0.1,0.7-0.2,1c-0.1,0.1-0.1,0.3-0.2,0.4
						c0,0.1,0,0.1,0,0.2c0,0,0,0,0,0.1c0,0.3,0.1,0.5,0.2,0.5c0,0,0.1,0,0.1,0C29.7,32.9,29.9,32.9,30.1,32.8L30.1,32.8z M14.2,32.8
						l0.4,0c0.1,0,0.1,0,0.2,0c1.6,0,1.6-0.7,2-1.4c0-0.1,0.1-0.2,0.1-0.3c0,0,0-0.1,0-0.1c0-0.1,0-0.1,0-0.2c0-0.2-0.1-0.5-0.2-0.7
						c0-0.1-0.1-0.4-0.3-0.8C16.3,28.8,16,28,16,27.8c-0.1-0.4-0.3-0.8-0.5-1.2c-0.4,0-0.7-0.1-0.9-0.4c-0.1,0.1-0.1,0.2-0.1,0.2
						L14.2,27c0,0-0.4,1-0.4,1.2l0,0v0l0,0c0,0,0,0.1,0.1,0.1c0.1,0,0.2,0,0.3,0.1c0.2,0.1,0.4,0.2,0.6,0.3c0.1,0.1,0.2,0.2,0.3,0.4
						c0,0,0,0.1,0.1,0.1c0.1,0.1,0.2,0.1,0.3,0.2c0,0,0.4,0.6,0.5,0.6c0.1,0.1,0.1,0.1,0.1,0.2c0,0,0,0.1,0,0.1
						c-0.1,0.1-0.1,0.1-0.2,0.1l-0.1,0l-0.6-0.4l-0.1,0c0.1,0.1,0.2,0.3,0.2,0.3c0,0,0.1,0.3,0.2,0.5c0,0,0,0.1,0,0.1
						c0,0.1-0.1,0.2-0.2,0.2c0,0,0,0-0.1,0c-0.1,0-0.2-0.1-0.3-0.2l-0.2-0.4l-0.1-0.1l0.1,0.3c0,0,0.1,0.3,0.1,0.4c0,0,0,0,0,0.1
						c0,0.1-0.1,0.2-0.1,0.2c0,0-0.1,0-0.1,0c-0.1,0-0.1,0-0.2-0.1l0,0l-0.3-0.7c-0.1,0.1-0.2,0.2-0.4,0.3c-0.1,0-0.1,0-0.1,0.1
						c0,0-0.1,0.1-0.2,0.1c-0.1,0-0.1,0-0.1,0c-0.1,0-0.1-0.1-0.1-0.2c0-0.1,0-0.1,0-0.2c0.1-0.1,0.1-0.1,0.2-0.2
						c0-0.1,0-0.2-0.1-0.2c0,0,0,0,0,0c0,0-0.1-0.1-0.1-0.1c-0.1-0.1-0.1-0.1-0.2-0.1c0,0-0.4-0.3-0.4-0.3c-0.3-0.4-0.5-0.9-0.5-1.4
						c-0.4,0.2-0.9,0.4-1.4,0.3c-0.4,0-0.8,0-1.2-0.1c-0.7,0-1.4-0.3-1.9-0.8c0,0.1,0,0.2,0,0.3c0,0.5,0.2,0.9,0.5,1.3c0,0,0,0,0,0
						c0.7,0.7,1.6,1.4,2.4,1.9c0.9,0.5,3.1,1.3,3.3,1.4C14,32.7,14.1,32.8,14.2,32.8L14.2,32.8 M22.9,31.2l-0.2,1.3l0,0l0.7-1.9
						c0,0,0.1-0.1,0.1-0.1c0,0,0.1,0,0.1,0.1l0.6,1.5h0l-0.4-2.5l0-0.3c-0.1,0-0.3,0.1-0.4,0.2c-0.2,0.4-0.3,0.7-0.4,1.1
						C23,30.9,23,31.1,22.9,31.2L22.9,31.2 M23,32.5l1-0.2L23.6,31L23,32.5z M34.4,31.3c0.4,0,0.5,0,0.8,0c0.1,0,0.1,0,0.2,0
						c0.1,0,0.2,0,0.3,0c-0.6-0.3-1.5-1.1-1.6-3.2c0-0.1,0-0.1,0.1-0.1c0.1,0,0.1,0,0.1,0.1c0,0,0,0,0,0c0.1,2.9,1.8,3.2,1.8,3.2
						c0,0,0,0,0,0c0.6,0,1.3-0.1,1.7-0.1c-0.5-0.6-0.7-1.4-0.6-2.2c0-0.3,0-0.6,0.1-0.8c0.6-2,0.9-4.1,0.9-6.3c0-0.6,0-1.3-0.1-1.9
						c-0.1-1.4-0.4-2.8-0.8-4.2c-0.1,0.1-0.2,0.3-0.4,0.4l-0.9,0.7c-0.4,0.5-0.9,0.9-1.5,1.1c-0.2,0.1-0.4,0.2-0.6,0.3l0,0l-0.8,3
						c0,0.1-0.1,0.1-0.1,0.1c-0.1,0-0.1-0.1-0.1-0.1c0,0,0,0,0,0l0.7-2.9c-0.1,0-0.1,0-0.1,0c-0.1,0-0.2,0-0.3,0
						c-2.1,2.7-3.5,5.9-3.9,9.3c0.1-0.1,0.1-0.1,0.2-0.2c0.2-0.1,0.4-0.3,0.8-0.6c1-0.8,1.9-1.6,2.8-2.5c0.1-0.1,0.2-0.2,0.3-0.3
						l0,0c0.4-0.2,0.8-0.3,1.2-0.3c0.1,0,0.2,0,0.2,0c0.1,0,0.1,0.1,0.1,0.1c0,0,0,0,0,0c0,0.1-0.1,0.1-0.1,0.1c0,0,0,0,0,0
						c-0.1,0-0.1,0-0.2,0c-0.4,0-0.7,0.1-1,0.2c0,0.1,0,0.1,0,0.2c0,2.3-2.2,5.4-2.4,5.8c-0.1,0.1-0.1,0.3-0.1,0.4
						c0,0.2,0,0.4,0.1,0.6c0,0,0,0,0,0v0c0,0,0,0,0.1,0c0.1,0,0.1,0,0.2,0c0.2,0,0.4,0,0.7,0.1c0.3,0,0.5,0,0.9,0
						c-0.4-0.3-0.8-0.6-1.1-1c0,0,0-0.1,0-0.1c0,0,0.1,0,0.1,0c0.4,0.5,0.9,0.9,1.5,1.1c0,0,0,0,0,0C33.9,31.3,34.1,31.3,34.4,31.3
						 M14.6,31.2C14.6,31.2,14.7,31.2,14.6,31.2C14.7,31.2,14.7,31.2,14.6,31.2L14.6,31.2c0-0.1,0-0.4,0-0.4l-0.1-0.4l-0.1-0.3
						l-0.1-0.3c0,0,0-0.1,0-0.1c0,0,0,0,0.1,0c0,0,0.1,0,0.1,0l0.5,0.6l0.2,0.4c0,0,0,0,0,0c0,0,0,0,0.1,0c0.1,0,0.1,0,0.1,0
						c0,0,0,0,0-0.1c-0.1-0.2-0.2-0.5-0.2-0.5c-0.1-0.2-0.2-0.4-0.4-0.5c0,0-0.1-0.1,0-0.1c0,0,0.1,0,0.1,0l0.5,0.2l0.6,0.4
						c0,0,0,0,0,0c0,0,0,0,0-0.1c-0.1-0.1-0.5-0.6-0.5-0.6c-0.1-0.1-0.2-0.1-0.3-0.2c-0.1,0-0.1-0.1-0.2-0.2c0,0,0,0,0,0
						c0,0-0.1-0.1-0.1-0.1c-0.1-0.1-0.1-0.1-0.2-0.2c-0.2-0.1-0.3-0.2-0.5-0.3c-0.1,0-0.5,0-0.5-0.4c0,0,0,0,0,0
						c0.1-0.4,0.3-0.8,0.5-1.2l0.3-0.6c0,0,0.1-0.1,0.1-0.2c0.2-0.3,0.3-0.6,0.4-0.9c0,0,0-0.1,0.1-0.1c0,0,0.7-0.1,0.7-0.4
						c0-0.1,0-0.2,0-0.3c0-0.3-0.1-0.7-1.7-1.3c-0.4,0.3-0.7,0.6-0.9,1c-0.2,0.4-0.3,0.7-0.4,1.1c-0.1,0.4-0.2,0.9-0.2,1.3
						c0,0.1,0,0.1,0,0.2c0,0.4,0,0.9,0.1,1.3c0,0,0,0,0,0.1c0,0.5,0.1,1,0.4,1.4c0,0,0.3,0.3,0.4,0.3c0,0,0.3,0.2,0.4,0.3
						c0,0.1,0.1,0.2,0.1,0.3c0,0,0,0.1,0,0.1c-0.1,0.1-0.1,0.1-0.2,0.1l0,0c0,0,0,0,0,0.1c0,0,0,0,0,0c0.1-0.1,0.2-0.1,0.3-0.1
						c0.1,0,0.1,0,0.2-0.1c0,0,0.1,0,0.1-0.1c0-0.1,0-0.2,0-0.2c0,0,0,0,0,0h0l0,0l0,0l0,0c0,0,0.1-0.1,0.1-0.1c0,0,0.1,0,0.1,0.1
						L14.6,31.2C14.6,31.2,14.6,31.2,14.6,31.2 M22.7,30.9c0,0.1,0,0.1,0.1,0.2c0.1-0.1,0.1-0.2,0.1-0.3c0.1-0.4,0.2-0.8,0.4-1.2
						c0.1-0.2,0.4-0.3,0.6-0.4c0.1,0,0.1,0,0.1,0.1l0,0.1c0.1-0.2,0.1-0.4,0.1-0.6c0-0.1,0-0.2,0-0.3C24.1,28.3,24,28,24,27.6
						c0-0.1,0-0.3,0.1-0.4c0.1-0.2,1.1-1.4,1.8-2.8c0.1-0.1,0.1-0.3,0.2-0.4c0.3-0.5,0.4-1,0.4-1.5c0,0,0-0.1,0-0.1l0-0.1l0.6-1.3
						c-0.1,0-0.2,0.1-0.3,0.1L25,21.4v0c-0.1,0.2-0.2,0.4-0.3,0.6c-0.3,0.3-0.6,0.7-0.7,1.1c-0.2,0.6-0.3,1.1-0.4,1.7
						c0,0-0.2,0.6-0.4,1.3c-0.2,0.5-0.3,1.1-0.4,1.3c-0.2,0.3-0.4,0.7-0.5,1.1c0,0.1,0,0.2,0,0.3c0,0.1,0,0.2,0.1,0.3c0,0,0,0,0,0
						c0,0,0,0,0,0c0,0.1,0.1,0.1,0.1,0.2l0,0.1L22.7,30.9L22.7,30.9z M30,18.5c0.1,0,0.1,0.1,0.1,0.1c0,0.2-0.3,1.2-0.3,1.5
						c0,0.1,0,0.2,0,0.3c0,0.1,0,0.3,0.1,0.4c0.1,0.4,0.2,0.8,0.2,1.2V22c-0.1,0.5-0.1,1-0.3,1.6c0,0.1,0,0.2,0,0.2L29.6,24
						l-0.4,0.8c0,0-0.7,1.3-0.8,1.5c-0.2,0.4-0.3,0.9-0.3,1.4c0,0.4,0.1,0.8,0.2,1.2l0.2,0.8C29,31,29.1,31,29.4,31c0,0,0,0,0,0
						c0-0.1,0.1-0.2,0.1-0.4h0c0,0,0,0,0,0c0.1-0.4,0.2-0.9,0.4-1.3c0.2-0.8,0.3-1.5,0.4-2.3c-0.3,0.2-0.5,0.4-0.6,0.5
						c0,0-0.3,0.5-0.3,0.5c0,0-0.1,0.1-0.1,0c0,0-0.1-0.1-0.1-0.1c0.3-3.5,1.7-6.9,3.9-9.7c-1-0.4-1.8-1-2.4-1.8c0,0,0,0.1,0,0.1
						c-0.1,0.5-0.5,1-1,1.3c0,0-0.2,0.1-0.3,0.2c-0.2,0.4-0.4,1-0.4,1c-0.1,0.1-0.1,0.2-0.2,0.3c0,0,0,0,0,0c-0.3,0.5-0.6,1-1,1.4
						c-0.1,0.1-0.3,0.2-0.4,0.3c0,0,0,0,0,0.1l0,0l-0.6,1.3c0,0,0,0.1,0,0.1c0,0.5-0.2,1-0.4,1.4c0.7-0.1,1.4-0.3,2.1-0.3h0
						c0.5,0,0.9-0.1,1-0.1c0,0,0-0.1,0-0.2c0.1-0.5,0.2-1,0.3-1.5c0,0,0,0,0-0.1c0-0.4-0.1-0.8-0.2-1.2c-0.1-0.1-0.1-0.3-0.1-0.4
						c0-0.1,0-0.2,0-0.3c0-0.2,0.3-1.3,0.3-1.5l0,0C29.9,18.5,29.9,18.5,30,18.5L30,18.5 M25.5,29.7c0,0.1,0,0.3,0.3,0.4
						c0.2,0,0.4,0,0.6,0c0.2,0,0.4,0,0.6-0.1c0.2-0.1,0.3-0.3,0.3-0.4c0,0,0,0,0,0c0-0.1-0.2-0.2-0.4-0.4c-0.1-0.2-0.2-0.4-0.2-0.6
						c0,0,0-0.1,0-0.1c0-0.1,0.1-0.2,0.1-0.3v0c0,0,0-0.1,0-0.2c0-0.2,0-0.4,0.1-0.6c0.1-0.1,0.9-1.3,0.9-1.4
						c0.3-0.7,0.5-1.4,0.5-2.1c-0.7,0.1-1.4,0.2-2.1,0.3c0,0.2,0,1.4,0,1.9c0,0.1,0,0.1,0,0.2c0,0.1,0,0.2,0,0.3
						c0,0.3,0,0.6-0.2,0.8c-0.2,0.2-0.3,0.5-0.3,0.8v0c0,0.1,0,0.2,0,0.3c0,0.1,0,0.2,0,0.3C25.7,29,25.5,29.6,25.5,29.7
						C25.5,29.6,25.5,29.6,25.5,29.7 M7.4,26.6c0,0.3,0.1,0.6,0.3,0.9c0,0,0,0.1,0.1,0.1C8.3,28,9,28.3,9.7,28.3
						c0.4,0,0.8,0.1,1.2,0.1c0.5,0,1-0.1,1.4-0.4c0-0.4,0-0.9-0.1-1.3c0-0.1,0-0.1,0-0.2c0-0.4,0-0.8,0.2-1.3h0
						c-0.7-0.5-1.3-1.1-1.9-1.8c-0.1,0.1-0.4,0.2-0.7,0.4c-0.4,0.3-0.8,0.7-0.9,1.2c0,0,0,0.1,0,0.1v0c0,0.2,0.2,0.4,0.3,0.6l0,0
						c0.2,0,0.3,0.1,0.5,0.2c0.1,0.3,0.2,0.5,0.3,0.8c0.1,0.1,0.7,0.6,0.7,0.6c0,0,0,0.1,0,0.1c0,0,0,0,0,0c0,0-0.1,0.1-0.1,0
						c0,0-0.6-0.5-0.7-0.6c-0.1-0.2-0.2-0.7-0.3-0.8C9.3,26,9.2,26,9.1,26c-0.3,0-0.6,0-0.7,0v0h0l0,0C8,26.1,7.6,26.3,7.4,26.6
						C7.4,26.5,7.4,26.5,7.4,26.6 M6,25.4c0,0.3-0.1,0.5-0.1,0.8c0,0.4,0.1,0.7,0.7,0.7h0c0.2-0.1,0.4-0.2,0.6-0.4c0,0,0,0,0.1-0.1
						c0.3-0.3,0.7-0.5,1.2-0.7h0l0,0l0,0c0.1,0,0.3,0,0.5,0c-0.1-0.2-0.2-0.3-0.2-0.5c0,0,0,0,0,0c0,0,0,0,0,0c0,0-0.2-0.1-0.4-0.2
						c-0.1-0.1-0.2-0.2-0.4-0.2c-0.1,0-0.2,0-0.4-0.1c-0.2,0-0.3,0-0.5,0h0c0,0,0,0-0.1,0C6.6,24.7,6,25.1,6,25.4 M22.5,26.6
						C22.5,26.7,22.6,26.7,22.5,26.6c0.1,0.1,0.1,0.1,0.1,0.1c0,0,0,0,0.1-0.1l0.2-0.3l0.2-0.3c0,0,0,0,0,0c0.2-0.6,0.3-1.2,0.3-1.2
						c0.1-0.6,0.2-1.1,0.3-1.7c-0.1,0-0.1-0.1-0.2-0.1c-0.2,0-0.3,0.1-0.4,0.2c-0.2,0.2-0.3,0.3-0.4,0.3c-0.3,0.4-0.3,0.3-0.3,0.4
						c-0.1,0.2-0.1,0.5-0.2,0.7l0,0v0l0,0c0,0.1,0,0.3-0.1,0.4c-0.1,0.1-0.2,0.1-0.4,0.2c0,0-0.1,0-0.1-0.1c0,0-0.1-0.1-0.1-0.2
						c-0.1-0.1-0.1-0.1-0.1-0.1c0,0,0,0-0.1,0c0,0,0,0,0,0c0,0.1-0.1,0.2-0.2,0.2c0,0,0,0,0.1,0.1l0.3,0.3c0.1,0.1,0.3,0.2,0.4,0.3
						c0,0,0.1,0,0.1,0c0.1,0,0.3-0.1,0.4-0.2c0,0,0,0,0,0c0-0.1,0-0.2,0-0.3c-0.1-0.1-0.1-0.2-0.1-0.3c0-0.1,0-0.2,0-0.3l0,0
						c0-0.1,0.1-0.1,0.1-0.1c0.1,0,0.1,0.1,0.1,0.1c0,0.1,0,0.2,0,0.3c0,0.1,0,0.2,0.1,0.2c0,0,0.1,0,0.2-0.1c0-0.2,0.1-0.3,0.2-0.5
						c0-0.1,0.1-0.1,0.1-0.1c0,0,0,0,0,0c0.1,0,0.1,0.1,0.1,0.1c-0.1,0.1-0.1,0.3-0.2,0.4c0,0.2-0.1,0.3-0.3,0.3c0,0.1,0,0.2,0,0.3
						c0,0.1-0.1,0.3-0.1,0.4C22.6,26.3,22.6,26.5,22.5,26.6L22.5,26.6L22.5,26.6z M15.5,26.4L15.5,26.4c0.7-0.1,1.3-0.4,1.6-0.9
						c0.2-0.3,0.3-0.6,0.3-1c0-0.6-0.3-1.1-0.7-1.6c0,0,0-0.1,0-0.1c0,0,0.1,0,0.1,0c0,0,0,0,0,0c0.4,0.5,0.7,1.1,0.7,1.7
						c0,0.3-0.1,0.6-0.2,0.9c0.8-0.2,1-1.4,1.1-1.7v0c0-0.1-0.1-0.3-0.1-0.4c0,0-0.1-0.4-0.2-0.7c0-0.1-1-1.6-1.1-1.7l0,0
						c0,0-0.1-0.1-0.1-0.1l0,0c-0.5-0.3-1-0.5-1.5-0.6c0,0.1-0.1,0.1-0.2,0.1c-0.1,0-0.3,0.1-0.4,0.1c-0.1,0-0.2,0-0.3,0
						c0,0-0.1,0-0.1,0c0,0-0.1,0-0.1,0h0c0,0-0.1,0.1-0.1,0.1c-0.1,0-0.2,0.1-0.3,0.1c0,0.1-0.1,0.2-0.1,0.3c0,0.1-0.1,0.3-0.1,0.4
						c0,0.1,0,0.3-0.1,0.4c-0.1,0.1-0.2,0.1-0.4,0.2c0,0-0.1,0-0.2,0c-0.1,0-0.2,0-0.3-0.1c-0.1-0.1-0.2-0.2-0.3-0.3c0,0,0,0,0,0
						l-0.9,0.4c0,0-1,0.3-1.3,0.3c-0.2,0-1.1,0.3-1.1,0.7v0c0,0.1,0,0.2,0,0.2c0,0.1,0,0.2,0,0.3c0,0.2,0,0.2,0.1,0.3
						c0.1,0.1,0.2,0.2,0.3,0.2c0.2-0.1,0.5-0.3,0.6-0.3c-0.1-0.1-0.1-0.1-0.1-0.2c0,0,0-0.1,0-0.1c0,0,0.1,0,0.1,0c0,0,0,0,0,0
						c0,0,0.1,0.1,0.2,0.2c0.6,0.6,1.2,1.2,1.9,1.8c0.1-0.4,0.2-0.7,0.4-1.1c0.2-0.4,0.6-0.8,1-1.1l0.1,0c1.7,0.6,1.9,1.1,1.9,1.5
						c0,0.1,0,0.2,0,0.3c-0.1,0.4-0.6,0.5-0.8,0.5c-0.1,0.3-0.2,0.5-0.3,0.8c0,0,0,0,0,0C14.9,26.3,15.2,26.4,15.5,26.4 M7.9,24.5
						c0.3,0.1,0.5,0.3,0.8,0.4c0.1-0.3,0.3-0.6,0.5-0.8c0.1-0.1,0.2-0.2,0.3-0.3c-0.1-0.1-0.2-0.1-0.3-0.2C9.1,23.5,9,23.4,9,23.2
						c0-0.1,0-0.2,0-0.3c0-0.1,0-0.1,0-0.2c0,0,0,0,0,0c0-0.7,1-0.8,1.3-0.9c0.2,0,1.2-0.3,1.2-0.3l0.9-0.4
						c-0.1-0.1-0.1-0.3-0.1-0.4c0-0.1,0-0.1,0-0.2c0.1-0.2,0.1-0.5,0.3-0.7l0,0c0,0-0.4-1-0.4-1c0,0-0.6-0.8-0.7-1
						c-0.3-0.4-0.5-0.8-0.6-1.3c-0.8,0.1-1.6,0.2-2.3,0.2c-0.2,0-0.5,0-0.7,0c-0.4,0.5-0.6,1-0.6,1.6c0,1,0.3,2.5,0.3,2.9H7.5l0.1,0
						c0,0.4-0.1,0.9-0.2,1.3c-0.1,0.3-0.1,0.6-0.1,0.9c0,0.3,0.1,0.6,0.2,0.9c0,0,0,0,0,0C7.6,24.5,7.8,24.5,7.9,24.5 M22.3,24.9
						L22.3,24.9z M22.2,24.9L22.2,24.9L22.2,24.9z M6.6,16.6c-0.6,0.5-0.9,1.3-0.9,2.1v0c0,0.6,0,1.3,0,2.1c0.1,0.9-0.1,1.7-0.4,2.5
						c0,0.1-0.1,0.2-0.2,0.2c0,0-0.2,0.3-0.2,0.4c0,0,0,0,0.1,0c0.4,0,0.7,0,0.9,0.2c0.1,0.1,0.1,0.1,0.2,0.2c0.2,0,0.3,0,0.5,0
						c0.1,0,0.2,0,0.2,0c0,0,0,0,0.1,0h0c0.1,0,0.2,0,0.3,0c-0.1-0.3-0.2-0.6-0.2-1c0-0.3,0-0.6,0.1-0.9c0.1-0.4,0.2-0.8,0.2-1.3
						c0,0,0,0,0,0c0-0.4-0.3-1.9-0.3-2.9c0-0.6,0.2-1.2,0.6-1.6C7.3,16.7,7,16.6,6.6,16.6L6.6,16.6 M4,23.6c0.1,0,0.2,0.1,0.3,0.1
						c0.2,0,0.3,0.1,0.4,0.1c0-0.2,0.1-0.3,0.2-0.4c0.1-0.1,0.1-0.1,0.1-0.2c0.3-0.8,0.5-1.6,0.4-2.4c0-0.7,0-1.4,0-2c0,0,0,0,0,0
						c0-0.8,0.3-1.6,0.8-2.1c-0.1,0-0.3-0.1-0.4-0.1c-0.5,0.6-0.8,1.3-0.8,2l-0.2,2.9c0,0,0,0,0,0.1c0,0.2-0.1,0.5-0.2,0.7
						c0,0-0.2,0.5-0.4,0.8c-0.1,0.2-0.1,0.2-0.1,0.3c-0.1,0.1-0.2,0.3-0.3,0.4c0,0,0,0,0,0l0,0C4,23.6,4,23.6,4,23.6 M5.3,16.6
						c-0.3,0.5-0.5,1-0.5,1.6c0,0.8-0.1,1.7-0.3,2.5C4.1,21.3,3.6,22,3,22.5C3,22.6,3,22.7,3,22.7c0,0.1,0,0.2,0.1,0.2l0.7,0.5
						c0,0,0,0,0,0C3.9,23.3,4,23.2,4,23.1c0,0,0-0.1,0.1-0.3C4.3,22.5,4.5,22,4.5,22c0.1-0.2,0.1-0.4,0.2-0.6h0l0,0l0.2-3
						c0-0.8,0.3-1.5,0.8-2.1c-0.1,0-0.1,0-0.2-0.1C5.4,16.3,5.3,16.4,5.3,16.6 M20.5,22.7C20.5,22.7,20.5,22.7,20.5,22.7
						C20.5,22.7,20.5,22.7,20.5,22.7C20.5,22.7,20.5,22.7,20.5,22.7 M17.3,20.7c0,0,0.8,1.1,1.1,1.6l1.3-0.3
						c0.4-0.2,0.4-0.3,0.4-0.4c0.1-0.2,0.3-0.1,0.4-0.2c0.2-0.1,0.4-0.2,0.6-0.3c0.1-0.1,0.2-0.1,0.3-0.1c0.1,0,0.1,0,0.2,0
						c0.1,0,0.2,0.1,0.2,0.2c0.1,0,0.1,0,0.2,0c0.1,0,0.1,0,0.2,0c0.2,0,0.3-0.2,0.2-0.4c0-0.1,0-0.2,0-0.3c0-0.1-0.5-0.4-0.5-0.4
						c0,0,0,0-0.1-0.1c0,0,0-0.1,0-0.1c0-0.1,0.1-0.1,0.1-0.2c0-0.1,0-0.1-0.1-0.2l0,0c-0.1-0.2-0.2-0.3-0.4-0.3c-0.1,0-0.1,0-0.2,0
						c-0.3-0.1-0.6-0.3-0.8-0.5c0-0.1-1-0.1-1.4-0.2c0,0-0.1,0-0.1,0c-0.2,0-0.5,0.2-0.6,0.4c-0.1,0.1-0.3,0.2-0.4,0.3
						c0,0-0.3,0.2-0.4,0.3c-0.1,0.1-0.1,0.1-0.2,0.2c0,0,0,0-0.1,0.1c-0.1,0-0.1,0.2-0.1,0.3c0,0.1,0,0.2,0,0.4l0,0
						C17.2,20.6,17.2,20.7,17.3,20.7C17.3,20.7,17.3,20.7,17.3,20.7 M12.2,9.6c0,0,0.1,0.1,0,0.1c0,0,0,0,0,0
						c-0.3,0.5-0.6,1.1-0.9,1.7c-0.1,0.4-0.2,0.8-0.3,1.2c0,0.1,0,0.2,0,0.2c0,0.5,0,1.1-0.1,1.6c0,0.1,0,0.2,0,0.3v0.1
						c0,0.2,0,0.4,0.1,0.5c0,0.3,0.1,0.7,0.2,1c0.1,0.5,0.3,0.9,0.6,1.3c0.1,0.2,0.7,1,0.7,1c0.1,0.4,0.3,0.7,0.4,1.1v0
						c-0.1,0.2-0.2,0.5-0.3,0.7c0,0,0,0.1,0,0.1c0,0.1,0,0.3,0.1,0.4c0,0,0,0,0.1,0.1c0.1,0.1,0.2,0.2,0.3,0.3c0.1,0,0.1,0,0.2,0
						c0.1,0,0.1,0,0.1,0c0.1,0,0.2-0.1,0.3-0.1c0-0.1,0-0.1,0-0.2c0-0.2,0-0.3,0.1-0.5c0-0.1,0.1-0.2,0.1-0.3c0,0,0,0,0-0.1l0,0
						c0,0,0,0,0,0c0.1-0.1,0.2-0.1,0.3-0.2c0,0,0.1-0.1,0.2-0.1c0,0,0,0,0,0h0c0.1,0,0.2,0,0.2,0.1c0.1,0,0.1,0,0.2,0
						c0.1,0,0.2,0,0.3,0c0,0,0,0,0.1,0c0,0-0.1-0.1-0.1-0.1c-0.2-0.1-0.4-0.2-0.6-0.3c-0.1-0.1-0.2-0.1-0.4-0.2
						c-0.3-0.1-0.5-0.7-0.7-1.2c-0.2-0.6-0.3-1.2-0.3-1.8c0,0,0,0,0,0c0,0,0,0,0,0c-0.1-0.6-0.3-1.2-0.6-1.8c0-0.1,0-0.1-0.1-0.2
						c0,0,0-0.1,0-0.1c0-0.1,0.1-0.2,0.1-0.2c0.3-0.4,0.5-0.9,0.6-1.4c0.1-0.3,0.3-0.5,0.6-0.6c0.2-0.1,0.4-0.3,0.5-0.5
						c0.1-0.2,0.3-0.4,0.3-0.6c0-0.2,0.1-0.3,0.1-0.5c0-0.2-0.1-0.5-0.2-0.7c-0.1-0.2-0.3-0.4-0.5-0.6c-0.1-0.1-0.2-0.1-0.3-0.2
						c-0.3-0.1-0.6-0.2-0.9-0.2c0,0,0,0,0,0c-0.4,0-2.3,0.2-2.9,0.9c-0.5,0.5-0.8,0.9-0.8,1.3c0,0.2,0.1,0.4,0.2,0.5
						c0.4,0.5,0.9,1,1.2,1c0.1,0,0.1,0,0.2,0h0c0,0,0,0,0,0c0-0.4,0.1-0.8,0.3-1.2c0.3-0.6,0.6-1.2,0.9-1.7
						C12,9.6,12.1,9.6,12.2,9.6C12.1,9.6,12.1,9.6,12.2,9.6 M24.9,19.1c-0.3,0.3-0.4,0.6-0.5,1c0,0,0,0.1,0,0.1
						c0.1,0.3,0.2,0.9,0.3,1.1l0.1,0l2-0.2c0,0,0.1,0,0.3-0.1c0.2-0.1,0.4-0.2,0.5-0.3c0.2-0.2,0.3-0.5,0.5-0.7
						C28,20,27.9,20,27.7,20c-0.1,0-0.2,0-0.3-0.1c0,0-0.2-0.1-0.3-0.1L26.8,20c0,0-0.1,0-0.1,0c-0.4,0-0.5-0.6-0.6-0.7
						c0-0.1-0.1-0.1-0.2-0.2c-0.1,0-0.2,0-0.3-0.1c0,0-0.4-0.3-0.5-0.4C25.1,18.8,25,19,24.9,19.1 M26.8,19.8l0.2-0.2l0.1,0
						c0,0,0.1,0,0.2,0.1c0,0,0,0,0,0l0.2-0.1c0,0,0.1,0,0.1,0c0,0,0,0,0,0c0,0,0,0.1,0,0.1l-0.1,0.1c0.1,0,0.1,0,0.2,0
						c0.2,0,0.5-0.1,0.9-0.6c0.1-0.1,0.1-0.2,0.2-0.3c0,0,0.2-0.6,0.5-1l0,0c0,0,0.2-0.1,0.3-0.2c0.6-0.2,0.9-1.1,0.9-1.1l0-0.1
						c0-0.1,0-0.1,0-0.2c0-0.1,0-0.1,0.1-0.1c0,0,0,0,0,0h0c0,0,0.1,0,0.1,0c0.7,0.9,1.6,1.6,2.6,1.9c0.1,0,0.2,0,0.4,0
						c0.2,0,0.5-0.1,0.7-0.2c-1.9-0.5-2.5-1.4-2.5-2.3c0.1-1,0.7-2,1.4-2.7c-0.1,0-0.2,0-0.3,0c-0.2,0-0.3,0-0.5,0.1
						c-1.2,0.5-1.9,2.5-1.8,2.5l0,0c0,0.1-0.1,0.1-0.1,0.1c-0.1,0-0.1-0.1-0.1-0.1c0.3-1.1,1-2,1.9-2.7c-0.2,0-0.3,0-0.5,0
						c-1.3,0.1-2.6,0.4-3.8,1c-0.3,0.1-0.5,0.3-0.7,0.5c0,0,0.1,0,0.1,0c0.1,0,0.1,0,0.2,0c0.1,0.1,0.3,0.1,0.4,0.2
						c0.1,0,0.2,0.1,0.3,0.1c0.2,0,0.7,0.2,0.7,0.2c0.1,0,0.4-0.1,0.4,0.2c0,0,0,0,0,0.1c0,0.1,0,0.1-0.1,0.1c0.1,0,0.2,0.1,0.3,0.3
						c0,0,0,0,0,0c0,0.1-0.1,0.2-0.1,0.2l0,0c0,0,0.2,0.3,0.2,0.4c0,0.1,0,0.1,0,0.2c0,0.1,0,0.2-0.1,0.2c0,0,0,0-0.1,0
						c0,0,0,0.1,0,0.1c0,0.1,0,0.2-0.1,0.2c0,0-0.1,0.2-0.2,0.2c-0.1,0.1-0.2,0.3-0.3,0.4c-0.1,0.1-0.3,0.1-0.3,0.1l0,0
						c-0.1,0.2-0.3,0.2-0.5,0.3c0,0,0,0,0,0h0c-0.1,0.1-0.3,0.1-0.4,0.1c-0.1,0-0.2,0-0.2-0.1c0-0.1-0.1-0.2-0.1-0.4
						c0-0.1,0-0.2,0-0.2c0.1-0.1,0.2-0.2,0.2-0.3c0,0,0,0,0-0.1c0,0,0-0.1,0-0.1c-0.1-0.1-0.1-0.2-0.2-0.3c0-0.1,0-0.2,0.1-0.2
						c0.2-0.3,0.4-0.6,0.5-0.9c0,0,0-0.1,0-0.1c0,0,0-0.1,0-0.1c0,0-0.4-0.3-0.5-0.3c-0.2-0.1-0.4-0.1-0.6-0.1l0,0v0l0,0h0
						c0,0-0.1,0-0.2,0c-0.1,0-0.2,0-0.3,0c-0.1,0.1-0.5,0.2-0.5,0.2c0,0-0.3,0.3-0.3,0.3l-0.4,0.3c-0.3,0.4-0.4,0.8-0.4,1.3
						c0,0,0,0.1,0,0.1c0,0.2,0,0.3,0,0.5c0,0.2,0.1,0.5,0.3,0.7c0,0.1,0.5,0.5,0.5,0.5c0,0,0.2,0,0.2,0c0.2,0,0.3,0.1,0.4,0.3
						C26.4,19.4,26.6,19.9,26.8,19.8L26.8,19.8C26.8,19.8,26.8,19.8,26.8,19.8 M27.8,15c0.2,0.1,0.4,0.2,0.5,0.3
						c0.1,0.1,0.1,0.2,0.1,0.3c0,0.1,0,0.1,0,0.2c-0.1,0.3-0.3,0.7-0.6,1c0,0,0,0,0,0.1c0,0,0.1,0.1,0.1,0.2c0,0.1,0.1,0.1,0.1,0.2
						c0,0.1,0,0.1,0,0.1c-0.1,0.1-0.2,0.2-0.2,0.3c0,0.1,0,0.1,0,0.2c0,0.1,0,0.2,0,0.3v0c0.1,0,0.3-0.1,0.4-0.1c0,0,0,0,0,0h0
						c0.1,0,0.2,0,0.3-0.1c0,0,0,0,0,0c0.1-0.2,0.4-0.1,0.4-0.2c0.1-0.1,0.2-0.2,0.3-0.4c0.1-0.1,0.1-0.2,0.2-0.2c0,0,0-0.1,0-0.1
						l0,0c0,0,0-0.1,0-0.1c0-0.1,0.1-0.2,0.1-0.2c0,0,0,0,0-0.1c0,0,0-0.1,0-0.1c0-0.1-0.2-0.3-0.2-0.4c0,0,0,0,0-0.1
						c0-0.1,0-0.2,0.1-0.2c0,0,0,0,0,0c0,0-0.1,0-0.1-0.1c0,0-0.1-0.1-0.1-0.1c0-0.1,0-0.1,0.1-0.2c0,0,0,0-0.1,0
						c-0.1,0-0.1,0-0.2,0c-0.1,0-0.6-0.2-0.7-0.2c-0.1,0-0.2-0.1-0.3-0.1c-0.1-0.1-0.3-0.1-0.4-0.2c0,0,0,0,0,0c0,0,0,0,0,0
						c-0.1,0-0.1,0-0.2,0c-0.1,0-0.2,0-0.3,0c-0.2,0.1-0.4,0.1-0.6,0.2l0,0l0,0h0c-0.2,0.1-0.4,0.2-0.6,0.3c-0.2,0-0.1,0.4-0.5,0.5
						c-0.1,0-0.2,0.1-0.2,0.1c-0.1,0.2-0.1,0.4-0.3,0.5v0c0,0,0,0.1,0,0.1l0,0c0,0.1,0,0.2,0,0.3c0,0,0,0.1,0,0.1c0,0,0,0,0,0
						c0,0,0,0.1,0,0.1c0-0.5,0.2-0.9,0.5-1.2l0.4-0.3c0,0,0.3-0.2,0.3-0.3c0.1-0.1,0.4-0.2,0.5-0.2c0.1-0.1,0.3-0.1,0.4-0.1
						c0.1,0,0.1,0,0.2,0h0c0,0,0,0,0,0h0C27.3,14.9,27.6,14.9,27.8,15 M33.5,13.1c-0.8,0.7-1.3,1.6-1.4,2.6c0,0.8,0.6,1.6,2.6,2.2
						c0.5-0.3,1-0.6,1.4-1.1l0.9-0.7c0,0,0.9-0.8,0.8-1.4c0-0.8-0.6-1.4-1.4-1.4c-0.1,0-0.2,0-0.3,0l-0.7,0.2l-0.1,0
						c-0.4-0.3-0.9-0.5-1.4-0.4c-0.1,0-0.2,0-0.2,0C33.6,13.1,33.5,13.1,33.5,13.1L33.5,13.1 M18.7,17.2c0.1,0,0.2,0.1,0.3,0.1
						c0.2,0,0.5,0.1,0.7,0.1c0.1,0,0.2,0,0.3,0c0.2,0,0.3-0.9,0.3-0.9c0-0.1,0-0.1,0-0.2c0-0.1,0-0.2-0.1-0.4c0-0.1-0.1-0.2-0.1-0.3
						c-0.1-0.2-0.2-0.5-0.2-0.8c0,0,0,0,0,0v0c0-0.2-0.1-0.3-0.2-0.5c-0.2-0.2-0.2-0.3-0.3-0.6c0,0,0-0.1,0-0.1
						c0-0.3,0.2-0.6,0.5-0.8c0,0,0.1,0,0.1,0c0,0,0,0-0.1,0l-0.1,0c0,0,0,0-0.1,0c-0.3,0-0.5,0.2-0.6,0.4c-0.1,0.1-0.2,0.2-0.3,0.3
						c-0.2,0.5-0.3,1-0.4,1.5c0,0.2,0,0.3-0.1,0.5c-0.1,0.2-0.6,0.7-0.6,0.9c0,0.1,0,0.1,0.1,0.1l0,0C18.4,16.8,18.5,16.9,18.7,17.2
						L18.7,17.2C18.7,17.1,18.7,17.2,18.7,17.2 M5.9,16.2c0.2,0.1,0.4,0.1,0.7,0.2c0.4,0.1,0.8,0.1,1.3,0.2c0.3,0,0.5,0,0.8,0
						c0.8,0,1.5-0.1,2.3-0.2c-0.1-0.3-0.1-0.6-0.1-0.9c0-0.2-0.1-0.4-0.1-0.6l0,0c-0.2,0.2-0.6,0.5-1.1,0.8
						c-0.2,0.1-0.3,0.2-0.5,0.2c-0.4-0.1-0.8-0.3-1.1-0.6c-0.1-0.1-0.2-0.1-0.4-0.1c-0.4,0-0.8,0.1-1.2,0.2c0,0-0.1,0-0.1,0
						c-0.3,0-0.6-0.1-0.8-0.4c0,0.1-0.1,0.2-0.1,0.3c0,0.3,0.1,0.6,0.3,0.8C5.7,16.1,5.8,16.1,5.9,16.2 M22.4,16.4
						c0.1,0,0.2,0,0.2,0c0.1-0.1,0.2-0.1,0.3-0.2c0.1,0,0.1-0.1,0.1-0.2c0-0.1,0-0.2,0-0.3c0,0,0-0.1,0-0.1c0,0,0,0,0-0.1
						c0-0.1-0.1-0.2-0.1-0.2c0,0,0-0.1,0-0.1c0,0,0,0,0,0c0,0,0,0-0.1-0.1c0,0-0.1-0.1-0.1-0.1c0,0-0.1-0.1-0.1-0.1c0,0,0-0.1,0-0.1
						c0,0,0,0,0-0.1c-0.1-0.1-0.1-0.3-0.1-0.4c0,0-0.1-0.2-0.1-0.2c0-0.1-0.1-0.2-0.2-0.3l-0.1-0.1c0-0.1-0.1-0.2-0.1-0.2l0-0.1
						c0,0,0,0,0,0c0-0.2-0.2-0.1-0.3-0.3c0-0.1-0.3-0.2-0.3-0.3c-0.1-0.1-0.4-0.2-0.4-0.2h0c-0.1,0-0.2,0-0.3,0.1
						c0.1,0,0.3,0,0.4,0.1c0,0,0.2,0.2,0.3,0.2c0.1,0.1,0.2,0.2,0.4,0.3c0.1,0.1,0.2,0.2,0.2,0.4c0,0.1,0,0.1-0.1,0.1c0,0,0,0,0,0
						c-0.1,0-0.1,0-0.1-0.1c0,0,0,0,0,0c0-0.1-0.1-0.2-0.1-0.2c-0.1-0.1-0.3-0.2-0.4-0.3c-0.1-0.1-0.2-0.1-0.2-0.2
						c-0.1,0-0.2,0-0.4,0c-0.2,0-0.4,0.1-0.6,0.2c-0.2,0.2-0.3,0.4-0.3,0.7c0,0,0,0,0,0.1c0,0.2,0.1,0.3,0.2,0.4
						c0.1,0.2,0.2,0.4,0.2,0.6l0,0v0c0,0.2,0,0.3,0.1,0.5c0.5,0.2,1.1,0.2,1.6,0.2h0c0.2-0.1,0.3-0.2,0.4-0.3c0,0,0,0,0-0.1
						c0-0.2-0.1-0.3-0.1-0.5c0,0,0,0,0,0c0,0,0-0.1,0-0.1c-0.2,0.1-0.3,0.2-0.5,0.2c-0.1,0-0.1,0-0.1-0.1c0-0.1,0-0.1,0.1-0.1
						c0.2,0,0.3-0.1,0.5-0.2c0,0,0,0,0,0c0-0.2-0.1-0.4-0.1-0.4c0-0.1,0-0.1,0.1-0.1c0.1,0,0.1,0,0.1,0.1c0,0.1,0.1,0.6,0.1,0.7v0
						l0,0v0c0.1,0.2,0.1,0.3,0.1,0.5c0,0.1,0,0.2-0.1,0.2c-0.1,0.1-0.3,0.2-0.4,0.2c0,0,0,0,0,0c0,0.2,0.1,0.5,0.3,0.6
						C22.4,16.4,22.4,16.4,22.4,16.4L22.4,16.4 M24.4,16.4c0-0.1,0-0.1,0.1-0.2c0,0,0.1-0.2,0.2-0.5c0.1-0.1,0.2-0.2,0.3-0.2
						c0.3,0,0.1-0.3,0.5-0.5c0.3-0.1,0.5-0.3,0.7-0.3h0c0.1,0,0.4-0.1,0.5-0.2c0,0,0.1,0,0.2,0c0,0,0-0.1,0-0.1
						c0.2-0.3,0.5-0.5,0.7-0.6c-0.6-0.4-1-1-1-1.7c0,0,0,0,0-0.1l0,0l-0.1,0.1c0,0.1,0,0.1-0.1,0.2c-0.1,0.1,0,0.2-0.2,0.3l0,0
						c0,0,0,0-0.1,0h0c0,0,0,0,0,0v0h0c-0.2-0.1-0.3-0.4-0.3-0.4l0-0.1l0.2-0.7l0.1-0.7c-0.4,0.2-0.8,0.3-1.2,0.3h0
						c-0.4-0.1-0.6-0.7-0.7-0.9c0,0,0,0,0,0.1c0,0,0,0,0,0.1c0,0.1,0,0.2,0.1,0.4c0,0.1,0,0.1,0,0.2c0,0.2,0,0.4-0.1,0.5
						c-0.1,0.1-0.2,0.2-0.3,0.2h0c0,0,0,0,0,0c0,0-0.1,0-0.1,0c-0.1,0-0.1,0.1-0.1,0.1c0,0-0.1,0-0.1,0c0,0,0-0.1,0-0.1
						c0,0,0-0.3,0.1-0.4c0-0.1-0.2-0.4-0.2-0.6C23.3,10,23.3,9.5,23.2,9v0l0,0c0.1-0.3,0.1-0.7,0.3-1c0.1-0.3,0.2-0.6,0.3-0.8
						c0-0.1,0.1-0.1,0.1-0.2c-0.1-0.1-0.3-0.1-0.5-0.1c-0.3,0-0.5,0.1-0.7,0.2l0,0c0,0-0.4,0-0.6,0.1c-0.2,0-0.3,0.1-0.9,0.7
						c-0.2,0.2-0.3,0.4-0.3,0.7c0,0.1,0,0.3,0.1,0.4l0,0c0,0,0,0,0,0h0c0.1,0,0.1,0,0.2,0c0.6,0.2,1.1,0.6,1.4,1.1
						c0.1,0.1,0.1,0.2,0.1,0.4c0.1,0,0.1-0.1,0.2-0.1l-0.2-0.8c0-0.1,0-0.1,0.1-0.1c0,0,0,0,0,0c0.1,0,0.1,0,0.1,0.1l0.3,1.2
						c0,0,0,0,0,0c0.1,0.4,0.2,0.8,0.2,1.2c0,0.4-0.1,0.9-0.3,1.2c0,0-0.4,0.8-0.4,0.9c0,0,0,0.1,0,0.1c0,0.1,0.1,0.2,0.1,0.4
						c0,0.1,0,0.1,0,0.2c0,0,0,0,0,0.1c0.1,0.1,0.2,0.2,0.2,0.3v0c0,0,0,0.1,0,0.1c0.1,0.1,0.1,0.2,0.1,0.3c0,0,0,0.1,0,0.1
						c0,0,0,0,0,0.1c0,0,0,0.1,0,0.1L24.4,16.4z M15.7,14.1c-0.1,0.2-0.2,0.4-0.2,0.6c0,0,0,0,0,0c0,0,0,0,0,0c0,0.1,0,0.2,0,0.3
						c0,0.2,0,0.3,0.2,0.3c0.1,0,0.2,0.1,0.2,0.1c0.2,0.2,0.5,0.2,0.7,0.3c0.1,0,0.3,0,0.4-0.1c0.1-0.1,0.2-0.2,0.2-0.3
						c0-0.1,0-0.1,0-0.2l0-0.1c0,0,0.2-0.1,0.2-0.2c0,0,0-0.1,0-0.1l-0.2-0.3c0,0,0-0.1,0-0.1c0,0,0-0.1,0.1-0.1l0.5-0.1
						c0,0,0.1,0,0.1,0h0c-0.1,0-0.3-0.1-0.4-0.1c-0.1,0-0.6-0.1-0.6-0.1l0,0c0,0.1,0,0.1,0,0.2c0,0,0,0.1-0.1,0.1
						c-0.1,0.1-0.3,0.1-0.4,0.1c0,0-0.1,0-0.1,0l-0.1-0.1c-0.1,0-0.1-0.1,0-0.1c0,0,0,0,0,0c0,0,0.1-0.1,0.1,0c0,0,0,0,0,0l0.1,0.1
						c0,0,0,0,0,0c0.1,0,0.2,0,0.3-0.1c0,0,0-0.1-0.1-0.1L16.4,14l-0.3-0.1C16,14,15.8,14,15.7,14.1 M8,15.1c0.3,0.2,0.6,0.5,1,0.5
						c0.1,0,0.3,0,0.4-0.1c0.4-0.3,0.7-0.5,1-0.7l-0.8-0.3c-0.2,0-1.1-0.4-1.2-0.4c-0.3-0.1-0.6-0.2-0.9-0.3c-0.3-0.3-0.6-0.6-0.7-1
						v0c0-0.1,0.1-0.7,0.1-1.2c-0.6,0.3-1.1,0.8-1.3,1.4c0,0-0.5,0.6-0.6,0.7c0,0,0,0.1,0,0.2c0,0.2,0.1,0.4,0.2,0.5
						c0.1,0.1,0.2,0.2,0.3,0.3c0,0,0,0,0,0l0,0c0.2,0.2,0.4,0.3,0.7,0.4c0,0,0.1,0,0.1,0C6.7,15.1,7.1,15,7.6,15
						C7.7,15,7.9,15,8,15.1 M13.7,14.4c0,0.1,0,0.2,0.1,0.2c0.2,0.5,0.7,0.8,1.2,0.9c0,0,0.3,0,0.6,0c-0.1-0.1-0.2-0.3-0.2-0.5
						c0-0.1,0-0.2,0-0.3c0,0,0,0,0,0l0,0c0-0.3,0.1-0.5,0.2-0.7c0.2-0.1,0.3-0.2,0.5-0.3h0.1l0.1,0c-0.2-0.2-0.4-0.3-0.6-0.5v0
						c0,0,0,0,0,0c0,0,0,0,0,0c-0.5,0.2-1.4,0.6-1.4,0.5l-0.5,0.3C13.7,14.2,13.7,14.3,13.7,14.4 M7.7,13.6c0.2,0.2,0.5,0.3,0.8,0.3
						c0.2,0,1.1,0.4,1.3,0.4l0.9,0.3l0,0c0,0,0.1,0,0.1,0v0c0,0,0,0,0,0c0-0.1,0-0.2,0-0.2c0.1-0.6,0.1-1.4,0.1-1.6c0,0,0-0.1,0-0.1
						c-0.1,0-0.1,0-0.2,0c-0.5,0-1-0.5-1.4-1C9.1,11.5,9,11.3,9,11c0.1-0.6,0.4-1.1,0.8-1.4c0.6-0.5,1.3-0.7,2-0.8
						c-0.1,0-0.1,0-0.2,0c-0.3,0-0.5,0-0.8,0.1C10.2,8.9,9.6,9.1,9,9.3c-0.3,0.2-0.6,0.8-0.9,1c-0.3,0.2-0.7,0.3-0.8,0.8
						c0,0.1,0,0.2-0.1,0.3c-0.1,0.5-0.2,1.2-0.2,1.4v0C7.2,13.1,7.4,13.4,7.7,13.6 M14,12.4c-0.2,0.1-0.4,0.1-0.5,0.4
						c-0.1,0.5-0.3,1-0.6,1.4l0.7-0.3l0.6-0.3c0,0,0.9-0.3,1.4-0.5c0.1,0,0.2-0.1,0.3-0.1c0-0.1,0-0.2,0-0.3c0,0,0,0-0.1,0L15.3,13
						c0,0-0.1,0-0.1,0c0,0,0,0,0,0c0,0,0-0.1,0-0.1c0,0,0,0,0,0l0.5-0.3c0.1,0,0.1-0.1,0.2-0.1c0.2-0.2,0.2-0.5,0.2-0.7
						c0,0,0-0.1,0-0.1l-1.5,0.4l0,0c0,0-0.1,0-0.1,0C14.4,12.1,14.2,12.3,14,12.4 M26.9,12.1c0.1,0.7,0.4,1.3,1,1.6
						c0.9-0.4,1.8-0.7,2.7-0.9c-0.2-0.2-0.4-0.4-0.6-0.6c-0.3-0.2-0.5-0.3-0.8-0.5c-0.1,0-0.1-0.1-0.1-0.1c0,0,0,0,0,0
						c0-0.1,0.1-0.1,0.1-0.1c0.3,0.1,0.5,0.2,0.7,0.4c-0.1-0.3-0.2-0.5-0.3-0.8c-0.5-0.8-1.3-1.5-2.2-1.9c0,0,0,0.1,0,0.1
						c0,0,0,0,0,0c0,0.2,0.1,0.3,0.1,0.5c0,0.1,0,0.1,0,0.2c0,0-0.1,0.1-0.1,0.1c0,0,0,0,0,0c0,0.1,0,0.4-0.1,0.6
						c-0.1,0.1-0.1,0.1-0.1,0.2c0,0,0,0.2,0,0.4c0,0.1,0,0.3-0.1,0.4c0,0-0.1,0.1-0.1,0.1C26.9,12,26.9,12,26.9,12.1L26.9,12.1z
						 M26.4,12.3c0,0,0-0.1,0-0.1c0-0.1,0.1-0.2,0.1-0.2l0-0.1l0.1-0.1c0.1,0,0.1-0.1,0.2-0.1c0,0,0.1-0.1,0.1-0.1
						c0-0.1,0.1-0.2,0.1-0.3c0-0.2,0-0.3,0-0.4l0,0h0c0-0.1,0.1-0.3,0.2-0.4c0,0,0.1-0.4,0.1-0.4c0-0.2,0.2-0.2,0.2-0.3c0,0,0,0,0,0
						c0-0.2,0-0.3-0.1-0.5c0,0,0,0,0-0.1c0-0.1,0-0.2,0.1-0.3c0,0,0,0,0,0c0-0.2,0.1-0.4,0.1-0.6v0c0,0,0,0,0,0
						c0-0.1,0.1-0.3,0.1-0.4l0,0c-0.1-0.3-0.2-0.6-0.4-0.9c-0.1-0.2-0.6-0.3-0.6-0.3l-0.1,0c-0.3-0.2-0.7-0.4-1.1-0.4
						c-0.1,0-0.1,0-0.1,0c-0.3,0.1-0.5,0.1-0.8,0.2c-0.2,0.1-0.3,0.3-0.4,0.4l0,0c0,0,0,0,0,0C24.1,7.1,24,7.2,24,7.3
						c-0.1,0.2-0.2,0.5-0.3,0.8c-0.1,0.3-0.2,0.6-0.3,0.9v0c0,0.4,0.1,0.9,0.2,1.3c0.1,0.2,0.2,0.4,0.2,0.6l0,0c0,0,0,0.1,0,0.2
						c0,0,0.1,0,0.1,0h0c0,0,0.1,0,0.1,0c0,0,0,0,0,0c0-0.2,0-0.3,0-0.5c0-0.1,0-0.1,0-0.2c0-0.2-0.1-0.3-0.1-0.4c0,0,0-0.1,0-0.1
						c0-0.1,0.1-0.2,0.1-0.2c0-0.1,0.1-0.1,0.1-0.2c0-0.2,0-0.5,0.1-0.7c0-0.1,0.3-0.4,0.3-0.6C24.9,8.1,25.1,8,25.2,8c0,0,0,0,0,0
						c0.1,0,0.3,0,0.4,0c0,0,0.1,0,0.1,0c0.1-0.1,0.6-0.5,0.6-0.5c0,0,0.1,0,0.1,0c0,0,0.1,0,0.1,0.1c0,0,0.1,0.3,0.1,0.5
						c0.1,0.2,0.2,0.3,0.3,0.4c0.1,0.2,0.2,0.4,0.2,0.6c0,0,0,0.1,0,0.1l-0.7,1.1l0,0l-0.1,1l-0.2,0.7
						C26.3,12.2,26.3,12.2,26.4,12.3 M17,11.8c0.1,0,0.2,0.1,0.3,0.1h0c0.1,0,0,0,0.1-0.1c0-0.1,0.1-0.2,0.2-0.3l0,0c0,0,0,0,0,0
						l-0.1-0.2c0,0,0-0.1,0-0.1c0,0,0.1,0,0.1,0l0.2,0.2c0.1,0,0.1,0,0.2,0c0.1,0,0.1-0.1,0.1-0.1c0,0,0,0,0,0c0,0,0,0,0,0h0v0
						c0,0,0,0,0,0c0,0,0,0,0,0l0,0h0c0,0,0,0,0,0c0,0,0.1,0.1,0.1,0.1c0,0,0,0,0-0.1c0.1-0.4,0.3-0.8,0.4-1.2c0-0.1,0-0.1,0.1-0.2
						c-0.2,0-0.4-0.1-0.5-0.2l-0.3-0.2c0,0.1-0.1,0.3-0.1,0.4c-0.1,0.1-0.2,0.2-0.3,0.2h-0.1c0,0-0.2,0.2-0.4,0.3
						c-0.2,0.2-0.4,0.3-0.7,0.3c-0.2,0-0.4,0.1-0.6,0.1c-0.1,0-0.2,0-0.3,0c0,0-0.1,0-0.1,0c-0.1,0-0.2,0-0.3,0
						c-0.1,0-0.2,0-0.2-0.1c0,0,0-0.1-0.1-0.1c0,0.1,0,0.2,0,0.3c0,0.2,0,0.4-0.1,0.5c-0.1,0.2-0.2,0.4-0.3,0.6l1.4-0.4l0.1,0
						l0.1,0.1l0.6,0.3C16.8,11.7,16.9,11.7,17,11.8 M20.6,11.5c0.1,0,0.2,0.1,0.3,0.1c0.1,0,0.2,0,0.3-0.1c0.4-0.2,0.6-0.2,0.6-0.3
						c0,0,0,0,0-0.1c0-0.1,0-0.1,0-0.2c-0.1-0.5,0-0.3-0.2-0.4c-0.1-0.1-0.2-0.1-0.2-0.2h0c0,0,0,0-0.1,0c0,0,0,0,0,0c0,0,0,0,0,0
						c0,0,0,0,0,0.1c0,0,0,0.1,0.1,0.1c0.1,0.1,0.2,0.3,0.2,0.3v0c0,0,0,0.1,0,0.1c0,0-0.1,0-0.1,0c0,0,0,0,0,0c0,0-0.1-0.1-0.1-0.2
						l0,0l-0.4-0.2c-0.1-0.1-0.3-0.1-0.4-0.1c-0.1,0-0.2,0-0.2,0c0,0-0.1,0-0.2,0c-0.3,0-0.5,0.1-0.7,0.2c-0.1,0-0.2,0.1-0.2,0.1
						c0.1,0.1,0.2,0.1,0.3,0.1h0c0.1,0,0.1,0,0.2,0l0,0c0,0,0,0,0,0c0-0.1,0.1-0.1,0.2-0.1c0.1,0,0.1,0,0.2,0.1c0,0,0.6,0.6,0.6,0.6
						C20.5,11.5,20.6,11.5,20.6,11.5 M21.3,10.1c0.1,0,0.1,0,0.2,0.1c0.1,0.1,0.1,0.2,0.2,0.2c0.1,0.1,0.2,0.1,0.2,0.5
						c0,0,0,0.1,0,0.1c0.1,0,0.3-0.1,0.4-0.1c0.1,0,0.1-0.1,0.1-0.1c0-0.1,0.1-0.1,0.1-0.2c0-0.1,0-0.2-0.1-0.3
						c-0.2-0.4-1-0.8-1.3-1c0,0-0.1,0-0.1,0c0,0-0.1,0-0.1,0c-0.2,0.1-0.4,0.2-0.5,0.3c-0.1,0-0.1,0.4-0.1,0.6c0,0,0.1,0,0.2,0
						c0.2,0,0.4,0,0.5,0.1l0.1,0.1l0,0c0-0.1,0-0.1,0.1-0.2C21.2,10.1,21.2,10.1,21.3,10.1L21.3,10.1z M24.5,9.8
						c0,0,0.3,0.9,0.6,0.9c0,0,0,0,0,0c0.4,0,0.9-0.1,1.2-0.4c0,0,0,0,0,0l0,0l0.3-0.4c-0.1,0-0.2,0-0.2-0.1l0,0
						c0,0.1-0.1,0.1-0.1,0.1c-0.1,0-0.1-0.1-0.1-0.1l0-0.1c0,0-0.1,0-0.1-0.1l0,0c0,0-0.1-0.1,0-0.1c0,0,0,0,0,0c0,0,0.1-0.1,0.1,0
						c0,0,0,0,0,0c0.2,0.1,0.4,0.2,0.6,0.2h0l0.3-0.5v0C27,9,27,8.8,26.9,8.7c-0.2-0.1-0.3-0.3-0.4-0.5c0,0,0-0.2-0.1-0.3
						C26.3,8,26,8.2,25.9,8.3c-0.1,0-0.1,0-0.2,0c-0.2,0-0.3,0-0.5,0c-0.1,0-0.3,0.1-0.3,0.1c-0.1,0.1-0.3,0.5-0.3,0.6
						c-0.1,0.2-0.1,0.4-0.1,0.6C24.5,9.6,24.5,9.7,24.5,9.8C24.5,9.8,24.5,9.8,24.5,9.8 M15.8,10.3c0.1,0,0.1,0,0.2,0
						c0.2,0,0.4,0,0.6-0.1c0.2,0,0.4-0.1,0.6-0.3c0.1-0.1,0.3-0.3,0.5-0.3h0c0,0,0.1,0,0.2-0.1c0.1-0.1,0.1-0.2,0.1-0.3
						c0,0,0-0.1,0-0.1c0,0,0-0.1,0.1-0.1c0,0,0.1,0,0.1,0l0.4,0.3c0.2,0.1,0.4,0.2,0.6,0.3c0.1,0,0.1,0.1,0.2,0.1c0,0,0,0,0,0
						c0.3-0.1,0.2-0.1,0.2-0.2c0-0.1,0.1-0.3,0.1-0.4c0-0.2-0.1-0.4-0.3-0.5l-0.1-0.1c0,0-0.3-0.6-0.7-0.5c0,0-0.1,0-0.1,0l-0.1,0
						c-0.1-0.1-0.2-0.2-0.4-0.2c-0.3-0.1-0.6-0.2-0.9-0.2c-0.1,0-0.2,0-0.2,0c-0.2,0-0.5-0.1-0.7-0.1c-0.4,0-0.8,0.1-0.8,0.3
						c0,0,0,0.1-0.1,0.1C15.2,8,15,8,14.9,8.1c-0.3,0.1-0.5,0.2-0.4,0.3l0,0c0,0,0,0,0,0c0,0.1,0,0.1-0.1,0.1l-0.1,0h0
						c-0.1,0-0.2,0.2-0.2,0.3c0,0,0,0,0,0.1l0,0c0,0,0,0,0,0C14.1,9,14.2,9,14.3,9.1c0.2,0.2,0.4,0.4,0.5,0.7c0,0,0,0.1,0,0.1
						c0.2,0.1,0.3,0.2,0.4,0.4c0,0,0,0,0,0c0.1,0,0.2,0,0.3,0C15.7,10.2,15.7,10.3,15.8,10.3L15.8,10.3z M20.5,22.2c0,0,0-0.1,0-0.1
						l0,0c-0.1,0-0.1-0.1-0.1-0.1c0,0,0-0.1,0-0.1c0,0,0,0,0,0c0,0,0.1,0,0.1,0c0,0.1,0.4,0.2,0.4,0.2v0c0.1,0,0.1,0.1,0.1,0.1
						c0,0,0,0,0,0c0,0.1-0.1,0.1-0.1,0.1c0,0-0.1,0-0.2-0.1l-0.1,0.1C20.6,22.2,20.6,22.2,20.5,22.2C20.5,22.2,20.5,22.2,20.5,22.2
						 M27,19.1L27,19.1l-0.4,0c-0.1,0-0.1,0-0.1-0.1c0,0,0,0,0,0c0-0.1,0-0.1,0.1-0.1c0,0,0,0,0,0l0.9-0.2c0.1,0,0.1,0,0.1,0.1
						c0,0,0,0,0,0c0,0.1,0,0.1-0.1,0.1l-0.3,0.1v0c0,0,0,0.1,0,0.1c0,0,0,0,0,0C27.1,19.1,27.1,19.1,27,19.1
						C27,19.1,27,19.1,27,19.1L27,19.1z M20.4,13.9c0,0-0.1-0.1,0-0.1c0,0,0,0,0,0c0,0,0.2-0.4,0.5-0.4c0.1,0,0.1,0,0.1,0.1
						c0,0,0,0.1,0,0.1c0,0,0,0,0,0c0,0-0.1,0-0.1,0c0,0,0,0,0,0h0c0,0,0,0,0,0c0,0,0,0,0,0l0,0.1c0,0,0,0.1,0,0.1c0,0,0,0,0,0
						c0,0-0.1,0-0.1,0c0,0,0,0,0,0l0-0.1c0,0,0,0,0,0c-0.1,0.1-0.2,0.2-0.2,0.2h0C20.5,13.9,20.5,13.9,20.4,13.9
						C20.4,13.9,20.4,13.9,20.4,13.9 M25.4,10.6c-0.1,0-0.3-0.1-0.4-0.1c0,0-0.1-0.1,0-0.1c0,0,0.1-0.1,0.1,0
						c0.1,0.1,0.2,0.1,0.3,0.1c0.1,0,0.1,0.1,0.1,0.1C25.5,10.5,25.5,10.6,25.4,10.6L25.4,10.6z M18.3,10.6l-0.2-0.1l-0.1,0.1
						c0,0-0.1,0.1-0.1,0c0,0-0.1-0.1,0-0.1c0,0,0,0,0,0l0-0.1l-0.2-0.1c0,0-0.1-0.1,0-0.1c0,0,0,0,0,0c0,0,0.1-0.1,0.1,0
						c0,0,0,0,0,0l0.5,0.3c0,0,0.1,0.1,0,0.1C18.4,10.6,18.4,10.6,18.3,10.6C18.4,10.6,18.3,10.6,18.3,10.6 M25.5,10.2
						c-0.2,0-0.3-0.1-0.3-0.2c0,0,0-0.1,0-0.1c0,0,0.1,0,0.1,0c0,0,0,0,0,0c0,0,0,0,0,0c0,0,0.1,0,0.1,0c0.1,0,0.1,0,0.1,0.1
						c0,0,0,0,0,0C25.6,10.2,25.5,10.2,25.5,10.2L25.5,10.2z M25.1,9.4C25,9.4,25,9.4,25,9.3c0,0,0,0,0,0l0-0.1
						c-0.1,0-0.2-0.1-0.2-0.1v0c0,0-0.1-0.1,0-0.1c0,0,0,0,0,0c0,0,0.1-0.1,0.1,0c0,0,0,0,0,0c0.2,0.1,0.4,0.2,0.6,0.2
						c0.1,0,0.1,0,0.1,0.1c0,0,0,0,0,0c0,0.1,0,0.1-0.1,0.1c-0.1,0-0.2,0-0.2,0l0,0C25.2,9.4,25.1,9.4,25.1,9.4L25.1,9.4"/>
					<path class="st0" d="M110.1,32.7c0.5,0.6,1.3,1,2.2,0.9c1.2,0.1,2.2-0.7,2.4-1.8c0-0.1,0-0.1,0-0.2c-0.1-0.8-0.6-1.5-1.3-1.8v0
						c0.6-0.3,1.1-1,1.1-1.7c0-1.1-1-2-2.1-2c0,0-0.1,0-0.1,0c-0.8,0-1.5,0.4-2,0.9c-0.1,0.1-0.1,0.2,0,0.3c0,0,0,0,0,0l0.4,0.4
						c0.1,0.1,0.2,0.1,0.3,0c0,0,0,0,0,0c0.3-0.4,0.8-0.6,1.2-0.6c0.6,0,1.2,0.5,1.2,1.1c0,0,0,0,0,0c0,0.6-0.5,1.1-1.5,1.1h-0.6
						c-0.1,0-0.2,0.1-0.2,0.2v0.5c0,0.1,0.1,0.2,0.2,0.2c0,0,0,0,0,0h0.6c1.1,0,1.7,0.6,1.7,1.2c0,0.7-0.6,1.2-1.3,1.2c0,0,0,0,0,0
						c-0.5,0-1.1-0.3-1.4-0.7c-0.1-0.1-0.2-0.1-0.3,0c0,0,0,0,0,0l-0.4,0.4C110,32.5,110,32.6,110.1,32.7
						C110.1,32.7,110.1,32.7,110.1,32.7 M106.9,32.7c-1.2,0-1.6-1.2-1.5-2.1c0.3-0.5,0.9-0.8,1.5-0.8c0.8,0,1.4,0.7,1.4,1.5
						C108.3,32,107.7,32.6,106.9,32.7 M104.4,30.6c0,1.6,0.8,3,2.5,3c1.3,0,2.4-1.1,2.4-2.4c0.1-1.2-0.9-2.2-2.1-2.3
						c0,0-0.1,0-0.1,0c-0.5,0-1,0.1-1.4,0.4c0.5-1.1,1.4-1.9,2.5-2.3c0.2-0.1,0.2-0.2,0.2-0.3l-0.2-0.4c0-0.1-0.1-0.2-0.2-0.1
						c0,0,0,0,0,0C106.9,26.4,104.4,27.7,104.4,30.6 M99.5,31.6c0-0.7,0.7-1.3,1.4-1.3c0.7,0,1.2,0.6,1.3,1.3c0,0.7-0.6,1.2-1.3,1.2
						c0,0-0.1,0-0.1,0C100.2,32.8,99.6,32.3,99.5,31.6C99.5,31.6,99.5,31.6,99.5,31.6 M100.9,29.3c-0.8-0.1-1.2-0.6-1.2-1.1
						c0-0.6,0.5-1.1,1.1-1.1c0,0,0,0,0,0c0.6,0,1.2,0.4,1.2,1c0,0,0,0,0,0.1C102.1,28.7,101.7,29.2,100.9,29.3 M98.4,31.6
						c0.1,1.2,1.1,2.1,2.3,2.1c0.1,0,0.1,0,0.2,0c1.5,0,2.5-0.9,2.5-2c-0.1-0.8-0.6-1.5-1.3-1.8v0c0.6-0.3,1.1-0.9,1.1-1.6
						c-0.2-1.2-1.4-2.1-2.6-1.9c-1,0.2-1.8,0.9-1.9,1.9c0,0.7,0.5,1.3,1.1,1.6v0C99,30.1,98.5,30.8,98.4,31.6 M93.3,33.5H97
						c0.1,0,0.2-0.1,0.2-0.2c0,0,0,0,0,0v-0.5c0-0.1-0.1-0.2-0.2-0.2c0,0,0,0,0,0h-1.2v-6.2c0-0.1-0.1-0.2-0.2-0.2h-0.5l-1.6,1.4
						c0,0.1-0.1,0.1,0,0.2l0.1,0.4c0,0.1,0.1,0.1,0.2,0.1l0.9-0.5v4.7h-1.5c-0.1,0-0.2,0.1-0.2,0.2c0,0,0,0,0,0v0.5
						C93.1,33.4,93.2,33.5,93.3,33.5C93.3,33.5,93.3,33.5,93.3,33.5 M83.6,29.8c0-1.5,1.2-2.8,2.8-2.8s2.8,1.2,2.8,2.8
						c0,1.5-1.2,2.8-2.8,2.8c0,0,0,0,0,0C84.9,32.5,83.6,31.3,83.6,29.8 M82.6,29.8c0,2.1,1.7,3.8,3.8,3.8c2.1,0,3.8-1.7,3.8-3.8
						c0-2.1-1.7-3.8-3.8-3.8C84.3,26,82.6,27.6,82.6,29.8C82.6,29.8,82.6,29.8,82.6,29.8 M74.9,33.3c0,0.1,0.1,0.2,0.2,0.2h0.7
						c0.1,0,0.2-0.1,0.2-0.2v-5.2h0l4.6,5.5h0.3c0.1,0,0.2-0.1,0.2-0.2v-7.1c0-0.1-0.1-0.2-0.2-0.2h-0.7c-0.1,0-0.2,0.1-0.2,0.2v5h0
						L75.3,26h-0.3c-0.1,0-0.2,0.1-0.2,0.2V33.3z M69,31l1.3-2.9h0.1l1.3,2.9H69z M67,33.5h0.7c0.1,0,0.2-0.1,0.2-0.2
						c0.2-0.5,0.4-1,0.6-1.5h3.5l0.7,1.5c0,0.1,0.1,0.2,0.2,0.2h0.7c0.1,0,0.2-0.1,0.2-0.2c0,0,0-0.1,0-0.1l-3.2-7.2
						c0-0.1-0.1-0.1-0.2-0.1h-0.1c-0.1,0-0.1,0.1-0.2,0.1l-3.3,7.2c0,0.1,0,0.2,0.1,0.3C67,33.5,67,33.5,67,33.5 M62,33.3
						c0,0.1,0.1,0.2,0.2,0.2c0,0,0,0,0,0H66c0.1,0,0.2-0.1,0.2-0.2v-0.6c0-0.1-0.1-0.2-0.2-0.2h-2.9v-6.2c0-0.1-0.1-0.2-0.2-0.2
						h-0.7c-0.1,0-0.2,0.1-0.2,0.2L62,33.3z M58.8,33.3c0,0.1,0.1,0.2,0.2,0.2h0.7c0.1,0,0.2-0.1,0.2-0.2v-7c0-0.1-0.1-0.2-0.2-0.2
						H59c-0.1,0-0.2,0.1-0.2,0.2L58.8,33.3z M49.1,33.3c0,0.1,0,0.2,0.1,0.2c0,0,0.1,0,0.1,0H50c0.1,0,0.2-0.1,0.2-0.1l0.8-4.8h0
						l1.9,4.9c0,0.1,0.1,0.1,0.2,0.1h0.2c0.1,0,0.2,0,0.2-0.1l1.9-4.9h0l0.8,4.8c0,0.1,0.1,0.1,0.2,0.1h0.7c0.1,0,0.2-0.1,0.2-0.2
						c0,0,0-0.1,0-0.1L56,26.1c0-0.1-0.1-0.2-0.2-0.2h-0.2c-0.1,0-0.1,0-0.2,0.1l-2.2,5.4h0L51,26.1c0-0.1-0.1-0.1-0.2-0.1h-0.2
						c-0.1,0-0.2,0.1-0.2,0.2L49.1,33.3z"/>
					<path class="st0" d="M138.6,15.7c0-1.9,1.6-3.5,3.5-3.5c1.9,0,3.5,1.6,3.5,3.5s-1.6,3.5-3.5,3.5c0,0,0,0,0,0
						C140.1,19.2,138.6,17.7,138.6,15.7 M136.6,15.7c0,3,2.5,5.4,5.5,5.4s5.4-2.5,5.4-5.5c0-3-2.5-5.4-5.5-5.4
						C139,10.3,136.6,12.7,136.6,15.7C136.6,15.7,136.6,15.7,136.6,15.7 M126,15.7c0,3,2.4,5.4,5.4,5.4c0,0,0,0,0,0
						c1.4,0,2.7-0.5,3.7-1.5c0.1-0.1,0.1-0.3,0-0.4c0,0,0,0,0,0l-0.9-1c-0.1-0.1-0.3-0.1-0.4,0c-0.6,0.5-1.5,0.9-2.3,0.9
						c-1.9,0-3.4-1.6-3.4-3.5c0,0,0,0,0,0c-0.1-1.9,1.4-3.5,3.3-3.5c0,0,0,0,0,0c0.9,0,1.7,0.3,2.3,0.9c0.1,0.1,0.2,0.1,0.3,0
						c0,0,0,0,0,0l0.9-1c0.1-0.1,0.1-0.3,0-0.4c0,0,0,0,0,0c-1-0.9-2.3-1.4-3.7-1.4C128.5,10.3,126,12.7,126,15.7
						C126,15.7,126,15.7,126,15.7 M122,20.7c0,0.2,0.1,0.3,0.3,0.3h1.4c0.2,0,0.3-0.1,0.3-0.3v-10c0-0.2-0.1-0.3-0.3-0.3h-1.4
						c-0.2,0-0.3,0.1-0.3,0.3V20.7z M110.5,20.7c0,0.2,0.1,0.3,0.3,0.3h1.4c0.2,0,0.3-0.1,0.3-0.3v-6.5h0l6.3,7h0.4
						c0.2,0,0.3-0.1,0.3-0.3V10.7c0-0.2-0.1-0.3-0.3-0.3h-1.4c-0.2,0-0.3,0.1-0.3,0.3c0,0,0,0,0,0V17h0l-6.3-6.7h-0.4
						c-0.2,0-0.3,0.1-0.3,0.3L110.5,20.7z M99.3,15.7c0,3,2.4,5.4,5.4,5.4c0,0,0,0,0,0c1.4,0,2.7-0.5,3.7-1.5c0.1-0.1,0.1-0.3,0-0.4
						c0,0,0,0,0,0l-0.9-1c-0.1-0.1-0.3-0.1-0.4,0c-0.7,0.5-1.5,0.9-2.3,0.9c-1.9,0-3.4-1.6-3.4-3.5c0,0,0,0,0,0
						c-0.1-1.9,1.4-3.5,3.3-3.5c0,0,0,0,0,0c0.9,0,1.7,0.3,2.3,0.9c0.1,0.1,0.2,0.1,0.3,0c0,0,0,0,0,0l0.9-1c0.1-0.1,0.1-0.3,0-0.4
						c0,0,0,0,0,0c-1-0.9-2.3-1.4-3.7-1.4C101.7,10.3,99.3,12.7,99.3,15.7C99.3,15.7,99.3,15.7,99.3,15.7 M91,20.7
						c0,0.2,0.1,0.3,0.3,0.3h6.2c0.2,0,0.3-0.1,0.3-0.3v-1.2c0-0.2-0.1-0.3-0.3-0.3c0,0,0,0,0,0h-4.5v-2.7h3.7
						c0.2,0,0.3-0.1,0.3-0.3c0,0,0,0,0,0V15c0-0.2-0.1-0.3-0.3-0.3h-3.7v-2.5h4.5c0.2,0,0.3-0.1,0.3-0.3c0,0,0,0,0,0v-1.2
						c0-0.2-0.1-0.3-0.3-0.3c0,0,0,0,0,0h-6.2c-0.2,0-0.3,0.1-0.3,0.3c0,0,0,0,0,0L91,20.7z M84.6,20.7c0,0.2,0.1,0.3,0.3,0.3h1.4
						c0.2,0,0.3-0.1,0.3-0.3v-8.5H89c0.2,0,0.3-0.1,0.3-0.3c0,0,0,0,0,0v-1.2c0-0.2-0.1-0.3-0.3-0.3c0,0,0,0,0,0h-6.6
						c-0.2,0-0.3,0.1-0.3,0.3c0,0,0,0,0,0v1.2c0,0.2,0.1,0.3,0.3,0.3c0,0,0,0,0,0h2.3L84.6,20.7z M78.1,20.7c0,0.2,0.1,0.3,0.3,0.3
						h1.4c0.2,0,0.3-0.1,0.3-0.3v-10c0-0.2-0.1-0.3-0.3-0.3h-1.4c-0.2,0-0.3,0.1-0.3,0.3L78.1,20.7z M70,20.7c0,0.2,0.1,0.3,0.3,0.3
						h5.6c0.2,0,0.3-0.1,0.3-0.3v-1.2c0-0.2-0.1-0.3-0.3-0.3H72v-8.5c0-0.2-0.1-0.3-0.3-0.3h-1.4c-0.2,0-0.3,0.1-0.3,0.3
						c0,0,0,0,0,0V20.7z M59.5,15.7c0-1.9,1.6-3.5,3.5-3.5s3.5,1.6,3.5,3.5s-1.6,3.5-3.5,3.5c0,0,0,0,0,0
						C61,19.2,59.5,17.7,59.5,15.7 M57.5,15.7c0,3,2.5,5.4,5.5,5.4s5.4-2.5,5.4-5.5c0-3-2.5-5.4-5.5-5.4
						C60,10.3,57.5,12.7,57.5,15.7C57.5,15.7,57.5,15.7,57.5,15.7 M51.1,15.3v-3h1.8c0.8,0,1.5,0.6,1.6,1.5c0,0,0,0,0,0
						c0,0.9-0.7,1.6-1.6,1.6c0,0,0,0,0,0L51.1,15.3z M49.1,20.7c0,0.2,0.1,0.3,0.3,0.3h1.4c0.2,0,0.3-0.1,0.3-0.3v-3.6H53
						c1.9,0,3.4-1.5,3.4-3.4s-1.5-3.4-3.4-3.4c0,0,0,0,0,0h-3.6c-0.2,0-0.3,0.1-0.3,0.3c0,0,0,0,0,0L49.1,20.7z"/>
				</g>
			</g>
		</g>
	</g>
	<g>
		<path class="st0" d="M49.4,53.4l0.2-0.4c0-0.1,0.1-0.1,0.2-0.1c0,0,0,0,0,0c0.3,0.2,0.7,0.4,1,0.4c0.3,0,0.6-0.2,0.6-0.5
			c0,0,0,0,0,0c0-0.3-0.3-0.6-0.9-0.8c-0.6-0.3-1.3-0.7-1.3-1.5c0-0.8,0.7-1.4,1.4-1.3c0,0,0.1,0,0.1,0c0.5,0,1,0.2,1.4,0.5
			c0.1,0.1,0.1,0.2,0,0.2l-0.3,0.4c0,0.1-0.2,0.1-0.2,0.1c-0.3-0.2-0.6-0.3-1-0.4c-0.3,0-0.6,0.2-0.6,0.5c0,0.3,0.3,0.5,0.8,0.8
			c0.7,0.3,1.4,0.7,1.4,1.6c0,0.8-0.7,1.4-1.5,1.4c0,0,0,0,0,0c-0.6,0-1.1-0.2-1.5-0.5C49.4,53.5,49.4,53.5,49.4,53.4z"/>
		<path class="st0" d="M55.7,49.2c0.6,0,1.2,0.2,1.7,0.6c0.1,0,0.1,0.1,0,0.2c0,0,0,0,0,0L57,50.4c0,0-0.1,0.1-0.2,0c0,0,0,0,0,0
			c-0.3-0.3-0.7-0.4-1.1-0.4c-0.9,0-1.6,0.8-1.5,1.7c0,0.8,0.7,1.5,1.5,1.5c0.4,0,0.8-0.1,1-0.4c0,0,0.1,0,0.2,0l0.4,0.4
			c0,0.1,0,0.1,0,0.2c-0.4,0.4-1,0.7-1.7,0.7c-1.4,0-2.5-1.1-2.5-2.5C53.2,50.3,54.3,49.2,55.7,49.2C55.7,49.2,55.7,49.2,55.7,49.2
			L55.7,49.2z"/>
		<path class="st0" d="M58.4,49.4c0-0.1,0.1-0.1,0.1-0.1h0.6c0.1,0,0.1,0.1,0.1,0.1c0,0,0,0,0,0v1.8h2.2v-1.8c0-0.1,0.1-0.1,0.1-0.1
			c0,0,0,0,0,0h0.6c0.1,0,0.1,0.1,0.1,0.1v4.5c0,0.1-0.1,0.1-0.1,0.1h-0.6c-0.1,0-0.1-0.1-0.1-0.1c0,0,0,0,0,0V52h-2.2v1.9
			c0,0.1-0.1,0.1-0.1,0.1c0,0,0,0,0,0h-0.6c-0.1,0-0.1-0.1-0.1-0.1V49.4z"/>
		<path class="st0" d="M66,49.2c1.4,0,2.5,1.1,2.5,2.5c0,1.4-1.1,2.5-2.5,2.5c-1.4,0-2.5-1.1-2.5-2.5C63.5,50.3,64.6,49.2,66,49.2
			C66,49.2,66,49.2,66,49.2z M66,53.2c0.9,0,1.6-0.7,1.6-1.6c0-0.9-0.7-1.6-1.6-1.6s-1.6,0.7-1.6,1.6c0,0,0,0,0,0
			C64.4,52.5,65.1,53.2,66,53.2z"/>
		<path class="st0" d="M71.6,49.2c1.4,0,2.5,1.1,2.5,2.5c0,1.4-1.1,2.5-2.5,2.5c-1.4,0-2.5-1.1-2.5-2.5v0
			C69.1,50.3,70.2,49.2,71.6,49.2C71.6,49.2,71.6,49.2,71.6,49.2z M71.6,53.2c0.9,0,1.6-0.7,1.6-1.6s-0.7-1.6-1.6-1.6
			S70,50.8,70,51.6c0,0,0,0,0,0C70,52.5,70.7,53.2,71.6,53.2z"/>
		<path class="st0" d="M75.1,49.4c0-0.1,0.1-0.1,0.1-0.1c0,0,0,0,0,0h0.6c0.1,0,0.1,0.1,0.1,0.1v3.9h1.8c0.1,0,0.1,0.1,0.1,0.1v0.6
			c0,0.1-0.1,0.1-0.1,0.1c0,0,0,0,0,0h-2.5c-0.1,0-0.1-0.1-0.1-0.1c0,0,0,0,0,0V49.4z"/>
		<path class="st0" d="M82.5,49.2c1.4,0,2.5,1.1,2.5,2.5c0,1.4-1.1,2.5-2.5,2.5c-1.4,0-2.5-1.1-2.5-2.5C80,50.3,81.1,49.2,82.5,49.2
			C82.5,49.2,82.5,49.2,82.5,49.2z M82.5,53.2c0.9,0,1.6-0.7,1.6-1.6s-0.7-1.6-1.6-1.6s-1.6,0.7-1.6,1.6c0,0,0,0,0,0
			C80.9,52.5,81.6,53.2,82.5,53.2z"/>
		<path class="st0" d="M86,49.4c0-0.1,0.1-0.1,0.1-0.1c0,0,0,0,0,0h2.8c0.1,0,0.1,0.1,0.1,0.1c0,0,0,0,0,0v0.6
			c0,0.1-0.1,0.1-0.1,0.1c0,0,0,0,0,0h-2v1.3h1.7c0.1,0,0.1,0.1,0.1,0.1v0.6c0,0.1-0.1,0.1-0.1,0.1h-1.7v1.7c0,0.1-0.1,0.1-0.1,0.1
			h-0.6C86,54.1,86,54,86,53.9c0,0,0,0,0,0L86,49.4z"/>
		<path class="st0" d="M91.6,49.4c0-0.1,0.1-0.1,0.1-0.1h1.6c1.3,0,2.4,1.1,2.4,2.4c0,1.3-1.1,2.4-2.4,2.4c0,0,0,0,0,0h-1.6
			c-0.1,0-0.1-0.1-0.1-0.1L91.6,49.4z M93.3,53.2c0.9,0,1.6-0.7,1.5-1.6c0-0.8-0.7-1.5-1.5-1.5h-0.8v3.1H93.3z"/>
		<path class="st0" d="M96.9,49.4c0-0.1,0.1-0.1,0.1-0.1c0,0,0,0,0,0h2.8c0.1,0,0.1,0.1,0.1,0.1c0,0,0,0,0,0v0.6
			c0,0.1-0.1,0.1-0.1,0.1c0,0,0,0,0,0h-2v1.1h1.7c0.1,0,0.1,0.1,0.1,0.1v0.6c0,0.1-0.1,0.1-0.1,0.1c0,0,0,0,0,0h-1.7v1.2h2
			c0.1,0,0.1,0.1,0.1,0.1c0,0,0,0,0,0v0.6c0,0.1-0.1,0.1-0.1,0.1c0,0,0,0,0,0H97c-0.1,0-0.1-0.1-0.1-0.1c0,0,0,0,0,0V49.4z"/>
		<path class="st0" d="M100.7,53.4L101,53c0-0.1,0.1-0.1,0.2-0.1c0,0,0,0,0,0c0.3,0.2,0.7,0.4,1,0.4c0.3,0,0.6-0.2,0.6-0.5
			c0,0,0,0,0,0c0-0.3-0.3-0.6-0.9-0.8c-0.6-0.3-1.3-0.7-1.3-1.5c0-0.8,0.7-1.4,1.4-1.3c0,0,0.1,0,0.1,0c0.5,0,1,0.2,1.4,0.5
			c0.1,0.1,0.1,0.2,0,0.2l-0.3,0.4c0,0.1-0.2,0.1-0.2,0.1c-0.3-0.2-0.6-0.3-1-0.4c-0.3,0-0.6,0.2-0.6,0.5c0,0.3,0.3,0.5,0.8,0.8
			c0.7,0.3,1.4,0.7,1.4,1.6c0,0.8-0.7,1.4-1.5,1.4c0,0,0,0,0,0c-0.6,0-1.1-0.2-1.5-0.5C100.7,53.5,100.7,53.5,100.7,53.4z"/>
		<path class="st0" d="M104.9,49.4c0-0.1,0.1-0.1,0.1-0.1h0.6c0.1,0,0.1,0.1,0.1,0.1v4.5c0,0.1-0.1,0.1-0.1,0.1H105
			c-0.1,0-0.1-0.1-0.1-0.1L104.9,49.4z"/>
		<path class="st0" d="M109.3,49.2c0.6,0,1.2,0.2,1.7,0.6c0.1,0,0.1,0.1,0,0.2c0,0,0,0,0,0l-0.4,0.4c0,0-0.1,0.1-0.2,0c0,0,0,0,0,0
			c-0.3-0.3-0.7-0.4-1-0.4c-0.9,0-1.6,0.8-1.5,1.6c0,0.8,0.7,1.5,1.5,1.5c0.3,0,0.6-0.1,0.8-0.2v-0.6h-0.5c-0.1,0-0.1-0.1-0.1-0.1
			c0,0,0,0,0,0v-0.5c0-0.1,0.1-0.1,0.1-0.1c0,0,0,0,0,0h1.3c0.1,0,0.1,0.1,0.1,0.1v1.8c0,0,0,0.1-0.1,0.1c-0.5,0.3-1.1,0.4-1.7,0.4
			c-1.4,0-2.5-1.1-2.5-2.5C106.8,50.3,107.9,49.2,109.3,49.2L109.3,49.2z"/>
		<path class="st0" d="M112.2,49.3c0-0.1,0.1-0.1,0.1-0.1h0.2l2.9,3h0v-2.8c0-0.1,0.1-0.1,0.1-0.1c0,0,0,0,0,0h0.6
			c0.1,0,0.1,0.1,0.1,0.1V54c0,0.1-0.1,0.1-0.1,0.1H116l-2.9-3.2h0v3c0,0.1-0.1,0.1-0.1,0.1c0,0,0,0,0,0h-0.6
			c-0.1,0-0.1-0.1-0.1-0.1L112.2,49.3z"/>
	</g>
</g>
</svg>
