<svg xmlns="http://www.w3.org/2000/svg" viewBox="0 0 18.48224 19.45139">
  <g id="Livello_2" data-name="Livello 2">
    <g id="Livello_2-2" data-name="Livello 2">
      <path d="M18.41,17.62,11.26,10.6a7.19856,7.19856,0,0,0,.51-1.26A9.52041,9.52041,0,0,0,12.12,6.65a9.49859,9.49859,0,0,0-.35-2.68,6.14149,6.14149,0,0,0-1.05-2.11A5.12475,5.12475,0,0,0,8.94.5,9.60661,9.60661,0,0,0,5.71,0,5.78242,5.78242,0,0,0,3.19.5,5.16255,5.16255,0,0,0,1.4,1.86,5.80806,5.80806,0,0,0,.35,3.97,9.49863,9.49863,0,0,0,0,6.65,9.52046,9.52046,0,0,0,.35,9.34,5.66677,5.66677,0,0,0,1.4,11.42,4.98151,4.98151,0,0,0,3.19,12.8a5.93014,5.93014,0,0,0,2.52.5,9.90778,9.90778,0,0,0,3.23-.5,4.67894,4.67894,0,0,0,.66-.37l7.08,6.95a.28178.28178,0,0,0,.41-.04l1.29-1.3A.30136.30136,0,0,0,18.41,17.62ZM5.79,11.68a4.43213,4.43213,0,0,1-1.91-.38,3.54441,3.54441,0,0,1-1.34-1.04,4.21106,4.21106,0,0,1-.8-1.58,7.17431,7.17431,0,0,1-.27-2.03,7.15285,7.15285,0,0,1,.27-2.02,4.227,4.227,0,0,1,.8-1.6A3.75438,3.75438,0,0,1,3.88,1.99a4.74889,4.74889,0,0,1,1.91-.37,7.69217,7.69217,0,0,1,2.45.37A3.75472,3.75472,0,0,1,9.58,3.03a4.22725,4.22725,0,0,1,.8,1.6,7.15253,7.15253,0,0,1,.27,2.02,7.174,7.174,0,0,1-.27,2.03,4.21128,4.21128,0,0,1-.8,1.58A3.5447,3.5447,0,0,1,8.24,11.3,7.2424,7.2424,0,0,1,5.79,11.68Z"/>
    </g>
  </g>
</svg>
