<svg xmlns="http://www.w3.org/2000/svg" viewBox="0 0 50 50"><defs><style>.cls-1{fill:#fff;}</style></defs><g id="Layer_2" data-name="Layer 2"><rect x="6.67" y="6.67" width="36.66" height="36.66"/><path class="cls-1" d="M42.83,7.17V42.83H7.17V7.17H42.83m1-1H6.17V43.83H43.83V6.17Z"/><path class="cls-1" d="M29.71,22.14l-1.06,5.65h4V29.1H28.43l-1.31,7H25.65l1.31-7H21.47l-1.31,7h-1.5l1.31-7H16.3V27.79h3.9l1.05-5.65H17.58V20.83H21.5l1.28-6.89h1.5L23,20.83h5.5l1.27-6.89h1.47L30,20.83H33.7v1.31Zm-1.47,0H22.75L21.7,27.79h5.49Z"/></g></svg>