<?xml version="1.0" encoding="utf-8"?>
<!-- Generator: Adobe Illustrator 26.0.2, SVG Export Plug-In . SVG Version: 6.00 Build 0)  -->
<svg version="1.1" id="Layer_2" xmlns="http://www.w3.org/2000/svg" xmlns:xlink="http://www.w3.org/1999/xlink" x="0px" y="0px"
	 viewBox="0 0 1343.8 390.6" style="enable-background:new 0 0 1343.8 390.6;" xml:space="preserve">
<style type="text/css">
	.st0{fill:#FFFFFF;}
</style>
<g>
</g>
<g>
	<path class="st0" d="M206.2,250.7h-172V134.2h172V250.7z M35.5,249.5H205v-114H35.5V249.5z"/>
</g>
<g>
	<path class="st0" d="M66.8,182.3h-8.1v-1l0.6-0.1c1.1-0.1,1.7-0.9,1.7-2.5v-16.4c0-1.5-0.6-2.3-1.7-2.5l-0.6-0.1v-1h7.5
		c3.6,0,6,2.3,6,5.7c0,2.2-1.2,4.1-3,5.1c2.5,0.9,3.9,3.1,3.9,6.1C73.1,179.7,70.6,182.3,66.8,182.3z M69.5,164.9
		c0-2.9-1.3-4.6-3.7-4.6h-3.2v0.7h0.9v8.5H66C68.2,169.4,69.5,167.7,69.5,164.9z M70.5,175.7c0-3.2-1.5-5.1-4-5.1h-3v9.7h-0.9v0.7
		h3.7C68.9,180.9,70.5,179,70.5,175.7z"/>
	<path class="st0" d="M80.4,181.3l0.6,0.1v1h-7.1v-1l0.6-0.1c1.1-0.1,1.7-0.9,1.7-2.5v-16.4c0-1.5-0.6-2.3-1.7-2.5l-0.6-0.1v-1H81v1
		l-0.6,0.1c-1.1,0.1-1.7,0.9-1.7,2.5v16.4C78.7,180.3,79.3,181.1,80.4,181.3z"/>
	<path class="st0" d="M96.7,158.9l0.3,7.3h-0.8l-0.4-1.9c-0.6-2.9-1.7-4.1-3.6-4.1h-2.3v0.7h0.9v17.8c0,1.5,0.6,2.3,1.7,2.5l0.6,0.1
		v1H86v-1l0.6-0.1c1.1-0.1,1.7-0.9,1.7-2.5v-18.5h-1.5c-1.9,0-3,1.2-3.6,4.1l-0.4,1.9H82l0.3-7.3H96.7z"/>
	<path class="st0" d="M98.1,170.9c0-7,3.5-12.4,8-12.4c2.2,0,3.9,1.3,5,3.9v-1.2c-0.1-0.2-0.6-1-0.8-1.2l1.9-1.4v8.2h-0.8l-0.5-1.5
		c-1-3.4-2.7-5.2-4.8-5.2c-3.1,0-5.2,4.1-5.2,10.3c0,6.1,2.3,10.4,5.6,10.4c2.5,0,4.2-1.6,5.8-5.3l0.1,0.1c-0.9,4.3-3.4,7-6.3,7
		C101.5,182.6,98.1,177.6,98.1,170.9z"/>
	<path class="st0" d="M117.6,171.6h0.9v7.2c0,1.5,0.6,2.3,1.7,2.5l0.6,0.1v1h-7.1v-1l0.6-0.1c1.1-0.1,1.7-0.9,1.7-2.5v-16.4
		c0-1.5-0.6-2.3-1.7-2.5l-0.6-0.1v-1h7.1v1l-0.6,0.1c-1.1,0.1-1.7,0.9-1.7,2.5v7.3h7.9v-7.3c0-1.5-0.6-2.3-1.7-2.5l-0.6-0.1v-1h7.1
		v1l-0.6,0.1c-1.1,0.1-1.7,0.9-1.7,2.5v16.4c0,1.5,0.6,2.3,1.7,2.5l0.6,0.1v1h-7.1v-1l0.6-0.1c1.1-0.1,1.7-0.9,1.7-2.5v-7.2h0.9
		v-0.7h-9.6V171.6z"/>
	<path class="st0" d="M134.7,174.6v-12.2c0-1.5-0.6-2.3-1.7-2.5l-0.6-0.1v-1h7v1l-0.6,0.1c-1.1,0.1-1.7,0.9-1.7,2.5v11.5
		c0,4,1.7,6.6,4.3,6.6c2.9,0,4.7-3.1,4.7-8.2v-9.6c0-1.7-0.6-2.6-1.7-2.8l-0.6-0.1v-1h5.8v1l-0.6,0.1c-1.2,0.2-1.7,1.1-1.7,2.8v10.1
		c0,6-2.6,9.8-6.7,9.8C137.1,182.7,134.7,179.5,134.7,174.6z"/>
	<path class="st0" d="M165.5,158.9l0.3,7.3H165l-0.4-1.9c-0.6-2.9-1.7-4.1-3.6-4.1h-2.3v0.7h0.9v17.8c0,1.5,0.6,2.3,1.7,2.5l0.6,0.1
		v1h-7.1v-1l0.6-0.1c1.1-0.1,1.7-0.9,1.7-2.5v-18.5h-1.5c-1.9,0-3,1.2-3.6,4.1l-0.4,1.9h-0.8l0.3-7.3H165.5z"/>
	<path class="st0" d="M170.8,180.2v0.7h5.4c2,0,3.2-1.5,3.8-4.8l0.4-2.2h0.8l-0.8,8.3h-13.6v-1l0.6-0.1c1.1-0.1,1.7-0.9,1.7-2.5
		v-16.4c0-1.5-0.6-2.3-1.7-2.5l-0.6-0.1v-1h13.7l0.3,8.1h-0.8l-0.5-2.6c-0.6-2.9-1.6-4.1-3.5-4.1h-5.2v0.7h0.9v8.8h2.5
		c1.2,0,1.8-0.7,2.1-2.7l0.2-1.1h0.8v8.8h-0.8l-0.2-1.1c-0.3-2-0.9-2.7-2.1-2.7h-2.5v9.3H170.8z"/>
	<path class="st0" d="M84.6,216.4l-0.3,1.1l0.3,0.8l4.6-15c0.6-2,0.3-3.2-1-3.4l-0.4-0.1v-1h4.9v0.9c-0.9,0.3-1.6,1.3-2.1,2.8
		l-6.4,20.8h0l-6.5-21c-0.5-1.5-1-2.2-2-2.5V199h6v1l-0.4,0.1c-1,0.1-1.3,1.1-0.9,2.4L84.6,216.4z"/>
	<path class="st0" d="M100.3,221.3l0.6,0.1v1h-7.1v-1l0.6-0.1c1.1-0.1,1.7-0.9,1.7-2.5v-16.4c0-1.5-0.6-2.3-1.7-2.5l-0.6-0.1v-1h7.1
		v1l-0.6,0.1c-1.1,0.1-1.7,0.9-1.7,2.5v16.4C98.5,220.4,99.1,221.2,100.3,221.3z"/>
	<path class="st0" d="M102,221.4l0.6-0.1c1.1-0.1,1.7-0.9,1.7-2.5v-16.4c0-1.5-0.6-2.3-1.7-2.5l-0.6-0.1v-1h7.2
		c5.3,0,9.1,4.9,9.1,11.5c0,6.7-4,11.9-9.2,11.9H102V221.4z M108.8,221c4.1,0,6.6-4,6.6-10.4c0-6.1-2.6-10.3-6.4-10.3h-3.1v0.7h0.9
		v19.3h-0.9v0.7H108.8z"/>
	<path class="st0" d="M122.8,220.3v0.7h5.4c2,0,3.2-1.5,3.8-4.8l0.4-2.2h0.8l-0.8,8.3h-13.6v-1l0.6-0.1c1.1-0.1,1.7-0.9,1.7-2.5
		v-16.4c0-1.5-0.6-2.3-1.7-2.5l-0.6-0.1v-1h13.7l0.3,8.2h-0.8l-0.5-2.6c-0.6-2.9-1.6-4.1-3.5-4.1h-5.2v0.7h0.9v8.8h2.5
		c1.2,0,1.8-0.7,2.1-2.7l0.2-1.1h0.8v8.8h-0.8l-0.2-1.1c-0.3-2-0.9-2.7-2.1-2.7h-2.5v9.3H122.8z"/>
	<path class="st0" d="M134.9,210.8c0-7,3.6-12.2,8.1-12.2c4.4,0,8,4.9,8,11.9c0,7-3.6,12.2-8.1,12.2
		C138.5,222.7,134.9,217.7,134.9,210.8z M148.2,211.3c0-7-2.3-11.3-5.5-11.3c-2.9,0-5,3.8-5,10c0,7,2.3,11.3,5.5,11.3
		C146,221.3,148.2,217.4,148.2,211.3z"/>
	<path class="st0" d="M153.6,219.1l0,1.1c0.1,0.1,0.6,0.8,0.7,1l-1.8,1.5l-0.1-8.1h0.8l0.6,1.9c1.1,3.2,2.6,4.8,4.6,4.8
		c2.1,0,3.5-1.6,3.5-4.2c0-1.8-0.9-3.3-2.5-4.1l-4.1-2.3c-1.9-1.1-2.9-2.9-2.9-5.4c0-3.9,2-6.5,4.9-6.5c2,0,3.6,1.4,4.6,3.9l0-1.2
		c-0.1-0.3-0.6-1.1-0.7-1.2l1.7-1.4l0.1,7.8h-0.8l-0.4-1.4c-1.1-3.4-2.4-5-4.4-5c-1.7,0-2.8,1.4-2.8,3.6c0,1.6,0.8,3,2.1,3.7
		l4.4,2.4c1.9,1.1,3,3.1,3,5.8c0,4.2-2.3,7-5.7,7C156.6,222.7,155,221.5,153.6,219.1z"/>
</g>
<g>
	<path class="st0" d="M51.6,41.8c0.4,0,0.8-0.1,1.1-0.2v1.8c-0.5,0.1-0.9,0.1-1.5,0.1c-2,0-3.5-1-4.2-2.6c-0.3,0-0.6,0-0.8,0
		c-4.4,0-7.2-3.2-7.2-8.3c0-5.2,2.8-8.3,7.2-8.3c4.4,0,7.2,3.1,7.2,8.3c0,4-1.7,6.7-4.5,7.8C49.9,41.8,50.9,41.8,51.6,41.8z
		 M46.2,39.4c3.2,0,5-2.5,5-6.5c0-4-1.8-6.5-5-6.5c-3.2,0-5,2.4-5,6.5C41.2,36.8,43,39.4,46.2,39.4z"/>
	<path class="st0" d="M56.1,36.7v-7.1h1.9v6.9c0,1.9,0.8,2.9,2.3,2.9c1.8,0,3-1.5,3-3.8v-6h1.9v11.1h-1.8v-2.1
		C62.8,40,61.4,41,59.9,41C57.1,41,56.1,39.3,56.1,36.7z"/>
	<path class="st0" d="M77.9,35.8H70c0,2.2,1.3,3.6,3.3,3.6c1.4,0,2.5-0.8,3-2.1l1.6,0.7C77,40,75.4,41,73.2,41c-3.2,0-5.1-2-5.1-5.7
		c0-3.7,1.9-6,5-6c3,0,4.7,1.7,4.7,5V35.8z M76,34c0-2-1-3.1-2.9-3.1c-2,0-3.1,1.3-3.1,3.4h6V34z"/>
	<path class="st0" d="M86.1,29.4c0.1,0,0.3,0,0.4,0v1.8h-0.1c-1.2,0-1.9,0.3-2.4,0.9c-1.1,1.1-1.1,2.6-1.1,3.9v4.8H81V29.6h1.8v2.5
		C83.3,30.6,84.4,29.4,86.1,29.4z"/>
	<path class="st0" d="M88.7,45.1v-1.7c0.3,0,0.6,0,0.8,0c1.3,0,2-0.6,2.5-2.1l0.3-0.8l-4.4-11H90l2.8,7.7c0.2,0.6,0.3,1,0.4,1.3h0
		c0.1-0.3,0.2-0.8,0.4-1.3l2.6-7.7h2l-4.3,11.8c-1,2.8-2.4,3.8-4.2,3.8C89.3,45.2,89,45.2,88.7,45.1z"/>
	<path class="st0" d="M105.9,25h5.2c4.5,0,7.5,3.2,7.5,7.9c0,4.6-2.9,7.9-7.5,7.9h-5.1V25z M111,39c3.4,0,5.3-2.8,5.3-6.1
		c0-3.5-1.9-6.1-5.3-6.1h-3V39H111z"/>
	<path class="st0" d="M130.4,35.8h-7.9c0,2.2,1.3,3.6,3.3,3.6c1.4,0,2.5-0.8,3-2.1l1.6,0.7c-0.8,2-2.4,3.1-4.6,3.1
		c-3.2,0-5.1-2-5.1-5.7c0-3.7,1.9-6,5-6c3,0,4.7,1.7,4.7,5V35.8z M128.5,34c0-2-1-3.1-2.9-3.1c-2,0-3.1,1.3-3.1,3.4h6V34z"/>
	<path class="st0" d="M138.3,31.2h-2.8v9.6h-1.9v-9.6h-2v-1.6h2v-1.8c0-2,1.3-3.4,3.2-3.4c0.5,0,1,0,1.4,0.2v1.6
		c-0.4-0.1-0.8-0.1-1.2-0.1c-1.1,0-1.6,0.6-1.6,2v1.5h2.8V31.2z M140.7,25.2h2.2v2.4h-2.2V25.2z M140.9,29.6h1.9v11.1h-1.9V29.6z"/>
	<path class="st0" d="M146.8,29.6h1.8v2.2c0.7-1.7,2-2.5,3.7-2.5c2.4,0,3.7,1.5,3.7,4.5v6.9h-1.9V34c0-2-0.8-3-2.4-3
		c-1.8,0-3,1.5-3,4v5.8h-1.9V29.6z"/>
	<path class="st0" d="M159.5,25.2h2.2v2.4h-2.2V25.2z M159.6,29.6h1.9v11.1h-1.9V29.6z"/>
	<path class="st0" d="M163.9,29.6h2.1v-2.9l1.9-0.8v3.7h2.8v1.6h-2.8v6.2c0,1.3,0.5,1.8,1.6,1.8c0.5,0,0.8-0.1,1.2-0.2v1.7
		c-0.5,0.1-0.9,0.2-1.6,0.2c-2.4,0-3-1.5-3-3.5v-6.2h-2.1V29.6z"/>
	<path class="st0" d="M173.2,25.2h2.2v2.4h-2.2V25.2z M173.4,29.6h1.9v11.1h-1.9V29.6z"/>
	<path class="st0" d="M178.3,35.2c0-3.6,2-5.8,5.2-5.8c3.1,0,5.2,2.2,5.2,5.8c0,3.6-2,5.8-5.2,5.8C180.3,41,178.3,38.8,178.3,35.2z
		 M186.6,35.2c0-2.8-1.2-4.2-3.2-4.2c-2,0-3.2,1.4-3.2,4.2c0,2.8,1.2,4.2,3.2,4.2C185.5,39.4,186.6,38,186.6,35.2z"/>
	<path class="st0" d="M191.6,29.6h1.8v2.2c0.7-1.7,2-2.5,3.7-2.5c2.4,0,3.7,1.5,3.7,4.5v6.9H199V34c0-2-0.8-3-2.4-3
		c-1.8,0-3,1.5-3,4v5.8h-1.9V29.6z"/>
</g>
<g>
	<g>
		<path class="st0" d="M259,200.5l-1.2-0.4c1.2-3.3,3.6-5.9,6.9-7.6c-3.2-1.5-5.6-4.1-6.9-7.7l1.2-0.4c1.4,3.7,3.9,6.2,7.5,7.5
			l0,1.1C262.7,194.7,260.3,197.1,259,200.5z"/>
	</g>
	<g>
		<rect x="205.6" y="191.9" class="st0" width="60.7" height="1.2"/>
	</g>
</g>
<g>
	<path class="st0" d="M450.8,250.7H265.5V134.2h185.3V250.7z M266.8,249.5h182.8v-114H266.8V249.5z"/>
</g>
<g>
	<path class="st0" d="M282.5,196.8c0,1.5,0.6,2.3,1.7,2.5l0.6,0.1v1h-7.2v-1l0.6-0.1c1.1-0.1,1.7-0.9,1.7-2.5v-16.4
		c0-1.5-0.6-2.3-1.7-2.5l-0.6-0.1v-1h8c3.5,0,5.8,2.3,5.8,5.8c0,2.8-1.9,5.3-3.9,5.8c1.2,0.6,1.9,1.6,2.3,3.1l1.8,5.8
		c0.3,1.1,0.9,1.6,1.9,1.8l0.3,0.1v0.9h-4.3l-2.4-8.8c-0.5-1.8-1.1-2.5-2.3-2.5h-3.2v0.7h0.9V196.8z M285.3,187.9
		c2.1,0,3.5-1.9,3.5-4.8c0-2.9-1.3-4.7-3.5-4.7h-3.6v0.7h0.9v8.9H285.3z"/>
	<path class="st0" d="M298.9,198.3v0.7h5.5c2,0,3.2-1.5,3.9-4.8l0.4-2.2h0.8l-0.8,8.3h-13.8v-1l0.6-0.1c1.1-0.1,1.7-0.9,1.7-2.5
		v-16.4c0-1.5-0.6-2.3-1.7-2.5l-0.6-0.1v-1h13.9l0.3,8.2h-0.8l-0.5-2.6c-0.6-2.9-1.6-4.1-3.5-4.1h-5.3v0.7h0.9v8.8h2.6
		c1.2,0,1.8-0.7,2.1-2.7l0.2-1.1h0.8v8.8h-0.8l-0.2-1.1c-0.3-2-0.9-2.7-2.1-2.7h-2.6v9.3H298.9z"/>
	<path class="st0" d="M317.3,199.3l0.6,0.1v1h-7.2v-1l0.6-0.1c1.1-0.1,1.7-0.9,1.7-2.5v-16.4c0-1.5-0.6-2.3-1.7-2.5l-0.6-0.1v-1
		h13.9l0.3,8.2h-0.8l-0.5-2.6c-0.6-2.9-1.6-4.1-3.5-4.1h-5.3v0.7h0.9v9h2.7c1.2,0,1.8-0.7,2.1-2.7l0.2-1.1h0.8v8.8h-0.8l-0.2-1.1
		c-0.3-2-0.9-2.7-2.1-2.7h-3.6v0.7h0.9v7C315.6,198.4,316.1,199.2,317.3,199.3z"/>
	<path class="st0" d="M332.8,199.3l0.6,0.1v1h-7.2v-1l0.6-0.1c1.1-0.1,1.7-0.9,1.7-2.5v-16.4c0-1.5-0.6-2.3-1.7-2.5l-0.6-0.1v-1h7.2
		v1l-0.6,0.1c-1.1,0.1-1.7,0.9-1.7,2.5v16.4C331.1,198.4,331.7,199.2,332.8,199.3z"/>
	<path class="st0" d="M349.9,200.7l-11.8-19.4v15.2c0,1.7,0.6,2.6,1.8,2.8l0.6,0.1v1h-5.9v-1l0.6-0.1c1.2-0.2,1.7-1.1,1.7-2.8v-16.8
		l-1.9-2.7h3.9l9.3,15.1v1.2l0.5,0.7v-13.2c0-1.7-0.6-2.6-1.8-2.8l-0.6-0.1v-1h5.9v1l-0.6,0.1c-1.2,0.2-1.7,1.1-1.7,2.8V200.7z"/>
	<path class="st0" d="M357.4,198.3v0.7h5.5c2,0,3.2-1.5,3.9-4.8l0.4-2.2h0.8l-0.8,8.3h-13.8v-1l0.6-0.1c1.1-0.1,1.7-0.9,1.7-2.5
		v-16.4c0-1.5-0.6-2.3-1.7-2.5l-0.6-0.1v-1h13.9l0.3,8.2h-0.8l-0.5-2.6c-0.6-2.9-1.6-4.1-3.5-4.1h-5.3v0.7h0.9v8.8h2.6
		c1.2,0,1.8-0.7,2.1-2.7l0.2-1.1h0.8v8.8h-0.8l-0.2-1.1c-0.3-2-0.9-2.7-2.1-2.7h-2.6v9.3H357.4z"/>
	<path class="st0" d="M375.6,199.4l0.6-0.1c1.1-0.1,1.7-0.9,1.7-2.5v-16.4c0-1.5-0.6-2.3-1.7-2.5l-0.6-0.1v-1h7.3
		c5.3,0,9.2,4.9,9.2,11.5c0,6.7-4,11.9-9.3,11.9h-7.2V199.4z M382.5,199c4.1,0,6.7-4,6.7-10.4c0-6.1-2.6-10.3-6.5-10.3h-3.2v0.7h0.9
		v19.3h-0.9v0.7H382.5z"/>
	<path class="st0" d="M403.6,193.1l-0.2-0.7H396l-1.1,3.5c-0.7,2.2-0.2,3.2,1,3.4l0.4,0.1v1h-5v-0.9c0.8-0.3,1.6-1.1,2.1-2.8
		l6.5-20.8h0l6.6,21c0.5,1.5,1,2.2,2,2.5v0.9h-6.1v-1l0.4-0.1c0.9-0.1,1.4-0.9,1-2.4l-1.2-3.8H403.6z M396.4,191.3h5.8l-2.9-9.5
		L396.4,191.3z"/>
	<path class="st0" d="M422.5,176.9l0.3,7.3H422l-0.4-1.9c-0.6-2.9-1.7-4.1-3.6-4.1h-2.4v0.7h0.9v17.8c0,1.5,0.6,2.3,1.7,2.5l0.6,0.1
		v1h-7.2v-1l0.6-0.1c1.1-0.1,1.7-0.9,1.7-2.5v-18.5h-1.5c-1.9,0-3,1.2-3.6,4.1l-0.4,1.9h-0.8l0.3-7.3H422.5z"/>
	<path class="st0" d="M434,193.1l-0.2-0.7h-7.4l-1.1,3.5c-0.7,2.2-0.2,3.2,1,3.4l0.4,0.1v1h-5v-0.9c0.8-0.3,1.6-1.1,2.1-2.8
		l6.5-20.8h0l6.6,21c0.5,1.5,1,2.2,2,2.5v0.9H433v-1l0.4-0.1c0.9-0.1,1.4-0.9,1-2.4l-1.2-3.8H434z M426.8,191.3h5.8l-2.9-9.5
		L426.8,191.3z"/>
</g>
<g>
	<path class="st0" d="M568.1,181.3l0.6-0.1c1.1-0.1,1.7-0.9,1.7-2.5v-16.4c0-1.5-0.6-2.3-1.7-2.5l-0.6-0.1v-1h7.2
		c5.3,0,9.1,4.9,9.1,11.5c0,6.7-4,11.9-9.2,11.9h-7.1V181.3z M575,180.9c4.1,0,6.6-4,6.6-10.4c0-6.1-2.6-10.3-6.4-10.3h-3.1v0.7h0.9
		v19.3h-0.9v0.7H575z"/>
	<path class="st0" d="M585.9,170.7c0-7,3.6-12.2,8.1-12.2c4.4,0,8,4.9,8,11.9c0,7-3.6,12.2-8.1,12.2
		C589.5,182.7,585.9,177.7,585.9,170.7z M599.1,171.2c0-7-2.3-11.3-5.5-11.3c-2.9,0-5,3.8-5,10c0,7,2.3,11.3,5.5,11.3
		C597,181.2,599.1,177.4,599.1,171.2z"/>
	<path class="st0" d="M617.8,176.9l0.3,0.9l3.9-14.5c0.6-2.1,0.3-3.2-1-3.4l-0.4-0.1v-1h4.9v0.9c-0.9,0.4-1.7,1.3-2,2.8l-5.8,20.9h0
		l-3.9-14.6l-4.2,14.6h0l-6.1-21.1c-0.4-1.5-1-2.2-2-2.5v-0.9h6v1l-0.4,0.1c-1,0.2-1.3,1-0.9,2.4l3.9,13.8l-0.3,1.2l0.3,0.8
		l3.2-11.3l-1.3-4.5c-0.4-1.5-1-2.2-2-2.5v-0.9h6v1l-0.4,0.1c-1,0.2-1.3,1-0.9,2.4l3.6,13.5L617.8,176.9z"/>
	<path class="st0" d="M641.6,182.6L630,163.2v15.2c0,1.7,0.6,2.6,1.7,2.8l0.6,0.1v1h-5.8v-1l0.6-0.1c1.2-0.2,1.7-1.1,1.7-2.8v-16.8
		l-1.9-2.7h3.9l9.2,15.1v1.2l0.5,0.7v-13.2c0-1.7-0.6-2.6-1.7-2.8l-0.6-0.1v-1h5.8v1l-0.6,0.1c-1.2,0.2-1.7,1.1-1.7,2.8V182.6z"/>
	<path class="st0" d="M645.1,182.3v-1l0.6-0.1c1.1-0.1,1.7-0.9,1.7-2.5v-16.4c0-1.5-0.6-2.3-1.7-2.5l-0.6-0.1v-1h7.1v1l-0.6,0.1
		c-1.1,0.1-1.7,0.9-1.7,2.5v17.8H649v0.7h5.4c2,0,3.2-1.5,3.8-4.9l0.4-2h0.8l-0.8,8.3H645.1z"/>
	<path class="st0" d="M660.8,170.7c0-7,3.6-12.2,8.1-12.2c4.4,0,8,4.9,8,11.9c0,7-3.6,12.2-8.1,12.2
		C664.3,182.7,660.8,177.7,660.8,170.7z M674,171.2c0-7-2.3-11.3-5.5-11.3c-2.9,0-5,3.8-5,10c0,7,2.3,11.3,5.5,11.3
		C671.9,181.2,674,177.4,674,171.2z"/>
	<path class="st0" d="M688.3,175.1l-0.2-0.7h-7.3l-1.1,3.5c-0.7,2.2-0.2,3.2,1,3.4l0.4,0.1v1h-4.9v-0.9c0.8-0.3,1.6-1.1,2.1-2.8
		l6.4-20.8h0l6.5,21c0.5,1.5,1,2.2,2,2.5v0.9h-6v-1l0.4-0.1c0.9-0.1,1.4-0.9,0.9-2.4l-1.2-3.8H688.3z M681.2,173.2h5.7l-2.9-9.5
		L681.2,173.2z"/>
	<path class="st0" d="M694.3,181.3l0.6-0.1c1.1-0.1,1.7-0.9,1.7-2.5v-16.4c0-1.5-0.6-2.3-1.7-2.5l-0.6-0.1v-1h7.2
		c5.3,0,9.1,4.9,9.1,11.5c0,6.7-4,11.9-9.2,11.9h-7.1V181.3z M701.2,180.9c4.1,0,6.6-4,6.6-10.4c0-6.1-2.6-10.3-6.4-10.3h-3.1v0.7
		h0.9v19.3h-0.9v0.7H701.2z"/>
	<path class="st0" d="M531.1,216.4l-0.3,1.1l0.3,0.8l4.6-15c0.6-2,0.3-3.2-1-3.4l-0.4-0.1v-1h4.9v0.9c-0.9,0.3-1.6,1.3-2.1,2.8
		l-6.4,20.8h0l-6.5-21c-0.5-1.5-1-2.2-2-2.5V199h6v1l-0.4,0.1c-1,0.1-1.3,1.1-0.9,2.4L531.1,216.4z"/>
	<path class="st0" d="M546.7,221.3l0.6,0.1v1h-7.1v-1l0.6-0.1c1.1-0.1,1.7-0.9,1.7-2.5v-16.4c0-1.5-0.6-2.3-1.7-2.5l-0.6-0.1v-1h7.1
		v1l-0.6,0.1c-1.1,0.1-1.7,0.9-1.7,2.5v16.4C545,220.4,545.6,221.2,546.7,221.3z"/>
	<path class="st0" d="M548.5,221.4l0.6-0.1c1.1-0.1,1.7-0.9,1.7-2.5v-16.4c0-1.5-0.6-2.3-1.7-2.5l-0.6-0.1v-1h7.2
		c5.3,0,9.1,4.9,9.1,11.5c0,6.7-4,11.9-9.2,11.9h-7.1V221.4z M555.3,221c4.1,0,6.6-4,6.6-10.4c0-6.1-2.6-10.3-6.4-10.3h-3.1v0.7h0.9
		v19.3h-0.9v0.7H555.3z"/>
	<path class="st0" d="M569.3,220.3v0.7h5.4c2,0,3.2-1.5,3.8-4.8l0.4-2.2h0.8l-0.8,8.3h-13.6v-1l0.6-0.1c1.1-0.1,1.7-0.9,1.7-2.5
		v-16.4c0-1.5-0.6-2.3-1.7-2.5l-0.6-0.1v-1H579l0.3,8.2h-0.8l-0.5-2.6c-0.6-2.9-1.6-4.1-3.5-4.1h-5.2v0.7h0.9v8.8h2.5
		c1.2,0,1.8-0.7,2.1-2.7l0.2-1.1h0.8v8.8H575l-0.2-1.1c-0.3-2-0.9-2.7-2.1-2.7h-2.5v9.3H569.3z"/>
	<path class="st0" d="M581.4,210.8c0-7,3.6-12.2,8.1-12.2c4.4,0,8,4.9,8,11.9c0,7-3.6,12.2-8.1,12.2
		C585,222.7,581.4,217.7,581.4,210.8z M594.6,211.3c0-7-2.3-11.3-5.5-11.3c-2.9,0-5,3.8-5,10c0,7,2.3,11.3,5.5,11.3
		C592.5,221.3,594.6,217.4,594.6,211.3z"/>
	<path class="st0" d="M600.1,219.1l0,1.1c0.1,0.1,0.6,0.8,0.7,1l-1.8,1.5l-0.1-8.1h0.8l0.6,1.9c1.1,3.2,2.6,4.8,4.6,4.8
		c2.1,0,3.5-1.6,3.5-4.2c0-1.8-0.9-3.3-2.5-4.1l-4.1-2.3c-1.9-1.1-2.9-2.9-2.9-5.4c0-3.9,2-6.5,4.9-6.5c2,0,3.6,1.4,4.6,3.9l0-1.2
		c-0.1-0.3-0.6-1.1-0.7-1.2l1.7-1.4l0.1,7.8h-0.8l-0.4-1.4c-1.1-3.4-2.4-5-4.4-5c-1.7,0-2.8,1.4-2.8,3.6c0,1.6,0.8,3,2.1,3.7
		l4.4,2.4c1.9,1.1,3,3.1,3,5.8c0,4.2-2.3,7-5.7,7C603.1,222.7,601.5,221.5,600.1,219.1z"/>
	<path class="st0" d="M623.1,222.7c-3.1,0-5.2-2.6-5.2-6.2c0-2.6,0.7-4.3,4.2-7c-1-2.3-1.4-3.7-1.4-5.2c0-2.8,1.5-5.5,4.5-5.5
		c1.9,0,3.4,1.8,3.4,4c0,1.9-0.8,3.2-2.9,4.8l-1.9,1.5l0.3,0.6l0.6-0.5c1.7,3.3,3.3,6.1,4.2,7.5c0.3-0.7,0.7-1.7,1.1-3l0.5-1.4
		c0.5-1.6,0.4-2.7-0.6-2.8l-0.6-0.1v-0.9h4.7v0.8c-1,0.3-1.6,1-2.1,2.2l-1.1,2.8c-0.4,1.2-0.9,2.2-1.4,3.1c1.5,2.2,2.6,3.1,3.9,3.1
		c0.5,0,1.2-0.1,1.6-0.3c-0.8,1.4-2.2,2.3-3.5,2.3c-1.2,0-2.1-0.5-3.3-2l0.5-0.8l-0.4-0.5C626.9,221.5,625.2,222.7,623.1,222.7z
		 M622.3,210c-1.4,1.3-2.1,3.2-2.1,5.6c0,3.3,1.5,5.5,3.7,5.5c1.7,0,2.6-0.9,3.4-1.8C625.8,217,623.2,211.8,622.3,210z M624,207.9
		c1.7-1.1,2.5-2.8,2.5-4.9c0-1.8-0.8-3.1-1.9-3.1c-1.2,0-2,1.4-2,3.4C622.7,204.6,623,205.8,624,207.9z"/>
	<path class="st0" d="M645.3,211.7h0.9v7.2c0,1.5,0.6,2.3,1.7,2.5l0.6,0.1v1h-7.1v-1l0.6-0.1c1.1-0.1,1.7-0.9,1.7-2.5v-16.4
		c0-1.5-0.6-2.3-1.7-2.5l-0.6-0.1v-1h7.1v1l-0.6,0.1c-1.1,0.1-1.7,0.9-1.7,2.5v7.3h7.9v-7.3c0-1.5-0.6-2.3-1.7-2.5l-0.6-0.1v-1h7.1
		v1l-0.6,0.1c-1.1,0.1-1.7,0.9-1.7,2.5v16.4c0,1.5,0.6,2.3,1.7,2.5l0.6,0.1v1h-7.1v-1l0.6-0.1c1.1-0.1,1.7-0.9,1.7-2.5v-7.2h0.9V211
		h-9.6V211.7z"/>
	<path class="st0" d="M672,215.1l-0.2-0.7h-7.3l-1.1,3.5c-0.7,2.2-0.2,3.2,1,3.4l0.4,0.1v1h-4.9v-0.9c0.8-0.3,1.6-1.1,2.1-2.8
		l6.4-20.8h0l6.5,21c0.5,1.5,1,2.2,2,2.5v0.9h-6v-1l0.4-0.1c0.9-0.1,1.4-0.9,0.9-2.4l-1.2-3.8H672z M664.9,213.3h5.7l-2.9-9.5
		L664.9,213.3z"/>
	<path class="st0" d="M679.2,219.1l0,1.1c0.1,0.1,0.6,0.8,0.7,1l-1.8,1.5l-0.1-8.1h0.8l0.6,1.9c1.1,3.2,2.6,4.8,4.6,4.8
		c2.1,0,3.5-1.6,3.5-4.2c0-1.8-0.9-3.3-2.5-4.1l-4.1-2.3c-1.9-1.1-2.9-2.9-2.9-5.4c0-3.9,2-6.5,4.9-6.5c2,0,3.6,1.4,4.6,3.9l0-1.2
		c-0.1-0.3-0.6-1.1-0.7-1.2l1.7-1.4l0.1,7.8H688l-0.4-1.4c-1.1-3.4-2.4-5-4.4-5c-1.7,0-2.8,1.4-2.8,3.6c0,1.6,0.8,3,2.1,3.7l4.4,2.4
		c1.9,1.1,3,3.1,3,5.8c0,4.2-2.3,7-5.7,7C682.2,222.7,680.5,221.5,679.2,219.1z"/>
	<path class="st0" d="M694.5,211.7h0.9v7.2c0,1.5,0.6,2.3,1.7,2.5l0.6,0.1v1h-7.1v-1l0.6-0.1c1.1-0.1,1.7-0.9,1.7-2.5v-16.4
		c0-1.5-0.6-2.3-1.7-2.5l-0.6-0.1v-1h7.1v1l-0.6,0.1c-1.1,0.1-1.7,0.9-1.7,2.5v7.3h7.9v-7.3c0-1.5-0.6-2.3-1.7-2.5l-0.6-0.1v-1h7.1
		v1l-0.6,0.1c-1.1,0.1-1.7,0.9-1.7,2.5v16.4c0,1.5,0.6,2.3,1.7,2.5l0.6,0.1v1H701v-1l0.6-0.1c1.1-0.1,1.7-0.9,1.7-2.5v-7.2h0.9V211
		h-9.6V211.7z"/>
	<path class="st0" d="M723.9,199l0.3,7.3h-0.8l-0.4-1.9c-0.6-2.9-1.7-4.1-3.6-4.1h-2.3v0.7h0.9v17.8c0,1.5,0.6,2.3,1.7,2.5l0.6,0.1
		v1h-7.1v-1l0.6-0.1c1.1-0.1,1.7-0.9,1.7-2.5v-18.5h-1.5c-1.9,0-3,1.2-3.6,4.1l-0.4,1.9h-0.8l0.3-7.3H723.9z"/>
	<path class="st0" d="M735.2,215.1l-0.2-0.7h-7.3l-1.1,3.5c-0.7,2.2-0.2,3.2,1,3.4l0.4,0.1v1h-4.9v-0.9c0.8-0.3,1.6-1.1,2.1-2.8
		l6.4-20.8h0l6.5,21c0.5,1.5,1,2.2,2,2.5v0.9h-6v-1l0.4-0.1c0.9-0.1,1.4-0.9,0.9-2.4l-1.2-3.8H735.2z M728.1,213.3h5.7l-2.9-9.5
		L728.1,213.3z"/>
	<path class="st0" d="M739.7,211c0-7,3.5-12.3,8.2-12.3c2.2,0,4,1.3,5.2,3.8v-1.2c0-0.2-0.6-1-0.7-1.2l1.8-1.4v8.2h-0.8l-0.5-1.5
		c-1-3.4-2.8-5.2-5-5.2c-3.2,0-5.3,4.1-5.3,10.3c0,6.2,2.4,10.4,5.9,10.4c1.6,0,3-0.8,4.7-2.5v-0.8l-0.9,0.9v-3.8
		c0-1.5-0.6-2.3-1.8-2.5l-0.6-0.1v-1h6.9v1l-0.6,0.1c-1.1,0.1-1.6,0.9-1.6,2.5v8.1l-1.7-2.2c-1.4,1.4-3.2,2.2-5.2,2.2
		C743,222.7,739.7,217.7,739.7,211z"/>
</g>
<g>
	<path class="st0" d="M892.7,179l0,1.1c0.1,0.1,0.6,0.8,0.7,1l-1.8,1.5l-0.1-8.2h0.8l0.6,1.9c1.1,3.2,2.6,4.8,4.6,4.8
		c2.1,0,3.5-1.6,3.5-4.2c0-1.8-0.9-3.3-2.5-4.1l-4.1-2.3c-1.9-1.1-2.9-2.9-2.9-5.4c0-3.9,2-6.5,4.9-6.5c2,0,3.6,1.4,4.6,3.9l0-1.2
		c-0.1-0.3-0.6-1.1-0.7-1.2l1.7-1.4l0.1,7.8h-0.8L901,165c-1.1-3.4-2.4-5-4.4-5c-1.7,0-2.8,1.4-2.8,3.6c0,1.6,0.8,3,2.1,3.7l4.4,2.4
		c1.9,1.1,3,3.1,3,5.8c0,4.2-2.3,7-5.7,7C895.7,182.7,894.1,181.5,892.7,179z"/>
	<path class="st0" d="M918.8,158.9l0.3,7.3h-0.8l-0.4-1.9c-0.6-2.9-1.7-4.1-3.6-4.1H912v0.7h0.9v17.8c0,1.5,0.6,2.3,1.7,2.5l0.6,0.1
		v1H908v-1l0.6-0.1c1.1-0.1,1.7-0.9,1.7-2.5v-18.5h-1.5c-1.9,0-3,1.2-3.6,4.1l-0.4,1.9h-0.8l0.3-7.3H918.8z"/>
	<path class="st0" d="M930.1,175.1l-0.2-0.7h-7.3l-1.1,3.5c-0.7,2.2-0.2,3.2,1,3.4l0.4,0.1v1H918v-0.9c0.8-0.3,1.6-1.1,2.1-2.8
		l6.4-20.8h0l6.5,21c0.5,1.5,1,2.2,2,2.5v0.9h-6v-1l0.4-0.1c0.9-0.1,1.4-0.9,0.9-2.4l-1.2-3.8H930.1z M923,173.2h5.7l-2.9-9.5
		L923,173.2z"/>
	<path class="st0" d="M948.8,158.9l0.3,7.3h-0.8l-0.4-1.9c-0.6-2.9-1.7-4.1-3.6-4.1H942v0.7h0.9v17.8c0,1.5,0.6,2.3,1.7,2.5l0.6,0.1
		v1H938v-1l0.6-0.1c1.1-0.1,1.7-0.9,1.7-2.5v-18.5h-1.5c-1.9,0-3,1.2-3.6,4.1l-0.4,1.9h-0.8l0.3-7.3H948.8z"/>
	<path class="st0" d="M956.6,181.3l0.6,0.1v1h-7.1v-1l0.6-0.1c1.1-0.1,1.7-0.9,1.7-2.5v-16.4c0-1.5-0.6-2.3-1.7-2.5l-0.6-0.1v-1h7.1
		v1l-0.6,0.1c-1.1,0.1-1.7,0.9-1.7,2.5v16.4C954.9,180.3,955.5,181.1,956.6,181.3z"/>
	<path class="st0" d="M957.8,170.9c0-7,3.5-12.4,8-12.4c2.2,0,3.9,1.3,5,3.9v-1.2c-0.1-0.2-0.6-1-0.8-1.2l1.9-1.4v8.2h-0.8l-0.5-1.5
		c-1-3.4-2.7-5.2-4.8-5.2c-3.1,0-5.2,4.1-5.2,10.3c0,6.1,2.3,10.4,5.6,10.4c2.5,0,4.2-1.6,5.8-5.3l0.1,0.1c-0.9,4.3-3.4,7-6.3,7
		C961.2,182.6,957.8,177.6,957.8,170.9z"/>
	<path class="st0" d="M848.3,216.4l-0.3,1.1l0.3,0.8l4.6-15c0.6-2,0.3-3.2-1-3.4l-0.4-0.1v-1h4.9v0.9c-0.9,0.3-1.6,1.3-2.1,2.8
		l-6.4,20.8h0l-6.5-21c-0.5-1.5-1-2.2-2-2.5V199h6v1L845,200c-1,0.1-1.3,1.1-0.9,2.4L848.3,216.4z"/>
	<path class="st0" d="M864,221.3l0.6,0.1v1h-7.1v-1l0.6-0.1c1.1-0.1,1.7-0.9,1.7-2.5v-16.4c0-1.5-0.6-2.3-1.7-2.5l-0.6-0.1v-1h7.1v1
		L864,200c-1.1,0.1-1.7,0.9-1.7,2.5v16.4C862.2,220.4,862.8,221.2,864,221.3z"/>
	<path class="st0" d="M866.9,219.1l0,1.1c0.1,0.1,0.6,0.8,0.7,1l-1.8,1.5l-0.1-8.1h0.8l0.6,1.9c1.1,3.2,2.6,4.8,4.6,4.8
		c2.1,0,3.5-1.6,3.5-4.2c0-1.8-0.9-3.3-2.5-4.1l-4.1-2.3c-1.9-1.1-2.9-2.9-2.9-5.4c0-3.9,2-6.5,4.9-6.5c2,0,3.6,1.4,4.6,3.9l0-1.2
		c-0.1-0.3-0.6-1.1-0.7-1.2l1.7-1.4l0.1,7.8h-0.8l-0.4-1.4c-1.1-3.4-2.4-5-4.4-5c-1.7,0-2.8,1.4-2.8,3.6c0,1.6,0.8,3,2.1,3.7
		l4.4,2.4c1.9,1.1,3,3.1,3,5.8c0,4.2-2.3,7-5.7,7C869.9,222.7,868.2,221.5,866.9,219.1z"/>
	<path class="st0" d="M880.5,214.7v-12.2c0-1.5-0.6-2.3-1.7-2.5l-0.6-0.1v-1h7v1l-0.6,0.1c-1.1,0.1-1.7,0.9-1.7,2.5V214
		c0,4,1.7,6.6,4.3,6.6c2.9,0,4.7-3.1,4.7-8.2v-9.6c0-1.7-0.6-2.6-1.7-2.8l-0.6-0.1v-1h5.8v1L895,200c-1.2,0.2-1.7,1.1-1.7,2.8v10.1
		c0,6-2.6,9.8-6.7,9.8C882.9,222.7,880.5,219.6,880.5,214.7z"/>
	<path class="st0" d="M906.3,215.1l-0.2-0.7h-7.3l-1.1,3.5c-0.7,2.2-0.2,3.2,1,3.4l0.4,0.1v1h-4.9v-0.9c0.8-0.3,1.6-1.1,2.1-2.8
		l6.4-20.8h0l6.5,21c0.5,1.5,1,2.2,2,2.5v0.9h-6v-1l0.4-0.1c0.9-0.1,1.4-0.9,0.9-2.4l-1.2-3.8H906.3z M899.2,213.3h5.7l-2.9-9.5
		L899.2,213.3z"/>
	<path class="st0" d="M912.3,222.4v-1l0.6-0.1c1.1-0.1,1.7-0.9,1.7-2.5v-16.4c0-1.5-0.6-2.3-1.7-2.5l-0.6-0.1v-1h7.1v1l-0.6,0.1
		c-1.1,0.1-1.7,0.9-1.7,2.5v17.8h-0.9v0.7h5.4c2,0,3.2-1.5,3.8-4.9l0.4-2h0.8l-0.8,8.3H912.3z"/>
	<path class="st0" d="M934.2,221.3l0.6,0.1v1h-7.1v-1l0.6-0.1c1.1-0.1,1.7-0.9,1.7-2.5v-16.4c0-1.5-0.6-2.3-1.7-2.5l-0.6-0.1v-1h7.1
		v1l-0.6,0.1c-1.1,0.1-1.7,0.9-1.7,2.5v16.4C932.5,220.4,933,221.2,934.2,221.3z"/>
	<path class="st0" d="M946.4,201l0.3-0.6h-5.4c-1.9,0-2.9,1.2-3.5,4.1l-0.5,2.6h-0.8l0.3-8.2h12.4l-9.8,21.4h-0.8l-0.3,0.6h6.3
		c2,0,3.2-1.5,3.8-4.8l0.4-2.2h0.8l-0.8,8.3h-13.2l9.8-21.4H946.4z"/>
	<path class="st0" d="M962.5,215.1l-0.2-0.7H955l-1.1,3.5c-0.7,2.2-0.2,3.2,1,3.4l0.4,0.1v1h-4.9v-0.9c0.8-0.3,1.6-1.1,2.1-2.8
		l6.4-20.8h0l6.5,21c0.5,1.5,1,2.2,2,2.5v0.9h-6v-1l0.4-0.1c0.9-0.1,1.4-0.9,0.9-2.4l-1.2-3.8H962.5z M955.4,213.3h5.7l-2.9-9.5
		L955.4,213.3z"/>
	<path class="st0" d="M981.1,199l0.3,7.3h-0.8l-0.4-1.9c-0.6-2.9-1.7-4.1-3.6-4.1h-2.3v0.7h0.9v17.8c0,1.5,0.6,2.3,1.7,2.5l0.6,0.1
		v1h-7.1v-1l0.6-0.1c1.1-0.1,1.7-0.9,1.7-2.5v-18.5h-1.5c-1.9,0-3,1.2-3.6,4.1l-0.4,1.9h-0.8l0.3-7.3H981.1z"/>
	<path class="st0" d="M989,221.3l0.6,0.1v1h-7.1v-1l0.6-0.1c1.1-0.1,1.7-0.9,1.7-2.5v-16.4c0-1.5-0.6-2.3-1.7-2.5l-0.6-0.1v-1h7.1v1
		L989,200c-1.1,0.1-1.7,0.9-1.7,2.5v16.4C987.3,220.4,987.9,221.2,989,221.3z"/>
	<path class="st0" d="M990.2,210.8c0-7,3.6-12.2,8.1-12.2c4.4,0,8,4.9,8,11.9c0,7-3.6,12.2-8.1,12.2
		C993.8,222.7,990.2,217.7,990.2,210.8z M1003.4,211.3c0-7-2.3-11.3-5.5-11.3c-2.9,0-5,3.8-5,10c0,7,2.3,11.3,5.5,11.3
		C1001.3,221.3,1003.4,217.4,1003.4,211.3z"/>
	<path class="st0" d="M1022.1,222.7l-11.6-19.4v15.2c0,1.7,0.6,2.6,1.7,2.8l0.6,0.1v1h-5.8v-1l0.6-0.1c1.2-0.2,1.7-1.1,1.7-2.8
		v-16.8l-1.9-2.7h3.9l9.2,15.1v1.2l0.5,0.7v-13.2c0-1.7-0.6-2.6-1.7-2.8l-0.6-0.1v-1h5.8v1l-0.6,0.1c-1.2,0.2-1.7,1.1-1.7,2.8V222.7
		z"/>
</g>
<g>
	<g>
		<path class="st0" d="M503.9,200.5l-1.2-0.4c1.2-3.3,3.6-5.9,6.9-7.6c-3.2-1.5-5.6-4.1-6.9-7.7l1.2-0.4c1.4,3.7,3.9,6.2,7.5,7.5
			l0,1.1C507.6,194.7,505.1,197.1,503.9,200.5z"/>
	</g>
	<g>
		<rect x="450.5" y="191.9" class="st0" width="60.7" height="1.2"/>
	</g>
</g>
<g>
	<path class="st0" d="M767.7,250.7H511.3V134.2h256.4V250.7z M512.6,249.5h253.9v-114H512.6V249.5z"/>
</g>
<g>
	<path class="st0" d="M1036.8,250.7H827.1V134.2h209.7V250.7z M828.4,249.5h207.2v-114H828.4V249.5z"/>
</g>
<g>
	<g>
		<path class="st0" d="M820.5,200.5l-1.2-0.4c1.2-3.3,3.6-5.9,6.9-7.6c-3.2-1.5-5.6-4.1-6.9-7.7l1.2-0.4c1.4,3.7,3.9,6.2,7.5,7.5
			l0,1.1C824.2,194.7,821.7,197.1,820.5,200.5z"/>
	</g>
	<g>
		<rect x="767.1" y="191.9" class="st0" width="60.7" height="1.2"/>
	</g>
</g>
<g>
	<path class="st0" d="M1126.2,181.3l0.6,0.1v1h-7.2v-1l0.6-0.1c1.1-0.1,1.7-0.9,1.7-2.5v-16.4c0-1.5-0.6-2.3-1.7-2.5l-0.6-0.1v-1
		h7.2v1l-0.6,0.1c-1.1,0.1-1.7,0.9-1.7,2.5v16.4C1124.5,180.3,1125.1,181.1,1126.2,181.3z"/>
	<path class="st0" d="M1143.3,182.6l-11.8-19.4v15.2c0,1.7,0.6,2.6,1.8,2.8l0.6,0.1v1h-5.9v-1l0.6-0.1c1.2-0.2,1.7-1.1,1.7-2.8
		v-16.8l-1.9-2.7h3.9l9.3,15.1v1.2l0.5,0.7v-13.2c0-1.7-0.6-2.6-1.8-2.8l-0.6-0.1v-1h5.9v1l-0.6,0.1c-1.2,0.2-1.7,1.1-1.7,2.8V182.6
		z"/>
	<path class="st0" d="M1161.5,158.9l0.3,7.3h-0.8l-0.4-1.9c-0.6-2.9-1.7-4.1-3.6-4.1h-2.4v0.7h0.9v17.8c0,1.5,0.6,2.3,1.7,2.5
		l0.6,0.1v1h-7.2v-1l0.6-0.1c1.1-0.1,1.7-0.9,1.7-2.5v-18.5h-1.5c-1.9,0-3,1.2-3.6,4.1l-0.4,1.9h-0.8l0.3-7.3H1161.5z"/>
	<path class="st0" d="M1166.9,180.2v0.7h5.5c2,0,3.2-1.5,3.9-4.8l0.4-2.2h0.8l-0.8,8.3h-13.8v-1l0.6-0.1c1.1-0.1,1.7-0.9,1.7-2.5
		v-16.4c0-1.5-0.6-2.3-1.7-2.5l-0.6-0.1v-1h13.9l0.3,8.1h-0.8l-0.5-2.6c-0.6-2.9-1.6-4.1-3.5-4.1h-5.3v0.7h0.9v8.8h2.6
		c1.2,0,1.8-0.7,2.1-2.7l0.2-1.1h0.8v8.8h-0.8l-0.2-1.1c-0.3-2-0.9-2.7-2.1-2.7h-2.6v9.3H1166.9z"/>
	<path class="st0" d="M1183.5,178.8c0,1.5,0.6,2.3,1.7,2.5l0.6,0.1v1h-7.2v-1l0.6-0.1c1.1-0.1,1.7-0.9,1.7-2.5v-16.4
		c0-1.5-0.6-2.3-1.7-2.5l-0.6-0.1v-1h8c3.5,0,5.8,2.3,5.8,5.8c0,2.8-1.9,5.3-3.9,5.8c1.2,0.6,1.9,1.6,2.3,3.1l1.8,5.8
		c0.3,1.1,0.9,1.6,1.9,1.8l0.3,0.1v0.9h-4.3l-2.4-8.8c-0.5-1.8-1.1-2.5-2.3-2.5h-3.2v0.7h0.9V178.8z M1186.3,169.8
		c2.1,0,3.5-1.9,3.5-4.8c0-2.9-1.3-4.7-3.5-4.7h-3.6v0.7h0.9v8.9H1186.3z"/>
	<path class="st0" d="M1208,175.1l-0.2-0.7h-7.4l-1.1,3.5c-0.7,2.2-0.2,3.2,1,3.4l0.4,0.1v1h-5v-0.9c0.8-0.3,1.6-1.1,2.1-2.8
		l6.5-20.8h0l6.6,21c0.5,1.5,1,2.2,2,2.5v0.9h-6.1v-1l0.4-0.1c0.9-0.1,1.4-0.9,1-2.4l-1.2-3.8H1208z M1200.8,173.2h5.8l-2.9-9.5
		L1200.8,173.2z"/>
	<path class="st0" d="M1212.5,170.9c0-7,3.5-12.4,8.1-12.4c2.2,0,3.9,1.3,5.1,3.9v-1.2c-0.1-0.2-0.7-1-0.8-1.2l1.9-1.4v8.2h-0.8
		l-0.5-1.5c-1-3.4-2.7-5.2-4.9-5.2c-3.2,0-5.3,4.1-5.3,10.3c0,6.1,2.3,10.4,5.7,10.4c2.5,0,4.3-1.6,5.9-5.3l0.1,0.1
		c-1,4.3-3.4,7-6.4,7C1216,182.6,1212.5,177.6,1212.5,170.9z"/>
	<path class="st0" d="M1243.2,158.9l0.3,7.3h-0.8l-0.4-1.9c-0.6-2.9-1.7-4.1-3.6-4.1h-2.4v0.7h0.9v17.8c0,1.5,0.6,2.3,1.7,2.5
		l0.6,0.1v1h-7.2v-1l0.6-0.1c1.1-0.1,1.7-0.9,1.7-2.5v-18.5h-1.5c-1.9,0-3,1.2-3.6,4.1l-0.4,1.9h-0.8l0.3-7.3H1243.2z"/>
	<path class="st0" d="M1251.2,181.3l0.6,0.1v1h-7.2v-1l0.6-0.1c1.1-0.1,1.7-0.9,1.7-2.5v-16.4c0-1.5-0.6-2.3-1.7-2.5l-0.6-0.1v-1
		h7.2v1l-0.6,0.1c-1.1,0.1-1.7,0.9-1.7,2.5v16.4C1249.5,180.3,1250,181.1,1251.2,181.3z"/>
	<path class="st0" d="M1261.8,176.4l-0.3,1.1l0.3,0.8l4.7-15c0.6-2,0.3-3.2-1-3.4l-0.4-0.1v-1h5v0.9c-0.9,0.3-1.7,1.3-2.1,2.8
		l-6.5,20.8h0l-6.6-21c-0.5-1.5-1-2.2-2-2.5v-0.9h6.1v1l-0.4,0.1c-1,0.1-1.3,1.1-1,2.4L1261.8,176.4z"/>
	<path class="st0" d="M1275.1,180.2v0.7h5.5c2,0,3.2-1.5,3.9-4.8l0.4-2.2h0.8l-0.8,8.3h-13.8v-1l0.6-0.1c1.1-0.1,1.7-0.9,1.7-2.5
		v-16.4c0-1.5-0.6-2.3-1.7-2.5l-0.6-0.1v-1h13.9l0.3,8.1h-0.8l-0.5-2.6c-0.6-2.9-1.6-4.1-3.5-4.1h-5.3v0.7h0.9v8.8h2.6
		c1.2,0,1.8-0.7,2.1-2.7l0.2-1.1h0.8v8.8h-0.8l-0.2-1.1c-0.3-2-0.9-2.7-2.1-2.7h-2.6v9.3H1275.1z"/>
	<path class="st0" d="M1118.1,216.4l-0.3,1.1l0.3,0.8l4.7-15c0.6-2,0.3-3.2-1-3.4l-0.4-0.1v-1h5v0.9c-0.9,0.3-1.7,1.3-2.1,2.8
		l-6.5,20.8h0l-6.6-21c-0.5-1.5-1-2.2-2-2.5V199h6.1v1l-0.4,0.1c-1,0.1-1.3,1.1-1,2.4L1118.1,216.4z"/>
	<path class="st0" d="M1134,221.3l0.6,0.1v1h-7.2v-1l0.6-0.1c1.1-0.1,1.7-0.9,1.7-2.5v-16.4c0-1.5-0.6-2.3-1.7-2.5l-0.6-0.1v-1h7.2
		v1l-0.6,0.1c-1.1,0.1-1.7,0.9-1.7,2.5v16.4C1132.2,220.4,1132.8,221.2,1134,221.3z"/>
	<path class="st0" d="M1136.9,219.1l0,1.1c0.1,0.1,0.6,0.8,0.8,1l-1.8,1.5l-0.1-8.1h0.9l0.6,1.9c1.1,3.2,2.6,4.8,4.7,4.8
		c2.2,0,3.5-1.6,3.5-4.2c0-1.8-0.9-3.3-2.5-4.1l-4.2-2.3c-1.9-1.1-2.9-2.9-2.9-5.4c0-3.9,2-6.5,5-6.5c2,0,3.7,1.4,4.7,3.9l0-1.2
		c-0.1-0.3-0.7-1.1-0.8-1.2l1.8-1.4l0.1,7.8h-0.9l-0.4-1.4c-1.1-3.4-2.5-5-4.5-5c-1.7,0-2.8,1.4-2.8,3.6c0,1.6,0.8,3,2.2,3.7
		l4.5,2.4c2,1.1,3.1,3.1,3.1,5.8c0,4.2-2.3,7-5.8,7C1139.9,222.7,1138.3,221.5,1136.9,219.1z"/>
	<path class="st0" d="M1150.7,214.7v-12.2c0-1.5-0.6-2.3-1.7-2.5l-0.6-0.1v-1h7.1v1l-0.6,0.1c-1.1,0.1-1.7,0.9-1.7,2.5V214
		c0,4,1.7,6.6,4.4,6.6c3,0,4.8-3.1,4.8-8.2v-9.6c0-1.7-0.6-2.6-1.8-2.8l-0.6-0.1v-1h5.9v1l-0.6,0.1c-1.2,0.2-1.7,1.1-1.7,2.8v10.1
		c0,6-2.6,9.8-6.8,9.8C1153.1,222.7,1150.7,219.6,1150.7,214.7z"/>
	<path class="st0" d="M1176.9,215.1l-0.2-0.7h-7.4l-1.1,3.5c-0.7,2.2-0.2,3.2,1,3.4l0.4,0.1v1h-5v-0.9c0.8-0.3,1.6-1.1,2.1-2.8
		l6.5-20.8h0l6.6,21c0.5,1.5,1,2.2,2,2.5v0.9h-6.1v-1l0.4-0.1c0.9-0.1,1.4-0.9,1-2.4l-1.2-3.8H1176.9z M1169.7,213.3h5.8l-2.9-9.5
		L1169.7,213.3z"/>
	<path class="st0" d="M1183,222.4v-1l0.6-0.1c1.1-0.1,1.7-0.9,1.7-2.5v-16.4c0-1.5-0.6-2.3-1.7-2.5l-0.6-0.1v-1h7.2v1l-0.6,0.1
		c-1.1,0.1-1.7,0.9-1.7,2.5v17.8h-0.9v0.7h5.5c2,0,3.2-1.5,3.9-4.9l0.4-2h0.8l-0.8,8.3H1183z"/>
	<path class="st0" d="M1205.1,221.3l0.6,0.1v1h-7.2v-1l0.6-0.1c1.1-0.1,1.7-0.9,1.7-2.5v-16.4c0-1.5-0.6-2.3-1.7-2.5l-0.6-0.1v-1
		h7.2v1l-0.6,0.1c-1.1,0.1-1.7,0.9-1.7,2.5v16.4C1203.4,220.4,1204,221.2,1205.1,221.3z"/>
	<path class="st0" d="M1217.6,201l0.3-0.6h-5.4c-1.9,0-2.9,1.2-3.5,4.1l-0.5,2.6h-0.8l0.3-8.2h12.6l-9.9,21.4h-0.8l-0.3,0.6h6.4
		c2,0,3.2-1.5,3.9-4.8l0.4-2.2h0.8l-0.8,8.3h-13.4l9.9-21.4H1217.6z"/>
	<path class="st0" d="M1233.8,215.1l-0.2-0.7h-7.4l-1.1,3.5c-0.7,2.2-0.2,3.2,1,3.4l0.4,0.1v1h-5v-0.9c0.8-0.3,1.6-1.1,2.1-2.8
		l6.5-20.8h0l6.6,21c0.5,1.5,1,2.2,2,2.5v0.9h-6.1v-1l0.4-0.1c0.9-0.1,1.4-0.9,1-2.4l-1.2-3.8H1233.8z M1226.6,213.3h5.8l-2.9-9.5
		L1226.6,213.3z"/>
	<path class="st0" d="M1252.8,199l0.3,7.3h-0.8l-0.4-1.9c-0.6-2.9-1.7-4.1-3.6-4.1h-2.4v0.7h0.9v17.8c0,1.5,0.6,2.3,1.7,2.5l0.6,0.1
		v1h-7.2v-1l0.6-0.1c1.1-0.1,1.7-0.9,1.7-2.5v-18.5h-1.5c-1.9,0-3,1.2-3.6,4.1l-0.4,1.9h-0.8l0.3-7.3H1252.8z"/>
	<path class="st0" d="M1260.7,221.3l0.6,0.1v1h-7.2v-1l0.6-0.1c1.1-0.1,1.7-0.9,1.7-2.5v-16.4c0-1.5-0.6-2.3-1.7-2.5l-0.6-0.1v-1
		h7.2v1l-0.6,0.1c-1.1,0.1-1.7,0.9-1.7,2.5v16.4C1259,220.4,1259.6,221.2,1260.7,221.3z"/>
	<path class="st0" d="M1262,210.8c0-7,3.7-12.2,8.2-12.2c4.5,0,8.1,4.9,8.1,11.9c0,7-3.7,12.2-8.2,12.2
		C1265.6,222.7,1262,217.7,1262,210.8z M1275.4,211.3c0-7-2.4-11.3-5.6-11.3c-2.9,0-5.1,3.8-5.1,10c0,7,2.4,11.3,5.6,11.3
		C1273.2,221.3,1275.4,217.4,1275.4,211.3z"/>
	<path class="st0" d="M1294.3,222.7l-11.8-19.4v15.2c0,1.7,0.6,2.6,1.8,2.8l0.6,0.1v1h-5.9v-1l0.6-0.1c1.2-0.2,1.7-1.1,1.7-2.8
		v-16.8l-1.9-2.7h3.9l9.3,15.1v1.2l0.5,0.7v-13.2c0-1.7-0.6-2.6-1.8-2.8l-0.6-0.1v-1h5.9v1l-0.6,0.1c-1.2,0.2-1.7,1.1-1.7,2.8V222.7
		z"/>
</g>
<g>
	<path class="st0" d="M1309.6,250.7h-213.3V134.2h213.3V250.7z M1097.5,249.5h210.8v-114h-210.8V249.5z"/>
</g>
<g>
	<path class="st0" d="M1089.6,200.5l-1.2-0.4c1.2-3.3,3.6-5.9,6.9-7.6c-3.2-1.5-5.6-4.1-6.9-7.7l1.2-0.4c1.4,3.7,3.9,6.2,7.5,7.5
		l0,1.1C1093.3,194.7,1090.9,197.1,1089.6,200.5z"/>
</g>
<g>
	<rect x="1036.2" y="191.9" class="st0" width="60.7" height="1.2"/>
</g>
<g>
	<polygon class="st0" points="206.2,102.9 205,102.9 205,82.8 35.5,82.8 35.5,102.9 34.2,102.9 34.2,81.6 206.2,81.6 	"/>
</g>
<g>
	<path class="st0" d="M393.9,25h5.2c4.5,0,7.5,3.2,7.5,7.9c0,4.6-2.9,7.9-7.5,7.9h-5.1V25z M399,39c3.4,0,5.3-2.8,5.3-6.1
		c0-3.5-1.9-6.1-5.3-6.1h-3V39H399z"/>
	<path class="st0" d="M408.6,37.8c0-1.1,0.6-2.1,1.6-2.6c0.8-0.4,1.9-0.7,3.7-0.9l2.1-0.2v-0.2c0-2-0.7-2.9-2.4-2.9
		c-1.5,0-2.4,0.8-2.5,2.2h-2c0.2-2.3,1.9-3.8,4.5-3.8c3,0,4.4,1.4,4.4,4.6v3c0,1.7,0.1,2.9,0.4,3.8h-2c-0.1-0.6-0.2-1.3-0.2-2
		c-0.5,1.4-1.9,2.3-3.7,2.3C410.1,41,408.6,39.7,408.6,37.8z M416,35.9v-0.6l-3,0.4c-1.6,0.2-2.4,0.8-2.4,1.9s0.8,1.8,2.2,1.8
		C414.7,39.5,416,38.1,416,35.9z"/>
	<path class="st0" d="M419.5,29.6h2.1v-2.9l1.9-0.8v3.7h2.8v1.6h-2.8v6.2c0,1.3,0.5,1.8,1.6,1.8c0.5,0,0.8-0.1,1.2-0.2v1.7
		c-0.5,0.1-0.9,0.2-1.6,0.2c-2.4,0-3-1.5-3-3.5v-6.2h-2.1V29.6z"/>
	<path class="st0" d="M427.7,37.8c0-1.1,0.6-2.1,1.6-2.6c0.8-0.4,1.9-0.7,3.7-0.9l2.1-0.2v-0.2c0-2-0.7-2.9-2.4-2.9
		c-1.5,0-2.4,0.8-2.5,2.2h-2c0.2-2.3,1.9-3.8,4.5-3.8c3,0,4.4,1.4,4.4,4.6v3c0,1.7,0.1,2.9,0.4,3.8h-2c-0.1-0.6-0.2-1.3-0.2-2
		c-0.5,1.4-1.9,2.3-3.7,2.3C429.2,41,427.7,39.7,427.7,37.8z M435.1,35.9v-0.6l-3,0.4c-1.6,0.2-2.4,0.8-2.4,1.9s0.8,1.8,2.2,1.8
		C433.9,39.5,435.1,38.1,435.1,35.9z"/>
	<path class="st0" d="M445.5,32.8c0-4.8,2.5-8.2,7.2-8.2c3.8,0,5.9,2.3,6.3,5.5l-2.2,0.2c-0.3-2.4-1.8-4-4.2-4
		c-3.1,0-4.8,2.6-4.8,6.4c0,3.7,1.7,6.5,4.9,6.5c2.2,0,3.8-1.5,4.3-3.8l2,0.4c-0.6,3-2.5,5.3-6.3,5.3
		C447.7,41.1,445.5,37.4,445.5,32.8z"/>
	<path class="st0" d="M460.9,35.2c0-3.6,2-5.8,5.2-5.8c3.1,0,5.2,2.2,5.2,5.8c0,3.6-2,5.8-5.2,5.8C463,41,460.9,38.8,460.9,35.2z
		 M469.3,35.2c0-2.8-1.2-4.2-3.2-4.2c-2,0-3.2,1.4-3.2,4.2c0,2.8,1.2,4.2,3.2,4.2C468.1,39.4,469.3,38,469.3,35.2z"/>
	<path class="st0" d="M476.3,40.8h-1.9V24.6h1.9V40.8z"/>
	<path class="st0" d="M482.4,40.8h-1.9V24.6h1.9V40.8z"/>
	<path class="st0" d="M495.3,35.8h-7.9c0,2.2,1.3,3.6,3.3,3.6c1.4,0,2.5-0.8,3-2.1l1.6,0.7c-0.8,2-2.4,3.1-4.6,3.1
		c-3.2,0-5.1-2-5.1-5.7c0-3.7,1.9-6,5-6c3,0,4.7,1.7,4.7,5V35.8z M493.4,34c0-2-1-3.1-2.9-3.1c-2,0-3.1,1.3-3.1,3.4h6V34z"/>
	<path class="st0" d="M497.4,35.2c0-3.6,2-5.8,5.1-5.8c2.6,0,4.3,1.5,4.6,4l-1.9,0.2C505,32,504,31,502.5,31c-1.9,0-3.1,1.6-3.1,4.2
		c0,2.7,1.2,4.2,3.1,4.2c1.5,0,2.4-0.9,2.7-2.6l1.8,0.3c-0.4,2.5-2.1,4-4.6,4C499.4,41,497.4,38.8,497.4,35.2z"/>
	<path class="st0" d="M508.1,29.6h2.1v-2.9l1.9-0.8v3.7h2.8v1.6h-2.8v6.2c0,1.3,0.5,1.8,1.6,1.8c0.5,0,0.8-0.1,1.2-0.2v1.7
		c-0.5,0.1-0.9,0.2-1.6,0.2c-2.4,0-3-1.5-3-3.5v-6.2h-2.1V29.6z"/>
	<path class="st0" d="M517.5,25.2h2.2v2.4h-2.2V25.2z M517.7,29.6h1.9v11.1h-1.9V29.6z"/>
	<path class="st0" d="M522.5,35.2c0-3.6,2-5.8,5.2-5.8c3.1,0,5.2,2.2,5.2,5.8c0,3.6-2,5.8-5.2,5.8C524.6,41,522.5,38.8,522.5,35.2z
		 M530.9,35.2c0-2.8-1.2-4.2-3.2-4.2c-2,0-3.2,1.4-3.2,4.2c0,2.8,1.2,4.2,3.2,4.2C529.7,39.4,530.9,38,530.9,35.2z"/>
	<path class="st0" d="M535.9,29.6h1.8v2.2c0.7-1.7,2-2.5,3.7-2.5c2.4,0,3.7,1.5,3.7,4.5v6.9h-1.9V34c0-2-0.8-3-2.4-3
		c-1.8,0-3,1.5-3,4v5.8h-1.9V29.6z"/>
	<path class="st0" d="M566.6,39v1.7c-0.3,0-0.5,0.1-1,0.1c-1.2,0-2.2-0.4-3-1.3c-1.2,1-2.6,1.6-4.2,1.6c-3.2,0-5.3-1.7-5.3-4.2
		c0-1.8,0.8-3,2.9-4.4l0.3-0.2c-1.4-1.7-2-3-2-4.2c0-2.3,1.6-3.8,3.9-3.8c2.4,0,3.9,1.4,3.9,3.6c0,1.5-0.8,2.9-2.1,3.8l-1.2,0.8
		l3.8,4.4c0.7-1.2,1.1-2.8,1.2-4.6l1.7,0.2c-0.1,2.3-0.7,4.2-1.7,5.7c0.6,0.6,1.2,0.9,1.9,0.9C566.1,39.1,566.4,39.1,566.6,39z
		 M558.5,39.5c1.2,0,2.2-0.4,3-1.1l-4.1-4.8l-0.2,0.1c-1.7,1.1-2.1,1.8-2.1,3.1C555.1,38.3,556.6,39.5,558.5,39.5z M557.9,31.4
		l0.9-0.6c1-0.6,1.5-1.6,1.5-2.8c0-1.3-0.7-2.1-2-2.1s-1.9,0.7-2,2.1C556.3,29.1,556.7,29.9,557.9,31.4z"/>
	<path class="st0" d="M582.7,36.2h-6.5l-1.6,4.6h-2.2l6-15.8h2.1l6,15.8h-2.2L582.7,36.2z M582.1,34.4l-2.2-6.2
		c-0.1-0.4-0.3-0.7-0.4-1.2h0c-0.1,0.5-0.2,0.8-0.4,1.2l-2.2,6.2H582.1z"/>
	<path class="st0" d="M589,29.6h1.8v2.2c0.7-1.7,2-2.5,3.7-2.5c2.4,0,3.7,1.5,3.7,4.5v6.9h-1.9V34c0-2-0.8-3-2.4-3c-1.8,0-3,1.5-3,4
		v5.8H589V29.6z"/>
	<path class="st0" d="M600.8,37.8c0-1.1,0.6-2.1,1.6-2.6c0.8-0.4,1.9-0.7,3.7-0.9l2.1-0.2v-0.2c0-2-0.7-2.9-2.4-2.9
		c-1.5,0-2.4,0.8-2.5,2.2h-2c0.2-2.3,1.9-3.8,4.5-3.8c3,0,4.4,1.4,4.4,4.6v3c0,1.7,0.1,2.9,0.4,3.8h-2c-0.1-0.6-0.2-1.3-0.2-2
		c-0.5,1.4-1.9,2.3-3.7,2.3C602.3,41,600.8,39.7,600.8,37.8z M608.2,35.9v-0.6l-3,0.4c-1.6,0.2-2.4,0.8-2.4,1.9s0.8,1.8,2.2,1.8
		C606.9,39.5,608.2,38.1,608.2,35.9z"/>
	<path class="st0" d="M615.8,40.8h-1.9V24.6h1.9V40.8z"/>
	<path class="st0" d="M618.9,45.1v-1.7c0.3,0,0.6,0,0.8,0c1.3,0,2-0.6,2.5-2.1l0.3-0.8l-4.4-11h2.1l2.8,7.7c0.2,0.6,0.3,1,0.4,1.3h0
		c0.1-0.3,0.2-0.8,0.4-1.3l2.6-7.7h2l-4.3,11.8c-1,2.8-2.4,3.8-4.2,3.8C619.6,45.2,619.3,45.2,618.9,45.1z"/>
	<path class="st0" d="M629.2,37.3l1.9-0.3c0.3,1.6,1.3,2.5,3,2.5c1.5,0,2.3-0.6,2.3-1.7c0-1.1-0.6-1.6-1.8-1.7l-1.8-0.2
		c-2.2-0.2-3.2-1.5-3.2-3.2c0-2,1.6-3.3,4.2-3.3c2.5,0,4.2,1.3,4.5,3.4l-1.9,0.4c-0.2-1.3-1.2-2.3-2.7-2.3c-1.5,0-2.3,0.6-2.3,1.7
		c0,1,0.6,1.5,2,1.7l1.8,0.2c2.2,0.2,3.1,1.4,3.1,3.2c0,2.1-1.6,3.4-4.3,3.4C631.4,41,629.6,39.7,629.2,37.3z"/>
	<path class="st0" d="M641.2,25.2h2.2v2.4h-2.2V25.2z M641.3,29.6h1.9v11.1h-1.9V29.6z"/>
	<path class="st0" d="M646.1,37.3L648,37c0.3,1.6,1.3,2.5,3,2.5c1.5,0,2.3-0.6,2.3-1.7c0-1.1-0.6-1.6-1.8-1.7l-1.8-0.2
		c-2.2-0.2-3.2-1.5-3.2-3.2c0-2,1.6-3.3,4.2-3.3c2.5,0,4.2,1.3,4.5,3.4l-1.9,0.4c-0.2-1.3-1.2-2.3-2.7-2.3c-1.5,0-2.3,0.6-2.3,1.7
		c0,1,0.6,1.5,2,1.7l1.8,0.2c2.2,0.2,3.1,1.4,3.1,3.2c0,2.1-1.6,3.4-4.3,3.4C648.2,41,646.5,39.7,646.1,37.3z"/>
</g>
<g>
	<path class="st0" d="M991.3,25h2.2l3.8,11.6c0.3,0.9,0.5,1.6,0.6,2.1h0.1c0.1-0.6,0.3-1.2,0.6-2.1l3.8-11.6h2.2l-5.5,15.8h-2.3
		L991.3,25z"/>
	<path class="st0" d="M1006.6,25.2h2.2v2.4h-2.2V25.2z M1006.7,29.6h1.9v11.1h-1.9V29.6z"/>
	<path class="st0" d="M1011.5,37.3l1.9-0.3c0.3,1.6,1.3,2.5,3,2.5c1.5,0,2.3-0.6,2.3-1.7c0-1.1-0.6-1.6-1.8-1.7l-1.8-0.2
		c-2.2-0.2-3.2-1.5-3.2-3.2c0-2,1.6-3.3,4.2-3.3c2.5,0,4.2,1.3,4.5,3.4l-1.9,0.4c-0.2-1.3-1.2-2.3-2.7-2.3c-1.5,0-2.3,0.6-2.3,1.7
		c0,1,0.6,1.5,2,1.7l1.8,0.2c2.2,0.2,3.1,1.4,3.1,3.2c0,2.1-1.6,3.4-4.3,3.4C1013.6,41,1011.9,39.7,1011.5,37.3z"/>
	<path class="st0" d="M1023.2,36.7v-7.1h1.9v6.9c0,1.9,0.8,2.9,2.3,2.9c1.8,0,3-1.5,3-3.8v-6h1.9v11.1h-1.8v-2.1
		c-0.5,1.4-1.9,2.4-3.4,2.4C1024.2,41,1023.2,39.3,1023.2,36.7z"/>
	<path class="st0" d="M1035.3,37.8c0-1.1,0.6-2.1,1.6-2.6c0.8-0.4,1.9-0.7,3.7-0.9l2.1-0.2v-0.2c0-2-0.7-2.9-2.4-2.9
		c-1.5,0-2.4,0.8-2.5,2.2h-2c0.2-2.3,1.9-3.8,4.5-3.8c3,0,4.4,1.4,4.4,4.6v3c0,1.7,0.1,2.9,0.4,3.8h-2c-0.1-0.6-0.2-1.3-0.2-2
		c-0.5,1.4-1.9,2.3-3.7,2.3C1036.8,41,1035.3,39.7,1035.3,37.8z M1042.6,35.9v-0.6l-3,0.4c-1.6,0.2-2.4,0.8-2.4,1.9s0.8,1.8,2.2,1.8
		C1041.4,39.5,1042.6,38.1,1042.6,35.9z"/>
	<path class="st0" d="M1050.3,40.8h-1.9V24.6h1.9V40.8z"/>
	<path class="st0" d="M1054.2,25.2h2.2v2.4h-2.2V25.2z M1054.4,29.6h1.9v11.1h-1.9V29.6z"/>
	<path class="st0" d="M1065.1,31.2h-5.9v-1.6h8.1V31l-6,8.1h6.3v1.6h-8.7v-1.4L1065.1,31.2z"/>
	<path class="st0" d="M1068.9,37.8c0-1.1,0.6-2.1,1.6-2.6c0.8-0.4,1.9-0.7,3.7-0.9l2.1-0.2v-0.2c0-2-0.7-2.9-2.4-2.9
		c-1.5,0-2.4,0.8-2.5,2.2h-2c0.2-2.3,1.9-3.8,4.5-3.8c3,0,4.4,1.4,4.4,4.6v3c0,1.7,0.1,2.9,0.4,3.8h-2c-0.1-0.6-0.2-1.3-0.2-2
		c-0.5,1.4-1.9,2.3-3.7,2.3C1070.4,41,1068.9,39.7,1068.9,37.8z M1076.3,35.9v-0.6l-3,0.4c-1.6,0.2-2.4,0.8-2.4,1.9s0.8,1.8,2.2,1.8
		C1075,39.5,1076.3,38.1,1076.3,35.9z"/>
	<path class="st0" d="M1079.8,29.6h2.1v-2.9l1.9-0.8v3.7h2.8v1.6h-2.8v6.2c0,1.3,0.5,1.8,1.6,1.8c0.5,0,0.8-0.1,1.2-0.2v1.7
		c-0.5,0.1-0.9,0.2-1.6,0.2c-2.4,0-3-1.5-3-3.5v-6.2h-2.1V29.6z"/>
	<path class="st0" d="M1089.2,25.2h2.2v2.4h-2.2V25.2z M1089.3,29.6h1.9v11.1h-1.9V29.6z"/>
	<path class="st0" d="M1094.2,35.2c0-3.6,2-5.8,5.2-5.8c3.1,0,5.2,2.2,5.2,5.8c0,3.6-2,5.8-5.2,5.8
		C1096.3,41,1094.2,38.8,1094.2,35.2z M1102.6,35.2c0-2.8-1.2-4.2-3.2-4.2c-2,0-3.2,1.4-3.2,4.2c0,2.8,1.2,4.2,3.2,4.2
		C1101.4,39.4,1102.6,38,1102.6,35.2z"/>
	<path class="st0" d="M1107.6,29.6h1.8v2.2c0.7-1.7,2-2.5,3.7-2.5c2.4,0,3.7,1.5,3.7,4.5v6.9h-1.9V34c0-2-0.8-3-2.4-3
		c-1.8,0-3,1.5-3,4v5.8h-1.9V29.6z"/>
</g>
<g>
	<polygon class="st0" points="768.8,102.9 767.6,102.9 767.6,82.8 268,82.8 268,102.9 266.8,102.9 266.8,81.6 768.8,81.6 	"/>
</g>
<g>
	<polygon class="st0" points="1309.6,102.9 1308.3,102.9 1308.3,82.8 828.4,82.8 828.4,102.9 827.1,102.9 827.1,81.6 1309.6,81.6 	
		"/>
</g>
<g>
	<path class="st0" d="M901.1,325.5c0-7,3.5-12.3,8.2-12.3c2.2,0,4,1.3,5.2,3.8v-1.2c0-0.2-0.6-1-0.7-1.2l1.8-1.4v8.2h-0.8l-0.5-1.5
		c-1-3.4-2.8-5.2-5-5.2c-3.2,0-5.3,4.1-5.3,10.3c0,6.2,2.4,10.4,5.9,10.4c1.6,0,3-0.8,4.7-2.5v-0.8l-0.9,0.9v-3.8
		c0-1.5-0.6-2.3-1.8-2.5l-0.6-0.1v-1h6.9v1l-0.6,0.1c-1.1,0.1-1.6,0.9-1.6,2.5v8.1l-1.7-2.2c-1.4,1.4-3.2,2.2-5.2,2.2
		C904.5,337.2,901.1,332.2,901.1,325.5z"/>
	<path class="st0" d="M920.8,328v0.6h0.8c0.1,3.8,1.6,6.5,3.6,6.5c1.7,0,2.8-0.9,3.6-2.8l0,0c-0.4,2.9-2,4.8-4.1,4.8
		c-3.3,0-5.5-3.2-5.5-8c0-4.6,2.4-8.4,5.2-8.4c2.8,0,4.7,2.9,4.6,7.1H920.8z M921.6,326.8h5.1c0-2.7-1-4.6-2.4-4.6
		C922.8,322.2,921.8,323.8,921.6,326.8z"/>
	<path class="st0" d="M935.8,344.6h-6v-0.9l0.5-0.1c0.9-0.1,1.4-0.9,1.4-2.2v-16.7c0-0.9-0.2-1.2-1.1-1.8l-0.9-0.6l4.2-1.5v2.1
		l-0.7,1.4v1.1l0.4-0.9c1.2-2.5,2.5-3.7,4-3.7c2.7,0,4.7,3.2,4.7,7.5c0,5.1-2.5,8.8-5.8,8.8c-1,0-1.8-0.2-2.5-0.7v4.9
		c0,1.4,0.5,2.1,1.4,2.2l0.5,0.1V344.6z M933.9,325.2v9.2c0.6,0.8,1.6,1.4,2.4,1.4c2.1,0,3.5-2.7,3.5-6.7c0-3.6-1.3-6.2-3.3-6.2
		C935.5,322.9,934.6,323.9,933.9,325.2z"/>
	<path class="st0" d="M946.8,324.3c1.2-2.3,2.6-3.5,4-3.5c2.1,0,3.3,1.8,3.3,5v7.9c0,1.4,0.5,2.1,1.4,2.2l0.5,0.1v0.9h-5.8V336
		l0.4-0.1c0.9-0.1,1.3-0.9,1.3-2.2V326c0-2-0.8-3.1-2.2-3.1c-1,0-2,0.8-2.7,2.1v8.7c0,1.4,0.4,2.1,1.3,2.2l0.4,0.1v0.9h-5.8V336
		l0.5-0.1c0.9-0.1,1.4-0.9,1.4-2.2v-17.3c0-1-0.2-1.4-1.1-1.8l-0.9-0.5l4.2-1.4v10.2l-0.7,1.4v1L946.8,324.3z"/>
	<path class="st0" d="M961.3,320.8v12.9c0,1.4,0.5,2.1,1.4,2.2l0.5,0.1v0.9h-6V336l0.5-0.1c0.9-0.1,1.4-0.9,1.4-2.2v-9
		c0-0.9-0.2-1.2-1.1-1.8l-0.9-0.6L961.3,320.8z M959,314h2.4v3.3H959V314z"/>
</g>
<g>
	<path class="st0" d="M893.8,366h-2.6v-2.6h2.6V366z"/>
	<path class="st0" d="M904.7,355.7c0.7,0.7,1,1.6,1,2.6c0,2.2-1.5,3.8-4.1,3.8c-0.8,0-1.5-0.2-2.1-0.5c-0.5,0.2-0.8,0.6-0.8,1.1
		c0,0.6,0.5,1.1,1.8,1.1h2.7c2.5,0,3.8,1.1,3.8,3.1c0,2.1-1.6,3.5-5.5,3.5c-3.9,0-5-1.5-5-3c0-1,0.6-1.9,1.8-2.3
		c-0.9-0.4-1.3-1.1-1.3-1.9c0-1.1,0.6-1.9,1.6-2.2c-0.7-0.7-1.1-1.6-1.1-2.7c0-2.2,1.5-3.8,4.1-3.8c0.8,0,1.6,0.2,2.2,0.5
		c0.3-1.1,1.2-2,2.6-2c0.2,0,0.5,0,0.7,0.1v1.6c-0.2,0-0.5-0.1-0.8-0.1C905.5,354.7,905,355,904.7,355.7z M900.5,365.6
		c-0.3,0-0.6,0-0.9,0c-0.8,0.4-1.2,1-1.2,1.7c0,1.4,1.4,1.8,3.4,1.8c2.7,0,3.4-0.8,3.4-1.8c0-1-0.8-1.6-2.3-1.6H900.5z M903.9,358.4
		c0-1.4-0.9-2.3-2.3-2.3s-2.3,1-2.3,2.3c0,1.4,0.9,2.4,2.3,2.4S903.9,359.7,903.9,358.4z"/>
	<path class="st0" d="M918,361h-7.9c0,2.2,1.3,3.6,3.3,3.6c1.4,0,2.5-0.8,3-2.1l1.6,0.7c-0.8,2-2.4,3.1-4.6,3.1
		c-3.2,0-5.1-2-5.1-5.7c0-3.7,1.9-6,5-6c3,0,4.7,1.7,4.7,5V361z M916,359.2c0-2-1-3.1-2.9-3.1c-2,0-3.1,1.3-3.1,3.4h6V359.2z"/>
	<path class="st0" d="M925.9,356.4h-2.8v9.6h-1.9v-9.6h-2v-1.6h2v-1.8c0-2,1.3-3.4,3.2-3.4c0.5,0,1,0,1.4,0.2v1.6
		c-0.4-0.1-0.8-0.1-1.2-0.1c-1.1,0-1.6,0.6-1.6,2v1.5h2.8V356.4z"/>
	<path class="st0" d="M930.8,360.2l-3.7-5.4h2.2l2,3.1c0.4,0.6,0.6,1,0.6,1.2h0c0.1-0.2,0.3-0.6,0.6-1.2l1.9-3.1h2.3l-3.7,5.5l4,5.6
		h-2.2l-2.3-3.4c-0.4-0.5-0.6-1-0.6-1.1h0c0,0.2-0.2,0.5-0.6,1.1L929,366h-2.2L930.8,360.2z"/>
	<path class="st0" d="M949.8,356.4h-2.8v9.6h-1.9v-9.6h-2v-1.6h2v-1.8c0-2,1.3-3.4,3.2-3.4c0.5,0,1,0,1.4,0.2v1.6
		c-0.4-0.1-0.8-0.1-1.2-0.1c-1.1,0-1.6,0.6-1.6,2v1.5h2.8V356.4z M952.3,350.4h2.2v2.4h-2.2V350.4z M952.4,354.8h1.9V366h-1.9V354.8
		z"/>
	<path class="st0" d="M960.3,366h-1.9v-16.1h1.9V366z"/>
	<path class="st0" d="M973.2,361h-7.9c0,2.2,1.3,3.6,3.3,3.6c1.4,0,2.5-0.8,3-2.1l1.6,0.7c-0.8,2-2.4,3.1-4.6,3.1
		c-3.2,0-5.1-2-5.1-5.7c0-3.7,1.9-6,5.1-6c3,0,4.7,1.7,4.7,5V361z M971.3,359.2c0-2-1-3.1-2.9-3.1c-2,0-3.1,1.3-3.1,3.4h6V359.2z"/>
</g>
<g>
	<path class="st0" d="M1164.3,333.6l0,1.1c0.1,0.1,0.6,0.8,0.7,1l-1.8,1.5l-0.1-8.1h0.8l0.6,1.9c1.1,3.2,2.6,4.8,4.6,4.8
		c2.1,0,3.5-1.6,3.5-4.2c0-1.8-0.9-3.3-2.5-4.1l-4.1-2.3c-1.9-1.1-2.9-2.9-2.9-5.4c0-3.9,2-6.5,4.9-6.5c2,0,3.6,1.4,4.6,3.9l0-1.2
		c-0.1-0.3-0.6-1.1-0.7-1.2l1.7-1.4l0.1,7.8h-0.8l-0.4-1.4c-1.1-3.4-2.4-5-4.4-5c-1.7,0-2.8,1.4-2.8,3.6c0,1.6,0.8,3,2.1,3.7
		l4.4,2.4c1.9,1.1,3,3.1,3,5.8c0,4.2-2.3,7-5.7,7C1167.3,337.2,1165.6,336,1164.3,333.6z"/>
	<path class="st0" d="M1179.9,320.8v12.9c0,1.4,0.5,2.1,1.4,2.2l0.5,0.1v0.9h-6V336l0.5-0.1c0.9-0.1,1.4-0.9,1.4-2.2v-9
		c0-0.9-0.2-1.2-1.1-1.8l-0.9-0.6L1179.9,320.8z M1177.6,314h2.4v3.3h-2.4V314z"/>
	<path class="st0" d="M1182.2,341.3c0-1.3,0.6-2.1,2.9-3.5l0.5-0.3l-0.6-0.2l-0.8,0.5c-0.6-0.5-0.9-1.2-0.9-2.2c0-1.7,1.2-3.3,3-4.1
		l-0.5-0.3l-0.7,0.4c-1.2-1-1.9-2.7-1.9-4.7c0-3.3,2-5.9,4.6-5.9c1,0,1.9,0.3,2.6,0.9c0.8-1.5,1.7-2.2,2.7-2.2c0.9,0,1.6,0.8,1.6,2
		c0,0.9-0.5,1.6-1.1,1.6c-0.7,0-1.2-0.9-1-1.8h0.3v-0.5c-0.7,0-1.2,0.4-1.9,1.5c0.9,1,1.5,2.5,1.5,4.3c0,3.3-2,5.9-4.6,5.9
		c-0.5,0-1-0.1-1.4-0.2c-0.8,0.5-1.4,1.3-1.4,2c0,0.8,0.5,1.2,1.6,1.3l3.5,0.3c2.6,0.2,3.7,1.3,3.7,3.6c0,3.3-2.5,5.4-6.4,5.4
		C1184,345,1182.2,343.7,1182.2,341.3z M1191.9,340.7c0-0.9-0.4-1.5-1.3-1.5l-4.3-0.4c-0.3,0-0.7-0.1-0.9-0.2
		c-1,0.7-1.4,1.5-1.4,2.4c0,1.7,1.4,2.7,3.8,2.7C1190.4,343.6,1191.9,342.5,1191.9,340.7z M1190.1,326.8c0-2.9-0.9-4.7-2.4-4.7
		c-1.4,0-2.2,1.7-2.2,4.4c0,2.9,0.9,4.7,2.4,4.7C1189.2,331.3,1190.1,329.5,1190.1,326.8z"/>
	<path class="st0" d="M1195,336l0.5-0.1c0.9-0.1,1.4-0.9,1.4-2.2v-9c0-0.9-0.2-1.2-1.1-1.8l-0.9-0.6l4.2-1.5v1.9l-0.7,1.4v1l0.4-0.8
		c1.2-2.4,2.6-3.6,4.1-3.6c1.4,0,2.5,0.9,2.9,2.6l-0.5,1v1l0.4-0.9c1.1-2.3,2.6-3.7,4.1-3.7c2.1,0,3.3,1.8,3.3,5v7.9
		c0,1.4,0.5,2.1,1.4,2.2l0.5,0.1v0.9h-5.8V336l0.4-0.1c0.9-0.1,1.3-0.9,1.3-2.2V326c0-2-0.8-3.1-2.1-3.1c-1,0-1.9,0.9-2.7,2.4
		c0,0.1,0,0.4,0,0.7v7.8c0,1.4,0.5,2.1,1.4,2.2l0.5,0.1v0.9h-5.8V336l0.4-0.1c0.9-0.1,1.3-0.9,1.3-2.2V326c0-2-0.8-3.1-2.1-3.1
		c-1,0-2,0.8-2.7,2.2v8.6c0,1.4,0.4,2.1,1.3,2.2l0.4,0.1v0.9h-5.8V336z"/>
	<path class="st0" d="M1223.5,333.7v-0.9l-0.2,0.5c-1.5,3.1-2.5,3.9-3.9,3.9c-2,0-3.2-1.5-3.2-4c0-2.2,0.8-3.3,3.1-4.4l3.7-1.7v-1.5
		c0-2.1-0.9-3.4-2.2-3.4c-1.2,0-2.3,0.7-2.5,1.8h0.7c0.2,1.8-0.4,2.6-1.2,2.6c-0.6,0-1.1-0.7-1.1-1.7c0-1.9,1.8-3.9,4.3-3.9
		c2.7,0,4.2,1.7,4.2,4.8v8.5c0,0.7,0.3,1.1,0.8,1.1c0.5,0,0.8-0.2,1.2-0.7l0,0c-0.4,1.4-1.5,2.4-2.4,2.4c-1.1,0-1.7-0.8-1.8-2.2
		L1223.5,333.7z M1220.1,335.4c1,0,2.1-1.1,2.7-2.8v-4.5l-2.5,1.2c-1.5,0.8-2.1,1.7-2.1,3.4C1218.3,334.4,1219,335.4,1220.1,335.4z"
		/>
	<path class="st0" d="M1231.4,333.1v3.8h-2.7v-3.8H1231.4z"/>
	<path class="st0" d="M1236.8,320.8v19.5c0,2.6-1.4,4.4-3.5,4.4c-1.6,0-2.9-1.2-2.9-2.6c0-0.9,0.5-1.6,1.1-1.6
		c0.8,0,1.2,0.8,1.1,2.2h-0.5c0,0.7,0.5,1,1.1,1c0.8,0,1.3-0.7,1.3-2.2v-16.9c0-0.9-0.2-1.2-1.1-1.8l-0.9-0.6L1236.8,320.8z
		 M1234.5,314h2.4v3.3h-2.4V314z"/>
	<path class="st0" d="M1241.2,324.4c0,1.1,0.5,1.9,1.4,2.4l2.8,1.5c1.5,0.8,2.3,2.1,2.3,4c0,2.9-1.8,4.8-3.8,4.8
		c-1.6,0-2.7-1-3.7-2.7v0.9c0.2,0.4,0.5,0.7,0.6,0.9l-1.6,1.1l-0.1-6.1h0.8l0.4,1.2c0.7,2.1,1.8,3.2,3.2,3.2c1.3,0,2.1-0.9,2.1-2.4
		c0-1.1-0.6-1.8-1.7-2.4l-2.4-1.3c-1.5-0.8-2.4-2.2-2.4-4.1c0-2.8,1.5-4.6,3.4-4.6c1.4,0,2.5,0.9,3.4,2.6v-1
		c-0.2-0.3-0.5-0.7-0.7-0.9l1.6-0.8l0,5.9h-0.8l-0.4-1.1c-0.7-2.1-1.7-3.3-3-3.3C1241.9,322.3,1241.2,323.1,1241.2,324.4z"/>
</g>
<g>
	<path class="st0" d="M1174.7,366h-2.6v-2.6h2.6V366z"/>
	<path class="st0" d="M1175.9,370.3v-1.6c0.6,0,0.9,0,1.1,0c0.8,0,1.2-0.4,1.2-1.9v-12h1.9v12.2c0,1.8-0.6,3.4-2.8,3.4
		C1176.9,370.5,1176.2,370.4,1175.9,370.3z M1178.1,350.4h2.2v2.4h-2.2V350.4z"/>
	<path class="st0" d="M1183,362.5l1.9-0.3c0.3,1.6,1.3,2.5,3,2.5c1.5,0,2.3-0.6,2.3-1.7c0-1.1-0.6-1.6-1.8-1.7l-1.8-0.2
		c-2.2-0.2-3.2-1.5-3.2-3.2c0-2,1.6-3.3,4.2-3.3c2.5,0,4.2,1.3,4.5,3.4l-1.9,0.4c-0.2-1.3-1.2-2.3-2.7-2.3c-1.5,0-2.3,0.6-2.3,1.7
		c0,1,0.6,1.5,2,1.7l1.8,0.2c2.2,0.2,3.1,1.4,3.1,3.2c0,2.1-1.6,3.4-4.3,3.4C1185.1,366.2,1183.4,364.9,1183,362.5z"/>
	<path class="st0" d="M1205.9,356.4h-2.8v9.6h-1.9v-9.6h-2v-1.6h2v-1.8c0-2,1.3-3.4,3.2-3.4c0.5,0,1,0,1.4,0.2v1.6
		c-0.4-0.1-0.8-0.1-1.2-0.1c-1.1,0-1.6,0.6-1.6,2v1.5h2.8V356.4z M1208.3,350.4h2.2v2.4h-2.2V350.4z M1208.5,354.8h1.9V366h-1.9
		V354.8z"/>
	<path class="st0" d="M1216.4,366h-1.9v-16.1h1.9V366z"/>
	<path class="st0" d="M1229.3,361h-7.9c0,2.2,1.3,3.6,3.3,3.6c1.4,0,2.5-0.8,3-2.1l1.6,0.7c-0.8,2-2.4,3.1-4.6,3.1
		c-3.2,0-5.1-2-5.1-5.7c0-3.7,1.9-6,5.1-6c3,0,4.7,1.7,4.7,5.1V361z M1227.3,359.2c0-2-1-3.1-2.9-3.1c-2,0-3.1,1.3-3.1,3.4h6V359.2z
		"/>
</g>
<g>
	<g>
		<path class="st0" d="M572.1,325.5c0-7,3.5-12.3,8.2-12.3c2.2,0,4,1.3,5.2,3.8v-1.2c0-0.2-0.6-1-0.7-1.2l1.8-1.4v8.2h-0.8l-0.5-1.5
			c-1-3.4-2.8-5.2-5-5.2c-3.2,0-5.3,4.1-5.3,10.3c0,6.2,2.4,10.4,5.9,10.4c1.6,0,3-0.8,4.7-2.5v-0.8l-0.9,0.9v-3.8
			c0-1.5-0.6-2.3-1.8-2.5l-0.6-0.1v-1h6.9v1l-0.6,0.1c-1.1,0.1-1.6,0.9-1.6,2.5v8.1l-1.7-2.2c-1.4,1.4-3.2,2.2-5.2,2.2
			C575.5,337.2,572.1,332.2,572.1,325.5z"/>
		<path class="st0" d="M601.2,328.9c0,4.7-2.4,8.3-5.5,8.3c-3.1,0-5.5-3.5-5.5-8.1c0-4.7,2.4-8.3,5.5-8.3
			C598.9,320.8,601.2,324.3,601.2,328.9z M592.6,328.5c0,4.4,1.2,7.3,3.2,7.3c1.9,0,3-2.4,3-6.3c0-4.4-1.3-7.3-3.2-7.3
			C593.7,322.2,592.6,324.6,592.6,328.5z"/>
		<path class="st0" d="M613.7,328.9c0,4.7-2.4,8.3-5.5,8.3c-3.1,0-5.5-3.5-5.5-8.1c0-4.7,2.4-8.3,5.5-8.3
			C611.4,320.8,613.7,324.3,613.7,328.9z M605.2,328.5c0,4.4,1.2,7.3,3.2,7.3c1.9,0,3-2.4,3-6.3c0-4.4-1.3-7.3-3.2-7.3
			C606.3,322.2,605.2,324.6,605.2,328.5z"/>
		<path class="st0" d="M614.3,341.3c0-1.3,0.6-2.1,2.9-3.5l0.5-0.3l-0.6-0.2l-0.8,0.5c-0.6-0.5-0.9-1.2-0.9-2.2c0-1.7,1.2-3.3,3-4.1
			l-0.5-0.3l-0.7,0.4c-1.2-1-1.9-2.7-1.9-4.7c0-3.3,2-5.9,4.6-5.9c1,0,1.9,0.3,2.6,0.9c0.8-1.5,1.7-2.2,2.7-2.2c0.9,0,1.6,0.8,1.6,2
			c0,0.9-0.5,1.6-1.1,1.6c-0.7,0-1.2-0.9-1-1.8h0.3v-0.5c-0.7,0-1.2,0.4-1.9,1.5c0.9,1,1.5,2.5,1.5,4.3c0,3.3-2,5.9-4.6,5.9
			c-0.5,0-1-0.1-1.4-0.2c-0.8,0.5-1.4,1.3-1.4,2c0,0.8,0.5,1.2,1.6,1.3l3.5,0.3c2.6,0.2,3.7,1.3,3.7,3.6c0,3.3-2.5,5.4-6.4,5.4
			C616.1,345,614.3,343.7,614.3,341.3z M624.1,340.7c0-0.9-0.4-1.5-1.3-1.5l-4.3-0.4c-0.3,0-0.7-0.1-0.9-0.2c-1,0.7-1.4,1.5-1.4,2.4
			c0,1.7,1.4,2.7,3.8,2.7C622.5,343.6,624.1,342.5,624.1,340.7z M622.3,326.8c0-2.9-0.9-4.7-2.4-4.7c-1.4,0-2.2,1.7-2.2,4.4
			c0,2.9,0.9,4.7,2.4,4.7C621.3,331.3,622.3,329.5,622.3,326.8z"/>
		<path class="st0" d="M626.9,314.6l-0.9-0.5l4.2-1.4v21c0,1.4,0.5,2.1,1.4,2.2l0.5,0.1v0.9h-6V336l0.5-0.1c0.9-0.1,1.4-0.9,1.4-2.2
			v-17.3C628,315.5,627.8,315.1,626.9,314.6z"/>
		<path class="st0" d="M634.9,328v0.6h0.8c0.1,3.8,1.6,6.5,3.6,6.5c1.7,0,2.8-0.9,3.6-2.8l0,0c-0.4,2.9-2,4.8-4.1,4.8
			c-3.3,0-5.5-3.2-5.5-8c0-4.6,2.4-8.4,5.2-8.4c2.8,0,4.7,2.9,4.6,7.1H634.9z M635.7,326.8h5.1c0-2.7-1-4.6-2.4-4.6
			C636.9,322.2,635.9,323.8,635.7,326.8z"/>
		<path class="st0" d="M651.8,333.6l0,1.1c0.1,0.1,0.6,0.8,0.7,1l-1.8,1.5l-0.1-8.2h0.8l0.6,1.9c1.1,3.2,2.6,4.8,4.6,4.8
			c2.1,0,3.5-1.6,3.5-4.2c0-1.8-0.9-3.3-2.5-4.1l-4.1-2.3c-1.9-1.1-2.9-2.9-2.9-5.4c0-3.9,2-6.5,4.9-6.5c2,0,3.6,1.4,4.6,3.9l0-1.2
			c-0.1-0.3-0.6-1.1-0.7-1.2l1.7-1.4l0.1,7.8h-0.8l-0.4-1.4c-1.1-3.4-2.4-5-4.4-5c-1.7,0-2.8,1.4-2.8,3.6c0,1.6,0.8,3,2.1,3.7
			l4.4,2.4c1.9,1.1,3,3.1,3,5.8c0,4.2-2.3,7-5.7,7C654.8,337.2,653.1,336,651.8,333.6z"/>
		<path class="st0" d="M667.4,324.3c1.2-2.3,2.6-3.5,4-3.5c2.1,0,3.3,1.8,3.3,5v7.9c0,1.4,0.5,2.1,1.4,2.2l0.5,0.1v0.9h-5.8V336
			l0.4-0.1c0.9-0.1,1.3-0.9,1.3-2.2V326c0-2-0.8-3.1-2.2-3.1c-1,0-2,0.8-2.7,2.1v8.7c0,1.4,0.4,2.1,1.3,2.2l0.4,0.1v0.9h-5.8V336
			l0.5-0.1c0.9-0.1,1.4-0.9,1.4-2.2v-17.3c0-1-0.2-1.4-1.1-1.8l-0.9-0.5l4.2-1.4v10.2l-0.7,1.4v1L667.4,324.3z"/>
		<path class="st0" d="M679.3,328v0.6h0.8c0.1,3.8,1.6,6.5,3.6,6.5c1.7,0,2.8-0.9,3.6-2.8l0,0c-0.4,2.9-2,4.8-4.1,4.8
			c-3.3,0-5.5-3.2-5.5-8c0-4.6,2.4-8.4,5.2-8.4c2.8,0,4.7,2.9,4.6,7.1H679.3z M680.2,326.8h5.1c0-2.7-1-4.6-2.4-4.6
			C681.4,322.2,680.4,323.8,680.2,326.8z"/>
		<path class="st0" d="M690.7,328v0.6h0.8c0.1,3.8,1.6,6.5,3.6,6.5c1.7,0,2.8-0.9,3.6-2.8l0,0c-0.4,2.9-2,4.8-4.1,4.8
			c-3.3,0-5.5-3.2-5.5-8c0-4.6,2.4-8.4,5.2-8.4c2.8,0,4.7,2.9,4.6,7.1H690.7z M691.5,326.8h5.1c0-2.7-1-4.6-2.4-4.6
			C692.7,322.2,691.7,323.8,691.5,326.8z"/>
		<path class="st0" d="M704,333.3c0,1,0.5,1.7,1.2,1.7c0.9,0,1.5-0.7,2-2.2l0.1,0c-0.4,2.8-1.5,4.3-3.1,4.3c-1.3,0-2.4-1.3-2.4-3.3
			v-11.3h-2c1.5-1.4,3.3-4.3,4.2-6.9v5.6h3.2v1.3h-4v0.6h0.8V333.3z"/>
	</g>
	<g>
		<path class="st0" d="M603.1,367.3h-2.6v-2.6h2.6V367.3z"/>
		<path class="st0" d="M609,361.5l-3.7-5.4h2.2l2,3.1c0.4,0.6,0.6,1,0.6,1.2h0c0.1-0.2,0.3-0.6,0.6-1.2l1.9-3.1h2.3l-3.7,5.5l4,5.6
			h-2.2l-2.3-3.4c-0.4-0.5-0.6-1-0.6-1.1h0c0,0.2-0.2,0.5-0.6,1.1l-2.3,3.4H605L609,361.5z"/>
		<path class="st0" d="M619.6,367.3h-1.9v-16.1h1.9V367.3z"/>
		<path class="st0" d="M622.6,363.8l1.9-0.3c0.3,1.6,1.3,2.5,3,2.5c1.5,0,2.3-0.6,2.3-1.7c0-1.1-0.6-1.6-1.8-1.7l-1.8-0.2
			c-2.2-0.2-3.2-1.5-3.2-3.2c0-2,1.6-3.3,4.2-3.3c2.5,0,4.2,1.3,4.5,3.4l-1.9,0.4c-0.2-1.3-1.2-2.3-2.7-2.3c-1.5,0-2.3,0.6-2.3,1.7
			c0,1,0.6,1.5,2,1.7l1.8,0.2c2.2,0.2,3.1,1.4,3.1,3.2c0,2.1-1.6,3.4-4.3,3.4C624.8,367.5,623,366.2,622.6,363.8z"/>
		<path class="st0" d="M636.6,361.5l-3.7-5.4h2.2l2,3.1c0.4,0.6,0.6,1,0.6,1.2h0c0.1-0.2,0.3-0.6,0.6-1.2l1.9-3.1h2.3l-3.7,5.5
			l4,5.6h-2.2l-2.3-3.4c-0.4-0.5-0.6-1-0.6-1.1h0c0,0.2-0.2,0.5-0.6,1.1l-2.3,3.4h-2.2L636.6,361.5z"/>
		<path class="st0" d="M655.7,357.7h-2.8v9.6H651v-9.6h-2v-1.6h2v-1.8c0-2,1.3-3.4,3.2-3.4c0.5,0,1,0,1.4,0.2v1.6
			c-0.4-0.1-0.8-0.1-1.2-0.1c-1.1,0-1.6,0.6-1.6,2v1.5h2.8V357.7z M658.1,351.7h2.2v2.4h-2.2V351.7z M658.2,356.1h1.9v11.1h-1.9
			V356.1z"/>
		<path class="st0" d="M666.1,367.3h-1.9v-16.1h1.9V367.3z"/>
		<path class="st0" d="M679,362.3h-7.9c0,2.2,1.3,3.6,3.3,3.6c1.4,0,2.5-0.8,3-2.1l1.6,0.7c-0.8,2-2.4,3.1-4.6,3.1
			c-3.2,0-5.1-2-5.1-5.7c0-3.7,1.9-6,5-6c3,0,4.7,1.7,4.7,5V362.3z M677.1,360.5c0-2-1-3.1-2.9-3.1c-2,0-3.1,1.3-3.1,3.4h6V360.5z"
			/>
	</g>
</g>
<g>
	<g>
		<path class="st0" d="M299.7,325.3c0-7,3.6-12.2,8.1-12.2c4.4,0,8,4.9,8,11.9c0,7-3.6,12.2-8.1,12.2
			C303.3,337.2,299.7,332.3,299.7,325.3z M312.9,325.8c0-7-2.3-11.3-5.5-11.3c-2.9,0-5,3.8-5,10c0,7,2.3,11.3,5.5,11.3
			C310.8,335.8,312.9,332,312.9,325.8z"/>
		<path class="st0" d="M323,344.6h-6v-0.9l0.5-0.1c0.9-0.1,1.4-0.9,1.4-2.2v-16.7c0-0.9-0.2-1.2-1.1-1.8l-0.9-0.6l4.2-1.5v2.1
			l-0.7,1.4v1.1l0.4-0.9c1.2-2.5,2.5-3.7,4-3.7c2.7,0,4.7,3.2,4.7,7.5c0,5.1-2.5,8.8-5.8,8.8c-1,0-1.8-0.2-2.5-0.7v4.9
			c0,1.4,0.5,2.1,1.4,2.2l0.5,0.1V344.6z M321.1,325.2v9.2c0.6,0.8,1.6,1.4,2.4,1.4c2.1,0,3.5-2.7,3.5-6.7c0-3.6-1.3-6.2-3.3-6.2
			C322.7,322.9,321.7,323.9,321.1,325.2z"/>
		<path class="st0" d="M332.5,328v0.6h0.8c0.1,3.8,1.6,6.5,3.6,6.5c1.7,0,2.8-0.9,3.6-2.8l0,0c-0.4,2.9-2,4.8-4.1,4.8
			c-3.3,0-5.5-3.2-5.5-8c0-4.6,2.4-8.4,5.2-8.4c2.8,0,4.7,2.9,4.6,7.1H332.5z M333.4,326.8h5.1c0-2.7-1-4.6-2.4-4.6
			C334.6,322.2,333.6,323.8,333.4,326.8z"/>
		<path class="st0" d="M343,322.9l-0.9-0.6l4.2-1.5v2l-0.7,1.4v1l0.5-0.9c1.2-2.3,2.6-3.5,4-3.5c2.1,0,3.3,1.8,3.3,5v7.9
			c0,1.4,0.5,2.1,1.4,2.2l0.5,0.1v0.9h-5.8V336l0.4-0.1c0.9-0.1,1.3-0.9,1.3-2.2V326c0-2-0.8-3.1-2.2-3.1c-1,0-2,0.8-2.7,2.1v8.7
			c0,1.4,0.4,2.1,1.3,2.2l0.4,0.1v0.9h-5.8V336l0.5-0.1c0.9-0.1,1.4-0.9,1.4-2.2v-9C344.1,323.8,343.9,323.5,343,322.9z"/>
		<path class="st0" d="M357.1,322.9l-0.9-0.6l4.2-1.5v2.5c-0.1,0.3-0.5,1.4-0.6,1.7v1.4c0.9-3.3,2.5-5.7,4.1-5.7
			c1.2,0,1.9,1.1,1.9,2.3c0,1.3-0.6,2.1-1.3,2.2c-0.7,0-1.4-0.7-1.4-1.8c0-0.3,0.1-0.6,0.2-0.7h0.3v-0.6c-1.5-0.1-2.9,2.3-3.3,4.2
			v7.3c0,1.3,0.4,2.1,1.3,2.2l0.6,0.1v0.9h-6V336l0.5-0.1c1-0.1,1.4-0.9,1.4-2.2v-9C358.2,323.8,358,323.5,357.1,322.9z"/>
		<path class="st0" d="M367.9,328v0.6h0.8c0.1,3.8,1.6,6.5,3.6,6.5c1.7,0,2.8-0.9,3.6-2.8l0,0c-0.4,2.9-2,4.8-4.1,4.8
			c-3.3,0-5.5-3.2-5.5-8c0-4.6,2.4-8.4,5.2-8.4c2.8,0,4.7,2.9,4.6,7.1H367.9z M368.7,326.8h5.1c0-2.7-1-4.6-2.4-4.6
			C369.9,322.2,368.9,323.8,368.7,326.8z"/>
		<path class="st0" d="M379.3,322.5h-1.9v-1.3h1.9v-1c0-4.3,1.9-7.3,4.7-7.3c1.7,0,3.1,1.2,3.1,2.8c0,0.9-0.5,1.7-1.2,1.7
			c-0.9,0-1.4-1-1.2-2.3h0.5c0-0.7-0.5-1.1-1.3-1.1c-1.5,0-2.3,1.4-2.3,3.8v3.4h3.1v1.3h-3.9v0.6h0.8v10.6c0,1.4,0.4,2.1,1.3,2.2
			l0.6,0.1v0.9h-5.9V336l0.5-0.1c0.9-0.1,1.4-0.9,1.4-2.2V322.5z"/>
		<path class="st0" d="M389.6,320.8v12.9c0,1.4,0.5,2.1,1.4,2.2l0.5,0.1v0.9h-6V336l0.5-0.1c0.9-0.1,1.4-0.9,1.4-2.2v-9
			c0-0.9-0.2-1.2-1.1-1.8l-0.9-0.6L389.6,320.8z M387.3,314h2.4v3.3h-2.4V314z"/>
		<path class="st0" d="M393.4,322.9l-0.9-0.6l4.2-1.5v2l-0.7,1.4v1l0.5-0.9c1.2-2.3,2.6-3.5,4-3.5c2.1,0,3.3,1.8,3.3,5v7.9
			c0,1.4,0.5,2.1,1.4,2.2l0.5,0.1v0.9h-5.8V336l0.4-0.1c0.9-0.1,1.3-0.9,1.3-2.2V326c0-2-0.8-3.1-2.2-3.1c-1,0-2,0.8-2.7,2.1v8.7
			c0,1.4,0.4,2.1,1.3,2.2l0.4,0.1v0.9h-5.8V336l0.5-0.1c0.9-0.1,1.4-0.9,1.4-2.2v-9C394.5,323.8,394.3,323.5,393.4,322.9z"/>
		<path class="st0" d="M408.3,328v0.6h0.8c0.1,3.8,1.6,6.5,3.6,6.5c1.7,0,2.8-0.9,3.6-2.8l0,0c-0.4,2.9-2,4.8-4.1,4.8
			c-3.3,0-5.5-3.2-5.5-8c0-4.6,2.4-8.4,5.2-8.4c2.8,0,4.7,2.9,4.6,7.1H408.3z M409.2,326.8h5.1c0-2.7-1-4.6-2.4-4.6
			C410.4,322.2,409.4,323.8,409.2,326.8z"/>
	</g>
	<g>
		<path class="st0" d="M321.7,361.8h-2.6v-2.6h2.6V361.8z"/>
		<path class="st0" d="M327.6,356.1l-3.7-5.4h2.2l2,3.1c0.4,0.6,0.6,1,0.6,1.2h0c0.1-0.2,0.3-0.6,0.6-1.2l1.9-3.1h2.3l-3.7,5.5
			l4,5.6h-2.2l-2.3-3.4c-0.4-0.5-0.6-1-0.6-1.1h0c0,0.2-0.2,0.5-0.6,1.1l-2.3,3.4h-2.2L327.6,356.1z"/>
		<path class="st0" d="M338.3,361.8h-1.9v-16.1h1.9V361.8z"/>
		<path class="st0" d="M341.3,358.4l1.9-0.3c0.3,1.6,1.3,2.5,3,2.5c1.5,0,2.3-0.6,2.3-1.7c0-1.1-0.6-1.6-1.8-1.7l-1.8-0.2
			c-2.2-0.2-3.2-1.5-3.2-3.2c0-2,1.6-3.3,4.2-3.3c2.5,0,4.2,1.3,4.5,3.4l-1.9,0.4c-0.2-1.3-1.2-2.3-2.7-2.3c-1.5,0-2.3,0.6-2.3,1.7
			c0,1,0.6,1.5,2,1.7l1.8,0.2c2.2,0.2,3.1,1.4,3.1,3.2c0,2.1-1.6,3.4-4.3,3.4C343.5,362.1,341.7,360.8,341.3,358.4z"/>
		<path class="st0" d="M355.3,356.1l-3.7-5.4h2.2l2,3.1c0.4,0.6,0.6,1,0.6,1.2h0c0.1-0.2,0.3-0.6,0.6-1.2l1.9-3.1h2.3l-3.7,5.5
			l4,5.6h-2.2l-2.3-3.4c-0.4-0.5-0.6-1-0.6-1.1h0c0,0.2-0.2,0.5-0.6,1.1l-2.3,3.4h-2.2L355.3,356.1z"/>
		<path class="st0" d="M374.3,352.3h-2.8v9.6h-1.9v-9.6h-2v-1.6h2v-1.8c0-2,1.3-3.4,3.2-3.4c0.5,0,1,0,1.4,0.2v1.6
			c-0.4-0.1-0.8-0.1-1.2-0.1c-1.1,0-1.6,0.6-1.6,2v1.5h2.8V352.3z M376.8,346.2h2.2v2.4h-2.2V346.2z M376.9,350.7h1.9v11.1h-1.9
			V350.7z"/>
		<path class="st0" d="M384.8,361.8h-1.9v-16.1h1.9V361.8z"/>
		<path class="st0" d="M397.7,356.8h-7.9c0,2.2,1.3,3.6,3.3,3.6c1.4,0,2.5-0.8,3-2.1l1.6,0.7c-0.8,2-2.4,3.1-4.6,3.1
			c-3.2,0-5.1-2-5.1-5.7c0-3.7,1.9-6,5-6c3,0,4.7,1.7,4.7,5.1V356.8z M395.8,355c0-2-1-3.1-2.9-3.1c-2,0-3.1,1.3-3.1,3.4h6V355z"/>
	</g>
</g>
<g>
	<g>
		<path class="st0" d="M95.2,320.9c1.7-3.3,2.1-5.3,2-7.3l2.8-0.7c0.1,1.4-0.3,3.2-2.9,7.5c-1.4,2.3-2.9,4.8-4.5,7.2h5.6V323
			l2.2-1.8v6.2c1.1-0.3,1.8-1.1,2.1-2.4l0.3-1h0.8l-0.6,5.7h-3.4v0.6h0.8v3.4c0,1.4,0.3,2.1,1.3,2.2l0.5,0.1v0.9h-5.9V336l0.5-0.1
			c1.1-0.1,1.3-0.9,1.3-2.2v-4h-7.9C92.2,326.7,93.7,323.9,95.2,320.9z"/>
		<path class="st0" d="M105,325.5c0-7,3.5-12.4,8-12.4c2.2,0,3.9,1.3,5,3.9v-1.2c-0.1-0.2-0.6-1-0.8-1.2l1.9-1.4v8.2h-0.8l-0.5-1.5
			c-1-3.4-2.7-5.2-4.8-5.2c-3.1,0-5.2,4.1-5.2,10.3c0,6.1,2.3,10.4,5.6,10.4c2.5,0,4.2-1.6,5.8-5.3l0.1,0.1c-0.9,4.3-3.4,7-6.3,7
			C108.4,337.2,105,332.2,105,325.5z"/>
		<path class="st0" d="M131.4,329.7l-0.2-0.7h-7.3l-1.1,3.5c-0.7,2.2-0.2,3.2,1,3.4l0.4,0.1v1h-4.9V336c0.8-0.3,1.6-1.1,2.1-2.8
			l6.4-20.8h0l6.5,21c0.5,1.5,1,2.2,2,2.5v0.9h-6v-1l0.4-0.1c0.9-0.1,1.4-0.9,0.9-2.4l-1.2-3.8H131.4z M124.2,327.8h5.7l-2.9-9.5
			L124.2,327.8z"/>
		<path class="st0" d="M150,313.5l0.3,7.3h-0.8l-0.4-1.9c-0.6-2.9-1.7-4.1-3.6-4.1h-2.3v0.7h0.9v17.8c0,1.5,0.6,2.3,1.7,2.5l0.6,0.1
			v1h-7.1v-1l0.6-0.1c1.1-0.1,1.7-0.9,1.7-2.5v-18.5h-1.5c-1.9,0-3,1.2-3.6,4.1l-0.4,1.9h-0.8l0.3-7.3H150z"/>
	</g>
	<g>
		<path class="st0" d="M83.8,361.8h-2.6v-2.6h2.6V361.8z"/>
		<path class="st0" d="M89.7,356.1l-3.7-5.4h2.2l2,3.1c0.4,0.6,0.6,1,0.6,1.2h0c0.1-0.2,0.3-0.6,0.6-1.2l1.9-3.1h2.3l-3.7,5.5l4,5.6
			h-2.2l-2.3-3.4c-0.4-0.5-0.6-1-0.6-1.1h0c0,0.2-0.2,0.5-0.6,1.1l-2.3,3.4h-2.2L89.7,356.1z"/>
		<path class="st0" d="M100.3,361.8h-1.9v-16.1h1.9V361.8z"/>
		<path class="st0" d="M103.3,358.4l1.9-0.3c0.3,1.6,1.3,2.5,3,2.5c1.5,0,2.3-0.6,2.3-1.7c0-1.1-0.6-1.6-1.8-1.7l-1.8-0.2
			c-2.2-0.2-3.2-1.5-3.2-3.2c0-2,1.6-3.3,4.2-3.3c2.5,0,4.2,1.3,4.5,3.4l-1.9,0.4c-0.2-1.3-1.2-2.3-2.7-2.3c-1.5,0-2.3,0.6-2.3,1.7
			c0,1,0.6,1.5,2,1.7l1.8,0.2c2.2,0.2,3.1,1.4,3.1,3.2c0,2.1-1.6,3.4-4.3,3.4C105.5,362.1,103.7,360.8,103.3,358.4z"/>
		<path class="st0" d="M117.4,356.1l-3.7-5.4h2.2l2,3.1c0.4,0.6,0.6,1,0.6,1.2h0c0.1-0.2,0.3-0.6,0.6-1.2l1.9-3.1h2.3l-3.7,5.5
			l4,5.6h-2.2l-2.3-3.4c-0.4-0.5-0.6-1-0.6-1.1h0c0,0.2-0.2,0.5-0.6,1.1l-2.3,3.4h-2.2L117.4,356.1z"/>
		<path class="st0" d="M136.4,352.3h-2.8v9.6h-1.9v-9.6h-2v-1.6h2v-1.8c0-2,1.3-3.4,3.2-3.4c0.5,0,1,0,1.4,0.2v1.6
			c-0.4-0.1-0.8-0.1-1.2-0.1c-1.1,0-1.6,0.6-1.6,2v1.5h2.8V352.3z M138.8,346.2h2.2v2.4h-2.2V346.2z M138.9,350.7h1.9v11.1h-1.9
			V350.7z"/>
		<path class="st0" d="M146.8,361.8H145v-16.1h1.9V361.8z"/>
		<path class="st0" d="M159.7,356.8h-7.9c0,2.2,1.3,3.6,3.3,3.6c1.4,0,2.5-0.8,3-2.1l1.6,0.7c-0.8,2-2.4,3.1-4.6,3.1
			c-3.2,0-5.1-2-5.1-5.7c0-3.7,1.9-6,5-6c3,0,4.7,1.7,4.7,5V356.8z M157.8,355c0-2-1-3.1-2.9-3.1c-2,0-3.1,1.3-3.1,3.4h6V355z"/>
	</g>
</g>
<g>
	<rect x="119.6" y="250.1" class="st0" width="1.2" height="35.3"/>
</g>
<g>
	<rect x="357.6" y="250.1" class="st0" width="1.2" height="35.3"/>
</g>
<g>
	<rect x="641.5" y="250.1" class="st0" width="1.2" height="35.3"/>
</g>
<g>
	<rect x="931.4" y="250.1" class="st0" width="1.2" height="35.3"/>
</g>
<g>
	<rect x="1202.3" y="250.1" class="st0" width="1.2" height="35.3"/>
</g>
</svg>
