<?xml version="1.0" encoding="utf-8"?>
<!-- Generator: Adobe Illustrator 26.0.2, SVG Export Plug-In . SVG Version: 6.00 Build 0)  -->
<svg version="1.1" id="Livello_1" xmlns="http://www.w3.org/2000/svg" xmlns:xlink="http://www.w3.org/1999/xlink" x="0px" y="0px"
	 viewBox="0 0 37.7 37.7" style="enable-background:new 0 0 37.7 37.7;" xml:space="preserve">
<style type="text/css">
	.st0{display:none;}
	.st1{display:inline;}
	.st2{fill:#FFFFFF;}
</style>
<g id="Layer_1" class="st0">
	<rect x="-0.5" y="-0.5" class="st1" width="1366" height="768"/>
</g>
<g id="Layer_2">
	<g>
		<g>
			<g>
				<path class="st2" d="M25.3,27.7L24.6,27c4.5-4.5,4.5-11.8,0-16.4l0.7-0.7C30.2,14.8,30.2,22.8,25.3,27.7z"/>
			</g>
			<g>
				<path class="st2" d="M22.7,25.2L22,24.5c3.1-3.1,3.1-8.1,0-11.2l0.7-0.7c1.7,1.7,2.6,3.9,2.6,6.3S24.4,23.5,22.7,25.2z"/>
			</g>
			<g>
				<path class="st2" d="M20,22.5l-0.7-0.7c1.6-1.6,1.6-4.2,0-5.8l0.7-0.7C22,17.3,22,20.5,20,22.5z"/>
			</g>
			<g>
				<path class="st2" d="M17.3,25.7L13,21.4H8.7v-5H13l4.3-4.3V25.7z M9.7,20.4h3.7l2.9,2.9v-8.8l-2.9,2.9H9.7V20.4z"/>
			</g>
		</g>
	</g>
</g>
</svg>
