<svg xmlns="http://www.w3.org/2000/svg" version="1.1" id="svg1589" x="0" y="0" width="900" height="600" xml:space="preserve"><style type="text/css" id="style4614">.st1{fill:#fff}</style><g id="g4701" transform="translate(0,100)"><path id="_x32_1461584" d="M 900,500 V -100 H 0 v 600 z" fill="#006c35" stroke-width="1.2"/><g id="g4699" transform="matrix(0.064,0,0,0.064,0,468)"><g id="g4695" transform="matrix(18.0964,0,0,17.213631,246.63518,-8836.1551)"><g id="g4623"><path class="st1" d="m 536.3,143.5 c 4.4,-3.3 8.5,-7 13.4,-9.6 -1.4,5.9 -5.6,10.4 -9.9,14.2 -2.2,1.8 -1.2,5.1 -1.5,7.6 -1.2,-0.3 -2.3,-0.6 -3.5,-1 1.1,15 2.7,29.9 3.4,44.9 0.1,1.7 0.2,3.5 1.6,4.6 6.6,6.2 13.4,12.3 18.2,20.2 1.9,3.1 2.9,6.6 3.9,10.1 1.2,-5.8 1.1,-11.8 0.5,-17.7 -2.4,-22.8 -4.6,-45.7 -6.5,-68.6 -0.2,-2.8 -0.6,-5.7 -0.3,-8.5 0.2,-2.6 2.7,-4.8 5.2,-4.6 1.5,1.3 2.3,3.1 3.1,4.9 2,4.7 3.8,9.8 3.3,15.1 -1.2,-0.4 -2.4,-0.9 -3.7,-1.4 1.8,15.5 3.6,31 4.7,46.6 0.5,10.5 2,21.1 -0.1,31.5 -1.8,9.6 -6.3,19.3 -14.3,24.8 -6.7,4.6 -14.5,7.2 -22.3,8.9 -3.2,0.7 -6.5,1 -9.6,0.1 3.3,-1.9 7,-3.3 10.5,-4.9 5.1,-2.3 10,-4.8 14.6,-8 4.3,-3 8.8,-6 12,-10.4 -4,-11.2 -10.6,-21.7 -20,-28.6 0.3,11 0.8,22.2 -0.8,33.1 -0.3,2.6 -1.4,4.9 -3.1,6.7 -1.1,-4.6 -1.2,-9.4 -1.7,-14.1 -0.9,-10.2 -1.7,-20.5 -2.4,-30.7 0,-2.1 -1.3,-3.7 -2.8,-4.9 -5.9,-5.2 -11.4,-11 -17.1,-16.4 0.2,6.3 1.1,12.5 1.5,18.7 0.7,8.4 0.8,16.8 1.6,25.2 0.5,5.9 0.6,12.1 -1.5,17.7 -2.1,5.3 -6.8,9.8 -12.4,10.2 -3,0.3 -6,0 -8.9,-0.5 -3.1,-0.5 -5.5,-3 -6.9,-5.8 -1.7,-3.4 -2.6,-7.2 -4,-10.7 -2.6,0.6 -5.3,1.2 -7.2,3.3 -4,4 -5.2,10.1 -7.1,15.3 -1.1,3.1 -2.4,6.5 -5.3,8.2 -3,1.8 -6.7,1.1 -9.6,-0.6 -4.4,-2.5 -7.1,-7.3 -8.4,-12.2 -1.3,-3.8 0.5,-8.2 -1.7,-11.8 -1.6,-3.3 -0.7,-7.2 0.1,-10.6 1.7,-6.1 5.3,-11.3 9.6,-15.7 -5.7,-5.2 -11.4,-10.4 -17.1,-15.6 0.5,14.4 1.6,28.8 -0.2,43.1 -0.3,2.9 -1.3,5.6 -3.3,7.7 -0.6,-2.7 -1,-5.5 -1.2,-8.3 -1.4,-15.8 -2.6,-31.6 -3.6,-47.4 -0.1,-1.8 -0.4,-3.8 -1.8,-5 -5.8,-5.8 -11.4,-12 -16.6,-18.5 -3,-4 -6.1,-8.1 -7.7,-12.9 -0.6,-2 -1.1,-4.8 0.7,-6.3 2.1,0.2 4,1.2 5.8,2.2 3.3,2 6.4,4.6 9.1,7.6 1.2,1.3 1.8,3 2.3,4.7 -1.7,0 -3.3,-0.1 -5,-0.1 3.4,5.1 7.4,9.8 12,13.8 -0.4,-13.4 -1.8,-26.9 -2.4,-40.3 0,-1.8 0,-3.8 1.2,-5.3 1.1,-1.3 2.8,-1.8 4.3,-2.4 2.8,4.3 4.8,9.1 6,14.2 0.5,2 0.4,4.1 0.3,6.2 -1.2,-0.3 -2.4,-0.7 -3.5,-1.1 0.8,10.9 1.9,21.7 2.6,32.6 0.1,1.5 0.2,3.1 0.6,4.6 0.6,1.1 1.5,1.8 2.3,2.6 7.1,6.3 14.2,12.6 21.4,18.7 4.3,-3.9 8.5,-7.9 12.8,-11.7 1,-0.9 2,-1.7 2.8,-2.7 0.8,-0.9 0.5,-2.2 0.5,-3.3 -1.4,-13.1 -2.4,-26.2 -3.5,-39.3 -0.3,-4.8 -1,-9.5 -1,-14.2 -0.1,-2.8 2,-5.6 4.7,-5.7 1.2,-0.1 1.7,1.3 2.3,2.1 2,3.7 3.5,7.7 4.4,11.9 0.5,2 0.3,4.1 -0.1,6.2 -1.1,-0.5 -2.3,-1.1 -3.4,-1.6 1.5,12.3 2.7,24.6 3.8,36.9 3.1,-2.4 5.9,-5.2 8.8,-7.8 3.2,-2.9 6.6,-5.7 9.7,-8.8 -3.7,-4.2 -7.6,-8.1 -11.4,-12.2 -2.4,-2.6 -5.3,-5.1 -6.3,-8.8 -0.8,-2.6 -0.3,-5.4 0.2,-7.9 4.5,0.8 8.4,3.6 12,6.4 2.5,2 4.7,4.3 6.9,6.6 -0.2,-5.2 -0.8,-10.4 -1.2,-15.6 0,-2 -0.2,-4.2 1.1,-5.8 1.1,-1.3 2.8,-1.8 4.2,-2.5 2.9,4 4.7,8.8 5.9,13.6 0.6,2.2 0.6,4.4 0.5,6.6 -1.2,-0.3 -2.5,-0.6 -3.7,-0.9 0.4,4 0.8,7.9 1.3,11.9 4.7,-3.7 9,-7.9 13.7,-11.6 1.6,-1.6 4.5,-2.8 4.5,-5.6 0.1,-3 -0.5,-6.1 -0.1,-9.1 0.3,-2.6 2.7,-4.7 5.2,-4.5 2.4,2.4 3.3,5.4 4.6,8 z m -24.4,28.9 c -0.8,0.9 -2.3,1.7 -2.2,3.2 0.6,1.3 1.8,2.3 2.8,3.4 5.8,5.5 11.3,11.3 17.4,16.3 -0.2,-5.9 -0.8,-11.7 -1.1,-17.6 -0.5,-6.2 -0.7,-12.4 -1.3,-18.6 -5.4,4.1 -10.3,8.9 -15.6,13.3 z m -14.7,-10.9 c 1.3,1.5 2.5,3 3.8,4.5 0,-1.5 -0.1,-3 -0.1,-4.5 -1.2,0 -2.5,0 -3.7,0 z m -14,36.5 c -1,0.9 -2.2,1.9 -2.1,3.4 -0.1,7.6 0.7,15.4 -1.1,22.8 -0.4,1.9 -1.7,3.2 -3,4.4 -1.6,-7.3 -1.7,-14.8 -2.9,-22.2 -4.3,3.6 -8.4,7.5 -12.4,11.4 2.3,2.7 4.6,5.6 5.4,9.3 1.3,5.1 -0.2,11 -4.2,14.4 -4.9,4.3 -11.5,5 -17.6,5.8 0.9,4.2 1.7,8.6 4.1,12.2 1.5,2.1 3.9,4.1 6.5,3.3 2.8,-0.8 4.5,-3.6 5.5,-6.2 2,-5.3 4.2,-10.5 7.2,-15.3 2.4,-4 6.3,-7.3 10.9,-7.4 1.5,0.1 3.5,-0.4 4.4,1.3 2,3.5 2.7,7.7 5.2,11 4.2,5.8 13.1,5.9 18.1,1.1 1.7,-1.6 1.7,-4.2 1.5,-6.4 -2.3,-19.9 -4,-40 -6,-59.9 -6.7,5.5 -13,11.3 -19.5,17 z m -35.3,34 c -1.1,1.5 -1.7,3.4 -2.2,5.3 4.5,0.5 9.1,-0.5 13,-2.9 1.2,-0.8 2.6,-2.1 2.3,-3.8 -0.3,-3.4 -3,-5.8 -5.4,-7.8 -2.7,2.8 -5.4,5.9 -7.7,9.2 z" id="path4621" fill="#fff"/></g><path class="st1" d="m 260.1,135 c 1.2,-0.8 2.3,0.6 3.1,1.5 2.4,3.1 5,6.2 6.4,10 -1.2,0.2 -2.5,0.4 -3.7,0.6 0.3,6 5.1,10.1 6.5,15.8 1,3.5 1.1,7.3 0.4,10.8 -1,4.8 -4.8,9 -9.5,9.8 -5.5,1 -11.7,-0.4 -15.8,-4.7 -2.7,-2.8 -3.7,-6.8 -4.9,-10.4 -1.3,4.9 -3.2,9.6 -6.5,13.4 -1.9,2.3 -4.4,3.9 -6.9,5.3 0.7,13.4 2,26.8 0.9,40.1 -0.4,3.8 -0.6,8.3 -3.9,10.8 -1.2,-5.3 -1.4,-10.8 -2,-16.3 -1.1,-11.1 -1.9,-22.2 -3,-33.3 -3.1,-0.8 -6.5,-1.5 -8.9,-3.9 -4,-3.8 -5.3,-9.7 -5,-15.1 0.1,-4.2 1.4,-8.3 2.3,-12.4 -1.5,1.6 -2.7,3.5 -3.4,5.6 -2.1,6.7 -3.5,13.7 -6.4,20.1 -1.1,2.5 -3.2,4.6 -5.8,5.2 -3.2,0.7 -7,0.5 -9.5,-2.1 -2.7,-2.8 -3.3,-7 -3.7,-10.8 -0.2,-3.9 -0.5,-8.1 1.2,-11.7 1,-2.2 3.1,-3.4 4.9,-4.5 -1.2,2.1 -2.6,4.2 -2.9,6.6 -0.4,3.4 0.2,6.9 0.8,10.2 0.4,2 0.8,4.2 2.3,5.6 2.3,2.2 6.2,2 8.4,-0.2 1.2,-1.4 1.8,-3.2 2.4,-4.9 2,-6.4 3.6,-13 6.1,-19.2 2.2,-5.2 6.1,-10.3 11.7,-11.4 -0.6,7.1 -3.7,13.7 -3.9,20.9 -0.1,3.2 0.2,6.7 2.2,9.2 1.5,2.1 4,2.8 6.3,3.5 -0.6,-9.7 -1.5,-19.4 -2.1,-29.2 -0.2,-3.6 -0.8,-7.3 -0.2,-10.9 0.5,-2.5 3.1,-3.4 5.1,-4.2 3.8,5.9 6.6,12.9 6.5,20.1 -1.3,-0.3 -2.5,-0.6 -3.8,-0.9 0.8,8.3 1.6,16.7 2.5,25 3.3,-1.1 6.3,-3.2 8.2,-6.3 3.9,-5.9 4.5,-13.6 2.6,-20.4 -0.8,-2.9 -2.1,-5.6 -2.7,-8.6 -0.6,-2.8 1.3,-5.7 3.7,-6.6 1.1,-0.5 1.6,0.9 2.1,1.7 1.5,3.4 2,7.2 2.7,10.9 0.9,4.9 0,10 1.7,14.7 1.4,4 3.9,7.7 7.5,9.8 2.9,1.7 6.3,2.1 9.6,1.5 1.6,-0.3 2.9,-1.7 3.3,-3.4 0.8,-3.2 -0.3,-6.5 -1.6,-9.4 -3,-6.6 -6.7,-12.9 -8.1,-20.1 -0.5,-2.6 0.2,-6.2 2.8,-7.8 z" id="path4625" fill="#fff"/><path class="st1" d="m 397.4,142.7 c 1.9,-3.4 4.9,-6 8.3,-7.7 -0.9,2.5 -2.3,4.6 -3.6,6.8 -1,1.6 -1,3.6 -1.1,5.4 2.3,-0.1 4.6,-0.5 6.8,-1.1 -0.6,1.9 -1.2,3.9 -2.9,5.1 -1.9,1.4 -4.7,2.3 -6.7,0.6 -2.1,-2.3 -2.4,-6.3 -0.8,-9.1 z" id="path4627" fill="#fff"/><g id="g4631"><path class="st1" d="m 273.4,138.3 c 1,-1.6 2.9,-2.2 4.4,-2.9 3.1,4.2 5,9.3 6.2,14.4 0.5,2 0.3,4 0.1,6 -1.1,-0.4 -2.3,-0.8 -3.4,-1.2 1.3,9.7 2.9,19.3 4,29 5.3,-2.7 10.2,-6 15.7,-8.4 1.7,-0.8 3.5,-1.2 5.4,-1.4 -0.7,1.6 -1.5,3.2 -3.1,3.9 -5.8,3.1 -11.7,5.8 -17.4,9.2 0.5,4.8 1,9.7 1.6,14.5 2.6,-3.5 4.9,-7.9 9.4,-9 0.2,2.6 -0.6,5.7 1.2,7.8 2.8,2.3 6.6,0.9 9.2,-1.2 -0.2,-3.8 0.8,-7.5 1.5,-11.2 1.1,0.5 2.5,0.7 2.9,2.1 1.2,3.5 0.9,7.4 0,10.9 -0.9,4 -4,7 -7.4,8.8 -2.1,1.1 -4.7,1.7 -7,0.7 -2.4,-1 -3.9,-3.4 -5.5,-5.5 -1.4,3.6 -3.7,6.9 -3.8,11 -0.4,8.6 -3.6,16.8 -8.5,23.6 -8.5,11.7 -21.5,18.7 -34.7,22.8 -7.6,2.2 -15.5,4.2 -23.5,3.8 -4.3,-0.1 -8.7,-1.1 -12.4,-3.5 -1.6,-1.1 -3,-2.6 -4.6,-3.6 -2,-0.4 -4.1,0.2 -6.2,0.2 -5,0.2 -10,0.4 -14.9,-0.5 6,-2.1 12.1,-3.7 18,-6 -1.6,-11.3 0.5,-23 6,-32.8 1.5,-2.6 3.4,-4.9 5.4,-6.9 -1.7,3.6 -3.8,7.1 -4.7,11.1 -2.1,8.4 -2,17.4 0.4,25.6 4.1,-1.4 8.1,-3.3 12,-5.1 9.1,-4.2 18,-8.7 26.3,-14.5 3.1,-2.3 6.3,-4.7 8.4,-8.2 1,-1.7 0.8,-3.7 0.8,-5.6 -4.3,0.9 -8.5,3 -13,2.9 -2.8,-0.2 -5.8,-0.8 -7.8,-3.1 -2,-2.3 -2.1,-5.6 -1.7,-8.5 0.6,-3.8 2.2,-7.6 5.1,-10.1 3.3,-2.9 8.2,-2.8 12,-1 3.7,1.8 5.8,5.6 7.6,9.2 5.6,-2.2 9.4,-7.4 14.9,-9.9 0.2,3 -0.1,6.5 2.1,8.9 1.3,1.7 3.5,1.6 5.3,1.8 -0.3,-4.8 -1,-9.5 -1.6,-14.2 -1.9,-15.7 -3.8,-31.5 -5.4,-47.3 -0.1,-2.3 -0.4,-4.7 0.7,-6.6 z m -34.2,68.3 c -0.5,1.1 0.7,1.8 1.5,2.2 3,1.1 6.3,0.4 9.4,-0.2 -1.6,-1.8 -3.5,-3.8 -6.1,-3.9 -1.7,-0.1 -4.1,0 -4.8,1.9 z m 21.8,6.5 c 0.2,3.2 0.3,6.4 -0.7,9.4 -1.6,5.1 -5.3,9.2 -9.1,12.6 -7.3,6.3 -15.9,10.4 -24.2,15 -3.7,2.3 -7.7,4.1 -11.7,5.9 5.1,0.4 10.2,-0.5 15.2,-0.9 7.7,-0.5 15.1,-2.8 22.2,-5.8 7.4,-3.2 14.6,-7.3 20.4,-13.3 3.5,-3.6 6.3,-8.1 7.5,-13.2 0.6,-2.5 0.6,-5.1 0.7,-7.7 -3,-0.1 -6.2,0 -8.9,-1.6 -2.2,-1.3 -3.4,-3.8 -4.7,-6 -2.1,2.1 -4.4,4 -6.7,5.6 z" id="path4629" fill="#fff"/></g><path class="st1" d="m 342.3,138 c 1.1,-1.3 3.1,-1.1 4.4,-0.2 2.9,2 4.6,5.7 4.4,9.3 -0.1,1.7 -0.8,3.2 -1.3,4.7 -0.4,-2.3 -0.3,-4.7 -1.3,-6.8 -1.5,-2.2 -4.3,-2.6 -6.1,-4.4 -0.7,-0.6 -1,-2 -0.1,-2.6 z" id="path4633" fill="#fff"/><path class="st1" d="m 383.3,139.2 c 0.2,-1.4 1.5,-2.9 2.9,-2.1 3.9,2 6.7,5.8 8.5,9.9 -1.4,0 -2.8,-0.1 -4.1,-0.2 0.7,2.8 1.4,5.5 2.5,8.2 1.5,3.8 3.6,7.4 4.2,11.6 0.7,4.6 -0.1,9.8 -3.2,13.3 -5.8,6.8 -17.4,5.6 -22.4,-1.7 -1.9,-2.6 -2.9,-5.6 -3.9,-8.7 -1.6,6.6 -5,13 -10.7,16.4 -5.8,3.7 -13.5,3.2 -19,-0.7 -3.4,-2.3 -5.7,-6.3 -5.7,-10.5 -0.4,-6.2 1.9,-12 2.7,-18 -1.4,1.5 -2.7,3.2 -3.3,5.3 -2.4,6.7 -3.4,13.9 -6.8,20.2 -1.6,3 -4.3,5.7 -7.7,6 -3.3,0.2 -6.9,-1.1 -8.8,-4.1 -1.7,-2.8 -2.1,-6.2 -2.1,-9.5 0.1,-5 1.2,-10.1 3.4,-14.5 0,6.3 -1.8,13.2 1.2,19.1 1.5,3.3 5.5,5.2 8.6,3.4 2.8,-1.8 4.1,-5.2 5.1,-8.3 2.1,-6.6 4.3,-13.3 7.4,-19.5 1.3,-2.5 2.7,-5.1 4.9,-6.9 1.1,-1 2.7,-1 4.1,-1.3 0.3,5.6 -2.7,10.5 -3.7,15.9 -1,4.7 -1.3,10.3 1.9,14.2 3.6,4.1 9.6,5.1 14.6,3.7 6.9,-2.3 11.9,-9.6 12.2,-17.2 0.2,-4.5 0.4,-9.4 -1.9,-13.4 -1,-2.1 -2.9,-4.3 -2.1,-6.9 0.5,-2.6 2.3,-4.6 4.4,-5.8 1.5,2.5 2.8,5.2 3.1,8.2 0.8,6.9 0.9,14 3.2,20.6 1.4,3.8 3.5,7.7 7.2,9.5 3.4,1.7 7.6,2.1 10.9,0.3 2.1,-1.1 2.6,-3.8 2.1,-6 -1.4,-7.2 -6.1,-12.9 -8.3,-19.8 -1.2,-3.5 -2.1,-7.1 -1.4,-10.7 z" id="path4635" fill="#fff"/><path class="st1" d="m 450.5,137.7 c 2.1,-1 5.1,-0.2 6.1,2.1 0.4,1.1 -0.3,2.1 -1.1,2.7 -1.5,-0.3 -2.8,-1.1 -4.1,-1.7 -1.7,3.4 -2.6,7.2 -3.6,11 -0.7,-1.8 -1.3,-3.7 -2.4,-5.3 -1.4,-2 -3.6,-3 -5.2,-4.8 -0.5,-1.6 1.3,-3.4 2.8,-2.9 2.2,0.7 3.5,2.8 4.8,4.7 0.6,-2.1 0.9,-4.6 2.7,-5.8 z" id="path4637" fill="#fff"/><path class="st1" d="m 181.5,146.1 c 1.7,-3.8 5,-6.6 8.6,-8.4 -0.9,2.5 -2.4,4.6 -3.6,6.9 -1,1.6 -0.9,3.6 -1,5.4 2.3,-0.2 4.6,-0.7 6.9,-1.5 -0.7,1.9 -1.4,4 -3.1,5.3 -1.8,1.4 -4.5,2.2 -6.4,0.8 -2.2,-2 -2.6,-5.7 -1.4,-8.5 z" id="path4639" fill="#fff"/><g id="g4643"><path class="st1" d="m 309.4,141 c 0.6,-3.3 5.3,-3.2 6.8,-0.7 1,1.8 1.5,3.7 2.5,5.5 0.9,1.8 2,3.7 1.4,5.8 -0.9,3.3 -3.2,5.9 -3.5,9.4 1.1,-0.5 2.2,-1.1 3.3,-1.7 -0.3,1.8 0,4.2 -1.8,5.2 -2.2,1.1 -4.9,-1.1 -4.7,-3.6 0.3,-4.5 4.5,-8 3.2,-12.8 -4.2,5.9 -10,11.2 -17.1,12.3 3.1,-2.6 6.6,-4.4 9.4,-7.4 1.8,-1.8 3,-4.1 4.2,-6.3 -1.5,-1.6 -4.1,-3.1 -3.7,-5.7 z m 2.9,-0.3 c 0.7,1.1 1.6,2 2.6,2.6 -0.4,-1.3 -1.4,-2.2 -2.6,-2.6 z" id="path4641" fill="#fff"/></g><path class="st1" d="m 287.2,143.1 c 1.5,-0.4 3.3,-1 4.5,0.4 3.6,3.5 5.3,9.1 4.1,14.1 -0.8,-1.9 -1.4,-3.9 -2.3,-5.7 -1.5,-3.4 -4.8,-5.4 -6.3,-8.8 z" id="path4645" fill="#fff"/><path class="st1" d="m 255,145.2 c 1.5,1.7 2.2,3.8 1.9,6.1 -2.4,0.4 -4.8,1.1 -7.2,1.7 -1.3,0.4 -2.7,-0.6 -3,-2 -0.1,-1.5 0.4,-2.9 0.7,-4.4 0.5,1.5 1,3 1.5,4.6 0.6,-0.3 1.3,-0.5 1.9,-0.8 0,-1.4 0,-2.8 0,-4.1 0.5,0 1,0 1.4,0 0.2,1.2 0.4,2.5 0.6,3.7 0.8,-0.1 1.5,-0.2 2.3,-0.3 -0.1,-1.5 -0.1,-3 -0.1,-4.5 z" id="path4647" fill="#fff"/><path class="st1" d="m 458.1,148.5 c 1.9,-0.6 4,-0.8 6,-0.8 -1,1.2 -2.1,2.3 -3.5,2.9 -6.9,2.9 -14,5 -20.6,8.7 0.6,1.3 1.2,2.5 1.8,3.8 -1.6,-0.3 -3.5,-0.3 -4.7,-1.7 -1.1,-1.1 -1.2,-3.2 0.1,-4.2 1.1,-0.9 2.3,-1.4 3.6,-2 5.7,-2.2 11.4,-4.7 17.3,-6.7 z" id="path4649" fill="#fff"/><path class="st1" d="m 353.6,153.7 c 0.8,-0.7 1.7,-1.2 2.5,-1.7 -0.1,2.7 0.8,5.1 1.9,7.5 1.1,2.4 0.2,5.8 -2.5,6.4 -2.3,0.8 -4.4,-0.7 -6,-2.1 -1.3,1.2 -2.7,2.8 -4.6,2.5 -3.5,-0.2 -5.2,-4.5 -4.5,-7.7 0.3,-2.1 1.9,-3.4 3.3,-4.7 -0.2,2.2 -1,4.4 -0.5,6.6 0.4,1.5 2.1,1.5 3.3,2 0.4,-2.4 0.5,-4.9 1.1,-7.4 0.2,-1.3 1.7,-1.4 2.5,-2 0.2,2.1 0.1,4.2 0.7,6.2 0.5,1.5 2.2,2 3.4,2.7 0.6,-2.9 -0.6,-5.6 -0.6,-8.3 z" id="path4651" fill="#fff"/><path class="st1" d="m 249.8,157.5 c 1.5,0 3.3,-0.3 4.5,1 3.4,3.5 5.1,9 3.8,13.9 -1.2,-3.3 -2.2,-6.9 -4.8,-9.4 -1.6,-1.5 -3.2,-3.2 -3.5,-5.5 z" id="path4653" fill="#fff"/><path class="st1" d="m 456.8,170.1 c 0.7,-0.9 1.6,-1.5 2.5,-2.2 0,2.5 0.8,4.8 1.8,7 1,2.2 1,5.7 -1.5,6.7 -2.3,1.1 -4.7,-0.2 -6.6,-1.6 -1.5,1.2 -3.3,2.7 -5.4,2.1 -3.1,-0.7 -4.4,-4.5 -3.9,-7.5 0.2,-2.2 2,-3.6 3.4,-5 -0.3,2.3 -1.2,4.6 -0.6,6.9 0.5,1.5 2.2,1.2 3.4,1.5 0.4,-2.6 0.2,-5.3 1.2,-7.7 0.7,-0.6 1.6,-1 2.5,-1.4 0.1,2.3 -0.3,4.8 0.8,6.9 0.7,1.3 2.2,1.4 3.4,1.8 -0.1,-2.5 -0.8,-5 -1,-7.5 z" id="path4655" fill="#fff"/><path class="st1" d="m 539.9,173.7 c -0.6,-1.6 0.6,-3.2 2.2,-3.2 2.5,0 4.4,2.2 5.6,4.3 2.1,4.3 3.1,9.5 1.4,14.1 -0.9,-4.1 -0.8,-9.3 -4.4,-12 -1.6,-1 -3.5,-1.6 -4.8,-3.2 z" id="path4657" fill="#fff"/><path class="st1" d="m 401.8,182.7 c 1.1,-1.3 2.9,-1.7 4.5,-1.3 2,2 1.6,5.6 0,7.7 -2.9,4 -7.7,5.9 -12.4,5.9 2.9,-1.8 6.2,-2.8 8.8,-5.1 1.2,-0.9 1,-2.6 1.2,-4 -1.4,0.2 -2.8,0.5 -4.1,0.7 0.6,-1.3 1.1,-2.7 2,-3.9 z" id="path4659" fill="#fff"/><path class="st1" d="m 469,185.8 c 0.9,-0.2 2.1,-0.8 2.7,0.2 -0.7,2.4 -3.1,3.4 -5,4.4 -7.2,3.5 -14.2,7.4 -21.3,11.2 -0.3,-0.7 -0.7,-1.3 -1,-2 4,-3.1 8.4,-5.4 12.7,-7.9 4,-2.1 7.8,-4.4 11.9,-5.9 z" id="path4661" fill="#fff"/><g id="g4665"><path class="st1" d="m 333.5,191.7 c 0.2,-1.5 1.2,-2.6 2,-3.7 5.5,6.3 10.2,13.6 12.7,21.9 2.4,7.9 3,16.2 4.5,24.3 0.8,4.1 1.5,8.4 4.1,11.7 1.7,2.3 4.2,3.7 6.6,5.1 0.5,-2.6 1.1,-5.4 3.4,-6.9 7,-4.9 15.1,-7.9 23.1,-10.6 -6.5,-0.2 -13.1,0 -19.6,-0.1 -5.3,-0.1 -10.6,0.4 -15.8,-0.6 0.2,-2.1 0.2,-4.3 1.4,-6.2 2.4,-4.2 6.6,-6.6 10.6,-8.8 6.1,-3.3 12.3,-6.2 18.9,-8.1 -1.7,-1.9 -4.3,-4 -3.6,-7.1 1.2,-3.6 4.2,-7.2 8,-7.1 4.2,0 8.3,1.8 11.9,4 2.2,1.5 4.9,3.1 5.7,5.9 -0.1,2 -1.1,3.8 -2.2,5.4 -2.3,3 -6.4,2.8 -9.8,3.2 -0.2,2.4 -0.5,5.3 -2.8,6.4 -0.7,-1.9 -1.4,-3.7 -2.2,-5.6 -8.3,1.6 -15.7,6.1 -22.2,11.5 18.4,0.1 36.7,-0.4 55.1,-0.3 1.2,0.1 2.4,0.2 3.6,0.4 -0.8,5.1 -5.7,7.6 -10,8.7 -8.7,2 -17.4,3.8 -26.1,5.6 -6.5,1.4 -13.1,3 -19,6.1 -2.2,1.1 -4,3 -5.5,5.1 4.3,1.7 8.8,2.7 13.3,3.6 1.5,0.4 3.6,0.7 4,2.6 0.6,2.5 0.7,6 -1.6,7.6 -2.9,0.7 -5.9,0 -8.8,-0.5 -8,-1.3 -15.7,-5.7 -20.3,-12.9 -3.5,-5.2 -4.5,-11.7 -5.4,-17.9 -2.3,3.4 -4.7,6.8 -7.6,9.6 -7.8,7.7 -17.2,13.3 -27,17.8 -3.4,1.6 -7.7,2.1 -11.1,-0.1 -2.4,-1.5 -3.3,-4.6 -4.3,-7.2 -9.1,4.9 -18.4,9.6 -28.5,11.6 -6.2,1.2 -12.5,2.1 -18.8,2 3.3,-1.7 6.7,-3 10,-4.4 11,-4.8 21.8,-10.2 32.4,-16 1.3,-0.8 2.9,-1.5 3.8,-2.8 1,-2.9 1.1,-6 2.6,-8.8 1.5,-3.4 4.2,-6 7.1,-8 -1.9,4.4 -3.9,8.9 -4.5,13.7 6.4,-4.1 12.5,-8.7 17.9,-14.3 1.4,-1.6 3.4,-3.6 2.6,-6 -1,-3.4 -2.7,-6.4 -3.9,-9.7 -1.8,-4.8 -4,-9.8 -3.5,-15.1 0.1,-1.7 1.3,-3 2.1,-4.3 4.4,3 7.2,7.9 9.7,12.6 -0.9,0.2 -1.9,0.4 -2.8,0.6 1.7,4.9 4.5,9.3 5.3,14.5 0.6,4 -0.3,8.4 -3,11.4 -6.8,7.7 -15.2,13.5 -23.1,19.8 1.4,0.8 2.9,1.9 4.6,1.8 3.3,-0.1 6.5,-1.3 9.5,-2.6 11,-5.1 20,-13.6 29.3,-21.5 -2.3,-9.4 -6.4,-18.2 -10.7,-26.8 -1.5,-3 -2.6,-6.8 -2.1,-10.5 z m 53.1,12.4 c 1.1,1.6 2.6,2.9 4.4,3.6 2.7,0.6 5.3,-1.1 7.3,-2.9 -2.5,-2 -5.4,-3.6 -8.6,-3.6 -1.5,0 -3.1,1.3 -3.1,2.9 z" id="path4663" fill="#fff"/></g><g id="g4669"><path class="st1" d="m 195.9,191.7 c 0.1,-1.2 1,-2.5 2.3,-2.4 3.4,-0.4 5.8,2.5 7.9,4.8 1.1,1.2 2,2.8 1.3,4.5 -0.4,1.9 -2.5,1.8 -3.9,2.2 -3,0.2 -4.2,3.6 -6.5,5.1 -4.6,3.3 -10.3,5.9 -16,5.1 1.4,-2.1 3.7,-3 5.9,-3.7 4.1,-1.4 7.4,-4.5 10.4,-7.7 -0.8,-2.6 -1.8,-5.2 -1.4,-7.9 z m 1.9,0.4 c 0.2,1.7 0.6,3.5 1.5,5 0.6,-1.4 1.2,-2.9 1.7,-4.3 -1,-0.3 -2.1,-0.5 -3.2,-0.7 z m 4.5,6.5 c 1.1,-0.1 2.2,-0.3 3.3,-0.4 -0.2,-1.5 -0.5,-3 -1.1,-4.4 -1.4,1.1 -1.6,3.1 -2.2,4.8 z" id="path4667" fill="#fff"/></g><path class="st1" d="m 365.7,192.5 c 0.6,-0.8 1.6,-1.3 2.4,-1.8 0,3.5 2.4,6.2 2.7,9.6 0.3,3.5 -4,5.3 -6.6,3.7 -0.8,-0.6 -1.5,-1.3 -2.2,-1.9 -1.4,1.3 -2.9,3.2 -5,2.7 -3.2,-0.6 -4.9,-4.5 -4.3,-7.7 0.3,-2.2 2,-3.6 3.5,-4.9 -0.3,2.1 -1,4.1 -0.8,6.3 0.2,1.6 1.9,2.1 3.1,2.8 0.8,-2.4 1,-5 1.4,-7.6 0.2,-1.4 1.8,-1.6 2.7,-2.3 0.1,2.1 0,4.3 0.6,6.3 0.6,1.4 2,2.1 3.1,2.9 1.2,-2.7 -0.5,-5.4 -0.6,-8.1 z" id="path4671" fill="#fff"/><path class="st1" d="m 206.1,205.3 c 1.7,-0.8 3.5,-1.8 5.4,-2 1.8,-0.1 2.7,2.8 1.3,4 -2.1,1.7 -4.6,2.4 -7,3.5 -5.6,2.8 -11.2,5.5 -16.7,8.6 -1.2,0.8 -2.7,0.6 -4,0.4 0.8,-1.7 1.9,-3.3 3.5,-4.3 5.8,-3.7 11.6,-7.1 17.5,-10.2 z" id="path4673" fill="#fff"/><path class="st1" d="m 416.4,208.4 c 0.4,-2 2.6,-2.3 4.2,-2.9 0.4,2.9 0.7,5.9 2.4,8.3 -0.9,0.1 -1.8,0.2 -2.6,0.3 -1.2,1.9 -2.5,4 -4.5,5 -3.3,1.7 -7,1.7 -10.6,1.5 3.8,-1.1 8.5,-1.4 11,-5 1.7,-2.1 -0.1,-4.8 0.1,-7.2 z" id="path4675" fill="#fff"/><g id="g4679"><path class="st1" d="m 491.9,211.3 c 0.5,-1.6 2.3,-1.6 3.6,-1.4 2.8,0.5 4.8,3 6.6,5.1 1.3,1.3 1.7,3.6 0.5,5.2 -1.8,1.5 -4.7,0.6 -6.3,2.6 -4.8,5.8 -12.2,9.5 -19.6,8.7 1.4,-2.1 3.7,-3 6,-3.7 4.1,-1.4 7.3,-4.6 10.3,-7.7 -0.8,-2.8 -2,-5.8 -1.1,-8.8 z m 1.9,1.2 c 0.2,1.8 0.6,3.6 1.2,5.3 0.7,-1.4 1.4,-2.8 1.8,-4.3 -1,-0.4 -2.1,-0.7 -3,-1 z m 5.8,2.2 c -0.6,1.4 -1,2.9 -1.4,4.4 1.1,-0.1 2.2,-0.3 3.3,-0.4 -0.3,-1.4 -0.5,-2.8 -1.1,-4.1 -0.2,0 -0.6,0.1 -0.8,0.1 z" id="path4677" fill="#fff"/></g><path class="st1" d="m 302.7,214.4 c 1.9,-1.9 5.3,-0.9 6.5,1.4 0.6,1.3 -0.7,2.3 -1.2,3.3 -1,-0.6 -2,-1.4 -3.1,-1.7 -1,-0.3 -1.3,0.9 -1.6,1.6 -1.2,3 -1.8,6.2 -2.7,9.3 -0.7,-1.9 -1.2,-3.8 -2.3,-5.5 -1.2,-1.8 -3.2,-2.8 -4.7,-4.3 -1.4,-1.2 0.1,-3.8 1.7,-3.5 2.3,0.3 3.7,2.5 5.3,4.1 0.6,-1.6 1,-3.4 2.1,-4.7 z" id="path4681" fill="#fff"/><path class="st1" d="m 182.5,231.8 c 1.9,-3.4 4.9,-6 8.3,-7.7 -0.9,2.5 -2.3,4.7 -3.6,6.9 -1,1.6 -1,3.5 -1.1,5.3 2.3,-0.1 4.6,-0.5 6.9,-1 -0.6,1.9 -1.3,4 -3,5.1 -1.9,1.3 -4.6,2.3 -6.6,0.6 -2.2,-2.5 -2.4,-6.4 -0.9,-9.2 z" id="path4683" fill="#fff"/><path class="st1" d="m 342.1,247.2 c 1.7,-0.3 3.7,-1.1 5.2,0.2 1.5,1 2,3.6 0.6,5 -2.1,1.2 -4.8,0.5 -6.6,2.2 0.3,2.6 2.2,4.7 2.6,7.2 0.1,1.6 -1.1,2.9 -1.8,4.2 -0.5,-2.5 -0.9,-5.2 -2.2,-7.4 -0.8,-1.6 -2,-3.2 -1.6,-5.1 0.4,-2.1 2.5,-3.1 4,-4.1 -0.1,-0.6 -0.2,-1.4 -0.2,-2.2 z" id="path4685" fill="#fff"/><path class="st1" d="m 418.8,250.3 c 0.8,-2.1 2.7,-3.1 4.4,-4.2 -0.7,1.7 -1.9,3.4 -2.1,5.3 0.8,1.5 2.1,2.6 2.8,4.2 0.2,2.6 -3.4,3 -4.7,1.4 -1.5,-1.8 -1.3,-4.6 -0.4,-6.7 z" id="path4687" fill="#fff"/><path class="st1" d="m 400.3,247.4 c 2.8,-1 5.8,0 8.3,1.5 -1.8,3.9 -6,4.9 -9.1,7.3 0.1,0.4 0.2,1.2 0.2,1.6 2.2,0.1 4.5,0.4 6.4,-0.8 2.5,-1.4 5.1,-2.7 7.9,-3.3 -2.2,2 -4.3,4 -6.5,5.9 -2.6,2.2 -6.2,2.2 -9.3,1.3 -1.5,-0.5 -3.4,-1.9 -2.9,-3.9 0.8,-2.5 3.2,-3.8 5.1,-5.3 -1.4,-0.1 -2.7,-0.2 -4.1,-0.3 1.1,-1.6 2.1,-3.6 4,-4 z" id="path4689" fill="#fff"/><path class="st1" d="m 472.8,254.5 c -1,-1.2 -0.1,-3.2 1.3,-3.4 2.7,-0.5 5,1.8 6.2,4.1 1.8,3.2 1.7,7.2 0.2,10.5 -0.5,-2.3 -0.5,-4.7 -1.6,-6.8 -1.5,-2.1 -4.3,-2.5 -6.1,-4.4 z" id="path4691" fill="#fff"/><path class="st1" d="m 518.1,256 c 3.7,-1.4 7.4,-3.2 11.4,-2.8 -0.9,1.5 -2,2.9 -3.7,3.5 -6.2,2.4 -12.5,4.6 -18.6,7.3 -1.9,0.9 -3.9,1.6 -6,2.1 -0.2,-0.6 -0.5,-1.2 -0.7,-1.8 5.6,-3.4 11.6,-5.8 17.6,-8.3 z" id="path4693" fill="#fff"/></g><path class="st1" d="m 9403.6676,-2218.315 h -557.3698 v -52.8431 c 25.1715,-21.759 59.3329,-51.289 59.3329,-68.3852 0,-29.53 -70.1207,-90.1444 -86.3025,-90.1444 -17.9796,0 -86.3023,62.1686 -86.3023,90.1444 0,18.6504 30.5655,45.072 55.737,66.831 l 1.7981,1.5544 v 54.3973 H 4394.5312 c 156.4232,155.4212 388.3609,153.867 854.0344,158.5295 415.3303,6.217 413.5324,6.217 3540.1973,0 v 55.9515 c -25.1715,21.759 -55.737,51.289 -55.737,68.3854 0,29.5299 66.5248,90.1442 86.3023,90.1442 12.5859,0 53.9391,-34.1925 75.5147,-63.7226 h 192.3825 c 12.5857,21.759 41.3533,34.1927 75.5147,34.1927 34.1613,0 62.9287,-13.9879 75.5145,-34.1927 h 230.1397 c 28.7676,32.6385 68.3228,34.1927 91.6965,34.1927 88.1003,-3.1084 107.8779,-48.1806 107.8779,-203.6018 -1.7981,-130.5536 -89.8983,-144.5415 -264.3011,-141.4331 z m 39.5552,262.6616 h -204.9682 c -12.5858,-21.759 -41.3532,-35.7469 -75.5145,-35.7469 -34.1614,0 -62.929,13.9879 -75.5147,35.7469 h -188.7867 c -10.7878,-15.542 -32.3632,-35.7469 -50.3429,-48.1805 v -55.9515 h 587.9353 8.9896 c -10.7878,40.4094 -12.5857,76.1563 -1.7981,104.132 z" id="path4697" fill="#fff" stroke-width="16.717"/></g></g></svg>