<svg xmlns="http://www.w3.org/2000/svg" viewBox="0 0 50 50"><defs><style>.cls-1{fill:#fff;}.cls-2{stroke:#fff;stroke-miterlimit:10;}</style></defs><g id="Layer_2" data-name="Layer 2"><path d="M25,43.33A18.33,18.33,0,1,1,43.33,25,18.35,18.35,0,0,1,25,43.33Z"/><path class="cls-1" d="M25,7.17A17.83,17.83,0,1,1,7.17,25,17.85,17.85,0,0,1,25,7.17m0-1A18.83,18.83,0,0,0,6.17,25h0a18.83,18.83,0,0,0,37.66,0h0A18.83,18.83,0,0,0,25,6.17Z"/><polygon class="cls-2" points="36.44 43.61 31.18 24.1 48.41 34.59 40.32 36.23 36.44 43.61"/></g></svg>