<svg width="200" height="200" viewBox="0 0 200 200" fill="none" xmlns="http://www.w3.org/2000/svg">
<rect x="4.74658" y="4.1123" width="195.254" height="195.887" fill="#4FF1B3"/>
<rect width="195.254" height="195.887" fill="#0D0D0D"/>
<path d="M55.9912 162.587V40.2451H110.171C118.677 40.2451 125.784 41.4685 131.493 43.9154C137.319 46.2457 141.747 49.6829 144.776 54.227C147.806 58.6546 149.32 64.0726 149.32 70.481C149.32 77.3554 147.573 83.1229 144.077 87.7836C140.698 92.4442 135.805 95.7067 129.396 97.5709L129.221 93.9007C134.465 95.1823 139.067 97.3379 143.029 100.367C147.107 103.28 150.252 106.892 152.466 111.203C154.68 115.398 155.787 120.175 155.787 125.535C155.787 131.71 154.68 137.128 152.466 141.789C150.369 146.449 147.34 150.353 143.378 153.498C139.533 156.528 134.931 158.8 129.571 160.315C124.328 161.829 118.502 162.587 112.094 162.587H55.9912ZM84.3045 137.594H110.87C115.764 137.594 119.551 136.429 122.23 134.099C125.027 131.768 126.425 128.448 126.425 124.137C126.425 121.457 125.726 119.185 124.328 117.32C123.046 115.456 121.182 114.058 118.735 113.126C116.288 112.194 113.375 111.728 109.996 111.728H84.3045V137.594ZM84.3045 89.1818H106.151C109.181 89.1818 111.744 88.7157 113.841 87.7836C115.939 86.7349 117.512 85.3367 118.56 83.589C119.725 81.7247 120.308 79.5692 120.308 77.1224C120.308 73.3939 119.026 70.481 116.463 68.3837C113.9 66.2864 110.055 65.2378 104.928 65.2378H84.3045V89.1818Z" fill="#4FF1B3"/>
<path d="M49 157.342V35H103.18C111.686 35 118.793 36.2234 124.502 38.6703C130.328 41.0006 134.756 44.4378 137.785 48.9819C140.814 53.4095 142.329 58.8275 142.329 65.2359C142.329 72.1103 140.581 77.8778 137.086 82.5385C133.707 87.1991 128.813 90.4615 122.405 92.3258L122.23 88.6555C127.473 89.9372 132.076 92.0927 136.037 95.1222C140.115 98.0351 143.261 101.647 145.475 105.958C147.689 110.153 148.796 114.93 148.796 120.29C148.796 126.465 147.689 131.883 145.475 136.544C143.378 141.204 140.348 145.107 136.387 148.253C132.542 151.283 127.939 153.555 122.58 155.07C117.337 156.584 111.511 157.342 105.102 157.342H49ZM77.3133 132.349H103.879C108.773 132.349 112.559 131.184 115.239 128.854C118.036 126.523 119.434 123.202 119.434 118.891C119.434 116.212 118.735 113.939 117.337 112.075C116.055 110.211 114.191 108.813 111.744 107.881C109.297 106.949 106.384 106.482 103.005 106.482H77.3133V132.349ZM77.3133 83.9366H99.1601C102.189 83.9366 104.753 83.4706 106.85 82.5385C108.947 81.4898 110.52 80.0916 111.569 78.3439C112.734 76.4796 113.317 74.3241 113.317 71.8773C113.317 68.1488 112.035 65.2359 109.472 63.1386C106.908 61.0413 103.063 59.9926 97.9366 59.9926H77.3133V83.9366Z" fill="white"/>
</svg>
