<svg width="350" height="59" viewBox="0 0 350 59" fill="none" xmlns="http://www.w3.org/2000/svg">
<rect width="350" height="59" fill="#0D0D0D"/>
<path d="M30.734 27V15.1H35.239C36.0437 15.1 36.786 15.2473 37.466 15.542C38.146 15.8253 38.7353 16.2333 39.234 16.766C39.7327 17.2873 40.118 17.9107 40.39 18.636C40.662 19.3613 40.798 20.166 40.798 21.05C40.798 21.9227 40.662 22.7273 40.39 23.464C40.118 24.1893 39.7327 24.8183 39.234 25.351C38.7467 25.8723 38.1573 26.2803 37.466 26.575C36.786 26.8583 36.0437 27 35.239 27H30.734ZM32.077 25.878L31.992 25.708H35.154C35.7773 25.708 36.3497 25.5947 36.871 25.368C37.4037 25.1413 37.857 24.8297 38.231 24.433C38.6163 24.025 38.911 23.532 39.115 22.954C39.319 22.376 39.421 21.7413 39.421 21.05C39.421 20.3587 39.319 19.7297 39.115 19.163C38.911 18.585 38.6163 18.092 38.231 17.684C37.8457 17.276 37.3923 16.9587 36.871 16.732C36.3497 16.5053 35.7773 16.392 35.154 16.392H31.958L32.077 16.239V25.878ZM43.3844 27V15.1H50.5924V16.392H44.7274V25.708H50.5584V27H43.3844ZM44.0134 21.526V20.234H49.6404V21.526H44.0134ZM53.5445 27V15.1H54.8365L59.3925 22.461L58.8145 22.444L63.3875 15.1H64.6115V27H63.2685V20.659C63.2685 19.843 63.2855 19.1007 63.3195 18.432C63.3649 17.752 63.4329 17.0777 63.5235 16.409L63.7615 16.851L59.4775 23.566H58.6445L54.4625 16.936L54.6495 16.409C54.7402 17.0437 54.8025 17.6897 54.8365 18.347C54.8705 19.0043 54.8875 19.7693 54.8875 20.642V27H53.5445ZM71.2491 27V21.118L71.3681 21.9L66.6081 15.1H68.2231L72.1331 20.727L71.7931 20.693L75.4311 15.1H76.9781L72.3711 22.019L72.5921 21.033V27H71.2491ZM82.0327 27.17C81.0467 27.17 80.1797 26.983 79.4317 26.609C78.695 26.2237 78.0717 25.6627 77.5617 24.926L78.5137 23.872C79.0237 24.62 79.562 25.1527 80.1287 25.47C80.7067 25.7873 81.3867 25.946 82.1687 25.946C82.6674 25.946 83.115 25.861 83.5117 25.691C83.9197 25.521 84.2427 25.2887 84.4807 24.994C84.7187 24.6993 84.8377 24.365 84.8377 23.991C84.8377 23.7417 84.7924 23.515 84.7017 23.311C84.6224 23.107 84.492 22.9257 84.3107 22.767C84.1407 22.6083 83.9254 22.461 83.6647 22.325C83.404 22.189 83.1037 22.07 82.7637 21.968C82.435 21.8547 82.061 21.747 81.6417 21.645C81.0524 21.5203 80.5367 21.356 80.0947 21.152C79.664 20.948 79.2957 20.7043 78.9897 20.421C78.6837 20.1377 78.457 19.8147 78.3097 19.452C78.1624 19.078 78.0887 18.6587 78.0887 18.194C78.0887 17.5593 78.2644 16.9983 78.6157 16.511C78.9784 16.0237 79.46 15.6383 80.0607 15.355C80.6727 15.0717 81.3584 14.93 82.1177 14.93C83.0357 14.93 83.8177 15.1 84.4637 15.44C85.121 15.7687 85.648 16.2503 86.0447 16.885L85.0927 17.82C84.73 17.2873 84.2994 16.8793 83.8007 16.596C83.3134 16.3013 82.741 16.154 82.0837 16.154C81.5737 16.154 81.1204 16.239 80.7237 16.409C80.327 16.579 80.0154 16.817 79.7887 17.123C79.562 17.4177 79.4487 17.7633 79.4487 18.16C79.4487 18.4433 79.4997 18.704 79.6017 18.942C79.715 19.1687 79.8794 19.367 80.0947 19.537C80.31 19.707 80.5877 19.86 80.9277 19.996C81.2677 20.132 81.67 20.251 82.1347 20.353C82.7694 20.5003 83.336 20.676 83.8347 20.88C84.3447 21.084 84.7754 21.322 85.1267 21.594C85.478 21.866 85.7444 22.172 85.9257 22.512C86.107 22.852 86.1977 23.2373 86.1977 23.668C86.1977 24.3707 86.022 24.9883 85.6707 25.521C85.3307 26.0423 84.849 26.4503 84.2257 26.745C83.6024 27.0283 82.8714 27.17 82.0327 27.17ZM90.9997 27V16.392H87.5657V15.1H95.8447V16.392H92.3427V27H90.9997ZM97.4409 27V25.742H99.4639V16.358H97.4409V15.1H102.847V16.358H100.807V25.742H102.847V27H97.4409ZM105.673 27V15.1H107.016V27H105.673ZM106.285 21.696V20.387H112.201V21.696H106.285ZM106.302 16.392V15.1H113.034V16.392H106.302ZM118.896 27V21.118L119.015 21.9L114.255 15.1H115.87L119.78 20.727L119.44 20.693L123.078 15.1H124.625L120.018 22.019L120.239 21.033V27H118.896ZM125.946 27V25.742H127.969V16.358H125.946V15.1H131.352V16.358H129.312V25.742H131.352V27H125.946ZM134.178 27V15.1H135.402L142.933 25.385L142.729 25.487C142.673 25.1243 142.627 24.705 142.593 24.229C142.559 23.7417 142.531 23.175 142.508 22.529C142.497 21.883 142.491 21.1463 142.491 20.319V15.1H143.834V27H142.593L135.079 16.851L135.283 16.698C135.34 17.31 135.38 17.8483 135.402 18.313C135.436 18.7777 135.465 19.18 135.487 19.52C135.51 19.8487 135.521 20.1377 135.521 20.387C135.521 20.625 135.521 20.8403 135.521 21.033V27H134.178ZM152.495 27.17C151.634 27.17 150.835 27.017 150.098 26.711C149.362 26.405 148.716 25.98 148.16 25.436C147.616 24.8807 147.191 24.2347 146.885 23.498C146.591 22.75 146.443 21.9397 146.443 21.067C146.443 20.2057 146.591 19.4067 146.885 18.67C147.191 17.922 147.616 17.276 148.16 16.732C148.704 16.1767 149.345 15.746 150.081 15.44C150.818 15.134 151.617 14.981 152.478 14.981C153.09 14.981 153.68 15.0717 154.246 15.253C154.824 15.423 155.346 15.6667 155.81 15.984C156.275 16.29 156.666 16.6527 156.983 17.072L156.099 17.973C155.601 17.4403 155.04 17.0267 154.416 16.732C153.804 16.4373 153.158 16.29 152.478 16.29C151.81 16.29 151.192 16.409 150.625 16.647C150.059 16.885 149.56 17.2193 149.129 17.65C148.71 18.0807 148.381 18.5907 148.143 19.18C147.917 19.758 147.803 20.387 147.803 21.067C147.803 21.7357 147.922 22.3647 148.16 22.954C148.41 23.532 148.75 24.042 149.18 24.484C149.611 24.9147 150.11 25.2547 150.676 25.504C151.254 25.742 151.872 25.861 152.529 25.861C153.107 25.861 153.629 25.776 154.093 25.606C154.569 25.436 154.983 25.1923 155.334 24.875C155.686 24.5577 155.952 24.1893 156.133 23.77C156.326 23.3393 156.422 22.8803 156.422 22.393V22.053L156.626 22.24H152.512V20.897H157.799C157.822 21.0103 157.833 21.1123 157.833 21.203C157.845 21.2937 157.85 21.3787 157.85 21.458C157.862 21.5373 157.867 21.611 157.867 21.679C157.867 22.529 157.731 23.294 157.459 23.974C157.199 24.6427 156.825 25.215 156.337 25.691C155.861 26.167 155.295 26.5353 154.637 26.796C153.991 27.0453 153.277 27.17 152.495 27.17Z" fill="white"/>
<path d="M31.4121 44.5989V31.9579H37.0103C37.8891 31.9579 38.6235 32.0843 39.2134 32.3371C39.8154 32.5779 40.2729 32.933 40.5859 33.4026C40.8989 33.8601 41.0554 34.4199 41.0554 35.082C41.0554 35.7923 40.8748 36.3883 40.5137 36.8698C40.1645 37.3514 39.6589 37.6885 38.9967 37.8811L38.9787 37.5019C39.5204 37.6343 39.996 37.857 40.4053 38.1701C40.8267 38.471 41.1517 38.8442 41.3805 39.2897C41.6092 39.7231 41.7236 40.2167 41.7236 40.7705C41.7236 41.4086 41.6092 41.9684 41.3805 42.45C41.1638 42.9315 40.8508 43.3348 40.4414 43.6599C40.0441 43.9729 39.5686 44.2077 39.0148 44.3642C38.473 44.5207 37.8711 44.5989 37.2089 44.5989H31.4121ZM34.3376 42.0165H37.0825C37.5882 42.0165 37.9794 41.8962 38.2563 41.6554C38.5453 41.4146 38.6897 41.0715 38.6897 40.626C38.6897 40.3491 38.6175 40.1144 38.473 39.9217C38.3406 39.7291 38.148 39.5846 37.8952 39.4883C37.6423 39.392 37.3414 39.3439 36.9922 39.3439H34.3376V42.0165ZM34.3376 37.0143H36.5949C36.908 37.0143 37.1728 36.9661 37.3895 36.8698C37.6062 36.7615 37.7687 36.617 37.8771 36.4364C37.9975 36.2438 38.0577 36.0211 38.0577 35.7683C38.0577 35.383 37.9253 35.082 37.6604 34.8653C37.3955 34.6486 36.9982 34.5403 36.4685 34.5403H34.3376V37.0143Z" fill="#4FF1B3"/>
<path d="M44.0743 44.5989V31.9579H47.1623V41.8721H52.7966V44.5989H44.0743Z" fill="#4FF1B3"/>
<path d="M60.5044 44.7795C59.5533 44.7795 58.6745 44.617 57.8679 44.2919C57.0733 43.9669 56.381 43.5154 55.7911 42.9375C55.2133 42.3476 54.7618 41.6554 54.4367 40.8608C54.1117 40.0542 53.9491 39.1753 53.9491 38.2242C53.9491 37.2852 54.1117 36.4184 54.4367 35.6238C54.7618 34.8172 55.2133 34.1189 55.7911 33.529C56.381 32.9391 57.0733 32.4816 57.8679 32.1565C58.6745 31.8315 59.5533 31.6689 60.5044 31.6689C61.4435 31.6689 62.3103 31.8315 63.1049 32.1565C63.8995 32.4816 64.5857 32.9391 65.1636 33.529C65.7535 34.1189 66.211 34.8172 66.536 35.6238C66.8611 36.4184 67.0236 37.2912 67.0236 38.2423C67.0236 39.1813 66.8611 40.0482 66.536 40.8427C66.211 41.6373 65.7535 42.3296 65.1636 42.9195C64.5857 43.5094 63.8995 43.9669 63.1049 44.2919C62.3103 44.617 61.4435 44.7795 60.5044 44.7795ZM60.5044 41.8721C60.998 41.8721 61.4495 41.7818 61.8588 41.6012C62.2682 41.4206 62.6233 41.1678 62.9243 40.8427C63.2373 40.5177 63.4781 40.1324 63.6466 39.687C63.8152 39.2415 63.8995 38.76 63.8995 38.2423C63.8995 37.7126 63.8152 37.225 63.6466 36.7795C63.4781 36.3341 63.2373 35.9488 62.9243 35.6238C62.6233 35.2867 62.2682 35.0279 61.8588 34.8473C61.4495 34.6667 60.998 34.5764 60.5044 34.5764C60.0108 34.5764 59.5533 34.6667 59.132 34.8473C58.7226 35.0279 58.3615 35.2867 58.0485 35.6238C57.7475 35.9488 57.5127 36.3341 57.3442 36.7795C57.1756 37.225 57.0913 37.7126 57.0913 38.2423C57.0913 38.9406 57.2358 39.5666 57.5248 40.1204C57.8257 40.6621 58.229 41.0895 58.7347 41.4026C59.2524 41.7156 59.8423 41.8721 60.5044 41.8721Z" fill="#4FF1B3"/>
<path d="M75.1061 44.7795C74.155 44.7795 73.2762 44.623 72.4696 44.31C71.675 43.9849 70.9827 43.5335 70.3928 42.9556C69.8149 42.3657 69.3635 41.6734 69.0384 40.8789C68.7254 40.0722 68.5689 39.1934 68.5689 38.2423C68.5689 37.3032 68.7314 36.4364 69.0565 35.6418C69.3936 34.8473 69.8631 34.155 70.465 33.5651C71.067 32.9752 71.7713 32.5177 72.5779 32.1926C73.3966 31.8676 74.2814 31.7051 75.2325 31.7051C75.8345 31.7051 76.4244 31.7833 77.0023 31.9398C77.5801 32.0963 78.1159 32.3311 78.6095 32.6441C79.1151 32.9451 79.5485 33.3123 79.9097 33.7457L78.0136 35.8947C77.6403 35.4853 77.219 35.1663 76.7494 34.9376C76.292 34.7088 75.7803 34.5944 75.2145 34.5944C74.7329 34.5944 74.2754 34.6787 73.842 34.8473C73.4206 35.0158 73.0534 35.2626 72.7404 35.5877C72.4274 35.9127 72.1806 36.298 72 36.7434C71.8194 37.1889 71.7291 37.6945 71.7291 38.2603C71.7291 38.8141 71.8134 39.3198 71.982 39.7773C72.1626 40.2227 72.4154 40.608 72.7404 40.933C73.0775 41.246 73.4748 41.4868 73.9323 41.6554C74.4018 41.8239 74.9195 41.9082 75.4853 41.9082C75.8586 41.9082 76.2137 41.86 76.5508 41.7637C76.8999 41.6554 77.225 41.5049 77.526 41.3123C77.8269 41.1196 78.0858 40.9029 78.3025 40.6621L79.8014 43.0459C79.5124 43.3709 79.1151 43.6659 78.6095 43.9308C78.1159 44.1956 77.5621 44.4063 76.9481 44.5628C76.3461 44.7073 75.7321 44.7795 75.1061 44.7795Z" fill="#4FF1B3"/>
<path d="M84.178 40.8969L83.3835 38.2784L89.6317 31.9579H93.2976L84.178 40.8969ZM81.8846 44.5989V31.9579H84.9726V44.5989H81.8846ZM90.011 44.5989L85.3338 38.4229L87.4105 36.6351L93.6227 44.5989H90.011Z" fill="#4FF1B3"/>
<path d="M30.6899 44.0579V31.4169H36.2881C37.167 31.4169 37.9014 31.5433 38.4913 31.7961C39.0932 32.0369 39.5507 32.392 39.8637 32.8616C40.1767 33.319 40.3333 33.8789 40.3333 34.541C40.3333 35.2513 40.1527 35.8473 39.7915 36.3288C39.4424 36.8104 38.9367 37.1475 38.2746 37.3401L38.2565 36.9609C38.7983 37.0933 39.2738 37.316 39.6831 37.629C40.1045 37.93 40.4296 38.3032 40.6583 38.7487C40.8871 39.1821 41.0014 39.6757 41.0014 40.2295C41.0014 40.8676 40.8871 41.4274 40.6583 41.9089C40.4416 42.3905 40.1286 42.7938 39.7193 43.1189C39.322 43.4319 38.8464 43.6666 38.2926 43.8232C37.7509 43.9797 37.1489 44.0579 36.4868 44.0579H30.6899ZM33.6154 41.4755H36.3604C36.866 41.4755 37.2573 41.3551 37.5342 41.1144C37.8231 40.8736 37.9676 40.5305 37.9676 40.085C37.9676 39.8081 37.8953 39.5734 37.7509 39.3807C37.6184 39.1881 37.4258 39.0436 37.173 38.9473C36.9202 38.851 36.6192 38.8029 36.2701 38.8029H33.6154V41.4755ZM33.6154 36.4733H35.8728C36.1858 36.4733 36.4506 36.4251 36.6673 36.3288C36.8841 36.2205 37.0466 36.076 37.1549 35.8954C37.2753 35.7028 37.3355 35.4801 37.3355 35.2272C37.3355 34.842 37.2031 34.541 36.9382 34.3243C36.6734 34.1076 36.2761 33.9993 35.7464 33.9993H33.6154V36.4733Z" fill="white"/>
<path d="M43.3521 44.0579V31.4169H46.4402V41.3311H52.0745V44.0579H43.3521Z" fill="white"/>
<path d="M59.7823 44.2385C58.8312 44.2385 57.9523 44.076 57.1457 43.7509C56.3511 43.4259 55.6589 42.9744 55.069 42.3965C54.4911 41.8066 54.0396 41.1144 53.7146 40.3198C53.3895 39.5132 53.227 38.6343 53.227 37.6832C53.227 36.7442 53.3895 35.8774 53.7146 35.0828C54.0396 34.2762 54.4911 33.5779 55.069 32.988C55.6589 32.3981 56.3511 31.9406 57.1457 31.6155C57.9523 31.2905 58.8312 31.1279 59.7823 31.1279C60.7213 31.1279 61.5881 31.2905 62.3827 31.6155C63.1773 31.9406 63.8635 32.3981 64.4414 32.988C65.0313 33.5779 65.4888 34.2762 65.8138 35.0828C66.1389 35.8774 66.3014 36.7502 66.3014 37.7013C66.3014 38.6403 66.1389 39.5071 65.8138 40.3017C65.4888 41.0963 65.0313 41.7885 64.4414 42.3785C63.8635 42.9684 63.1773 43.4259 62.3827 43.7509C61.5881 44.076 60.7213 44.2385 59.7823 44.2385ZM59.7823 41.3311C60.2759 41.3311 60.7273 41.2408 61.1367 41.0602C61.546 40.8796 61.9011 40.6268 62.2021 40.3017C62.5151 39.9767 62.7559 39.5914 62.9245 39.146C63.093 38.7005 63.1773 38.219 63.1773 37.7013C63.1773 37.1716 63.093 36.684 62.9245 36.2385C62.7559 35.7931 62.5151 35.4078 62.2021 35.0828C61.9011 34.7457 61.546 34.4868 61.1367 34.3062C60.7273 34.1257 60.2759 34.0354 59.7823 34.0354C59.2887 34.0354 58.8312 34.1257 58.4098 34.3062C58.0005 34.4868 57.6393 34.7457 57.3263 35.0828C57.0253 35.4078 56.7906 35.7931 56.622 36.2385C56.4535 36.684 56.3692 37.1716 56.3692 37.7013C56.3692 38.3995 56.5137 39.0256 56.8026 39.5794C57.1036 40.1211 57.5069 40.5485 58.0125 40.8615C58.5302 41.1746 59.1201 41.3311 59.7823 41.3311Z" fill="white"/>
<path d="M74.3839 44.2385C73.4329 44.2385 72.554 44.082 71.7474 43.769C70.9528 43.4439 70.2606 42.9925 69.6706 42.4146C69.0928 41.8247 68.6413 41.1324 68.3162 40.3378C68.0032 39.5312 67.8467 38.6524 67.8467 37.7013C67.8467 36.7622 68.0092 35.8954 68.3343 35.1008C68.6714 34.3062 69.1409 33.614 69.7429 33.0241C70.3448 32.4342 71.0491 31.9767 71.8557 31.6516C72.6744 31.3266 73.5593 31.164 74.5104 31.164C75.1123 31.164 75.7022 31.2423 76.2801 31.3988C76.858 31.5553 77.3937 31.7901 77.8873 32.1031C78.393 32.4041 78.8264 32.7713 79.1875 33.2047L77.2914 35.3537C76.9182 34.9443 76.4968 34.6253 76.0273 34.3965C75.5698 34.1678 75.0581 34.0534 74.4923 34.0534C74.0107 34.0534 73.5532 34.1377 73.1198 34.3062C72.6985 34.4748 72.3313 34.7216 72.0183 35.0467C71.7052 35.3717 71.4584 35.757 71.2779 36.2024C71.0973 36.6479 71.007 37.1535 71.007 37.7193C71.007 38.2731 71.0913 38.7788 71.2598 39.2363C71.4404 39.6817 71.6932 40.067 72.0183 40.392C72.3554 40.705 72.7526 40.9458 73.2101 41.1144C73.6797 41.2829 74.1973 41.3672 74.7632 41.3672C75.1364 41.3672 75.4915 41.319 75.8286 41.2227C76.1778 41.1144 76.5028 40.9639 76.8038 40.7712C77.1048 40.5786 77.3636 40.3619 77.5803 40.1211L79.0792 42.5049C78.7903 42.8299 78.393 43.1249 77.8873 43.3897C77.3937 43.6546 76.8399 43.8653 76.2259 44.0218C75.624 44.1663 75.01 44.2385 74.3839 44.2385Z" fill="white"/>
<path d="M83.4559 40.3559L82.6613 37.7374L88.9096 31.4169H92.5755L83.4559 40.3559ZM81.1624 44.0579V31.4169H84.2504V44.0579H81.1624ZM89.2888 44.0579L84.6116 37.8819L86.6884 36.0941L92.9005 44.0579H89.2888Z" fill="white"/>
<path d="M100.847 44.7434C99.8957 44.7434 99.0169 44.5869 98.2102 44.2739C97.4157 43.9488 96.7234 43.4974 96.1335 42.9195C95.5556 42.3296 95.1042 41.6373 94.7791 40.8427C94.4661 40.0361 94.3096 39.1573 94.3096 38.2062C94.3096 37.2671 94.4721 36.4003 94.7972 35.6057C95.1342 34.8111 95.6038 34.1189 96.2057 33.529C96.8077 32.9391 97.512 32.4816 98.3186 32.1565C99.1372 31.8315 100.022 31.6689 100.973 31.6689C101.575 31.6689 102.165 31.7472 102.743 31.9037C103.321 32.0602 103.857 32.295 104.35 32.608C104.856 32.909 105.289 33.2762 105.65 33.7096L103.754 35.8586C103.381 35.4492 102.96 35.1302 102.49 34.9014C102.033 34.6727 101.521 34.5583 100.955 34.5583C100.474 34.5583 100.016 34.6426 99.5827 34.8111C99.1613 34.9797 98.7941 35.2265 98.4811 35.5516C98.1681 35.8766 97.9213 36.2619 97.7407 36.7073C97.5601 37.1528 97.4698 37.6584 97.4698 38.2242C97.4698 38.778 97.5541 39.2837 97.7227 39.7412C97.9032 40.1866 98.1561 40.5719 98.4811 40.8969C98.8182 41.2099 99.2155 41.4507 99.673 41.6193C100.143 41.7878 100.66 41.8721 101.226 41.8721C101.599 41.8721 101.954 41.8239 102.291 41.7276C102.641 41.6193 102.966 41.4688 103.267 41.2761C103.568 41.0835 103.826 40.8668 104.043 40.626L105.542 43.0098C105.253 43.3348 104.856 43.6298 104.35 43.8946C103.857 44.1595 103.303 44.3702 102.689 44.5267C102.087 44.6712 101.473 44.7434 100.847 44.7434Z" fill="#4FF1B3"/>
<path d="M115.481 44.5628V31.9218H118.569V44.5628H115.481ZM107.625 44.5628V31.9218H110.713V44.5628H107.625ZM108.853 39.6509V36.8698H117.106V39.6509H108.853Z" fill="#4FF1B3"/>
<path d="M120.145 44.5628L125.147 31.9218H127.766L132.732 44.5628H129.626L127.224 38.152C127.14 37.8992 127.043 37.6283 126.935 37.3394C126.839 37.0504 126.742 36.7494 126.646 36.4364C126.55 36.1234 126.459 35.8224 126.375 35.5335C126.291 35.2446 126.219 34.9737 126.158 34.7209L126.682 34.7028C126.61 35.0038 126.532 35.2987 126.447 35.5877C126.363 35.8766 126.273 36.1655 126.176 36.4545C126.08 36.7434 125.978 37.0324 125.869 37.3213C125.773 37.5982 125.671 37.8871 125.562 38.1881L123.179 44.5628H120.145ZM122.529 42.143L123.504 39.7953H129.283L130.258 42.143H122.529Z" fill="#4FF1B3"/>
<path d="M134.073 44.5628V41.9624H136.204V34.5222H134.073V31.9218H141.423V34.5222H139.292V41.9624H141.423V44.5628H134.073Z" fill="#4FF1B3"/>
<path d="M144.325 44.5628V31.9218H147.087L153.733 40.933L153.137 40.8608C153.053 40.1866 152.981 39.5606 152.92 38.9827C152.86 38.3928 152.818 37.7788 152.794 37.1407C152.782 36.5026 152.776 35.7683 152.776 34.9376V31.9218H155.774V44.5628H152.975L146.076 35.2807L146.961 35.4071C147.045 36.1415 147.112 36.7494 147.16 37.231C147.208 37.7126 147.244 38.1279 147.268 38.4771C147.292 38.8141 147.31 39.1332 147.322 39.4342C147.334 39.7231 147.34 40.0482 147.34 40.4093V44.5628H144.325Z" fill="#4FF1B3"/>
<path d="M100.125 44.2024C99.1735 44.2024 98.2947 44.0459 97.4881 43.7329C96.6935 43.4078 96.0012 42.9563 95.4113 42.3785C94.8334 41.7885 94.382 41.0963 94.0569 40.3017C93.7439 39.4951 93.5874 38.6162 93.5874 37.6652C93.5874 36.7261 93.7499 35.8593 94.075 35.0647C94.4121 34.2701 94.8816 33.5779 95.4836 32.988C96.0855 32.3981 96.7898 31.9406 97.5964 31.6155C98.4151 31.2905 99.3 31.1279 100.251 31.1279C100.853 31.1279 101.443 31.2062 102.021 31.3627C102.599 31.5192 103.134 31.754 103.628 32.067C104.134 32.368 104.567 32.7351 104.928 33.1686L103.032 35.3175C102.659 34.9082 102.237 34.5892 101.768 34.3604C101.31 34.1317 100.799 34.0173 100.233 34.0173C99.7514 34.0173 99.2939 34.1016 98.8605 34.2701C98.4392 34.4387 98.072 34.6855 97.7589 35.0105C97.4459 35.3356 97.1991 35.7208 97.0185 36.1663C96.838 36.6117 96.7477 37.1174 96.7477 37.6832C96.7477 38.237 96.8319 38.7427 97.0005 39.2001C97.1811 39.6456 97.4339 40.0308 97.7589 40.3559C98.096 40.6689 98.4933 40.9097 98.9508 41.0782C99.4203 41.2468 99.938 41.3311 100.504 41.3311C100.877 41.3311 101.232 41.2829 101.569 41.1866C101.918 41.0782 102.244 40.9278 102.544 40.7351C102.845 40.5425 103.104 40.3258 103.321 40.085L104.82 42.4688C104.531 42.7938 104.134 43.0888 103.628 43.3536C103.134 43.6185 102.581 43.8292 101.967 43.9857C101.365 44.1302 100.751 44.2024 100.125 44.2024Z" fill="white"/>
<path d="M114.759 44.0218V31.3808H117.847V44.0218H114.759ZM106.903 44.0218V31.3808H109.991V44.0218H106.903ZM108.131 39.1098V36.3288H116.384V39.1098H108.131Z" fill="white"/>
<path d="M119.423 44.0218L124.425 31.3808H127.043L132.01 44.0218H128.903L126.502 37.611C126.417 37.3582 126.321 37.0873 126.213 36.7983C126.116 36.5094 126.02 36.2084 125.924 35.8954C125.827 35.5824 125.737 35.2814 125.653 34.9925C125.569 34.7035 125.496 34.4327 125.436 34.1798L125.96 34.1618C125.888 34.4628 125.809 34.7577 125.725 35.0467C125.641 35.3356 125.551 35.6245 125.454 35.9135C125.358 36.2024 125.256 36.4913 125.147 36.7803C125.051 37.0572 124.949 37.3461 124.84 37.6471L122.457 44.0218H119.423ZM121.806 41.6019L122.782 39.2543H128.56L129.536 41.6019H121.806Z" fill="white"/>
<path d="M133.351 44.0218V41.4214H135.482V33.9812H133.351V31.3808H140.701V33.9812H138.57V41.4214H140.701V44.0218H133.351Z" fill="white"/>
<path d="M143.602 44.0218V31.3808H146.365L153.011 40.392L152.415 40.3198C152.331 39.6456 152.258 39.0196 152.198 38.4417C152.138 37.8518 152.096 37.2378 152.072 36.5997C152.06 35.9616 152.054 35.2272 152.054 34.3965V31.3808H155.052V44.0218H152.252L145.354 34.7397L146.239 34.8661C146.323 35.6005 146.389 36.2084 146.438 36.69C146.486 37.1716 146.522 37.5869 146.546 37.936C146.57 38.2731 146.588 38.5922 146.6 38.8931C146.612 39.1821 146.618 39.5071 146.618 39.8683V44.0218H143.602Z" fill="white"/>
</svg>
