<svg width="500" height="400" viewBox="0 0 500 400" fill="none" xmlns="http://www.w3.org/2000/svg">
<path d="M357 200.008C356.999 207.642 354.374 215.006 349.627 220.692C344.88 226.378 338.344 229.986 331.272 230.824C324.2 231.662 317.088 229.672 311.298 225.235C305.509 220.798 301.448 214.225 299.895 206.776H200.106C198.552 214.226 194.491 220.798 188.701 225.235C182.912 229.672 175.799 231.662 168.727 230.824C161.654 229.985 155.119 226.377 150.372 220.691C145.625 215.004 143 207.639 143 200.006C143 192.372 145.625 185.007 150.372 179.321C155.119 173.634 161.654 170.026 168.727 169.188C175.799 168.349 182.912 170.339 188.701 174.776C194.491 179.213 198.552 185.786 200.106 193.235H299.895C301.448 185.786 305.509 179.213 311.299 174.776C317.09 170.339 324.202 168.349 331.275 169.188C338.347 170.027 344.883 173.635 349.629 179.322C354.376 185.009 357.001 192.375 357 200.008V200.008Z" fill="white" stroke="black" stroke-width="2" stroke-miterlimit="10"/>
<path d="M171.906 225.567C184.982 225.567 195.582 214.164 195.582 200.098C195.582 186.033 184.982 174.63 171.906 174.63C158.83 174.63 148.229 186.033 148.229 200.098C148.229 214.164 158.83 225.567 171.906 225.567Z" fill="#0D0D0D"/>
<path d="M163.554 188.035V198.49" stroke="white" stroke-width="4" stroke-miterlimit="10" stroke-linecap="round"/>
<path d="M180.254 188.035V198.49" stroke="white" stroke-width="4" stroke-miterlimit="10" stroke-linecap="round"/>
<path d="M188.304 202.507C185.691 212.015 178.02 215.644 171.905 215.644C165.79 215.644 158.119 212.015 155.506 202.507" stroke="white" stroke-width="4" stroke-miterlimit="10" stroke-linecap="round"/>
<path d="M328.16 225.568C341.236 225.568 351.836 214.166 351.836 200.1C351.836 186.034 341.236 174.631 328.16 174.631C315.084 174.631 304.483 186.034 304.483 200.1C304.483 214.166 315.084 225.568 328.16 225.568Z" fill="#0D0D0D"/>
<path d="M344.557 202.508C341.945 212.016 334.273 215.645 328.159 215.645C322.044 215.645 314.372 212.016 311.76 202.508" stroke="white" stroke-width="4" stroke-miterlimit="10" stroke-linecap="round"/>
<path d="M319.808 188.035V198.491" stroke="white" stroke-width="4" stroke-miterlimit="10" stroke-linecap="round"/>
<path d="M336.51 188.035V198.491" stroke="white" stroke-width="4" stroke-miterlimit="10" stroke-linecap="round"/>
<rect x="201.516" y="198.602" width="6.5019" height="3.48502" fill="#0D0D0D"/>
<rect x="292.542" y="198.602" width="6.5019" height="3.48502" fill="#0D0D0D"/>
<rect x="211.271" y="198.602" width="13.0038" height="3.48502" fill="#0D0D0D"/>
<rect x="227.522" y="198.602" width="13.0038" height="3.48502" fill="#0D0D0D"/>
<rect x="243.78" y="198.602" width="13.0038" height="3.48502" fill="#0D0D0D"/>
<rect x="260.033" y="198.602" width="13.0038" height="3.48502" fill="#0D0D0D"/>
<rect x="276.286" y="198.602" width="13.0038" height="3.48502" fill="#0D0D0D"/>
</svg>
