<svg width="167" height="511" viewBox="0 0 167 511" fill="none" xmlns="http://www.w3.org/2000/svg">
<path d="M6.20312 38.3223V7.47607L16.7825 12.8738C19.7424 14.3839 22.9889 15.1685 26.2782 15.1685C29.5675 15.1685 32.814 14.3839 35.774 12.8738L46.3533 7.47607L56.9327 12.8738C59.8926 14.384 63.1392 15.1685 66.4284 15.1685C69.7177 15.1685 72.9643 14.384 75.9242 12.8738L86.5036 7.4761L97.0829 12.8738C100.043 14.384 103.289 15.1685 106.579 15.1685C109.868 15.1685 113.114 14.384 116.074 12.8738L126.654 7.47609L137.233 12.8738C140.193 14.384 143.44 15.1685 146.729 15.1685C150.018 15.1685 153.265 14.384 156.225 12.8738L166.804 7.47609V38.3223H6.20312Z" fill="black"/>
<path d="M1.00146 32.8467V2L11.5808 7.39777C14.5407 8.90798 17.7873 9.69255 21.0766 9.69255C24.3659 9.69255 27.6124 8.90798 30.5723 7.39777L41.1517 2L51.7311 7.39778C54.691 8.90798 57.9375 9.69254 61.2268 9.69254C64.5161 9.69254 67.7626 8.90798 70.7226 7.39778L81.3019 2L91.8813 7.39777C94.8412 8.90798 98.0878 9.69254 101.377 9.69254C104.666 9.69254 107.913 8.90798 110.873 7.39777L121.452 2L132.032 7.39777C134.991 8.90798 138.238 9.69255 141.527 9.69255C144.817 9.69255 148.063 8.90798 151.023 7.39777L161.602 2V32.8467H1.00146Z" fill="white" stroke="black" stroke-width="2" stroke-miterlimit="10"/>
<path d="M145.363 248.948V248.948C145.363 251.589 146.413 254.122 148.283 255.989C150.153 257.857 152.689 258.906 155.334 258.906C157.979 258.906 160.515 257.857 162.384 255.989C164.254 254.122 165.304 251.589 165.304 248.948V232.635H7.70215V248.662C7.70215 254.202 12.0782 258.83 17.5299 258.905L17.5307 258.905C20.1605 258.943 22.6986 257.942 24.5928 256.12C26.4867 254.299 27.5836 251.804 27.6455 249.18L145.363 248.948ZM145.363 248.948C145.363 247.163 144.993 245.398 144.278 243.763M145.363 248.948L144.278 243.763M99.4762 248.947V248.948C99.4762 251.569 100.511 254.085 102.356 255.949C104.201 257.813 106.708 258.876 109.333 258.906C111.958 258.936 114.489 257.93 116.376 256.109C118.263 254.287 119.355 251.796 119.415 249.176C119.415 249.176 119.415 249.176 119.415 249.175L120.914 249.21L99.4762 248.947ZM99.4762 248.947C99.4739 245.511 98.1057 242.216 95.6728 239.788C93.24 237.359 89.9418 235.995 86.5032 235.995C83.0646 235.995 79.7663 237.359 77.3335 239.788C74.9007 242.216 73.5325 245.511 73.5302 248.947V248.948M99.4762 248.947L73.5302 248.948M73.5302 248.948C73.5302 251.589 72.4801 254.122 70.6104 255.989M73.5302 248.948L70.6104 255.989M144.278 243.763C143.563 242.128 142.518 240.658 141.209 239.445M144.278 243.763L141.209 239.445M141.209 239.445C139.899 238.232 138.353 237.303 136.667 236.714M141.209 239.445L136.667 236.714M136.667 236.714C134.982 236.126 133.193 235.892 131.413 236.026L136.667 236.714ZM70.6104 255.989C68.7407 257.857 66.2045 258.906 63.5597 258.906M70.6104 255.989L63.5597 258.906M63.5597 258.906C60.9148 258.906 58.3786 257.857 56.5089 255.989M63.5597 258.906L56.5089 255.989M56.5089 255.989C54.6393 254.122 53.5892 251.589 53.5892 248.948L56.5089 255.989ZM17.5091 260.404V260.404V260.404ZM166.777 231.162V231.162V231.162ZM53.5892 248.948C53.5893 247.164 53.2208 245.4 52.5067 243.765C51.7926 242.13 50.7484 240.66 49.4395 239.447C48.1306 238.234 46.5853 237.304 44.9002 236.715C43.2157 236.127 41.4277 235.892 39.6483 236.025C32.7518 236.528 27.7992 242.45 27.6456 249.179L53.5892 248.948Z" stroke="#0D0D0D" stroke-width="3"/>
<path d="M161.574 225.938C161.578 225.938 161.582 225.939 161.585 225.94C161.588 225.941 161.591 225.944 161.594 225.946C161.596 225.949 161.598 225.952 161.6 225.955C161.601 225.958 161.602 225.962 161.602 225.966V243.751C161.602 246.79 160.393 249.705 158.242 251.854C156.091 254.002 153.174 255.21 150.131 255.21C147.089 255.21 144.172 254.002 142.021 251.854C139.869 249.705 138.661 246.79 138.661 243.751C138.66 242.174 138.334 240.613 137.702 239.167C137.07 237.721 136.146 236.422 134.987 235.349C133.829 234.276 132.462 233.454 130.971 232.934C129.48 232.413 127.897 232.206 126.322 232.325C120.286 232.766 115.848 237.968 115.712 244.013C115.643 247.028 114.387 249.895 112.215 251.991C110.044 254.087 107.133 255.243 104.114 255.209C101.094 255.175 98.2104 253.952 96.0875 251.807C93.9646 249.662 92.774 246.768 92.774 243.751C92.772 240.713 91.5623 237.8 89.4109 235.652C87.2595 233.505 84.3425 232.298 81.301 232.298C78.2595 232.298 75.3425 233.505 73.1911 235.652C71.0397 237.8 69.83 240.713 69.828 243.751C69.828 246.79 68.6195 249.705 66.4683 251.854C64.3172 254.002 61.3996 255.21 58.3575 255.21C55.3153 255.21 52.3978 254.002 50.2466 251.854C48.0955 249.705 46.887 246.79 46.887 243.751C46.8871 242.174 46.5613 240.614 45.9299 239.169C45.2985 237.723 44.3752 236.423 43.2178 235.351C42.0603 234.278 40.6936 233.455 39.2033 232.935C37.7129 232.414 36.1311 232.206 34.5567 232.325C28.5171 232.764 24.0808 237.97 23.943 244.017C23.872 247.038 22.6096 249.909 20.4304 252.005C18.2512 254.101 15.3316 255.252 12.3069 255.208C5.98838 255.121 1 249.778 1 243.465V225.966C1 225.958 1.00291 225.951 1.0081 225.946C1.01328 225.941 1.02032 225.938 1.02765 225.938H161.574Z" fill="white" stroke="black" stroke-width="2" stroke-miterlimit="10"/>
<path d="M153.795 52.686H16.5869C10.1272 52.686 4.89062 58.1983 4.89062 64.9981V203.421C4.89062 210.221 10.1272 215.733 16.5869 215.733H153.795C160.255 215.733 165.491 210.221 165.491 203.421V64.9981C165.491 58.1983 160.255 52.686 153.795 52.686Z" fill="black"/>
<path d="M149.906 48.5923H12.6973C6.23759 48.5923 1.00098 54.1046 1.00098 60.9044V199.328C1.00098 206.127 6.23759 211.64 12.6973 211.64H149.906C156.365 211.64 161.602 206.127 161.602 199.328V60.9044C161.602 54.1046 156.365 48.5923 149.906 48.5923Z" fill="white" stroke="black" stroke-width="2" stroke-miterlimit="10"/>
<path d="M136.023 85.1339C136.023 89.041 134.654 92.8107 132.177 95.721C129.701 98.6314 126.292 100.478 122.603 100.907C118.913 101.336 115.204 100.317 112.183 98.0462C109.163 95.775 107.045 92.4109 106.235 88.5981H54.1812C53.3707 92.411 51.2525 95.7752 48.2322 98.0464C45.2119 100.318 41.502 101.336 37.8127 100.907C34.1235 100.478 30.7143 98.6309 28.238 95.7203C25.7618 92.8097 24.3926 89.0398 24.3926 85.1326C24.3926 81.2253 25.7618 77.4554 28.238 74.5448C30.7143 71.6342 34.1235 69.7875 37.8127 69.3583C41.502 68.9291 45.2119 69.9476 48.2322 72.2187C51.2525 74.4899 53.3707 77.8541 54.1812 81.667H106.235C107.045 77.854 109.164 74.4897 112.184 72.2186C115.204 69.9474 118.915 68.929 122.604 69.3584C126.293 69.7878 129.702 71.6347 132.178 74.5456C134.655 77.4565 136.024 81.2266 136.023 85.1339Z" stroke="black" stroke-width="2" stroke-miterlimit="10"/>
<path d="M138.569 87.8131C138.569 91.7202 137.199 95.4899 134.723 98.4002C132.247 101.311 128.838 103.157 125.148 103.586C121.459 104.015 117.749 102.997 114.729 100.725C111.709 98.4542 109.591 95.0901 108.781 91.2773H56.7271C55.9166 95.0902 53.7983 98.4544 50.7781 100.726C47.7578 102.997 44.0478 104.015 40.3586 103.586C36.6693 103.157 33.2602 101.31 30.7839 98.3995C28.3077 95.4889 26.9385 91.719 26.9385 87.8118C26.9385 83.9045 28.3077 80.1346 30.7839 77.224C33.2602 74.3134 36.6693 72.4667 40.3586 72.0375C44.0478 71.6083 47.7578 72.6268 50.7781 74.8979C53.7983 77.1691 55.9166 80.5333 56.7271 84.3462H108.781C109.591 80.5332 111.71 77.1689 114.73 74.8978C117.75 72.6266 121.46 71.6082 125.15 72.0376C128.839 72.4669 132.248 74.3139 134.724 77.2248C137.2 80.1357 138.569 83.9058 138.569 87.8131V87.8131Z" stroke="black" stroke-width="2" stroke-miterlimit="10"/>
<path d="M133.478 82.4545C133.478 86.3615 132.108 90.1311 129.632 93.0414C127.155 95.9517 123.746 97.7982 120.057 98.2272C116.368 98.6563 112.658 97.6377 109.638 95.3665C106.618 93.0954 104.5 89.7314 103.689 85.9186H51.6358C50.8253 89.7315 48.707 93.0956 45.6868 95.3667C42.6665 97.6378 38.9565 98.6563 35.2673 98.2271C31.578 97.7979 28.1689 95.9512 25.6926 93.0407C23.2164 90.1301 21.8472 86.3603 21.8472 82.4531C21.8472 78.546 23.2164 74.7761 25.6926 71.8656C28.1689 68.955 31.578 67.1083 35.2673 66.6791C38.9565 66.2499 42.6665 67.2684 45.6868 69.5395C48.707 71.8106 50.8253 75.1747 51.6358 78.9876H103.689C104.5 75.1746 106.618 71.8104 109.639 69.5393C112.659 67.2682 116.369 66.2498 120.058 66.6792C123.748 67.1086 127.157 68.9555 129.633 71.8663C132.109 74.7771 133.478 78.5472 133.478 82.4545Z" fill="white" stroke="black" stroke-width="2" stroke-miterlimit="10"/>
<path d="M36.921 95.4502C43.7399 95.4502 49.2677 89.6312 49.2677 82.4531C49.2677 75.275 43.7399 69.4561 36.921 69.4561C30.102 69.4561 24.5742 75.275 24.5742 82.4531C24.5742 89.6312 30.102 95.4502 36.921 95.4502Z" fill="#01F293"/>
<path d="M118.403 95.4502C125.222 95.4502 130.75 89.6312 130.75 82.4531C130.75 75.275 125.222 69.4561 118.403 69.4561C111.584 69.4561 106.057 75.275 106.057 82.4531C106.057 89.6312 111.584 95.4502 118.403 95.4502Z" fill="#01F293"/>
<path d="M136.023 127.818C136.023 131.725 134.654 135.494 132.177 138.405C129.701 141.315 126.292 143.161 122.603 143.591C118.913 144.02 115.204 143.001 112.183 140.73C109.163 138.459 107.045 135.095 106.235 131.282H54.1812C53.3707 135.095 51.2525 138.459 48.2322 140.73C45.2119 143.001 41.502 144.02 37.8127 143.59C34.1235 143.161 30.7143 141.315 28.238 138.404C25.7618 135.493 24.3926 131.724 24.3926 127.816C24.3926 123.909 25.7618 120.139 28.238 117.229C30.7143 114.318 34.1235 112.472 37.8127 112.042C41.502 111.613 45.2119 112.632 48.2322 114.903C51.2525 117.174 53.3707 120.538 54.1812 124.351H106.235C107.045 120.538 109.164 117.174 112.184 114.903C115.204 112.631 118.915 111.613 122.604 112.042C126.293 112.472 129.702 114.319 132.178 117.23C134.655 120.14 136.024 123.91 136.023 127.818Z" stroke="black" stroke-width="2" stroke-miterlimit="10"/>
<path d="M138.569 130.497C138.569 134.404 137.199 138.174 134.723 141.084C132.247 143.995 128.838 145.841 125.148 146.27C121.459 146.699 117.749 145.681 114.729 143.41C111.709 141.138 109.591 137.774 108.781 133.962H56.7271C55.9166 137.774 53.7984 141.139 50.7781 143.41C47.7578 145.681 44.0478 146.699 40.3586 146.27C36.6693 145.841 33.2602 143.994 30.7839 141.084C28.3077 138.173 26.9385 134.403 26.9385 130.496C26.9385 126.589 28.3077 122.819 30.7839 119.909C33.2602 116.998 36.6693 115.151 40.3586 114.722C44.0478 114.293 47.7578 115.311 50.7781 117.582C53.7984 119.854 55.9166 123.218 56.7271 127.031H108.781C109.591 123.218 111.71 119.853 114.73 117.582C117.75 115.311 121.46 114.293 125.15 114.722C128.839 115.152 132.248 116.998 134.724 119.909C137.2 122.82 138.569 126.59 138.569 130.497V130.497Z" stroke="black" stroke-width="2" stroke-miterlimit="10"/>
<path d="M133.478 125.139C133.478 129.045 132.108 132.815 129.632 135.725C127.155 138.635 123.746 140.482 120.057 140.911C116.368 141.34 112.658 140.321 109.638 138.05C106.618 135.779 104.5 132.415 103.689 128.603H51.6358C50.8253 132.415 48.707 135.779 45.6868 138.05C42.6665 140.321 38.9565 141.34 35.2673 140.911C31.578 140.482 28.1689 138.635 25.6926 135.724C23.2164 132.814 21.8472 129.044 21.8472 125.137C21.8472 121.23 23.2164 117.46 25.6926 114.55C28.1689 111.639 31.578 109.793 35.2673 109.364C38.9565 108.934 42.6665 109.953 45.6868 112.224C48.707 114.495 50.8253 117.859 51.6358 121.672H103.689C104.5 117.859 106.618 114.495 109.639 112.224C112.659 109.953 116.369 108.934 120.058 109.364C123.748 109.793 127.157 111.64 129.633 114.551C132.109 117.461 133.478 121.231 133.478 125.139V125.139Z" fill="white" stroke="black" stroke-width="2" stroke-miterlimit="10"/>
<path d="M36.921 138.134C43.7399 138.134 49.2677 132.315 49.2677 125.137C49.2677 117.959 43.7399 112.14 36.921 112.14C30.102 112.14 24.5742 117.959 24.5742 125.137C24.5742 132.315 30.102 138.134 36.921 138.134Z" fill="black"/>
<path d="M118.403 138.134C125.222 138.134 130.75 132.315 130.75 125.137C130.75 117.959 125.222 112.14 118.403 112.14C111.584 112.14 106.057 117.959 106.057 125.137C106.057 132.315 111.584 138.134 118.403 138.134Z" fill="black"/>
<path d="M136.023 170.502C136.023 174.409 134.654 178.179 132.177 181.089C129.701 183.999 126.292 185.846 122.603 186.275C118.913 186.704 115.204 185.685 112.183 183.414C109.163 181.143 107.045 177.779 106.235 173.966H54.1812C53.3707 177.779 51.2525 181.143 48.2322 183.414C45.2119 185.685 41.502 186.704 37.8127 186.275C34.1235 185.845 30.7143 183.999 28.238 181.088C25.7618 178.178 24.3926 174.408 24.3926 170.501C24.3926 166.594 25.7618 162.824 28.238 159.913C30.7143 157.003 34.1235 155.156 37.8127 154.727C41.502 154.298 45.2119 155.316 48.2322 157.587C51.2525 159.858 53.3707 163.222 54.1812 167.035H106.235C107.045 163.222 109.164 159.858 112.184 157.587C115.204 155.316 118.915 154.298 122.604 154.727C126.293 155.156 129.702 157.003 132.178 159.914C134.655 162.825 136.024 166.595 136.023 170.502V170.502Z" stroke="black" stroke-width="2" stroke-miterlimit="10"/>
<path d="M138.569 173.181C138.569 177.088 137.199 180.858 134.723 183.768C132.247 186.679 128.838 188.525 125.148 188.954C121.459 189.383 117.749 188.365 114.729 186.094C111.709 183.822 109.591 180.458 108.781 176.645H56.7271C55.9166 180.458 53.7983 183.823 50.7781 186.094C47.7578 188.365 44.0478 189.383 40.3586 188.954C36.6693 188.525 33.2602 186.678 30.7839 183.768C28.3077 180.857 26.9385 177.087 26.9385 173.18C26.9385 169.273 28.3077 165.503 30.7839 162.592C33.2602 159.682 36.6693 157.835 40.3586 157.406C44.0478 156.976 47.7578 157.995 50.7781 160.266C53.7983 162.537 55.9166 165.901 56.7271 169.714H108.781C109.591 165.901 111.71 162.537 114.73 160.266C117.75 157.995 121.46 156.976 125.15 157.406C128.839 157.835 132.248 159.682 134.724 162.593C137.2 165.504 138.569 169.274 138.569 173.181V173.181Z" stroke="black" stroke-width="2" stroke-miterlimit="10"/>
<path d="M133.478 167.823C133.478 171.73 132.108 175.499 129.632 178.41C127.155 181.32 123.746 183.166 120.057 183.595C116.368 184.024 112.658 183.006 109.638 180.735C106.618 178.464 104.5 175.1 103.689 171.287H51.6358C50.8253 175.1 48.707 178.464 45.6868 180.735C42.6665 183.006 38.9565 184.024 35.2673 183.595C31.578 183.166 28.1689 181.319 25.6926 178.409C23.2164 175.498 21.8472 171.728 21.8472 167.821C21.8472 163.914 23.2164 160.144 25.6926 157.234C28.1689 154.323 31.578 152.476 35.2673 152.047C38.9565 151.618 42.6665 152.637 45.6868 154.908C48.707 157.179 50.8253 160.543 51.6358 164.356H103.689C104.5 160.543 106.618 157.179 109.639 154.907C112.659 152.636 116.369 151.618 120.058 152.047C123.748 152.477 127.157 154.324 129.633 157.234C132.109 160.145 133.478 163.915 133.478 167.823V167.823Z" fill="white" stroke="black" stroke-width="2" stroke-miterlimit="10"/>
<path d="M36.921 180.818C43.7399 180.818 49.2677 174.999 49.2677 167.821C49.2677 160.643 43.7399 154.824 36.921 154.824C30.102 154.824 24.5742 160.643 24.5742 167.821C24.5742 174.999 30.102 180.818 36.921 180.818Z" fill="black"/>
<path d="M118.403 180.818C125.222 180.818 130.75 174.999 130.75 167.821C130.75 160.643 125.222 154.824 118.403 154.824C111.584 154.824 106.057 160.643 106.057 167.821C106.057 174.999 111.584 180.818 118.403 180.818Z" fill="black"/>
<path d="M153.795 302.208H16.5864C10.1267 302.208 4.89014 307.721 4.89014 314.521L4.89014 452.944C4.89014 459.744 10.1267 465.256 16.5864 465.256H153.795C160.254 465.256 165.491 459.744 165.491 452.944L165.491 314.521C165.491 307.721 160.254 302.208 153.795 302.208Z" fill="black"/>
<path d="M149.906 298.115H12.6973C6.23758 298.115 1.00098 303.628 1.00098 310.427L1.00098 448.85C1.00098 455.65 6.23758 461.163 12.6973 461.163H149.906C156.365 461.163 161.602 455.65 161.602 448.85L161.602 310.427C161.602 303.628 156.365 298.115 149.906 298.115Z" fill="white" stroke="black" stroke-width="2" stroke-miterlimit="10"/>
<path d="M136.023 334.657C136.023 338.564 134.654 342.334 132.177 345.244C129.701 348.154 126.292 350.001 122.603 350.43C118.913 350.859 115.204 349.84 112.183 347.569C109.163 345.298 107.045 341.934 106.235 338.121H54.1812C53.3707 341.934 51.2525 345.298 48.2322 347.569C45.2119 349.84 41.502 350.859 37.8127 350.43C34.1235 350.001 30.7143 348.154 28.238 345.243C25.7618 342.333 24.3926 338.563 24.3926 334.656C24.3926 330.748 25.7618 326.978 28.238 324.068C30.7143 321.157 34.1235 319.31 37.8127 318.881C41.502 318.452 45.2119 319.471 48.2322 321.742C51.2525 324.013 53.3707 327.377 54.1812 331.19H106.235C107.045 327.377 109.164 324.013 112.184 321.742C115.204 319.47 118.915 318.452 122.604 318.881C126.293 319.311 129.702 321.158 132.178 324.069C134.655 326.979 136.024 330.75 136.023 334.657Z" stroke="black" stroke-width="2" stroke-miterlimit="10"/>
<path d="M138.569 337.336C138.569 341.243 137.199 345.012 134.723 347.923C132.247 350.833 128.838 352.679 125.148 353.108C121.459 353.537 117.749 352.519 114.729 350.248C111.709 347.977 109.591 344.613 108.781 340.8H56.7271C55.9166 344.613 53.7983 347.977 50.7781 350.248C47.7578 352.519 44.0478 353.537 40.3586 353.108C36.6693 352.679 33.2602 350.832 30.7839 347.922C28.3077 345.011 26.9385 341.242 26.9385 337.335C26.9385 333.428 28.3077 329.658 30.7839 326.748C33.2602 323.837 36.6693 321.991 40.3586 321.561C44.0478 321.132 47.7578 322.151 50.7781 324.422C53.7983 326.693 55.9166 330.057 56.7271 333.869H108.781C109.591 330.057 111.71 326.693 114.73 324.422C117.75 322.15 121.46 321.132 125.15 321.561C128.839 321.991 132.248 323.838 134.724 326.748C137.2 329.659 138.569 333.429 138.569 337.336V337.336Z" stroke="black" stroke-width="2" stroke-miterlimit="10"/>
<path d="M133.478 331.977C133.478 335.884 132.108 339.654 129.632 342.564C127.155 345.475 123.746 347.321 120.057 347.75C116.368 348.179 112.658 347.161 109.638 344.889C106.618 342.618 104.5 339.254 103.689 335.442H51.6358C50.8253 339.254 48.707 342.619 45.6868 344.89C42.6665 347.161 38.9565 348.179 35.2673 347.75C31.578 347.321 28.1689 345.474 25.6926 342.564C23.2164 339.653 21.8472 335.883 21.8472 331.976C21.8472 328.069 23.2164 324.299 25.6926 321.389C28.1689 318.478 31.578 316.631 35.2673 316.202C38.9565 315.773 42.6665 316.791 45.6868 319.062C48.707 321.334 50.8253 324.698 51.6358 328.511H103.689C104.5 324.698 106.618 321.333 109.639 319.062C112.659 316.791 116.369 315.773 120.058 316.202C123.748 316.631 127.157 318.478 129.633 321.389C132.109 324.3 133.478 328.07 133.478 331.977Z" fill="white" stroke="black" stroke-width="2" stroke-miterlimit="10"/>
<path d="M36.921 344.973C43.7399 344.973 49.2677 339.154 49.2677 331.977C49.2677 324.799 43.7399 318.98 36.921 318.98C30.102 318.98 24.5742 324.799 24.5742 331.977C24.5742 339.154 30.102 344.973 36.921 344.973Z" fill="black"/>
<path d="M118.403 344.973C125.222 344.973 130.75 339.154 130.75 331.977C130.75 324.799 125.222 318.98 118.403 318.98C111.584 318.98 106.057 324.799 106.057 331.977C106.057 339.154 111.584 344.973 118.403 344.973Z" fill="black"/>
<path d="M136.023 377.341C136.023 381.248 134.654 385.017 132.177 387.928C129.701 390.838 126.292 392.684 122.603 393.113C118.913 393.542 115.204 392.524 112.183 390.253C109.163 387.982 107.045 384.618 106.235 380.805H54.1812C53.3707 384.618 51.2525 387.982 48.2322 390.253C45.2119 392.524 41.502 393.543 37.8127 393.113C34.1235 392.684 30.7143 390.837 28.238 387.927C25.7618 385.016 24.3926 381.246 24.3926 377.339C24.3926 373.432 25.7618 369.662 28.238 366.752C30.7143 363.841 34.1235 361.995 37.8127 361.565C41.502 361.136 45.2119 362.155 48.2322 364.426C51.2525 366.697 53.3707 370.061 54.1812 373.874H106.235C107.045 370.061 109.164 366.697 112.184 364.426C115.204 362.154 118.915 361.136 122.604 361.565C126.293 361.995 129.702 363.842 132.178 366.753C134.655 369.663 136.024 373.433 136.023 377.341Z" stroke="black" stroke-width="2" stroke-miterlimit="10"/>
<path d="M138.569 380.02C138.569 383.927 137.199 387.697 134.723 390.607C132.247 393.518 128.838 395.364 125.148 395.793C121.459 396.222 117.749 395.204 114.729 392.932C111.709 390.661 109.591 387.297 108.781 383.485H56.7271C55.9166 387.297 53.7984 390.662 50.7781 392.933C47.7578 395.204 44.0478 396.222 40.3586 395.793C36.6693 395.364 33.2602 393.517 30.7839 390.607C28.3077 387.696 26.9385 383.926 26.9385 380.019C26.9385 376.112 28.3077 372.342 30.7839 369.431C33.2602 366.521 36.6693 364.674 40.3586 364.245C44.0478 363.816 47.7578 364.834 50.7781 367.105C53.7984 369.377 55.9166 372.741 56.7271 376.554H108.781C109.591 372.741 111.71 369.376 114.73 367.105C117.75 364.834 121.46 363.816 125.15 364.245C128.839 364.674 132.248 366.521 134.724 369.432C137.2 372.343 138.569 376.113 138.569 380.02V380.02Z" stroke="black" stroke-width="2" stroke-miterlimit="10"/>
<path d="M133.478 374.662C133.478 378.569 132.108 382.339 129.632 385.249C127.155 388.159 123.746 390.006 120.057 390.435C116.368 390.864 112.658 389.845 109.638 387.574C106.618 385.303 104.5 381.939 103.689 378.126H51.6358C50.8253 381.939 48.707 385.303 45.6868 387.574C42.6665 389.845 38.9565 390.864 35.2673 390.435C31.578 390.005 28.1689 388.159 25.6926 385.248C23.2164 382.338 21.8472 378.568 21.8472 374.661C21.8472 370.753 23.2164 366.984 25.6926 364.073C28.1689 361.163 31.578 359.316 35.2673 358.887C38.9565 358.457 42.6665 359.476 45.6868 361.747C48.707 364.018 50.8253 367.382 51.6358 371.195H103.689C104.5 367.382 106.618 364.018 109.639 361.747C112.659 359.476 116.369 358.457 120.058 358.887C123.748 359.316 127.157 361.163 129.633 364.074C132.109 366.985 133.478 370.755 133.478 374.662V374.662Z" fill="white" stroke="black" stroke-width="2" stroke-miterlimit="10"/>
<path d="M36.921 387.657C43.7399 387.657 49.2677 381.838 49.2677 374.66C49.2677 367.482 43.7399 361.664 36.921 361.664C30.102 361.664 24.5742 367.482 24.5742 374.66C24.5742 381.838 30.102 387.657 36.921 387.657Z" fill="black"/>
<path d="M118.403 387.657C125.222 387.657 130.75 381.838 130.75 374.66C130.75 367.482 125.222 361.664 118.403 361.664C111.584 361.664 106.057 367.482 106.057 374.66C106.057 381.838 111.584 387.657 118.403 387.657Z" fill="black"/>
<path d="M136.023 420.025C136.023 423.932 134.654 427.702 132.177 430.612C129.701 433.523 126.292 435.369 122.603 435.798C118.913 436.227 115.204 435.208 112.183 432.937C109.163 430.666 107.045 427.302 106.235 423.489H54.1812C53.3707 427.302 51.2525 430.666 48.2322 432.938C45.2119 435.209 41.502 436.227 37.8127 435.798C34.1235 435.369 30.7143 433.522 28.238 430.611C25.7618 427.701 24.3926 423.931 24.3926 420.024C24.3926 416.117 25.7618 412.347 28.238 409.436C30.7143 406.526 34.1235 404.679 37.8127 404.25C41.502 403.821 45.2119 404.839 48.2322 407.11C51.2525 409.381 53.3707 412.746 54.1812 416.558H106.235C107.045 412.745 109.164 409.381 112.184 407.11C115.204 404.839 118.915 403.821 122.604 404.25C126.293 404.679 129.702 406.526 132.178 409.437C134.655 412.348 136.024 416.118 136.023 420.025V420.025Z" stroke="black" stroke-width="2" stroke-miterlimit="10"/>
<path d="M138.569 422.704C138.569 426.611 137.199 430.381 134.723 433.291C132.247 436.201 128.838 438.048 125.148 438.477C121.459 438.906 117.749 437.887 114.729 435.616C111.709 433.345 109.591 429.981 108.781 426.168H56.7271C55.9166 429.981 53.7983 433.345 50.7781 435.616C47.7578 437.887 44.0478 438.906 40.3586 438.477C36.6693 438.047 33.2602 436.201 30.7839 433.29C28.3077 430.38 26.9385 426.61 26.9385 422.703C26.9385 418.796 28.3077 415.026 30.7839 412.115C33.2602 409.205 36.6693 407.358 40.3586 406.929C44.0478 406.5 47.7578 407.518 50.7781 409.789C53.7983 412.061 55.9166 415.425 56.7271 419.237H108.781C109.591 415.425 111.71 412.06 114.73 409.789C117.75 407.518 121.46 406.5 125.15 406.929C128.839 407.359 132.248 409.205 134.724 412.116C137.2 415.027 138.569 418.797 138.569 422.704V422.704Z" stroke="black" stroke-width="2" stroke-miterlimit="10"/>
<path d="M133.478 417.346C133.478 421.253 132.108 425.022 129.632 427.933C127.155 430.843 123.746 432.689 120.057 433.118C116.368 433.547 112.658 432.529 109.638 430.258C106.618 427.987 104.5 424.623 103.689 420.81H51.6358C50.8253 424.623 48.707 427.987 45.6868 430.258C42.6665 432.529 38.9565 433.547 35.2673 433.118C31.578 432.689 28.1689 430.842 25.6926 427.932C23.2164 425.021 21.8472 421.252 21.8472 417.344C21.8472 413.437 23.2164 409.668 25.6926 406.757C28.1689 403.847 31.578 402 35.2673 401.571C38.9565 401.141 42.6665 402.16 45.6868 404.431C48.707 406.702 50.8253 410.066 51.6358 413.879H103.689C104.5 410.066 106.618 406.702 109.639 404.431C112.659 402.16 116.369 401.141 120.058 401.571C123.748 402 127.157 403.847 129.633 406.758C132.109 409.669 133.478 413.439 133.478 417.346V417.346Z" fill="white" stroke="black" stroke-width="2" stroke-miterlimit="10"/>
<path d="M36.921 430.342C43.7399 430.342 49.2677 424.523 49.2677 417.345C49.2677 410.167 43.7399 404.348 36.921 404.348C30.102 404.348 24.5742 410.167 24.5742 417.345C24.5742 424.523 30.102 430.342 36.921 430.342Z" fill="black"/>
<path d="M118.403 430.342C125.222 430.342 130.75 424.523 130.75 417.345C130.75 410.167 125.222 404.348 118.403 404.348C111.584 404.348 106.057 410.167 106.057 417.345C106.057 424.523 111.584 430.342 118.403 430.342Z" fill="black"/>
<path d="M166.804 268.057V286.27C166.804 286.273 166.804 286.277 166.802 286.28C166.801 286.284 166.799 286.287 166.796 286.29C166.794 286.292 166.791 286.294 166.787 286.296C166.784 286.297 166.78 286.298 166.777 286.298H6.54517C6.54155 286.298 6.53796 286.297 6.53461 286.296C6.53127 286.294 6.52822 286.292 6.52566 286.29C6.5231 286.287 6.52107 286.284 6.51968 286.28C6.51829 286.277 6.51758 286.273 6.51758 286.27V268.057C6.51835 271.145 7.70694 274.109 9.82561 276.305C11.9443 278.501 14.8222 279.753 17.8354 279.789C20.8486 279.825 23.7541 278.642 25.9219 276.496C28.0897 274.351 29.345 271.416 29.4156 268.329C29.4121 265.34 30.4955 262.458 32.4541 260.244C34.4128 258.03 37.1061 256.644 40.0084 256.356C41.5797 256.234 43.1585 256.447 44.6459 256.98C46.1333 257.514 47.4973 258.356 48.6525 259.454C49.8077 260.552 50.7292 261.883 51.3594 263.364C51.9895 264.844 52.3147 266.442 52.3146 268.057C52.3146 271.169 53.5207 274.153 55.6676 276.353C57.8145 278.554 60.7263 279.79 63.7625 279.79C66.7987 279.79 69.7106 278.554 71.8575 276.353C74.0044 274.153 75.2105 271.169 75.2105 268.057C75.2105 264.944 76.4169 261.959 78.5643 259.758C80.7117 257.557 83.6241 256.321 86.661 256.321C89.6979 256.321 92.6103 257.557 94.7577 259.758C96.9051 261.959 98.1115 264.944 98.1115 268.057C98.1121 271.145 99.3006 274.109 101.419 276.305C103.538 278.501 106.416 279.752 109.429 279.787C112.442 279.822 115.347 278.639 117.514 276.493C119.681 274.347 120.935 271.412 121.005 268.324C121.001 265.337 122.084 262.456 124.042 260.243C126 258.029 128.693 256.644 131.594 256.356C133.166 256.234 134.745 256.446 136.233 256.979C137.721 257.512 139.086 258.354 140.242 259.452C141.398 260.551 142.32 261.882 142.951 263.362C143.582 264.843 143.908 266.441 143.909 268.057C143.909 271.169 145.115 274.153 147.262 276.353C149.408 278.554 152.32 279.79 155.356 279.79C158.393 279.79 161.304 278.554 163.451 276.353C165.598 274.153 166.804 271.169 166.804 268.057H166.804Z" fill="black"/>
<path d="M161.612 262.736V280.948C161.612 280.955 161.609 280.962 161.604 280.968C161.599 280.973 161.592 280.976 161.584 280.976H1.35279C1.34917 280.976 1.34558 280.975 1.34223 280.974C1.33888 280.973 1.33584 280.97 1.33328 280.968C1.33071 280.965 1.32868 280.962 1.32729 280.959C1.32591 280.955 1.32519 280.952 1.3252 280.948V262.736C1.32596 265.824 2.51455 268.788 4.63323 270.984C6.7519 273.18 9.62986 274.432 12.643 274.467C15.6562 274.503 18.5617 273.32 20.7295 271.175C22.8973 269.03 24.1526 266.095 24.2232 263.008C24.2197 260.019 25.3031 257.137 27.2617 254.923C29.2204 252.709 31.9138 251.323 34.816 251.035C36.3873 250.914 37.9661 251.126 39.4535 251.66C40.9409 252.193 42.3049 253.035 43.4601 254.133C44.6153 255.232 45.5368 256.563 46.1669 258.043C46.7971 259.523 47.1223 261.121 47.1222 262.736C47.1222 265.847 48.3283 268.832 50.4752 271.032C52.6221 273.232 55.5339 274.468 58.5701 274.468C61.6063 274.468 64.5181 273.232 66.665 271.032C68.812 268.832 70.0181 265.847 70.0181 262.736C70.0181 259.623 71.2245 256.638 73.3719 254.437C75.5192 252.236 78.4317 251 81.4686 251C84.5055 251 87.4179 252.236 89.5653 254.437C91.7127 256.638 92.9191 259.623 92.9191 262.736C92.9195 265.824 94.108 268.787 96.2267 270.983C98.3454 273.179 101.223 274.431 104.236 274.466C107.25 274.501 110.155 273.318 112.322 271.172C114.489 269.026 115.743 266.091 115.812 263.003C115.809 260.016 116.892 257.135 118.85 254.922C120.808 252.709 123.5 251.323 126.401 251.035C127.973 250.913 129.553 251.126 131.041 251.658C132.529 252.191 133.894 253.033 135.05 254.132C136.206 255.23 137.128 256.561 137.759 258.041C138.39 259.522 138.716 261.12 138.716 262.736C138.716 265.847 139.922 268.832 142.069 271.032C144.216 273.232 147.128 274.468 150.164 274.468C153.2 274.468 156.112 273.232 158.259 271.032C160.406 268.832 161.612 265.847 161.612 262.736H161.612Z" fill="white" stroke="black" stroke-width="2" stroke-miterlimit="10"/>
<path d="M161.805 482.182H6.80469V507.682L35.8047 493.182L60.8047 507.682L82.8047 493.182L108.805 507.682L131.805 493.182L161.805 507.682V482.182Z" fill="black" stroke="black" stroke-width="3"/>
<path d="M159.805 477.182H4.80469V502.682L33.8047 488.182L58.8047 502.682L80.8047 488.182L106.805 502.682L129.805 488.182L159.805 502.682V477.182Z" fill="white" stroke="black" stroke-width="3"/>
</svg>
