<svg width="500" height="400" viewBox="0 0 500 400" fill="none" xmlns="http://www.w3.org/2000/svg">
<path d="M344.357 87.6241H160.845C152.206 87.6241 145.202 95.198 145.202 104.541V294.731C145.202 304.074 152.206 311.648 160.845 311.648H344.357C352.996 311.648 360 304.074 360 294.731V104.541C360 95.198 352.996 87.6241 344.357 87.6241Z" fill="black"/>
<path d="M339.155 82H155.643C147.004 82 140 89.5738 140 98.9165V289.106C140 298.449 147.004 306.023 155.643 306.023H339.155C347.794 306.023 354.798 298.449 354.798 289.106V98.9165C354.798 89.5738 347.794 82 339.155 82Z" fill="white" stroke="black" stroke-width="2" stroke-miterlimit="10"/>
<path d="M320.588 132.207C320.588 137.575 318.756 142.754 315.444 146.753C312.132 150.752 307.572 153.289 302.638 153.878C297.704 154.468 292.742 153.068 288.703 149.948C284.664 146.827 281.831 142.205 280.747 136.967H211.127C210.043 142.205 207.21 146.828 203.17 149.948C199.131 153.068 194.169 154.468 189.235 153.878C184.3 153.288 179.741 150.751 176.429 146.752C173.117 142.753 171.286 137.573 171.286 132.205C171.286 126.837 173.117 121.657 176.429 117.658C179.741 113.659 184.3 111.122 189.235 110.532C194.169 109.943 199.131 111.342 203.17 114.462C207.21 117.583 210.043 122.205 211.127 127.444H280.747C281.831 122.205 284.664 117.583 288.704 114.462C292.743 111.342 297.706 109.942 302.64 110.532C307.574 111.122 312.134 113.66 315.446 117.659C318.757 121.659 320.588 126.839 320.588 132.207Z" stroke="black" stroke-width="2" stroke-miterlimit="10"/>
<path d="M323.991 135.888C323.991 141.256 322.159 146.436 318.847 150.434C315.535 154.433 310.976 156.97 306.042 157.56C301.108 158.149 296.146 156.75 292.106 153.629C288.067 150.509 285.234 145.886 284.15 140.648H214.53C213.446 145.887 210.613 150.509 206.574 153.629C202.534 156.75 197.572 158.149 192.638 157.559C187.704 156.97 183.144 154.432 179.832 150.433C176.52 146.434 174.689 141.255 174.689 135.886C174.689 130.518 176.52 125.338 179.832 121.339C183.144 117.34 187.704 114.803 192.638 114.213C197.572 113.623 202.534 115.023 206.574 118.143C210.613 121.264 213.446 125.886 214.53 131.125H284.15C285.234 125.886 288.068 121.264 292.107 118.143C296.147 115.023 301.109 113.623 306.043 114.213C310.978 114.803 315.537 117.341 318.849 121.34C322.161 125.34 323.992 130.52 323.991 135.888V135.888Z" stroke="black" stroke-width="2" stroke-miterlimit="10"/>
<path d="M320.588 190.854C320.588 196.223 318.756 201.402 315.444 205.401C312.132 209.399 307.572 211.936 302.638 212.526C297.704 213.115 292.742 211.716 288.703 208.595C284.664 205.475 281.831 200.853 280.747 195.614H211.127C210.043 200.853 207.21 205.475 203.17 208.596C199.131 211.716 194.169 213.115 189.235 212.526C184.3 211.936 179.741 209.399 176.429 205.4C173.117 201.401 171.286 196.221 171.286 190.853C171.286 185.484 173.117 180.304 176.429 176.305C179.741 172.306 184.3 169.769 189.235 169.179C194.169 168.59 199.131 169.989 203.17 173.109C207.21 176.23 210.043 180.852 211.127 186.091H280.747C281.831 180.852 284.664 176.23 288.704 173.109C292.743 169.989 297.706 168.589 302.64 169.179C307.574 169.769 312.134 172.307 315.446 176.306C318.757 180.306 320.588 185.486 320.588 190.854Z" stroke="black" stroke-width="2" stroke-miterlimit="10"/>
<path d="M323.991 194.536C323.991 199.904 322.159 205.083 318.847 209.082C315.535 213.081 310.976 215.618 306.042 216.207C301.107 216.797 296.146 215.397 292.106 212.277C288.067 209.156 285.234 204.534 284.15 199.296H214.53C213.446 204.534 210.613 209.157 206.574 212.277C202.534 215.398 197.572 216.797 192.638 216.207C187.704 215.617 183.144 213.08 179.832 209.081C176.52 205.082 174.689 199.902 174.689 194.534C174.689 189.166 176.52 183.986 179.832 179.987C183.144 175.988 187.704 173.451 192.638 172.861C197.572 172.271 202.534 173.671 206.574 176.791C210.613 179.912 213.446 184.534 214.53 189.773H284.15C285.234 184.534 288.068 179.911 292.107 176.791C296.147 173.671 301.109 172.271 306.043 172.861C310.978 173.451 315.537 175.989 318.849 179.988C322.161 183.988 323.992 189.168 323.991 194.536H323.991Z" stroke="black" stroke-width="2" stroke-miterlimit="10"/>
<path d="M317.259 187.173C317.258 192.541 315.427 197.721 312.115 201.719C308.803 205.718 304.243 208.255 299.309 208.845C294.375 209.434 289.413 208.035 285.374 204.914C281.335 201.794 278.502 197.172 277.418 191.933H207.798C206.714 197.172 203.881 201.794 199.841 204.914C195.802 208.035 190.84 209.434 185.905 208.845C180.971 208.255 176.411 205.717 173.1 201.718C169.788 197.719 167.956 192.54 167.956 187.171C167.956 181.803 169.788 176.623 173.1 172.624C176.411 168.625 180.971 166.088 185.905 165.498C190.84 164.909 195.802 166.308 199.841 169.428C203.881 172.549 206.714 177.171 207.798 182.41H277.418C278.502 177.171 281.335 172.549 285.374 169.428C289.414 166.308 294.376 164.908 299.311 165.498C304.245 166.088 308.805 168.626 312.116 172.625C315.428 176.625 317.259 181.805 317.259 187.173Z" fill="white" stroke="black" stroke-width="2" stroke-miterlimit="10"/>
<path d="M320.588 249.501C320.588 254.869 318.756 260.048 315.444 264.047C312.132 268.045 307.572 270.582 302.638 271.172C297.704 271.761 292.742 270.362 288.703 267.241C284.664 264.121 281.831 259.499 280.747 254.26H211.127C210.043 259.499 207.21 264.121 203.17 267.242C199.131 270.362 194.169 271.761 189.235 271.172C184.3 270.582 179.741 268.045 176.429 264.046C173.117 260.047 171.286 254.867 171.286 249.499C171.286 244.131 173.117 238.951 176.429 234.952C179.741 230.953 184.3 228.416 189.235 227.826C194.169 227.236 199.131 228.636 203.17 231.756C207.21 234.877 210.043 239.499 211.127 244.737H280.747C281.831 239.499 284.664 234.876 288.704 231.756C292.743 228.636 297.706 227.236 302.64 227.826C307.574 228.416 312.134 230.954 315.446 234.953C318.757 238.952 320.588 244.132 320.588 249.501Z" stroke="black" stroke-width="2" stroke-miterlimit="10"/>
<path d="M323.991 253.183C323.991 258.551 322.159 263.73 318.847 267.729C315.535 271.727 310.976 274.264 306.042 274.854C301.108 275.443 296.146 274.044 292.106 270.923C288.067 267.803 285.234 263.181 284.15 257.942H214.53C213.446 263.181 210.613 267.803 206.574 270.924C202.534 274.044 197.572 275.443 192.638 274.854C187.704 274.264 183.144 271.727 179.832 267.728C176.52 263.729 174.689 258.549 174.689 253.181C174.689 247.813 176.52 242.633 179.832 238.634C183.144 234.635 187.704 232.098 192.638 231.508C197.572 230.918 202.534 232.318 206.574 235.438C210.613 238.559 213.446 243.181 214.53 248.419H284.15C285.234 243.181 288.068 238.558 292.107 235.438C296.147 232.318 301.109 230.918 306.043 231.508C310.978 232.098 315.537 234.636 318.849 238.635C322.161 242.635 323.992 247.814 323.991 253.183V253.183Z" stroke="black" stroke-width="2" stroke-miterlimit="10"/>
<path d="M317.182 245.82C317.182 251.188 315.351 256.368 312.039 260.366C308.727 264.365 304.167 266.902 299.233 267.492C294.299 268.081 289.337 266.682 285.298 263.561C281.258 260.441 278.426 255.818 277.342 250.58H207.722C206.638 255.819 203.804 260.441 199.765 263.561C195.726 266.682 190.764 268.081 185.829 267.491C180.895 266.902 176.335 264.364 173.023 260.365C169.712 256.366 167.88 251.187 167.88 245.818C167.88 240.45 169.712 235.27 173.023 231.271C176.335 227.272 180.895 224.735 185.829 224.145C190.764 223.555 195.726 224.955 199.765 228.075C203.804 231.196 206.638 235.818 207.722 241.057H277.342C278.426 235.818 281.259 231.196 285.298 228.075C289.338 224.955 294.3 223.555 299.235 224.145C304.169 224.735 308.729 227.273 312.04 231.272C315.352 235.272 317.183 240.452 317.182 245.82Z" fill="white" stroke="black" stroke-width="2" stroke-miterlimit="10"/>
<path d="M317.054 128.171C317.054 133.49 315.225 138.621 311.917 142.582C308.61 146.544 304.057 149.057 299.129 149.641C294.202 150.225 289.247 148.839 285.213 145.747C281.179 142.656 278.35 138.077 277.268 132.887H207.743C206.66 138.077 203.831 142.656 199.797 145.748C195.763 148.839 190.808 150.225 185.88 149.641C180.953 149.057 176.399 146.543 173.092 142.581C169.785 138.619 167.956 133.488 167.956 128.17C167.956 122.851 169.785 117.72 173.092 113.758C176.399 109.796 180.953 107.282 185.88 106.698C190.808 106.114 195.763 107.5 199.797 110.592C203.831 113.683 206.66 118.262 207.743 123.452H277.268C278.35 118.262 281.18 113.683 285.214 110.591C289.248 107.5 294.203 106.114 299.131 106.698C304.058 107.283 308.612 109.797 311.919 113.759C315.226 117.721 317.055 122.853 317.054 128.171V128.171Z" fill="white" stroke="black" stroke-width="2" stroke-miterlimit="10"/>
<rect x="208.725" y="127.191" width="4.53001" height="2.42809" fill="#0D0D0D"/>
<rect x="272.145" y="127.191" width="4.53001" height="2.42809" fill="#0D0D0D"/>
<rect x="215.521" y="127.191" width="9.06002" height="2.42809" fill="#0D0D0D"/>
<rect x="226.845" y="127.191" width="9.06002" height="2.42809" fill="#0D0D0D"/>
<rect x="238.171" y="127.191" width="9.06002" height="2.42809" fill="#0D0D0D"/>
<rect x="249.496" y="127.191" width="9.06002" height="2.42809" fill="#0D0D0D"/>
<rect x="260.821" y="127.191" width="9.06002" height="2.42809" fill="#0D0D0D"/>
<path d="M188.031 145.747C196.779 145.747 203.871 138.114 203.871 128.699C203.871 119.283 196.779 111.65 188.031 111.65C179.283 111.65 172.192 119.283 172.192 128.699C172.192 138.114 179.283 145.747 188.031 145.747Z" fill="#0D0D0D"/>
<path d="M182.444 120.624V127.622" stroke="white" stroke-width="4" stroke-miterlimit="10" stroke-linecap="round"/>
<path d="M193.617 120.623V127.622" stroke="white" stroke-width="4" stroke-miterlimit="10" stroke-linecap="round"/>
<path d="M199.002 130.311C197.254 136.676 192.122 139.105 188.031 139.105C183.94 139.105 178.808 136.676 177.06 130.311" stroke="white" stroke-width="4" stroke-miterlimit="10" stroke-linecap="round"/>
<path d="M296.467 144.9C305.215 144.9 312.306 137.267 312.306 127.852C312.306 118.436 305.215 110.803 296.467 110.803C287.718 110.803 280.627 118.436 280.627 127.852C280.627 137.267 287.718 144.9 296.467 144.9Z" fill="#0D0D0D"/>
<path d="M290.88 119.776V126.775" stroke="white" stroke-width="4" stroke-miterlimit="10" stroke-linecap="round"/>
<path d="M302.052 119.776V126.775" stroke="white" stroke-width="4" stroke-miterlimit="10" stroke-linecap="round"/>
<path d="M307.437 129.464C305.689 135.829 300.557 138.258 296.466 138.258C292.375 138.258 287.243 135.829 285.495 129.464" stroke="white" stroke-width="4" stroke-miterlimit="10" stroke-linecap="round"/>
<path d="M188.031 204.201C196.779 204.201 203.871 196.568 203.871 187.152C203.871 177.737 196.779 170.104 188.031 170.104C179.283 170.104 172.192 177.737 172.192 187.152C172.192 196.568 179.283 204.201 188.031 204.201Z" fill="#0D0D0D"/>
<path d="M182.444 179.077V186.076" stroke="white" stroke-width="4" stroke-miterlimit="10" stroke-linecap="round"/>
<path d="M193.617 179.077V186.075" stroke="white" stroke-width="4" stroke-miterlimit="10" stroke-linecap="round"/>
<path d="M199.002 188.765C197.254 195.129 192.122 197.558 188.031 197.558C183.94 197.558 178.808 195.129 177.06 188.765" stroke="white" stroke-width="4" stroke-miterlimit="10" stroke-linecap="round"/>
<path d="M296.467 204.201C305.215 204.201 312.306 196.568 312.306 187.152C312.306 177.737 305.215 170.104 296.467 170.104C287.718 170.104 280.627 177.737 280.627 187.152C280.627 196.568 287.718 204.201 296.467 204.201Z" fill="#0D0D0D"/>
<path d="M290.88 179.077V186.076" stroke="white" stroke-width="4" stroke-miterlimit="10" stroke-linecap="round"/>
<path d="M302.052 179.077V186.075" stroke="white" stroke-width="4" stroke-miterlimit="10" stroke-linecap="round"/>
<path d="M307.437 188.765C305.689 195.129 300.557 197.558 296.466 197.558C292.375 197.558 287.243 195.129 285.495 188.765" stroke="white" stroke-width="4" stroke-miterlimit="10" stroke-linecap="round"/>
<path d="M296.467 262.654C305.215 262.654 312.306 255.021 312.306 245.605C312.306 236.19 305.215 228.557 296.467 228.557C287.718 228.557 280.627 236.19 280.627 245.605C280.627 255.021 287.718 262.654 296.467 262.654Z" fill="#0D0D0D"/>
<path d="M290.88 237.53V244.529" stroke="white" stroke-width="4" stroke-miterlimit="10" stroke-linecap="round"/>
<path d="M302.052 237.53V244.529" stroke="white" stroke-width="4" stroke-miterlimit="10" stroke-linecap="round"/>
<path d="M307.437 247.218C305.689 253.582 300.557 256.011 296.466 256.011C292.375 256.011 287.243 253.582 285.495 247.218" stroke="white" stroke-width="4" stroke-miterlimit="10" stroke-linecap="round"/>
<path d="M188.031 262.654C196.779 262.654 203.871 255.021 203.871 245.605C203.871 236.19 196.779 228.557 188.031 228.557C179.283 228.557 172.192 236.19 172.192 245.605C172.192 255.021 179.283 262.654 188.031 262.654Z" fill="#0D0D0D"/>
<path d="M182.444 237.53V244.529" stroke="white" stroke-width="4" stroke-miterlimit="10" stroke-linecap="round"/>
<path d="M193.617 237.53V244.529" stroke="white" stroke-width="4" stroke-miterlimit="10" stroke-linecap="round"/>
<path d="M199.002 247.218C197.254 253.582 192.122 256.011 188.031 256.011C183.94 256.011 178.808 253.582 177.06 247.218" stroke="white" stroke-width="4" stroke-miterlimit="10" stroke-linecap="round"/>
</svg>
