<svg width="70" height="71" viewBox="0 0 70 71" fill="none" xmlns="http://www.w3.org/2000/svg">
<path d="M2.51355 35.5268L2.51609 35.4479L2.51364 35.3689C2.00837 19.0814 16.664 2.44614 35.156 2.50013C52.8353 2.55415 67.7185 17.47 67.4976 35.4108V35.4109C67.2661 54.3158 53.0015 68.3959 35.0298 68.4995C16.1658 68.6073 1.99841 51.53 2.51355 35.5268ZM37.0566 16.064C36.3596 15.8763 35.0055 15.5558 33.6643 15.9187C28.5331 17.2964 23.4088 18.7284 18.3013 20.2293L18.3013 20.2293L18.2931 20.2317C17.4807 20.4735 16.8067 20.9981 16.3811 21.4249C16.143 21.6635 15.8889 21.9644 15.678 22.3194C15.4908 22.6345 15.204 23.2136 15.1964 23.9565L15.1963 23.9667L15.1962 23.977C15.1941 25.0522 15.169 26.1719 15.1434 27.3206C15.0639 30.8775 14.9783 34.712 15.5448 38.3625C17.0686 48.2301 23.7878 53.9856 31.4813 58.004C32.7 58.6421 33.9618 58.9974 35.2989 58.9612C36.6212 58.9254 37.8164 58.5118 38.9134 57.9303C44.1713 55.1509 48.5438 51.6324 51.4448 47.1628C54.3532 42.6819 55.6815 37.3976 55.1017 31.2914C55.1007 30.3743 55.0879 29.607 55.0767 28.9329C55.0553 27.6439 55.0396 26.6955 55.122 25.6911L55.1222 25.6889C55.2125 24.575 55.1542 23.1914 54.3269 21.9723C53.4778 20.7209 52.1734 20.1545 50.9598 19.8593C48.0252 19.1413 45.1655 18.3331 42.2567 17.5111C40.549 17.0284 38.8244 16.5411 37.0578 16.0644L37.0566 16.064Z" fill="black" stroke="black" stroke-width="5"/>
</svg>
