<svg width="303" height="53" viewBox="0 0 303 53" fill="none" xmlns="http://www.w3.org/2000/svg">
<rect x="1.5" y="1.5" width="300" height="50" fill="#0D0D0D"/>
<path d="M37.8989 16.83L37.1149 15.752L38.6129 15.458L38.3889 13.82L36.9469 14.436L37.3949 12.98H35.6869L35.5749 14.422L34.3569 13.82L33.5169 15.458L34.8889 15.752L33.6989 16.83L34.8889 17.824L35.8409 16.55L36.3309 17.824L37.8989 16.83ZM47.1558 18.874L48.3038 12.98H46.0638L44.9158 18.874C44.6778 20.148 43.8518 20.918 42.6898 20.918C41.7238 20.918 41.2198 20.386 41.2198 19.462C41.2198 19.266 41.2338 19.084 41.2758 18.874L42.4238 12.98H40.1698L39.0218 18.874C38.9658 19.154 38.9378 19.42 38.9378 19.672C38.9378 21.45 40.2118 22.724 42.5218 22.724C45.0698 22.724 46.6798 21.338 47.1558 18.874ZM47.9594 22.5H50.1014L50.9834 17.978C51.2214 17.11 51.8654 16.466 52.6634 16.466C53.3074 16.466 53.6154 16.788 53.6154 17.418C53.6154 17.558 53.6014 17.726 53.5594 17.908L52.6634 22.5H54.8054L55.7294 17.796C55.7854 17.488 55.8134 17.208 55.8134 16.942C55.8134 15.5 54.9314 14.73 53.6294 14.73C52.7754 14.73 52.0194 15.052 51.4174 15.71L51.5574 14.968H49.4154L47.9594 22.5ZM57.8683 14.212H60.0103L60.3603 12.42H58.2183L57.8683 14.212ZM56.2583 22.5H58.4003L59.8563 14.968H57.7143L56.2583 22.5ZM62.6683 22.528C63.4103 22.528 64.1383 22.178 64.7543 21.604L64.5163 22.78C64.3063 23.83 63.7183 24.18 62.9623 24.18C62.2343 24.18 61.8143 23.844 61.7583 23.144H59.6163C59.6163 24.684 60.8203 25.818 62.8083 25.818C64.7823 25.818 66.2243 24.95 66.6303 22.892L68.1843 14.968H66.0423L65.9163 15.598C65.5523 15.038 64.9783 14.73 64.2083 14.73C61.8423 14.73 60.1763 17.068 60.1763 19.644C60.1763 21.38 61.1283 22.528 62.6683 22.528ZM63.4523 20.778C62.7663 20.778 62.4023 20.33 62.4023 19.518C62.4023 17.992 63.2563 16.466 64.3483 16.466C65.0483 16.466 65.4123 16.914 65.4123 17.726C65.4123 19.014 64.6843 20.778 63.4523 20.778ZM68.1665 22.5H70.3085L71.0645 18.608C71.2885 17.348 71.9605 16.69 73.3045 16.69C73.6405 16.69 73.8925 16.718 74.1305 16.774L74.4945 14.968C74.3685 14.814 74.1025 14.73 73.6685 14.73C72.9265 14.73 72.2125 15.066 71.6105 15.738L71.7645 14.968H69.6225L68.1665 22.5ZM76.8226 17.46C77.0326 16.872 77.5226 16.466 78.2646 16.466C78.9926 16.466 79.3426 16.76 79.3426 17.334C79.3426 17.46 79.3286 17.586 79.3006 17.726L79.2726 17.894C77.7466 17.908 76.9626 17.978 75.8146 18.356C74.5266 18.79 73.8406 19.686 73.8406 20.722C73.8406 22.038 74.8066 22.724 76.1226 22.724C76.9346 22.724 77.8166 22.416 78.5446 21.716C78.5166 21.94 78.5026 22.136 78.5026 22.29C78.5026 22.374 78.5026 22.444 78.5166 22.5H80.7286C80.7146 22.388 80.7006 22.276 80.7006 22.122C80.7006 21.786 80.7426 21.352 80.8826 20.624L81.4286 17.81C81.4706 17.572 81.4986 17.362 81.4986 17.138C81.4986 15.766 80.5606 14.73 78.5586 14.73C76.5986 14.73 75.1566 15.668 74.6806 17.46H76.8226ZM76.0526 20.498C76.0526 19.742 76.7106 19.182 79.0206 19.14L78.9646 19.434C78.7686 20.47 77.8866 21.24 76.9206 21.24C76.3746 21.24 76.0526 21.002 76.0526 20.498ZM82.0434 22.5H84.1854L85.0674 17.95C85.3054 17.096 85.8654 16.466 86.5934 16.466C87.1114 16.466 87.3914 16.774 87.3914 17.362C87.3914 17.53 87.3774 17.712 87.3354 17.908L86.4394 22.5H88.5674L89.4634 17.95C89.7014 17.096 90.2614 16.466 90.9894 16.466C91.5074 16.466 91.7874 16.774 91.7874 17.362C91.7874 17.53 91.7734 17.712 91.7314 17.908L90.8214 22.5H92.9634L93.8874 17.796C93.9434 17.488 93.9714 17.194 93.9714 16.942C93.9714 15.486 93.1034 14.73 91.8434 14.73C90.8774 14.73 90.0374 15.094 89.3794 15.864C89.0714 15.122 88.3994 14.73 87.5594 14.73C86.7754 14.73 86.0754 15.024 85.5154 15.64L85.6414 14.968H83.4994L82.0434 22.5ZM101.969 14.506C102.963 14.506 103.425 14.982 103.495 15.892H105.847C105.847 13.946 104.475 12.756 102.179 12.756C99.4771 12.756 98.1891 14.226 98.1891 15.808C98.1891 19.112 102.949 18.006 102.949 19.714C102.949 20.442 102.319 20.974 101.227 20.974C100.233 20.974 99.6591 20.442 99.5891 19.518H97.2371C97.3211 21.52 98.6651 22.724 101.157 22.724C103.733 22.724 105.343 21.31 105.343 19.476C105.343 16.032 100.583 17.18 100.583 15.57C100.583 14.982 101.031 14.506 101.969 14.506ZM114.092 14.968H111.95L111.082 19.42C110.858 20.33 110.2 20.988 109.416 20.988C108.814 20.988 108.506 20.68 108.506 20.078C108.506 19.924 108.534 19.742 108.576 19.546L109.458 14.968H107.316L106.406 19.63C106.35 19.952 106.322 20.26 106.322 20.526C106.322 22.01 107.19 22.724 108.45 22.724C109.22 22.724 109.99 22.416 110.62 21.758L110.48 22.5H112.622L114.092 14.968ZM117.129 17.11C117.129 16.69 117.507 16.368 118.179 16.368C118.963 16.368 119.327 16.718 119.341 17.46H121.441C121.329 15.682 120.181 14.73 118.305 14.73C116.205 14.73 115.015 15.962 115.015 17.278C115.015 20.064 118.851 18.958 118.851 20.26C118.851 20.736 118.431 21.1 117.549 21.1C116.695 21.1 116.317 20.652 116.303 20.022H114.161C114.203 21.772 115.435 22.724 117.423 22.724C119.761 22.724 121.035 21.422 121.035 20.064C121.035 17.32 117.129 18.398 117.129 17.11ZM122.434 20.008C122.364 20.386 122.322 20.722 122.322 21.016C122.322 22.22 122.952 22.724 124.296 22.724C124.87 22.724 125.36 22.64 125.626 22.528L125.934 20.918H125.486C124.828 20.918 124.562 20.722 124.562 20.246C124.562 20.12 124.59 19.952 124.632 19.77L125.248 16.592H126.788L127.11 14.968H125.556L125.892 13.218H123.75L123.414 14.968H122.504L122.182 16.592H123.092L122.434 20.008ZM129.596 17.46C129.806 16.872 130.296 16.466 131.038 16.466C131.766 16.466 132.116 16.76 132.116 17.334C132.116 17.46 132.102 17.586 132.074 17.726L132.046 17.894C130.52 17.908 129.736 17.978 128.588 18.356C127.3 18.79 126.614 19.686 126.614 20.722C126.614 22.038 127.58 22.724 128.896 22.724C129.708 22.724 130.59 22.416 131.318 21.716C131.29 21.94 131.276 22.136 131.276 22.29C131.276 22.374 131.276 22.444 131.29 22.5H133.502C133.488 22.388 133.474 22.276 133.474 22.122C133.474 21.786 133.516 21.352 133.656 20.624L134.202 17.81C134.244 17.572 134.272 17.362 134.272 17.138C134.272 15.766 133.334 14.73 131.332 14.73C129.372 14.73 127.93 15.668 127.454 17.46H129.596ZM128.826 20.498C128.826 19.742 129.484 19.182 131.794 19.14L131.738 19.434C131.542 20.47 130.66 21.24 129.694 21.24C129.148 21.24 128.826 21.002 128.826 20.498ZM136.427 14.212H138.569L138.919 12.42H136.777L136.427 14.212ZM134.817 22.5H136.959L138.415 14.968H136.273L134.817 22.5ZM138.399 22.5H140.541L141.423 17.978C141.661 17.11 142.305 16.466 143.103 16.466C143.747 16.466 144.055 16.788 144.055 17.418C144.055 17.558 144.041 17.726 143.999 17.908L143.103 22.5H145.245L146.169 17.796C146.225 17.488 146.253 17.208 146.253 16.942C146.253 15.5 145.371 14.73 144.069 14.73C143.215 14.73 142.459 15.052 141.857 15.71L141.997 14.968H139.855L138.399 22.5ZM147.244 19.602H151.136L151.486 17.768H147.594L147.244 19.602ZM157.651 17.46C157.861 16.872 158.351 16.466 159.093 16.466C159.821 16.466 160.171 16.76 160.171 17.334C160.171 17.46 160.157 17.586 160.129 17.726L160.101 17.894C158.575 17.908 157.791 17.978 156.643 18.356C155.355 18.79 154.669 19.686 154.669 20.722C154.669 22.038 155.635 22.724 156.951 22.724C157.763 22.724 158.645 22.416 159.373 21.716C159.345 21.94 159.331 22.136 159.331 22.29C159.331 22.374 159.331 22.444 159.345 22.5H161.557C161.543 22.388 161.529 22.276 161.529 22.122C161.529 21.786 161.571 21.352 161.711 20.624L162.257 17.81C162.299 17.572 162.327 17.362 162.327 17.138C162.327 15.766 161.389 14.73 159.387 14.73C157.427 14.73 155.985 15.668 155.509 17.46H157.651ZM156.881 20.498C156.881 19.742 157.539 19.182 159.849 19.14L159.793 19.434C159.597 20.47 158.715 21.24 157.749 21.24C157.203 21.24 156.881 21.002 156.881 20.498ZM164.412 25.594L165.14 21.828C165.504 22.402 166.092 22.724 166.89 22.724C169.256 22.724 170.936 20.33 170.936 17.698C170.936 15.906 169.984 14.73 168.43 14.73C167.688 14.73 166.96 15.066 166.344 15.654L166.484 14.968H164.342L162.27 25.594H164.412ZM167.646 16.466C168.346 16.466 168.71 16.942 168.71 17.824C168.71 19.406 167.856 20.988 166.75 20.988C166.036 20.988 165.658 20.512 165.658 19.63C165.658 18.3 166.4 16.466 167.646 16.466ZM172.738 25.594L173.466 21.828C173.83 22.402 174.418 22.724 175.216 22.724C177.582 22.724 179.262 20.33 179.262 17.698C179.262 15.906 178.31 14.73 176.756 14.73C176.014 14.73 175.286 15.066 174.67 15.654L174.81 14.968H172.668L170.596 25.594H172.738ZM175.972 16.466C176.672 16.466 177.036 16.942 177.036 17.824C177.036 19.406 176.182 20.988 175.076 20.988C174.362 20.988 173.984 20.512 173.984 19.63C173.984 18.3 174.726 16.466 175.972 16.466ZM187.112 20.022H184.872C184.564 20.722 183.976 21.016 183.262 21.016C182.45 21.016 182.03 20.526 182.03 19.532C182.03 19.406 182.03 19.294 182.044 19.168H187.224L187.294 18.776C187.35 18.44 187.378 18.104 187.378 17.796C187.378 15.934 186.258 14.73 184.27 14.73C181.638 14.73 179.832 17.012 179.832 19.602C179.832 21.576 181.078 22.724 183.094 22.724C184.788 22.724 186.426 21.814 187.112 20.022ZM184.074 16.438C184.844 16.438 185.25 16.928 185.25 17.838C185.25 17.866 185.25 17.908 185.25 17.936H182.324C182.66 17.068 183.276 16.438 184.074 16.438ZM190.737 17.46C190.947 16.872 191.437 16.466 192.179 16.466C192.907 16.466 193.257 16.76 193.257 17.334C193.257 17.46 193.243 17.586 193.215 17.726L193.187 17.894C191.661 17.908 190.877 17.978 189.729 18.356C188.441 18.79 187.755 19.686 187.755 20.722C187.755 22.038 188.721 22.724 190.037 22.724C190.849 22.724 191.731 22.416 192.459 21.716C192.431 21.94 192.417 22.136 192.417 22.29C192.417 22.374 192.417 22.444 192.431 22.5H194.643C194.629 22.388 194.615 22.276 194.615 22.122C194.615 21.786 194.657 21.352 194.797 20.624L195.343 17.81C195.385 17.572 195.413 17.362 195.413 17.138C195.413 15.766 194.475 14.73 192.473 14.73C190.513 14.73 189.071 15.668 188.595 17.46H190.737ZM189.967 20.498C189.967 19.742 190.625 19.182 192.935 19.14L192.879 19.434C192.683 20.47 191.801 21.24 190.835 21.24C190.289 21.24 189.967 21.002 189.967 20.498ZM195.957 22.5H198.099L198.855 18.608C199.079 17.348 199.751 16.69 201.095 16.69C201.431 16.69 201.683 16.718 201.921 16.774L202.285 14.968C202.159 14.814 201.893 14.73 201.459 14.73C200.717 14.73 200.003 15.066 199.401 15.738L199.555 14.968H197.413L195.957 22.5ZM203.282 14.212H205.424L205.774 12.42H203.632L203.282 14.212ZM201.672 22.5H203.814L205.27 14.968H203.128L201.672 22.5ZM205.254 22.5H207.396L208.278 17.978C208.516 17.11 209.16 16.466 209.958 16.466C210.602 16.466 210.91 16.788 210.91 17.418C210.91 17.558 210.896 17.726 210.854 17.908L209.958 22.5H212.1L213.024 17.796C213.08 17.488 213.108 17.208 213.108 16.942C213.108 15.5 212.226 14.73 210.924 14.73C210.07 14.73 209.314 15.052 208.712 15.71L208.852 14.968H206.71L205.254 22.5ZM216.381 22.528C217.123 22.528 217.851 22.178 218.467 21.604L218.229 22.78C218.019 23.83 217.431 24.18 216.675 24.18C215.947 24.18 215.527 23.844 215.471 23.144H213.329C213.329 24.684 214.533 25.818 216.521 25.818C218.495 25.818 219.937 24.95 220.343 22.892L221.897 14.968H219.755L219.629 15.598C219.265 15.038 218.691 14.73 217.921 14.73C215.555 14.73 213.889 17.068 213.889 19.644C213.889 21.38 214.841 22.528 216.381 22.528ZM217.165 20.778C216.479 20.778 216.115 20.33 216.115 19.518C216.115 17.992 216.969 16.466 218.061 16.466C218.761 16.466 219.125 16.914 219.125 17.726C219.125 19.014 218.397 20.778 217.165 20.778ZM227.976 22.724C230.678 22.724 232.428 20.414 232.428 17.866C232.428 15.906 231.21 14.73 229.278 14.73C226.576 14.73 224.826 17.04 224.826 19.588C224.826 21.562 226.03 22.724 227.976 22.724ZM228.2 20.988C227.43 20.988 227.038 20.498 227.038 19.588C227.038 18.09 227.836 16.466 229.054 16.466C229.824 16.466 230.216 16.956 230.216 17.88C230.216 19.378 229.418 20.988 228.2 20.988ZM232.735 22.5H234.877L235.759 17.978C235.997 17.11 236.641 16.466 237.439 16.466C238.083 16.466 238.391 16.788 238.391 17.418C238.391 17.558 238.377 17.726 238.335 17.908L237.439 22.5H239.581L240.505 17.796C240.561 17.488 240.589 17.208 240.589 16.942C240.589 15.5 239.707 14.73 238.405 14.73C237.551 14.73 236.795 15.052 236.193 15.71L236.333 14.968H234.191L232.735 22.5ZM243.798 22.5H246.038L246.64 19.392H248.18C250.952 19.392 252.604 17.726 252.604 15.724C252.604 13.974 251.33 12.98 249.314 12.98H245.646L243.798 22.5ZM248.978 14.758C249.832 14.758 250.266 15.178 250.266 15.836C250.266 16.844 249.608 17.614 248.362 17.614H246.99L247.536 14.758H248.978ZM257.139 22.724C260.569 22.724 262.879 19.882 262.879 16.746C262.865 14.212 261.325 12.756 258.819 12.756C255.375 12.756 253.079 15.598 253.079 18.734C253.079 21.268 254.619 22.724 257.139 22.724ZM257.349 20.89C256.075 20.89 255.403 20.036 255.403 18.608C255.403 16.732 256.635 14.59 258.595 14.59C259.883 14.59 260.555 15.444 260.541 16.872C260.541 18.748 259.323 20.89 257.349 20.89ZM268 14.506C268.994 14.506 269.456 14.982 269.526 15.892H271.878C271.878 13.946 270.506 12.756 268.21 12.756C265.508 12.756 264.22 14.226 264.22 15.808C264.22 19.112 268.98 18.006 268.98 19.714C268.98 20.442 268.35 20.974 267.258 20.974C266.264 20.974 265.69 20.442 265.62 19.518H263.268C263.352 21.52 264.696 22.724 267.188 22.724C269.764 22.724 271.374 21.31 271.374 19.476C271.374 16.032 266.614 17.18 266.614 15.57C266.614 14.982 267.062 14.506 268 14.506ZM114.715 40.5L114.841 39.828C115.205 40.402 115.793 40.724 116.591 40.724C118.957 40.724 120.637 38.33 120.637 35.698C120.637 33.906 119.685 32.73 118.131 32.73C117.375 32.73 116.647 33.066 116.045 33.654L116.675 30.42H114.533L112.573 40.5H114.715ZM117.347 34.466C118.047 34.466 118.411 34.942 118.411 35.824C118.411 37.406 117.557 38.988 116.451 38.988C115.737 38.988 115.359 38.512 115.359 37.63C115.359 36.3 116.101 34.466 117.347 34.466ZM120.899 40.5H123.041L125.001 30.42H122.859L120.899 40.5ZM127.939 40.724C130.641 40.724 132.391 38.414 132.391 35.866C132.391 33.906 131.173 32.73 129.241 32.73C126.539 32.73 124.789 35.04 124.789 37.588C124.789 39.562 125.993 40.724 127.939 40.724ZM128.163 38.988C127.393 38.988 127.001 38.498 127.001 37.588C127.001 36.09 127.799 34.466 129.017 34.466C129.787 34.466 130.179 34.956 130.179 35.88C130.179 37.378 129.381 38.988 128.163 38.988ZM140.342 35.684C140.328 33.808 139.208 32.73 137.332 32.73C134.742 32.73 133.006 35.096 133.006 37.602C133.006 39.576 134.196 40.724 136.114 40.724C137.752 40.724 139.306 39.8 139.964 37.924H137.822C137.542 38.638 136.996 38.988 136.366 38.988C135.624 38.988 135.218 38.484 135.218 37.588C135.218 36.034 135.988 34.466 137.15 34.466C137.808 34.466 138.214 34.83 138.214 35.684H140.342ZM140.545 40.5H142.687L143.373 36.958L145.361 40.5H147.769L145.501 36.44L149.071 32.968H146.551L143.555 36.006L144.647 30.42H142.505L140.545 40.5ZM155.682 35.684C155.668 33.808 154.548 32.73 152.672 32.73C150.082 32.73 148.346 35.096 148.346 37.602C148.346 39.576 149.536 40.724 151.454 40.724C153.092 40.724 154.646 39.8 155.304 37.924H153.162C152.882 38.638 152.336 38.988 151.706 38.988C150.964 38.988 150.558 38.484 150.558 37.588C150.558 36.034 151.328 34.466 152.49 34.466C153.148 34.466 153.554 34.83 153.554 35.684H155.682ZM155.885 40.5H158.027L158.923 35.922C159.175 35.082 159.805 34.466 160.589 34.466C161.233 34.466 161.541 34.788 161.541 35.418C161.541 35.558 161.527 35.726 161.485 35.908L160.589 40.5H162.731L163.669 35.698C163.725 35.39 163.753 35.11 163.753 34.858C163.753 33.416 162.843 32.73 161.597 32.73C160.729 32.73 159.959 33.052 159.343 33.738L159.987 30.42H157.845L155.885 40.5ZM167.18 35.46C167.39 34.872 167.88 34.466 168.622 34.466C169.35 34.466 169.7 34.76 169.7 35.334C169.7 35.46 169.686 35.586 169.658 35.726L169.63 35.894C168.104 35.908 167.32 35.978 166.172 36.356C164.884 36.79 164.198 37.686 164.198 38.722C164.198 40.038 165.164 40.724 166.48 40.724C167.292 40.724 168.174 40.416 168.902 39.716C168.874 39.94 168.86 40.136 168.86 40.29C168.86 40.374 168.86 40.444 168.874 40.5H171.086C171.072 40.388 171.058 40.276 171.058 40.122C171.058 39.786 171.1 39.352 171.24 38.624L171.786 35.81C171.828 35.572 171.856 35.362 171.856 35.138C171.856 33.766 170.918 32.73 168.916 32.73C166.956 32.73 165.514 33.668 165.038 35.46H167.18ZM166.41 38.498C166.41 37.742 167.068 37.182 169.378 37.14L169.322 37.434C169.126 38.47 168.244 39.24 167.278 39.24C166.732 39.24 166.41 39.002 166.41 38.498ZM174.011 32.212H176.153L176.503 30.42H174.361L174.011 32.212ZM172.401 40.5H174.543L175.999 32.968H173.857L172.401 40.5ZM175.983 40.5H178.125L179.007 35.978C179.245 35.11 179.889 34.466 180.687 34.466C181.331 34.466 181.639 34.788 181.639 35.418C181.639 35.558 181.625 35.726 181.583 35.908L180.687 40.5H182.829L183.753 35.796C183.809 35.488 183.837 35.208 183.837 34.942C183.837 33.5 182.955 32.73 181.653 32.73C180.799 32.73 180.043 33.052 179.441 33.71L179.581 32.968H177.439L175.983 40.5ZM187.334 35.11C187.334 34.69 187.712 34.368 188.384 34.368C189.168 34.368 189.532 34.718 189.546 35.46H191.646C191.534 33.682 190.386 32.73 188.51 32.73C186.41 32.73 185.22 33.962 185.22 35.278C185.22 38.064 189.056 36.958 189.056 38.26C189.056 38.736 188.636 39.1 187.754 39.1C186.9 39.1 186.522 38.652 186.508 38.022H184.366C184.408 39.772 185.64 40.724 187.628 40.724C189.966 40.724 191.24 39.422 191.24 38.064C191.24 35.32 187.334 36.398 187.334 35.11Z" fill="#C3C3C3"/>
<rect x="1.5" y="1.5" width="300" height="50" stroke="#C3C3C3" stroke-width="3"/>
</svg>
